G04*
G04 #@! TF.GenerationSoftware,Altium Limited,Altium Designer,21.9.2 (33)*
G04*
G04 Layer_Color=32896*
%FSLAX25Y25*%
%MOIN*%
G70*
G04*
G04 #@! TF.SameCoordinates,1A6DD151-CB10-4FFE-AF26-4EE6108A4869*
G04*
G04*
G04 #@! TF.FilePolarity,Positive*
G04*
G01*
G75*
%ADD12C,0.00787*%
%ADD14C,0.01000*%
G36*
X311528Y37405D02*
X312456D01*
Y37354D01*
X312971D01*
Y37302D01*
X313332D01*
Y37251D01*
X313641D01*
Y37199D01*
X313950D01*
Y37148D01*
X314207D01*
Y37096D01*
X314413D01*
Y37045D01*
X314620D01*
Y36993D01*
X314826D01*
Y36942D01*
X315083D01*
Y36890D01*
X315238D01*
Y36839D01*
X315444D01*
Y36787D01*
X315599D01*
Y36736D01*
X315753D01*
Y36684D01*
X315908D01*
Y36633D01*
X316062D01*
Y36581D01*
X316217D01*
Y36530D01*
X316320D01*
Y36478D01*
X316474D01*
Y36426D01*
X316629D01*
Y36375D01*
X316783D01*
Y36323D01*
X316886D01*
Y36272D01*
X316989D01*
Y36220D01*
X317144D01*
Y36169D01*
X317247D01*
Y36117D01*
X317350D01*
Y36066D01*
X317505D01*
Y36014D01*
X317608D01*
Y35963D01*
X317711D01*
Y35911D01*
X317814D01*
Y35860D01*
X317917D01*
Y35808D01*
X318020D01*
Y35757D01*
X318123D01*
Y35705D01*
X318226D01*
Y35654D01*
X318329D01*
Y35602D01*
X318432D01*
Y35551D01*
X318535D01*
Y35499D01*
X318587D01*
Y35448D01*
X318690D01*
Y35396D01*
X318793D01*
Y35345D01*
X318844D01*
Y35293D01*
X318947D01*
Y35242D01*
X319050D01*
Y35190D01*
X319102D01*
Y35139D01*
X319205D01*
Y35087D01*
X319256D01*
Y35035D01*
X319359D01*
Y34984D01*
X319462D01*
Y34933D01*
X319514D01*
Y34881D01*
X319617D01*
Y34830D01*
X319669D01*
Y34778D01*
X319772D01*
Y34726D01*
X319823D01*
Y34675D01*
X319875D01*
Y34623D01*
X319978D01*
Y34572D01*
X320029D01*
Y34520D01*
X320132D01*
Y34469D01*
X320184D01*
Y34417D01*
X320235D01*
Y34366D01*
X320338D01*
Y34314D01*
X320390D01*
Y34263D01*
X320441D01*
Y34211D01*
X320493D01*
Y34160D01*
X320596D01*
Y34108D01*
X320647D01*
Y34057D01*
X320699D01*
Y34005D01*
X320750D01*
Y33954D01*
X320853D01*
Y33902D01*
X320905D01*
Y33851D01*
X320956D01*
Y33799D01*
X321008D01*
Y33748D01*
X321059D01*
Y33696D01*
X321111D01*
Y33645D01*
X321163D01*
Y33593D01*
X321214D01*
Y33542D01*
X321317D01*
Y33490D01*
X321369D01*
Y33438D01*
X321420D01*
Y33387D01*
X321472D01*
Y33335D01*
X321523D01*
Y33284D01*
X321575D01*
Y33232D01*
X321626D01*
Y33181D01*
X321678D01*
Y33129D01*
X321729D01*
Y33078D01*
X321781D01*
Y33026D01*
X321832D01*
Y32975D01*
X321884D01*
Y32923D01*
X321935D01*
Y32872D01*
X321987D01*
Y32820D01*
X322038D01*
Y32769D01*
X322090D01*
Y32717D01*
X322141D01*
Y32614D01*
X322193D01*
Y32563D01*
X322245D01*
Y32511D01*
X322296D01*
Y32460D01*
X322347D01*
Y32408D01*
X322399D01*
Y32357D01*
X322451D01*
Y32305D01*
X322502D01*
Y32254D01*
X322554D01*
Y32150D01*
X322605D01*
Y32099D01*
X322657D01*
Y32047D01*
X322708D01*
Y31996D01*
X322760D01*
Y31893D01*
X322811D01*
Y31841D01*
X322863D01*
Y31790D01*
X322914D01*
Y31687D01*
X322966D01*
Y31635D01*
X323017D01*
Y31584D01*
X323069D01*
Y31532D01*
X323120D01*
Y31429D01*
X323172D01*
Y31378D01*
X323223D01*
Y31326D01*
X323275D01*
Y31223D01*
X323326D01*
Y31172D01*
X323378D01*
Y31069D01*
X323429D01*
Y31017D01*
X323481D01*
Y30914D01*
X323533D01*
Y30863D01*
X323584D01*
Y30759D01*
X323636D01*
Y30708D01*
X323687D01*
Y30605D01*
X323739D01*
Y30553D01*
X323790D01*
Y30450D01*
X323842D01*
Y30399D01*
X323893D01*
Y30296D01*
X323945D01*
Y30193D01*
X323996D01*
Y30141D01*
X324048D01*
Y30038D01*
X324099D01*
Y29935D01*
X324151D01*
Y29832D01*
X324202D01*
Y29729D01*
X324254D01*
Y29626D01*
X324305D01*
Y29574D01*
X324357D01*
Y29471D01*
X324408D01*
Y29368D01*
X324460D01*
Y29265D01*
X324511D01*
Y29162D01*
X324563D01*
Y29059D01*
X324614D01*
Y28905D01*
X324666D01*
Y28802D01*
X324717D01*
Y28699D01*
X324769D01*
Y28596D01*
X324820D01*
Y28493D01*
X324872D01*
Y28338D01*
X324923D01*
Y28235D01*
X324975D01*
Y28080D01*
X325026D01*
Y27926D01*
X325078D01*
Y27771D01*
X325130D01*
Y27617D01*
X325181D01*
Y27462D01*
X325233D01*
Y27308D01*
X325284D01*
Y27101D01*
X325336D01*
Y26947D01*
X325387D01*
Y26741D01*
X325439D01*
Y26535D01*
X325490D01*
Y26277D01*
X325542D01*
Y26020D01*
X325593D01*
Y25762D01*
X325645D01*
Y25453D01*
X325696D01*
Y25041D01*
X325748D01*
Y24474D01*
X325799D01*
Y22929D01*
X325748D01*
Y22259D01*
X325696D01*
Y21847D01*
X325645D01*
Y21486D01*
X325593D01*
Y21228D01*
X325542D01*
Y20971D01*
X325490D01*
Y20713D01*
X325439D01*
Y20559D01*
X325387D01*
Y20353D01*
X325336D01*
Y20146D01*
X325284D01*
Y19992D01*
X325954D01*
Y19940D01*
X326160D01*
Y19889D01*
X326314D01*
Y19837D01*
X326469D01*
Y19786D01*
X326572D01*
Y19734D01*
X326675D01*
Y19683D01*
X326778D01*
Y19631D01*
X326881D01*
Y19580D01*
X326984D01*
Y19528D01*
X327036D01*
Y19477D01*
X327139D01*
Y19425D01*
X327242D01*
Y19374D01*
X327293D01*
Y19322D01*
X327396D01*
Y19271D01*
X327448D01*
Y19219D01*
X327500D01*
Y19168D01*
X327551D01*
Y19116D01*
X327603D01*
Y19064D01*
X327654D01*
Y19013D01*
X327706D01*
Y18961D01*
X327757D01*
Y18858D01*
X327809D01*
Y18446D01*
X327757D01*
Y18343D01*
X327706D01*
Y18240D01*
X327654D01*
Y18137D01*
X327603D01*
Y18086D01*
X327551D01*
Y17983D01*
X327500D01*
Y17880D01*
X327448D01*
Y17828D01*
X327396D01*
Y17725D01*
X327448D01*
Y17673D01*
X327500D01*
Y17622D01*
X327603D01*
Y17570D01*
X327706D01*
Y17519D01*
X327757D01*
Y17467D01*
X327809D01*
Y17416D01*
X327912D01*
Y17364D01*
X327963D01*
Y17313D01*
X328015D01*
Y17261D01*
X328118D01*
Y17210D01*
X328169D01*
Y17158D01*
X328221D01*
Y17107D01*
X328272D01*
Y17055D01*
X328375D01*
Y17004D01*
X328427D01*
Y16952D01*
X328478D01*
Y16901D01*
X328530D01*
Y16849D01*
X328581D01*
Y16798D01*
X328633D01*
Y16746D01*
X328684D01*
Y16695D01*
X328736D01*
Y16643D01*
X328787D01*
Y16592D01*
X328839D01*
Y16540D01*
X328890D01*
Y16488D01*
X328942D01*
Y16437D01*
X328994D01*
Y16386D01*
X329045D01*
Y16334D01*
X329097D01*
Y16283D01*
X329148D01*
Y16231D01*
X329200D01*
Y16179D01*
X329251D01*
Y16128D01*
X329303D01*
Y16076D01*
X329354D01*
Y16025D01*
X329406D01*
Y15973D01*
X329457D01*
Y15870D01*
X329509D01*
Y15819D01*
X329560D01*
Y15767D01*
X329612D01*
Y15716D01*
X329663D01*
Y15664D01*
X329715D01*
Y15561D01*
X329766D01*
Y15510D01*
X329818D01*
Y15458D01*
X329869D01*
Y15355D01*
X329921D01*
Y15304D01*
X329972D01*
Y15252D01*
X330024D01*
Y15149D01*
X330075D01*
Y15098D01*
X330127D01*
Y15046D01*
X330178D01*
Y14943D01*
X330230D01*
Y14891D01*
X330281D01*
Y14788D01*
X330333D01*
Y14737D01*
X330384D01*
Y14634D01*
X330436D01*
Y14582D01*
X330488D01*
Y14479D01*
X330539D01*
Y14376D01*
X330591D01*
Y14325D01*
X330642D01*
Y14222D01*
X330694D01*
Y14119D01*
X330745D01*
Y14016D01*
X330797D01*
Y13913D01*
X330848D01*
Y13810D01*
X330900D01*
Y13706D01*
X330951D01*
Y13603D01*
X331003D01*
Y13500D01*
X331054D01*
Y13397D01*
X331106D01*
Y13243D01*
X331157D01*
Y13140D01*
X331209D01*
Y12985D01*
X331260D01*
Y12831D01*
X331312D01*
Y12676D01*
X331363D01*
Y12521D01*
X331415D01*
Y12367D01*
X331466D01*
Y12109D01*
X331518D01*
Y11852D01*
X331570D01*
Y11491D01*
X331621D01*
Y9379D01*
X331673D01*
Y8451D01*
X331621D01*
Y8039D01*
X331570D01*
Y7833D01*
X331518D01*
Y7679D01*
X331466D01*
Y7524D01*
X331415D01*
Y7421D01*
X331363D01*
Y7318D01*
X331312D01*
Y7215D01*
X331260D01*
Y7112D01*
X331209D01*
Y7061D01*
X331157D01*
Y7009D01*
X331106D01*
Y6906D01*
X331054D01*
Y6854D01*
X331003D01*
Y6803D01*
X330951D01*
Y6751D01*
X330900D01*
Y6700D01*
X330848D01*
Y6648D01*
X330745D01*
Y6597D01*
X330694D01*
Y6545D01*
X330642D01*
Y6494D01*
X330539D01*
Y6442D01*
X330488D01*
Y6391D01*
X330384D01*
Y6339D01*
X330281D01*
Y6288D01*
X330178D01*
Y6236D01*
X330024D01*
Y6185D01*
X329818D01*
Y6133D01*
X329509D01*
Y6082D01*
X328015D01*
Y6133D01*
X327448D01*
Y6082D01*
X317402D01*
Y6133D01*
X317144D01*
Y6082D01*
X317041D01*
Y6030D01*
X316938D01*
Y5979D01*
X316835D01*
Y5927D01*
X316783D01*
Y5875D01*
X316680D01*
Y5824D01*
X316577D01*
Y5773D01*
X316474D01*
Y5721D01*
X316371D01*
Y5669D01*
X316320D01*
Y5618D01*
X316217D01*
Y5566D01*
X316114D01*
Y5515D01*
X316011D01*
Y5463D01*
X315908D01*
Y5412D01*
X315805D01*
Y5360D01*
X315702D01*
Y5309D01*
X315650D01*
Y5257D01*
X315547D01*
Y5206D01*
X315444D01*
Y5154D01*
X315341D01*
Y5103D01*
X315289D01*
Y5051D01*
X315186D01*
Y5000D01*
X315083D01*
Y4948D01*
X314980D01*
Y4897D01*
X314877D01*
Y4845D01*
X314774D01*
Y4794D01*
X314671D01*
Y4742D01*
X314620D01*
Y4691D01*
X314517D01*
Y4639D01*
X314413D01*
Y4588D01*
X314311D01*
Y4536D01*
X314207D01*
Y4484D01*
X314104D01*
Y4433D01*
X314001D01*
Y4382D01*
X313950D01*
Y4330D01*
X313847D01*
Y4278D01*
X313744D01*
Y4227D01*
X313641D01*
Y4175D01*
X313538D01*
Y4124D01*
X313435D01*
Y4072D01*
X313383D01*
Y4021D01*
X313280D01*
Y3969D01*
X313177D01*
Y3918D01*
X313074D01*
Y3866D01*
X312971D01*
Y3815D01*
X312919D01*
Y3763D01*
X312816D01*
Y3712D01*
X312713D01*
Y3660D01*
X312610D01*
Y3609D01*
X312507D01*
Y3557D01*
X312404D01*
Y3506D01*
X312301D01*
Y3454D01*
X312250D01*
Y3403D01*
X312147D01*
Y3351D01*
X312044D01*
Y3300D01*
X311941D01*
Y3248D01*
X311838D01*
Y3196D01*
X311735D01*
Y3145D01*
X311683D01*
Y3094D01*
X311580D01*
Y3042D01*
X311477D01*
Y2990D01*
X311374D01*
Y2939D01*
X311271D01*
Y2887D01*
X311168D01*
Y2836D01*
X310962D01*
Y2887D01*
X310807D01*
Y2939D01*
X310756D01*
Y2990D01*
X310653D01*
Y3042D01*
X310550D01*
Y3094D01*
X310447D01*
Y3145D01*
X310344D01*
Y3196D01*
X310292D01*
Y3248D01*
X310189D01*
Y3300D01*
X310086D01*
Y3351D01*
X309983D01*
Y3403D01*
X309880D01*
Y3454D01*
X309777D01*
Y3506D01*
X309725D01*
Y3557D01*
X309622D01*
Y3609D01*
X309519D01*
Y3660D01*
X309416D01*
Y3712D01*
X309313D01*
Y3763D01*
X309210D01*
Y3815D01*
X309107D01*
Y3866D01*
X309055D01*
Y3918D01*
X308952D01*
Y3969D01*
X308849D01*
Y4021D01*
X308746D01*
Y4072D01*
X308643D01*
Y4124D01*
X308540D01*
Y4175D01*
X308489D01*
Y4227D01*
X308386D01*
Y4278D01*
X308283D01*
Y4330D01*
X308180D01*
Y4382D01*
X308077D01*
Y4433D01*
X307974D01*
Y4484D01*
X307922D01*
Y4536D01*
X307819D01*
Y4588D01*
X307716D01*
Y4639D01*
X307613D01*
Y4691D01*
X307561D01*
Y4742D01*
X307458D01*
Y4794D01*
X307355D01*
Y4845D01*
X307252D01*
Y4897D01*
X307149D01*
Y4948D01*
X307046D01*
Y5000D01*
X306995D01*
Y5051D01*
X306892D01*
Y5103D01*
X306789D01*
Y5154D01*
X306686D01*
Y5206D01*
X306583D01*
Y5257D01*
X306480D01*
Y5309D01*
X306377D01*
Y5360D01*
X306325D01*
Y5412D01*
X306222D01*
Y5463D01*
X306119D01*
Y5515D01*
X306016D01*
Y5566D01*
X305964D01*
Y5618D01*
X305861D01*
Y5669D01*
X305758D01*
Y5721D01*
X305655D01*
Y5773D01*
X305604D01*
Y5824D01*
X305501D01*
Y5875D01*
X305398D01*
Y5927D01*
X305295D01*
Y5979D01*
X305191D01*
Y6030D01*
X305140D01*
Y6082D01*
X295712D01*
Y6133D01*
X293960D01*
Y6082D01*
X293085D01*
Y6133D01*
X292724D01*
Y6185D01*
X292518D01*
Y6236D01*
X292415D01*
Y6288D01*
X292260D01*
Y6339D01*
X292157D01*
Y6391D01*
X292054D01*
Y6442D01*
X292003D01*
Y6494D01*
X291899D01*
Y6545D01*
X291848D01*
Y6597D01*
X291745D01*
Y6648D01*
X291693D01*
Y6700D01*
X291642D01*
Y6751D01*
X291590D01*
Y6803D01*
X291539D01*
Y6854D01*
X291487D01*
Y6906D01*
X291436D01*
Y6957D01*
X291384D01*
Y7061D01*
X291333D01*
Y7112D01*
X291281D01*
Y7164D01*
X291230D01*
Y7266D01*
X291178D01*
Y7370D01*
X291127D01*
Y7473D01*
X291075D01*
Y7627D01*
X291024D01*
Y7730D01*
X290972D01*
Y7936D01*
X290921D01*
Y8194D01*
X290869D01*
Y11285D01*
X290921D01*
Y11646D01*
X290972D01*
Y11955D01*
X291024D01*
Y12212D01*
X291075D01*
Y12470D01*
X291127D01*
Y12676D01*
X291178D01*
Y12831D01*
X291230D01*
Y12985D01*
X291281D01*
Y13088D01*
X291333D01*
Y13243D01*
X291384D01*
Y13346D01*
X291436D01*
Y13500D01*
X291487D01*
Y13603D01*
X291539D01*
Y13706D01*
X291590D01*
Y13810D01*
X291642D01*
Y13913D01*
X291693D01*
Y14016D01*
X291745D01*
Y14119D01*
X291796D01*
Y14222D01*
X291848D01*
Y14325D01*
X291899D01*
Y14376D01*
X291951D01*
Y14479D01*
X292003D01*
Y14582D01*
X292054D01*
Y14685D01*
X292106D01*
Y14737D01*
X292157D01*
Y14788D01*
X292209D01*
Y14891D01*
X292260D01*
Y14943D01*
X292312D01*
Y15046D01*
X292363D01*
Y15098D01*
X292415D01*
Y15201D01*
X292466D01*
Y15252D01*
X292518D01*
Y15304D01*
X292569D01*
Y15407D01*
X292621D01*
Y15458D01*
X292672D01*
Y15510D01*
X292724D01*
Y15613D01*
X292775D01*
Y15664D01*
X292827D01*
Y15716D01*
X292878D01*
Y15767D01*
X292930D01*
Y15870D01*
X292981D01*
Y15922D01*
X293033D01*
Y15973D01*
X293085D01*
Y16025D01*
X293136D01*
Y16076D01*
X293187D01*
Y16128D01*
X293239D01*
Y16179D01*
X293290D01*
Y16231D01*
X293342D01*
Y16283D01*
X293394D01*
Y16334D01*
X293445D01*
Y16386D01*
X293497D01*
Y16437D01*
X293548D01*
Y16540D01*
X293600D01*
Y16592D01*
X293651D01*
Y16643D01*
X293703D01*
Y16695D01*
X293806D01*
Y16746D01*
X293857D01*
Y16798D01*
X293909D01*
Y16849D01*
X293960D01*
Y16901D01*
X294012D01*
Y16952D01*
X294063D01*
Y17004D01*
X294115D01*
Y17055D01*
X294166D01*
Y17107D01*
X294269D01*
Y17158D01*
X294321D01*
Y17210D01*
X294373D01*
Y17261D01*
X294424D01*
Y17313D01*
X294527D01*
Y17364D01*
X294579D01*
Y17416D01*
X294630D01*
Y17467D01*
X294733D01*
Y17519D01*
X294785D01*
Y17570D01*
X294836D01*
Y17622D01*
X294939D01*
Y17673D01*
X294991D01*
Y17725D01*
X295094D01*
Y17776D01*
X295145D01*
Y17828D01*
X295197D01*
Y17880D01*
X295300D01*
Y17931D01*
X295351D01*
Y17983D01*
X295454D01*
Y18034D01*
X295506D01*
Y18086D01*
X295609D01*
Y18137D01*
X295712D01*
Y18189D01*
X295763D01*
Y18240D01*
X295866D01*
Y18292D01*
X295918D01*
Y18498D01*
X295970D01*
Y18601D01*
X296021D01*
Y18704D01*
X296073D01*
Y18807D01*
X296124D01*
Y18910D01*
X296176D01*
Y18961D01*
X296227D01*
Y19064D01*
X296279D01*
Y19116D01*
X296330D01*
Y19168D01*
X296382D01*
Y19219D01*
X296433D01*
Y19271D01*
X296485D01*
Y19322D01*
X296536D01*
Y19374D01*
X296588D01*
Y19425D01*
X296639D01*
Y19477D01*
X296691D01*
Y19528D01*
X296794D01*
Y19580D01*
X296845D01*
Y19631D01*
X296897D01*
Y19683D01*
X297000D01*
Y19786D01*
X296948D01*
Y19940D01*
X296897D01*
Y20095D01*
X296845D01*
Y20301D01*
X296794D01*
Y20507D01*
X296742D01*
Y20765D01*
X296691D01*
Y20919D01*
X296639D01*
Y21228D01*
X296588D01*
Y21486D01*
X296536D01*
Y21795D01*
X296485D01*
Y22156D01*
X296433D01*
Y22825D01*
X296382D01*
Y24422D01*
X296433D01*
Y25092D01*
X296485D01*
Y25453D01*
X296536D01*
Y25762D01*
X296588D01*
Y26020D01*
X296639D01*
Y26277D01*
X296691D01*
Y26483D01*
X296742D01*
Y26689D01*
X296794D01*
Y26895D01*
X296845D01*
Y27101D01*
X296897D01*
Y27256D01*
X296948D01*
Y27411D01*
X297000D01*
Y27565D01*
X297052D01*
Y27720D01*
X297103D01*
Y27874D01*
X297154D01*
Y28029D01*
X297206D01*
Y28132D01*
X297257D01*
Y28286D01*
X297309D01*
Y28389D01*
X297361D01*
Y28544D01*
X297412D01*
Y28647D01*
X297464D01*
Y28750D01*
X297515D01*
Y28853D01*
X297567D01*
Y29008D01*
X297618D01*
Y29111D01*
X297670D01*
Y29214D01*
X297721D01*
Y29317D01*
X297773D01*
Y29420D01*
X297824D01*
Y29523D01*
X297876D01*
Y29574D01*
X297927D01*
Y29678D01*
X297979D01*
Y29781D01*
X298030D01*
Y29884D01*
X298082D01*
Y29987D01*
X298133D01*
Y30038D01*
X298185D01*
Y30141D01*
X298236D01*
Y30244D01*
X298288D01*
Y30347D01*
X298340D01*
Y30399D01*
X298391D01*
Y30502D01*
X298443D01*
Y30553D01*
X298494D01*
Y30656D01*
X298546D01*
Y30708D01*
X298597D01*
Y30811D01*
X298649D01*
Y30863D01*
X298700D01*
Y30966D01*
X298752D01*
Y31017D01*
X298803D01*
Y31120D01*
X298855D01*
Y31172D01*
X298906D01*
Y31275D01*
X298958D01*
Y31326D01*
X299009D01*
Y31378D01*
X299061D01*
Y31481D01*
X299112D01*
Y31532D01*
X299164D01*
Y31584D01*
X299215D01*
Y31687D01*
X299267D01*
Y31738D01*
X299318D01*
Y31790D01*
X299370D01*
Y31893D01*
X299421D01*
Y31944D01*
X299473D01*
Y31996D01*
X299524D01*
Y32047D01*
X299576D01*
Y32099D01*
X299627D01*
Y32202D01*
X299679D01*
Y32254D01*
X299730D01*
Y32305D01*
X299782D01*
Y32357D01*
X299833D01*
Y32408D01*
X299885D01*
Y32460D01*
X299937D01*
Y32563D01*
X299988D01*
Y32614D01*
X300040D01*
Y32666D01*
X300091D01*
Y32717D01*
X300143D01*
Y32769D01*
X300194D01*
Y32820D01*
X300246D01*
Y32872D01*
X300297D01*
Y32923D01*
X300349D01*
Y32975D01*
X300400D01*
Y33026D01*
X300452D01*
Y33078D01*
X300503D01*
Y33129D01*
X300555D01*
Y33181D01*
X300606D01*
Y33232D01*
X300658D01*
Y33284D01*
X300709D01*
Y33335D01*
X300761D01*
Y33387D01*
X300812D01*
Y33438D01*
X300864D01*
Y33490D01*
X300915D01*
Y33542D01*
X300967D01*
Y33593D01*
X301019D01*
Y33645D01*
X301121D01*
Y33696D01*
X301173D01*
Y33748D01*
X301224D01*
Y33799D01*
X301276D01*
Y33851D01*
X301328D01*
Y33902D01*
X301431D01*
Y33954D01*
X301482D01*
Y34005D01*
X301534D01*
Y34057D01*
X301585D01*
Y34108D01*
X301637D01*
Y34160D01*
X301740D01*
Y34211D01*
X301791D01*
Y34263D01*
X301843D01*
Y34314D01*
X301894D01*
Y34366D01*
X301997D01*
Y34417D01*
X302049D01*
Y34469D01*
X302100D01*
Y34520D01*
X302203D01*
Y34572D01*
X302255D01*
Y34623D01*
X302307D01*
Y34675D01*
X302410D01*
Y34726D01*
X302461D01*
Y34778D01*
X302564D01*
Y34830D01*
X302667D01*
Y34881D01*
X302719D01*
Y34933D01*
X302770D01*
Y34984D01*
X302873D01*
Y35035D01*
X302925D01*
Y35087D01*
X303028D01*
Y35139D01*
X303131D01*
Y35190D01*
X303182D01*
Y35242D01*
X303285D01*
Y35293D01*
X303388D01*
Y35345D01*
X303440D01*
Y35396D01*
X303543D01*
Y35448D01*
X303646D01*
Y35499D01*
X303749D01*
Y35551D01*
X303801D01*
Y35602D01*
X303904D01*
Y35654D01*
X304007D01*
Y35705D01*
X304110D01*
Y35757D01*
X304213D01*
Y35808D01*
X304316D01*
Y35860D01*
X304419D01*
Y35911D01*
X304522D01*
Y35963D01*
X304625D01*
Y36014D01*
X304728D01*
Y36066D01*
X304831D01*
Y36117D01*
X304985D01*
Y36169D01*
X305088D01*
Y36220D01*
X305191D01*
Y36272D01*
X305346D01*
Y36323D01*
X305449D01*
Y36375D01*
X305604D01*
Y36426D01*
X305707D01*
Y36478D01*
X305861D01*
Y36530D01*
X306016D01*
Y36581D01*
X306170D01*
Y36633D01*
X306325D01*
Y36684D01*
X306428D01*
Y36736D01*
X306583D01*
Y36787D01*
X306789D01*
Y36839D01*
X306943D01*
Y36890D01*
X307149D01*
Y36942D01*
X307304D01*
Y36993D01*
X307561D01*
Y37045D01*
X307768D01*
Y37096D01*
X307974D01*
Y37148D01*
X308231D01*
Y37199D01*
X308540D01*
Y37251D01*
X308849D01*
Y37302D01*
X309210D01*
Y37354D01*
X309674D01*
Y37405D01*
X310498D01*
Y37457D01*
X311528D01*
Y37405D01*
D02*
G37*
G36*
X346743Y181325D02*
X346830Y181318D01*
X346910Y181314D01*
X346983Y181303D01*
X347052Y181296D01*
X347118Y181285D01*
X347172Y181278D01*
X347223Y181267D01*
X347267Y181256D01*
X347307Y181249D01*
X347336Y181242D01*
X347362Y181234D01*
X347380Y181227D01*
X347391Y181223D01*
X347394D01*
X347449Y181202D01*
X347500Y181176D01*
X347551Y181151D01*
X347595Y181122D01*
X347671Y181063D01*
X347737Y181005D01*
X347788Y180950D01*
X347820Y180907D01*
X347835Y180892D01*
X347842Y180878D01*
X347846Y180870D01*
X347849Y180867D01*
X347875Y180816D01*
X347901Y180761D01*
X347922Y180703D01*
X347940Y180641D01*
X347973Y180514D01*
X347995Y180390D01*
X348006Y180332D01*
X348013Y180277D01*
X348021Y180226D01*
X348028Y180182D01*
X348031Y180150D01*
Y180121D01*
X348035Y180106D01*
Y180099D01*
X347340D01*
X347333Y180150D01*
X347325Y180197D01*
X347318Y180241D01*
X347311Y180281D01*
X347293Y180350D01*
X347274Y180404D01*
X347260Y180448D01*
X347245Y180477D01*
X347238Y180495D01*
X347234Y180499D01*
X347205Y180539D01*
X347169Y180576D01*
X347129Y180601D01*
X347092Y180626D01*
X347060Y180641D01*
X347030Y180656D01*
X347012Y180659D01*
X347005Y180663D01*
X346939Y180681D01*
X346867Y180692D01*
X346790Y180703D01*
X346718Y180707D01*
X346652Y180710D01*
X346623Y180714D01*
X346550D01*
X346441Y180710D01*
X346350Y180707D01*
X346270Y180696D01*
X346204Y180685D01*
X346153Y180674D01*
X346117Y180666D01*
X346102Y180663D01*
X346095Y180659D01*
X346088Y180656D01*
X346033Y180630D01*
X345986Y180601D01*
X345946Y180568D01*
X345913Y180535D01*
X345891Y180506D01*
X345873Y180481D01*
X345866Y180466D01*
X345862Y180459D01*
X345840Y180401D01*
X345826Y180339D01*
X345811Y180270D01*
X345804Y180204D01*
X345800Y180146D01*
Y180121D01*
X345796Y180099D01*
Y180080D01*
Y180066D01*
Y180059D01*
Y180055D01*
X345800Y179993D01*
X345804Y179935D01*
X345811Y179884D01*
X345822Y179840D01*
X345833Y179804D01*
X345840Y179778D01*
X345844Y179764D01*
X345848Y179756D01*
X345869Y179709D01*
X345895Y179658D01*
X345928Y179611D01*
X345957Y179567D01*
X345986Y179527D01*
X346011Y179498D01*
X346026Y179476D01*
X346033Y179472D01*
Y179469D01*
X346135Y179345D01*
X346244Y179221D01*
X346354Y179105D01*
X346404Y179050D01*
X346455Y178999D01*
X346503Y178952D01*
X346546Y178908D01*
X346586Y178868D01*
X346619Y178835D01*
X346648Y178810D01*
X346667Y178792D01*
X346681Y178777D01*
X346685Y178774D01*
X346765Y178701D01*
X346852Y178621D01*
X346947Y178537D01*
X347049Y178450D01*
X347256Y178264D01*
X347362Y178173D01*
X347460Y178086D01*
X347558Y178002D01*
X347649Y177926D01*
X347729Y177853D01*
X347802Y177791D01*
X347860Y177740D01*
X347886Y177722D01*
X347908Y177703D01*
X347922Y177689D01*
X347933Y177678D01*
X347940Y177674D01*
X347944Y177671D01*
Y176772D01*
X345025D01*
Y177412D01*
X347237D01*
X347151Y177489D01*
X347063Y177561D01*
X346979Y177638D01*
X346900Y177707D01*
X346827Y177776D01*
X346758Y177838D01*
X346692Y177900D01*
X346630Y177955D01*
X346579Y178006D01*
X346528Y178049D01*
X346488Y178089D01*
X346455Y178122D01*
X346426Y178148D01*
X346404Y178169D01*
X346393Y178180D01*
X346390Y178184D01*
X346252Y178322D01*
X346117Y178461D01*
X345986Y178599D01*
X345924Y178661D01*
X345866Y178723D01*
X345815Y178781D01*
X345767Y178835D01*
X345724Y178883D01*
X345687Y178923D01*
X345658Y178956D01*
X345636Y178978D01*
X345622Y178996D01*
X345618Y178999D01*
X345564Y179054D01*
X345513Y179109D01*
X345469Y179159D01*
X345425Y179207D01*
X345389Y179251D01*
X345356Y179294D01*
X345327Y179334D01*
X345302Y179371D01*
X345283Y179403D01*
X345265Y179432D01*
X345251Y179458D01*
X345236Y179476D01*
X345229Y179494D01*
X345221Y179505D01*
X345218Y179513D01*
Y179516D01*
X345185Y179600D01*
X345160Y179691D01*
X345145Y179778D01*
X345130Y179862D01*
X345127Y179898D01*
X345123Y179931D01*
Y179964D01*
X345120Y179989D01*
Y180011D01*
Y180026D01*
Y180037D01*
Y180040D01*
Y180131D01*
X345127Y180215D01*
X345130Y180295D01*
X345141Y180372D01*
X345149Y180441D01*
X345160Y180503D01*
X345174Y180561D01*
X345185Y180615D01*
X345196Y180659D01*
X345211Y180699D01*
X345221Y180736D01*
X345229Y180765D01*
X345240Y180787D01*
X345243Y180801D01*
X345251Y180812D01*
Y180816D01*
X345276Y180867D01*
X345309Y180914D01*
X345341Y180958D01*
X345374Y180998D01*
X345447Y181063D01*
X345520Y181118D01*
X345589Y181161D01*
X345618Y181176D01*
X345644Y181191D01*
X345666Y181202D01*
X345680Y181209D01*
X345691Y181212D01*
X345695D01*
X345757Y181234D01*
X345822Y181253D01*
X345960Y181282D01*
X346102Y181300D01*
X346241Y181314D01*
X346303Y181318D01*
X346364Y181322D01*
X346415Y181325D01*
X346463Y181329D01*
X346652D01*
X346743Y181325D01*
D02*
G37*
G36*
X342295Y178209D02*
X341647D01*
Y177591D01*
X341032D01*
Y178209D01*
X341647D01*
Y179276D01*
X342295D01*
Y178209D01*
D02*
G37*
G36*
X339055Y176772D02*
X338233D01*
X336893Y181267D01*
X337559D01*
X338644Y177581D01*
X339729Y181267D01*
X340395D01*
X339055Y176772D01*
D02*
G37*
G36*
X344053Y178300D02*
Y177591D01*
X342295D01*
Y176772D01*
X341647D01*
Y177591D01*
X342295D01*
Y178209D01*
X343372D01*
Y178271D01*
X341887Y181329D01*
X342579D01*
X344053Y178300D01*
D02*
G37*
G36*
X343019Y170695D02*
X343107Y170688D01*
X343187Y170684D01*
X343260Y170674D01*
X343329Y170666D01*
X343394Y170655D01*
X343449Y170648D01*
X343500Y170637D01*
X343543Y170626D01*
X343583Y170619D01*
X343613Y170612D01*
X343638Y170604D01*
X343656Y170597D01*
X343667Y170594D01*
X343671D01*
X343725Y170572D01*
X343776Y170546D01*
X343827Y170521D01*
X343871Y170492D01*
X343947Y170433D01*
X344013Y170375D01*
X344064Y170320D01*
X344097Y170277D01*
X344111Y170262D01*
X344118Y170248D01*
X344122Y170240D01*
X344126Y170237D01*
X344151Y170186D01*
X344177Y170131D01*
X344199Y170073D01*
X344217Y170011D01*
X344250Y169884D01*
X344271Y169760D01*
X344282Y169702D01*
X344290Y169647D01*
X344297Y169596D01*
X344304Y169552D01*
X344308Y169520D01*
Y169491D01*
X344311Y169476D01*
Y169469D01*
X343616D01*
X343609Y169520D01*
X343602Y169567D01*
X343594Y169611D01*
X343587Y169651D01*
X343569Y169720D01*
X343551Y169774D01*
X343536Y169818D01*
X343521Y169847D01*
X343514Y169866D01*
X343511Y169869D01*
X343481Y169909D01*
X343445Y169946D01*
X343405Y169971D01*
X343369Y169997D01*
X343336Y170011D01*
X343307Y170026D01*
X343289Y170029D01*
X343281Y170033D01*
X343216Y170051D01*
X343143Y170062D01*
X343067Y170073D01*
X342994Y170077D01*
X342928Y170080D01*
X342899Y170084D01*
X342826D01*
X342717Y170080D01*
X342626Y170077D01*
X342546Y170066D01*
X342480Y170055D01*
X342429Y170044D01*
X342393Y170036D01*
X342379Y170033D01*
X342371Y170029D01*
X342364Y170026D01*
X342309Y170000D01*
X342262Y169971D01*
X342222Y169938D01*
X342189Y169905D01*
X342167Y169876D01*
X342149Y169851D01*
X342142Y169836D01*
X342138Y169829D01*
X342116Y169771D01*
X342102Y169709D01*
X342087Y169640D01*
X342080Y169574D01*
X342076Y169516D01*
Y169491D01*
X342073Y169469D01*
Y169450D01*
Y169436D01*
Y169429D01*
Y169425D01*
X342076Y169363D01*
X342080Y169305D01*
X342087Y169254D01*
X342098Y169210D01*
X342109Y169174D01*
X342116Y169148D01*
X342120Y169134D01*
X342124Y169126D01*
X342146Y169079D01*
X342171Y169028D01*
X342204Y168981D01*
X342233Y168937D01*
X342262Y168897D01*
X342288Y168868D01*
X342302Y168846D01*
X342309Y168843D01*
Y168839D01*
X342411Y168715D01*
X342520Y168591D01*
X342630Y168475D01*
X342681Y168420D01*
X342732Y168369D01*
X342779Y168322D01*
X342823Y168278D01*
X342863Y168238D01*
X342896Y168206D01*
X342925Y168180D01*
X342943Y168162D01*
X342957Y168147D01*
X342961Y168144D01*
X343041Y168071D01*
X343128Y167991D01*
X343223Y167907D01*
X343325Y167820D01*
X343532Y167634D01*
X343638Y167543D01*
X343736Y167456D01*
X343835Y167372D01*
X343926Y167296D01*
X344006Y167223D01*
X344078Y167161D01*
X344137Y167110D01*
X344162Y167092D01*
X344184Y167074D01*
X344199Y167059D01*
X344210Y167048D01*
X344217Y167044D01*
X344220Y167041D01*
Y166142D01*
X341301D01*
Y166782D01*
X343514D01*
X343427Y166859D01*
X343339Y166932D01*
X343256Y167008D01*
X343176Y167077D01*
X343103Y167146D01*
X343034Y167208D01*
X342968Y167270D01*
X342906Y167325D01*
X342855Y167376D01*
X342805Y167419D01*
X342764Y167459D01*
X342732Y167492D01*
X342703Y167518D01*
X342681Y167540D01*
X342670Y167550D01*
X342666Y167554D01*
X342528Y167692D01*
X342393Y167831D01*
X342262Y167969D01*
X342200Y168031D01*
X342142Y168093D01*
X342091Y168151D01*
X342044Y168206D01*
X342000Y168253D01*
X341964Y168293D01*
X341934Y168326D01*
X341913Y168348D01*
X341898Y168366D01*
X341895Y168369D01*
X341840Y168424D01*
X341789Y168479D01*
X341745Y168530D01*
X341702Y168577D01*
X341665Y168621D01*
X341632Y168664D01*
X341603Y168704D01*
X341578Y168741D01*
X341560Y168773D01*
X341541Y168803D01*
X341527Y168828D01*
X341512Y168846D01*
X341505Y168865D01*
X341498Y168875D01*
X341494Y168883D01*
Y168886D01*
X341461Y168970D01*
X341436Y169061D01*
X341421Y169148D01*
X341407Y169232D01*
X341403Y169269D01*
X341399Y169301D01*
Y169334D01*
X341396Y169360D01*
Y169381D01*
Y169396D01*
Y169407D01*
Y169410D01*
Y169501D01*
X341403Y169585D01*
X341407Y169665D01*
X341418Y169742D01*
X341425Y169811D01*
X341436Y169873D01*
X341450Y169931D01*
X341461Y169986D01*
X341472Y170029D01*
X341487Y170069D01*
X341498Y170106D01*
X341505Y170135D01*
X341516Y170157D01*
X341519Y170171D01*
X341527Y170182D01*
Y170186D01*
X341552Y170237D01*
X341585Y170284D01*
X341618Y170328D01*
X341651Y170368D01*
X341723Y170433D01*
X341796Y170488D01*
X341865Y170532D01*
X341895Y170546D01*
X341920Y170561D01*
X341942Y170572D01*
X341956Y170579D01*
X341967Y170582D01*
X341971D01*
X342033Y170604D01*
X342098Y170623D01*
X342237Y170652D01*
X342379Y170670D01*
X342517Y170684D01*
X342579Y170688D01*
X342641Y170692D01*
X342692Y170695D01*
X342739Y170699D01*
X342928D01*
X343019Y170695D01*
D02*
G37*
G36*
X348031Y169665D02*
Y168966D01*
X346983Y169578D01*
X346615Y169886D01*
X346652Y169345D01*
Y166142D01*
X345982D01*
Y170637D01*
X346685D01*
X348031Y169665D01*
D02*
G37*
G36*
X339266Y166142D02*
X338444D01*
X337104Y170637D01*
X337770D01*
X338855Y166951D01*
X339940Y170637D01*
X340606D01*
X339266Y166142D01*
D02*
G37*
G36*
X343019Y201010D02*
X343107Y201003D01*
X343187Y200999D01*
X343260Y200989D01*
X343329Y200981D01*
X343394Y200970D01*
X343449Y200963D01*
X343500Y200952D01*
X343543Y200941D01*
X343583Y200934D01*
X343613Y200927D01*
X343638Y200919D01*
X343656Y200912D01*
X343667Y200908D01*
X343671D01*
X343725Y200887D01*
X343776Y200861D01*
X343827Y200836D01*
X343871Y200806D01*
X343947Y200748D01*
X344013Y200690D01*
X344064Y200635D01*
X344097Y200592D01*
X344111Y200577D01*
X344118Y200563D01*
X344122Y200555D01*
X344126Y200552D01*
X344151Y200501D01*
X344177Y200446D01*
X344199Y200388D01*
X344217Y200326D01*
X344250Y200199D01*
X344271Y200075D01*
X344282Y200017D01*
X344290Y199962D01*
X344297Y199911D01*
X344304Y199867D01*
X344308Y199835D01*
Y199805D01*
X344311Y199791D01*
Y199784D01*
X343616D01*
X343609Y199835D01*
X343602Y199882D01*
X343594Y199926D01*
X343587Y199966D01*
X343569Y200035D01*
X343551Y200089D01*
X343536Y200133D01*
X343521Y200162D01*
X343514Y200180D01*
X343511Y200184D01*
X343481Y200224D01*
X343445Y200260D01*
X343405Y200286D01*
X343369Y200311D01*
X343336Y200326D01*
X343307Y200341D01*
X343289Y200344D01*
X343281Y200348D01*
X343216Y200366D01*
X343143Y200377D01*
X343067Y200388D01*
X342994Y200392D01*
X342928Y200395D01*
X342899Y200399D01*
X342826D01*
X342717Y200395D01*
X342626Y200392D01*
X342546Y200381D01*
X342480Y200370D01*
X342429Y200359D01*
X342393Y200352D01*
X342379Y200348D01*
X342371Y200344D01*
X342364Y200341D01*
X342309Y200315D01*
X342262Y200286D01*
X342222Y200253D01*
X342189Y200220D01*
X342167Y200191D01*
X342149Y200166D01*
X342142Y200151D01*
X342138Y200144D01*
X342116Y200086D01*
X342102Y200024D01*
X342087Y199955D01*
X342080Y199889D01*
X342076Y199831D01*
Y199805D01*
X342073Y199784D01*
Y199766D01*
Y199751D01*
Y199744D01*
Y199740D01*
X342076Y199678D01*
X342080Y199620D01*
X342087Y199569D01*
X342098Y199525D01*
X342109Y199489D01*
X342116Y199463D01*
X342120Y199449D01*
X342124Y199442D01*
X342146Y199394D01*
X342171Y199343D01*
X342204Y199296D01*
X342233Y199252D01*
X342262Y199212D01*
X342288Y199183D01*
X342302Y199161D01*
X342309Y199158D01*
Y199154D01*
X342411Y199030D01*
X342520Y198906D01*
X342630Y198790D01*
X342681Y198735D01*
X342732Y198684D01*
X342779Y198637D01*
X342823Y198593D01*
X342863Y198553D01*
X342896Y198521D01*
X342925Y198495D01*
X342943Y198477D01*
X342957Y198462D01*
X342961Y198459D01*
X343041Y198386D01*
X343128Y198306D01*
X343223Y198222D01*
X343325Y198135D01*
X343532Y197949D01*
X343638Y197858D01*
X343736Y197771D01*
X343835Y197687D01*
X343926Y197611D01*
X344006Y197538D01*
X344078Y197476D01*
X344137Y197425D01*
X344162Y197407D01*
X344184Y197389D01*
X344199Y197374D01*
X344210Y197363D01*
X344217Y197359D01*
X344220Y197356D01*
Y196457D01*
X341301D01*
Y197097D01*
X343514D01*
X343427Y197174D01*
X343339Y197247D01*
X343256Y197323D01*
X343176Y197392D01*
X343103Y197461D01*
X343034Y197523D01*
X342968Y197585D01*
X342906Y197640D01*
X342855Y197691D01*
X342805Y197734D01*
X342764Y197774D01*
X342732Y197807D01*
X342703Y197833D01*
X342681Y197854D01*
X342670Y197865D01*
X342666Y197869D01*
X342528Y198007D01*
X342393Y198146D01*
X342262Y198284D01*
X342200Y198346D01*
X342142Y198408D01*
X342091Y198466D01*
X342044Y198521D01*
X342000Y198568D01*
X341964Y198608D01*
X341934Y198641D01*
X341913Y198662D01*
X341898Y198681D01*
X341895Y198684D01*
X341840Y198739D01*
X341789Y198794D01*
X341745Y198845D01*
X341702Y198892D01*
X341665Y198935D01*
X341632Y198979D01*
X341603Y199019D01*
X341578Y199056D01*
X341560Y199088D01*
X341541Y199118D01*
X341527Y199143D01*
X341512Y199161D01*
X341505Y199179D01*
X341498Y199190D01*
X341494Y199198D01*
Y199201D01*
X341461Y199285D01*
X341436Y199376D01*
X341421Y199463D01*
X341407Y199547D01*
X341403Y199583D01*
X341399Y199616D01*
Y199649D01*
X341396Y199674D01*
Y199696D01*
Y199711D01*
Y199722D01*
Y199725D01*
Y199816D01*
X341403Y199900D01*
X341407Y199980D01*
X341418Y200057D01*
X341425Y200126D01*
X341436Y200188D01*
X341450Y200246D01*
X341461Y200301D01*
X341472Y200344D01*
X341487Y200384D01*
X341498Y200421D01*
X341505Y200450D01*
X341516Y200472D01*
X341519Y200486D01*
X341527Y200497D01*
Y200501D01*
X341552Y200552D01*
X341585Y200599D01*
X341618Y200643D01*
X341651Y200683D01*
X341723Y200748D01*
X341796Y200803D01*
X341865Y200847D01*
X341895Y200861D01*
X341920Y200876D01*
X341942Y200887D01*
X341956Y200894D01*
X341967Y200898D01*
X341971D01*
X342033Y200919D01*
X342098Y200938D01*
X342237Y200967D01*
X342379Y200985D01*
X342517Y200999D01*
X342579Y201003D01*
X342641Y201007D01*
X342692Y201010D01*
X342739Y201014D01*
X342928D01*
X343019Y201010D01*
D02*
G37*
G36*
X348031Y199980D02*
Y199281D01*
X346983Y199893D01*
X346615Y200201D01*
X346652Y199660D01*
Y196457D01*
X345982D01*
Y200952D01*
X346685D01*
X348031Y199980D01*
D02*
G37*
G36*
X339266Y196457D02*
X338444D01*
X337104Y200952D01*
X337770D01*
X338855Y197266D01*
X339940Y200952D01*
X340606D01*
X339266Y196457D01*
D02*
G37*
%LPC*%
G36*
X311528Y36839D02*
X310550D01*
Y36787D01*
X309725D01*
Y36736D01*
X309262D01*
Y36684D01*
X308901D01*
Y36633D01*
X308592D01*
Y36581D01*
X308283D01*
Y36530D01*
X308077D01*
Y36478D01*
X307819D01*
Y36426D01*
X307613D01*
Y36375D01*
X307407D01*
Y36323D01*
X307201D01*
Y36272D01*
X307046D01*
Y36220D01*
X306892D01*
Y36169D01*
X306686D01*
Y36117D01*
X306531D01*
Y36066D01*
X306428D01*
Y36014D01*
X306274D01*
Y35963D01*
X306067D01*
Y35911D01*
X305964D01*
Y35860D01*
X305810D01*
Y35808D01*
X305707D01*
Y35757D01*
X305552D01*
Y35705D01*
X305449D01*
Y35654D01*
X305346D01*
Y35602D01*
X305191D01*
Y35551D01*
X305088D01*
Y35499D01*
X304985D01*
Y35448D01*
X304831D01*
Y35396D01*
X304779D01*
Y35345D01*
X304625D01*
Y35293D01*
X304573D01*
Y35242D01*
X304470D01*
Y35190D01*
X304367D01*
Y35139D01*
X304264D01*
Y35087D01*
X304161D01*
Y35035D01*
X304058D01*
Y34984D01*
X303955D01*
Y34933D01*
X303904D01*
Y34881D01*
X303801D01*
Y34830D01*
X303697D01*
Y34778D01*
X303646D01*
Y34726D01*
X303543D01*
Y34675D01*
X303440D01*
Y34623D01*
X303388D01*
Y34572D01*
X303285D01*
Y34520D01*
X303234D01*
Y34469D01*
X303131D01*
Y34417D01*
X303079D01*
Y34366D01*
X302976D01*
Y34314D01*
X302925D01*
Y34263D01*
X302822D01*
Y34211D01*
X302770D01*
Y34160D01*
X302667D01*
Y34108D01*
X302616D01*
Y34057D01*
X302564D01*
Y34005D01*
X302461D01*
Y33954D01*
X302410D01*
Y33902D01*
X302307D01*
Y33851D01*
X302255D01*
Y33799D01*
X302203D01*
Y33748D01*
X302100D01*
Y33696D01*
X302049D01*
Y33645D01*
X301997D01*
Y33593D01*
X301946D01*
Y33542D01*
X301894D01*
Y33490D01*
X301791D01*
Y33438D01*
X301740D01*
Y33387D01*
X301688D01*
Y33335D01*
X301637D01*
Y33284D01*
X301585D01*
Y33232D01*
X301534D01*
Y33181D01*
X301431D01*
Y33129D01*
X301379D01*
Y33078D01*
X301328D01*
Y33026D01*
X301276D01*
Y32975D01*
X301224D01*
Y32923D01*
X301173D01*
Y32872D01*
X301121D01*
Y32820D01*
X301070D01*
Y32769D01*
X301019D01*
Y32717D01*
X300967D01*
Y32666D01*
X300915D01*
Y32614D01*
X300864D01*
Y32563D01*
X300812D01*
Y32511D01*
X300761D01*
Y32460D01*
X300709D01*
Y32408D01*
X300658D01*
Y32357D01*
X300606D01*
Y32305D01*
X300555D01*
Y32254D01*
X300503D01*
Y32202D01*
X300452D01*
Y32099D01*
X300400D01*
Y32047D01*
X300349D01*
Y31996D01*
X300297D01*
Y31944D01*
X300246D01*
Y31893D01*
X300194D01*
Y31841D01*
X300143D01*
Y31790D01*
X300091D01*
Y31687D01*
X300040D01*
Y31635D01*
X299988D01*
Y31584D01*
X299937D01*
Y31532D01*
X299885D01*
Y31429D01*
X299833D01*
Y31378D01*
X299782D01*
Y31326D01*
X299730D01*
Y31275D01*
X299679D01*
Y31223D01*
X299627D01*
Y31120D01*
X299576D01*
Y31069D01*
X299524D01*
Y30966D01*
X299473D01*
Y30914D01*
X299421D01*
Y30863D01*
X299370D01*
Y30759D01*
X299318D01*
Y30708D01*
X299267D01*
Y30605D01*
X299215D01*
Y30553D01*
X299164D01*
Y30450D01*
X299112D01*
Y30399D01*
X299061D01*
Y30347D01*
X299009D01*
Y30244D01*
X298958D01*
Y30141D01*
X298906D01*
Y30090D01*
X298855D01*
Y29987D01*
X298803D01*
Y29884D01*
X298752D01*
Y29832D01*
X298700D01*
Y29729D01*
X298649D01*
Y29626D01*
X298597D01*
Y29574D01*
X298546D01*
Y29471D01*
X298494D01*
Y29368D01*
X298443D01*
Y29265D01*
X298391D01*
Y29162D01*
X298340D01*
Y29059D01*
X298288D01*
Y28956D01*
X298236D01*
Y28853D01*
X298185D01*
Y28750D01*
X298133D01*
Y28647D01*
X298082D01*
Y28544D01*
X298030D01*
Y28441D01*
X297979D01*
Y28286D01*
X297927D01*
Y28183D01*
X297876D01*
Y28080D01*
X297824D01*
Y27926D01*
X297773D01*
Y27771D01*
X297721D01*
Y27668D01*
X297670D01*
Y27514D01*
X297618D01*
Y27359D01*
X297567D01*
Y27205D01*
X297515D01*
Y27050D01*
X297464D01*
Y26844D01*
X297412D01*
Y26689D01*
X297361D01*
Y26483D01*
X297309D01*
Y26277D01*
X297257D01*
Y26071D01*
X297206D01*
Y25813D01*
X297154D01*
Y25556D01*
X297103D01*
Y25195D01*
X297052D01*
Y24783D01*
X297000D01*
Y22568D01*
X297052D01*
Y22053D01*
X297103D01*
Y21692D01*
X297154D01*
Y21383D01*
X297206D01*
Y21125D01*
X297257D01*
Y20868D01*
X297309D01*
Y20610D01*
X297361D01*
Y20456D01*
X297412D01*
Y20249D01*
X297464D01*
Y20095D01*
X297515D01*
Y19889D01*
X297567D01*
Y19786D01*
X297618D01*
Y19631D01*
X297670D01*
Y19477D01*
X297721D01*
Y19425D01*
X297618D01*
Y19374D01*
X297464D01*
Y19322D01*
X297361D01*
Y19271D01*
X297257D01*
Y19219D01*
X297154D01*
Y19168D01*
X297103D01*
Y19116D01*
X297000D01*
Y19064D01*
X296948D01*
Y19013D01*
X296897D01*
Y18961D01*
X296845D01*
Y18910D01*
X296794D01*
Y18858D01*
X296742D01*
Y18807D01*
X296691D01*
Y18755D01*
X296639D01*
Y18704D01*
X296588D01*
Y18652D01*
X296536D01*
Y18601D01*
X296485D01*
Y18446D01*
X296536D01*
Y18343D01*
X296588D01*
Y18189D01*
X296639D01*
Y17983D01*
X296536D01*
Y17931D01*
X296433D01*
Y17880D01*
X296330D01*
Y17828D01*
X296227D01*
Y17776D01*
X296124D01*
Y17725D01*
X296073D01*
Y17673D01*
X295970D01*
Y17622D01*
X295918D01*
Y17570D01*
X295815D01*
Y17519D01*
X295763D01*
Y17467D01*
X295660D01*
Y17416D01*
X295609D01*
Y17364D01*
X295506D01*
Y17313D01*
X295454D01*
Y17261D01*
X295351D01*
Y17210D01*
X295300D01*
Y17158D01*
X295248D01*
Y17107D01*
X295145D01*
Y17055D01*
X295094D01*
Y17004D01*
X295042D01*
Y16952D01*
X294991D01*
Y16901D01*
X294888D01*
Y16849D01*
X294836D01*
Y16798D01*
X294785D01*
Y16746D01*
X294733D01*
Y16695D01*
X294630D01*
Y16643D01*
X294579D01*
Y16592D01*
X294527D01*
Y16540D01*
X294476D01*
Y16488D01*
X294424D01*
Y16437D01*
X294321D01*
Y16386D01*
X294269D01*
Y16334D01*
X294218D01*
Y16283D01*
X294166D01*
Y16231D01*
X294115D01*
Y16179D01*
X294063D01*
Y16128D01*
X294012D01*
Y16076D01*
X293960D01*
Y16025D01*
X293909D01*
Y15973D01*
X293857D01*
Y15922D01*
X293806D01*
Y15870D01*
X293754D01*
Y15819D01*
X293703D01*
Y15767D01*
X293651D01*
Y15716D01*
X293600D01*
Y15613D01*
X293548D01*
Y15561D01*
X293497D01*
Y15510D01*
X293445D01*
Y15458D01*
X293394D01*
Y15407D01*
X293342D01*
Y15355D01*
X293290D01*
Y15252D01*
X293239D01*
Y15201D01*
X293187D01*
Y15149D01*
X293136D01*
Y15098D01*
X293085D01*
Y14995D01*
X293033D01*
Y14943D01*
X292981D01*
Y14891D01*
X292930D01*
Y14788D01*
X292878D01*
Y14737D01*
X292827D01*
Y14685D01*
X292775D01*
Y14582D01*
X292724D01*
Y14531D01*
X292672D01*
Y14428D01*
X292621D01*
Y14325D01*
X292569D01*
Y14273D01*
X292518D01*
Y14170D01*
X292466D01*
Y14119D01*
X292415D01*
Y14016D01*
X292363D01*
Y13913D01*
X292312D01*
Y13861D01*
X292260D01*
Y13758D01*
X292209D01*
Y13655D01*
X292157D01*
Y13552D01*
X292106D01*
Y13449D01*
X292054D01*
Y13294D01*
X292003D01*
Y13191D01*
X291951D01*
Y13088D01*
X291899D01*
Y12934D01*
X291848D01*
Y12779D01*
X291796D01*
Y12676D01*
X291745D01*
Y12470D01*
X291693D01*
Y12264D01*
X291642D01*
Y12006D01*
X291590D01*
Y11749D01*
X291539D01*
Y11440D01*
X291487D01*
Y10924D01*
X291436D01*
Y8400D01*
X291487D01*
Y8091D01*
X291539D01*
Y7936D01*
X291590D01*
Y7782D01*
X291642D01*
Y7679D01*
X291693D01*
Y7576D01*
X291745D01*
Y7524D01*
X291796D01*
Y7421D01*
X291848D01*
Y7370D01*
X291899D01*
Y7318D01*
X291951D01*
Y7266D01*
X292003D01*
Y7215D01*
X292054D01*
Y7164D01*
X292106D01*
Y7112D01*
X292157D01*
Y7061D01*
X292209D01*
Y7009D01*
X292260D01*
Y6957D01*
X292363D01*
Y6906D01*
X292466D01*
Y6854D01*
X292518D01*
Y6803D01*
X292672D01*
Y6751D01*
X292775D01*
Y6700D01*
X292930D01*
Y6648D01*
X293239D01*
Y6597D01*
X329354D01*
Y6648D01*
X329612D01*
Y6700D01*
X329766D01*
Y6751D01*
X329869D01*
Y6803D01*
X330024D01*
Y6854D01*
X330127D01*
Y6906D01*
X330178D01*
Y6957D01*
X330281D01*
Y7009D01*
X330333D01*
Y7061D01*
X330384D01*
Y7112D01*
X330436D01*
Y7164D01*
X330488D01*
Y7215D01*
X330539D01*
Y7266D01*
X330591D01*
Y7318D01*
X330642D01*
Y7370D01*
X330694D01*
Y7473D01*
X330745D01*
Y7524D01*
X330797D01*
Y7627D01*
X330848D01*
Y7730D01*
X330900D01*
Y7833D01*
X330951D01*
Y7988D01*
X331003D01*
Y8194D01*
X331054D01*
Y11233D01*
X331003D01*
Y11543D01*
X330951D01*
Y11852D01*
X330900D01*
Y12109D01*
X330848D01*
Y12161D01*
Y12212D01*
Y12367D01*
X330797D01*
Y12521D01*
X330745D01*
Y12728D01*
X330694D01*
Y12882D01*
X330642D01*
Y12985D01*
X330591D01*
Y13088D01*
X330539D01*
Y13243D01*
X330488D01*
Y13346D01*
X330436D01*
Y13449D01*
X330384D01*
Y13552D01*
X330333D01*
Y13655D01*
X330281D01*
Y13758D01*
X330230D01*
Y13861D01*
X330178D01*
Y13913D01*
X330127D01*
Y14016D01*
X330075D01*
Y14119D01*
X330024D01*
Y14170D01*
X329972D01*
Y14273D01*
X329921D01*
Y14376D01*
X329869D01*
Y14428D01*
X329818D01*
Y14531D01*
X329766D01*
Y14582D01*
X329715D01*
Y14685D01*
X329663D01*
Y14737D01*
X329612D01*
Y14788D01*
X329560D01*
Y14891D01*
X329509D01*
Y14943D01*
X329457D01*
Y14995D01*
X329406D01*
Y15098D01*
X329354D01*
Y15149D01*
X329303D01*
Y15201D01*
X329251D01*
Y15252D01*
X329200D01*
Y15304D01*
X329148D01*
Y15407D01*
X329097D01*
Y15458D01*
X329045D01*
Y15510D01*
X328994D01*
Y15561D01*
X328942D01*
Y15613D01*
X328890D01*
Y15664D01*
X328839D01*
Y15716D01*
X328787D01*
Y15819D01*
X328736D01*
Y15870D01*
X328684D01*
Y15922D01*
X328633D01*
Y15973D01*
X328581D01*
Y16025D01*
X328530D01*
Y16076D01*
X328478D01*
Y16128D01*
X328427D01*
Y16179D01*
X328375D01*
Y16231D01*
X328324D01*
Y16283D01*
X328272D01*
Y16334D01*
X328221D01*
Y16386D01*
X328118D01*
Y16437D01*
X328066D01*
Y16488D01*
X328015D01*
Y16540D01*
X327963D01*
Y16592D01*
X327912D01*
Y16643D01*
X327860D01*
Y16695D01*
X327809D01*
Y16746D01*
X327706D01*
Y16798D01*
X327654D01*
Y16849D01*
X327603D01*
Y16901D01*
X327551D01*
Y16952D01*
X327448D01*
Y17004D01*
X327396D01*
Y17055D01*
X327345D01*
Y17107D01*
X327242D01*
Y17158D01*
X327190D01*
Y17210D01*
X327087D01*
Y17261D01*
X327036D01*
Y17313D01*
X326933D01*
Y17364D01*
X326881D01*
Y17416D01*
X326778D01*
Y17467D01*
X326727D01*
Y17622D01*
X326778D01*
Y17725D01*
X326830D01*
Y17828D01*
X326881D01*
Y17931D01*
X326933D01*
Y18034D01*
X326984D01*
Y18137D01*
X327036D01*
Y18189D01*
X327087D01*
Y18292D01*
X327139D01*
Y18395D01*
X327190D01*
Y18498D01*
X327242D01*
Y18549D01*
X327293D01*
Y18755D01*
X327190D01*
Y18807D01*
X327139D01*
Y18858D01*
X327087D01*
Y18910D01*
X326984D01*
Y18961D01*
X326933D01*
Y19013D01*
X326830D01*
Y19064D01*
X326778D01*
Y19116D01*
X326675D01*
Y19168D01*
X326572D01*
Y19219D01*
X326469D01*
Y19271D01*
X326314D01*
Y19322D01*
X326212D01*
Y19374D01*
X326005D01*
Y19425D01*
X325799D01*
Y19477D01*
X325130D01*
Y19425D01*
X324872D01*
Y19374D01*
X324666D01*
Y19322D01*
X324563D01*
Y19271D01*
X324511D01*
Y19477D01*
X324563D01*
Y19631D01*
X324614D01*
Y19786D01*
X324666D01*
Y19992D01*
X324717D01*
Y20198D01*
X324769D01*
Y20404D01*
X324820D01*
Y20610D01*
X324872D01*
Y20816D01*
X324923D01*
Y21074D01*
X324975D01*
Y21383D01*
X325026D01*
Y21692D01*
X325078D01*
Y22104D01*
X325130D01*
Y22568D01*
X325181D01*
Y24680D01*
X325130D01*
Y25144D01*
X325078D01*
Y25504D01*
X325026D01*
Y25813D01*
X324975D01*
Y26123D01*
X324923D01*
Y26329D01*
X324872D01*
Y26586D01*
X324820D01*
Y26792D01*
X324769D01*
Y26947D01*
X324717D01*
Y27101D01*
X324666D01*
Y27308D01*
X324614D01*
Y27462D01*
X324563D01*
Y27617D01*
X324511D01*
Y27720D01*
X324460D01*
Y27874D01*
X324408D01*
Y28029D01*
X324357D01*
Y28132D01*
X324305D01*
Y28286D01*
X324254D01*
Y28389D01*
X324202D01*
Y28493D01*
X324151D01*
Y28647D01*
X324099D01*
Y28750D01*
X324048D01*
Y28853D01*
X323996D01*
Y28956D01*
X323945D01*
Y29059D01*
X323893D01*
Y29162D01*
X323842D01*
Y29265D01*
X323790D01*
Y29368D01*
X323739D01*
Y29420D01*
X323687D01*
Y29523D01*
X323636D01*
Y29626D01*
X323584D01*
Y29729D01*
X323533D01*
Y29781D01*
X323481D01*
Y29884D01*
X323429D01*
Y29987D01*
X323378D01*
Y30090D01*
X323326D01*
Y30141D01*
X323275D01*
Y30244D01*
X323223D01*
Y30347D01*
X323172D01*
Y30399D01*
X323120D01*
Y30502D01*
X323069D01*
Y30553D01*
X323017D01*
Y30656D01*
X322966D01*
Y30708D01*
X322914D01*
Y30811D01*
X322863D01*
Y30863D01*
X322811D01*
Y30914D01*
X322760D01*
Y31017D01*
X322708D01*
Y31069D01*
X322657D01*
Y31120D01*
X322605D01*
Y31223D01*
X322554D01*
Y31275D01*
X322502D01*
Y31326D01*
X322451D01*
Y31429D01*
X322399D01*
Y31481D01*
X322347D01*
Y31532D01*
X322296D01*
Y31584D01*
X322245D01*
Y31687D01*
X322193D01*
Y31738D01*
X322141D01*
Y31790D01*
X322090D01*
Y31841D01*
X322038D01*
Y31893D01*
X321987D01*
Y31944D01*
X321935D01*
Y31996D01*
X321884D01*
Y32099D01*
X321832D01*
Y32150D01*
X321781D01*
Y32202D01*
X321729D01*
Y32254D01*
X321678D01*
Y32305D01*
X321626D01*
Y32357D01*
X321575D01*
Y32408D01*
X321523D01*
Y32460D01*
X321472D01*
Y32511D01*
X321420D01*
Y32563D01*
X321369D01*
Y32614D01*
X321317D01*
Y32666D01*
X321266D01*
Y32717D01*
X321214D01*
Y32769D01*
X321163D01*
Y32820D01*
X321111D01*
Y32872D01*
X321059D01*
Y32923D01*
X321008D01*
Y32975D01*
X320956D01*
Y33026D01*
X320905D01*
Y33078D01*
X320853D01*
Y33129D01*
X320802D01*
Y33181D01*
X320699D01*
Y33232D01*
X320647D01*
Y33284D01*
X320596D01*
Y33335D01*
X320544D01*
Y33387D01*
X320493D01*
Y33438D01*
X320441D01*
Y33490D01*
X320390D01*
Y33542D01*
X320338D01*
Y33593D01*
X320235D01*
Y33645D01*
X320184D01*
Y33696D01*
X320132D01*
Y33748D01*
X320081D01*
Y33799D01*
X319978D01*
Y33851D01*
X319926D01*
Y33902D01*
X319875D01*
Y33954D01*
X319772D01*
Y34005D01*
X319720D01*
Y34057D01*
X319617D01*
Y34108D01*
X319566D01*
Y34160D01*
X319514D01*
Y34211D01*
X319411D01*
Y34263D01*
X319359D01*
Y34314D01*
X319256D01*
Y34366D01*
X319205D01*
Y34417D01*
X319102D01*
Y34469D01*
X319050D01*
Y34520D01*
X318947D01*
Y34572D01*
X318896D01*
Y34623D01*
X318793D01*
Y34675D01*
X318741D01*
Y34726D01*
X318638D01*
Y34778D01*
X318535D01*
Y34830D01*
X318432D01*
Y34881D01*
X318380D01*
Y34933D01*
X318278D01*
Y34984D01*
X318174D01*
Y35035D01*
X318071D01*
Y35087D01*
X317968D01*
Y35139D01*
X317865D01*
Y35190D01*
X317762D01*
Y35242D01*
X317659D01*
Y35293D01*
X317556D01*
Y35345D01*
X317453D01*
Y35396D01*
X317350D01*
Y35448D01*
X317247D01*
Y35499D01*
X317144D01*
Y35551D01*
X316989D01*
Y35602D01*
X316886D01*
Y35654D01*
X316732D01*
Y35705D01*
X316629D01*
Y35757D01*
X316526D01*
Y35808D01*
X316371D01*
Y35860D01*
X316217D01*
Y35911D01*
X316114D01*
Y35963D01*
X315908D01*
Y36014D01*
X315805D01*
Y36066D01*
X315650D01*
Y36117D01*
X315495D01*
Y36169D01*
X315341D01*
Y36220D01*
X315186D01*
Y36272D01*
X314980D01*
Y36323D01*
X314774D01*
Y36375D01*
X314568D01*
Y36426D01*
X314362D01*
Y36478D01*
X314104D01*
Y36530D01*
X313847D01*
Y36581D01*
X313538D01*
Y36633D01*
X313229D01*
Y36684D01*
X312816D01*
Y36736D01*
X312404D01*
Y36787D01*
X311528D01*
Y36839D01*
D02*
G37*
G36*
X315753Y6133D02*
X306428D01*
Y6030D01*
X306531D01*
Y5979D01*
X306634D01*
Y5927D01*
X306737D01*
Y5875D01*
X306789D01*
Y5824D01*
X306892D01*
Y5773D01*
X306995D01*
Y5721D01*
X307098D01*
Y5669D01*
X307149D01*
Y5618D01*
X307252D01*
Y5566D01*
X307355D01*
Y5515D01*
X307458D01*
Y5463D01*
X307510D01*
Y5412D01*
X307613D01*
Y5360D01*
X307716D01*
Y5309D01*
X307819D01*
Y5257D01*
X307922D01*
Y5206D01*
X308025D01*
Y5154D01*
X308077D01*
Y5103D01*
X308180D01*
Y5051D01*
X308283D01*
Y5000D01*
X308386D01*
Y4948D01*
X308437D01*
Y4897D01*
X308540D01*
Y4845D01*
X308643D01*
Y4794D01*
X308746D01*
Y4742D01*
X308798D01*
Y4691D01*
X308901D01*
Y4639D01*
X309004D01*
Y4588D01*
X309107D01*
Y4536D01*
X309158D01*
Y4484D01*
X309262D01*
Y4433D01*
X309365D01*
Y4382D01*
X309468D01*
Y4330D01*
X309571D01*
Y4278D01*
X309674D01*
Y4227D01*
X309725D01*
Y4175D01*
X309828D01*
Y4124D01*
X309931D01*
Y4072D01*
X310034D01*
Y4021D01*
X310137D01*
Y3969D01*
X310241D01*
Y3918D01*
X310292D01*
Y3866D01*
X310395D01*
Y3815D01*
X310498D01*
Y3763D01*
X310601D01*
Y3712D01*
X310704D01*
Y3660D01*
X310807D01*
Y3609D01*
X310910D01*
Y3557D01*
X311013D01*
Y3506D01*
X311116D01*
Y3557D01*
X311219D01*
Y3609D01*
X311322D01*
Y3660D01*
X311425D01*
Y3712D01*
X311477D01*
Y3763D01*
X311580D01*
Y3815D01*
X311683D01*
Y3866D01*
X311786D01*
Y3918D01*
X311889D01*
Y3969D01*
X311992D01*
Y4021D01*
X312044D01*
Y4072D01*
X312147D01*
Y4124D01*
X312250D01*
Y4175D01*
X312353D01*
Y4227D01*
X312456D01*
Y4278D01*
X312559D01*
Y4330D01*
X312662D01*
Y4382D01*
X312713D01*
Y4433D01*
X312816D01*
Y4484D01*
X312919D01*
Y4536D01*
X313022D01*
Y4588D01*
X313125D01*
Y4639D01*
X313229D01*
Y4691D01*
X313280D01*
Y4742D01*
X313383D01*
Y4794D01*
X313486D01*
Y4845D01*
X313589D01*
Y4897D01*
X313641D01*
Y4948D01*
X313744D01*
Y5000D01*
X313847D01*
Y5051D01*
X313950D01*
Y5103D01*
X314053D01*
Y5154D01*
X314156D01*
Y5206D01*
X314207D01*
Y5257D01*
X314311D01*
Y5309D01*
X314413D01*
Y5360D01*
X314517D01*
Y5412D01*
X314568D01*
Y5463D01*
X314671D01*
Y5515D01*
X314774D01*
Y5566D01*
X314877D01*
Y5618D01*
X314980D01*
Y5669D01*
X315083D01*
Y5721D01*
X315135D01*
Y5773D01*
X315238D01*
Y5824D01*
X315341D01*
Y5875D01*
X315444D01*
Y5927D01*
X315547D01*
Y5979D01*
X315599D01*
Y6030D01*
X315702D01*
Y6082D01*
X315753D01*
Y6133D01*
D02*
G37*
%LPD*%
G36*
X306016Y34830D02*
X305913D01*
Y34881D01*
X306016D01*
Y34830D01*
D02*
G37*
G36*
X304213Y33902D02*
X304161D01*
Y33954D01*
X304213D01*
Y33902D01*
D02*
G37*
G36*
X319514Y33026D02*
X319462D01*
Y33078D01*
X319514D01*
Y33026D01*
D02*
G37*
G36*
X303131D02*
X302976D01*
Y33078D01*
X303131D01*
Y33026D01*
D02*
G37*
G36*
X302925D02*
X302822D01*
Y33078D01*
X302925D01*
Y33026D01*
D02*
G37*
G36*
X301894Y32099D02*
X301843D01*
Y32150D01*
X301894D01*
Y32099D01*
D02*
G37*
G36*
X322245Y30141D02*
X322193D01*
Y30193D01*
X322245D01*
Y30141D01*
D02*
G37*
G36*
X322708Y29420D02*
X322657D01*
Y29471D01*
X322708D01*
Y29420D01*
D02*
G37*
G36*
X301121Y27514D02*
X301070D01*
Y27617D01*
X299473D01*
Y27668D01*
X299627D01*
Y27720D01*
X300915D01*
Y27668D01*
X301070D01*
Y27720D01*
X301121D01*
Y27514D01*
D02*
G37*
G36*
X323584Y27565D02*
X323636D01*
Y27514D01*
X323584D01*
Y27565D01*
X323533D01*
Y27617D01*
X323584D01*
Y27565D01*
D02*
G37*
G36*
X300040Y26586D02*
X299988D01*
Y26483D01*
X299937D01*
Y26535D01*
X299885D01*
Y26483D01*
X299730D01*
Y26380D01*
X299627D01*
Y26329D01*
X299576D01*
Y26380D01*
X299421D01*
Y26432D01*
X299318D01*
Y26483D01*
X299164D01*
Y26535D01*
X299009D01*
Y26586D01*
X298803D01*
Y26638D01*
X300040D01*
Y26586D01*
D02*
G37*
G36*
X322914Y26226D02*
X322863D01*
Y26277D01*
X322914D01*
Y26226D01*
D02*
G37*
G36*
X299988D02*
X299937D01*
Y26277D01*
X299988D01*
Y26226D01*
D02*
G37*
G36*
X323120Y27050D02*
X323172D01*
Y26998D01*
X323223D01*
Y26895D01*
X323275D01*
Y26792D01*
X323326D01*
Y26638D01*
X323378D01*
Y26174D01*
X323275D01*
Y26277D01*
X323223D01*
Y26380D01*
X323120D01*
Y26277D01*
Y26226D01*
X323172D01*
Y26071D01*
X323120D01*
Y25917D01*
X323069D01*
Y26020D01*
X323017D01*
Y26071D01*
X322966D01*
Y26123D01*
X323017D01*
Y26226D01*
X322966D01*
Y26277D01*
X322914D01*
Y26329D01*
X322863D01*
Y26432D01*
X322811D01*
Y26123D01*
X322863D01*
Y26071D01*
X322811D01*
Y26123D01*
X322760D01*
Y26174D01*
X322708D01*
Y26329D01*
X322760D01*
Y26535D01*
X322811D01*
Y26638D01*
X322863D01*
Y26741D01*
X322914D01*
Y26844D01*
X322966D01*
Y26998D01*
X323017D01*
Y27153D01*
X323120D01*
Y27050D01*
D02*
G37*
G36*
X323069Y25865D02*
X323017D01*
Y25917D01*
X323069D01*
Y25865D01*
D02*
G37*
G36*
X321266Y25556D02*
X321214D01*
Y25607D01*
Y25659D01*
X321266D01*
Y25556D01*
D02*
G37*
G36*
X322347Y25710D02*
X322399D01*
Y25659D01*
X322502D01*
Y25607D01*
X322554D01*
Y25504D01*
X322605D01*
Y25453D01*
X322657D01*
Y25401D01*
X322605D01*
Y25453D01*
X322554D01*
Y25504D01*
X322502D01*
Y25556D01*
X322451D01*
Y25607D01*
X322347D01*
Y25659D01*
X322296D01*
Y25762D01*
X322347D01*
Y25710D01*
D02*
G37*
G36*
X321729Y25401D02*
X321678D01*
Y25504D01*
X321729D01*
Y25401D01*
D02*
G37*
G36*
X321266D02*
X321214D01*
Y25453D01*
X321266D01*
Y25401D01*
D02*
G37*
G36*
X324048Y25350D02*
X323996D01*
Y25401D01*
X324048D01*
Y25350D01*
D02*
G37*
G36*
X323481D02*
X323429D01*
Y25401D01*
X323481D01*
Y25350D01*
D02*
G37*
G36*
X322760Y25298D02*
X322708D01*
Y25350D01*
X322760D01*
Y25298D01*
D02*
G37*
G36*
X323945Y25247D02*
X323893D01*
Y25298D01*
X323945D01*
Y25247D01*
D02*
G37*
G36*
X323842Y25144D02*
X323790D01*
Y25195D01*
X323842D01*
Y25144D01*
D02*
G37*
G36*
X323739Y24680D02*
X323687D01*
Y24732D01*
X323739D01*
Y24680D01*
D02*
G37*
G36*
X301070Y24732D02*
X301121D01*
Y24680D01*
X300040D01*
Y24732D01*
X300812D01*
Y24783D01*
X301070D01*
Y24732D01*
D02*
G37*
G36*
X322502Y24680D02*
X322554D01*
Y24629D01*
X322657D01*
Y24577D01*
X322554D01*
Y24629D01*
X322502D01*
Y24680D01*
X322451D01*
Y24732D01*
X322502D01*
Y24680D01*
D02*
G37*
G36*
X322708Y24474D02*
X322657D01*
Y24526D01*
X322708D01*
Y24474D01*
D02*
G37*
G36*
X300040D02*
X299988D01*
Y24526D01*
X300040D01*
Y24474D01*
D02*
G37*
G36*
X300246Y24216D02*
X300194D01*
Y24268D01*
X300246D01*
Y24216D01*
D02*
G37*
G36*
X297927D02*
X297876D01*
Y24268D01*
Y24319D01*
Y24474D01*
X297927D01*
Y24216D01*
D02*
G37*
G36*
X300349Y24113D02*
X300297D01*
Y24165D01*
X300349D01*
Y24113D01*
D02*
G37*
G36*
X297927Y24062D02*
X297876D01*
Y24165D01*
X297927D01*
Y24062D01*
D02*
G37*
G36*
X323326Y24165D02*
X323378D01*
Y23701D01*
X323326D01*
Y23804D01*
X323275D01*
Y23856D01*
X323223D01*
Y23753D01*
X323120D01*
Y23650D01*
X323017D01*
Y23753D01*
X322914D01*
Y23701D01*
X322863D01*
Y23650D01*
X322811D01*
Y23598D01*
X322760D01*
Y23547D01*
X322708D01*
Y23650D01*
X322657D01*
Y23598D01*
X322605D01*
Y23547D01*
X322554D01*
Y23650D01*
X322605D01*
Y23753D01*
X322657D01*
Y23804D01*
X322708D01*
Y23856D01*
X322760D01*
Y23907D01*
X322811D01*
Y23959D01*
X322863D01*
Y24010D01*
X322914D01*
Y24062D01*
X322966D01*
Y24113D01*
X323017D01*
Y24165D01*
X323120D01*
Y24216D01*
X323172D01*
Y24268D01*
X323223D01*
Y24319D01*
X323275D01*
Y24371D01*
X323326D01*
Y24165D01*
D02*
G37*
G36*
X321317Y23701D02*
X321266D01*
Y23753D01*
X321317D01*
Y23701D01*
D02*
G37*
G36*
X323017Y23598D02*
X322966D01*
Y23547D01*
X322914D01*
Y23495D01*
X322863D01*
Y23598D01*
X322914D01*
Y23650D01*
X323017D01*
Y23598D01*
D02*
G37*
G36*
X299473Y23495D02*
X299370D01*
Y23547D01*
X299473D01*
Y23495D01*
D02*
G37*
G36*
X322863Y23444D02*
X322811D01*
Y23495D01*
X322863D01*
Y23444D01*
D02*
G37*
G36*
X322708D02*
X322657D01*
Y23547D01*
X322708D01*
Y23444D01*
D02*
G37*
G36*
X322554D02*
X322502D01*
Y23495D01*
X322554D01*
Y23444D01*
D02*
G37*
G36*
X322811Y23392D02*
X322760D01*
Y23444D01*
X322811D01*
Y23392D01*
D02*
G37*
G36*
X322657D02*
X322605D01*
Y23444D01*
X322657D01*
Y23392D01*
D02*
G37*
G36*
X300812Y23134D02*
X300761D01*
Y23186D01*
X300812D01*
Y23134D01*
D02*
G37*
G36*
X323945Y22980D02*
X323893D01*
Y23031D01*
X323945D01*
Y22980D01*
D02*
G37*
G36*
X299112D02*
X299061D01*
Y23031D01*
X299112D01*
Y22980D01*
D02*
G37*
G36*
X323842Y22259D02*
X323790D01*
Y22310D01*
Y22362D01*
X323842D01*
Y22259D01*
D02*
G37*
G36*
X301070Y22310D02*
Y22259D01*
X301019D01*
Y22362D01*
X301070D01*
Y22310D01*
D02*
G37*
G36*
X322141Y22774D02*
X322245D01*
Y22722D01*
X322296D01*
Y22671D01*
X322347D01*
Y22619D01*
X322399D01*
Y22568D01*
X322451D01*
Y22516D01*
X322502D01*
Y22465D01*
X322554D01*
Y22207D01*
X322502D01*
Y22259D01*
X322399D01*
Y22310D01*
X322347D01*
Y22362D01*
X322296D01*
Y22413D01*
X322245D01*
Y22465D01*
X322193D01*
Y22516D01*
X322141D01*
Y22568D01*
X322090D01*
Y22671D01*
X322038D01*
Y22774D01*
X322090D01*
Y22825D01*
X322141D01*
Y22774D01*
D02*
G37*
G36*
X316629Y24319D02*
Y24268D01*
Y22207D01*
X315959D01*
Y22259D01*
X315135D01*
Y22207D01*
X315083D01*
Y22259D01*
X313435D01*
Y22207D01*
X304625D01*
Y31738D01*
X316629D01*
Y24319D01*
D02*
G37*
G36*
X324254Y22156D02*
X324202D01*
Y22207D01*
X324254D01*
Y22156D01*
D02*
G37*
G36*
X324048D02*
X323996D01*
Y22207D01*
X324048D01*
Y22156D01*
D02*
G37*
G36*
X323893D02*
X323842D01*
Y22207D01*
X323893D01*
Y22156D01*
D02*
G37*
G36*
X323326Y22516D02*
X323275D01*
Y22465D01*
X323223D01*
Y22362D01*
X323172D01*
Y22310D01*
X323120D01*
Y22207D01*
X323069D01*
Y22104D01*
X323017D01*
Y22259D01*
X323069D01*
Y22413D01*
X323120D01*
Y22465D01*
Y22516D01*
X323172D01*
Y22568D01*
X323275D01*
Y22619D01*
X323326D01*
Y22516D01*
D02*
G37*
G36*
X324202Y22053D02*
X324151D01*
Y22104D01*
X324202D01*
Y22053D01*
D02*
G37*
G36*
X301070D02*
X301019D01*
Y22104D01*
X301070D01*
Y22053D01*
D02*
G37*
G36*
X299988D02*
D01*
D01*
D01*
D01*
D02*
G37*
G36*
X300040Y23392D02*
X300091D01*
Y23289D01*
X300143D01*
Y23186D01*
X300194D01*
Y23031D01*
X300246D01*
Y22877D01*
X300297D01*
Y22722D01*
X300349D01*
Y22465D01*
X300400D01*
Y22362D01*
Y22310D01*
Y22104D01*
X300349D01*
Y22053D01*
X300297D01*
Y22001D01*
X300246D01*
Y22053D01*
X300194D01*
Y22001D01*
X300246D01*
Y21950D01*
X300194D01*
Y22001D01*
X300091D01*
Y22053D01*
X299988D01*
Y22104D01*
X299937D01*
Y22053D01*
X299988D01*
Y22001D01*
X299885D01*
Y22053D01*
X299833D01*
Y22001D01*
X299782D01*
Y22053D01*
X299730D01*
Y22104D01*
X299679D01*
Y21795D01*
X299627D01*
Y21898D01*
X299576D01*
Y21950D01*
X299627D01*
Y22156D01*
X299524D01*
Y22362D01*
X299576D01*
Y22568D01*
X299627D01*
Y22722D01*
X299679D01*
Y22877D01*
X299730D01*
Y22980D01*
X299782D01*
Y23083D01*
X299833D01*
Y23186D01*
X299885D01*
Y23289D01*
X299937D01*
Y23392D01*
X299988D01*
Y23495D01*
X300040D01*
Y23392D01*
D02*
G37*
G36*
X300194Y21898D02*
X300143D01*
Y21847D01*
X300091D01*
Y21950D01*
X300194D01*
Y21898D01*
D02*
G37*
G36*
X300040Y21795D02*
X299988D01*
Y21847D01*
X300040D01*
Y21795D01*
D02*
G37*
G36*
X324151Y21486D02*
X324099D01*
Y21537D01*
X324151D01*
Y21486D01*
D02*
G37*
G36*
X300297D02*
X300246D01*
Y21537D01*
X300297D01*
Y21486D01*
D02*
G37*
G36*
X300246Y21434D02*
X300194D01*
Y21486D01*
X300246D01*
Y21434D01*
D02*
G37*
G36*
X300194Y21383D02*
X300143D01*
Y21434D01*
X300194D01*
Y21383D01*
D02*
G37*
G36*
X300915Y21331D02*
X300864D01*
Y21383D01*
X300915D01*
Y21331D01*
D02*
G37*
G36*
X300812Y21125D02*
X300761D01*
Y21177D01*
X300812D01*
Y21125D01*
D02*
G37*
G36*
X300143Y21280D02*
X300091D01*
Y21177D01*
X300040D01*
Y21125D01*
X299988D01*
Y21177D01*
X299937D01*
Y21228D01*
X300040D01*
Y21331D01*
X300091D01*
Y21383D01*
X300143D01*
Y21280D01*
D02*
G37*
G36*
X298185Y21074D02*
X298133D01*
Y21125D01*
X298185D01*
Y21074D01*
D02*
G37*
G36*
X300761Y21022D02*
X300709D01*
Y21074D01*
X300761D01*
Y21022D01*
D02*
G37*
G36*
X299937Y21125D02*
X299988D01*
Y21074D01*
Y21022D01*
X299937D01*
Y21074D01*
X299885D01*
Y21177D01*
X299937D01*
Y21125D01*
D02*
G37*
G36*
Y20971D02*
X299885D01*
Y21022D01*
X299937D01*
Y20971D01*
D02*
G37*
G36*
X299885Y20919D02*
X299833D01*
Y20971D01*
X299885D01*
Y20919D01*
D02*
G37*
G36*
X300606Y20816D02*
X300555D01*
Y20868D01*
X300606D01*
Y20816D01*
D02*
G37*
G36*
X300555Y20765D02*
X300503D01*
Y20816D01*
X300555D01*
Y20765D01*
D02*
G37*
G36*
X300503Y20713D02*
X300452D01*
Y20765D01*
X300503D01*
Y20713D01*
D02*
G37*
G36*
X300606Y20662D02*
X300555D01*
Y20713D01*
X300606D01*
Y20662D01*
D02*
G37*
G36*
X300452D02*
X300400D01*
Y20713D01*
X300452D01*
Y20662D01*
D02*
G37*
G36*
X300400Y20559D02*
X300349D01*
Y20610D01*
X300400D01*
Y20559D01*
D02*
G37*
G36*
X301224Y20507D02*
X301121D01*
Y20559D01*
X301224D01*
Y20507D01*
D02*
G37*
G36*
X300297Y20404D02*
X300246D01*
Y20456D01*
X300297D01*
Y20404D01*
D02*
G37*
G36*
X298958Y20456D02*
X299009D01*
Y20404D01*
X298958D01*
Y20456D01*
X298906D01*
Y20507D01*
X298958D01*
Y20456D01*
D02*
G37*
G36*
X317092Y31584D02*
X317144D01*
Y31481D01*
X317196D01*
Y31429D01*
X317247D01*
Y31326D01*
X317299D01*
Y31275D01*
X317350D01*
Y31223D01*
X317402D01*
Y31120D01*
X317453D01*
Y31069D01*
X317505D01*
Y30966D01*
X317556D01*
Y30914D01*
X317608D01*
Y30863D01*
X317659D01*
Y30759D01*
X317711D01*
Y30708D01*
X317762D01*
Y30605D01*
X317814D01*
Y30553D01*
X317865D01*
Y30450D01*
X317917D01*
Y30399D01*
X317968D01*
Y30347D01*
X318020D01*
Y30244D01*
X318071D01*
Y30193D01*
X318123D01*
Y30090D01*
X318174D01*
Y30038D01*
X318226D01*
Y29987D01*
X318278D01*
Y29935D01*
X318329D01*
Y29832D01*
X318380D01*
Y29781D01*
X318432D01*
Y29729D01*
X318484D01*
Y29626D01*
X318535D01*
Y29574D01*
X318587D01*
Y29523D01*
X318638D01*
Y29420D01*
X318690D01*
Y29368D01*
X318741D01*
Y29317D01*
X318793D01*
Y29265D01*
X318844D01*
Y29162D01*
X318896D01*
Y29111D01*
X318947D01*
Y29059D01*
X318999D01*
Y28956D01*
X319050D01*
Y28905D01*
X319102D01*
Y28853D01*
X319153D01*
Y28802D01*
X319205D01*
Y28699D01*
X319256D01*
Y28647D01*
X319308D01*
Y28596D01*
X319359D01*
Y28493D01*
X319411D01*
Y28441D01*
X319462D01*
Y28338D01*
X319514D01*
Y28286D01*
X319566D01*
Y28235D01*
X319617D01*
Y28183D01*
X319669D01*
Y28080D01*
X319720D01*
Y28029D01*
X319772D01*
Y27926D01*
X319823D01*
Y27874D01*
X319875D01*
Y20249D01*
X319772D01*
Y20301D01*
X319514D01*
Y20404D01*
X319720D01*
Y20507D01*
X319514D01*
Y20559D01*
X319102D01*
Y20610D01*
X319256D01*
Y20662D01*
X319617D01*
Y20713D01*
X319566D01*
Y20816D01*
X318896D01*
Y20868D01*
X318793D01*
Y20919D01*
X319308D01*
Y20971D01*
X319514D01*
Y21074D01*
X318484D01*
Y21125D01*
X318329D01*
Y21177D01*
X319050D01*
Y21228D01*
X319308D01*
Y21280D01*
X318896D01*
Y21331D01*
X318123D01*
Y21383D01*
X318020D01*
Y21434D01*
X318844D01*
Y21486D01*
X319050D01*
Y21537D01*
X318587D01*
Y21589D01*
X318071D01*
Y21641D01*
X317711D01*
Y21692D01*
X318226D01*
Y21744D01*
X318638D01*
Y21795D01*
X318380D01*
Y21847D01*
X317608D01*
Y21898D01*
X317556D01*
Y21847D01*
X317505D01*
Y21898D01*
X317402D01*
Y21950D01*
X317556D01*
Y22001D01*
X317968D01*
Y22053D01*
X317247D01*
Y22001D01*
X317299D01*
Y21847D01*
X317092D01*
Y22001D01*
X317196D01*
Y22053D01*
X317041D01*
Y31635D01*
X317092D01*
Y31584D01*
D02*
G37*
G36*
X301740Y20249D02*
X301688D01*
Y20353D01*
X301585D01*
Y20404D01*
X301328D01*
Y20507D01*
X301379D01*
Y20610D01*
X301637D01*
Y20662D01*
X301740D01*
Y20249D01*
D02*
G37*
G36*
X323481Y20198D02*
X323429D01*
Y20249D01*
X323481D01*
Y20198D01*
D02*
G37*
G36*
X301276Y19580D02*
X301070D01*
Y19631D01*
X301276D01*
Y19580D01*
D02*
G37*
G36*
X300658D02*
X300606D01*
Y19631D01*
X300658D01*
Y19580D01*
D02*
G37*
G36*
X314568Y19477D02*
X314517D01*
Y19425D01*
X314465D01*
Y19477D01*
X312919D01*
Y19528D01*
X312662D01*
Y19580D01*
X313177D01*
Y19528D01*
X313589D01*
Y19580D01*
X314259D01*
Y19631D01*
X314207D01*
Y19683D01*
X312713D01*
Y19734D01*
X311219D01*
Y19683D01*
X309313D01*
Y19631D01*
X307098D01*
Y19580D01*
X306995D01*
Y19631D01*
X306943D01*
Y20816D01*
X306995D01*
Y21022D01*
X314568D01*
Y19477D01*
D02*
G37*
G36*
X323584D02*
X323533D01*
Y19631D01*
X323584D01*
Y19477D01*
D02*
G37*
G36*
X311992Y19528D02*
X311786D01*
Y19477D01*
X306995D01*
Y19528D01*
X307355D01*
Y19580D01*
X311992D01*
Y19528D01*
D02*
G37*
G36*
X298958Y19477D02*
Y19425D01*
X298906D01*
Y19786D01*
X298958D01*
Y19477D01*
D02*
G37*
G36*
X299164Y19425D02*
Y19374D01*
X299112D01*
Y19477D01*
X299164D01*
Y19425D01*
D02*
G37*
G36*
X299009Y19219D02*
X298958D01*
Y19271D01*
X299009D01*
Y19219D01*
D02*
G37*
G36*
X298030Y18961D02*
X297927D01*
Y19013D01*
X298030D01*
Y18961D01*
D02*
G37*
G36*
X297824Y18807D02*
X297670D01*
Y18858D01*
X297824D01*
Y18807D01*
D02*
G37*
G36*
X297567D02*
X297515D01*
Y18858D01*
X297567D01*
Y18807D01*
D02*
G37*
G36*
X322657Y18910D02*
X322605D01*
Y18858D01*
X322502D01*
Y18807D01*
X322296D01*
Y18755D01*
X322245D01*
Y18807D01*
X322038D01*
Y18755D01*
X321832D01*
Y18704D01*
X321575D01*
Y18652D01*
X321317D01*
Y18601D01*
X321163D01*
Y18549D01*
X320853D01*
Y18446D01*
X320905D01*
Y18498D01*
X321008D01*
Y18446D01*
X321214D01*
Y18395D01*
X321059D01*
Y18343D01*
X320956D01*
Y18292D01*
X320647D01*
Y18240D01*
X320441D01*
Y18292D01*
X320390D01*
Y18240D01*
X320338D01*
Y19013D01*
X322657D01*
Y18910D01*
D02*
G37*
G36*
X300040Y18755D02*
X300091D01*
Y18704D01*
X300040D01*
Y18755D01*
X299988D01*
Y18807D01*
X300040D01*
Y18755D01*
D02*
G37*
G36*
X300194Y18652D02*
X300143D01*
Y18704D01*
X300194D01*
Y18652D01*
D02*
G37*
G36*
X325851Y18961D02*
X326005D01*
Y18910D01*
X326212D01*
Y18858D01*
X326314D01*
Y18807D01*
X326417D01*
Y18755D01*
X326521D01*
Y18704D01*
X326624D01*
Y18652D01*
X326675D01*
Y18601D01*
X326521D01*
Y18652D01*
X326314D01*
Y18704D01*
X326005D01*
Y18755D01*
X325284D01*
Y18704D01*
X325078D01*
Y18652D01*
X324923D01*
Y18601D01*
X324769D01*
Y18549D01*
X324666D01*
Y18498D01*
X324563D01*
Y18446D01*
X324511D01*
Y18395D01*
X324460D01*
Y18292D01*
X324408D01*
Y18395D01*
X324357D01*
Y18343D01*
X324254D01*
Y18292D01*
X324202D01*
Y18240D01*
X324151D01*
Y18189D01*
X324099D01*
Y18137D01*
X324048D01*
Y18086D01*
X323996D01*
Y17983D01*
X323945D01*
Y17931D01*
X323893D01*
Y18086D01*
X323945D01*
Y18137D01*
X323996D01*
Y18240D01*
X324048D01*
Y18343D01*
X324099D01*
Y18395D01*
X324151D01*
Y18446D01*
X324202D01*
Y18498D01*
X324254D01*
Y18549D01*
X324305D01*
Y18601D01*
X324357D01*
Y18652D01*
X324408D01*
Y18704D01*
X324460D01*
Y18755D01*
X324563D01*
Y18807D01*
X324666D01*
Y18858D01*
X324769D01*
Y18910D01*
X324923D01*
Y18961D01*
X325181D01*
Y19013D01*
X325851D01*
Y18961D01*
D02*
G37*
G36*
X298236Y18601D02*
X298185D01*
Y18652D01*
X298236D01*
Y18601D01*
D02*
G37*
G36*
X300503Y18498D02*
X300400D01*
Y18549D01*
X300503D01*
Y18498D01*
D02*
G37*
G36*
X298494Y18446D02*
X298443D01*
Y18498D01*
X298494D01*
Y18446D01*
D02*
G37*
G36*
X326469Y18343D02*
X326417D01*
Y18395D01*
X326469D01*
Y18343D01*
D02*
G37*
G36*
X325439Y18292D02*
X325387D01*
Y18343D01*
X325439D01*
Y18292D01*
D02*
G37*
G36*
X298340Y19013D02*
X298494D01*
Y18961D01*
X298649D01*
Y18910D01*
X298752D01*
Y18858D01*
X298803D01*
Y18807D01*
X298855D01*
Y18755D01*
X298906D01*
Y18704D01*
X298958D01*
Y18601D01*
X299009D01*
Y18549D01*
X299061D01*
Y18395D01*
X299112D01*
Y18292D01*
X299061D01*
Y18343D01*
X299009D01*
Y18395D01*
X298958D01*
Y18549D01*
X298803D01*
Y18601D01*
X298752D01*
Y18652D01*
X298700D01*
Y18704D01*
X298546D01*
Y18755D01*
X298391D01*
Y18807D01*
X298082D01*
Y18858D01*
X297927D01*
Y18910D01*
X298082D01*
Y18961D01*
X298185D01*
Y19013D01*
X298133D01*
Y19064D01*
X298340D01*
Y19013D01*
D02*
G37*
G36*
X298649Y18292D02*
X298597D01*
Y18343D01*
X298649D01*
Y18292D01*
D02*
G37*
G36*
X325130Y18189D02*
X325078D01*
Y18240D01*
X325130D01*
Y18189D01*
D02*
G37*
G36*
X324408Y18240D02*
X324357D01*
Y18189D01*
X324305D01*
Y18240D01*
Y18292D01*
X324408D01*
Y18240D01*
D02*
G37*
G36*
X325026Y18137D02*
X324975D01*
Y18189D01*
X325026D01*
Y18137D01*
D02*
G37*
G36*
X324305D02*
X324254D01*
Y18189D01*
X324305D01*
Y18137D01*
D02*
G37*
G36*
X324254Y18086D02*
X324202D01*
Y18137D01*
X324254D01*
Y18086D01*
D02*
G37*
G36*
X324202Y18034D02*
X324151D01*
Y18086D01*
X324202D01*
Y18034D01*
D02*
G37*
G36*
X326212Y17983D02*
X326160D01*
Y18034D01*
X326212D01*
Y17983D01*
D02*
G37*
G36*
X325902D02*
X325851D01*
Y18034D01*
X325902D01*
Y17983D01*
D02*
G37*
G36*
X324151D02*
X324099D01*
Y18034D01*
X324151D01*
Y17983D01*
D02*
G37*
G36*
X325799Y17880D02*
X325748D01*
Y17931D01*
X325799D01*
Y17880D01*
D02*
G37*
G36*
X324099D02*
X324048D01*
Y17931D01*
X324099D01*
Y17880D01*
D02*
G37*
G36*
X326108D02*
Y17828D01*
X326057D01*
Y17931D01*
X326108D01*
Y17880D01*
D02*
G37*
G36*
X326057Y17776D02*
X326005D01*
Y17828D01*
X326057D01*
Y17776D01*
D02*
G37*
G36*
X325387Y17622D02*
X325336D01*
Y17673D01*
X325387D01*
Y17622D01*
D02*
G37*
G36*
X300503Y17467D02*
X298133D01*
Y17725D01*
X300503D01*
Y17467D01*
D02*
G37*
G36*
X297412Y17107D02*
X297361D01*
Y17158D01*
X297412D01*
Y17107D01*
D02*
G37*
G36*
X296948Y17055D02*
X296794D01*
Y17107D01*
X296948D01*
Y17055D01*
D02*
G37*
G36*
X297412Y17004D02*
X297361D01*
Y17055D01*
X297412D01*
Y17004D01*
D02*
G37*
G36*
X318638Y16334D02*
X318587D01*
Y16231D01*
X318535D01*
Y16128D01*
X318484D01*
Y16025D01*
X318432D01*
Y15922D01*
X318380D01*
Y15819D01*
X318329D01*
Y15716D01*
X318278D01*
Y15613D01*
X318226D01*
Y15510D01*
X318174D01*
Y15407D01*
X318123D01*
Y15304D01*
X318071D01*
Y15201D01*
X318020D01*
Y15149D01*
X317968D01*
Y15046D01*
X317917D01*
Y14891D01*
X317865D01*
Y14840D01*
X317814D01*
Y14737D01*
X317762D01*
Y14634D01*
X317711D01*
Y14531D01*
X317659D01*
Y14428D01*
X317608D01*
Y14325D01*
X317556D01*
Y14222D01*
X317505D01*
Y14119D01*
X317453D01*
Y14016D01*
X317402D01*
Y13913D01*
X300864D01*
Y14016D01*
X300915D01*
Y14067D01*
X300967D01*
Y14119D01*
X301019D01*
Y14222D01*
X301070D01*
Y14273D01*
X301121D01*
Y14325D01*
X301173D01*
Y14376D01*
X301224D01*
Y14479D01*
X301276D01*
Y14531D01*
X301328D01*
Y14582D01*
X301379D01*
Y14634D01*
X301431D01*
Y14737D01*
X301482D01*
Y14788D01*
X301534D01*
Y14840D01*
X301585D01*
Y14943D01*
X301637D01*
Y14995D01*
X301688D01*
Y15046D01*
X301740D01*
Y15098D01*
X301791D01*
Y15149D01*
X301843D01*
Y15252D01*
X301894D01*
Y15304D01*
X301946D01*
Y15355D01*
X301997D01*
Y15407D01*
X302049D01*
Y15458D01*
X302100D01*
Y15561D01*
X302152D01*
Y15613D01*
X302203D01*
Y15664D01*
X302255D01*
Y15767D01*
X302307D01*
Y15819D01*
X302358D01*
Y15870D01*
X302410D01*
Y15922D01*
X302461D01*
Y15973D01*
X302513D01*
Y16076D01*
X302564D01*
Y16128D01*
X302616D01*
Y16179D01*
X302667D01*
Y16283D01*
X302719D01*
Y16334D01*
X302770D01*
Y16386D01*
X302822D01*
Y16437D01*
X302925D01*
Y16488D01*
X304367D01*
Y16437D01*
X306428D01*
Y16488D01*
X306840D01*
Y16437D01*
X307252D01*
Y16488D01*
X308489D01*
Y16437D01*
X309725D01*
Y16488D01*
X309880D01*
Y16437D01*
X315495D01*
Y16488D01*
X315908D01*
Y16437D01*
X316732D01*
Y16488D01*
X317144D01*
Y16437D01*
X318484D01*
Y16488D01*
X318638D01*
Y16334D01*
D02*
G37*
G36*
X326933Y16231D02*
X326881D01*
Y16283D01*
X326933D01*
Y16231D01*
D02*
G37*
G36*
X300143Y17004D02*
X300091D01*
Y16849D01*
X300040D01*
Y16695D01*
X299988D01*
Y16488D01*
X299937D01*
Y16283D01*
X299885D01*
Y16179D01*
X298700D01*
Y16334D01*
X298649D01*
Y16592D01*
X298597D01*
Y16901D01*
X298546D01*
Y17107D01*
X298597D01*
Y17158D01*
X300143D01*
Y17004D01*
D02*
G37*
G36*
X295712Y16179D02*
X295660D01*
Y16231D01*
X295712D01*
Y16179D01*
D02*
G37*
G36*
X295557D02*
X295506D01*
Y16231D01*
X295557D01*
Y16179D01*
D02*
G37*
G36*
X325181Y16076D02*
X325130D01*
Y16025D01*
X321935D01*
Y16283D01*
X325181D01*
Y16076D01*
D02*
G37*
G36*
X318947Y15922D02*
X318896D01*
Y15973D01*
X318947D01*
Y15922D01*
D02*
G37*
G36*
X299782Y15767D02*
X299730D01*
Y15716D01*
X299421D01*
Y15767D01*
X299267D01*
Y15819D01*
X299164D01*
Y15870D01*
X299782D01*
Y15767D01*
D02*
G37*
G36*
X294682Y15407D02*
X294630D01*
Y15458D01*
X294682D01*
Y15407D01*
D02*
G37*
G36*
X324305Y15664D02*
X324511D01*
Y15613D01*
X324614D01*
Y15664D01*
X324666D01*
Y15561D01*
X324717D01*
Y15510D01*
X324666D01*
Y15458D01*
X324563D01*
Y15407D01*
X324099D01*
Y15355D01*
X324048D01*
Y15304D01*
X324563D01*
Y15252D01*
X324666D01*
Y15149D01*
X322347D01*
Y15510D01*
X322451D01*
Y15561D01*
X322347D01*
Y15716D01*
X324305D01*
Y15664D01*
D02*
G37*
G36*
X325284Y14840D02*
X325233D01*
Y14891D01*
X325284D01*
Y14840D01*
D02*
G37*
G36*
X328478Y14788D02*
X328427D01*
Y14840D01*
X328478D01*
Y14788D01*
D02*
G37*
G36*
X295609Y14737D02*
X295557D01*
Y14788D01*
X295609D01*
Y14737D01*
D02*
G37*
G36*
X324614Y14685D02*
X324563D01*
Y14634D01*
X322811D01*
Y14685D01*
X322399D01*
Y14943D01*
X324614D01*
Y14685D01*
D02*
G37*
G36*
X319926Y15407D02*
X319875D01*
Y14634D01*
X319669D01*
Y14685D01*
X319205D01*
Y14737D01*
X319617D01*
Y14840D01*
X319153D01*
Y14891D01*
X319205D01*
Y14943D01*
X319462D01*
Y14995D01*
X319617D01*
Y15046D01*
X319205D01*
Y15201D01*
X319256D01*
Y15304D01*
X319359D01*
Y15355D01*
X319308D01*
Y15458D01*
X319359D01*
Y15664D01*
X319411D01*
Y16128D01*
X319359D01*
Y16283D01*
X319308D01*
Y16386D01*
X319256D01*
Y16592D01*
X319205D01*
Y16746D01*
X319153D01*
Y16849D01*
X302513D01*
Y16746D01*
X302461D01*
Y16695D01*
X302410D01*
Y16643D01*
X302358D01*
Y16540D01*
X302307D01*
Y16488D01*
X302255D01*
Y16437D01*
X302203D01*
Y16386D01*
X302152D01*
Y16334D01*
X302100D01*
Y16231D01*
X302049D01*
Y16179D01*
X301997D01*
Y16128D01*
X301946D01*
Y16025D01*
X301894D01*
Y15973D01*
X301843D01*
Y15922D01*
X301791D01*
Y15870D01*
X301740D01*
Y15767D01*
X301688D01*
Y15716D01*
X301637D01*
Y15613D01*
X301585D01*
Y15561D01*
X301534D01*
Y19013D01*
X319926D01*
Y15407D01*
D02*
G37*
G36*
X300709Y14582D02*
X300658D01*
Y14634D01*
X300555D01*
Y14685D01*
X300709D01*
Y14582D01*
D02*
G37*
G36*
X325799Y14531D02*
X325645D01*
Y14582D01*
X325799D01*
Y14531D01*
D02*
G37*
G36*
X318896Y15716D02*
X318844D01*
Y15613D01*
X318793D01*
Y15510D01*
X318741D01*
Y15407D01*
X318690D01*
Y15304D01*
X318638D01*
Y15201D01*
X318587D01*
Y15098D01*
X318535D01*
Y14995D01*
X318484D01*
Y14891D01*
X318432D01*
Y14840D01*
X318380D01*
Y14685D01*
X318329D01*
Y14582D01*
X318278D01*
Y14531D01*
X318226D01*
Y14428D01*
X318174D01*
Y14273D01*
X318123D01*
Y14531D01*
X318174D01*
Y14634D01*
X318226D01*
Y14737D01*
X318278D01*
Y14840D01*
X318329D01*
Y14943D01*
X318380D01*
Y15046D01*
X318432D01*
Y15149D01*
X318484D01*
Y15252D01*
X318535D01*
Y15355D01*
X318587D01*
Y15458D01*
X318638D01*
Y15561D01*
X318690D01*
Y15664D01*
X318741D01*
Y15767D01*
X318793D01*
Y15870D01*
X318844D01*
Y15922D01*
X318896D01*
Y15716D01*
D02*
G37*
G36*
X297979Y15819D02*
X298288D01*
Y15767D01*
X298443D01*
Y15716D01*
X298597D01*
Y15664D01*
X298649D01*
Y15613D01*
X298752D01*
Y15561D01*
X298803D01*
Y15510D01*
X298855D01*
Y15458D01*
X298958D01*
Y15407D01*
X298700D01*
Y15355D01*
X298546D01*
Y15304D01*
X298443D01*
Y15252D01*
X298340D01*
Y15201D01*
X298288D01*
Y15149D01*
X298236D01*
Y15098D01*
X298185D01*
Y15046D01*
X298133D01*
Y14995D01*
X298082D01*
Y14943D01*
X298030D01*
Y14891D01*
X297979D01*
Y14788D01*
X297927D01*
Y14737D01*
X297876D01*
Y14634D01*
X297824D01*
Y14531D01*
X297773D01*
Y14428D01*
X297721D01*
Y14273D01*
X297670D01*
Y14222D01*
X296279D01*
Y14273D01*
X296124D01*
Y14634D01*
X296176D01*
Y14840D01*
X296227D01*
Y14943D01*
X296279D01*
Y14995D01*
X296330D01*
Y15098D01*
X296382D01*
Y15149D01*
X296433D01*
Y15201D01*
X296485D01*
Y15304D01*
X296536D01*
Y15355D01*
X296588D01*
Y15407D01*
X296639D01*
Y15458D01*
X296742D01*
Y15510D01*
X296794D01*
Y15561D01*
X296845D01*
Y15613D01*
X296948D01*
Y15664D01*
X297052D01*
Y15716D01*
X297154D01*
Y15767D01*
X297361D01*
Y15819D01*
X297721D01*
Y15870D01*
X297979D01*
Y15819D01*
D02*
G37*
G36*
X318123Y14170D02*
X318071D01*
Y14273D01*
X318123D01*
Y14170D01*
D02*
G37*
G36*
X318020D02*
X317968D01*
Y14222D01*
X318020D01*
Y14170D01*
D02*
G37*
G36*
X300349Y14119D02*
X300297D01*
Y14170D01*
X300349D01*
Y14119D01*
D02*
G37*
G36*
X323429Y13810D02*
X323326D01*
Y13861D01*
X323429D01*
Y13810D01*
D02*
G37*
G36*
X323069D02*
X322914D01*
Y13861D01*
X323069D01*
Y13810D01*
D02*
G37*
G36*
X317865Y13706D02*
X317814D01*
Y13758D01*
X317865D01*
Y13706D01*
D02*
G37*
G36*
X317453Y13397D02*
X317402D01*
Y13346D01*
X317350D01*
Y13294D01*
X300864D01*
Y13346D01*
X300709D01*
Y13500D01*
X300658D01*
Y13603D01*
X317453D01*
Y13397D01*
D02*
G37*
G36*
X329972Y12521D02*
X329921D01*
Y12573D01*
X329972D01*
Y12521D01*
D02*
G37*
G36*
X292569Y12315D02*
X292518D01*
Y12367D01*
X292569D01*
Y12315D01*
D02*
G37*
G36*
Y12212D02*
X292518D01*
Y12264D01*
X292569D01*
Y12212D01*
D02*
G37*
G36*
X329715Y11285D02*
X330230D01*
Y11233D01*
X330281D01*
Y11130D01*
X329869D01*
Y11079D01*
X329303D01*
Y11028D01*
X329457D01*
Y10976D01*
X329560D01*
Y10924D01*
X330281D01*
Y10873D01*
X330333D01*
Y10770D01*
X329766D01*
Y10667D01*
X329818D01*
Y10615D01*
X330333D01*
Y10461D01*
X329972D01*
Y10306D01*
X330333D01*
Y10100D01*
X330127D01*
Y10152D01*
X330024D01*
Y9997D01*
X330075D01*
Y9946D01*
X330333D01*
Y9894D01*
X330384D01*
Y9791D01*
X330075D01*
Y9585D01*
X330384D01*
Y9482D01*
X330333D01*
Y9430D01*
X330075D01*
Y9276D01*
X330178D01*
Y9224D01*
X330230D01*
Y9276D01*
X330281D01*
Y9224D01*
X330333D01*
Y9070D01*
X330127D01*
Y9121D01*
X330075D01*
Y8864D01*
X330024D01*
Y8812D01*
X330127D01*
Y8864D01*
X330333D01*
Y8709D01*
X330024D01*
Y8658D01*
X329972D01*
Y8555D01*
X329921D01*
Y8451D01*
X329972D01*
Y8503D01*
X330024D01*
Y8555D01*
X330281D01*
Y8400D01*
X330178D01*
Y8348D01*
X329921D01*
Y8400D01*
X329869D01*
Y8297D01*
X329818D01*
Y8194D01*
X329766D01*
Y8142D01*
X329715D01*
Y8091D01*
X329818D01*
Y8142D01*
X329972D01*
Y8194D01*
X330281D01*
Y8142D01*
X330230D01*
Y8091D01*
X330178D01*
Y8039D01*
X329663D01*
Y7988D01*
X329612D01*
Y7936D01*
X329560D01*
Y7885D01*
X330024D01*
Y7833D01*
X329972D01*
Y7782D01*
X329818D01*
Y7730D01*
X329612D01*
Y7782D01*
X329560D01*
Y7730D01*
X329509D01*
Y7782D01*
X329457D01*
Y7730D01*
X329303D01*
Y7679D01*
X329509D01*
Y7627D01*
X329715D01*
Y7576D01*
X329457D01*
Y7627D01*
X329303D01*
Y7679D01*
X329045D01*
Y7627D01*
X328994D01*
Y7576D01*
X329354D01*
Y7524D01*
X329457D01*
Y7473D01*
X329406D01*
Y7421D01*
X328581D01*
Y7370D01*
X328787D01*
Y7318D01*
X293600D01*
Y7370D01*
X293960D01*
Y7421D01*
X293754D01*
Y7473D01*
X293033D01*
Y7524D01*
X292878D01*
Y7576D01*
X293342D01*
Y7627D01*
X293497D01*
Y7679D01*
X293290D01*
Y7730D01*
X292724D01*
Y7782D01*
X292569D01*
Y7833D01*
X292518D01*
Y7885D01*
X292621D01*
Y7833D01*
X292878D01*
Y7885D01*
X293033D01*
Y7936D01*
X292981D01*
Y7988D01*
X292930D01*
Y8039D01*
X292363D01*
Y8091D01*
X292312D01*
Y8194D01*
X292775D01*
Y8245D01*
X292724D01*
Y8297D01*
X292672D01*
Y8348D01*
X292621D01*
Y8400D01*
X292569D01*
Y8348D01*
X292312D01*
Y8400D01*
X292260D01*
Y8451D01*
X292209D01*
Y8503D01*
X292312D01*
Y8555D01*
X292415D01*
Y8503D01*
X292518D01*
Y8451D01*
X292621D01*
Y8555D01*
X292569D01*
Y8658D01*
X292518D01*
Y8812D01*
X292466D01*
Y9276D01*
X292415D01*
Y9430D01*
X292209D01*
Y9585D01*
X292260D01*
Y9636D01*
X292466D01*
Y9791D01*
X292209D01*
Y9946D01*
X292260D01*
Y9997D01*
X292518D01*
Y10100D01*
X292312D01*
Y10152D01*
X292209D01*
Y10306D01*
X292569D01*
Y10409D01*
X292621D01*
Y10461D01*
X292209D01*
Y10564D01*
X292260D01*
Y10615D01*
X292672D01*
Y10667D01*
X292724D01*
Y10718D01*
X292775D01*
Y10770D01*
X292260D01*
Y10821D01*
X292209D01*
Y10873D01*
X292260D01*
Y10924D01*
X292312D01*
Y10976D01*
X293085D01*
Y11028D01*
X293290D01*
Y11079D01*
X292312D01*
Y11130D01*
X292260D01*
Y11285D01*
X292981D01*
Y11337D01*
X329715D01*
Y11285D01*
D02*
G37*
G36*
X292363Y9224D02*
X292415D01*
Y9173D01*
Y9070D01*
X292209D01*
Y9173D01*
X292260D01*
Y9224D01*
X292312D01*
Y9276D01*
X292363D01*
Y9224D01*
D02*
G37*
G36*
X292415Y8915D02*
X292209D01*
Y8967D01*
X292415D01*
Y8915D01*
D02*
G37*
G36*
Y8761D02*
X292466D01*
Y8658D01*
X292209D01*
Y8709D01*
X292260D01*
Y8761D01*
X292209D01*
Y8812D01*
X292312D01*
Y8864D01*
X292415D01*
Y8761D01*
D02*
G37*
%LPC*%
G36*
X322914Y26535D02*
X322863D01*
Y26432D01*
X322914D01*
Y26535D01*
D02*
G37*
G36*
X323326Y23907D02*
X323275D01*
Y23856D01*
X323326D01*
Y23907D01*
D02*
G37*
G36*
X323223D02*
X323172D01*
Y23856D01*
X323223D01*
Y23907D01*
D02*
G37*
G36*
X323120Y23856D02*
X323017D01*
Y23804D01*
X323120D01*
Y23856D01*
D02*
G37*
G36*
X322760Y23701D02*
X322708D01*
Y23650D01*
X322760D01*
Y23701D01*
D02*
G37*
G36*
X314929Y30914D02*
X306325D01*
Y30863D01*
X306170D01*
Y30811D01*
X306067D01*
Y30759D01*
X305964D01*
Y30708D01*
X305913D01*
Y30656D01*
X305861D01*
Y30605D01*
X305810D01*
Y30502D01*
X305707D01*
Y30399D01*
X305655D01*
Y30347D01*
X305604D01*
Y30244D01*
X305552D01*
Y30141D01*
X305501D01*
Y29987D01*
X305449D01*
Y23959D01*
X305501D01*
Y23804D01*
X305552D01*
Y23701D01*
X305604D01*
Y23598D01*
X305655D01*
Y23547D01*
X305707D01*
Y23495D01*
X305758D01*
Y23444D01*
X305810D01*
Y23392D01*
X305861D01*
Y23341D01*
X305913D01*
Y23289D01*
X306016D01*
Y23238D01*
X306119D01*
Y23186D01*
X306222D01*
Y23134D01*
X306583D01*
Y23083D01*
X308077D01*
Y23134D01*
X308901D01*
Y23083D01*
X309313D01*
Y23134D01*
X312610D01*
Y23083D01*
X314671D01*
Y23134D01*
X314980D01*
Y23186D01*
X315083D01*
Y23238D01*
X315186D01*
Y23289D01*
X315289D01*
Y23341D01*
X315392D01*
Y23392D01*
X315444D01*
Y23444D01*
X315495D01*
Y23547D01*
X315547D01*
Y23598D01*
X315599D01*
Y23701D01*
X315650D01*
Y23804D01*
X315702D01*
Y23959D01*
X315753D01*
Y30038D01*
X315702D01*
Y30193D01*
X315650D01*
Y30296D01*
X315599D01*
Y30399D01*
X315547D01*
Y30502D01*
X315495D01*
Y30553D01*
X315444D01*
Y30605D01*
X315392D01*
Y30656D01*
X315289D01*
Y30708D01*
X315238D01*
Y30759D01*
X315186D01*
Y30811D01*
X315083D01*
Y30863D01*
X314929D01*
Y30914D01*
D02*
G37*
%LPD*%
G36*
X307819Y29317D02*
X307768D01*
Y29368D01*
X307819D01*
Y29317D01*
D02*
G37*
G36*
X314053Y29729D02*
X314156D01*
Y29678D01*
X314259D01*
Y29626D01*
X314311D01*
Y29574D01*
X314362D01*
Y29523D01*
X314413D01*
Y29471D01*
X314465D01*
Y29368D01*
X314517D01*
Y29162D01*
X314568D01*
Y29059D01*
X314517D01*
Y28853D01*
X314465D01*
Y28750D01*
X314413D01*
Y28699D01*
X314362D01*
Y28647D01*
X314311D01*
Y28596D01*
X314259D01*
Y28544D01*
X314156D01*
Y28493D01*
X314053D01*
Y28441D01*
X313692D01*
Y28493D01*
X313538D01*
Y28544D01*
X313486D01*
Y28596D01*
X313383D01*
Y28647D01*
X313332D01*
Y28699D01*
X313280D01*
Y28802D01*
X313229D01*
Y28905D01*
X313177D01*
Y29317D01*
X313229D01*
Y29471D01*
X313280D01*
Y29523D01*
X313332D01*
Y29574D01*
X313383D01*
Y29626D01*
X313435D01*
Y29678D01*
X313538D01*
Y29729D01*
X313641D01*
Y29781D01*
X314053D01*
Y29729D01*
D02*
G37*
G36*
X309313Y28029D02*
X309262D01*
Y28080D01*
X309313D01*
Y28029D01*
D02*
G37*
G36*
X312044Y29008D02*
X312095D01*
Y28956D01*
X312198D01*
Y28905D01*
X312250D01*
Y28853D01*
X312301D01*
Y28802D01*
X312353D01*
Y28750D01*
X312456D01*
Y28699D01*
X312507D01*
Y28647D01*
X312559D01*
Y28596D01*
X312662D01*
Y28544D01*
X312713D01*
Y28493D01*
X312765D01*
Y28441D01*
X312868D01*
Y28389D01*
X312919D01*
Y28338D01*
X312971D01*
Y28286D01*
X313022D01*
Y28235D01*
X313125D01*
Y28183D01*
X313177D01*
Y28132D01*
X313229D01*
Y28080D01*
X313332D01*
Y28029D01*
X313383D01*
Y27977D01*
X313435D01*
Y27926D01*
X313538D01*
Y27874D01*
X313589D01*
Y27823D01*
X313641D01*
Y27771D01*
X313692D01*
Y27720D01*
X313744D01*
Y27668D01*
X313795D01*
Y27617D01*
X313898D01*
Y27565D01*
X313950D01*
Y27514D01*
X314001D01*
Y27308D01*
X313950D01*
Y27256D01*
X313847D01*
Y27308D01*
X313692D01*
Y27359D01*
X313641D01*
Y27411D01*
X313589D01*
Y27462D01*
X313538D01*
Y27514D01*
X313486D01*
Y27565D01*
X313435D01*
Y27617D01*
X313332D01*
Y27720D01*
X313280D01*
Y27771D01*
X313229D01*
Y27823D01*
X313177D01*
Y27874D01*
X313125D01*
Y27926D01*
X313074D01*
Y27977D01*
X313022D01*
Y28029D01*
X312971D01*
Y28080D01*
X312919D01*
Y28132D01*
X312868D01*
Y28183D01*
X312816D01*
Y28235D01*
X312765D01*
Y28286D01*
X312713D01*
Y28338D01*
X312662D01*
Y28389D01*
X312610D01*
Y28441D01*
X312559D01*
Y28493D01*
X312507D01*
Y28544D01*
X312456D01*
Y28596D01*
X312404D01*
Y28647D01*
X312353D01*
Y28699D01*
X312301D01*
Y28750D01*
X312250D01*
Y28802D01*
X312198D01*
Y28853D01*
X312147D01*
Y28905D01*
X312095D01*
Y28956D01*
X312044D01*
Y29008D01*
X311992D01*
Y29059D01*
X312044D01*
Y29008D01*
D02*
G37*
G36*
X307922Y29265D02*
X308025D01*
Y29214D01*
X308077D01*
Y29162D01*
X308180D01*
Y29111D01*
X308283D01*
Y29059D01*
X308334D01*
Y29008D01*
X308437D01*
Y28956D01*
X308540D01*
Y28905D01*
X308592D01*
Y28853D01*
X308695D01*
Y28802D01*
X308746D01*
Y28750D01*
X308849D01*
Y28699D01*
X308952D01*
Y28647D01*
X309004D01*
Y28596D01*
X309107D01*
Y28544D01*
X309210D01*
Y28493D01*
X309262D01*
Y28441D01*
X309365D01*
Y28389D01*
X309468D01*
Y28338D01*
X309519D01*
Y28286D01*
X309622D01*
Y28235D01*
X309674D01*
Y28183D01*
X309777D01*
Y28132D01*
X309880D01*
Y28080D01*
X309931D01*
Y28029D01*
X310034D01*
Y27977D01*
X310086D01*
Y27926D01*
X310189D01*
Y27874D01*
X310241D01*
Y27823D01*
X310344D01*
Y27771D01*
X310395D01*
Y27720D01*
X310498D01*
Y27668D01*
X310550D01*
Y27617D01*
X310653D01*
Y27565D01*
X310704D01*
Y27514D01*
X310807D01*
Y27462D01*
X310859D01*
Y27411D01*
X310962D01*
Y27359D01*
X311013D01*
Y27308D01*
X311116D01*
Y27256D01*
X311168D01*
Y27205D01*
X311271D01*
Y27153D01*
X311322D01*
Y27101D01*
X311425D01*
Y27050D01*
X311477D01*
Y26998D01*
X311528D01*
Y26947D01*
X311631D01*
Y26895D01*
X311683D01*
Y26844D01*
X311786D01*
Y26792D01*
X311838D01*
Y26741D01*
X311941D01*
Y26689D01*
X311992D01*
Y26638D01*
X312044D01*
Y26586D01*
X312147D01*
Y26535D01*
X312198D01*
Y26483D01*
X312250D01*
Y26432D01*
X312353D01*
Y26380D01*
X312404D01*
Y26329D01*
X312456D01*
Y26277D01*
X312507D01*
Y26226D01*
X312610D01*
Y26174D01*
X312662D01*
Y26123D01*
X312713D01*
Y26071D01*
X312765D01*
Y26020D01*
X312868D01*
Y25968D01*
X312919D01*
Y25917D01*
X312971D01*
Y25865D01*
X313022D01*
Y25813D01*
X313125D01*
Y25762D01*
X313177D01*
Y25710D01*
X313229D01*
Y25659D01*
X313280D01*
Y25607D01*
X313332D01*
Y25556D01*
X313383D01*
Y25504D01*
X313435D01*
Y25453D01*
X313486D01*
Y25401D01*
X313538D01*
Y25350D01*
X313589D01*
Y25298D01*
X313641D01*
Y25247D01*
X313692D01*
Y25195D01*
X313744D01*
Y25144D01*
X313795D01*
Y25092D01*
X313847D01*
Y25041D01*
X313898D01*
Y24989D01*
X313950D01*
Y24938D01*
X314001D01*
Y24835D01*
X314053D01*
Y24732D01*
X314104D01*
Y24577D01*
X314053D01*
Y24526D01*
X314001D01*
Y24474D01*
X313898D01*
Y24422D01*
X313589D01*
Y24474D01*
X313486D01*
Y24526D01*
X313332D01*
Y24577D01*
X313280D01*
Y24629D01*
X313177D01*
Y24680D01*
X313125D01*
Y24732D01*
X313074D01*
Y24783D01*
X313022D01*
Y24835D01*
X312919D01*
Y24886D01*
X312868D01*
Y24938D01*
X312816D01*
Y24989D01*
X312765D01*
Y25041D01*
X312713D01*
Y25092D01*
X312662D01*
Y25144D01*
X312610D01*
Y25195D01*
X312559D01*
Y25247D01*
X312456D01*
Y25298D01*
X312404D01*
Y25350D01*
X312353D01*
Y25401D01*
X312301D01*
Y25453D01*
X312250D01*
Y25504D01*
X312198D01*
Y25556D01*
X312147D01*
Y25607D01*
X312095D01*
Y25659D01*
X312044D01*
Y25710D01*
X311941D01*
Y25762D01*
X311889D01*
Y25813D01*
X311838D01*
Y25865D01*
X311786D01*
Y25917D01*
X311735D01*
Y25968D01*
X311683D01*
Y26020D01*
X311631D01*
Y26071D01*
X311580D01*
Y26123D01*
X311528D01*
Y26174D01*
X311425D01*
Y26226D01*
X311374D01*
Y26277D01*
X311322D01*
Y26329D01*
X311271D01*
Y26380D01*
X311219D01*
Y26432D01*
X311168D01*
Y26483D01*
X311116D01*
Y26535D01*
X311065D01*
Y26586D01*
X311013D01*
Y26638D01*
X310910D01*
Y26689D01*
X310859D01*
Y26741D01*
X310807D01*
Y26792D01*
X310756D01*
Y26844D01*
X310704D01*
Y26895D01*
X310601D01*
Y26947D01*
X310550D01*
Y26998D01*
X310498D01*
Y27050D01*
X310447D01*
Y27101D01*
X310395D01*
Y27153D01*
X310292D01*
Y27205D01*
X310241D01*
Y27256D01*
X310189D01*
Y27308D01*
X310137D01*
Y27359D01*
X310086D01*
Y27411D01*
X310034D01*
Y27462D01*
X309931D01*
Y27514D01*
X309880D01*
Y27565D01*
X309828D01*
Y27617D01*
X309777D01*
Y27668D01*
X309674D01*
Y27720D01*
X309622D01*
Y27771D01*
X309571D01*
Y27823D01*
X309519D01*
Y27874D01*
X309468D01*
Y27926D01*
X309416D01*
Y27977D01*
X309468D01*
Y27926D01*
X309519D01*
Y27874D01*
X309622D01*
Y27823D01*
X309674D01*
Y27771D01*
X309725D01*
Y27720D01*
X309828D01*
Y27668D01*
X309880D01*
Y27617D01*
X309931D01*
Y27565D01*
X310034D01*
Y27514D01*
X310086D01*
Y27462D01*
X310189D01*
Y27411D01*
X310241D01*
Y27359D01*
X310292D01*
Y27308D01*
X310395D01*
Y27256D01*
X310447D01*
Y27205D01*
X310550D01*
Y27153D01*
X310601D01*
Y27101D01*
X310653D01*
Y27050D01*
X310756D01*
Y26998D01*
X310807D01*
Y26947D01*
X310910D01*
Y26895D01*
X310962D01*
Y26844D01*
X311013D01*
Y26792D01*
X311065D01*
Y26741D01*
X311168D01*
Y26689D01*
X311219D01*
Y26638D01*
X311322D01*
Y26586D01*
X311374D01*
Y26535D01*
X311425D01*
Y26483D01*
X311477D01*
Y26432D01*
X311528D01*
Y26380D01*
X311580D01*
Y26432D01*
X311528D01*
Y26483D01*
X311477D01*
Y26535D01*
X311425D01*
Y26586D01*
X311374D01*
Y26638D01*
X311322D01*
Y26689D01*
X311271D01*
Y26741D01*
X311219D01*
Y26792D01*
X311116D01*
Y26844D01*
X311065D01*
Y26895D01*
X311013D01*
Y26947D01*
X310962D01*
Y26998D01*
X310910D01*
Y27050D01*
X310859D01*
Y27101D01*
X310756D01*
Y27153D01*
X310704D01*
Y27205D01*
X310653D01*
Y27256D01*
X310550D01*
Y27308D01*
X310498D01*
Y27359D01*
X310447D01*
Y27411D01*
X310395D01*
Y27462D01*
X310292D01*
Y27514D01*
X310241D01*
Y27565D01*
X310189D01*
Y27617D01*
X310137D01*
Y27668D01*
X310086D01*
Y27720D01*
X309983D01*
Y27771D01*
X309931D01*
Y27823D01*
X309880D01*
Y27874D01*
X309777D01*
Y27926D01*
X309725D01*
Y27977D01*
X309674D01*
Y28029D01*
X309622D01*
Y28080D01*
X309519D01*
Y28132D01*
X309468D01*
Y28183D01*
X309365D01*
Y28235D01*
X309313D01*
Y28286D01*
X309262D01*
Y28338D01*
X309158D01*
Y28389D01*
X309107D01*
Y28441D01*
X309004D01*
Y28493D01*
X308952D01*
Y28544D01*
X308901D01*
Y28596D01*
X308798D01*
Y28647D01*
X308746D01*
Y28699D01*
X308695D01*
Y28750D01*
X308592D01*
Y28802D01*
X308540D01*
Y28853D01*
X308437D01*
Y28905D01*
X308386D01*
Y28956D01*
X308334D01*
Y29008D01*
X308231D01*
Y29059D01*
X308180D01*
Y29111D01*
X308077D01*
Y29162D01*
X308025D01*
Y29214D01*
X307922D01*
Y29265D01*
X307871D01*
Y29317D01*
X307922D01*
Y29265D01*
D02*
G37*
%LPC*%
G36*
X299782Y22207D02*
X299679D01*
Y22156D01*
X299782D01*
Y22207D01*
D02*
G37*
G36*
X318690Y28750D02*
X318587D01*
Y28389D01*
X318638D01*
Y28338D01*
X318690D01*
Y28286D01*
X318741D01*
Y28183D01*
X318793D01*
Y28132D01*
X318844D01*
Y28080D01*
X318896D01*
Y28029D01*
X318947D01*
Y27926D01*
X318999D01*
Y27874D01*
X319050D01*
Y27823D01*
X319102D01*
Y27771D01*
X319153D01*
Y27720D01*
X319205D01*
Y27668D01*
X319256D01*
Y27617D01*
X319308D01*
Y27565D01*
X319359D01*
Y27462D01*
X319411D01*
Y27411D01*
X319462D01*
Y27359D01*
X319514D01*
Y27771D01*
X319462D01*
Y27874D01*
X319411D01*
Y27926D01*
X319359D01*
Y27977D01*
X319308D01*
Y28029D01*
X319256D01*
Y28080D01*
X319205D01*
Y28183D01*
X319153D01*
Y28235D01*
X319102D01*
Y28286D01*
X319050D01*
Y28338D01*
X318999D01*
Y28389D01*
X318947D01*
Y28441D01*
X318896D01*
Y28493D01*
X318844D01*
Y28544D01*
X318793D01*
Y28596D01*
X318741D01*
Y28699D01*
X318690D01*
Y28750D01*
D02*
G37*
G36*
Y27977D02*
X318587D01*
Y27565D01*
X318638D01*
Y27514D01*
X318690D01*
Y27462D01*
X318741D01*
Y27359D01*
X318793D01*
Y27308D01*
X318844D01*
Y27256D01*
X318896D01*
Y27205D01*
X318947D01*
Y27153D01*
X318999D01*
Y27101D01*
X319050D01*
Y27050D01*
X319102D01*
Y26998D01*
X319153D01*
Y26947D01*
X319205D01*
Y26895D01*
X319256D01*
Y26844D01*
X319308D01*
Y26792D01*
X319359D01*
Y26741D01*
X319411D01*
Y26689D01*
X319566D01*
Y26895D01*
X319514D01*
Y26998D01*
X319462D01*
Y27101D01*
X319411D01*
Y27153D01*
X319359D01*
Y27205D01*
X319308D01*
Y27256D01*
X319256D01*
Y27308D01*
X319205D01*
Y27359D01*
X319153D01*
Y27411D01*
X319102D01*
Y27462D01*
X319050D01*
Y27514D01*
X318999D01*
Y27565D01*
X318947D01*
Y27617D01*
X318896D01*
Y27668D01*
X318844D01*
Y27720D01*
X318793D01*
Y27771D01*
X318741D01*
Y27874D01*
X318690D01*
Y27977D01*
D02*
G37*
G36*
Y27153D02*
X318587D01*
Y26792D01*
X318638D01*
Y26741D01*
X318690D01*
Y26689D01*
X318741D01*
Y26586D01*
X318793D01*
Y26535D01*
X318844D01*
Y26483D01*
X318896D01*
Y26432D01*
X318947D01*
Y26380D01*
X319050D01*
Y26329D01*
X319102D01*
Y26277D01*
X319153D01*
Y26226D01*
X319205D01*
Y26174D01*
X319256D01*
Y26123D01*
X319308D01*
Y26071D01*
X319359D01*
Y25968D01*
X319411D01*
Y25917D01*
X319514D01*
Y25968D01*
X319566D01*
Y26174D01*
X319514D01*
Y26329D01*
X319462D01*
Y26380D01*
X319359D01*
Y26432D01*
X319308D01*
Y26483D01*
X319256D01*
Y26586D01*
X319153D01*
Y26638D01*
X319102D01*
Y26689D01*
X319050D01*
Y26741D01*
X318999D01*
Y26792D01*
X318947D01*
Y26844D01*
X318896D01*
Y26895D01*
X318844D01*
Y26947D01*
X318793D01*
Y26998D01*
X318741D01*
Y27050D01*
X318690D01*
Y27153D01*
D02*
G37*
G36*
X318638Y26432D02*
X318587D01*
Y26071D01*
X318638D01*
Y25968D01*
X318690D01*
Y25917D01*
X318741D01*
Y25865D01*
X318793D01*
Y25813D01*
X318844D01*
Y25762D01*
X318896D01*
Y25710D01*
X318947D01*
Y25659D01*
X318999D01*
Y25607D01*
X319050D01*
Y25556D01*
X319102D01*
Y25504D01*
X319153D01*
Y25453D01*
X319205D01*
Y25401D01*
X319256D01*
Y25350D01*
X319308D01*
Y25298D01*
X319359D01*
Y25247D01*
X319411D01*
Y25195D01*
X319462D01*
Y25144D01*
X319514D01*
Y25298D01*
X319566D01*
Y25453D01*
X319514D01*
Y25556D01*
X319462D01*
Y25607D01*
X319411D01*
Y25659D01*
X319359D01*
Y25710D01*
X319308D01*
Y25762D01*
X319256D01*
Y25813D01*
X319205D01*
Y25865D01*
X319153D01*
Y25917D01*
X319102D01*
Y25968D01*
X319050D01*
Y26020D01*
X318947D01*
Y26071D01*
X318896D01*
Y26123D01*
X318844D01*
Y26174D01*
X318793D01*
Y26226D01*
X318741D01*
Y26277D01*
X318690D01*
Y26380D01*
X318638D01*
Y26432D01*
D02*
G37*
G36*
X318690Y25607D02*
X318587D01*
Y25350D01*
X318638D01*
Y25298D01*
Y25247D01*
X318690D01*
Y25195D01*
X318741D01*
Y25092D01*
X318793D01*
Y25041D01*
X318844D01*
Y24989D01*
X318947D01*
Y24938D01*
X318999D01*
Y24886D01*
X319050D01*
Y24835D01*
X319102D01*
Y24783D01*
X319153D01*
Y24732D01*
X319205D01*
Y24680D01*
X319256D01*
Y24629D01*
X319308D01*
Y24577D01*
X319359D01*
Y24526D01*
X319411D01*
Y24474D01*
X319462D01*
Y24422D01*
X319514D01*
Y24526D01*
X319566D01*
Y24680D01*
X319514D01*
Y24835D01*
X319462D01*
Y24886D01*
X319411D01*
Y24938D01*
X319359D01*
Y24989D01*
X319308D01*
Y25041D01*
X319256D01*
Y25092D01*
X319205D01*
Y25144D01*
X319102D01*
Y25195D01*
X319050D01*
Y25247D01*
X318999D01*
Y25298D01*
X318947D01*
Y25350D01*
X318896D01*
Y25401D01*
X318844D01*
Y25453D01*
X318793D01*
Y25504D01*
X318741D01*
Y25556D01*
X318690D01*
Y25607D01*
D02*
G37*
G36*
Y24886D02*
X318638D01*
Y24783D01*
X318587D01*
Y24629D01*
X318638D01*
Y24526D01*
X318690D01*
Y24474D01*
X318741D01*
Y24422D01*
X318793D01*
Y24319D01*
X318844D01*
Y24268D01*
X318947D01*
Y24216D01*
X318999D01*
Y24165D01*
X319050D01*
Y24113D01*
X319102D01*
Y24062D01*
X319153D01*
Y24010D01*
X319205D01*
Y23959D01*
X319256D01*
Y23907D01*
X319308D01*
Y23856D01*
X319359D01*
Y23804D01*
X319411D01*
Y23753D01*
X319514D01*
Y24113D01*
X319462D01*
Y24165D01*
X319411D01*
Y24216D01*
X319359D01*
Y24268D01*
X319308D01*
Y24319D01*
X319256D01*
Y24371D01*
X319205D01*
Y24422D01*
X319153D01*
Y24474D01*
X319102D01*
Y24526D01*
X318999D01*
Y24577D01*
X318947D01*
Y24629D01*
X318896D01*
Y24680D01*
X318844D01*
Y24732D01*
X318793D01*
Y24783D01*
X318741D01*
Y24835D01*
X318690D01*
Y24886D01*
D02*
G37*
G36*
X318741Y24113D02*
X318638D01*
Y23959D01*
X318587D01*
Y23856D01*
X318638D01*
Y23753D01*
X318690D01*
Y23701D01*
X318741D01*
Y23650D01*
X318793D01*
Y23598D01*
X318844D01*
Y23547D01*
X318947D01*
Y23495D01*
X318999D01*
Y23444D01*
X319050D01*
Y23392D01*
X319102D01*
Y23341D01*
X319205D01*
Y23289D01*
X319256D01*
Y23238D01*
X319308D01*
Y23186D01*
X319359D01*
Y23134D01*
X319411D01*
Y23083D01*
X319462D01*
Y22980D01*
X319514D01*
Y23392D01*
X319462D01*
Y23444D01*
X319411D01*
Y23495D01*
X319359D01*
Y23547D01*
X319308D01*
Y23598D01*
X319256D01*
Y23650D01*
X319205D01*
Y23701D01*
X319153D01*
Y23753D01*
X319102D01*
Y23804D01*
X318999D01*
Y23856D01*
X318947D01*
Y23907D01*
X318896D01*
Y23959D01*
X318844D01*
Y24010D01*
X318793D01*
Y24062D01*
X318741D01*
Y24113D01*
D02*
G37*
G36*
X317402Y22207D02*
X317299D01*
Y22104D01*
X317350D01*
Y22156D01*
X317402D01*
Y22207D01*
D02*
G37*
G36*
X313950Y20095D02*
X310292D01*
Y20043D01*
X310395D01*
Y19992D01*
X312868D01*
Y20043D01*
X313950D01*
Y20095D01*
D02*
G37*
G36*
X309983Y20765D02*
X309004D01*
Y19940D01*
X309983D01*
Y20765D01*
D02*
G37*
G36*
X308643D02*
X307716D01*
Y20713D01*
X307664D01*
Y19992D01*
X307716D01*
Y19940D01*
X308643D01*
Y19992D01*
X308695D01*
Y20043D01*
X308643D01*
Y20404D01*
X308695D01*
Y20713D01*
X308643D01*
Y20765D01*
D02*
G37*
G36*
X312919Y19940D02*
X311013D01*
Y19889D01*
X309983D01*
Y19837D01*
X310498D01*
Y19786D01*
X314001D01*
Y19837D01*
X313847D01*
Y19889D01*
X312919D01*
Y19940D01*
D02*
G37*
%LPD*%
G36*
X309622Y20301D02*
X309571D01*
Y20198D01*
X309468D01*
Y20249D01*
X309365D01*
Y20404D01*
X309622D01*
Y20301D01*
D02*
G37*
G36*
X308283Y20249D02*
Y20198D01*
X308025D01*
Y20353D01*
X308077D01*
Y20404D01*
X308283D01*
Y20249D01*
D02*
G37*
%LPC*%
G36*
X303079Y16076D02*
X302925D01*
Y16025D01*
X302976D01*
Y15973D01*
X303028D01*
Y15819D01*
X302976D01*
Y15767D01*
X302925D01*
Y15664D01*
X302873D01*
Y15613D01*
X302822D01*
Y15561D01*
X302770D01*
Y15458D01*
X302719D01*
Y15407D01*
X302667D01*
Y15355D01*
X302616D01*
Y15304D01*
X302564D01*
Y15201D01*
X302513D01*
Y15149D01*
X302461D01*
Y15098D01*
X302410D01*
Y14995D01*
X302358D01*
Y14943D01*
X302307D01*
Y14891D01*
X302255D01*
Y14840D01*
X302203D01*
Y14788D01*
X302152D01*
Y14685D01*
X302100D01*
Y14634D01*
X302049D01*
Y14582D01*
X301997D01*
Y14479D01*
X301946D01*
Y14428D01*
X301894D01*
Y14376D01*
X301843D01*
Y14273D01*
X316783D01*
Y14325D01*
X316835D01*
Y14376D01*
X316886D01*
Y14479D01*
X316938D01*
Y14582D01*
X316989D01*
Y14685D01*
X317041D01*
Y14788D01*
X317092D01*
Y14891D01*
X317144D01*
Y14943D01*
X317196D01*
Y15046D01*
X317247D01*
Y15149D01*
X317299D01*
Y15252D01*
X317350D01*
Y15355D01*
X317402D01*
Y15458D01*
X317453D01*
Y15561D01*
X317505D01*
Y15664D01*
X317556D01*
Y15767D01*
X317608D01*
Y15870D01*
X317659D01*
Y16025D01*
X303079D01*
Y16076D01*
D02*
G37*
%LPD*%
G36*
X317041Y15613D02*
X316989D01*
Y15561D01*
X316938D01*
Y15510D01*
X316886D01*
Y15407D01*
X316835D01*
Y15355D01*
X316320D01*
Y15458D01*
X316371D01*
Y15510D01*
X316423D01*
Y15561D01*
X316474D01*
Y15664D01*
X317041D01*
Y15613D01*
D02*
G37*
G36*
X315959D02*
X315908D01*
Y15561D01*
X315856D01*
Y15510D01*
X315805D01*
Y15458D01*
X315753D01*
Y15407D01*
X315702D01*
Y15355D01*
X315135D01*
Y15407D01*
X315186D01*
Y15458D01*
X315238D01*
Y15510D01*
X315289D01*
Y15613D01*
X315392D01*
Y15664D01*
X315959D01*
Y15613D01*
D02*
G37*
G36*
X314774Y15561D02*
X314723D01*
Y15510D01*
X314671D01*
Y15458D01*
X314620D01*
Y15407D01*
X314517D01*
Y15355D01*
X314001D01*
Y15407D01*
X314053D01*
Y15458D01*
X314104D01*
Y15510D01*
Y15561D01*
X314156D01*
Y15613D01*
X314259D01*
Y15664D01*
X314774D01*
Y15561D01*
D02*
G37*
G36*
X313589D02*
X313538D01*
Y15510D01*
X313486D01*
Y15407D01*
X313332D01*
Y15355D01*
X313229D01*
Y15407D01*
X312868D01*
Y15355D01*
X312765D01*
Y15407D01*
X312816D01*
Y15510D01*
X312868D01*
Y15561D01*
X312919D01*
Y15613D01*
X312971D01*
Y15664D01*
X313589D01*
Y15561D01*
D02*
G37*
G36*
X312404Y15613D02*
X312353D01*
Y15510D01*
X312301D01*
Y15458D01*
X312250D01*
Y15407D01*
X312147D01*
Y15355D01*
X311786D01*
Y15407D01*
X311683D01*
Y15355D01*
X311580D01*
Y15458D01*
X311631D01*
Y15510D01*
X311683D01*
Y15561D01*
X311735D01*
Y15613D01*
X311786D01*
Y15664D01*
X312404D01*
Y15613D01*
D02*
G37*
G36*
X311219D02*
X311168D01*
Y15510D01*
X311116D01*
Y15458D01*
X311065D01*
Y15407D01*
X311013D01*
Y15355D01*
X310550D01*
Y15407D01*
X310447D01*
Y15458D01*
X310498D01*
Y15510D01*
X310550D01*
Y15613D01*
X310653D01*
Y15664D01*
X311219D01*
Y15613D01*
D02*
G37*
G36*
X310086D02*
X310034D01*
Y15561D01*
X309983D01*
Y15510D01*
X309931D01*
Y15458D01*
X309880D01*
Y15407D01*
X309828D01*
Y15355D01*
X309313D01*
Y15407D01*
X309365D01*
Y15510D01*
X309416D01*
Y15561D01*
X309468D01*
Y15613D01*
X309571D01*
Y15664D01*
X310086D01*
Y15613D01*
D02*
G37*
G36*
X308952Y15561D02*
X308901D01*
Y15510D01*
X308849D01*
Y15458D01*
X308798D01*
Y15407D01*
X308746D01*
Y15355D01*
X308231D01*
Y15407D01*
X308283D01*
Y15458D01*
X308334D01*
Y15561D01*
X308386D01*
Y15613D01*
X308695D01*
Y15664D01*
X308952D01*
Y15561D01*
D02*
G37*
G36*
X307922Y15613D02*
X307871D01*
Y15561D01*
X307819D01*
Y15510D01*
X307768D01*
Y15407D01*
X307716D01*
Y15355D01*
X307201D01*
Y15407D01*
X307252D01*
Y15458D01*
X307304D01*
Y15561D01*
X307355D01*
Y15613D01*
X307407D01*
Y15664D01*
X307922D01*
Y15613D01*
D02*
G37*
G36*
X306840D02*
X306789D01*
Y15561D01*
X306737D01*
Y15510D01*
X306686D01*
Y15458D01*
X306634D01*
Y15407D01*
X306583D01*
Y15355D01*
X306067D01*
Y15407D01*
X306119D01*
Y15458D01*
X306170D01*
Y15510D01*
X306222D01*
Y15561D01*
X306274D01*
Y15613D01*
X306325D01*
Y15664D01*
X306840D01*
Y15613D01*
D02*
G37*
G36*
X305758Y15561D02*
X305655D01*
Y15458D01*
X305604D01*
Y15407D01*
X305501D01*
Y15355D01*
X305037D01*
Y15407D01*
X305088D01*
Y15510D01*
X305140D01*
Y15561D01*
X305191D01*
Y15613D01*
X305295D01*
Y15664D01*
X305758D01*
Y15561D01*
D02*
G37*
G36*
X315444Y14995D02*
X315392D01*
Y14891D01*
X315341D01*
Y14840D01*
X315289D01*
Y14788D01*
X314723D01*
Y14840D01*
X314774D01*
Y14891D01*
X314826D01*
Y14943D01*
X314877D01*
Y14995D01*
X314980D01*
Y15046D01*
X315444D01*
Y14995D01*
D02*
G37*
G36*
X314311Y14891D02*
X314259D01*
Y14788D01*
X313641D01*
Y14891D01*
X313692D01*
Y14943D01*
X313795D01*
Y14995D01*
X313847D01*
Y15046D01*
X314311D01*
Y14891D01*
D02*
G37*
G36*
X313125Y14995D02*
Y14943D01*
Y14891D01*
X313074D01*
Y14788D01*
X312713D01*
Y14840D01*
X312559D01*
Y14788D01*
X312404D01*
Y14891D01*
X312456D01*
Y14943D01*
X312507D01*
Y14995D01*
X312610D01*
Y15046D01*
X313125D01*
Y14995D01*
D02*
G37*
G36*
X306325D02*
X306274D01*
Y14891D01*
X306222D01*
Y14788D01*
X305655D01*
Y14891D01*
X305707D01*
Y14943D01*
X305758D01*
Y14995D01*
X305861D01*
Y15046D01*
X306325D01*
Y14995D01*
D02*
G37*
G36*
X305243Y14943D02*
X305191D01*
Y14840D01*
X305140D01*
Y14788D01*
X304573D01*
Y14840D01*
X304625D01*
Y14943D01*
X304728D01*
Y14995D01*
X304779D01*
Y15046D01*
X305243D01*
Y14943D01*
D02*
G37*
G36*
X316577D02*
X316526D01*
Y14840D01*
X316474D01*
Y14788D01*
X316423D01*
Y14737D01*
X316371D01*
Y14788D01*
X315959D01*
Y14737D01*
X315908D01*
Y14891D01*
X315959D01*
Y14943D01*
X316011D01*
Y14995D01*
X316062D01*
Y15046D01*
X316577D01*
Y14943D01*
D02*
G37*
G36*
X311889Y14891D02*
X311838D01*
Y14840D01*
X311786D01*
Y14737D01*
X306789D01*
Y14788D01*
X306840D01*
Y14840D01*
X306892D01*
Y14891D01*
X306943D01*
Y14943D01*
X306995D01*
Y14995D01*
X311889D01*
Y14891D01*
D02*
G37*
G36*
X304367Y15613D02*
X304316D01*
Y15510D01*
X304264D01*
Y15458D01*
X304213D01*
Y15355D01*
X304161D01*
Y15304D01*
X304110D01*
Y15252D01*
X304058D01*
Y15149D01*
X304007D01*
Y15098D01*
X303955D01*
Y14995D01*
X303904D01*
Y14891D01*
X303852D01*
Y14840D01*
X303801D01*
Y14737D01*
X302873D01*
Y14840D01*
X302925D01*
Y14891D01*
X302976D01*
Y14943D01*
X303028D01*
Y15046D01*
X303079D01*
Y15098D01*
X303131D01*
Y15149D01*
X303182D01*
Y15201D01*
X303234D01*
Y15304D01*
X303285D01*
Y15355D01*
X303337D01*
Y15407D01*
X303388D01*
Y15458D01*
X303440D01*
Y15561D01*
X303491D01*
Y15613D01*
X303543D01*
Y15664D01*
X304367D01*
Y15613D01*
D02*
G37*
%LPC*%
G36*
X302152Y18343D02*
X302100D01*
Y18292D01*
X302152D01*
Y18343D01*
D02*
G37*
G36*
X304470Y18292D02*
X304110D01*
Y18240D01*
X304058D01*
Y18189D01*
X303955D01*
Y18086D01*
X303904D01*
Y17673D01*
X303955D01*
Y17570D01*
X304058D01*
Y17519D01*
X304110D01*
Y17467D01*
X304522D01*
Y17519D01*
X304573D01*
Y17570D01*
X304625D01*
Y17622D01*
X304676D01*
Y17673D01*
X304728D01*
Y17931D01*
Y17983D01*
Y18086D01*
X304676D01*
Y18189D01*
X304573D01*
Y18240D01*
X304470D01*
Y18292D01*
D02*
G37*
G36*
X302770D02*
X302410D01*
Y18240D01*
X302307D01*
Y18189D01*
X302255D01*
Y18137D01*
X302203D01*
Y18034D01*
X302152D01*
Y17880D01*
Y17828D01*
Y17776D01*
X302203D01*
Y17622D01*
X302255D01*
Y17570D01*
X302307D01*
Y17519D01*
X302410D01*
Y17467D01*
X302719D01*
Y17519D01*
X302822D01*
Y17570D01*
X302873D01*
Y17622D01*
X302925D01*
Y17725D01*
X302976D01*
Y18034D01*
X302925D01*
Y18137D01*
X302873D01*
Y18189D01*
X302822D01*
Y18240D01*
X302770D01*
Y18292D01*
D02*
G37*
G36*
X309931Y18189D02*
X305088D01*
Y17364D01*
X309931D01*
Y18189D01*
D02*
G37*
G36*
X318844Y18137D02*
X312919D01*
Y17570D01*
Y17519D01*
Y17210D01*
X318844D01*
Y18137D01*
D02*
G37*
%LPD*%
G36*
X304470Y17931D02*
X304522D01*
Y17828D01*
X304470D01*
Y17725D01*
X304419D01*
Y17673D01*
X304367D01*
Y17725D01*
X304264D01*
Y17776D01*
X304213D01*
Y17828D01*
X304161D01*
Y17931D01*
X304213D01*
Y18034D01*
X304470D01*
Y17931D01*
D02*
G37*
G36*
X302719Y17983D02*
X302770D01*
Y17828D01*
X302719D01*
Y17776D01*
X302667D01*
Y17725D01*
X302564D01*
Y17673D01*
X302513D01*
Y17725D01*
X302461D01*
Y17776D01*
X302410D01*
Y18034D01*
X302461D01*
Y18086D01*
X302719D01*
Y17983D01*
D02*
G37*
G36*
X309571Y17725D02*
X305501D01*
Y17828D01*
X309571D01*
Y17725D01*
D02*
G37*
G36*
X318484Y17622D02*
X318432D01*
Y17570D01*
X317968D01*
Y17622D01*
X316989D01*
Y17570D01*
X313435D01*
Y17622D01*
X313383D01*
Y17570D01*
X313332D01*
Y17622D01*
X313280D01*
Y17725D01*
X318484D01*
Y17622D01*
D02*
G37*
%LPC*%
G36*
X308540Y10461D02*
X308437D01*
Y10409D01*
X308386D01*
Y10358D01*
X308334D01*
Y10306D01*
X306583D01*
Y10358D01*
X306480D01*
Y10409D01*
X306428D01*
Y10461D01*
X306325D01*
Y9843D01*
X306274D01*
Y9585D01*
X306325D01*
Y9636D01*
X306428D01*
Y9740D01*
X306480D01*
Y9791D01*
X307201D01*
Y8555D01*
X307149D01*
Y8503D01*
X307201D01*
Y8297D01*
X307149D01*
Y8142D01*
X307098D01*
Y8091D01*
X307046D01*
Y8039D01*
X306995D01*
Y7936D01*
X307252D01*
Y7988D01*
X307819D01*
Y7936D01*
X307922D01*
Y7988D01*
X307974D01*
Y8039D01*
X307922D01*
Y8091D01*
X307768D01*
Y9379D01*
X307716D01*
Y9482D01*
X307768D01*
Y9843D01*
X307974D01*
Y9791D01*
X308489D01*
Y9688D01*
X308540D01*
Y9636D01*
X308592D01*
Y9585D01*
X308695D01*
Y9688D01*
X308643D01*
Y9894D01*
X308592D01*
Y10100D01*
X308540D01*
Y10461D01*
D02*
G37*
G36*
X329148Y10615D02*
X328221D01*
Y10564D01*
X328066D01*
Y10512D01*
X328015D01*
Y10461D01*
X327963D01*
Y10306D01*
X328015D01*
Y10255D01*
X328066D01*
Y10203D01*
X329303D01*
Y10255D01*
X329354D01*
Y10306D01*
X329406D01*
Y10461D01*
X329354D01*
Y10512D01*
X329303D01*
Y10564D01*
X329148D01*
Y10615D01*
D02*
G37*
G36*
X294269D02*
X293394D01*
Y10564D01*
X293239D01*
Y10512D01*
X293187D01*
Y10461D01*
X293136D01*
Y10306D01*
X293187D01*
Y10255D01*
X293239D01*
Y10203D01*
X294476D01*
Y10255D01*
X294527D01*
Y10358D01*
X294579D01*
Y10409D01*
X294527D01*
Y10512D01*
X294424D01*
Y10564D01*
X294269D01*
Y10615D01*
D02*
G37*
G36*
X317247Y10461D02*
X317144D01*
Y10358D01*
X317196D01*
Y9894D01*
X317144D01*
Y9740D01*
X317092D01*
Y9636D01*
X317247D01*
Y9688D01*
X317299D01*
Y9740D01*
X317350D01*
Y9791D01*
X318587D01*
Y9430D01*
X318535D01*
Y9379D01*
X318432D01*
Y9430D01*
X317814D01*
Y9379D01*
X317865D01*
Y8812D01*
X317917D01*
Y8864D01*
X318587D01*
Y8451D01*
X317453D01*
Y8503D01*
X317299D01*
Y8555D01*
X317196D01*
Y8606D01*
X317144D01*
Y8658D01*
X317041D01*
Y8503D01*
X317092D01*
Y8400D01*
X317144D01*
Y8245D01*
X317196D01*
Y7730D01*
X317247D01*
Y7833D01*
X317299D01*
Y7936D01*
X319359D01*
Y7988D01*
X319411D01*
Y8039D01*
X319359D01*
Y8091D01*
X319308D01*
Y8142D01*
X319205D01*
Y8194D01*
X319153D01*
Y9843D01*
Y9894D01*
Y9946D01*
X319205D01*
Y10100D01*
X319256D01*
Y10152D01*
X319308D01*
Y10203D01*
X319359D01*
Y10358D01*
X319256D01*
Y10306D01*
X317402D01*
Y10358D01*
X317299D01*
Y10409D01*
X317247D01*
Y10461D01*
D02*
G37*
G36*
X311941D02*
X311838D01*
Y10152D01*
X311889D01*
Y9997D01*
X311838D01*
Y9791D01*
X311786D01*
Y9585D01*
X311889D01*
Y9636D01*
X311941D01*
Y9688D01*
X311992D01*
Y9740D01*
X312044D01*
Y9791D01*
X313229D01*
Y9740D01*
X313280D01*
Y9688D01*
X313229D01*
Y9379D01*
X312919D01*
Y9430D01*
X312507D01*
Y9379D01*
X312559D01*
Y8812D01*
X312610D01*
Y8864D01*
X313229D01*
Y8451D01*
X312147D01*
Y8503D01*
X311992D01*
Y8555D01*
X311941D01*
Y8606D01*
X311889D01*
Y8658D01*
X311735D01*
Y8555D01*
X311786D01*
Y8400D01*
X311838D01*
Y7988D01*
Y7936D01*
Y7730D01*
X311889D01*
Y7782D01*
X311941D01*
Y7833D01*
X311992D01*
Y7936D01*
X314053D01*
Y7988D01*
X314104D01*
Y7936D01*
X314207D01*
Y7988D01*
X314929D01*
Y8039D01*
X314826D01*
Y8091D01*
X314723D01*
Y8194D01*
X314671D01*
Y9070D01*
X314723D01*
Y8967D01*
X314774D01*
Y8864D01*
X314826D01*
Y8812D01*
X314877D01*
Y8709D01*
X314929D01*
Y8658D01*
X314980D01*
Y8555D01*
X315032D01*
Y8451D01*
X315083D01*
Y8348D01*
X315135D01*
Y8297D01*
X315238D01*
Y8245D01*
X315547D01*
Y8348D01*
X315599D01*
Y8400D01*
X315650D01*
Y8503D01*
X315702D01*
Y8555D01*
X315753D01*
Y8658D01*
X315805D01*
Y8709D01*
X315856D01*
Y8812D01*
X315908D01*
Y8864D01*
X315959D01*
Y8967D01*
X316011D01*
Y9018D01*
X316062D01*
Y9121D01*
X316114D01*
Y8142D01*
X316062D01*
Y8091D01*
X315959D01*
Y8039D01*
X315908D01*
Y7936D01*
X316011D01*
Y7988D01*
X316680D01*
Y7936D01*
X316835D01*
Y8091D01*
X316732D01*
Y8142D01*
X316680D01*
Y9224D01*
X316629D01*
Y9997D01*
X316680D01*
Y10100D01*
X316732D01*
Y10152D01*
X316783D01*
Y10203D01*
X316835D01*
Y10255D01*
X316886D01*
Y10306D01*
X315856D01*
Y10203D01*
X315908D01*
Y10152D01*
X315959D01*
Y10100D01*
X315908D01*
Y10049D01*
X315856D01*
Y9946D01*
X315805D01*
Y9843D01*
X315753D01*
Y9740D01*
X315702D01*
Y9688D01*
X315650D01*
Y9585D01*
X315599D01*
Y9482D01*
X315547D01*
Y9430D01*
X315495D01*
Y9327D01*
X315444D01*
Y9224D01*
X315392D01*
Y9173D01*
X315341D01*
Y9276D01*
X315289D01*
Y9379D01*
X315238D01*
Y9430D01*
X315186D01*
Y9533D01*
X315135D01*
Y9585D01*
X315083D01*
Y9688D01*
X315032D01*
Y9791D01*
X314980D01*
Y9843D01*
X314929D01*
Y9946D01*
X314877D01*
Y10049D01*
X314826D01*
Y10152D01*
X314929D01*
Y10255D01*
X314723D01*
Y10306D01*
X311992D01*
Y10409D01*
X311941D01*
Y10461D01*
D02*
G37*
G36*
X328994Y9585D02*
X327293D01*
Y9482D01*
X327448D01*
Y9430D01*
X327551D01*
Y9379D01*
X327654D01*
Y9327D01*
X327757D01*
Y9276D01*
X329045D01*
Y9379D01*
X329097D01*
Y9430D01*
X329045D01*
Y9533D01*
X328994D01*
Y9585D01*
D02*
G37*
G36*
X311528Y10306D02*
X310601D01*
Y10203D01*
X310653D01*
Y10152D01*
X310704D01*
Y10100D01*
X310653D01*
Y10049D01*
X310601D01*
Y9997D01*
X310498D01*
Y9946D01*
X310447D01*
Y9894D01*
X310395D01*
Y9843D01*
X310344D01*
Y9791D01*
X310292D01*
Y9740D01*
X310241D01*
Y9688D01*
X310189D01*
Y9636D01*
X310086D01*
Y9585D01*
X310034D01*
Y9533D01*
X309983D01*
Y9482D01*
X309931D01*
Y9430D01*
X309880D01*
Y9379D01*
X309828D01*
Y9327D01*
X309725D01*
Y9276D01*
X309674D01*
Y9224D01*
X309571D01*
Y10049D01*
X309622D01*
Y10100D01*
X309674D01*
Y10152D01*
X309777D01*
Y10255D01*
X309416D01*
Y10306D01*
X308798D01*
Y10255D01*
X308849D01*
Y10203D01*
X308901D01*
Y10152D01*
X308952D01*
Y10100D01*
X309004D01*
Y8142D01*
X308952D01*
Y8091D01*
X308901D01*
Y8039D01*
X308798D01*
Y7988D01*
X308849D01*
Y7936D01*
X309004D01*
Y7988D01*
X309828D01*
Y8091D01*
X309725D01*
Y8142D01*
X309622D01*
Y8297D01*
X309674D01*
Y8348D01*
X309725D01*
Y8400D01*
X309777D01*
Y8451D01*
X309828D01*
Y8503D01*
X309880D01*
Y8555D01*
X309931D01*
Y8606D01*
X309983D01*
Y8658D01*
X310086D01*
Y8709D01*
X310137D01*
Y8761D01*
X310189D01*
Y8812D01*
X310241D01*
Y8864D01*
X310292D01*
Y8915D01*
X310344D01*
Y8967D01*
X310447D01*
Y9018D01*
X310498D01*
Y9070D01*
X310550D01*
Y9121D01*
X310601D01*
Y9173D01*
X310704D01*
Y9224D01*
X310756D01*
Y8194D01*
X310704D01*
Y8091D01*
X310601D01*
Y8039D01*
X310550D01*
Y7936D01*
X310653D01*
Y7988D01*
X311425D01*
Y7936D01*
X311477D01*
Y7988D01*
X311528D01*
Y8039D01*
X311477D01*
Y8091D01*
X311374D01*
Y8142D01*
X311322D01*
Y10100D01*
X311374D01*
Y10152D01*
X311425D01*
Y10203D01*
X311528D01*
Y10306D01*
D02*
G37*
G36*
X295042Y9585D02*
X293548D01*
Y9533D01*
X293497D01*
Y9430D01*
X293445D01*
Y9379D01*
X293497D01*
Y9327D01*
X293548D01*
Y9276D01*
X293857D01*
Y9224D01*
X294269D01*
Y9276D01*
X294785D01*
Y9327D01*
X294888D01*
Y9379D01*
X294991D01*
Y9430D01*
X295094D01*
Y9482D01*
X295145D01*
Y9533D01*
X295042D01*
Y9585D01*
D02*
G37*
G36*
X305140Y10306D02*
X304213D01*
Y10255D01*
X304161D01*
Y10203D01*
X304213D01*
Y10152D01*
X304316D01*
Y10100D01*
X304367D01*
Y9224D01*
Y9173D01*
Y8451D01*
X303285D01*
Y8503D01*
X303079D01*
Y8555D01*
X303028D01*
Y8606D01*
X302976D01*
Y8658D01*
X302925D01*
Y8709D01*
X302822D01*
Y8503D01*
X302873D01*
Y8348D01*
X302925D01*
Y8245D01*
X302976D01*
Y7782D01*
X302925D01*
Y7730D01*
X303028D01*
Y7782D01*
X303079D01*
Y7833D01*
X303131D01*
Y7936D01*
X305140D01*
Y7988D01*
X305191D01*
Y8091D01*
X304985D01*
Y9636D01*
X304934D01*
Y9791D01*
X304985D01*
Y9894D01*
X304934D01*
Y9946D01*
X304985D01*
Y10152D01*
X305088D01*
Y10203D01*
X305140D01*
Y10306D01*
D02*
G37*
G36*
X328994Y8606D02*
X327706D01*
Y8555D01*
X327603D01*
Y8503D01*
X327551D01*
Y8348D01*
X327603D01*
Y8297D01*
X327706D01*
Y8245D01*
X328994D01*
Y8297D01*
X329045D01*
Y8348D01*
X329097D01*
Y8503D01*
X329045D01*
Y8555D01*
X328994D01*
Y8606D01*
D02*
G37*
G36*
X294836D02*
X293600D01*
Y8555D01*
X293548D01*
Y8503D01*
X293497D01*
Y8400D01*
X293548D01*
Y8348D01*
X293600D01*
Y8297D01*
X293651D01*
Y8245D01*
X294888D01*
Y8297D01*
X294939D01*
Y8348D01*
X294991D01*
Y8503D01*
X294939D01*
Y8555D01*
X294836D01*
Y8606D01*
D02*
G37*
G36*
X320647Y10409D02*
X320596D01*
Y10358D01*
X320235D01*
Y10306D01*
X320081D01*
Y10255D01*
X319978D01*
Y10203D01*
X319669D01*
Y10100D01*
X319720D01*
Y9997D01*
X319772D01*
Y9894D01*
X319823D01*
Y9740D01*
X319875D01*
Y9636D01*
X319978D01*
Y9688D01*
X320029D01*
Y9740D01*
X320132D01*
Y9791D01*
X320287D01*
Y9843D01*
X320905D01*
Y9791D01*
X321008D01*
Y9740D01*
X321059D01*
Y9585D01*
X320956D01*
Y9533D01*
X320750D01*
Y9482D01*
X320493D01*
Y9430D01*
X320287D01*
Y9379D01*
X320132D01*
Y9327D01*
X319978D01*
Y9276D01*
X319875D01*
Y9224D01*
X319823D01*
Y9173D01*
X319772D01*
Y9070D01*
X319720D01*
Y9018D01*
X319669D01*
Y8864D01*
X319617D01*
Y8555D01*
X319669D01*
Y8400D01*
X319720D01*
Y8297D01*
X319772D01*
Y8194D01*
X319823D01*
Y8142D01*
X319926D01*
Y8091D01*
X319978D01*
Y8039D01*
X320081D01*
Y7988D01*
X320235D01*
Y7936D01*
X320544D01*
Y7885D01*
X320699D01*
Y7936D01*
X321059D01*
Y7988D01*
X321266D01*
Y8039D01*
X321369D01*
Y8091D01*
X321472D01*
Y8039D01*
X321575D01*
Y7988D01*
X321678D01*
Y8091D01*
X321626D01*
Y8245D01*
X321575D01*
Y8606D01*
X321523D01*
Y8658D01*
X321472D01*
Y8606D01*
X321420D01*
Y8555D01*
X321266D01*
Y8503D01*
X321111D01*
Y8451D01*
X320905D01*
Y8400D01*
X320493D01*
Y8451D01*
X320338D01*
Y8503D01*
X320287D01*
Y8555D01*
X320235D01*
Y8709D01*
X320287D01*
Y8761D01*
X320390D01*
Y8812D01*
X320596D01*
Y8864D01*
X320853D01*
Y8915D01*
X321059D01*
Y8967D01*
X321214D01*
Y9018D01*
X321317D01*
Y9070D01*
X321420D01*
Y9121D01*
X321472D01*
Y9173D01*
X321523D01*
Y9276D01*
X321575D01*
Y9379D01*
X321626D01*
Y9843D01*
X321575D01*
Y9997D01*
X321523D01*
Y10049D01*
X321472D01*
Y10100D01*
X321420D01*
Y10152D01*
X321369D01*
Y10203D01*
X321266D01*
Y10255D01*
X321163D01*
Y10306D01*
X321008D01*
Y10358D01*
X320647D01*
Y10409D01*
D02*
G37*
G36*
X296691Y10358D02*
X295918D01*
Y10306D01*
X295763D01*
Y10255D01*
X295609D01*
Y10203D01*
X295557D01*
Y10152D01*
X295454D01*
Y10100D01*
X295403D01*
Y9997D01*
X295454D01*
Y9894D01*
X295506D01*
Y9791D01*
X295557D01*
Y9636D01*
X295660D01*
Y9688D01*
X295712D01*
Y9740D01*
X295815D01*
Y9791D01*
X295918D01*
Y9843D01*
X296279D01*
Y9894D01*
X296382D01*
Y9843D01*
X296588D01*
Y9791D01*
X296691D01*
Y9688D01*
X296742D01*
Y9585D01*
X296691D01*
Y9533D01*
X296536D01*
Y9482D01*
X296227D01*
Y9430D01*
X296021D01*
Y9379D01*
X295815D01*
Y9327D01*
X295660D01*
Y9276D01*
X295557D01*
Y9224D01*
X295506D01*
Y9173D01*
X295454D01*
Y9121D01*
X295403D01*
Y9070D01*
X295351D01*
Y8967D01*
X295300D01*
Y8503D01*
X295351D01*
Y8348D01*
X295403D01*
Y8297D01*
X295454D01*
Y8194D01*
X295506D01*
Y8142D01*
X295557D01*
Y8091D01*
X295660D01*
Y8039D01*
X295763D01*
Y7988D01*
X295918D01*
Y7936D01*
X296227D01*
Y7885D01*
X296330D01*
Y7936D01*
X296742D01*
Y7988D01*
X296948D01*
Y8039D01*
X297103D01*
Y8091D01*
X297206D01*
Y8039D01*
X297309D01*
Y7988D01*
X297361D01*
Y8039D01*
X297412D01*
Y8091D01*
X297361D01*
Y8142D01*
X297309D01*
Y8194D01*
Y8245D01*
Y8297D01*
X297257D01*
Y8503D01*
X297206D01*
Y8658D01*
X297154D01*
Y8606D01*
X297052D01*
Y8555D01*
X296948D01*
Y8503D01*
X296794D01*
Y8451D01*
X296588D01*
Y8400D01*
X296176D01*
Y8451D01*
X296021D01*
Y8503D01*
X295970D01*
Y8555D01*
X295918D01*
Y8709D01*
X295970D01*
Y8761D01*
X296073D01*
Y8812D01*
X296279D01*
Y8864D01*
X296588D01*
Y8915D01*
X296794D01*
Y8967D01*
X296897D01*
Y9018D01*
X297000D01*
Y9070D01*
X297103D01*
Y9121D01*
X297154D01*
Y9173D01*
X297206D01*
Y9276D01*
X297257D01*
Y9379D01*
X297309D01*
Y9791D01*
X297257D01*
Y9946D01*
X297206D01*
Y10049D01*
X297154D01*
Y10100D01*
X297103D01*
Y10152D01*
X297052D01*
Y10203D01*
X296948D01*
Y10255D01*
X296845D01*
Y10306D01*
X296691D01*
Y10358D01*
D02*
G37*
G36*
X327139Y10306D02*
X325284D01*
Y10255D01*
X325130D01*
Y10203D01*
X325026D01*
Y10152D01*
X324975D01*
Y10100D01*
X324923D01*
Y10049D01*
X324872D01*
Y9946D01*
X324820D01*
Y9533D01*
X324872D01*
Y9430D01*
X324923D01*
Y9379D01*
X324975D01*
Y9327D01*
X325026D01*
Y9224D01*
X324923D01*
Y9173D01*
X324820D01*
Y9121D01*
X324769D01*
Y9018D01*
X324717D01*
Y8967D01*
X324666D01*
Y8812D01*
X324614D01*
Y8555D01*
X324666D01*
Y8400D01*
X324717D01*
Y8297D01*
X324769D01*
Y8245D01*
X324820D01*
Y8142D01*
X324923D01*
Y8091D01*
X324975D01*
Y8039D01*
X325130D01*
Y7988D01*
X325387D01*
Y7936D01*
X327139D01*
Y7988D01*
X327190D01*
Y8039D01*
X327139D01*
Y8091D01*
X327036D01*
Y8142D01*
X326984D01*
Y8297D01*
X326933D01*
Y10049D01*
X326984D01*
Y10100D01*
X327036D01*
Y10152D01*
X327139D01*
Y10306D01*
D02*
G37*
G36*
X323481D02*
X322605D01*
Y10255D01*
X322502D01*
Y10203D01*
X322554D01*
Y10152D01*
X322605D01*
Y10100D01*
X322657D01*
Y9946D01*
X322605D01*
Y9791D01*
X322554D01*
Y9636D01*
X322502D01*
Y9482D01*
X322451D01*
Y9379D01*
X322399D01*
Y9224D01*
X322347D01*
Y9070D01*
X322296D01*
Y8967D01*
X322245D01*
Y8812D01*
X322193D01*
Y8709D01*
X322141D01*
Y8555D01*
X322090D01*
Y8400D01*
X322038D01*
Y8297D01*
X321987D01*
Y8194D01*
X321935D01*
Y8142D01*
X321884D01*
Y8091D01*
X321832D01*
Y8039D01*
X321729D01*
Y7988D01*
X322760D01*
Y8039D01*
X322605D01*
Y8245D01*
X322657D01*
Y8400D01*
X322708D01*
Y8451D01*
X323429D01*
Y8400D01*
X323584D01*
Y8245D01*
X323636D01*
Y8091D01*
X323533D01*
Y7936D01*
X323636D01*
Y7988D01*
X324305D01*
Y7936D01*
X324460D01*
Y8039D01*
X324408D01*
Y8091D01*
X324305D01*
Y8142D01*
X324254D01*
Y8245D01*
X324202D01*
Y8348D01*
X324151D01*
Y8503D01*
X324099D01*
Y8658D01*
X324048D01*
Y8761D01*
X323996D01*
Y8915D01*
X323945D01*
Y9070D01*
X323893D01*
Y9173D01*
X323842D01*
Y9327D01*
X323790D01*
Y9482D01*
X323739D01*
Y9636D01*
X323687D01*
Y9791D01*
X323636D01*
Y9894D01*
X323584D01*
Y10100D01*
X323687D01*
Y10152D01*
X323739D01*
Y10255D01*
X323481D01*
Y10306D01*
D02*
G37*
G36*
X301894D02*
X300864D01*
Y10255D01*
X300812D01*
Y10152D01*
X300915D01*
Y10100D01*
X300967D01*
Y9946D01*
X300915D01*
Y9843D01*
X300864D01*
Y9688D01*
X300812D01*
Y9533D01*
X300761D01*
Y9430D01*
X300709D01*
Y9276D01*
X300658D01*
Y9173D01*
X300606D01*
Y9018D01*
X300555D01*
Y8864D01*
X300503D01*
Y8709D01*
X300452D01*
Y8555D01*
X300400D01*
Y8451D01*
X300349D01*
Y8297D01*
X300297D01*
Y8194D01*
X300246D01*
Y8142D01*
X300194D01*
Y8091D01*
X300143D01*
Y8039D01*
X300091D01*
Y7988D01*
X300915D01*
Y7936D01*
X300967D01*
Y7988D01*
X301019D01*
Y8091D01*
X300915D01*
Y8194D01*
X300967D01*
Y8348D01*
X301019D01*
Y8400D01*
X301070D01*
Y8451D01*
X301740D01*
Y8400D01*
X301894D01*
Y8091D01*
X301843D01*
Y8039D01*
X301791D01*
Y7936D01*
X301997D01*
Y7988D01*
X302719D01*
Y8039D01*
X302667D01*
Y8091D01*
X302616D01*
Y8142D01*
X302564D01*
Y8194D01*
X302513D01*
Y8297D01*
X302461D01*
Y8451D01*
X302410D01*
Y8606D01*
X302358D01*
Y8761D01*
X302307D01*
Y8915D01*
X302255D01*
Y9018D01*
Y9070D01*
X302203D01*
Y9224D01*
X302152D01*
Y9327D01*
X302100D01*
Y9482D01*
X302049D01*
Y9636D01*
X301997D01*
Y9791D01*
X301946D01*
Y9894D01*
X301894D01*
Y10100D01*
X301997D01*
Y10152D01*
X302049D01*
Y10203D01*
X302100D01*
Y10255D01*
X301894D01*
Y10306D01*
D02*
G37*
G36*
X300040D02*
X298185D01*
Y10255D01*
X298030D01*
Y10203D01*
X297927D01*
Y10152D01*
X297876D01*
Y10100D01*
X297824D01*
Y10049D01*
X297773D01*
Y9997D01*
X297721D01*
Y9533D01*
X297773D01*
Y9379D01*
X297824D01*
Y9327D01*
X297927D01*
Y9224D01*
X297876D01*
Y9173D01*
X297773D01*
Y9121D01*
X297721D01*
Y9070D01*
X297670D01*
Y8967D01*
X297618D01*
Y8812D01*
X297567D01*
Y8503D01*
X297618D01*
Y8348D01*
X297670D01*
Y8245D01*
X297721D01*
Y8194D01*
X297773D01*
Y8142D01*
X297824D01*
Y8091D01*
X297927D01*
Y8039D01*
X298030D01*
Y7988D01*
X298340D01*
Y7936D01*
X299937D01*
Y7988D01*
X300040D01*
Y8091D01*
X299937D01*
Y8142D01*
X299833D01*
Y10049D01*
X299885D01*
Y10152D01*
X299988D01*
Y10203D01*
X300040D01*
Y10306D01*
D02*
G37*
G36*
X329560Y7885D02*
X329509D01*
Y7833D01*
X329560D01*
Y7885D01*
D02*
G37*
%LPD*%
G36*
X314053Y10100D02*
X314104D01*
Y9636D01*
Y9585D01*
Y8142D01*
X314053D01*
Y8091D01*
X313847D01*
Y8194D01*
X313795D01*
Y9946D01*
X313847D01*
Y10152D01*
X314053D01*
Y10100D01*
D02*
G37*
G36*
X326366Y9430D02*
X325490D01*
Y9482D01*
X325439D01*
Y9533D01*
X325387D01*
Y9585D01*
Y9740D01*
X325439D01*
Y9791D01*
X326366D01*
Y9430D01*
D02*
G37*
G36*
Y8451D02*
X325387D01*
Y8503D01*
X325284D01*
Y8555D01*
X325233D01*
Y8812D01*
X325284D01*
Y8864D01*
X325387D01*
Y8915D01*
X326366D01*
Y8451D01*
D02*
G37*
G36*
X323172Y9430D02*
X323223D01*
Y9276D01*
X323275D01*
Y9121D01*
X323326D01*
Y9018D01*
X323378D01*
Y8915D01*
X322914D01*
Y9070D01*
X322966D01*
Y9121D01*
Y9173D01*
Y9224D01*
X323017D01*
Y9379D01*
X323069D01*
Y9585D01*
X323172D01*
Y9430D01*
D02*
G37*
G36*
X301482D02*
X301534D01*
Y9276D01*
X301585D01*
Y9121D01*
X301637D01*
Y8967D01*
X301688D01*
Y8915D01*
X301585D01*
Y8864D01*
X301173D01*
Y8967D01*
X301224D01*
Y9121D01*
X301276D01*
Y9224D01*
X301328D01*
Y9379D01*
X301379D01*
Y9533D01*
X301431D01*
Y9585D01*
X301482D01*
Y9430D01*
D02*
G37*
G36*
X299267D02*
X298391D01*
Y9482D01*
X298288D01*
Y9740D01*
X298340D01*
Y9791D01*
X299267D01*
Y9430D01*
D02*
G37*
G36*
Y8451D02*
X298288D01*
Y8503D01*
X298236D01*
Y8555D01*
X298185D01*
Y8658D01*
X298133D01*
Y8709D01*
X298185D01*
Y8761D01*
Y8812D01*
X298236D01*
Y8864D01*
X298288D01*
Y8915D01*
X299267D01*
Y8451D01*
D02*
G37*
D12*
X335827Y196063D02*
Y201575D01*
X334646Y196063D02*
X335827D01*
X334646Y201575D02*
X335827D01*
Y167323D02*
Y172835D01*
X334646Y167323D02*
X335827D01*
X334646Y172835D02*
X335827D01*
X334646Y181496D02*
X335827D01*
X334646Y175984D02*
X335827D01*
Y181496D01*
D14*
X158996Y103740D02*
G03*
X158996Y103740I-394J0D01*
G01*
M02*
