G04*
G04 #@! TF.GenerationSoftware,Altium Limited,Altium Designer,21.9.2 (33)*
G04*
G04 Layer_Physical_Order=2*
G04 Layer_Color=36540*
%FSLAX25Y25*%
%MOIN*%
G70*
G04*
G04 #@! TF.SameCoordinates,1A6DD151-CB10-4FFE-AF26-4EE6108A4869*
G04*
G04*
G04 #@! TF.FilePolarity,Positive*
G04*
G01*
G75*
%ADD74C,0.05906*%
%ADD76C,0.06299*%
%ADD92C,0.04724*%
%ADD93P,0.06681X4X180.0*%
%ADD94C,0.05315*%
%ADD95C,0.09449*%
%ADD96C,0.07087*%
%ADD97C,0.05400*%
%ADD98C,0.05512*%
%ADD99C,0.08661*%
%ADD101O,0.14173X0.05512*%
%ADD102O,0.05512X0.14173*%
%ADD103C,0.02362*%
%ADD104C,0.05000*%
%ADD105C,0.02402*%
%ADD106C,0.06000*%
G36*
X222441Y139200D02*
X56911D01*
X56380Y139995D01*
X55448Y140927D01*
X54351Y141659D01*
X53133Y142164D01*
X51840Y142421D01*
X50522D01*
X49229Y142164D01*
X48011Y141659D01*
X46915Y140927D01*
X45982Y139995D01*
X45451Y139200D01*
X803D01*
X803Y262977D01*
X222441D01*
Y139200D01*
D02*
G37*
G36*
X218504Y124760D02*
X217924Y124180D01*
X217458Y123373D01*
X217216Y122471D01*
Y121538D01*
X217458Y120637D01*
X217924Y119829D01*
X218504Y119250D01*
Y103545D01*
X218502Y103543D01*
X217719D01*
X216995Y103244D01*
X216441Y102690D01*
X216142Y101966D01*
Y101183D01*
X216441Y100460D01*
X216995Y99906D01*
X217719Y99606D01*
X218502D01*
X218504Y99605D01*
Y20079D01*
X211222Y12797D01*
X210683Y13337D01*
X209506Y14123D01*
X208198Y14665D01*
X206810Y14941D01*
X205395D01*
X204007Y14665D01*
X202699Y14123D01*
X201522Y13337D01*
X200521Y12336D01*
X199735Y11159D01*
X199193Y9852D01*
X198917Y8464D01*
Y7048D01*
X199193Y5660D01*
X199735Y4352D01*
X200521Y3176D01*
X201061Y2636D01*
X199228Y803D01*
X159398Y803D01*
X159299Y1303D01*
X159506Y1389D01*
X160683Y2175D01*
X161683Y3176D01*
X162470Y4352D01*
X163011Y5660D01*
X163287Y7048D01*
Y8464D01*
X163011Y9852D01*
X162470Y11159D01*
X161683Y12336D01*
X160683Y13337D01*
X159506Y14123D01*
X158198Y14665D01*
X156810Y14941D01*
X155395D01*
X154007Y14665D01*
X152699Y14123D01*
X151522Y13337D01*
X150521Y12336D01*
X149735Y11159D01*
X149193Y9852D01*
X148917Y8464D01*
Y7048D01*
X149193Y5660D01*
X149735Y4352D01*
X150521Y3176D01*
X151522Y2175D01*
X152699Y1389D01*
X152906Y1303D01*
X152807Y803D01*
X64961Y803D01*
Y32257D01*
X65394Y32507D01*
X65446Y32477D01*
X66683Y32146D01*
X67963D01*
X69200Y32477D01*
X70308Y33117D01*
X71214Y34022D01*
X71854Y35131D01*
X72185Y36368D01*
Y37648D01*
X71854Y38885D01*
X71214Y39993D01*
X70308Y40899D01*
X69200Y41539D01*
X67963Y41870D01*
X66683D01*
X65446Y41539D01*
X65394Y41508D01*
X64961Y41758D01*
Y126037D01*
X65461Y126244D01*
X65814Y125890D01*
X66538Y125591D01*
X67321D01*
X68044Y125890D01*
X68598Y126444D01*
X68898Y127167D01*
Y127951D01*
X68598Y128674D01*
X68044Y129228D01*
X67321Y129528D01*
X66538D01*
X65814Y129228D01*
X65461Y128875D01*
X64961Y129082D01*
Y136614D01*
X218504D01*
Y124760D01*
D02*
G37*
G36*
X361402Y803D02*
X236221Y803D01*
Y262977D01*
X361402D01*
X361402Y803D01*
D02*
G37*
%LPC*%
G36*
X51840Y260728D02*
X50522D01*
X49229Y260471D01*
X48011Y259967D01*
X46915Y259234D01*
X45982Y258302D01*
X45250Y257206D01*
X44745Y255988D01*
X44488Y254695D01*
Y253376D01*
X44745Y252083D01*
X45250Y250865D01*
X45982Y249769D01*
X46915Y248837D01*
X48011Y248104D01*
X49229Y247600D01*
X50522Y247342D01*
X51840D01*
X53133Y247600D01*
X54351Y248104D01*
X55448Y248837D01*
X56380Y249769D01*
X57112Y250865D01*
X57617Y252083D01*
X57874Y253376D01*
Y254695D01*
X57617Y255988D01*
X57112Y257206D01*
X56380Y258302D01*
X55448Y259234D01*
X54351Y259967D01*
X53133Y260471D01*
X51840Y260728D01*
D02*
G37*
G36*
X24518Y257126D02*
X22726D01*
X20969Y256776D01*
X19314Y256091D01*
X17825Y255096D01*
X16558Y253829D01*
X15563Y252339D01*
X14877Y250684D01*
X14528Y248927D01*
Y247136D01*
X14877Y245379D01*
X15563Y243724D01*
X16558Y242234D01*
X17825Y240967D01*
X19314Y239972D01*
X20969Y239286D01*
X22726Y238937D01*
X24518D01*
X26275Y239286D01*
X27930Y239972D01*
X29419Y240967D01*
X30686Y242234D01*
X31681Y243724D01*
X32367Y245379D01*
X32717Y247136D01*
Y248927D01*
X32367Y250684D01*
X31681Y252339D01*
X30686Y253829D01*
X29419Y255096D01*
X27930Y256091D01*
X26275Y256776D01*
X24518Y257126D01*
D02*
G37*
G36*
X49704Y239350D02*
X48564D01*
X47462Y239055D01*
X46475Y238485D01*
X45668Y237679D01*
X45098Y236691D01*
X44803Y235590D01*
Y234450D01*
X45098Y233348D01*
X45668Y232361D01*
X46475Y231554D01*
X47462Y230984D01*
X48019Y230835D01*
Y229205D01*
X47462Y229055D01*
X46475Y228485D01*
X45668Y227679D01*
X45098Y226691D01*
X44803Y225590D01*
Y224450D01*
X45098Y223348D01*
X45668Y222361D01*
X46475Y221554D01*
X47462Y220984D01*
X48019Y220835D01*
Y219204D01*
X47462Y219055D01*
X46475Y218485D01*
X45668Y217679D01*
X45098Y216691D01*
X44803Y215590D01*
Y214450D01*
X45098Y213348D01*
X45668Y212361D01*
X46475Y211554D01*
X47462Y210984D01*
X48019Y210835D01*
Y209205D01*
X47462Y209055D01*
X46475Y208485D01*
X45668Y207679D01*
X45098Y206691D01*
X44803Y205590D01*
Y204450D01*
X45098Y203348D01*
X45668Y202361D01*
X46475Y201554D01*
X47462Y200984D01*
X48019Y200835D01*
Y199205D01*
X47462Y199055D01*
X46475Y198485D01*
X45668Y197679D01*
X45098Y196691D01*
X44803Y195590D01*
Y194450D01*
X45098Y193348D01*
X45668Y192361D01*
X46475Y191554D01*
X47462Y190984D01*
X48019Y190835D01*
Y189205D01*
X47462Y189055D01*
X46475Y188485D01*
X45668Y187679D01*
X45098Y186691D01*
X44803Y185590D01*
Y184450D01*
X45098Y183348D01*
X45668Y182361D01*
X46475Y181554D01*
X46851Y181337D01*
X46966Y180759D01*
X46831Y179600D01*
X45991Y179115D01*
X45038Y178162D01*
X44365Y176995D01*
X44016Y175694D01*
Y174346D01*
X44365Y173044D01*
X45038Y171877D01*
X45991Y170924D01*
Y169115D01*
X45038Y168162D01*
X44365Y166995D01*
X44016Y165693D01*
Y164346D01*
X44365Y163044D01*
X45038Y161877D01*
X45991Y160924D01*
X47158Y160250D01*
X48460Y159902D01*
X49808D01*
X51109Y160250D01*
X52276Y160924D01*
X53229Y161877D01*
X53903Y163044D01*
X54252Y164346D01*
Y165693D01*
X53903Y166995D01*
X53229Y168162D01*
X52276Y169115D01*
Y170924D01*
X53229Y171877D01*
X53903Y173044D01*
X54252Y174346D01*
Y175694D01*
X53903Y176995D01*
X53229Y178162D01*
X52276Y179115D01*
X51437Y179600D01*
X51302Y180759D01*
X51417Y181337D01*
X51793Y181554D01*
X52599Y182361D01*
X53169Y183348D01*
X53465Y184450D01*
Y185590D01*
X53169Y186691D01*
X52599Y187679D01*
X51793Y188485D01*
X50805Y189055D01*
X50248Y189205D01*
Y190835D01*
X50805Y190984D01*
X51793Y191554D01*
X52599Y192361D01*
X53169Y193348D01*
X53465Y194450D01*
Y195590D01*
X53169Y196691D01*
X52599Y197679D01*
X51793Y198485D01*
X50805Y199055D01*
X50248Y199205D01*
Y200835D01*
X50805Y200984D01*
X51793Y201554D01*
X52599Y202361D01*
X53169Y203348D01*
X53465Y204450D01*
Y205590D01*
X53169Y206691D01*
X52599Y207679D01*
X51793Y208485D01*
X50805Y209055D01*
X50248Y209205D01*
Y210835D01*
X50805Y210984D01*
X51793Y211554D01*
X52599Y212361D01*
X53169Y213348D01*
X53465Y214450D01*
Y215590D01*
X53169Y216691D01*
X52599Y217679D01*
X51793Y218485D01*
X50805Y219055D01*
X50248Y219204D01*
Y220835D01*
X50805Y220984D01*
X51793Y221554D01*
X52599Y222361D01*
X53169Y223348D01*
X53465Y224450D01*
Y225590D01*
X53169Y226691D01*
X52599Y227679D01*
X51793Y228485D01*
X50805Y229055D01*
X50248Y229205D01*
Y230835D01*
X50805Y230984D01*
X51793Y231554D01*
X52599Y232361D01*
X53169Y233348D01*
X53465Y234450D01*
Y235590D01*
X53169Y236691D01*
X52599Y237679D01*
X51793Y238485D01*
X50805Y239055D01*
X49704Y239350D01*
D02*
G37*
G36*
X77557Y129528D02*
X76774D01*
X76050Y129228D01*
X75497Y128674D01*
X75197Y127951D01*
Y127167D01*
X75497Y126444D01*
X76050Y125890D01*
X76774Y125591D01*
X77557D01*
X78280Y125890D01*
X78834Y126444D01*
X79134Y127167D01*
Y127951D01*
X78834Y128674D01*
X78280Y129228D01*
X77557Y129528D01*
D02*
G37*
G36*
X72439D02*
X71656D01*
X70932Y129228D01*
X70378Y128674D01*
X70079Y127951D01*
Y127167D01*
X70378Y126444D01*
X70932Y125890D01*
X71656Y125591D01*
X72439D01*
X73162Y125890D01*
X73716Y126444D01*
X74016Y127167D01*
Y127951D01*
X73716Y128674D01*
X73162Y129228D01*
X72439Y129528D01*
D02*
G37*
G36*
X199068Y117283D02*
X198136D01*
X197234Y117042D01*
X196426Y116576D01*
X195767Y115916D01*
X195300Y115108D01*
X195059Y114207D01*
Y113274D01*
X195300Y112373D01*
X195767Y111565D01*
X196426Y110905D01*
X197234Y110438D01*
X198136Y110197D01*
X199068D01*
X199970Y110438D01*
X200778Y110905D01*
X201437Y111565D01*
X201904Y112373D01*
X202145Y113274D01*
Y114207D01*
X201904Y115108D01*
X201437Y115916D01*
X200778Y116576D01*
X199970Y117042D01*
X199068Y117283D01*
D02*
G37*
G36*
X189068D02*
X188136D01*
X187234Y117042D01*
X186426Y116576D01*
X185767Y115916D01*
X185300Y115108D01*
X185059Y114207D01*
Y113274D01*
X185300Y112373D01*
X185767Y111565D01*
X186426Y110905D01*
X187234Y110438D01*
X188136Y110197D01*
X189068D01*
X189970Y110438D01*
X190778Y110905D01*
X191437Y111565D01*
X191904Y112373D01*
X192145Y113274D01*
Y114207D01*
X191904Y115108D01*
X191437Y115916D01*
X190778Y116576D01*
X189970Y117042D01*
X189068Y117283D01*
D02*
G37*
G36*
X179069D02*
X178136D01*
X177235Y117042D01*
X176427Y116576D01*
X175767Y115916D01*
X175301Y115108D01*
X175059Y114207D01*
Y113274D01*
X175301Y112373D01*
X175767Y111565D01*
X176427Y110905D01*
X177235Y110438D01*
X178136Y110197D01*
X179069D01*
X179970Y110438D01*
X180778Y110905D01*
X181438Y111565D01*
X181904Y112373D01*
X182146Y113274D01*
Y114207D01*
X181904Y115108D01*
X181438Y115916D01*
X180778Y116576D01*
X179970Y117042D01*
X179069Y117283D01*
D02*
G37*
G36*
X169069D02*
X168136D01*
X167234Y117042D01*
X166426Y116576D01*
X165767Y115916D01*
X165300Y115108D01*
X165059Y114207D01*
Y113274D01*
X165300Y112373D01*
X165767Y111565D01*
X166426Y110905D01*
X167234Y110438D01*
X168136Y110197D01*
X169069D01*
X169970Y110438D01*
X170778Y110905D01*
X171437Y111565D01*
X171904Y112373D01*
X172145Y113274D01*
Y114207D01*
X171904Y115108D01*
X171437Y115916D01*
X170778Y116576D01*
X169970Y117042D01*
X169069Y117283D01*
D02*
G37*
G36*
X194069Y107283D02*
X193136D01*
X192234Y107042D01*
X191426Y106576D01*
X190767Y105916D01*
X190300Y105108D01*
X190059Y104207D01*
Y103274D01*
X190300Y102373D01*
X190767Y101565D01*
X191426Y100905D01*
X192234Y100438D01*
X193136Y100197D01*
X194069D01*
X194970Y100438D01*
X195778Y100905D01*
X196437Y101565D01*
X196904Y102373D01*
X197145Y103274D01*
Y104207D01*
X196904Y105108D01*
X196437Y105916D01*
X195778Y106576D01*
X194970Y107042D01*
X194069Y107283D01*
D02*
G37*
G36*
X184069D02*
X183136D01*
X182234Y107042D01*
X181426Y106576D01*
X180767Y105916D01*
X180300Y105108D01*
X180059Y104207D01*
Y103274D01*
X180300Y102373D01*
X180767Y101565D01*
X181426Y100905D01*
X182234Y100438D01*
X183136Y100197D01*
X184069D01*
X184970Y100438D01*
X185778Y100905D01*
X186437Y101565D01*
X186904Y102373D01*
X187145Y103274D01*
Y104207D01*
X186904Y105108D01*
X186437Y105916D01*
X185778Y106576D01*
X184970Y107042D01*
X184069Y107283D01*
D02*
G37*
G36*
X174068D02*
X173136D01*
X172234Y107042D01*
X171426Y106576D01*
X170767Y105916D01*
X170300Y105108D01*
X170059Y104207D01*
Y103274D01*
X170300Y102373D01*
X170767Y101565D01*
X171426Y100905D01*
X172234Y100438D01*
X173136Y100197D01*
X174068D01*
X174970Y100438D01*
X175778Y100905D01*
X176437Y101565D01*
X176904Y102373D01*
X177145Y103274D01*
Y104207D01*
X176904Y105108D01*
X176437Y105916D01*
X175778Y106576D01*
X174970Y107042D01*
X174068Y107283D01*
D02*
G37*
G36*
X164068D02*
X163136D01*
X162234Y107042D01*
X161426Y106576D01*
X160767Y105916D01*
X160300Y105108D01*
X160059Y104207D01*
Y103274D01*
X160300Y102373D01*
X160767Y101565D01*
X161426Y100905D01*
X162234Y100438D01*
X163136Y100197D01*
X164068D01*
X164970Y100438D01*
X165778Y100905D01*
X166437Y101565D01*
X166904Y102373D01*
X167145Y103274D01*
Y104207D01*
X166904Y105108D01*
X166437Y105916D01*
X165778Y106576D01*
X164970Y107042D01*
X164068Y107283D01*
D02*
G37*
G36*
X204310Y85925D02*
X202895D01*
X201507Y85649D01*
X200199Y85107D01*
X199022Y84321D01*
X198021Y83320D01*
X197235Y82143D01*
X196693Y80836D01*
X196417Y79448D01*
Y78032D01*
X196693Y76644D01*
X197235Y75337D01*
X198021Y74160D01*
X199022Y73159D01*
X200199Y72373D01*
X201507Y71831D01*
X202895Y71555D01*
X204310D01*
X205698Y71831D01*
X207006Y72373D01*
X208183Y73159D01*
X209183Y74160D01*
X209970Y75337D01*
X210511Y76644D01*
X210787Y78032D01*
Y79448D01*
X210511Y80836D01*
X209970Y82143D01*
X209183Y83320D01*
X208183Y84321D01*
X207006Y85107D01*
X205698Y85649D01*
X204310Y85925D01*
D02*
G37*
G36*
X159310D02*
X157895D01*
X156507Y85649D01*
X155199Y85107D01*
X154022Y84321D01*
X153021Y83320D01*
X152235Y82143D01*
X151693Y80836D01*
X151417Y79448D01*
Y78032D01*
X151693Y76644D01*
X152235Y75337D01*
X153021Y74160D01*
X154022Y73159D01*
X155199Y72373D01*
X156507Y71831D01*
X157895Y71555D01*
X159310D01*
X160698Y71831D01*
X162006Y72373D01*
X163183Y73159D01*
X164183Y74160D01*
X164970Y75337D01*
X165511Y76644D01*
X165787Y78032D01*
Y79448D01*
X165511Y80836D01*
X164970Y82143D01*
X164183Y83320D01*
X163183Y84321D01*
X162006Y85107D01*
X160698Y85649D01*
X159310Y85925D01*
D02*
G37*
G36*
X206496Y66339D02*
X205511D01*
X204560Y66084D01*
X203707Y65591D01*
X203011Y64895D01*
X202519Y64042D01*
X202264Y63091D01*
Y62106D01*
X202519Y61155D01*
X203011Y60302D01*
X203707Y59606D01*
X204560Y59113D01*
X205511Y58858D01*
X206496D01*
X207448Y59113D01*
X208300Y59606D01*
X208997Y60302D01*
X209489Y61155D01*
X209744Y62106D01*
Y63091D01*
X209489Y64042D01*
X208997Y64895D01*
X208300Y65591D01*
X207448Y66084D01*
X206496Y66339D01*
D02*
G37*
G36*
X196457D02*
X195472D01*
X194521Y66084D01*
X193668Y65591D01*
X192972Y64895D01*
X192479Y64042D01*
X192224Y63091D01*
Y62106D01*
X192479Y61155D01*
X192972Y60302D01*
X193668Y59606D01*
X194521Y59113D01*
X195472Y58858D01*
X196457D01*
X197408Y59113D01*
X198261Y59606D01*
X198957Y60302D01*
X199450Y61155D01*
X199705Y62106D01*
Y63091D01*
X199450Y64042D01*
X198957Y64895D01*
X198261Y65591D01*
X197408Y66084D01*
X196457Y66339D01*
D02*
G37*
G36*
X166733D02*
X165748D01*
X164796Y66084D01*
X163944Y65591D01*
X163247Y64895D01*
X162755Y64042D01*
X162500Y63091D01*
Y62106D01*
X162755Y61155D01*
X163247Y60302D01*
X163944Y59606D01*
X164796Y59113D01*
X165748Y58858D01*
X166733D01*
X167684Y59113D01*
X168537Y59606D01*
X169233Y60302D01*
X169725Y61155D01*
X169980Y62106D01*
Y63091D01*
X169725Y64042D01*
X169233Y64895D01*
X168537Y65591D01*
X167684Y66084D01*
X166733Y66339D01*
D02*
G37*
G36*
X156693D02*
X155708D01*
X154757Y66084D01*
X153904Y65591D01*
X153208Y64895D01*
X152716Y64042D01*
X152461Y63091D01*
Y62106D01*
X152716Y61155D01*
X153208Y60302D01*
X153904Y59606D01*
X154757Y59113D01*
X155708Y58858D01*
X156693D01*
X157644Y59113D01*
X158497Y59606D01*
X159194Y60302D01*
X159686Y61155D01*
X159941Y62106D01*
Y63091D01*
X159686Y64042D01*
X159194Y64895D01*
X158497Y65591D01*
X157644Y66084D01*
X156693Y66339D01*
D02*
G37*
G36*
X144095Y101885D02*
X74016D01*
X73708Y101824D01*
X73448Y101650D01*
X73274Y101390D01*
X73213Y101083D01*
Y42224D01*
X73274Y41917D01*
X73448Y41657D01*
X73708Y41483D01*
X74016Y41422D01*
X144095D01*
X144402Y41483D01*
X144662Y41657D01*
X144836Y41917D01*
X144897Y42224D01*
Y101083D01*
X144836Y101390D01*
X144662Y101650D01*
X144402Y101824D01*
X144095Y101885D01*
D02*
G37*
G36*
X199548Y47146D02*
X198641D01*
X197765Y46911D01*
X196979Y46457D01*
X196338Y45816D01*
X195884Y45031D01*
X195650Y44154D01*
Y43247D01*
X195884Y42371D01*
X196338Y41586D01*
X196979Y40944D01*
X197765Y40491D01*
X198641Y40256D01*
X199548D01*
X200424Y40491D01*
X201210Y40944D01*
X201851Y41586D01*
X202305Y42371D01*
X202539Y43247D01*
Y44154D01*
X202305Y45031D01*
X201851Y45816D01*
X201210Y46457D01*
X200424Y46911D01*
X199548Y47146D01*
D02*
G37*
G36*
X154548D02*
X153641D01*
X152765Y46911D01*
X151979Y46457D01*
X151338Y45816D01*
X150884Y45031D01*
X150650Y44154D01*
Y43247D01*
X150884Y42371D01*
X151338Y41586D01*
X151979Y40944D01*
X152765Y40491D01*
X153641Y40256D01*
X154548D01*
X155424Y40491D01*
X156210Y40944D01*
X156851Y41586D01*
X157305Y42371D01*
X157539Y43247D01*
Y44154D01*
X157305Y45031D01*
X156851Y45816D01*
X156210Y46457D01*
X155424Y46911D01*
X154548Y47146D01*
D02*
G37*
G36*
X208667Y47933D02*
X207553D01*
X206477Y47645D01*
X205512Y47087D01*
X204724Y46299D01*
X204166Y45334D01*
X203878Y44258D01*
Y43144D01*
X204166Y42067D01*
X204724Y41102D01*
X205512Y40314D01*
X206477Y39757D01*
X207553Y39469D01*
X208667D01*
X209744Y39757D01*
X210709Y40314D01*
X211497Y41102D01*
X212054Y42067D01*
X212343Y43144D01*
Y44258D01*
X212054Y45334D01*
X211497Y46299D01*
X210709Y47087D01*
X209744Y47645D01*
X208667Y47933D01*
D02*
G37*
G36*
X163667D02*
X162553D01*
X161477Y47645D01*
X160512Y47087D01*
X159724Y46299D01*
X159166Y45334D01*
X158878Y44258D01*
Y43144D01*
X159166Y42067D01*
X159724Y41102D01*
X160512Y40314D01*
X161477Y39757D01*
X162553Y39469D01*
X163667D01*
X164744Y39757D01*
X165709Y40314D01*
X166497Y41102D01*
X167054Y42067D01*
X167342Y43144D01*
Y44258D01*
X167054Y45334D01*
X166497Y46299D01*
X165709Y47087D01*
X164744Y47645D01*
X163667Y47933D01*
D02*
G37*
G36*
X116292Y39169D02*
X115508D01*
X114785Y38869D01*
X114231Y38315D01*
X114111Y38026D01*
X114024Y37984D01*
X113537Y37947D01*
X113115Y38369D01*
X112392Y38669D01*
X111608D01*
X110885Y38369D01*
X110331Y37815D01*
X110031Y37092D01*
Y36308D01*
X110331Y35585D01*
X110885Y35031D01*
X111608Y34732D01*
X112392D01*
X113115Y35031D01*
X113669Y35585D01*
X113789Y35874D01*
X113876Y35916D01*
X114363Y35953D01*
X114785Y35531D01*
X115508Y35232D01*
X116292D01*
X117015Y35531D01*
X117569Y36085D01*
X117868Y36808D01*
Y37592D01*
X117569Y38315D01*
X117015Y38869D01*
X116292Y39169D01*
D02*
G37*
G36*
X85854Y37069D02*
X85071D01*
X84347Y36769D01*
X84031Y36453D01*
X83715Y36769D01*
X82992Y37069D01*
X82208D01*
X81485Y36769D01*
X80931Y36215D01*
X80632Y35492D01*
Y34708D01*
X80931Y33985D01*
X81485Y33431D01*
X82208Y33132D01*
X82992D01*
X83715Y33431D01*
X84031Y33747D01*
X84347Y33431D01*
X85071Y33132D01*
X85854D01*
X86577Y33431D01*
X87131Y33985D01*
X87431Y34708D01*
Y35492D01*
X87131Y36215D01*
X86577Y36769D01*
X85854Y37069D01*
D02*
G37*
G36*
X191595Y28209D02*
X190688D01*
X189812Y27974D01*
X189026Y27520D01*
X188385Y26879D01*
X187932Y26094D01*
X187697Y25217D01*
Y24310D01*
X187932Y23434D01*
X188385Y22649D01*
X189026Y22007D01*
X189812Y21554D01*
X190688Y21319D01*
X191595D01*
X192471Y21554D01*
X193257Y22007D01*
X193898Y22649D01*
X194352Y23434D01*
X194587Y24310D01*
Y25217D01*
X194352Y26094D01*
X193898Y26879D01*
X193257Y27520D01*
X192471Y27974D01*
X191595Y28209D01*
D02*
G37*
G36*
X183564D02*
X182657D01*
X181781Y27974D01*
X180995Y27520D01*
X180354Y26879D01*
X179900Y26094D01*
X179665Y25217D01*
Y24310D01*
X179900Y23434D01*
X180354Y22649D01*
X180995Y22007D01*
X181781Y21554D01*
X182657Y21319D01*
X183564D01*
X184440Y21554D01*
X185225Y22007D01*
X185867Y22649D01*
X186320Y23434D01*
X186555Y24310D01*
Y25217D01*
X186320Y26094D01*
X185867Y26879D01*
X185225Y27520D01*
X184440Y27974D01*
X183564Y28209D01*
D02*
G37*
G36*
X175532D02*
X174625D01*
X173749Y27974D01*
X172964Y27520D01*
X172322Y26879D01*
X171869Y26094D01*
X171634Y25217D01*
Y24310D01*
X171869Y23434D01*
X172322Y22649D01*
X172964Y22007D01*
X173749Y21554D01*
X174625Y21319D01*
X175532D01*
X176408Y21554D01*
X177194Y22007D01*
X177835Y22649D01*
X178289Y23434D01*
X178524Y24310D01*
Y25217D01*
X178289Y26094D01*
X177835Y26879D01*
X177194Y27520D01*
X176408Y27974D01*
X175532Y28209D01*
D02*
G37*
G36*
X167501D02*
X166594D01*
X165718Y27974D01*
X164932Y27520D01*
X164291Y26879D01*
X163837Y26094D01*
X163602Y25217D01*
Y24310D01*
X163837Y23434D01*
X164291Y22649D01*
X164932Y22007D01*
X165718Y21554D01*
X166594Y21319D01*
X167501D01*
X168377Y21554D01*
X169162Y22007D01*
X169804Y22649D01*
X170257Y23434D01*
X170492Y24310D01*
Y25217D01*
X170257Y26094D01*
X169804Y26879D01*
X169162Y27520D01*
X168377Y27974D01*
X167501Y28209D01*
D02*
G37*
G36*
X195611Y21201D02*
X194704D01*
X193828Y20966D01*
X193042Y20513D01*
X192401Y19871D01*
X191947Y19086D01*
X191713Y18210D01*
Y17302D01*
X191947Y16426D01*
X192401Y15641D01*
X193042Y14999D01*
X193828Y14546D01*
X194704Y14311D01*
X195611D01*
X196487Y14546D01*
X197273Y14999D01*
X197914Y15641D01*
X198368Y16426D01*
X198602Y17302D01*
Y18210D01*
X198368Y19086D01*
X197914Y19871D01*
X197273Y20513D01*
X196487Y20966D01*
X195611Y21201D01*
D02*
G37*
G36*
X187580D02*
X186672D01*
X185796Y20966D01*
X185011Y20513D01*
X184369Y19871D01*
X183916Y19086D01*
X183681Y18210D01*
Y17302D01*
X183916Y16426D01*
X184369Y15641D01*
X185011Y14999D01*
X185796Y14546D01*
X186672Y14311D01*
X187580D01*
X188456Y14546D01*
X189241Y14999D01*
X189883Y15641D01*
X190336Y16426D01*
X190571Y17302D01*
Y18210D01*
X190336Y19086D01*
X189883Y19871D01*
X189241Y20513D01*
X188456Y20966D01*
X187580Y21201D01*
D02*
G37*
G36*
X179548D02*
X178641D01*
X177765Y20966D01*
X176979Y20513D01*
X176338Y19871D01*
X175884Y19086D01*
X175650Y18210D01*
Y17302D01*
X175884Y16426D01*
X176338Y15641D01*
X176979Y14999D01*
X177765Y14546D01*
X178641Y14311D01*
X179548D01*
X180424Y14546D01*
X181210Y14999D01*
X181851Y15641D01*
X182305Y16426D01*
X182539Y17302D01*
Y18210D01*
X182305Y19086D01*
X181851Y19871D01*
X181210Y20513D01*
X180424Y20966D01*
X179548Y21201D01*
D02*
G37*
G36*
X171517D02*
X170609D01*
X169733Y20966D01*
X168948Y20513D01*
X168306Y19871D01*
X167853Y19086D01*
X167618Y18210D01*
Y17302D01*
X167853Y16426D01*
X168306Y15641D01*
X168948Y14999D01*
X169733Y14546D01*
X170609Y14311D01*
X171517D01*
X172393Y14546D01*
X173178Y14999D01*
X173820Y15641D01*
X174273Y16426D01*
X174508Y17302D01*
Y18210D01*
X174273Y19086D01*
X173820Y19871D01*
X173178Y20513D01*
X172393Y20966D01*
X171517Y21201D01*
D02*
G37*
G36*
X307746Y260728D02*
X306427D01*
X305134Y260471D01*
X303916Y259967D01*
X302820Y259234D01*
X301888Y258302D01*
X301155Y257206D01*
X300651Y255988D01*
X300394Y254695D01*
Y253376D01*
X300651Y252083D01*
X301155Y250865D01*
X301888Y249769D01*
X302820Y248837D01*
X303916Y248104D01*
X305134Y247600D01*
X306427Y247342D01*
X307746D01*
X309039Y247600D01*
X310257Y248104D01*
X311353Y248837D01*
X312285Y249769D01*
X313018Y250865D01*
X313522Y252083D01*
X313779Y253376D01*
Y254695D01*
X313522Y255988D01*
X313018Y257206D01*
X312285Y258302D01*
X311353Y259234D01*
X310257Y259967D01*
X309039Y260471D01*
X307746Y260728D01*
D02*
G37*
G36*
X339478Y257126D02*
X337687D01*
X335930Y256776D01*
X334275Y256091D01*
X332785Y255096D01*
X331519Y253829D01*
X330523Y252339D01*
X329838Y250684D01*
X329488Y248927D01*
Y247136D01*
X329838Y245379D01*
X330523Y243724D01*
X331519Y242234D01*
X332785Y240967D01*
X334275Y239972D01*
X335930Y239286D01*
X337687Y238937D01*
X339478D01*
X341235Y239286D01*
X342891Y239972D01*
X344380Y240967D01*
X345647Y242234D01*
X346642Y243724D01*
X347328Y245379D01*
X347677Y247136D01*
Y248927D01*
X347328Y250684D01*
X346642Y252339D01*
X345647Y253829D01*
X344380Y255096D01*
X342891Y256091D01*
X341235Y256776D01*
X339478Y257126D01*
D02*
G37*
G36*
X309704Y239350D02*
X308564D01*
X307462Y239055D01*
X306475Y238485D01*
X305668Y237679D01*
X305098Y236691D01*
X304803Y235590D01*
Y234450D01*
X305098Y233348D01*
X305668Y232361D01*
X306475Y231554D01*
X307462Y230984D01*
X308564Y230689D01*
X309704D01*
X310806Y230984D01*
X311793Y231554D01*
X312599Y232361D01*
X313169Y233348D01*
X313465Y234450D01*
Y235590D01*
X313169Y236691D01*
X312599Y237679D01*
X311793Y238485D01*
X310806Y239055D01*
X309704Y239350D01*
D02*
G37*
G36*
X340617Y208212D02*
X339698D01*
X338811Y207974D01*
X338016Y207515D01*
X337367Y206866D01*
X336908Y206070D01*
X336670Y205184D01*
Y204265D01*
X336908Y203378D01*
X337367Y202583D01*
X338016Y201934D01*
X338811Y201475D01*
X339698Y201237D01*
X340617D01*
X341504Y201475D01*
X342299Y201934D01*
X342948Y202583D01*
X343407Y203378D01*
X343645Y204265D01*
Y205184D01*
X343407Y206070D01*
X342948Y206866D01*
X342299Y207515D01*
X341504Y207974D01*
X340617Y208212D01*
D02*
G37*
G36*
X309704Y209350D02*
X308564D01*
X307462Y209055D01*
X306475Y208485D01*
X305668Y207679D01*
X305098Y206691D01*
X304803Y205590D01*
Y204450D01*
X305098Y203348D01*
X305668Y202361D01*
X306475Y201554D01*
X307462Y200984D01*
X308564Y200689D01*
X309704D01*
X310806Y200984D01*
X311793Y201554D01*
X312599Y202361D01*
X313169Y203348D01*
X313465Y204450D01*
Y205590D01*
X313169Y206691D01*
X312599Y207679D01*
X311793Y208485D01*
X310806Y209055D01*
X309704Y209350D01*
D02*
G37*
G36*
Y199350D02*
X308564D01*
X307462Y199055D01*
X306475Y198485D01*
X305668Y197679D01*
X305098Y196691D01*
X304803Y195590D01*
Y194450D01*
X305098Y193348D01*
X305668Y192361D01*
X306475Y191554D01*
X307462Y190984D01*
X308564Y190689D01*
X309704D01*
X310806Y190984D01*
X311793Y191554D01*
X312599Y192361D01*
X313169Y193348D01*
X313465Y194450D01*
Y195590D01*
X313169Y196691D01*
X312599Y197679D01*
X311793Y198485D01*
X310806Y199055D01*
X309704Y199350D01*
D02*
G37*
G36*
X343346Y187539D02*
X342481D01*
X341645Y187315D01*
X340895Y186882D01*
X340451Y186438D01*
X339961Y186337D01*
X339471Y186438D01*
X339026Y186882D01*
X338277Y187315D01*
X337441Y187539D01*
X336575D01*
X335739Y187315D01*
X334989Y186882D01*
X334377Y186270D01*
X333945Y185521D01*
X333720Y184685D01*
Y183819D01*
X333945Y182983D01*
X334377Y182234D01*
X334989Y181621D01*
X335739Y181189D01*
X336575Y180965D01*
X337441D01*
X338277Y181189D01*
X339026Y181621D01*
X339471Y182066D01*
X339961Y182167D01*
X340451Y182066D01*
X340895Y181621D01*
X341645Y181189D01*
X342481Y180965D01*
X343346D01*
X344182Y181189D01*
X344932Y181621D01*
X345544Y182234D01*
X345977Y182983D01*
X346201Y183819D01*
Y184685D01*
X345977Y185521D01*
X345544Y186270D01*
X344932Y186882D01*
X344182Y187315D01*
X343346Y187539D01*
D02*
G37*
G36*
X309704Y189350D02*
X308564D01*
X307462Y189055D01*
X306475Y188485D01*
X305668Y187679D01*
X305098Y186691D01*
X304803Y185590D01*
Y184450D01*
X305098Y183348D01*
X305668Y182361D01*
X306475Y181554D01*
X307462Y180984D01*
X308564Y180689D01*
X309704D01*
X310806Y180984D01*
X311793Y181554D01*
X312599Y182361D01*
X313169Y183348D01*
X313465Y184450D01*
Y185590D01*
X313169Y186691D01*
X312599Y187679D01*
X311793Y188485D01*
X310806Y189055D01*
X309704Y189350D01*
D02*
G37*
G36*
Y179350D02*
X308564D01*
X307462Y179055D01*
X306475Y178485D01*
X305668Y177679D01*
X305098Y176691D01*
X304803Y175590D01*
Y174450D01*
X305098Y173348D01*
X305668Y172361D01*
X306475Y171554D01*
X307462Y170984D01*
X308564Y170689D01*
X309704D01*
X310806Y170984D01*
X311793Y171554D01*
X312599Y172361D01*
X313169Y173348D01*
X313465Y174450D01*
Y175590D01*
X313169Y176691D01*
X312599Y177679D01*
X311793Y178485D01*
X310806Y179055D01*
X309704Y179350D01*
D02*
G37*
G36*
X340617Y177109D02*
X339698D01*
X338811Y176872D01*
X338016Y176413D01*
X337367Y175763D01*
X336908Y174968D01*
X336670Y174081D01*
Y173163D01*
X336908Y172276D01*
X337367Y171481D01*
X338016Y170831D01*
X338811Y170372D01*
X339698Y170135D01*
X340617D01*
X341504Y170372D01*
X342299Y170831D01*
X342948Y171481D01*
X343407Y172276D01*
X343645Y173163D01*
Y174081D01*
X343407Y174968D01*
X342948Y175763D01*
X342299Y176413D01*
X341504Y176872D01*
X340617Y177109D01*
D02*
G37*
G36*
X309704Y169350D02*
X308564D01*
X307462Y169055D01*
X306475Y168485D01*
X305668Y167679D01*
X305098Y166691D01*
X304803Y165590D01*
Y164450D01*
X305098Y163348D01*
X305668Y162361D01*
X306475Y161554D01*
X307462Y160984D01*
X308564Y160689D01*
X309704D01*
X310806Y160984D01*
X311793Y161554D01*
X312599Y162361D01*
X313169Y163348D01*
X313465Y164450D01*
Y165590D01*
X313169Y166691D01*
X312599Y167679D01*
X311793Y168485D01*
X310806Y169055D01*
X309704Y169350D01*
D02*
G37*
G36*
Y159350D02*
X308564D01*
X307462Y159055D01*
X306475Y158485D01*
X305668Y157679D01*
X305098Y156691D01*
X304803Y155590D01*
Y154450D01*
X305098Y153348D01*
X305668Y152361D01*
X306475Y151554D01*
X307462Y150984D01*
X308564Y150689D01*
X309704D01*
X310806Y150984D01*
X311793Y151554D01*
X312599Y152361D01*
X313169Y153348D01*
X313465Y154450D01*
Y155590D01*
X313169Y156691D01*
X312599Y157679D01*
X311793Y158485D01*
X310806Y159055D01*
X309704Y159350D01*
D02*
G37*
G36*
X340617Y157424D02*
X339698D01*
X338811Y157187D01*
X338016Y156728D01*
X337367Y156078D01*
X336908Y155283D01*
X336670Y154396D01*
Y153478D01*
X336908Y152591D01*
X337367Y151796D01*
X338016Y151146D01*
X338811Y150687D01*
X339698Y150450D01*
X340617D01*
X341504Y150687D01*
X342299Y151146D01*
X342948Y151796D01*
X343407Y152591D01*
X343645Y153478D01*
Y154396D01*
X343407Y155283D01*
X342948Y156078D01*
X342299Y156728D01*
X341504Y157187D01*
X340617Y157424D01*
D02*
G37*
G36*
X307746Y142421D02*
X306427D01*
X305134Y142164D01*
X303916Y141659D01*
X302820Y140927D01*
X301888Y139995D01*
X301155Y138899D01*
X300651Y137681D01*
X300394Y136388D01*
Y135069D01*
X300651Y133776D01*
X301155Y132558D01*
X301888Y131462D01*
X302820Y130530D01*
X303916Y129797D01*
X305134Y129293D01*
X306427Y129035D01*
X307746D01*
X309039Y129293D01*
X310257Y129797D01*
X311353Y130530D01*
X312285Y131462D01*
X313018Y132558D01*
X313522Y133776D01*
X313779Y135069D01*
Y136388D01*
X313522Y137681D01*
X313018Y138899D01*
X312285Y139995D01*
X311353Y140927D01*
X310257Y141659D01*
X309039Y142164D01*
X307746Y142421D01*
D02*
G37*
G36*
X314565Y122047D02*
X313782D01*
X313058Y121748D01*
X312504Y121194D01*
X312205Y120470D01*
Y119687D01*
X312504Y118964D01*
X313058Y118410D01*
X313782Y118110D01*
X314565D01*
X315288Y118410D01*
X315842Y118964D01*
X316142Y119687D01*
Y120470D01*
X315842Y121194D01*
X315288Y121748D01*
X314565Y122047D01*
D02*
G37*
G36*
X331100Y121260D02*
X330317D01*
X329594Y120960D01*
X329040Y120406D01*
X328740Y119683D01*
Y118900D01*
X329040Y118176D01*
X329594Y117622D01*
X330317Y117323D01*
X331100D01*
X331824Y117622D01*
X332378Y118176D01*
X332677Y118900D01*
Y119683D01*
X332378Y120406D01*
X331824Y120960D01*
X331100Y121260D01*
D02*
G37*
G36*
X264692Y114173D02*
X263655D01*
X262654Y113905D01*
X261756Y113387D01*
X261023Y112654D01*
X260505Y111756D01*
X260236Y110755D01*
Y109718D01*
X260505Y108717D01*
X261023Y107819D01*
X261756Y107086D01*
X262654Y106568D01*
X263655Y106299D01*
X264692D01*
X265693Y106568D01*
X266591Y107086D01*
X267324Y107819D01*
X267842Y108717D01*
X268110Y109718D01*
Y110755D01*
X267842Y111756D01*
X267324Y112654D01*
X266591Y113387D01*
X265693Y113905D01*
X264692Y114173D01*
D02*
G37*
G36*
X331171Y109654D02*
X330388D01*
X329664Y109354D01*
X329111Y108800D01*
X328811Y108077D01*
Y107293D01*
X329111Y106570D01*
X329664Y106016D01*
X330388Y105717D01*
X331171D01*
X331895Y106016D01*
X332448Y106570D01*
X332748Y107293D01*
Y108077D01*
X332448Y108800D01*
X331895Y109354D01*
X331171Y109654D01*
D02*
G37*
G36*
X310171D02*
X309388D01*
X308664Y109354D01*
X308111Y108800D01*
X307811Y108077D01*
Y107293D01*
X308111Y106570D01*
X308664Y106016D01*
X309388Y105717D01*
X310171D01*
X310895Y106016D01*
X311448Y106570D01*
X311748Y107293D01*
Y108077D01*
X311448Y108800D01*
X310895Y109354D01*
X310171Y109654D01*
D02*
G37*
G36*
X303171D02*
X302388D01*
X301664Y109354D01*
X301111Y108800D01*
X300811Y108077D01*
Y107293D01*
X301111Y106570D01*
X301664Y106016D01*
X302388Y105717D01*
X303171D01*
X303895Y106016D01*
X304448Y106570D01*
X304748Y107293D01*
Y108077D01*
X304448Y108800D01*
X303895Y109354D01*
X303171Y109654D01*
D02*
G37*
G36*
X334671Y102654D02*
X333888D01*
X333164Y102354D01*
X332611Y101800D01*
X332311Y101077D01*
Y100294D01*
X332611Y99570D01*
X333164Y99016D01*
X333888Y98717D01*
X334671D01*
X335395Y99016D01*
X335948Y99570D01*
X336248Y100294D01*
Y101077D01*
X335948Y101800D01*
X335395Y102354D01*
X334671Y102654D01*
D02*
G37*
G36*
X327671D02*
X326888D01*
X326164Y102354D01*
X325611Y101800D01*
X325311Y101077D01*
Y100294D01*
X325611Y99570D01*
X326164Y99016D01*
X326888Y98717D01*
X327671D01*
X328395Y99016D01*
X328948Y99570D01*
X329248Y100294D01*
Y101077D01*
X328948Y101800D01*
X328395Y102354D01*
X327671Y102654D01*
D02*
G37*
G36*
X320671D02*
X319888D01*
X319164Y102354D01*
X318611Y101800D01*
X318311Y101077D01*
Y100294D01*
X318611Y99570D01*
X319164Y99016D01*
X319888Y98717D01*
X320671D01*
X321395Y99016D01*
X321948Y99570D01*
X322248Y100294D01*
Y101077D01*
X321948Y101800D01*
X321395Y102354D01*
X320671Y102654D01*
D02*
G37*
G36*
X313671D02*
X312888D01*
X312164Y102354D01*
X311611Y101800D01*
X311311Y101077D01*
Y100294D01*
X311611Y99570D01*
X312164Y99016D01*
X312888Y98717D01*
X313671D01*
X314395Y99016D01*
X314948Y99570D01*
X315248Y100294D01*
Y101077D01*
X314948Y101800D01*
X314395Y102354D01*
X313671Y102654D01*
D02*
G37*
G36*
X306671D02*
X305888D01*
X305164Y102354D01*
X304611Y101800D01*
X304311Y101077D01*
Y100294D01*
X304611Y99570D01*
X305164Y99016D01*
X305888Y98717D01*
X306671D01*
X307395Y99016D01*
X307948Y99570D01*
X308248Y100294D01*
Y101077D01*
X307948Y101800D01*
X307395Y102354D01*
X306671Y102654D01*
D02*
G37*
G36*
X298966Y103126D02*
X294512Y98672D01*
X297036Y96148D01*
X296590Y95480D01*
X296171Y95654D01*
X295388D01*
X294664Y95354D01*
X294111Y94800D01*
X293811Y94077D01*
Y93293D01*
X294111Y92570D01*
X294664Y92016D01*
X295388Y91717D01*
X296171D01*
X296895Y92016D01*
X297448Y92570D01*
X297748Y93293D01*
Y94077D01*
X297574Y94496D01*
X298242Y94942D01*
X298966Y94217D01*
X303420Y98672D01*
X298966Y103126D01*
D02*
G37*
G36*
X338171Y95654D02*
X337388D01*
X336664Y95354D01*
X336111Y94800D01*
X335811Y94077D01*
Y93293D01*
X336111Y92570D01*
X336664Y92016D01*
X337388Y91717D01*
X338171D01*
X338895Y92016D01*
X339448Y92570D01*
X339748Y93293D01*
Y94077D01*
X339448Y94800D01*
X338895Y95354D01*
X338171Y95654D01*
D02*
G37*
G36*
X331171D02*
X330388D01*
X329664Y95354D01*
X329111Y94800D01*
X328811Y94077D01*
Y93293D01*
X329111Y92570D01*
X329664Y92016D01*
X330388Y91717D01*
X331171D01*
X331895Y92016D01*
X332448Y92570D01*
X332748Y93293D01*
Y94077D01*
X332448Y94800D01*
X331895Y95354D01*
X331171Y95654D01*
D02*
G37*
G36*
X324171D02*
X323388D01*
X322664Y95354D01*
X322111Y94800D01*
X321811Y94077D01*
Y93293D01*
X322111Y92570D01*
X322664Y92016D01*
X323388Y91717D01*
X324171D01*
X324895Y92016D01*
X325448Y92570D01*
X325748Y93293D01*
Y94077D01*
X325448Y94800D01*
X324895Y95354D01*
X324171Y95654D01*
D02*
G37*
G36*
X317171D02*
X316388D01*
X315664Y95354D01*
X315111Y94800D01*
X314811Y94077D01*
Y93293D01*
X315111Y92570D01*
X315664Y92016D01*
X316388Y91717D01*
X317171D01*
X317895Y92016D01*
X318448Y92570D01*
X318748Y93293D01*
Y94077D01*
X318448Y94800D01*
X317895Y95354D01*
X317171Y95654D01*
D02*
G37*
G36*
X310171D02*
X309388D01*
X308664Y95354D01*
X308111Y94800D01*
X307811Y94077D01*
Y93293D01*
X308111Y92570D01*
X308664Y92016D01*
X309388Y91717D01*
X310171D01*
X310895Y92016D01*
X311448Y92570D01*
X311748Y93293D01*
Y94077D01*
X311448Y94800D01*
X310895Y95354D01*
X310171Y95654D01*
D02*
G37*
G36*
X303171D02*
X302388D01*
X301664Y95354D01*
X301111Y94800D01*
X300811Y94077D01*
Y93293D01*
X301111Y92570D01*
X301664Y92016D01*
X302388Y91717D01*
X303171D01*
X303895Y92016D01*
X304448Y92570D01*
X304748Y93293D01*
Y94077D01*
X304448Y94800D01*
X303895Y95354D01*
X303171Y95654D01*
D02*
G37*
G36*
X289171D02*
X288388D01*
X287664Y95354D01*
X287111Y94800D01*
X286811Y94077D01*
Y93293D01*
X287111Y92570D01*
X287664Y92016D01*
X288388Y91717D01*
X289171D01*
X289895Y92016D01*
X290448Y92570D01*
X290748Y93293D01*
Y94077D01*
X290448Y94800D01*
X289895Y95354D01*
X289171Y95654D01*
D02*
G37*
G36*
X347940Y95933D02*
X346942D01*
X345979Y95675D01*
X345115Y95176D01*
X344410Y94471D01*
X343912Y93608D01*
X343653Y92644D01*
Y91647D01*
X343912Y90684D01*
X344410Y89820D01*
X345115Y89115D01*
X345979Y88616D01*
X346942Y88358D01*
X347940D01*
X348903Y88616D01*
X349766Y89115D01*
X350472Y89820D01*
X350970Y90684D01*
X351228Y91647D01*
Y92644D01*
X350970Y93608D01*
X350472Y94471D01*
X349766Y95176D01*
X348903Y95675D01*
X347940Y95933D01*
D02*
G37*
G36*
X334671Y88654D02*
X333888D01*
X333164Y88354D01*
X332611Y87800D01*
X332311Y87077D01*
Y86294D01*
X332611Y85570D01*
X333164Y85016D01*
X333888Y84717D01*
X334671D01*
X335395Y85016D01*
X335948Y85570D01*
X336248Y86294D01*
Y87077D01*
X335948Y87800D01*
X335395Y88354D01*
X334671Y88654D01*
D02*
G37*
G36*
X327671D02*
X326888D01*
X326164Y88354D01*
X325611Y87800D01*
X325311Y87077D01*
Y86294D01*
X325611Y85570D01*
X326164Y85016D01*
X326888Y84717D01*
X327671D01*
X328395Y85016D01*
X328948Y85570D01*
X329248Y86294D01*
Y87077D01*
X328948Y87800D01*
X328395Y88354D01*
X327671Y88654D01*
D02*
G37*
G36*
X320671D02*
X319888D01*
X319164Y88354D01*
X318611Y87800D01*
X318311Y87077D01*
Y86294D01*
X318611Y85570D01*
X319164Y85016D01*
X319888Y84717D01*
X320671D01*
X321395Y85016D01*
X321948Y85570D01*
X322248Y86294D01*
Y87077D01*
X321948Y87800D01*
X321395Y88354D01*
X320671Y88654D01*
D02*
G37*
G36*
X313671D02*
X312888D01*
X312164Y88354D01*
X311611Y87800D01*
X311311Y87077D01*
Y86294D01*
X311611Y85570D01*
X312164Y85016D01*
X312888Y84717D01*
X313671D01*
X314395Y85016D01*
X314948Y85570D01*
X315248Y86294D01*
Y87077D01*
X314948Y87800D01*
X314395Y88354D01*
X313671Y88654D01*
D02*
G37*
G36*
X306671D02*
X305888D01*
X305164Y88354D01*
X304611Y87800D01*
X304311Y87077D01*
Y86294D01*
X304611Y85570D01*
X305164Y85016D01*
X305888Y84717D01*
X306671D01*
X307395Y85016D01*
X307948Y85570D01*
X308248Y86294D01*
Y87077D01*
X307948Y87800D01*
X307395Y88354D01*
X306671Y88654D01*
D02*
G37*
G36*
X299671D02*
X298888D01*
X298164Y88354D01*
X297611Y87800D01*
X297311Y87077D01*
Y86294D01*
X297611Y85570D01*
X298164Y85016D01*
X298888Y84717D01*
X299671D01*
X300395Y85016D01*
X300948Y85570D01*
X301248Y86294D01*
Y87077D01*
X300948Y87800D01*
X300395Y88354D01*
X299671Y88654D01*
D02*
G37*
G36*
X292671D02*
X291888D01*
X291164Y88354D01*
X290611Y87800D01*
X290311Y87077D01*
Y86294D01*
X290611Y85570D01*
X291164Y85016D01*
X291888Y84717D01*
X292671D01*
X293395Y85016D01*
X293948Y85570D01*
X294248Y86294D01*
Y87077D01*
X293948Y87800D01*
X293395Y88354D01*
X292671Y88654D01*
D02*
G37*
G36*
X331171Y81654D02*
X330388D01*
X329664Y81354D01*
X329111Y80800D01*
X328811Y80077D01*
Y79294D01*
X329111Y78570D01*
X329664Y78016D01*
X330388Y77717D01*
X331171D01*
X331895Y78016D01*
X332448Y78570D01*
X332748Y79294D01*
Y80077D01*
X332448Y80800D01*
X331895Y81354D01*
X331171Y81654D01*
D02*
G37*
G36*
X324171D02*
X323388D01*
X322664Y81354D01*
X322111Y80800D01*
X321811Y80077D01*
Y79294D01*
X322111Y78570D01*
X322664Y78016D01*
X323388Y77717D01*
X324171D01*
X324895Y78016D01*
X325448Y78570D01*
X325748Y79294D01*
Y80077D01*
X325448Y80800D01*
X324895Y81354D01*
X324171Y81654D01*
D02*
G37*
G36*
X317171D02*
X316388D01*
X315664Y81354D01*
X315111Y80800D01*
X314811Y80077D01*
Y79294D01*
X315111Y78570D01*
X315664Y78016D01*
X316388Y77717D01*
X317171D01*
X317895Y78016D01*
X318448Y78570D01*
X318748Y79294D01*
Y80077D01*
X318448Y80800D01*
X317895Y81354D01*
X317171Y81654D01*
D02*
G37*
G36*
X310171D02*
X309388D01*
X308664Y81354D01*
X308111Y80800D01*
X307811Y80077D01*
Y79294D01*
X308111Y78570D01*
X308664Y78016D01*
X309388Y77717D01*
X310171D01*
X310895Y78016D01*
X311448Y78570D01*
X311748Y79294D01*
Y80077D01*
X311448Y80800D01*
X310895Y81354D01*
X310171Y81654D01*
D02*
G37*
G36*
X289171D02*
X288388D01*
X287664Y81354D01*
X287111Y80800D01*
X286811Y80077D01*
Y79294D01*
X287111Y78570D01*
X287664Y78016D01*
X288388Y77717D01*
X289171D01*
X289895Y78016D01*
X290448Y78570D01*
X290748Y79294D01*
Y80077D01*
X290448Y80800D01*
X289895Y81354D01*
X289171Y81654D01*
D02*
G37*
G36*
X264565Y81496D02*
X263782D01*
X263058Y81196D01*
X262504Y80643D01*
X262205Y79919D01*
Y79136D01*
X262504Y78412D01*
X263058Y77859D01*
X263782Y77559D01*
X264565D01*
X265288Y77859D01*
X265842Y78412D01*
X266142Y79136D01*
Y79919D01*
X265842Y80643D01*
X265288Y81196D01*
X264565Y81496D01*
D02*
G37*
G36*
X290549Y74409D02*
X289766D01*
X289042Y74110D01*
X288489Y73556D01*
X288189Y72833D01*
Y72049D01*
X288489Y71326D01*
X289042Y70772D01*
X289766Y70472D01*
X290549D01*
X291273Y70772D01*
X291826Y71326D01*
X292126Y72049D01*
Y72833D01*
X291826Y73556D01*
X291273Y74110D01*
X290549Y74409D01*
D02*
G37*
G36*
X304329Y68898D02*
X303545D01*
X302822Y68598D01*
X302268Y68044D01*
X301969Y67321D01*
Y66538D01*
X302268Y65814D01*
X302822Y65260D01*
X303545Y64961D01*
X304329D01*
X305052Y65260D01*
X305606Y65814D01*
X305906Y66538D01*
Y67321D01*
X305606Y68044D01*
X305052Y68598D01*
X304329Y68898D01*
D02*
G37*
G36*
X274016Y44722D02*
X265354D01*
X264224Y44574D01*
X263170Y44137D01*
X262266Y43443D01*
X261572Y42538D01*
X261135Y41485D01*
X260986Y40354D01*
X261135Y39224D01*
X261572Y38170D01*
X262266Y37266D01*
X263170Y36571D01*
X264224Y36135D01*
X265354Y35986D01*
X274016D01*
X275146Y36135D01*
X276200Y36571D01*
X277104Y37266D01*
X277799Y38170D01*
X278235Y39224D01*
X278384Y40354D01*
X278235Y41485D01*
X277799Y42538D01*
X277104Y43443D01*
X276200Y44137D01*
X275146Y44574D01*
X274016Y44722D01*
D02*
G37*
G36*
X339478Y48465D02*
X337687D01*
X335930Y48115D01*
X334275Y47429D01*
X332785Y46434D01*
X331519Y45167D01*
X330523Y43678D01*
X329838Y42023D01*
X329488Y40266D01*
Y38474D01*
X329838Y36717D01*
X330523Y35062D01*
X331519Y33573D01*
X332785Y32306D01*
X334275Y31311D01*
X335930Y30625D01*
X337687Y30276D01*
X339478D01*
X341235Y30625D01*
X342891Y31311D01*
X344380Y32306D01*
X345647Y33573D01*
X346642Y35062D01*
X347328Y36717D01*
X347677Y38474D01*
Y40266D01*
X347328Y42023D01*
X346642Y43678D01*
X345647Y45167D01*
X344380Y46434D01*
X342891Y47429D01*
X341235Y48115D01*
X339478Y48465D01*
D02*
G37*
%LPD*%
D74*
X156201Y62598D02*
D03*
X166240D02*
D03*
X195965D02*
D03*
X206004D02*
D03*
D76*
X264173Y110236D02*
D03*
D92*
X289223Y108415D02*
D03*
D93*
X298966Y98672D02*
D03*
D94*
X195158Y17756D02*
D03*
X187126D02*
D03*
X179095D02*
D03*
X171063D02*
D03*
X191142Y24764D02*
D03*
X183110D02*
D03*
X175079D02*
D03*
X167047D02*
D03*
X154095Y43701D02*
D03*
X163110D02*
D03*
X199094D02*
D03*
X208110D02*
D03*
D95*
X149094Y21772D02*
D03*
X213110D02*
D03*
D96*
X309134Y155020D02*
D03*
Y165020D02*
D03*
Y175020D02*
D03*
Y185020D02*
D03*
Y195020D02*
D03*
Y205020D02*
D03*
Y215020D02*
D03*
Y225020D02*
D03*
Y235020D02*
D03*
X49134Y165020D02*
D03*
Y175020D02*
D03*
Y185020D02*
D03*
Y195020D02*
D03*
Y205020D02*
D03*
Y215020D02*
D03*
Y225020D02*
D03*
Y235020D02*
D03*
D97*
X340158Y173622D02*
D03*
Y153937D02*
D03*
Y204724D02*
D03*
Y224410D02*
D03*
D98*
X163602Y103740D02*
D03*
X198602Y113740D02*
D03*
X193602Y103740D02*
D03*
X188602Y113740D02*
D03*
X183602Y103740D02*
D03*
X178602Y113740D02*
D03*
X173602Y103740D02*
D03*
X168602Y113740D02*
D03*
D99*
X149941Y93898D02*
D03*
X212264D02*
D03*
D101*
X269685Y40354D02*
D03*
Y15748D02*
D03*
D102*
X288583Y28543D02*
D03*
D103*
X337779Y93685D02*
D03*
X330780Y107685D02*
D03*
X334279Y100685D02*
D03*
X330780Y93685D02*
D03*
X334279Y86685D02*
D03*
X330780Y79685D02*
D03*
X327279Y100685D02*
D03*
X323780Y93685D02*
D03*
X327279Y86685D02*
D03*
X323780Y79685D02*
D03*
X320280Y100685D02*
D03*
X316779Y93685D02*
D03*
X320280Y86685D02*
D03*
X316779Y79685D02*
D03*
X309780Y107685D02*
D03*
X313280Y100685D02*
D03*
X309780Y93685D02*
D03*
X313280Y86685D02*
D03*
X309780Y79685D02*
D03*
X302780Y107685D02*
D03*
X306279Y100685D02*
D03*
X302780Y93685D02*
D03*
X306279Y86685D02*
D03*
X295779Y93685D02*
D03*
X299279Y86685D02*
D03*
X288779Y93685D02*
D03*
X292280Y86685D02*
D03*
X288779Y79685D02*
D03*
X164567Y11417D02*
D03*
X174016Y10236D02*
D03*
X181496D02*
D03*
X190551D02*
D03*
X204331Y17717D02*
D03*
X156299Y19685D02*
D03*
X92279Y14685D02*
D03*
X83280D02*
D03*
X101279D02*
D03*
X110280D02*
D03*
X119280D02*
D03*
X74279D02*
D03*
X137279D02*
D03*
X128279D02*
D03*
X147244Y41732D02*
D03*
X213386Y30315D02*
D03*
X212992Y37008D02*
D03*
X203150Y37402D02*
D03*
X120079Y36614D02*
D03*
X107874Y35827D02*
D03*
X79921Y31496D02*
D03*
X89370Y35827D02*
D03*
X77953Y36220D02*
D03*
X192126Y41732D02*
D03*
X186221Y45276D02*
D03*
X181496D02*
D03*
X176378D02*
D03*
X171653D02*
D03*
X209279Y32685D02*
D03*
X204780Y23685D02*
D03*
X195780Y5685D02*
D03*
X186779D02*
D03*
X177779D02*
D03*
X168780D02*
D03*
X141779D02*
D03*
X132780D02*
D03*
X123779D02*
D03*
X114779D02*
D03*
X105780D02*
D03*
X96780D02*
D03*
X87779D02*
D03*
X78780Y23685D02*
D03*
Y5685D02*
D03*
X74279Y32685D02*
D03*
X69779Y23685D02*
D03*
Y5685D02*
D03*
X270866Y86614D02*
D03*
X112000Y36700D02*
D03*
X115900Y37200D02*
D03*
X82600Y35100D02*
D03*
X85462D02*
D03*
X234252Y9843D02*
D03*
X216535Y248032D02*
D03*
Y228346D02*
D03*
Y208662D02*
D03*
Y188976D02*
D03*
Y169291D02*
D03*
Y149606D02*
D03*
X211614Y257874D02*
D03*
X206693Y248032D02*
D03*
X211614Y238189D02*
D03*
X206693Y228346D02*
D03*
X211614Y218504D02*
D03*
X206693Y208662D02*
D03*
X211614Y198819D02*
D03*
X206693Y188976D02*
D03*
X211614Y179134D02*
D03*
X206693Y169291D02*
D03*
X211614Y159449D02*
D03*
X201772Y257874D02*
D03*
X196850Y248032D02*
D03*
X201772Y238189D02*
D03*
X196850Y228346D02*
D03*
X201772Y218504D02*
D03*
X196850Y208662D02*
D03*
X201772Y198819D02*
D03*
X196850Y188976D02*
D03*
X201772Y179134D02*
D03*
X196850Y169291D02*
D03*
X201772Y159449D02*
D03*
X191929Y257874D02*
D03*
X187008Y248032D02*
D03*
X191929Y238189D02*
D03*
X187008Y228346D02*
D03*
X191929Y218504D02*
D03*
X187008Y208662D02*
D03*
X191929Y198819D02*
D03*
X187008Y188976D02*
D03*
X191929Y179134D02*
D03*
X182087Y257874D02*
D03*
X177165Y248032D02*
D03*
X182087Y238189D02*
D03*
X177165Y228346D02*
D03*
X182087Y218504D02*
D03*
X177165Y208662D02*
D03*
X182087Y198819D02*
D03*
X177165Y188976D02*
D03*
X182087Y179134D02*
D03*
Y159449D02*
D03*
X172244Y257874D02*
D03*
X167323Y248032D02*
D03*
X172244Y238189D02*
D03*
Y218504D02*
D03*
X167323Y208662D02*
D03*
X172244Y198819D02*
D03*
X167323Y169291D02*
D03*
X172244Y159449D02*
D03*
X162402Y257874D02*
D03*
X157480Y248032D02*
D03*
Y208662D02*
D03*
X162402Y198819D02*
D03*
Y179134D02*
D03*
X157480Y169291D02*
D03*
X162402Y159449D02*
D03*
X152559Y257874D02*
D03*
X147638Y248032D02*
D03*
Y188976D02*
D03*
X152559Y179134D02*
D03*
X147638Y169291D02*
D03*
X152559Y159449D02*
D03*
X142717Y257874D02*
D03*
X137795Y248032D02*
D03*
Y188976D02*
D03*
X142717Y179134D02*
D03*
X137795Y169291D02*
D03*
X142717Y159449D02*
D03*
X132874Y257874D02*
D03*
X127953Y248032D02*
D03*
X132874Y238189D02*
D03*
X127953Y228346D02*
D03*
X132874Y218504D02*
D03*
X127953Y188976D02*
D03*
X132874Y179134D02*
D03*
X127953Y169291D02*
D03*
X132874Y159449D02*
D03*
X123031Y257874D02*
D03*
X118110Y248032D02*
D03*
X123031Y238189D02*
D03*
X118110Y228346D02*
D03*
X123031Y218504D02*
D03*
X118110Y188976D02*
D03*
X123031Y179134D02*
D03*
X118110Y169291D02*
D03*
X123031Y159449D02*
D03*
X113189Y257874D02*
D03*
X108268Y248032D02*
D03*
X113189Y238189D02*
D03*
X108268Y228346D02*
D03*
X113189Y218504D02*
D03*
X108268Y188976D02*
D03*
X113189Y179134D02*
D03*
X108268Y169291D02*
D03*
X113189Y159449D02*
D03*
X103346Y257874D02*
D03*
X98425Y248032D02*
D03*
X103346Y238189D02*
D03*
X98425Y228346D02*
D03*
X103346Y218504D02*
D03*
X98425Y188976D02*
D03*
X93504Y257874D02*
D03*
X88583Y248032D02*
D03*
X93504Y238189D02*
D03*
X88583Y228346D02*
D03*
X93504Y218504D02*
D03*
X88583Y188976D02*
D03*
X83661Y257874D02*
D03*
X78740Y248032D02*
D03*
X83661Y238189D02*
D03*
X78740Y228346D02*
D03*
X83661Y218504D02*
D03*
X78740Y188976D02*
D03*
X73819Y257874D02*
D03*
X68898Y248032D02*
D03*
X73819Y238189D02*
D03*
X68898Y228346D02*
D03*
X73819Y218504D02*
D03*
X68898Y188976D02*
D03*
Y169291D02*
D03*
X63976Y257874D02*
D03*
X59055Y248032D02*
D03*
X63976Y238189D02*
D03*
X59055Y228346D02*
D03*
X63976Y218504D02*
D03*
X59055Y188976D02*
D03*
X63976Y179134D02*
D03*
X39370Y248032D02*
D03*
Y228346D02*
D03*
Y208662D02*
D03*
X29528Y228346D02*
D03*
X34449Y218504D02*
D03*
X29528Y208662D02*
D03*
X34449Y198819D02*
D03*
X19685Y228346D02*
D03*
X24606Y218504D02*
D03*
X19685Y208662D02*
D03*
X24606Y198819D02*
D03*
X19685Y188976D02*
D03*
X9843Y228346D02*
D03*
X14764Y218504D02*
D03*
X9843Y208662D02*
D03*
X14764Y198819D02*
D03*
X9843Y188976D02*
D03*
X14764Y179134D02*
D03*
X9843Y169291D02*
D03*
Y149606D02*
D03*
Y129921D02*
D03*
X264173Y79528D02*
D03*
X355511Y256693D02*
D03*
Y242519D02*
D03*
X351968Y235433D02*
D03*
X355511Y228346D02*
D03*
X351968Y221259D02*
D03*
X355511Y214173D02*
D03*
X351968Y207086D02*
D03*
X355511Y200000D02*
D03*
X351968Y192913D02*
D03*
X355511Y185826D02*
D03*
X351968Y178740D02*
D03*
X355511Y171653D02*
D03*
X351968Y164567D02*
D03*
X355511Y157480D02*
D03*
X351968Y150393D02*
D03*
X355511Y143307D02*
D03*
X351968Y79527D02*
D03*
X355511Y72441D02*
D03*
X351968Y65354D02*
D03*
X355511Y58267D02*
D03*
X351968Y51181D02*
D03*
X355511Y44094D02*
D03*
Y29921D02*
D03*
X351968Y22834D02*
D03*
X355511Y15748D02*
D03*
X351968Y8661D02*
D03*
X348425Y228346D02*
D03*
X344882Y221259D02*
D03*
X348425Y214173D02*
D03*
Y200000D02*
D03*
X344882Y164567D02*
D03*
X348425Y157480D02*
D03*
Y143307D02*
D03*
X344882Y65354D02*
D03*
X348425Y58267D02*
D03*
X344882Y22834D02*
D03*
X348425Y15748D02*
D03*
X344882Y8661D02*
D03*
X341338Y214173D02*
D03*
Y72441D02*
D03*
X337795Y65354D02*
D03*
X341338Y58267D02*
D03*
X337795Y22834D02*
D03*
X341338Y15748D02*
D03*
X337795Y8661D02*
D03*
X330708Y235433D02*
D03*
X334252Y228346D02*
D03*
X330708Y221259D02*
D03*
X334252Y72441D02*
D03*
X330708Y65354D02*
D03*
X334252Y58267D02*
D03*
X330708Y22834D02*
D03*
X334252Y15748D02*
D03*
X330708Y8661D02*
D03*
X323622Y249606D02*
D03*
X327165Y228346D02*
D03*
X323622Y221259D02*
D03*
X327165Y143307D02*
D03*
X323622Y65354D02*
D03*
Y51181D02*
D03*
Y37008D02*
D03*
Y22834D02*
D03*
X327165Y15748D02*
D03*
X323622Y8661D02*
D03*
X320078Y256693D02*
D03*
X316535Y249606D02*
D03*
X320078Y228346D02*
D03*
X316535Y221259D02*
D03*
X320078Y143307D02*
D03*
X316535Y136220D02*
D03*
Y65354D02*
D03*
X320078Y58267D02*
D03*
X316535Y51181D02*
D03*
X320078Y44094D02*
D03*
X316535Y37008D02*
D03*
X320078Y29921D02*
D03*
X316535Y22834D02*
D03*
X320078Y15748D02*
D03*
X316535Y8661D02*
D03*
X312992Y242519D02*
D03*
Y143307D02*
D03*
Y129133D02*
D03*
X309449Y122047D02*
D03*
Y65354D02*
D03*
X312992Y58267D02*
D03*
X309449Y37008D02*
D03*
X312992Y29921D02*
D03*
X309449Y22834D02*
D03*
X312992Y15748D02*
D03*
X309449Y8661D02*
D03*
X305905Y242519D02*
D03*
X302362Y235433D02*
D03*
Y221259D02*
D03*
Y122047D02*
D03*
X305905Y29921D02*
D03*
X302362Y22834D02*
D03*
X305905Y15748D02*
D03*
X302362Y8661D02*
D03*
X298819Y256693D02*
D03*
X295275Y249606D02*
D03*
X298819Y242519D02*
D03*
X295275Y235433D02*
D03*
X298819Y228346D02*
D03*
X295275Y221259D02*
D03*
X298819Y214173D02*
D03*
X295275Y207086D02*
D03*
X298819Y200000D02*
D03*
X295275Y192913D02*
D03*
X298819Y171653D02*
D03*
Y157480D02*
D03*
Y129133D02*
D03*
X295275Y122047D02*
D03*
X298819Y114960D02*
D03*
Y29921D02*
D03*
X295275Y22834D02*
D03*
X298819Y15748D02*
D03*
X295275Y8661D02*
D03*
X291732Y256693D02*
D03*
X288189Y249606D02*
D03*
X291732Y242519D02*
D03*
Y228346D02*
D03*
Y214173D02*
D03*
X288189Y207086D02*
D03*
X291732Y200000D02*
D03*
X288189Y192913D02*
D03*
X291732Y185826D02*
D03*
X288189Y178740D02*
D03*
X291732Y171653D02*
D03*
Y157480D02*
D03*
Y143307D02*
D03*
Y114960D02*
D03*
Y15748D02*
D03*
X288189Y8661D02*
D03*
X284645Y256693D02*
D03*
X281102Y249606D02*
D03*
X284645Y242519D02*
D03*
X281102Y207086D02*
D03*
X284645Y200000D02*
D03*
X281102Y192913D02*
D03*
X284645Y185826D02*
D03*
X281102Y178740D02*
D03*
X284645Y143307D02*
D03*
X281102Y136220D02*
D03*
Y107874D02*
D03*
X284645Y100787D02*
D03*
X281102Y22834D02*
D03*
X284645Y15748D02*
D03*
X281102Y8661D02*
D03*
X277559Y256693D02*
D03*
X274015Y249606D02*
D03*
X277559Y242519D02*
D03*
X274015Y207086D02*
D03*
X277559Y200000D02*
D03*
X274015Y192913D02*
D03*
X277559Y185826D02*
D03*
X274015Y178740D02*
D03*
X277559Y143307D02*
D03*
X274015Y136220D02*
D03*
X277559Y129133D02*
D03*
Y29921D02*
D03*
X274015Y22834D02*
D03*
Y8661D02*
D03*
X270472Y256693D02*
D03*
X266929Y249606D02*
D03*
X270472Y242519D02*
D03*
X266929Y207086D02*
D03*
X270472Y200000D02*
D03*
X266929Y192913D02*
D03*
X270472Y185826D02*
D03*
X266929Y178740D02*
D03*
X270472Y143307D02*
D03*
X266929Y136220D02*
D03*
X270472Y129133D02*
D03*
X266929Y122047D02*
D03*
X270472Y114960D02*
D03*
Y100787D02*
D03*
X266929Y93700D02*
D03*
X270472Y72441D02*
D03*
Y29921D02*
D03*
X266929Y22834D02*
D03*
Y8661D02*
D03*
X263386Y256693D02*
D03*
X259842Y249606D02*
D03*
X263386Y242519D02*
D03*
X259842Y207086D02*
D03*
X263386Y200000D02*
D03*
X259842Y192913D02*
D03*
X263386Y185826D02*
D03*
X259842Y178740D02*
D03*
Y150393D02*
D03*
X263386Y143307D02*
D03*
X259842Y136220D02*
D03*
X263386Y129133D02*
D03*
X259842Y122047D02*
D03*
X263386Y72441D02*
D03*
X259842Y65354D02*
D03*
X263386Y29921D02*
D03*
X259842Y22834D02*
D03*
Y8661D02*
D03*
X256299Y256693D02*
D03*
X252756Y249606D02*
D03*
X256299Y242519D02*
D03*
X252756Y235433D02*
D03*
X256299Y228346D02*
D03*
X252756Y221259D02*
D03*
X256299Y214173D02*
D03*
X252756Y207086D02*
D03*
X256299Y200000D02*
D03*
X252756Y192913D02*
D03*
X256299Y185826D02*
D03*
X252756Y178740D02*
D03*
X256299Y171653D02*
D03*
X252756Y164567D02*
D03*
X256299Y157480D02*
D03*
X252756Y150393D02*
D03*
X256299Y143307D02*
D03*
X252756Y136220D02*
D03*
X256299Y129133D02*
D03*
X252756Y122047D02*
D03*
X256299Y114960D02*
D03*
X252756Y107874D02*
D03*
X256299Y86614D02*
D03*
Y29921D02*
D03*
X252756Y22834D02*
D03*
X256299Y15748D02*
D03*
X252756Y8661D02*
D03*
X249212Y256693D02*
D03*
X245669Y249606D02*
D03*
X249212Y242519D02*
D03*
X245669Y235433D02*
D03*
X249212Y228346D02*
D03*
X245669Y221259D02*
D03*
X249212Y214173D02*
D03*
X245669Y207086D02*
D03*
X249212Y200000D02*
D03*
X245669Y192913D02*
D03*
X249212Y185826D02*
D03*
X245669Y178740D02*
D03*
X249212Y171653D02*
D03*
X245669Y164567D02*
D03*
X249212Y157480D02*
D03*
X245669Y150393D02*
D03*
X249212Y143307D02*
D03*
X245669Y136220D02*
D03*
X249212Y129133D02*
D03*
X245669Y122047D02*
D03*
X249212Y114960D02*
D03*
X245669Y107874D02*
D03*
X242126Y256693D02*
D03*
X238582Y249606D02*
D03*
X242126Y242519D02*
D03*
X238582Y235433D02*
D03*
X242126Y228346D02*
D03*
X238582Y221259D02*
D03*
X242126Y214173D02*
D03*
X238582Y207086D02*
D03*
X242126Y200000D02*
D03*
X238582Y192913D02*
D03*
X242126Y185826D02*
D03*
X238582Y178740D02*
D03*
X242126Y171653D02*
D03*
X238582Y164567D02*
D03*
X242126Y157480D02*
D03*
X238582Y150393D02*
D03*
X242126Y143307D02*
D03*
X238582Y136220D02*
D03*
X242126Y129133D02*
D03*
Y100787D02*
D03*
X238582Y93700D02*
D03*
X242126Y86614D02*
D03*
X238582Y79527D02*
D03*
X242126Y72441D02*
D03*
X238582Y65354D02*
D03*
Y51181D02*
D03*
Y37008D02*
D03*
X77165Y127559D02*
D03*
X72047D02*
D03*
X66929D02*
D03*
X61811D02*
D03*
X91732Y92913D02*
D03*
X137008Y93307D02*
D03*
X121653Y92913D02*
D03*
X106299D02*
D03*
X228346Y64567D02*
D03*
X218110Y101575D02*
D03*
X330709Y119291D02*
D03*
X303937Y66929D02*
D03*
X290158Y72441D02*
D03*
X220760Y122005D02*
D03*
X314173Y120079D02*
D03*
X226186Y36870D02*
D03*
Y50650D02*
D03*
D104*
X68504Y17717D02*
D03*
Y77953D02*
D03*
X121653Y51968D02*
D03*
X29528Y103543D02*
D03*
X67323Y37008D02*
D03*
X106555Y51831D02*
D03*
X29528Y77165D02*
D03*
Y90551D02*
D03*
X342913Y184252D02*
D03*
X337008D02*
D03*
D105*
X142520Y219685D02*
D03*
X146063D02*
D03*
X149606D02*
D03*
X153150D02*
D03*
X156693D02*
D03*
X160236D02*
D03*
Y223228D02*
D03*
X156693D02*
D03*
X153150D02*
D03*
X149606D02*
D03*
X146063D02*
D03*
X142520D02*
D03*
X160236Y226772D02*
D03*
X156693D02*
D03*
X153150D02*
D03*
X149606D02*
D03*
X146063D02*
D03*
X142520D02*
D03*
X160236Y230315D02*
D03*
X156693D02*
D03*
X153150D02*
D03*
X149606D02*
D03*
X146063D02*
D03*
X142520D02*
D03*
X160236Y233858D02*
D03*
X156693D02*
D03*
X153150D02*
D03*
X149606D02*
D03*
X146063D02*
D03*
X142520D02*
D03*
X160236Y237402D02*
D03*
X156693D02*
D03*
X153150D02*
D03*
X149606D02*
D03*
X146063D02*
D03*
X142520D02*
D03*
X78740Y155512D02*
D03*
X82284D02*
D03*
X85827D02*
D03*
X89370D02*
D03*
X92913D02*
D03*
X96457D02*
D03*
Y159055D02*
D03*
X92913D02*
D03*
X89370D02*
D03*
X85827D02*
D03*
X82284D02*
D03*
X78740D02*
D03*
X96457Y162599D02*
D03*
X92913D02*
D03*
X89370D02*
D03*
X85827D02*
D03*
X82284D02*
D03*
X78740D02*
D03*
X96457Y166142D02*
D03*
X92913D02*
D03*
X89370D02*
D03*
X85827D02*
D03*
X82284D02*
D03*
X78740D02*
D03*
X96457Y169685D02*
D03*
X92913D02*
D03*
X89370D02*
D03*
X85827D02*
D03*
X82284D02*
D03*
X78740D02*
D03*
X96457Y173228D02*
D03*
X92913D02*
D03*
X89370D02*
D03*
X85827D02*
D03*
X82284D02*
D03*
X78740D02*
D03*
X266929Y216142D02*
D03*
X270472D02*
D03*
X274016D02*
D03*
X277559D02*
D03*
X281102D02*
D03*
X284646D02*
D03*
Y219685D02*
D03*
X281102D02*
D03*
X277559D02*
D03*
X274016D02*
D03*
X270472D02*
D03*
X266929D02*
D03*
X284646Y223228D02*
D03*
X281102D02*
D03*
X277559D02*
D03*
X274016D02*
D03*
X270472D02*
D03*
X266929D02*
D03*
X284646Y226772D02*
D03*
X281102D02*
D03*
X277559D02*
D03*
X274016D02*
D03*
X270472D02*
D03*
X266929D02*
D03*
X284646Y230315D02*
D03*
X281102D02*
D03*
X277559D02*
D03*
X274016D02*
D03*
X270472D02*
D03*
X266929D02*
D03*
X284646Y233858D02*
D03*
X281102D02*
D03*
X277559D02*
D03*
X274016D02*
D03*
X270472D02*
D03*
X266929D02*
D03*
Y155118D02*
D03*
X270472D02*
D03*
X274016D02*
D03*
X277559D02*
D03*
X281102D02*
D03*
X284646D02*
D03*
Y158661D02*
D03*
X281102D02*
D03*
X277559D02*
D03*
X274016D02*
D03*
X270472D02*
D03*
X266929D02*
D03*
X284646Y162205D02*
D03*
X281102D02*
D03*
X277559D02*
D03*
X274016D02*
D03*
X270472D02*
D03*
X266929D02*
D03*
X284646Y165748D02*
D03*
X281102D02*
D03*
X277559D02*
D03*
X274016D02*
D03*
X270472D02*
D03*
X266929D02*
D03*
X284646Y169291D02*
D03*
X281102D02*
D03*
X277559D02*
D03*
X274016D02*
D03*
X270472D02*
D03*
X266929D02*
D03*
X284646Y172835D02*
D03*
X281102D02*
D03*
X277559D02*
D03*
X274016D02*
D03*
X270472D02*
D03*
X266929D02*
D03*
D106*
X347441Y92146D02*
D03*
Y77146D02*
D03*
M02*
