G04*
G04 #@! TF.GenerationSoftware,Altium Limited,Altium Designer,21.9.2 (33)*
G04*
G04 Layer_Physical_Order=2*
G04 Layer_Color=36540*
%FSLAX25Y25*%
%MOIN*%
G70*
G04*
G04 #@! TF.SameCoordinates,BD73D3CE-375B-4955-ABE2-F62562662B61*
G04*
G04*
G04 #@! TF.FilePolarity,Positive*
G04*
G01*
G75*
%ADD67C,0.05906*%
%ADD72C,0.06299*%
%ADD90C,0.07087*%
%ADD91O,0.05512X0.14173*%
%ADD92O,0.14173X0.05512*%
%ADD94C,0.05512*%
%ADD95C,0.05400*%
%ADD96O,0.05512X0.06000*%
%ADD97R,0.06299X0.06299*%
%ADD98C,0.08661*%
%ADD99C,0.09449*%
%ADD100C,0.05315*%
%ADD102C,0.02402*%
%ADD103C,0.02362*%
%ADD104C,0.05000*%
%ADD105C,0.06000*%
G36*
X222441Y139200D02*
X56911D01*
X56380Y139995D01*
X55448Y140927D01*
X54351Y141659D01*
X53133Y142164D01*
X51840Y142421D01*
X50522D01*
X49229Y142164D01*
X48011Y141659D01*
X46915Y140927D01*
X45982Y139995D01*
X45451Y139200D01*
X803D01*
X803Y262977D01*
X222441D01*
Y139200D01*
D02*
G37*
G36*
X218504Y124760D02*
X217924Y124180D01*
X217458Y123373D01*
X217216Y122471D01*
Y121538D01*
X217458Y120637D01*
X217924Y119829D01*
X218504Y119250D01*
Y103545D01*
X218502Y103543D01*
X217719D01*
X216995Y103244D01*
X216441Y102690D01*
X216142Y101966D01*
Y101183D01*
X216441Y100460D01*
X216995Y99906D01*
X217719Y99606D01*
X218502D01*
X218504Y99605D01*
Y24878D01*
X218004Y24744D01*
X217691Y25286D01*
X216625Y26352D01*
X215320Y27106D01*
X213864Y27496D01*
X213610D01*
Y21772D01*
Y16047D01*
X213864D01*
X215320Y16437D01*
X216625Y17191D01*
X217691Y18257D01*
X218004Y18799D01*
X218504Y18665D01*
Y803D01*
X209398D01*
X209299Y1303D01*
X209506Y1389D01*
X210683Y2175D01*
X211683Y3176D01*
X212470Y4352D01*
X213011Y5660D01*
X213287Y7048D01*
Y8464D01*
X213011Y9852D01*
X212470Y11159D01*
X211683Y12336D01*
X210683Y13337D01*
X209506Y14123D01*
X208198Y14665D01*
X206810Y14941D01*
X205395D01*
X204007Y14665D01*
X202699Y14123D01*
X201522Y13337D01*
X200521Y12336D01*
X199735Y11159D01*
X199193Y9852D01*
X198917Y8464D01*
Y7048D01*
X199193Y5660D01*
X199735Y4352D01*
X200521Y3176D01*
X201522Y2175D01*
X202699Y1389D01*
X202906Y1303D01*
X202807Y803D01*
X159398Y803D01*
X159299Y1303D01*
X159506Y1389D01*
X160683Y2175D01*
X161683Y3176D01*
X162470Y4352D01*
X163011Y5660D01*
X163287Y7048D01*
Y8464D01*
X163011Y9852D01*
X162470Y11159D01*
X161683Y12336D01*
X160683Y13337D01*
X159506Y14123D01*
X158198Y14665D01*
X156810Y14941D01*
X155395D01*
X154007Y14665D01*
X152699Y14123D01*
X151522Y13337D01*
X150521Y12336D01*
X149735Y11159D01*
X149193Y9852D01*
X148917Y8464D01*
Y7048D01*
X149193Y5660D01*
X149735Y4352D01*
X150521Y3176D01*
X151522Y2175D01*
X152699Y1389D01*
X152906Y1303D01*
X152807Y803D01*
X64961Y803D01*
Y32257D01*
X65394Y32507D01*
X65446Y32477D01*
X66683Y32146D01*
X67963D01*
X69200Y32477D01*
X70308Y33117D01*
X71214Y34022D01*
X71854Y35131D01*
X72185Y36368D01*
Y37648D01*
X71854Y38885D01*
X71214Y39993D01*
X70308Y40899D01*
X69200Y41539D01*
X67963Y41870D01*
X66683D01*
X65446Y41539D01*
X65394Y41508D01*
X64961Y41758D01*
Y126037D01*
X65461Y126244D01*
X65814Y125890D01*
X66538Y125591D01*
X67321D01*
X68044Y125890D01*
X68598Y126444D01*
X68898Y127167D01*
Y127951D01*
X68598Y128674D01*
X68044Y129228D01*
X67321Y129528D01*
X66538D01*
X65814Y129228D01*
X65461Y128875D01*
X64961Y129082D01*
Y136614D01*
X218504D01*
Y124760D01*
D02*
G37*
G36*
X361402Y803D02*
X236221Y803D01*
Y9530D01*
X236240Y9532D01*
X237102Y9889D01*
X237842Y10457D01*
X238410Y11197D01*
X238767Y12059D01*
X238889Y12984D01*
Y13473D01*
X238767Y14397D01*
X238410Y15259D01*
X237842Y16000D01*
X237102Y16567D01*
X236240Y16925D01*
X236221Y16927D01*
Y19530D01*
X236240Y19532D01*
X237102Y19889D01*
X237842Y20457D01*
X238410Y21197D01*
X238767Y22059D01*
X238889Y22984D01*
Y23472D01*
X238767Y24397D01*
X238410Y25259D01*
X237842Y26000D01*
X237102Y26568D01*
X236240Y26924D01*
X236221Y26927D01*
Y29530D01*
X236240Y29532D01*
X237102Y29889D01*
X237842Y30457D01*
X238410Y31197D01*
X238767Y32059D01*
X238889Y32984D01*
Y33472D01*
X238767Y34397D01*
X238410Y35259D01*
X237842Y36000D01*
X237102Y36568D01*
X236240Y36924D01*
X236221Y36927D01*
Y262977D01*
X361402D01*
X361402Y803D01*
D02*
G37*
%LPC*%
G36*
X51840Y260728D02*
X50522D01*
X49229Y260471D01*
X48011Y259967D01*
X46915Y259234D01*
X45982Y258302D01*
X45250Y257206D01*
X44745Y255988D01*
X44488Y254695D01*
Y253376D01*
X44745Y252083D01*
X45250Y250865D01*
X45982Y249769D01*
X46915Y248837D01*
X48011Y248104D01*
X49229Y247600D01*
X50522Y247342D01*
X51840D01*
X53133Y247600D01*
X54351Y248104D01*
X55448Y248837D01*
X56380Y249769D01*
X57112Y250865D01*
X57617Y252083D01*
X57874Y253376D01*
Y254695D01*
X57617Y255988D01*
X57112Y257206D01*
X56380Y258302D01*
X55448Y259234D01*
X54351Y259967D01*
X53133Y260471D01*
X51840Y260728D01*
D02*
G37*
G36*
X24595Y257913D02*
X22649D01*
X20740Y257534D01*
X18941Y256789D01*
X17323Y255707D01*
X15946Y254331D01*
X14865Y252712D01*
X14120Y250914D01*
X13740Y249005D01*
Y247058D01*
X14120Y245149D01*
X14865Y243351D01*
X15946Y241732D01*
X17323Y240356D01*
X18941Y239274D01*
X20740Y238529D01*
X22649Y238150D01*
X24595D01*
X26504Y238529D01*
X28303Y239274D01*
X29921Y240356D01*
X31298Y241732D01*
X32379Y243351D01*
X33124Y245149D01*
X33504Y247058D01*
Y249005D01*
X33124Y250914D01*
X32379Y252712D01*
X31298Y254331D01*
X29921Y255707D01*
X28303Y256789D01*
X26504Y257534D01*
X24595Y257913D01*
D02*
G37*
G36*
X49704Y239350D02*
X48564D01*
X47462Y239055D01*
X46475Y238485D01*
X45668Y237679D01*
X45098Y236691D01*
X44803Y235590D01*
Y234450D01*
X45098Y233348D01*
X45668Y232361D01*
X46475Y231554D01*
X47462Y230984D01*
X48564Y230689D01*
X49704D01*
X50805Y230984D01*
X51793Y231554D01*
X52599Y232361D01*
X53169Y233348D01*
X53465Y234450D01*
Y235590D01*
X53169Y236691D01*
X52599Y237679D01*
X51793Y238485D01*
X50805Y239055D01*
X49704Y239350D01*
D02*
G37*
G36*
Y229350D02*
X48564D01*
X47462Y229055D01*
X46475Y228485D01*
X45668Y227679D01*
X45098Y226691D01*
X44803Y225590D01*
Y224450D01*
X45098Y223348D01*
X45668Y222361D01*
X46475Y221554D01*
X47462Y220984D01*
X48564Y220689D01*
X49704D01*
X50805Y220984D01*
X51793Y221554D01*
X52599Y222361D01*
X53169Y223348D01*
X53465Y224450D01*
Y225590D01*
X53169Y226691D01*
X52599Y227679D01*
X51793Y228485D01*
X50805Y229055D01*
X49704Y229350D01*
D02*
G37*
G36*
Y219350D02*
X48564D01*
X47462Y219055D01*
X46475Y218485D01*
X45668Y217679D01*
X45098Y216691D01*
X44803Y215590D01*
Y214450D01*
X45098Y213348D01*
X45668Y212361D01*
X46475Y211554D01*
X47462Y210984D01*
X48564Y210689D01*
X49704D01*
X50805Y210984D01*
X51793Y211554D01*
X52599Y212361D01*
X53169Y213348D01*
X53465Y214450D01*
Y215590D01*
X53169Y216691D01*
X52599Y217679D01*
X51793Y218485D01*
X50805Y219055D01*
X49704Y219350D01*
D02*
G37*
G36*
Y209350D02*
X48564D01*
X47462Y209055D01*
X46475Y208485D01*
X45668Y207679D01*
X45098Y206691D01*
X44803Y205590D01*
Y204450D01*
X45098Y203348D01*
X45668Y202361D01*
X46475Y201554D01*
X47462Y200984D01*
X48564Y200689D01*
X49704D01*
X50805Y200984D01*
X51793Y201554D01*
X52599Y202361D01*
X53169Y203348D01*
X53465Y204450D01*
Y205590D01*
X53169Y206691D01*
X52599Y207679D01*
X51793Y208485D01*
X50805Y209055D01*
X49704Y209350D01*
D02*
G37*
G36*
Y199350D02*
X48564D01*
X47462Y199055D01*
X46475Y198485D01*
X45668Y197679D01*
X45098Y196691D01*
X44803Y195590D01*
Y194450D01*
X45098Y193348D01*
X45668Y192361D01*
X46475Y191554D01*
X47462Y190984D01*
X48564Y190689D01*
X49704D01*
X50805Y190984D01*
X51793Y191554D01*
X52599Y192361D01*
X53169Y193348D01*
X53465Y194450D01*
Y195590D01*
X53169Y196691D01*
X52599Y197679D01*
X51793Y198485D01*
X50805Y199055D01*
X49704Y199350D01*
D02*
G37*
G36*
Y189350D02*
X48564D01*
X47462Y189055D01*
X46475Y188485D01*
X45668Y187679D01*
X45098Y186691D01*
X44803Y185590D01*
Y184450D01*
X45098Y183348D01*
X45668Y182361D01*
X46475Y181554D01*
X47462Y180984D01*
X47609Y180945D01*
Y179910D01*
X47158Y179789D01*
X45991Y179115D01*
X45038Y178162D01*
X44365Y176995D01*
X44016Y175694D01*
Y174346D01*
X44365Y173044D01*
X45038Y171877D01*
X45991Y170924D01*
X46558Y170597D01*
Y169442D01*
X45991Y169115D01*
X45038Y168162D01*
X44365Y166995D01*
X44016Y165693D01*
Y164346D01*
X44365Y163044D01*
X45038Y161877D01*
X45991Y160924D01*
X47158Y160250D01*
X48460Y159902D01*
X49808D01*
X51109Y160250D01*
X52276Y160924D01*
X53229Y161877D01*
X53903Y163044D01*
X54252Y164346D01*
Y165693D01*
X53903Y166995D01*
X53229Y168162D01*
X52276Y169115D01*
X51710Y169442D01*
Y170597D01*
X52276Y170924D01*
X53229Y171877D01*
X53903Y173044D01*
X54252Y174346D01*
Y175694D01*
X53903Y176995D01*
X53229Y178162D01*
X52276Y179115D01*
X51109Y179789D01*
X50659Y179910D01*
Y180945D01*
X50805Y180984D01*
X51793Y181554D01*
X52599Y182361D01*
X53169Y183348D01*
X53465Y184450D01*
Y185590D01*
X53169Y186691D01*
X52599Y187679D01*
X51793Y188485D01*
X50805Y189055D01*
X49704Y189350D01*
D02*
G37*
G36*
X77557Y129528D02*
X76774D01*
X76050Y129228D01*
X75497Y128674D01*
X75197Y127951D01*
Y127167D01*
X75497Y126444D01*
X76050Y125890D01*
X76774Y125591D01*
X77557D01*
X78280Y125890D01*
X78834Y126444D01*
X79134Y127167D01*
Y127951D01*
X78834Y128674D01*
X78280Y129228D01*
X77557Y129528D01*
D02*
G37*
G36*
X72439D02*
X71656D01*
X70932Y129228D01*
X70378Y128674D01*
X70079Y127951D01*
Y127167D01*
X70378Y126444D01*
X70932Y125890D01*
X71656Y125591D01*
X72439D01*
X73162Y125890D01*
X73716Y126444D01*
X74016Y127167D01*
Y127951D01*
X73716Y128674D01*
X73162Y129228D01*
X72439Y129528D01*
D02*
G37*
G36*
X199068Y117283D02*
X198136D01*
X197234Y117042D01*
X196426Y116576D01*
X195767Y115916D01*
X195300Y115108D01*
X195059Y114207D01*
Y113274D01*
X195300Y112373D01*
X195767Y111565D01*
X196426Y110905D01*
X197234Y110438D01*
X198136Y110197D01*
X199068D01*
X199970Y110438D01*
X200778Y110905D01*
X201437Y111565D01*
X201904Y112373D01*
X202145Y113274D01*
Y114207D01*
X201904Y115108D01*
X201437Y115916D01*
X200778Y116576D01*
X199970Y117042D01*
X199068Y117283D01*
D02*
G37*
G36*
X189068D02*
X188136D01*
X187234Y117042D01*
X186426Y116576D01*
X185767Y115916D01*
X185300Y115108D01*
X185059Y114207D01*
Y113274D01*
X185300Y112373D01*
X185767Y111565D01*
X186426Y110905D01*
X187234Y110438D01*
X188136Y110197D01*
X189068D01*
X189970Y110438D01*
X190778Y110905D01*
X191437Y111565D01*
X191904Y112373D01*
X192145Y113274D01*
Y114207D01*
X191904Y115108D01*
X191437Y115916D01*
X190778Y116576D01*
X189970Y117042D01*
X189068Y117283D01*
D02*
G37*
G36*
X179069D02*
X178136D01*
X177235Y117042D01*
X176427Y116576D01*
X175767Y115916D01*
X175301Y115108D01*
X175059Y114207D01*
Y113274D01*
X175301Y112373D01*
X175767Y111565D01*
X176427Y110905D01*
X177235Y110438D01*
X178136Y110197D01*
X179069D01*
X179970Y110438D01*
X180778Y110905D01*
X181438Y111565D01*
X181904Y112373D01*
X182146Y113274D01*
Y114207D01*
X181904Y115108D01*
X181438Y115916D01*
X180778Y116576D01*
X179970Y117042D01*
X179069Y117283D01*
D02*
G37*
G36*
X169069D02*
X168136D01*
X167234Y117042D01*
X166426Y116576D01*
X165767Y115916D01*
X165300Y115108D01*
X165059Y114207D01*
Y113274D01*
X165300Y112373D01*
X165767Y111565D01*
X166426Y110905D01*
X167234Y110438D01*
X168136Y110197D01*
X169069D01*
X169970Y110438D01*
X170778Y110905D01*
X171437Y111565D01*
X171904Y112373D01*
X172145Y113274D01*
Y114207D01*
X171904Y115108D01*
X171437Y115916D01*
X170778Y116576D01*
X169970Y117042D01*
X169069Y117283D01*
D02*
G37*
G36*
X194069Y107283D02*
X193136D01*
X192234Y107042D01*
X191426Y106576D01*
X190767Y105916D01*
X190300Y105108D01*
X190059Y104207D01*
Y103274D01*
X190300Y102373D01*
X190767Y101565D01*
X191426Y100905D01*
X192234Y100438D01*
X193136Y100197D01*
X194069D01*
X194970Y100438D01*
X195778Y100905D01*
X196437Y101565D01*
X196904Y102373D01*
X197145Y103274D01*
Y104207D01*
X196904Y105108D01*
X196437Y105916D01*
X195778Y106576D01*
X194970Y107042D01*
X194069Y107283D01*
D02*
G37*
G36*
X184069D02*
X183136D01*
X182234Y107042D01*
X181426Y106576D01*
X180767Y105916D01*
X180300Y105108D01*
X180059Y104207D01*
Y103274D01*
X180300Y102373D01*
X180767Y101565D01*
X181426Y100905D01*
X182234Y100438D01*
X183136Y100197D01*
X184069D01*
X184970Y100438D01*
X185778Y100905D01*
X186437Y101565D01*
X186904Y102373D01*
X187145Y103274D01*
Y104207D01*
X186904Y105108D01*
X186437Y105916D01*
X185778Y106576D01*
X184970Y107042D01*
X184069Y107283D01*
D02*
G37*
G36*
X174068D02*
X173136D01*
X172234Y107042D01*
X171426Y106576D01*
X170767Y105916D01*
X170300Y105108D01*
X170059Y104207D01*
Y103274D01*
X170300Y102373D01*
X170767Y101565D01*
X171426Y100905D01*
X172234Y100438D01*
X173136Y100197D01*
X174068D01*
X174970Y100438D01*
X175778Y100905D01*
X176437Y101565D01*
X176904Y102373D01*
X177145Y103274D01*
Y104207D01*
X176904Y105108D01*
X176437Y105916D01*
X175778Y106576D01*
X174970Y107042D01*
X174068Y107283D01*
D02*
G37*
G36*
X164068D02*
X163136D01*
X162234Y107042D01*
X161426Y106576D01*
X160767Y105916D01*
X160300Y105108D01*
X160059Y104207D01*
Y103274D01*
X160300Y102373D01*
X160767Y101565D01*
X161426Y100905D01*
X162234Y100438D01*
X163136Y100197D01*
X164068D01*
X164970Y100438D01*
X165778Y100905D01*
X166437Y101565D01*
X166904Y102373D01*
X167145Y103274D01*
Y104207D01*
X166904Y105108D01*
X166437Y105916D01*
X165778Y106576D01*
X164970Y107042D01*
X164068Y107283D01*
D02*
G37*
G36*
X212966Y99228D02*
X212764D01*
Y94398D01*
X217595D01*
Y94599D01*
X217231Y95955D01*
X216529Y97171D01*
X215537Y98163D01*
X214321Y98865D01*
X212966Y99228D01*
D02*
G37*
G36*
X150643D02*
X150441D01*
Y94398D01*
X155272D01*
Y94599D01*
X154908Y95955D01*
X154207Y97171D01*
X153214Y98163D01*
X151998Y98865D01*
X150643Y99228D01*
D02*
G37*
G36*
X211764D02*
X211562D01*
X210206Y98865D01*
X208991Y98163D01*
X207998Y97171D01*
X207296Y95955D01*
X206933Y94599D01*
Y94398D01*
X211764D01*
Y99228D01*
D02*
G37*
G36*
X217595Y93398D02*
X212764D01*
Y88567D01*
X212966D01*
X214321Y88930D01*
X215537Y89632D01*
X216529Y90624D01*
X217231Y91840D01*
X217595Y93196D01*
Y93398D01*
D02*
G37*
G36*
X211764D02*
X206933D01*
Y93196D01*
X207296Y91840D01*
X207998Y90624D01*
X208991Y89632D01*
X210206Y88930D01*
X211562Y88567D01*
X211764D01*
Y93398D01*
D02*
G37*
G36*
X155272D02*
X150441D01*
Y88567D01*
X150643D01*
X151998Y88930D01*
X153214Y89632D01*
X154207Y90624D01*
X154908Y91840D01*
X155272Y93196D01*
Y93398D01*
D02*
G37*
G36*
X144095Y101885D02*
X74016D01*
X73708Y101824D01*
X73448Y101650D01*
X73274Y101390D01*
X73213Y101083D01*
Y42224D01*
X73274Y41917D01*
X73448Y41657D01*
X73708Y41483D01*
X74016Y41422D01*
X144095D01*
X144402Y41483D01*
X144662Y41657D01*
X144836Y41917D01*
X144897Y42224D01*
Y90972D01*
X145397Y91106D01*
X145675Y90624D01*
X146668Y89632D01*
X147883Y88930D01*
X149239Y88567D01*
X149441D01*
Y93898D01*
Y99228D01*
X149239D01*
X147883Y98865D01*
X146668Y98163D01*
X145675Y97171D01*
X145397Y96689D01*
X144897Y96823D01*
Y101083D01*
X144836Y101390D01*
X144662Y101650D01*
X144402Y101824D01*
X144095Y101885D01*
D02*
G37*
G36*
X204310Y85925D02*
X202895D01*
X201507Y85649D01*
X200199Y85107D01*
X199022Y84321D01*
X198021Y83320D01*
X197235Y82143D01*
X196693Y80836D01*
X196417Y79448D01*
Y78032D01*
X196693Y76644D01*
X197235Y75337D01*
X198021Y74160D01*
X199022Y73159D01*
X200199Y72373D01*
X201507Y71831D01*
X202895Y71555D01*
X204310D01*
X205698Y71831D01*
X207006Y72373D01*
X208183Y73159D01*
X209183Y74160D01*
X209970Y75337D01*
X210511Y76644D01*
X210787Y78032D01*
Y79448D01*
X210511Y80836D01*
X209970Y82143D01*
X209183Y83320D01*
X208183Y84321D01*
X207006Y85107D01*
X205698Y85649D01*
X204310Y85925D01*
D02*
G37*
G36*
X159310D02*
X157895D01*
X156507Y85649D01*
X155199Y85107D01*
X154022Y84321D01*
X153021Y83320D01*
X152235Y82143D01*
X151693Y80836D01*
X151417Y79448D01*
Y78032D01*
X151693Y76644D01*
X152235Y75337D01*
X153021Y74160D01*
X154022Y73159D01*
X155199Y72373D01*
X156507Y71831D01*
X157895Y71555D01*
X159310D01*
X160698Y71831D01*
X162006Y72373D01*
X163183Y73159D01*
X164183Y74160D01*
X164970Y75337D01*
X165511Y76644D01*
X165787Y78032D01*
Y79448D01*
X165511Y80836D01*
X164970Y82143D01*
X164183Y83320D01*
X163183Y84321D01*
X162006Y85107D01*
X160698Y85649D01*
X159310Y85925D01*
D02*
G37*
G36*
X206496Y66339D02*
X205511D01*
X204560Y66084D01*
X203707Y65591D01*
X203011Y64895D01*
X202519Y64042D01*
X202264Y63091D01*
Y62106D01*
X202519Y61155D01*
X203011Y60302D01*
X203707Y59606D01*
X204560Y59113D01*
X205511Y58858D01*
X206496D01*
X207448Y59113D01*
X208300Y59606D01*
X208997Y60302D01*
X209489Y61155D01*
X209744Y62106D01*
Y63091D01*
X209489Y64042D01*
X208997Y64895D01*
X208300Y65591D01*
X207448Y66084D01*
X206496Y66339D01*
D02*
G37*
G36*
X196457D02*
X195472D01*
X194521Y66084D01*
X193668Y65591D01*
X192972Y64895D01*
X192479Y64042D01*
X192224Y63091D01*
Y62106D01*
X192479Y61155D01*
X192972Y60302D01*
X193668Y59606D01*
X194521Y59113D01*
X195472Y58858D01*
X196457D01*
X197408Y59113D01*
X198261Y59606D01*
X198957Y60302D01*
X199450Y61155D01*
X199705Y62106D01*
Y63091D01*
X199450Y64042D01*
X198957Y64895D01*
X198261Y65591D01*
X197408Y66084D01*
X196457Y66339D01*
D02*
G37*
G36*
X166733D02*
X165748D01*
X164796Y66084D01*
X163944Y65591D01*
X163247Y64895D01*
X162755Y64042D01*
X162500Y63091D01*
Y62106D01*
X162755Y61155D01*
X163247Y60302D01*
X163944Y59606D01*
X164796Y59113D01*
X165748Y58858D01*
X166733D01*
X167684Y59113D01*
X168537Y59606D01*
X169233Y60302D01*
X169725Y61155D01*
X169980Y62106D01*
Y63091D01*
X169725Y64042D01*
X169233Y64895D01*
X168537Y65591D01*
X167684Y66084D01*
X166733Y66339D01*
D02*
G37*
G36*
X156693D02*
X155708D01*
X154757Y66084D01*
X153904Y65591D01*
X153208Y64895D01*
X152716Y64042D01*
X152461Y63091D01*
Y62106D01*
X152716Y61155D01*
X153208Y60302D01*
X153904Y59606D01*
X154757Y59113D01*
X155708Y58858D01*
X156693D01*
X157644Y59113D01*
X158497Y59606D01*
X159194Y60302D01*
X159686Y61155D01*
X159941Y62106D01*
Y63091D01*
X159686Y64042D01*
X159194Y64895D01*
X158497Y65591D01*
X157644Y66084D01*
X156693Y66339D01*
D02*
G37*
G36*
X199548Y47146D02*
X198641D01*
X197765Y46911D01*
X196979Y46457D01*
X196338Y45816D01*
X195884Y45031D01*
X195650Y44154D01*
Y43247D01*
X195884Y42371D01*
X196338Y41586D01*
X196979Y40944D01*
X197765Y40491D01*
X198641Y40256D01*
X199548D01*
X200424Y40491D01*
X201210Y40944D01*
X201851Y41586D01*
X202305Y42371D01*
X202539Y43247D01*
Y44154D01*
X202305Y45031D01*
X201851Y45816D01*
X201210Y46457D01*
X200424Y46911D01*
X199548Y47146D01*
D02*
G37*
G36*
X154548D02*
X153641D01*
X152765Y46911D01*
X151979Y46457D01*
X151338Y45816D01*
X150884Y45031D01*
X150650Y44154D01*
Y43247D01*
X150884Y42371D01*
X151338Y41586D01*
X151979Y40944D01*
X152765Y40491D01*
X153641Y40256D01*
X154548D01*
X155424Y40491D01*
X156210Y40944D01*
X156851Y41586D01*
X157305Y42371D01*
X157539Y43247D01*
Y44154D01*
X157305Y45031D01*
X156851Y45816D01*
X156210Y46457D01*
X155424Y46911D01*
X154548Y47146D01*
D02*
G37*
G36*
X208667Y47933D02*
X207553D01*
X206477Y47645D01*
X205512Y47087D01*
X204724Y46299D01*
X204166Y45334D01*
X203878Y44258D01*
Y43144D01*
X204166Y42067D01*
X204724Y41102D01*
X205512Y40314D01*
X206477Y39757D01*
X207553Y39469D01*
X208667D01*
X209744Y39757D01*
X210709Y40314D01*
X211497Y41102D01*
X212054Y42067D01*
X212343Y43144D01*
Y44258D01*
X212054Y45334D01*
X211497Y46299D01*
X210709Y47087D01*
X209744Y47645D01*
X208667Y47933D01*
D02*
G37*
G36*
X163667D02*
X162553D01*
X161477Y47645D01*
X160512Y47087D01*
X159724Y46299D01*
X159166Y45334D01*
X158878Y44258D01*
Y43144D01*
X159166Y42067D01*
X159724Y41102D01*
X160512Y40314D01*
X161477Y39757D01*
X162553Y39469D01*
X163667D01*
X164744Y39757D01*
X165709Y40314D01*
X166497Y41102D01*
X167054Y42067D01*
X167342Y43144D01*
Y44258D01*
X167054Y45334D01*
X166497Y46299D01*
X165709Y47087D01*
X164744Y47645D01*
X163667Y47933D01*
D02*
G37*
G36*
X116292Y39169D02*
X115508D01*
X114785Y38869D01*
X114231Y38315D01*
X114111Y38026D01*
X114024Y37984D01*
X113537Y37947D01*
X113115Y38369D01*
X112392Y38669D01*
X111608D01*
X110885Y38369D01*
X110331Y37815D01*
X110031Y37092D01*
Y36308D01*
X110331Y35585D01*
X110885Y35031D01*
X111608Y34732D01*
X112392D01*
X113115Y35031D01*
X113669Y35585D01*
X113789Y35874D01*
X113876Y35916D01*
X114363Y35953D01*
X114785Y35531D01*
X115508Y35232D01*
X116292D01*
X117015Y35531D01*
X117569Y36085D01*
X117868Y36808D01*
Y37592D01*
X117569Y38315D01*
X117015Y38869D01*
X116292Y39169D01*
D02*
G37*
G36*
X85854Y37069D02*
X85071D01*
X84347Y36769D01*
X84031Y36453D01*
X83715Y36769D01*
X82992Y37069D01*
X82208D01*
X81485Y36769D01*
X80931Y36215D01*
X80632Y35492D01*
Y34708D01*
X80931Y33985D01*
X81485Y33431D01*
X82208Y33132D01*
X82992D01*
X83715Y33431D01*
X84031Y33747D01*
X84347Y33431D01*
X85071Y33132D01*
X85854D01*
X86577Y33431D01*
X87131Y33985D01*
X87431Y34708D01*
Y35492D01*
X87131Y36215D01*
X86577Y36769D01*
X85854Y37069D01*
D02*
G37*
G36*
X212610Y27496D02*
X212357D01*
X210901Y27106D01*
X209595Y26352D01*
X208530Y25286D01*
X207776Y23981D01*
X207386Y22525D01*
Y22272D01*
X212610D01*
Y27496D01*
D02*
G37*
G36*
X149848D02*
X149594D01*
Y22272D01*
X154819D01*
Y22525D01*
X154429Y23981D01*
X153675Y25286D01*
X152609Y26352D01*
X151304Y27106D01*
X149848Y27496D01*
D02*
G37*
G36*
X148594D02*
X148341D01*
X146885Y27106D01*
X145580Y26352D01*
X144514Y25286D01*
X143760Y23981D01*
X143370Y22525D01*
Y22272D01*
X148594D01*
Y27496D01*
D02*
G37*
G36*
X191595Y28209D02*
X190688D01*
X189812Y27974D01*
X189026Y27520D01*
X188385Y26879D01*
X187932Y26094D01*
X187697Y25217D01*
Y24310D01*
X187932Y23434D01*
X188385Y22649D01*
X189026Y22007D01*
X189812Y21554D01*
X190688Y21319D01*
X191595D01*
X192471Y21554D01*
X193257Y22007D01*
X193898Y22649D01*
X194352Y23434D01*
X194587Y24310D01*
Y25217D01*
X194352Y26094D01*
X193898Y26879D01*
X193257Y27520D01*
X192471Y27974D01*
X191595Y28209D01*
D02*
G37*
G36*
X183564D02*
X182657D01*
X181781Y27974D01*
X180995Y27520D01*
X180354Y26879D01*
X179900Y26094D01*
X179665Y25217D01*
Y24310D01*
X179900Y23434D01*
X180354Y22649D01*
X180995Y22007D01*
X181781Y21554D01*
X182657Y21319D01*
X183564D01*
X184440Y21554D01*
X185225Y22007D01*
X185867Y22649D01*
X186320Y23434D01*
X186555Y24310D01*
Y25217D01*
X186320Y26094D01*
X185867Y26879D01*
X185225Y27520D01*
X184440Y27974D01*
X183564Y28209D01*
D02*
G37*
G36*
X175532D02*
X174625D01*
X173749Y27974D01*
X172964Y27520D01*
X172322Y26879D01*
X171869Y26094D01*
X171634Y25217D01*
Y24310D01*
X171869Y23434D01*
X172322Y22649D01*
X172964Y22007D01*
X173749Y21554D01*
X174625Y21319D01*
X175532D01*
X176408Y21554D01*
X177194Y22007D01*
X177835Y22649D01*
X178289Y23434D01*
X178524Y24310D01*
Y25217D01*
X178289Y26094D01*
X177835Y26879D01*
X177194Y27520D01*
X176408Y27974D01*
X175532Y28209D01*
D02*
G37*
G36*
X167501D02*
X166594D01*
X165718Y27974D01*
X164932Y27520D01*
X164291Y26879D01*
X163837Y26094D01*
X163602Y25217D01*
Y24310D01*
X163837Y23434D01*
X164291Y22649D01*
X164932Y22007D01*
X165718Y21554D01*
X166594Y21319D01*
X167501D01*
X168377Y21554D01*
X169162Y22007D01*
X169804Y22649D01*
X170257Y23434D01*
X170492Y24310D01*
Y25217D01*
X170257Y26094D01*
X169804Y26879D01*
X169162Y27520D01*
X168377Y27974D01*
X167501Y28209D01*
D02*
G37*
G36*
X212610Y21272D02*
X207386D01*
Y21018D01*
X207776Y19562D01*
X208530Y18257D01*
X209595Y17191D01*
X210901Y16437D01*
X212357Y16047D01*
X212610D01*
Y21272D01*
D02*
G37*
G36*
X154819D02*
X149594D01*
Y16047D01*
X149848D01*
X151304Y16437D01*
X152609Y17191D01*
X153675Y18257D01*
X154429Y19562D01*
X154819Y21018D01*
Y21272D01*
D02*
G37*
G36*
X148594D02*
X143370D01*
Y21018D01*
X143760Y19562D01*
X144514Y18257D01*
X145580Y17191D01*
X146885Y16437D01*
X148341Y16047D01*
X148594D01*
Y21272D01*
D02*
G37*
G36*
X195611Y21201D02*
X194704D01*
X193828Y20966D01*
X193042Y20513D01*
X192401Y19871D01*
X191947Y19086D01*
X191713Y18210D01*
Y17302D01*
X191947Y16426D01*
X192401Y15641D01*
X193042Y14999D01*
X193828Y14546D01*
X194704Y14311D01*
X195611D01*
X196487Y14546D01*
X197273Y14999D01*
X197914Y15641D01*
X198368Y16426D01*
X198602Y17302D01*
Y18210D01*
X198368Y19086D01*
X197914Y19871D01*
X197273Y20513D01*
X196487Y20966D01*
X195611Y21201D01*
D02*
G37*
G36*
X187580D02*
X186672D01*
X185796Y20966D01*
X185011Y20513D01*
X184369Y19871D01*
X183916Y19086D01*
X183681Y18210D01*
Y17302D01*
X183916Y16426D01*
X184369Y15641D01*
X185011Y14999D01*
X185796Y14546D01*
X186672Y14311D01*
X187580D01*
X188456Y14546D01*
X189241Y14999D01*
X189883Y15641D01*
X190336Y16426D01*
X190571Y17302D01*
Y18210D01*
X190336Y19086D01*
X189883Y19871D01*
X189241Y20513D01*
X188456Y20966D01*
X187580Y21201D01*
D02*
G37*
G36*
X179548D02*
X178641D01*
X177765Y20966D01*
X176979Y20513D01*
X176338Y19871D01*
X175884Y19086D01*
X175650Y18210D01*
Y17302D01*
X175884Y16426D01*
X176338Y15641D01*
X176979Y14999D01*
X177765Y14546D01*
X178641Y14311D01*
X179548D01*
X180424Y14546D01*
X181210Y14999D01*
X181851Y15641D01*
X182305Y16426D01*
X182539Y17302D01*
Y18210D01*
X182305Y19086D01*
X181851Y19871D01*
X181210Y20513D01*
X180424Y20966D01*
X179548Y21201D01*
D02*
G37*
G36*
X171517D02*
X170609D01*
X169733Y20966D01*
X168948Y20513D01*
X168306Y19871D01*
X167853Y19086D01*
X167618Y18210D01*
Y17302D01*
X167853Y16426D01*
X168306Y15641D01*
X168948Y14999D01*
X169733Y14546D01*
X170609Y14311D01*
X171517D01*
X172393Y14546D01*
X173178Y14999D01*
X173820Y15641D01*
X174273Y16426D01*
X174508Y17302D01*
Y18210D01*
X174273Y19086D01*
X173820Y19871D01*
X173178Y20513D01*
X172393Y20966D01*
X171517Y21201D01*
D02*
G37*
G36*
X339499Y257339D02*
X339083D01*
Y248532D01*
X347890D01*
Y248948D01*
X347532Y250746D01*
X346831Y252440D01*
X345812Y253964D01*
X344516Y255261D01*
X342991Y256279D01*
X341297Y256981D01*
X339499Y257339D01*
D02*
G37*
G36*
X338083D02*
X337666D01*
X335868Y256981D01*
X334174Y256279D01*
X332650Y255261D01*
X331353Y253964D01*
X330335Y252440D01*
X329633Y250746D01*
X329276Y248948D01*
Y248532D01*
X338083D01*
Y257339D01*
D02*
G37*
G36*
X307746Y260728D02*
X306427D01*
X305134Y260471D01*
X303916Y259967D01*
X302820Y259234D01*
X301888Y258302D01*
X301155Y257206D01*
X300651Y255988D01*
X300394Y254695D01*
Y253376D01*
X300651Y252083D01*
X301155Y250865D01*
X301888Y249769D01*
X302820Y248837D01*
X303916Y248104D01*
X305134Y247600D01*
X306427Y247342D01*
X307746D01*
X309039Y247600D01*
X310257Y248104D01*
X311353Y248837D01*
X312285Y249769D01*
X313018Y250865D01*
X313522Y252083D01*
X313779Y253376D01*
Y254695D01*
X313522Y255988D01*
X313018Y257206D01*
X312285Y258302D01*
X311353Y259234D01*
X310257Y259967D01*
X309039Y260471D01*
X307746Y260728D01*
D02*
G37*
G36*
X347890Y247532D02*
X339083D01*
Y238724D01*
X339499D01*
X341297Y239082D01*
X342991Y239784D01*
X344516Y240802D01*
X345812Y242099D01*
X346831Y243623D01*
X347532Y245317D01*
X347890Y247115D01*
Y247532D01*
D02*
G37*
G36*
X338083D02*
X329276D01*
Y247115D01*
X329633Y245317D01*
X330335Y243623D01*
X331353Y242099D01*
X332650Y240802D01*
X334174Y239784D01*
X335868Y239082D01*
X337666Y238724D01*
X338083D01*
Y247532D01*
D02*
G37*
G36*
X309704Y239350D02*
X308564D01*
X307462Y239055D01*
X306475Y238485D01*
X305668Y237679D01*
X305098Y236691D01*
X304803Y235590D01*
Y234450D01*
X305098Y233348D01*
X305668Y232361D01*
X306475Y231554D01*
X307462Y230984D01*
X308564Y230689D01*
X309704D01*
X310806Y230984D01*
X311793Y231554D01*
X312599Y232361D01*
X313169Y233348D01*
X313465Y234450D01*
Y235590D01*
X313169Y236691D01*
X312599Y237679D01*
X311793Y238485D01*
X310806Y239055D01*
X309704Y239350D01*
D02*
G37*
G36*
X309732Y229563D02*
X309634D01*
Y225520D01*
X313677D01*
Y225618D01*
X313368Y226773D01*
X312769Y227809D01*
X311924Y228655D01*
X310888Y229253D01*
X309732Y229563D01*
D02*
G37*
G36*
X308634D02*
X308536D01*
X307380Y229253D01*
X306344Y228655D01*
X305498Y227809D01*
X304900Y226773D01*
X304591Y225618D01*
Y225520D01*
X308634D01*
Y229563D01*
D02*
G37*
G36*
X340657Y226137D02*
Y222941D01*
X343854D01*
X343605Y223869D01*
X343118Y224713D01*
X342429Y225402D01*
X341586Y225889D01*
X340657Y226137D01*
D02*
G37*
G36*
X339657Y226137D02*
X338729Y225889D01*
X337886Y225402D01*
X337197Y224713D01*
X336710Y223869D01*
X336461Y222941D01*
X339657D01*
Y226137D01*
D02*
G37*
G36*
X313677Y224520D02*
X309634D01*
Y220476D01*
X309732D01*
X310888Y220786D01*
X311924Y221384D01*
X312769Y222230D01*
X313368Y223266D01*
X313677Y224422D01*
Y224520D01*
D02*
G37*
G36*
X308634D02*
X304591D01*
Y224422D01*
X304900Y223266D01*
X305498Y222230D01*
X306344Y221384D01*
X307380Y220786D01*
X308536Y220476D01*
X308634D01*
Y224520D01*
D02*
G37*
G36*
X343854Y221941D02*
X340657D01*
Y218744D01*
X341586Y218993D01*
X342429Y219480D01*
X343118Y220169D01*
X343605Y221013D01*
X343854Y221941D01*
D02*
G37*
G36*
X339657D02*
X336461D01*
X336710Y221013D01*
X337197Y220169D01*
X337886Y219480D01*
X338729Y218993D01*
X339657Y218744D01*
Y221941D01*
D02*
G37*
G36*
X309732Y219563D02*
X309634D01*
Y215520D01*
X313677D01*
Y215618D01*
X313368Y216773D01*
X312769Y217809D01*
X311924Y218655D01*
X310888Y219253D01*
X309732Y219563D01*
D02*
G37*
G36*
X308634D02*
X308536D01*
X307380Y219253D01*
X306344Y218655D01*
X305498Y217809D01*
X304900Y216773D01*
X304591Y215618D01*
Y215520D01*
X308634D01*
Y219563D01*
D02*
G37*
G36*
X313677Y214520D02*
X309634D01*
Y210476D01*
X309732D01*
X310888Y210786D01*
X311924Y211384D01*
X312769Y212230D01*
X313368Y213266D01*
X313677Y214422D01*
Y214520D01*
D02*
G37*
G36*
X308634D02*
X304591D01*
Y214422D01*
X304900Y213266D01*
X305498Y212230D01*
X306344Y211384D01*
X307380Y210786D01*
X308536Y210476D01*
X308634D01*
Y214520D01*
D02*
G37*
G36*
X309704Y209350D02*
X308564D01*
X307462Y209055D01*
X306475Y208485D01*
X305668Y207679D01*
X305098Y206691D01*
X304803Y205590D01*
Y204450D01*
X305098Y203348D01*
X305668Y202361D01*
X306475Y201554D01*
X307462Y200984D01*
X308564Y200689D01*
X309704D01*
X310806Y200984D01*
X311793Y201554D01*
X312599Y202361D01*
X313169Y203348D01*
X313465Y204450D01*
Y205590D01*
X313169Y206691D01*
X312599Y207679D01*
X311793Y208485D01*
X310806Y209055D01*
X309704Y209350D01*
D02*
G37*
G36*
X340617Y206243D02*
X339698D01*
X338811Y206006D01*
X338016Y205546D01*
X337367Y204897D01*
X336908Y204102D01*
X336670Y203215D01*
Y202297D01*
X336908Y201410D01*
X337367Y200615D01*
X338016Y199965D01*
X338811Y199506D01*
X339698Y199268D01*
X340617D01*
X341504Y199506D01*
X342299Y199965D01*
X342948Y200615D01*
X343407Y201410D01*
X343645Y202297D01*
Y203215D01*
X343407Y204102D01*
X342948Y204897D01*
X342299Y205546D01*
X341504Y206006D01*
X340617Y206243D01*
D02*
G37*
G36*
X309704Y199350D02*
X308564D01*
X307462Y199055D01*
X306475Y198485D01*
X305668Y197679D01*
X305098Y196691D01*
X304803Y195590D01*
Y194450D01*
X305098Y193348D01*
X305668Y192361D01*
X306475Y191554D01*
X307462Y190984D01*
X308564Y190689D01*
X309704D01*
X310806Y190984D01*
X311793Y191554D01*
X312599Y192361D01*
X313169Y193348D01*
X313465Y194450D01*
Y195590D01*
X313169Y196691D01*
X312599Y197679D01*
X311793Y198485D01*
X310806Y199055D01*
X309704Y199350D01*
D02*
G37*
G36*
X343346Y187539D02*
X342481D01*
X341645Y187315D01*
X340895Y186882D01*
X340451Y186438D01*
X339961Y186337D01*
X339471Y186438D01*
X339026Y186882D01*
X338277Y187315D01*
X337441Y187539D01*
X336575D01*
X335739Y187315D01*
X334989Y186882D01*
X334377Y186270D01*
X333945Y185521D01*
X333720Y184685D01*
Y183819D01*
X333945Y182983D01*
X334377Y182234D01*
X334989Y181621D01*
X335739Y181189D01*
X336575Y180965D01*
X337441D01*
X338277Y181189D01*
X339026Y181621D01*
X339471Y182066D01*
X339961Y182167D01*
X340451Y182066D01*
X340895Y181621D01*
X341645Y181189D01*
X342481Y180965D01*
X343346D01*
X344182Y181189D01*
X344932Y181621D01*
X345544Y182234D01*
X345977Y182983D01*
X346201Y183819D01*
Y184685D01*
X345977Y185521D01*
X345544Y186270D01*
X344932Y186882D01*
X344182Y187315D01*
X343346Y187539D01*
D02*
G37*
G36*
X309704Y189350D02*
X308564D01*
X307462Y189055D01*
X306475Y188485D01*
X305668Y187679D01*
X305098Y186691D01*
X304803Y185590D01*
Y184450D01*
X305098Y183348D01*
X305668Y182361D01*
X306475Y181554D01*
X307462Y180984D01*
X308564Y180689D01*
X309704D01*
X310806Y180984D01*
X311793Y181554D01*
X312599Y182361D01*
X313169Y183348D01*
X313465Y184450D01*
Y185590D01*
X313169Y186691D01*
X312599Y187679D01*
X311793Y188485D01*
X310806Y189055D01*
X309704Y189350D01*
D02*
G37*
G36*
Y179350D02*
X308564D01*
X307462Y179055D01*
X306475Y178485D01*
X305668Y177679D01*
X305098Y176691D01*
X304803Y175590D01*
Y174450D01*
X305098Y173348D01*
X305668Y172361D01*
X306475Y171554D01*
X307462Y170984D01*
X308564Y170689D01*
X309704D01*
X310806Y170984D01*
X311793Y171554D01*
X312599Y172361D01*
X313169Y173348D01*
X313465Y174450D01*
Y175590D01*
X313169Y176691D01*
X312599Y177679D01*
X311793Y178485D01*
X310806Y179055D01*
X309704Y179350D01*
D02*
G37*
G36*
X340617Y177109D02*
X339698D01*
X338811Y176872D01*
X338016Y176413D01*
X337367Y175763D01*
X336908Y174968D01*
X336670Y174081D01*
Y173163D01*
X336908Y172276D01*
X337367Y171481D01*
X338016Y170831D01*
X338811Y170372D01*
X339698Y170135D01*
X340617D01*
X341504Y170372D01*
X342299Y170831D01*
X342948Y171481D01*
X343407Y172276D01*
X343645Y173163D01*
Y174081D01*
X343407Y174968D01*
X342948Y175763D01*
X342299Y176413D01*
X341504Y176872D01*
X340617Y177109D01*
D02*
G37*
G36*
X309704Y169350D02*
X308564D01*
X307462Y169055D01*
X306475Y168485D01*
X305668Y167679D01*
X305098Y166691D01*
X304803Y165590D01*
Y164450D01*
X305098Y163348D01*
X305668Y162361D01*
X306475Y161554D01*
X307462Y160984D01*
X308564Y160689D01*
X309704D01*
X310806Y160984D01*
X311793Y161554D01*
X312599Y162361D01*
X313169Y163348D01*
X313465Y164450D01*
Y165590D01*
X313169Y166691D01*
X312599Y167679D01*
X311793Y168485D01*
X310806Y169055D01*
X309704Y169350D01*
D02*
G37*
G36*
Y159350D02*
X308564D01*
X307462Y159055D01*
X306475Y158485D01*
X305668Y157679D01*
X305098Y156691D01*
X304803Y155590D01*
Y154450D01*
X305098Y153348D01*
X305668Y152361D01*
X306475Y151554D01*
X307462Y150984D01*
X308564Y150689D01*
X309704D01*
X310806Y150984D01*
X311793Y151554D01*
X312599Y152361D01*
X313169Y153348D01*
X313465Y154450D01*
Y155590D01*
X313169Y156691D01*
X312599Y157679D01*
X311793Y158485D01*
X310806Y159055D01*
X309704Y159350D01*
D02*
G37*
G36*
X340617Y157424D02*
X339698D01*
X338811Y157187D01*
X338016Y156728D01*
X337367Y156078D01*
X336908Y155283D01*
X336670Y154396D01*
Y153478D01*
X336908Y152591D01*
X337367Y151796D01*
X338016Y151146D01*
X338811Y150687D01*
X339698Y150450D01*
X340617D01*
X341504Y150687D01*
X342299Y151146D01*
X342948Y151796D01*
X343407Y152591D01*
X343645Y153478D01*
Y154396D01*
X343407Y155283D01*
X342948Y156078D01*
X342299Y156728D01*
X341504Y157187D01*
X340617Y157424D01*
D02*
G37*
G36*
X307746Y142421D02*
X306427D01*
X305134Y142164D01*
X303916Y141659D01*
X302820Y140927D01*
X301888Y139995D01*
X301155Y138899D01*
X300651Y137681D01*
X300394Y136388D01*
Y135069D01*
X300651Y133776D01*
X301155Y132558D01*
X301888Y131462D01*
X302820Y130530D01*
X303916Y129797D01*
X305134Y129293D01*
X306427Y129035D01*
X307746D01*
X309039Y129293D01*
X310257Y129797D01*
X311353Y130530D01*
X312285Y131462D01*
X313018Y132558D01*
X313522Y133776D01*
X313779Y135069D01*
Y136388D01*
X313522Y137681D01*
X313018Y138899D01*
X312285Y139995D01*
X311353Y140927D01*
X310257Y141659D01*
X309039Y142164D01*
X307746Y142421D01*
D02*
G37*
G36*
X314565Y122047D02*
X313782D01*
X313058Y121748D01*
X312504Y121194D01*
X312205Y120470D01*
Y119687D01*
X312504Y118964D01*
X313058Y118410D01*
X313782Y118110D01*
X314565D01*
X315288Y118410D01*
X315842Y118964D01*
X316142Y119687D01*
Y120470D01*
X315842Y121194D01*
X315288Y121748D01*
X314565Y122047D01*
D02*
G37*
G36*
X331100Y121260D02*
X330317D01*
X329594Y120960D01*
X329040Y120406D01*
X328740Y119683D01*
Y118900D01*
X329040Y118176D01*
X329594Y117622D01*
X330317Y117323D01*
X331100D01*
X331824Y117622D01*
X332378Y118176D01*
X332677Y118900D01*
Y119683D01*
X332378Y120406D01*
X331824Y120960D01*
X331100Y121260D01*
D02*
G37*
G36*
X252575Y119110D02*
X248925D01*
Y115461D01*
X252575D01*
Y119110D01*
D02*
G37*
G36*
X247925D02*
X244276D01*
Y115461D01*
X247925D01*
Y119110D01*
D02*
G37*
G36*
X298943Y118898D02*
X297907D01*
X296906Y118629D01*
X296008Y118111D01*
X295275Y117378D01*
X294757Y116480D01*
X294488Y115479D01*
Y114442D01*
X294757Y113441D01*
X295275Y112543D01*
X296008Y111810D01*
X296906Y111292D01*
X297907Y111024D01*
X298943D01*
X299945Y111292D01*
X300843Y111810D01*
X301576Y112543D01*
X302094Y113441D01*
X302362Y114442D01*
Y115479D01*
X302094Y116480D01*
X301576Y117378D01*
X300843Y118111D01*
X299945Y118629D01*
X298943Y118898D01*
D02*
G37*
G36*
X288944D02*
X287907D01*
X286906Y118629D01*
X286008Y118111D01*
X285275Y117378D01*
X284756Y116480D01*
X284488Y115479D01*
Y114442D01*
X284756Y113441D01*
X285275Y112543D01*
X286008Y111810D01*
X286906Y111292D01*
X287907Y111024D01*
X288944D01*
X289945Y111292D01*
X290843Y111810D01*
X291576Y112543D01*
X292094Y113441D01*
X292362Y114442D01*
Y115479D01*
X292094Y116480D01*
X291576Y117378D01*
X290843Y118111D01*
X289945Y118629D01*
X288944Y118898D01*
D02*
G37*
G36*
X278943D02*
X277907D01*
X276906Y118629D01*
X276008Y118111D01*
X275275Y117378D01*
X274757Y116480D01*
X274488Y115479D01*
Y114442D01*
X274757Y113441D01*
X275275Y112543D01*
X276008Y111810D01*
X276906Y111292D01*
X277907Y111024D01*
X278943D01*
X279945Y111292D01*
X280843Y111810D01*
X281576Y112543D01*
X282094Y113441D01*
X282362Y114442D01*
Y115479D01*
X282094Y116480D01*
X281576Y117378D01*
X280843Y118111D01*
X279945Y118629D01*
X278943Y118898D01*
D02*
G37*
G36*
X268944D02*
X267907D01*
X266906Y118629D01*
X266008Y118111D01*
X265275Y117378D01*
X264756Y116480D01*
X264488Y115479D01*
Y114442D01*
X264756Y113441D01*
X265275Y112543D01*
X266008Y111810D01*
X266906Y111292D01*
X267907Y111024D01*
X268944D01*
X269945Y111292D01*
X270843Y111810D01*
X271576Y112543D01*
X272094Y113441D01*
X272362Y114442D01*
Y115479D01*
X272094Y116480D01*
X271576Y117378D01*
X270843Y118111D01*
X269945Y118629D01*
X268944Y118898D01*
D02*
G37*
G36*
X258944D02*
X257907D01*
X256906Y118629D01*
X256008Y118111D01*
X255275Y117378D01*
X254756Y116480D01*
X254488Y115479D01*
Y114442D01*
X254756Y113441D01*
X255275Y112543D01*
X256008Y111810D01*
X256906Y111292D01*
X257907Y111024D01*
X258944D01*
X259945Y111292D01*
X260843Y111810D01*
X261576Y112543D01*
X262094Y113441D01*
X262362Y114442D01*
Y115479D01*
X262094Y116480D01*
X261576Y117378D01*
X260843Y118111D01*
X259945Y118629D01*
X258944Y118898D01*
D02*
G37*
G36*
X252575Y114461D02*
X248925D01*
Y110811D01*
X252575D01*
Y114461D01*
D02*
G37*
G36*
X247925D02*
X244276D01*
Y110811D01*
X247925D01*
Y114461D01*
D02*
G37*
G36*
X331171Y109654D02*
X330388D01*
X329664Y109354D01*
X329111Y108800D01*
X328811Y108077D01*
Y107293D01*
X329111Y106570D01*
X329664Y106016D01*
X330388Y105717D01*
X331171D01*
X331895Y106016D01*
X332448Y106570D01*
X332748Y107293D01*
Y108077D01*
X332448Y108800D01*
X331895Y109354D01*
X331171Y109654D01*
D02*
G37*
G36*
X310171D02*
X309388D01*
X308664Y109354D01*
X308111Y108800D01*
X307811Y108077D01*
Y107293D01*
X308111Y106570D01*
X308664Y106016D01*
X309388Y105717D01*
X310171D01*
X310895Y106016D01*
X311448Y106570D01*
X311748Y107293D01*
Y108077D01*
X311448Y108800D01*
X310895Y109354D01*
X310171Y109654D01*
D02*
G37*
G36*
X303147Y108267D02*
X302364D01*
X301640Y107968D01*
X301086Y107414D01*
X300787Y106691D01*
Y105907D01*
X301086Y105184D01*
X301640Y104630D01*
X302364Y104331D01*
X303147D01*
X303870Y104630D01*
X304424Y105184D01*
X304724Y105907D01*
Y106691D01*
X304424Y107414D01*
X303870Y107968D01*
X303147Y108267D01*
D02*
G37*
G36*
X334671Y102654D02*
X333888D01*
X333164Y102354D01*
X332611Y101800D01*
X332311Y101077D01*
Y100294D01*
X332611Y99570D01*
X333164Y99016D01*
X333888Y98717D01*
X334671D01*
X335395Y99016D01*
X335948Y99570D01*
X336248Y100294D01*
Y101077D01*
X335948Y101800D01*
X335395Y102354D01*
X334671Y102654D01*
D02*
G37*
G36*
X327671D02*
X326888D01*
X326164Y102354D01*
X325611Y101800D01*
X325311Y101077D01*
Y100294D01*
X325611Y99570D01*
X326164Y99016D01*
X326888Y98717D01*
X327671D01*
X328395Y99016D01*
X328948Y99570D01*
X329248Y100294D01*
Y101077D01*
X328948Y101800D01*
X328395Y102354D01*
X327671Y102654D01*
D02*
G37*
G36*
X320671D02*
X319888D01*
X319164Y102354D01*
X318611Y101800D01*
X318311Y101077D01*
Y100294D01*
X318611Y99570D01*
X319164Y99016D01*
X319888Y98717D01*
X320671D01*
X321395Y99016D01*
X321948Y99570D01*
X322248Y100294D01*
Y101077D01*
X321948Y101800D01*
X321395Y102354D01*
X320671Y102654D01*
D02*
G37*
G36*
X306671D02*
X305888D01*
X305164Y102354D01*
X304611Y101800D01*
X304311Y101077D01*
Y100294D01*
X304611Y99570D01*
X305164Y99016D01*
X305888Y98717D01*
X306671D01*
X307395Y99016D01*
X307948Y99570D01*
X308248Y100294D01*
Y101077D01*
X307948Y101800D01*
X307395Y102354D01*
X306671Y102654D01*
D02*
G37*
G36*
X313671D02*
X312888D01*
X312164Y102354D01*
X311611Y101800D01*
X311311Y101077D01*
Y100294D01*
X311611Y99570D01*
X312164Y99016D01*
X312595Y98838D01*
X312814Y98289D01*
X312861Y98081D01*
X312855Y97943D01*
X312446Y97234D01*
X312205Y96333D01*
Y95400D01*
X312446Y94498D01*
X312913Y93691D01*
X313572Y93031D01*
X314380Y92564D01*
X315282Y92323D01*
X316214D01*
X317116Y92564D01*
X317924Y93031D01*
X318583Y93691D01*
X319050Y94498D01*
X319291Y95400D01*
Y96333D01*
X319050Y97234D01*
X318583Y98042D01*
X317924Y98702D01*
X317116Y99168D01*
X316214Y99410D01*
X315734D01*
X315193Y100160D01*
X315248Y100294D01*
Y101077D01*
X314948Y101800D01*
X314395Y102354D01*
X313671Y102654D01*
D02*
G37*
G36*
X338171Y95654D02*
X337388D01*
X336664Y95354D01*
X336111Y94800D01*
X335811Y94077D01*
Y93293D01*
X336111Y92570D01*
X336664Y92016D01*
X337388Y91717D01*
X338171D01*
X338895Y92016D01*
X339448Y92570D01*
X339748Y93293D01*
Y94077D01*
X339448Y94800D01*
X338895Y95354D01*
X338171Y95654D01*
D02*
G37*
G36*
X331171D02*
X330388D01*
X329664Y95354D01*
X329111Y94800D01*
X328811Y94077D01*
Y93293D01*
X329111Y92570D01*
X329664Y92016D01*
X330388Y91717D01*
X331171D01*
X331895Y92016D01*
X332448Y92570D01*
X332748Y93293D01*
Y94077D01*
X332448Y94800D01*
X331895Y95354D01*
X331171Y95654D01*
D02*
G37*
G36*
X324171D02*
X323388D01*
X322664Y95354D01*
X322111Y94800D01*
X321811Y94077D01*
Y93293D01*
X322111Y92570D01*
X322664Y92016D01*
X323388Y91717D01*
X324171D01*
X324895Y92016D01*
X325448Y92570D01*
X325748Y93293D01*
Y94077D01*
X325448Y94800D01*
X324895Y95354D01*
X324171Y95654D01*
D02*
G37*
G36*
X310171D02*
X309388D01*
X308664Y95354D01*
X308111Y94800D01*
X307811Y94077D01*
Y93293D01*
X308111Y92570D01*
X308664Y92016D01*
X309388Y91717D01*
X310171D01*
X310895Y92016D01*
X311448Y92570D01*
X311748Y93293D01*
Y94077D01*
X311448Y94800D01*
X310895Y95354D01*
X310171Y95654D01*
D02*
G37*
G36*
X303171D02*
X302388D01*
X301664Y95354D01*
X301111Y94800D01*
X300811Y94077D01*
Y93293D01*
X301111Y92570D01*
X301664Y92016D01*
X302388Y91717D01*
X303171D01*
X303895Y92016D01*
X304448Y92570D01*
X304748Y93293D01*
Y94077D01*
X304448Y94800D01*
X303895Y95354D01*
X303171Y95654D01*
D02*
G37*
G36*
X296171D02*
X295388D01*
X294664Y95354D01*
X294111Y94800D01*
X293811Y94077D01*
Y93293D01*
X294111Y92570D01*
X294664Y92016D01*
X295388Y91717D01*
X296171D01*
X296895Y92016D01*
X297448Y92570D01*
X297748Y93293D01*
Y94077D01*
X297448Y94800D01*
X296895Y95354D01*
X296171Y95654D01*
D02*
G37*
G36*
X289171D02*
X288388D01*
X287664Y95354D01*
X287111Y94800D01*
X286811Y94077D01*
Y93293D01*
X287111Y92570D01*
X287664Y92016D01*
X288388Y91717D01*
X289171D01*
X289895Y92016D01*
X290448Y92570D01*
X290748Y93293D01*
Y94077D01*
X290448Y94800D01*
X289895Y95354D01*
X289171Y95654D01*
D02*
G37*
G36*
X347940Y95933D02*
X346942D01*
X345979Y95675D01*
X345115Y95176D01*
X344410Y94471D01*
X343912Y93608D01*
X343653Y92644D01*
Y91647D01*
X343912Y90684D01*
X344410Y89820D01*
X345115Y89115D01*
X345979Y88616D01*
X346942Y88358D01*
X347940D01*
X348903Y88616D01*
X349766Y89115D01*
X350472Y89820D01*
X350970Y90684D01*
X351228Y91647D01*
Y92644D01*
X350970Y93608D01*
X350472Y94471D01*
X349766Y95176D01*
X348903Y95675D01*
X347940Y95933D01*
D02*
G37*
G36*
X255510Y91732D02*
X254727D01*
X254003Y91433D01*
X253449Y90879D01*
X253150Y90155D01*
Y89372D01*
X253449Y88649D01*
X254003Y88095D01*
X254727Y87795D01*
X255510D01*
X256233Y88095D01*
X256787Y88649D01*
X257087Y89372D01*
Y90155D01*
X256787Y90879D01*
X256233Y91433D01*
X255510Y91732D01*
D02*
G37*
G36*
X334671Y88654D02*
X333888D01*
X333164Y88354D01*
X332611Y87800D01*
X332311Y87077D01*
Y86294D01*
X332611Y85570D01*
X333164Y85016D01*
X333888Y84717D01*
X334671D01*
X335395Y85016D01*
X335948Y85570D01*
X336248Y86294D01*
Y87077D01*
X335948Y87800D01*
X335395Y88354D01*
X334671Y88654D01*
D02*
G37*
G36*
X327671D02*
X326888D01*
X326164Y88354D01*
X325611Y87800D01*
X325311Y87077D01*
Y86294D01*
X325611Y85570D01*
X326164Y85016D01*
X326888Y84717D01*
X327671D01*
X328395Y85016D01*
X328948Y85570D01*
X329248Y86294D01*
Y87077D01*
X328948Y87800D01*
X328395Y88354D01*
X327671Y88654D01*
D02*
G37*
G36*
X306671D02*
X305888D01*
X305164Y88354D01*
X304611Y87800D01*
X304311Y87077D01*
Y86294D01*
X304611Y85570D01*
X305164Y85016D01*
X305888Y84717D01*
X306671D01*
X307395Y85016D01*
X307948Y85570D01*
X308248Y86294D01*
Y87077D01*
X307948Y87800D01*
X307395Y88354D01*
X306671Y88654D01*
D02*
G37*
G36*
X299671D02*
X298888D01*
X298164Y88354D01*
X297611Y87800D01*
X297311Y87077D01*
Y86294D01*
X297611Y85570D01*
X298164Y85016D01*
X298888Y84717D01*
X299671D01*
X300395Y85016D01*
X300948Y85570D01*
X301248Y86294D01*
Y87077D01*
X300948Y87800D01*
X300395Y88354D01*
X299671Y88654D01*
D02*
G37*
G36*
X292671D02*
X291888D01*
X291164Y88354D01*
X290611Y87800D01*
X290311Y87077D01*
Y86294D01*
X290611Y85570D01*
X291164Y85016D01*
X291888Y84717D01*
X292671D01*
X293395Y85016D01*
X293948Y85570D01*
X294248Y86294D01*
Y87077D01*
X293948Y87800D01*
X293395Y88354D01*
X292671Y88654D01*
D02*
G37*
G36*
X316248Y85841D02*
Y82587D01*
X319502D01*
X319248Y83536D01*
X318754Y84393D01*
X318054Y85092D01*
X317198Y85587D01*
X316248Y85841D01*
D02*
G37*
G36*
X315248D02*
X314298Y85587D01*
X313442Y85092D01*
X312743Y84393D01*
X312248Y83536D01*
X311994Y82587D01*
X315248D01*
Y85841D01*
D02*
G37*
G36*
X302360Y83465D02*
X301577D01*
X300853Y83165D01*
X300300Y82611D01*
X300000Y81888D01*
Y81104D01*
X300300Y80381D01*
X300853Y79827D01*
X301577Y79528D01*
X302360D01*
X303084Y79827D01*
X303637Y80381D01*
X303937Y81104D01*
Y81888D01*
X303637Y82611D01*
X303084Y83165D01*
X302360Y83465D01*
D02*
G37*
G36*
X319502Y81587D02*
X316248D01*
Y78332D01*
X317198Y78587D01*
X318054Y79081D01*
X318754Y79780D01*
X319248Y80637D01*
X319502Y81587D01*
D02*
G37*
G36*
X315248D02*
X311994D01*
X312248Y80637D01*
X312743Y79780D01*
X313442Y79081D01*
X314298Y78587D01*
X315248Y78332D01*
Y81587D01*
D02*
G37*
G36*
X289171Y81654D02*
X288388D01*
X287664Y81354D01*
X287111Y80800D01*
X286811Y80077D01*
Y79294D01*
X287111Y78570D01*
X287664Y78016D01*
X288388Y77717D01*
X289171D01*
X289895Y78016D01*
X290448Y78570D01*
X290748Y79294D01*
Y80077D01*
X290448Y80800D01*
X289895Y81354D01*
X289171Y81654D01*
D02*
G37*
G36*
X347968Y81146D02*
X347941D01*
Y77646D01*
X351441D01*
Y77672D01*
X351168Y78690D01*
X350642Y79602D01*
X349897Y80347D01*
X348985Y80873D01*
X347968Y81146D01*
D02*
G37*
G36*
X346941D02*
X346914D01*
X345897Y80873D01*
X344985Y80347D01*
X344240Y79602D01*
X343713Y78690D01*
X343441Y77672D01*
Y77646D01*
X346941D01*
Y81146D01*
D02*
G37*
G36*
X302360Y78740D02*
X301577D01*
X300853Y78440D01*
X300300Y77887D01*
X300000Y77163D01*
Y76380D01*
X300300Y75657D01*
X300853Y75103D01*
X301577Y74803D01*
X302360D01*
X303084Y75103D01*
X303637Y75657D01*
X303937Y76380D01*
Y77163D01*
X303637Y77887D01*
X303084Y78440D01*
X302360Y78740D01*
D02*
G37*
G36*
X351441Y76646D02*
X347941D01*
Y73146D01*
X347968D01*
X348985Y73418D01*
X349897Y73945D01*
X350642Y74690D01*
X351168Y75602D01*
X351441Y76619D01*
Y76646D01*
D02*
G37*
G36*
X346941D02*
X343441D01*
Y76619D01*
X343713Y75602D01*
X344240Y74690D01*
X344985Y73945D01*
X345897Y73418D01*
X346914Y73146D01*
X346941D01*
Y76646D01*
D02*
G37*
G36*
X288187Y74409D02*
X287404D01*
X286680Y74110D01*
X286126Y73556D01*
X285827Y72833D01*
Y72049D01*
X286126Y71326D01*
X286680Y70772D01*
X287404Y70472D01*
X288187D01*
X288910Y70772D01*
X289464Y71326D01*
X289764Y72049D01*
Y72833D01*
X289464Y73556D01*
X288910Y74110D01*
X288187Y74409D01*
D02*
G37*
G36*
X301179Y69291D02*
X300396D01*
X299672Y68992D01*
X299119Y68438D01*
X298819Y67714D01*
Y66931D01*
X299119Y66208D01*
X299672Y65654D01*
X300396Y65354D01*
X301179D01*
X301903Y65654D01*
X302456Y66208D01*
X302756Y66931D01*
Y67714D01*
X302456Y68438D01*
X301903Y68992D01*
X301179Y69291D01*
D02*
G37*
G36*
X339499Y48677D02*
X339083D01*
Y39870D01*
X347890D01*
Y40287D01*
X347532Y42085D01*
X346831Y43779D01*
X345812Y45303D01*
X344516Y46599D01*
X342991Y47618D01*
X341297Y48320D01*
X339499Y48677D01*
D02*
G37*
G36*
X338083D02*
X337666D01*
X335868Y48320D01*
X334174Y47618D01*
X332650Y46599D01*
X331353Y45303D01*
X330335Y43779D01*
X329633Y42085D01*
X329276Y40287D01*
Y39870D01*
X338083D01*
Y48677D01*
D02*
G37*
G36*
X274016Y44722D02*
X265354D01*
X264224Y44574D01*
X263170Y44137D01*
X262266Y43443D01*
X261572Y42538D01*
X261135Y41485D01*
X260986Y40354D01*
X261135Y39224D01*
X261572Y38170D01*
X262266Y37266D01*
X263170Y36571D01*
X264224Y36135D01*
X265354Y35986D01*
X274016D01*
X275146Y36135D01*
X276200Y36571D01*
X277104Y37266D01*
X277799Y38170D01*
X278235Y39224D01*
X278384Y40354D01*
X278235Y41485D01*
X277799Y42538D01*
X277104Y43443D01*
X276200Y44137D01*
X275146Y44574D01*
X274016Y44722D01*
D02*
G37*
G36*
X347890Y38870D02*
X339083D01*
Y30063D01*
X339499D01*
X341297Y30421D01*
X342991Y31122D01*
X344516Y32141D01*
X345812Y33437D01*
X346831Y34962D01*
X347532Y36655D01*
X347890Y38453D01*
Y38870D01*
D02*
G37*
G36*
X338083D02*
X329276D01*
Y38453D01*
X329633Y36655D01*
X330335Y34962D01*
X331353Y33437D01*
X332650Y32141D01*
X334174Y31122D01*
X335868Y30421D01*
X337666Y30063D01*
X338083D01*
Y38870D01*
D02*
G37*
G36*
X289083Y36597D02*
Y29043D01*
X292371D01*
Y32874D01*
X292242Y33854D01*
X291863Y34768D01*
X291261Y35553D01*
X290477Y36155D01*
X289563Y36533D01*
X289083Y36597D01*
D02*
G37*
G36*
X288083D02*
X287602Y36533D01*
X286688Y36155D01*
X285904Y35553D01*
X285302Y34768D01*
X284924Y33854D01*
X284794Y32874D01*
Y29043D01*
X288083D01*
Y36597D01*
D02*
G37*
G36*
X292371Y28043D02*
X289083D01*
Y20490D01*
X289563Y20553D01*
X290477Y20932D01*
X291261Y21534D01*
X291863Y22319D01*
X292242Y23232D01*
X292371Y24213D01*
Y28043D01*
D02*
G37*
G36*
X288083D02*
X284794D01*
Y24213D01*
X284924Y23232D01*
X285302Y22319D01*
X285904Y21534D01*
X286688Y20932D01*
X287602Y20553D01*
X288083Y20490D01*
Y28043D01*
D02*
G37*
G36*
X274016Y19536D02*
X270185D01*
Y16248D01*
X277738D01*
X277675Y16728D01*
X277296Y17642D01*
X276694Y18427D01*
X275910Y19029D01*
X274996Y19407D01*
X274016Y19536D01*
D02*
G37*
G36*
X269185D02*
X265354D01*
X264374Y19407D01*
X263460Y19029D01*
X262676Y18427D01*
X262074Y17642D01*
X261695Y16728D01*
X261632Y16248D01*
X269185D01*
Y19536D01*
D02*
G37*
G36*
X277738Y15248D02*
X270185D01*
Y11960D01*
X274016D01*
X274996Y12089D01*
X275910Y12467D01*
X276694Y13069D01*
X277296Y13854D01*
X277675Y14768D01*
X277738Y15248D01*
D02*
G37*
G36*
X269185D02*
X261632D01*
X261695Y14768D01*
X262074Y13854D01*
X262676Y13069D01*
X263460Y12467D01*
X264374Y12089D01*
X265354Y11960D01*
X269185D01*
Y15248D01*
D02*
G37*
%LPD*%
D67*
X206004Y62598D02*
D03*
X195965D02*
D03*
X166240D02*
D03*
X156201D02*
D03*
D72*
X298425Y114961D02*
D03*
X288425D02*
D03*
X258425D02*
D03*
X268425D02*
D03*
X278425D02*
D03*
D90*
X49134Y235020D02*
D03*
Y225020D02*
D03*
Y215020D02*
D03*
Y205020D02*
D03*
Y195020D02*
D03*
Y185020D02*
D03*
Y175020D02*
D03*
Y165020D02*
D03*
X309134Y235020D02*
D03*
Y225020D02*
D03*
Y215020D02*
D03*
Y205020D02*
D03*
Y195020D02*
D03*
Y185020D02*
D03*
Y175020D02*
D03*
Y165020D02*
D03*
Y155020D02*
D03*
D91*
X288583Y28543D02*
D03*
D92*
X269685Y15748D02*
D03*
Y40354D02*
D03*
D94*
X315748Y82087D02*
D03*
Y95866D02*
D03*
X168602Y113740D02*
D03*
X173602Y103740D02*
D03*
X178602Y113740D02*
D03*
X183602Y103740D02*
D03*
X188602Y113740D02*
D03*
X193602Y103740D02*
D03*
X198602Y113740D02*
D03*
X163602Y103740D02*
D03*
D95*
X340158Y153937D02*
D03*
Y173622D02*
D03*
Y222441D02*
D03*
Y202756D02*
D03*
D96*
X235315Y13228D02*
D03*
X225315D02*
D03*
X235315Y23228D02*
D03*
X225315D02*
D03*
X235315Y33228D02*
D03*
X225315D02*
D03*
D97*
X248425Y114961D02*
D03*
D98*
X212264Y93898D02*
D03*
X149941D02*
D03*
D99*
X213110Y21772D02*
D03*
X149094D02*
D03*
D100*
X208110Y43701D02*
D03*
X199094D02*
D03*
X163110D02*
D03*
X154095D02*
D03*
X167047Y24764D02*
D03*
X175079D02*
D03*
X183110D02*
D03*
X191142D02*
D03*
X171063Y17756D02*
D03*
X179095D02*
D03*
X187126D02*
D03*
X195158D02*
D03*
D102*
X266929Y172835D02*
D03*
X270472D02*
D03*
X274016D02*
D03*
X277559D02*
D03*
X281102D02*
D03*
X284646D02*
D03*
X266929Y169291D02*
D03*
X270472D02*
D03*
X274016D02*
D03*
X277559D02*
D03*
X281102D02*
D03*
X284646D02*
D03*
X266929Y165748D02*
D03*
X270472D02*
D03*
X274016D02*
D03*
X277559D02*
D03*
X281102D02*
D03*
X284646D02*
D03*
X266929Y162205D02*
D03*
X270472D02*
D03*
X274016D02*
D03*
X277559D02*
D03*
X281102D02*
D03*
X284646D02*
D03*
X266929Y158661D02*
D03*
X270472D02*
D03*
X274016D02*
D03*
X277559D02*
D03*
X281102D02*
D03*
X284646D02*
D03*
Y155118D02*
D03*
X281102D02*
D03*
X277559D02*
D03*
X274016D02*
D03*
X270472D02*
D03*
X266929D02*
D03*
Y233858D02*
D03*
X270472D02*
D03*
X274016D02*
D03*
X277559D02*
D03*
X281102D02*
D03*
X284646D02*
D03*
X266929Y230315D02*
D03*
X270472D02*
D03*
X274016D02*
D03*
X277559D02*
D03*
X281102D02*
D03*
X284646D02*
D03*
X266929Y226772D02*
D03*
X270472D02*
D03*
X274016D02*
D03*
X277559D02*
D03*
X281102D02*
D03*
X284646D02*
D03*
X266929Y223228D02*
D03*
X270472D02*
D03*
X274016D02*
D03*
X277559D02*
D03*
X281102D02*
D03*
X284646D02*
D03*
X266929Y219685D02*
D03*
X270472D02*
D03*
X274016D02*
D03*
X277559D02*
D03*
X281102D02*
D03*
X284646D02*
D03*
Y216142D02*
D03*
X281102D02*
D03*
X277559D02*
D03*
X274016D02*
D03*
X270472D02*
D03*
X266929D02*
D03*
X78740Y173228D02*
D03*
X82284D02*
D03*
X85827D02*
D03*
X89370D02*
D03*
X92913D02*
D03*
X96457D02*
D03*
X78740Y169685D02*
D03*
X82284D02*
D03*
X85827D02*
D03*
X89370D02*
D03*
X92913D02*
D03*
X96457D02*
D03*
X78740Y166142D02*
D03*
X82284D02*
D03*
X85827D02*
D03*
X89370D02*
D03*
X92913D02*
D03*
X96457D02*
D03*
X78740Y162599D02*
D03*
X82284D02*
D03*
X85827D02*
D03*
X89370D02*
D03*
X92913D02*
D03*
X96457D02*
D03*
X78740Y159055D02*
D03*
X82284D02*
D03*
X85827D02*
D03*
X89370D02*
D03*
X92913D02*
D03*
X96457D02*
D03*
Y155512D02*
D03*
X92913D02*
D03*
X89370D02*
D03*
X85827D02*
D03*
X82284D02*
D03*
X78740D02*
D03*
X142520Y237402D02*
D03*
X146063D02*
D03*
X149606D02*
D03*
X153150D02*
D03*
X156693D02*
D03*
X160236D02*
D03*
X142520Y233858D02*
D03*
X146063D02*
D03*
X149606D02*
D03*
X153150D02*
D03*
X156693D02*
D03*
X160236D02*
D03*
X142520Y230315D02*
D03*
X146063D02*
D03*
X149606D02*
D03*
X153150D02*
D03*
X156693D02*
D03*
X160236D02*
D03*
X142520Y226772D02*
D03*
X146063D02*
D03*
X149606D02*
D03*
X153150D02*
D03*
X156693D02*
D03*
X160236D02*
D03*
X142520Y223228D02*
D03*
X146063D02*
D03*
X149606D02*
D03*
X153150D02*
D03*
X156693D02*
D03*
X160236D02*
D03*
Y219685D02*
D03*
X156693D02*
D03*
X153150D02*
D03*
X149606D02*
D03*
X146063D02*
D03*
X142520D02*
D03*
D103*
X301969Y81496D02*
D03*
Y76772D02*
D03*
X244882Y105512D02*
D03*
X248819Y52362D02*
D03*
Y64961D02*
D03*
X254331Y68898D02*
D03*
Y43701D02*
D03*
X257480Y62205D02*
D03*
X261417Y67716D02*
D03*
X254331Y57480D02*
D03*
X238583Y74803D02*
D03*
Y80709D02*
D03*
Y86614D02*
D03*
Y92126D02*
D03*
Y97244D02*
D03*
Y102362D02*
D03*
X268110Y68898D02*
D03*
Y72441D02*
D03*
X271260Y79528D02*
D03*
X272047Y82677D02*
D03*
X270079Y86614D02*
D03*
X357087Y255906D02*
D03*
Y238583D02*
D03*
X352756Y229922D02*
D03*
X357087Y221260D02*
D03*
X352756Y212599D02*
D03*
X357087Y203937D02*
D03*
X352756Y195276D02*
D03*
X357087Y186614D02*
D03*
X352756Y177953D02*
D03*
X357087Y169292D02*
D03*
X352756Y160630D02*
D03*
X357087Y151969D02*
D03*
X352756Y143307D02*
D03*
X357087Y117323D02*
D03*
X352756Y108662D02*
D03*
X357087Y82677D02*
D03*
X352756Y74016D02*
D03*
X357087Y65355D02*
D03*
X352756Y56693D02*
D03*
X357087Y48032D02*
D03*
Y30709D02*
D03*
X352756Y22047D02*
D03*
X357087Y13386D02*
D03*
X352756Y4725D02*
D03*
X344095Y229922D02*
D03*
X348425Y221260D02*
D03*
X344095Y212599D02*
D03*
X348425Y169292D02*
D03*
X344095Y160630D02*
D03*
X348425Y151969D02*
D03*
X344095Y125985D02*
D03*
X348425Y82677D02*
D03*
Y65355D02*
D03*
X344095Y56693D02*
D03*
Y22047D02*
D03*
X348425Y13386D02*
D03*
X344095Y4725D02*
D03*
X335433Y229922D02*
D03*
Y74016D02*
D03*
X339764Y65355D02*
D03*
X335433Y56693D02*
D03*
Y22047D02*
D03*
X339764Y13386D02*
D03*
X335433Y4725D02*
D03*
X326772Y229922D02*
D03*
X331102Y221260D02*
D03*
X326772Y143307D02*
D03*
X331102Y65355D02*
D03*
X326772Y56693D02*
D03*
Y22047D02*
D03*
X331102Y13386D02*
D03*
X326772Y4725D02*
D03*
X322441Y238583D02*
D03*
Y221260D02*
D03*
X318110Y143307D02*
D03*
Y56693D02*
D03*
X322441Y48032D02*
D03*
X318110Y39370D02*
D03*
X322441Y30709D02*
D03*
X318110Y22047D02*
D03*
X322441Y13386D02*
D03*
X318110Y4725D02*
D03*
X313780Y221260D02*
D03*
X309449Y143307D02*
D03*
Y125985D02*
D03*
X313780Y65355D02*
D03*
Y30709D02*
D03*
X309449Y22047D02*
D03*
X313780Y13386D02*
D03*
X309449Y4725D02*
D03*
X300787Y247244D02*
D03*
Y229922D02*
D03*
Y212599D02*
D03*
Y195276D02*
D03*
Y177953D02*
D03*
Y160630D02*
D03*
Y143307D02*
D03*
Y125985D02*
D03*
X305118Y65355D02*
D03*
Y30709D02*
D03*
X300787Y22047D02*
D03*
X305118Y13386D02*
D03*
X300787Y4725D02*
D03*
X296457Y255906D02*
D03*
X292126Y247244D02*
D03*
X296457Y238583D02*
D03*
X292126Y229922D02*
D03*
X296457Y221260D02*
D03*
X292126Y212599D02*
D03*
X296457Y203937D02*
D03*
X292126Y195276D02*
D03*
X296457Y186614D02*
D03*
Y169292D02*
D03*
Y151969D02*
D03*
Y134646D02*
D03*
Y30709D02*
D03*
Y13386D02*
D03*
X292126Y4725D02*
D03*
X287795Y255906D02*
D03*
X283465Y247244D02*
D03*
X287795Y203937D02*
D03*
X283465Y195276D02*
D03*
X287795Y186614D02*
D03*
X283465Y143307D02*
D03*
X287795Y134646D02*
D03*
X283465Y125985D02*
D03*
Y22047D02*
D03*
X287795Y13386D02*
D03*
X283465Y4725D02*
D03*
X279134Y255906D02*
D03*
X274803Y247244D02*
D03*
X279134Y203937D02*
D03*
X274803Y195276D02*
D03*
X279134Y186614D02*
D03*
X274803Y143307D02*
D03*
X279134Y134646D02*
D03*
X274803Y125985D02*
D03*
Y108662D02*
D03*
X279134Y30709D02*
D03*
X274803Y22047D02*
D03*
X279134Y13386D02*
D03*
X274803Y4725D02*
D03*
X270473Y255906D02*
D03*
X266142Y247244D02*
D03*
X270473Y203937D02*
D03*
X266142Y195276D02*
D03*
X270473Y186614D02*
D03*
X266142Y143307D02*
D03*
X270473Y134646D02*
D03*
X266142Y125985D02*
D03*
X270473Y30709D02*
D03*
X266142Y22047D02*
D03*
Y4725D02*
D03*
X261811Y255906D02*
D03*
X257480Y247244D02*
D03*
Y229922D02*
D03*
Y212599D02*
D03*
X261811Y203937D02*
D03*
X257480Y195276D02*
D03*
X261811Y186614D02*
D03*
X257480Y177953D02*
D03*
Y160630D02*
D03*
Y143307D02*
D03*
X261811Y134646D02*
D03*
X257480Y125985D02*
D03*
X261811Y100000D02*
D03*
X257480Y39370D02*
D03*
X261811Y30709D02*
D03*
X257480Y22047D02*
D03*
Y4725D02*
D03*
X253150Y255906D02*
D03*
X248819Y247244D02*
D03*
X253150Y238583D02*
D03*
X248819Y229922D02*
D03*
X253150Y221260D02*
D03*
X248819Y212599D02*
D03*
X253150Y203937D02*
D03*
X248819Y195276D02*
D03*
X253150Y186614D02*
D03*
X248819Y177953D02*
D03*
X253150Y169292D02*
D03*
X248819Y160630D02*
D03*
X253150Y151969D02*
D03*
X248819Y143307D02*
D03*
X253150Y134646D02*
D03*
X248819Y125985D02*
D03*
Y108662D02*
D03*
Y39370D02*
D03*
X253150Y13386D02*
D03*
X248819Y4725D02*
D03*
X244488Y255906D02*
D03*
X240158Y247244D02*
D03*
X244488Y238583D02*
D03*
X240158Y229922D02*
D03*
X244488Y221260D02*
D03*
X240158Y212599D02*
D03*
X244488Y203937D02*
D03*
X240158Y195276D02*
D03*
X244488Y186614D02*
D03*
X240158Y177953D02*
D03*
X244488Y169292D02*
D03*
X240158Y160630D02*
D03*
X244488Y151969D02*
D03*
X240158Y143307D02*
D03*
X244488Y134646D02*
D03*
X240158Y125985D02*
D03*
Y4725D02*
D03*
X287795Y72441D02*
D03*
X300787Y67323D02*
D03*
X255118Y89764D02*
D03*
X327279Y86685D02*
D03*
X323780Y93685D02*
D03*
X313280Y100685D02*
D03*
X302755Y106299D02*
D03*
X302780Y93685D02*
D03*
X226378Y43701D02*
D03*
X225984Y52756D02*
D03*
X128279Y14685D02*
D03*
X141779Y5685D02*
D03*
X137279Y14685D02*
D03*
X337779Y93685D02*
D03*
X330780Y107685D02*
D03*
X334279Y100685D02*
D03*
X330780Y93685D02*
D03*
X334279Y86685D02*
D03*
X327279Y100685D02*
D03*
X320280D02*
D03*
X309780Y107685D02*
D03*
Y93685D02*
D03*
X306279Y100685D02*
D03*
Y86685D02*
D03*
X295779Y93685D02*
D03*
X299279Y86685D02*
D03*
X288779Y93685D02*
D03*
X292280Y86685D02*
D03*
X288779Y79685D02*
D03*
X164567Y11417D02*
D03*
X174016Y10236D02*
D03*
X181496D02*
D03*
X190551D02*
D03*
X204331Y17717D02*
D03*
X156299Y19685D02*
D03*
X92279Y14685D02*
D03*
X83280D02*
D03*
X101279D02*
D03*
X110280D02*
D03*
X119280D02*
D03*
X74279D02*
D03*
X147244Y41732D02*
D03*
X213386Y30315D02*
D03*
X212992Y37008D02*
D03*
X203150Y37402D02*
D03*
X120079Y36614D02*
D03*
X107874Y35827D02*
D03*
X79921Y31496D02*
D03*
X89370Y35827D02*
D03*
X77953Y36220D02*
D03*
X192126Y41732D02*
D03*
X186221Y45276D02*
D03*
X181496D02*
D03*
X176378D02*
D03*
X171653D02*
D03*
X209279Y32685D02*
D03*
X204780Y23685D02*
D03*
X195780Y5685D02*
D03*
X186779D02*
D03*
X177779D02*
D03*
X168780D02*
D03*
X132780D02*
D03*
X123779D02*
D03*
X114779D02*
D03*
X105780D02*
D03*
X96780D02*
D03*
X87779D02*
D03*
X78780Y23685D02*
D03*
Y5685D02*
D03*
X74279Y32685D02*
D03*
X69779Y23685D02*
D03*
Y5685D02*
D03*
X112000Y36700D02*
D03*
X115900Y37200D02*
D03*
X82600Y35100D02*
D03*
X85462D02*
D03*
X216535Y248032D02*
D03*
Y228346D02*
D03*
Y208662D02*
D03*
Y188976D02*
D03*
Y169291D02*
D03*
Y149606D02*
D03*
X211614Y257874D02*
D03*
X206693Y248032D02*
D03*
X211614Y238189D02*
D03*
X206693Y228346D02*
D03*
X211614Y218504D02*
D03*
X206693Y208662D02*
D03*
X211614Y198819D02*
D03*
X206693Y188976D02*
D03*
X211614Y179134D02*
D03*
X206693Y169291D02*
D03*
X211614Y159449D02*
D03*
X201772Y257874D02*
D03*
X196850Y248032D02*
D03*
X201772Y238189D02*
D03*
X196850Y228346D02*
D03*
X201772Y218504D02*
D03*
X196850Y208662D02*
D03*
X201772Y198819D02*
D03*
X196850Y188976D02*
D03*
X201772Y179134D02*
D03*
X196850Y169291D02*
D03*
X201772Y159449D02*
D03*
X191929Y257874D02*
D03*
X187008Y248032D02*
D03*
X191929Y238189D02*
D03*
X187008Y228346D02*
D03*
X191929Y218504D02*
D03*
X187008Y208662D02*
D03*
X191929Y198819D02*
D03*
X187008Y188976D02*
D03*
X191929Y179134D02*
D03*
X182087Y257874D02*
D03*
X177165Y248032D02*
D03*
X182087Y238189D02*
D03*
X177165Y228346D02*
D03*
X182087Y218504D02*
D03*
X177165Y208662D02*
D03*
X182087Y198819D02*
D03*
X177165Y188976D02*
D03*
X182087Y179134D02*
D03*
Y159449D02*
D03*
X172244Y257874D02*
D03*
X167323Y248032D02*
D03*
X172244Y238189D02*
D03*
Y218504D02*
D03*
X167323Y208662D02*
D03*
X172244Y198819D02*
D03*
X167323Y169291D02*
D03*
X172244Y159449D02*
D03*
X162402Y257874D02*
D03*
X157480Y248032D02*
D03*
Y208662D02*
D03*
X162402Y198819D02*
D03*
Y179134D02*
D03*
X157480Y169291D02*
D03*
X162402Y159449D02*
D03*
X152559Y257874D02*
D03*
X147638Y248032D02*
D03*
Y188976D02*
D03*
X152559Y179134D02*
D03*
X147638Y169291D02*
D03*
X152559Y159449D02*
D03*
X142717Y257874D02*
D03*
X137795Y248032D02*
D03*
Y188976D02*
D03*
X142717Y179134D02*
D03*
X137795Y169291D02*
D03*
X142717Y159449D02*
D03*
X132874Y257874D02*
D03*
X127953Y248032D02*
D03*
X132874Y238189D02*
D03*
X127953Y228346D02*
D03*
X132874Y218504D02*
D03*
X127953Y188976D02*
D03*
X132874Y179134D02*
D03*
X127953Y169291D02*
D03*
X132874Y159449D02*
D03*
X123031Y257874D02*
D03*
X118110Y248032D02*
D03*
X123031Y238189D02*
D03*
X118110Y228346D02*
D03*
X123031Y218504D02*
D03*
X118110Y188976D02*
D03*
X123031Y179134D02*
D03*
X118110Y169291D02*
D03*
X123031Y159449D02*
D03*
X113189Y257874D02*
D03*
X108268Y248032D02*
D03*
X113189Y238189D02*
D03*
X108268Y228346D02*
D03*
X113189Y218504D02*
D03*
X108268Y188976D02*
D03*
X113189Y179134D02*
D03*
X108268Y169291D02*
D03*
X113189Y159449D02*
D03*
X103346Y257874D02*
D03*
X98425Y248032D02*
D03*
X103346Y238189D02*
D03*
X98425Y228346D02*
D03*
X103346Y218504D02*
D03*
X98425Y188976D02*
D03*
X93504Y257874D02*
D03*
X88583Y248032D02*
D03*
X93504Y238189D02*
D03*
X88583Y228346D02*
D03*
X93504Y218504D02*
D03*
X88583Y188976D02*
D03*
X83661Y257874D02*
D03*
X78740Y248032D02*
D03*
X83661Y238189D02*
D03*
X78740Y228346D02*
D03*
X83661Y218504D02*
D03*
X78740Y188976D02*
D03*
X73819Y257874D02*
D03*
X68898Y248032D02*
D03*
X73819Y238189D02*
D03*
X68898Y228346D02*
D03*
X73819Y218504D02*
D03*
X68898Y188976D02*
D03*
Y169291D02*
D03*
X63976Y257874D02*
D03*
X59055Y248032D02*
D03*
X63976Y238189D02*
D03*
X59055Y228346D02*
D03*
X63976Y218504D02*
D03*
X59055Y188976D02*
D03*
X63976Y179134D02*
D03*
X39370Y228346D02*
D03*
Y208662D02*
D03*
X29528Y228346D02*
D03*
X34449Y218504D02*
D03*
X29528Y208662D02*
D03*
X34449Y198819D02*
D03*
X19685Y228346D02*
D03*
X24606Y218504D02*
D03*
X19685Y208662D02*
D03*
X24606Y198819D02*
D03*
X19685Y188976D02*
D03*
X9843Y228346D02*
D03*
X14764Y218504D02*
D03*
X9843Y208662D02*
D03*
X14764Y198819D02*
D03*
X9843Y188976D02*
D03*
X14764Y179134D02*
D03*
X9843Y169291D02*
D03*
Y149606D02*
D03*
Y129921D02*
D03*
X77165Y127559D02*
D03*
X72047D02*
D03*
X66929D02*
D03*
X61811D02*
D03*
X91732Y92913D02*
D03*
X137008Y93307D02*
D03*
X121653Y92913D02*
D03*
X106299D02*
D03*
X228346Y64567D02*
D03*
X218110Y101575D02*
D03*
X330709Y119291D02*
D03*
X220760Y122005D02*
D03*
X314173Y120079D02*
D03*
D104*
X68504Y17717D02*
D03*
Y77953D02*
D03*
X121653Y51968D02*
D03*
X29528Y103543D02*
D03*
X67323Y37008D02*
D03*
X106555Y51831D02*
D03*
X29528Y77165D02*
D03*
Y90551D02*
D03*
X342913Y184252D02*
D03*
X337008D02*
D03*
D105*
X347441Y77146D02*
D03*
Y92146D02*
D03*
M02*
