G04*
G04 #@! TF.GenerationSoftware,Altium Limited,Altium Designer,21.9.2 (33)*
G04*
G04 Layer_Color=128*
%FSLAX25Y25*%
%MOIN*%
G70*
G04*
G04 #@! TF.SameCoordinates,BD73D3CE-375B-4955-ABE2-F62562662B61*
G04*
G04*
G04 #@! TF.FilePolarity,Positive*
G04*
G01*
G75*
%ADD106R,0.11811X0.07874*%
G36*
X11806Y38380D02*
X11856Y37328D01*
X12340Y35279D01*
X13192Y33352D01*
X14383Y31615D01*
X15873Y30126D01*
X17610Y28935D01*
X19536Y28083D01*
X21586Y27598D01*
X22638Y27548D01*
X22638Y27548D01*
X22638Y30577D01*
X21894Y30672D01*
X20447Y31056D01*
X19089Y31687D01*
X17861Y32545D01*
X16802Y33604D01*
X15944Y34831D01*
X15314Y36190D01*
X14930Y37637D01*
X14834Y38380D01*
X14834Y38380D01*
X11806D01*
D02*
G37*
G36*
X24612Y27554D02*
X25664Y27604D01*
X27714Y28088D01*
X29640Y28940D01*
X31377Y30131D01*
X32866Y31621D01*
X34057Y33358D01*
X34909Y35284D01*
X35394Y37334D01*
X35444Y38386D01*
X35444Y38386D01*
X32415Y38386D01*
X32320Y37642D01*
X31936Y36195D01*
X31305Y34837D01*
X30447Y33609D01*
X29388Y32550D01*
X28161Y31692D01*
X26803Y31062D01*
X25355Y30678D01*
X24612Y30582D01*
X24612Y30582D01*
X24612Y27554D01*
D02*
G37*
G36*
X22632Y51187D02*
X21580Y51136D01*
X19531Y50652D01*
X17604Y49800D01*
X15867Y48609D01*
X14378Y47120D01*
X13187Y45382D01*
X12335Y43456D01*
X11850Y41406D01*
X11800Y40354D01*
X11800Y40354D01*
X14829D01*
X14924Y41098D01*
X15308Y42545D01*
X15939Y43903D01*
X16797Y45131D01*
X17856Y46190D01*
X19083Y47048D01*
X20441Y47678D01*
X21889Y48062D01*
X22632Y48158D01*
X22632Y48158D01*
Y51187D01*
D02*
G37*
G36*
X35428Y40370D02*
X35377Y41422D01*
X34893Y43472D01*
X34041Y45398D01*
X32850Y47135D01*
X31361Y48625D01*
X29623Y49815D01*
X27697Y50668D01*
X25647Y51152D01*
X24595Y51202D01*
X24595Y51202D01*
Y48173D01*
X25339Y48078D01*
X26786Y47694D01*
X28145Y47063D01*
X29372Y46205D01*
X30431Y45147D01*
X31289Y43919D01*
X31920Y42561D01*
X32303Y41113D01*
X32399Y40370D01*
X32399Y40370D01*
X35428Y40370D01*
D02*
G37*
G36*
X11806Y247042D02*
X11856Y245990D01*
X12340Y243940D01*
X13192Y242014D01*
X14383Y240277D01*
X15873Y238787D01*
X17610Y237596D01*
X19536Y236744D01*
X21586Y236260D01*
X22638Y236210D01*
X22638Y236210D01*
X22638Y239238D01*
X21894Y239334D01*
X20447Y239718D01*
X19089Y240348D01*
X17861Y241206D01*
X16802Y242265D01*
X15944Y243493D01*
X15314Y244851D01*
X14930Y246299D01*
X14834Y247042D01*
X14834Y247042D01*
X11806D01*
D02*
G37*
G36*
X24612Y236215D02*
X25664Y236265D01*
X27714Y236750D01*
X29640Y237602D01*
X31377Y238793D01*
X32866Y240282D01*
X34057Y242019D01*
X34909Y243946D01*
X35394Y245995D01*
X35444Y247047D01*
X35444Y247047D01*
X32415Y247047D01*
X32320Y246304D01*
X31936Y244856D01*
X31305Y243498D01*
X30447Y242271D01*
X29388Y241212D01*
X28161Y240354D01*
X26803Y239723D01*
X25355Y239339D01*
X24612Y239244D01*
X24612Y239244D01*
X24612Y236215D01*
D02*
G37*
G36*
X22632Y259848D02*
X21580Y259798D01*
X19531Y259313D01*
X17604Y258461D01*
X15867Y257270D01*
X14378Y255781D01*
X13187Y254044D01*
X12335Y252117D01*
X11850Y250068D01*
X11800Y249016D01*
X11800Y249016D01*
X14829D01*
X14924Y249759D01*
X15308Y251207D01*
X15939Y252565D01*
X16797Y253792D01*
X17856Y254851D01*
X19083Y255709D01*
X20441Y256340D01*
X21889Y256724D01*
X22632Y256819D01*
X22632Y256819D01*
Y259848D01*
D02*
G37*
G36*
X35428Y249031D02*
X35377Y250083D01*
X34893Y252133D01*
X34041Y254059D01*
X32850Y255797D01*
X31361Y257286D01*
X29623Y258477D01*
X27697Y259329D01*
X25647Y259813D01*
X24595Y259863D01*
X24595Y259864D01*
Y256835D01*
X25339Y256739D01*
X26786Y256356D01*
X28145Y255725D01*
X29372Y254867D01*
X30431Y253808D01*
X31289Y252580D01*
X31920Y251222D01*
X32303Y249775D01*
X32399Y249031D01*
X32399Y249031D01*
X35428Y249031D01*
D02*
G37*
G36*
X326766Y38380D02*
X326816Y37328D01*
X327301Y35279D01*
X328153Y33352D01*
X329344Y31615D01*
X330833Y30126D01*
X332571Y28935D01*
X334497Y28083D01*
X336546Y27598D01*
X337598Y27548D01*
X337598Y27548D01*
X337598Y30577D01*
X336855Y30672D01*
X335408Y31056D01*
X334049Y31687D01*
X332822Y32545D01*
X331763Y33604D01*
X330905Y34831D01*
X330274Y36190D01*
X329890Y37637D01*
X329795Y38380D01*
X329795Y38380D01*
X326766D01*
D02*
G37*
G36*
X339572Y27554D02*
X340624Y27604D01*
X342674Y28088D01*
X344600Y28940D01*
X346338Y30131D01*
X347827Y31621D01*
X349018Y33358D01*
X349870Y35284D01*
X350354Y37334D01*
X350405Y38386D01*
X350405Y38386D01*
X347376Y38386D01*
X347280Y37642D01*
X346896Y36195D01*
X346266Y34837D01*
X345408Y33609D01*
X344349Y32550D01*
X343122Y31692D01*
X341763Y31062D01*
X340316Y30678D01*
X339572Y30582D01*
X339572Y30582D01*
X339572Y27554D01*
D02*
G37*
G36*
X337593Y51187D02*
X336541Y51136D01*
X334491Y50652D01*
X332565Y49800D01*
X330828Y48609D01*
X329338Y47120D01*
X328148Y45382D01*
X327295Y43456D01*
X326811Y41406D01*
X326761Y40354D01*
X326761Y40354D01*
X329789D01*
X329885Y41098D01*
X330269Y42545D01*
X330900Y43903D01*
X331757Y45131D01*
X332816Y46190D01*
X334044Y47048D01*
X335402Y47678D01*
X336850Y48062D01*
X337593Y48158D01*
X337593Y48158D01*
Y51187D01*
D02*
G37*
G36*
X350388Y40370D02*
X350338Y41422D01*
X349854Y43472D01*
X349002Y45398D01*
X347811Y47135D01*
X346321Y48625D01*
X344584Y49815D01*
X342658Y50668D01*
X340608Y51152D01*
X339556Y51202D01*
X339556Y51202D01*
Y48173D01*
X340299Y48078D01*
X341747Y47694D01*
X343105Y47063D01*
X344333Y46205D01*
X345392Y45147D01*
X346250Y43919D01*
X346880Y42561D01*
X347264Y41113D01*
X347359Y40370D01*
X347360Y40370D01*
X350388Y40370D01*
D02*
G37*
G36*
X326766Y247042D02*
X326816Y245990D01*
X327301Y243940D01*
X328153Y242014D01*
X329344Y240277D01*
X330833Y238787D01*
X332571Y237596D01*
X334497Y236744D01*
X336546Y236260D01*
X337598Y236210D01*
X337598Y236210D01*
X337598Y239238D01*
X336855Y239334D01*
X335408Y239718D01*
X334049Y240348D01*
X332822Y241206D01*
X331763Y242265D01*
X330905Y243493D01*
X330274Y244851D01*
X329890Y246299D01*
X329795Y247042D01*
X329795Y247042D01*
X326766D01*
D02*
G37*
G36*
X339572Y236215D02*
X340624Y236265D01*
X342674Y236750D01*
X344600Y237602D01*
X346338Y238793D01*
X347827Y240282D01*
X349018Y242019D01*
X349870Y243946D01*
X350354Y245995D01*
X350405Y247047D01*
X350405Y247047D01*
X347376Y247047D01*
X347280Y246304D01*
X346896Y244856D01*
X346266Y243498D01*
X345408Y242271D01*
X344349Y241212D01*
X343122Y240354D01*
X341763Y239723D01*
X340316Y239339D01*
X339572Y239244D01*
X339572Y239244D01*
X339572Y236215D01*
D02*
G37*
G36*
X337593Y259848D02*
X336541Y259798D01*
X334491Y259313D01*
X332565Y258461D01*
X330828Y257270D01*
X329338Y255781D01*
X328148Y254044D01*
X327295Y252117D01*
X326811Y250068D01*
X326761Y249016D01*
X326761Y249016D01*
X329789D01*
X329885Y249759D01*
X330269Y251207D01*
X330900Y252565D01*
X331757Y253792D01*
X332816Y254851D01*
X334044Y255709D01*
X335402Y256340D01*
X336850Y256724D01*
X337593Y256819D01*
X337593Y256819D01*
Y259848D01*
D02*
G37*
G36*
X350388Y249031D02*
X350338Y250083D01*
X349854Y252133D01*
X349002Y254059D01*
X347811Y255797D01*
X346321Y257286D01*
X344584Y258477D01*
X342658Y259329D01*
X340608Y259813D01*
X339556Y259863D01*
X339556Y259864D01*
Y256835D01*
X340299Y256739D01*
X341747Y256356D01*
X343105Y255725D01*
X344333Y254867D01*
X345392Y253808D01*
X346250Y252580D01*
X346880Y251222D01*
X347264Y249775D01*
X347359Y249031D01*
X347360Y249031D01*
X350388Y249031D01*
D02*
G37*
D106*
X327559Y174409D02*
D03*
Y183465D02*
D03*
Y165354D02*
D03*
Y203543D02*
D03*
Y212598D02*
D03*
Y194488D02*
D03*
M02*
