G04*
G04 #@! TF.GenerationSoftware,Altium Limited,Altium Designer,21.9.2 (33)*
G04*
G04 Layer_Physical_Order=4*
G04 Layer_Color=16711680*
%FSLAX25Y25*%
%MOIN*%
G70*
G04*
G04 #@! TF.SameCoordinates,1A6DD151-CB10-4FFE-AF26-4EE6108A4869*
G04*
G04*
G04 #@! TF.FilePolarity,Positive*
G04*
G01*
G75*
%ADD14C,0.01000*%
%ADD15C,0.05906*%
%ADD74C,0.05906*%
%ADD76C,0.06299*%
%ADD86C,0.03150*%
%ADD88C,0.01968*%
%ADD92C,0.04724*%
%ADD93P,0.06681X4X180.0*%
%ADD94C,0.05315*%
%ADD95C,0.09449*%
%ADD96C,0.07087*%
%ADD97C,0.05400*%
%ADD98C,0.05512*%
%ADD99C,0.08661*%
%ADD100C,0.06300*%
%ADD101O,0.14173X0.05512*%
%ADD102O,0.05512X0.14173*%
%ADD103C,0.02362*%
%ADD104C,0.05000*%
%ADD105C,0.02402*%
%ADD107R,0.11811X0.07874*%
%ADD108C,0.24410*%
G36*
X222441Y138255D02*
X219531Y137050D01*
X148598Y207982D01*
Y207982D01*
X148598D01*
X144235Y212346D01*
X143809Y212630D01*
X143307Y212730D01*
X142551D01*
X56265D01*
X53465Y214450D01*
Y215590D01*
X53169Y216691D01*
X52599Y217679D01*
X52063Y218215D01*
X51917Y220020D01*
X52063Y221825D01*
X52599Y222361D01*
X53169Y223348D01*
X53465Y224450D01*
Y225590D01*
X53169Y226691D01*
X52599Y227679D01*
X52063Y228215D01*
X51917Y230020D01*
X52063Y231825D01*
X52599Y232361D01*
X53169Y233348D01*
X53465Y234450D01*
Y235590D01*
X53169Y236691D01*
X52599Y237679D01*
X51793Y238485D01*
X50805Y239055D01*
X49704Y239350D01*
X48564D01*
X47462Y239055D01*
X46475Y238485D01*
X45668Y237679D01*
X45098Y236691D01*
X44803Y235590D01*
Y234450D01*
X45098Y233348D01*
X45668Y232361D01*
X46204Y231825D01*
X46350Y230020D01*
X46204Y228215D01*
X45668Y227679D01*
X45098Y226691D01*
X44803Y225590D01*
Y224450D01*
X45098Y223348D01*
X45668Y222361D01*
X46204Y221825D01*
X46350Y220020D01*
X46204Y218215D01*
X45668Y217679D01*
X45098Y216691D01*
X44803Y215590D01*
Y214450D01*
X45098Y213348D01*
X45668Y212361D01*
X46204Y211825D01*
X46350Y210020D01*
X46204Y208215D01*
X45668Y207679D01*
X45098Y206691D01*
X44803Y205590D01*
Y204450D01*
X45098Y203348D01*
X45668Y202361D01*
X46204Y201825D01*
X46350Y200020D01*
X46204Y198215D01*
X45668Y197679D01*
X45098Y196691D01*
X44803Y195590D01*
Y194450D01*
X45098Y193348D01*
X45668Y192361D01*
X46204Y191825D01*
X46350Y190020D01*
X46204Y188215D01*
X45668Y187679D01*
X45098Y186691D01*
X44803Y185590D01*
Y184450D01*
X45098Y183348D01*
X45580Y182514D01*
X45677Y182277D01*
X45908Y179949D01*
X45409Y178533D01*
X45038Y178162D01*
X44365Y176995D01*
X44016Y175694D01*
Y174346D01*
X44365Y173044D01*
X45038Y171877D01*
X45679Y170020D01*
X45038Y168162D01*
X44365Y166995D01*
X44016Y165693D01*
Y164346D01*
X44365Y163044D01*
X45038Y161877D01*
X45991Y160924D01*
X47158Y160250D01*
X48460Y159902D01*
X49808D01*
X51109Y160250D01*
X52276Y160924D01*
X53229Y161877D01*
X53903Y163044D01*
X54252Y164346D01*
Y165693D01*
X53903Y166995D01*
X53229Y168162D01*
X52588Y170020D01*
X53229Y171877D01*
X53903Y173044D01*
X54252Y174346D01*
Y175694D01*
X53903Y176995D01*
X53229Y178162D01*
X52859Y178533D01*
X52359Y179949D01*
X52591Y182277D01*
X52688Y182514D01*
X53169Y183348D01*
X53465Y184450D01*
Y185590D01*
X53169Y186691D01*
X52599Y187679D01*
X52063Y188215D01*
X51917Y190020D01*
X52063Y191825D01*
X52599Y192361D01*
X53169Y193348D01*
X53465Y194450D01*
Y195590D01*
X56317Y197113D01*
X149456D01*
X149981Y196588D01*
X218375Y128194D01*
X218458Y127960D01*
X218584Y124840D01*
X217924Y124180D01*
X217458Y123373D01*
X217216Y122471D01*
Y121538D01*
X217458Y120637D01*
X217873Y119919D01*
Y103698D01*
X217719Y103543D01*
X217719Y103543D01*
X217160Y103312D01*
X216995Y103244D01*
Y103244D01*
X216441Y102690D01*
X216142Y101966D01*
X216142Y101966D01*
X216142Y101183D01*
X214688Y99260D01*
X214662Y99237D01*
X213648Y98825D01*
X212938Y99016D01*
X211590D01*
X210288Y98667D01*
X209121Y97993D01*
X208168Y97040D01*
X207494Y95873D01*
X207146Y94571D01*
Y93224D01*
X207494Y91922D01*
X208168Y90755D01*
X209121Y89802D01*
X210288Y89128D01*
X211590Y88779D01*
X212938D01*
X213648Y88970D01*
X215510Y88056D01*
X216798Y86968D01*
Y65504D01*
X212763Y61470D01*
X211822Y61668D01*
X209744Y62905D01*
Y63091D01*
X209489Y64042D01*
X208997Y64895D01*
X208300Y65591D01*
X207448Y66084D01*
X206496Y66339D01*
X205511D01*
X204560Y66084D01*
X203707Y65591D01*
X203035Y64944D01*
X202261Y64199D01*
X199708D01*
X198934Y64944D01*
X198261Y65591D01*
X197408Y66084D01*
X196457Y66339D01*
X195472D01*
X194521Y66084D01*
X193668Y65591D01*
X192972Y64895D01*
X192479Y64042D01*
X192224Y63091D01*
Y62106D01*
X192479Y61155D01*
X192972Y60302D01*
X193668Y59606D01*
X194521Y59113D01*
X195472Y58858D01*
X196457D01*
X197408Y59113D01*
X198261Y59606D01*
X198934Y60253D01*
X199708Y60998D01*
X202261D01*
X203035Y60253D01*
X203707Y59606D01*
X204560Y59113D01*
X205511Y58858D01*
X205697D01*
X206934Y56780D01*
X207133Y55840D01*
X204968Y53675D01*
X166053D01*
X165551Y53575D01*
X165504Y53543D01*
X144897D01*
Y87440D01*
X144981Y87544D01*
X147965Y89128D01*
X149267Y88779D01*
X150615D01*
X151917Y89128D01*
X153084Y89802D01*
X154036Y90755D01*
X154710Y91922D01*
X155059Y93224D01*
Y94571D01*
X154710Y95873D01*
X154036Y97040D01*
X153084Y97993D01*
X151917Y98667D01*
X150615Y99016D01*
X149267D01*
X147965Y98667D01*
X144981Y100251D01*
X144897Y100355D01*
Y101083D01*
X144836Y101390D01*
X144662Y101650D01*
X144402Y101824D01*
X144095Y101885D01*
X130984D01*
X130805Y102065D01*
X130219Y102456D01*
X129528Y102594D01*
X104685D01*
X81865Y125414D01*
X81865Y125414D01*
X78996Y128283D01*
X78834Y128674D01*
X78834Y128674D01*
X78406Y129102D01*
X78280Y129228D01*
X78280D01*
X77557Y129527D01*
X77557Y129528D01*
X77557Y129528D01*
X76774Y129528D01*
X76774Y129528D01*
X76050Y129228D01*
X74606Y128885D01*
X73162Y129228D01*
X73148Y129234D01*
X72439Y129528D01*
X72261Y129528D01*
X71656Y129528D01*
X71491Y129459D01*
X70932Y129228D01*
X69488Y128885D01*
X68044Y129228D01*
X68030Y129234D01*
X67321Y129528D01*
X67142Y129528D01*
X66538Y129528D01*
X66373Y129459D01*
X65814Y129228D01*
X64370Y128885D01*
X62926Y129228D01*
X62203Y129528D01*
X62203Y129528D01*
X62024D01*
X62024D01*
X61419Y129528D01*
X61419Y129528D01*
X61255Y129459D01*
X61255D01*
X60696Y129228D01*
X60696D01*
X60696Y129228D01*
X60142Y128674D01*
X60142Y128674D01*
X59843Y127951D01*
X59842Y127951D01*
X59842Y127772D01*
X59842Y127772D01*
X59842Y127168D01*
X59842Y127167D01*
X59911Y127003D01*
Y127003D01*
X60005Y126776D01*
X60005Y126365D01*
Y122835D01*
X60142Y122143D01*
X60534Y121557D01*
X77296Y104795D01*
X76090Y101885D01*
X74016D01*
X73708Y101824D01*
X73448Y101650D01*
X73274Y101390D01*
X73213Y101083D01*
Y82347D01*
X71751Y81389D01*
X70063Y80848D01*
X69773Y81016D01*
X68937Y81240D01*
X68071D01*
X67235Y81016D01*
X66485Y80583D01*
X65873Y79971D01*
X65441Y79222D01*
X65216Y78386D01*
Y77924D01*
X64230Y77162D01*
X62245Y76442D01*
X34348Y104338D01*
X34058Y105420D01*
X33418Y106529D01*
X32513Y107434D01*
X31404Y108074D01*
X30168Y108405D01*
X28887D01*
X27651Y108074D01*
X26542Y107434D01*
X25637Y106529D01*
X24997Y105420D01*
X24665Y104183D01*
Y102903D01*
X24997Y101667D01*
X25637Y100558D01*
X26542Y99653D01*
X27651Y99013D01*
X28089Y95703D01*
X27862Y95139D01*
X27651Y95082D01*
X26542Y94442D01*
X25637Y93537D01*
X24997Y92428D01*
X24665Y91191D01*
Y89911D01*
X24997Y88674D01*
X25637Y87566D01*
X26542Y86660D01*
X27651Y86020D01*
X28016Y84792D01*
X27651Y81696D01*
X26542Y81056D01*
X25637Y80151D01*
X24997Y79042D01*
X24665Y77806D01*
Y76525D01*
X24997Y75289D01*
X25637Y74180D01*
X26542Y73275D01*
X27112Y72946D01*
X27645Y72251D01*
X62461Y37435D01*
Y36368D01*
X62792Y35131D01*
X63432Y34022D01*
X64337Y33117D01*
X64961Y32757D01*
Y803D01*
X803Y803D01*
X803Y262977D01*
X16003D01*
X16390Y262463D01*
X16508Y261537D01*
X15606Y258267D01*
X15158Y257941D01*
X13712Y256495D01*
X12510Y254841D01*
X11582Y253019D01*
X10950Y251074D01*
X10630Y249054D01*
Y247009D01*
X10950Y244989D01*
X11582Y243044D01*
X12510Y241222D01*
X13712Y239568D01*
X15158Y238122D01*
X16813Y236920D01*
X18635Y235991D01*
X20580Y235359D01*
X22600Y235039D01*
X24645D01*
X26664Y235359D01*
X28609Y235991D01*
X30431Y236920D01*
X32086Y238122D01*
X33532Y239568D01*
X34734Y241222D01*
X35662Y243044D01*
X36294Y244989D01*
X36614Y247009D01*
Y249054D01*
X36294Y251074D01*
X35662Y253019D01*
X34734Y254841D01*
X33532Y256495D01*
X32086Y257941D01*
X31638Y258267D01*
X30736Y261537D01*
X30854Y262463D01*
X31241Y262977D01*
X46300D01*
X47847Y260158D01*
X47802Y259827D01*
X46915Y259234D01*
X45982Y258302D01*
X45250Y257206D01*
X44745Y255988D01*
X44488Y254695D01*
Y253376D01*
X44745Y252083D01*
X45250Y250865D01*
X45982Y249769D01*
X46915Y248837D01*
X48011Y248104D01*
X49229Y247600D01*
X50522Y247342D01*
X51840D01*
X53133Y247600D01*
X54351Y248104D01*
X55448Y248837D01*
X56380Y249769D01*
X57112Y250865D01*
X57617Y252083D01*
X57874Y253376D01*
Y254695D01*
X57617Y255988D01*
X57112Y257206D01*
X56380Y258302D01*
X55448Y259234D01*
X54560Y259827D01*
X54515Y260158D01*
X56062Y262977D01*
X222441D01*
Y138255D01*
D02*
G37*
G36*
X52505Y213856D02*
X52468Y213578D01*
X52457Y213312D01*
X52471Y213057D01*
X52510Y212814D01*
X52575Y212582D01*
X52666Y212362D01*
X52781Y212153D01*
X52923Y211956D01*
X53090Y211771D01*
X52383Y211064D01*
X52197Y211231D01*
X52000Y211372D01*
X51792Y211488D01*
X51572Y211578D01*
X51340Y211643D01*
X51097Y211683D01*
X50842Y211697D01*
X50576Y211685D01*
X50298Y211648D01*
X50008Y211586D01*
X52568Y214145D01*
X52505Y213856D01*
D02*
G37*
G36*
X51625Y207615D02*
X53269Y206643D01*
X53600Y206486D01*
X53898Y206365D01*
X54163Y206278D01*
X54397Y206226D01*
X54598Y206209D01*
X54798Y205209D01*
X54536Y205187D01*
X54272Y205123D01*
X54007Y205017D01*
X53740Y204868D01*
X53470Y204676D01*
X53200Y204442D01*
X52927Y204165D01*
X52653Y203846D01*
X52376Y203483D01*
X52098Y203079D01*
X51134Y207945D01*
X51625Y207615D01*
D02*
G37*
G36*
X52893Y198072D02*
X52743Y197908D01*
X52617Y197740D01*
X52514Y197567D01*
X52435Y197391D01*
X52380Y197210D01*
X52348Y197026D01*
X52340Y196836D01*
X52356Y196643D01*
X52396Y196446D01*
X52459Y196245D01*
X50359Y198345D01*
X50560Y198281D01*
X50757Y198242D01*
X50951Y198226D01*
X51140Y198234D01*
X51324Y198266D01*
X51505Y198321D01*
X51682Y198400D01*
X51854Y198502D01*
X52022Y198629D01*
X52186Y198779D01*
X52893Y198072D01*
D02*
G37*
G36*
X309136Y192067D02*
X308672Y192030D01*
X308568Y192007D01*
X309098Y191477D01*
X308563Y191474D01*
X307610Y191417D01*
X307192Y191363D01*
X306813Y191292D01*
X306746Y191274D01*
X306541Y191158D01*
X305939Y190758D01*
X305309Y190286D01*
X303967Y189123D01*
X303254Y188433D01*
X302547Y189140D01*
X303237Y189852D01*
X304400Y191195D01*
X304872Y191825D01*
X305272Y192427D01*
X305389Y192632D01*
X305406Y192699D01*
X305477Y193078D01*
X305531Y193496D01*
X305588Y194449D01*
X305591Y194984D01*
X306121Y194454D01*
X306144Y194558D01*
X306181Y195022D01*
X309136Y192067D01*
D02*
G37*
G36*
X346457Y188976D02*
Y170472D01*
X334646D01*
Y180315D01*
X322047D01*
Y196850D01*
X338583D01*
X346457Y188976D01*
D02*
G37*
G36*
X361402Y803D02*
X236221Y803D01*
Y9955D01*
X244235Y17969D01*
X244520Y18395D01*
X244620Y18898D01*
Y36858D01*
X277306Y69544D01*
X277591Y69970D01*
X277691Y70472D01*
Y79528D01*
Y108905D01*
X295810Y127025D01*
X296095Y127450D01*
X296195Y127953D01*
Y180224D01*
X306355Y190385D01*
X306825Y190697D01*
X306947Y190766D01*
X307091Y190793D01*
X307573Y190457D01*
X307707Y190289D01*
X307530Y189395D01*
X307398Y189018D01*
X306475Y188485D01*
X305668Y187679D01*
X305098Y186691D01*
X304803Y185590D01*
Y184450D01*
X305098Y183348D01*
X305361Y182892D01*
Y177147D01*
X305098Y176691D01*
X304803Y175590D01*
Y174450D01*
X305098Y173348D01*
X305668Y172361D01*
X306475Y171554D01*
X307462Y170984D01*
X308564Y170689D01*
X309704D01*
X310806Y170984D01*
X311793Y171554D01*
X312599Y172361D01*
X313169Y173348D01*
X313465Y174450D01*
Y175312D01*
X314173Y175751D01*
X314599Y175848D01*
X317721Y172726D01*
X318502Y172127D01*
X319412Y171750D01*
X320389Y171621D01*
X320866D01*
Y169209D01*
X320574Y169109D01*
X320166Y169018D01*
X310870D01*
X310806Y169055D01*
X309704Y169350D01*
X308564D01*
X307462Y169055D01*
X306475Y168485D01*
X305668Y167679D01*
X305098Y166691D01*
X304803Y165590D01*
Y164450D01*
X305098Y163348D01*
X305361Y162892D01*
Y157147D01*
X305098Y156691D01*
X304803Y155590D01*
Y154450D01*
X305098Y153348D01*
X305668Y152361D01*
X306475Y151554D01*
X307462Y150984D01*
X308564Y150689D01*
X309704D01*
X310806Y150984D01*
X311793Y151554D01*
X312599Y152361D01*
X313169Y153348D01*
X313465Y154450D01*
Y155590D01*
X313169Y156691D01*
X312906Y157147D01*
Y161473D01*
X320491D01*
X320602Y161453D01*
X320866Y161382D01*
Y160630D01*
X334252D01*
Y168544D01*
X334646Y169670D01*
X346457D01*
X346764Y169731D01*
X347024Y169905D01*
X347198Y170165D01*
X347259Y170472D01*
Y188976D01*
X347198Y189284D01*
X347024Y189544D01*
X339150Y197418D01*
X338890Y197592D01*
X338583Y197653D01*
X334252D01*
Y199213D01*
X320866D01*
Y190072D01*
X319769Y189561D01*
X319597Y189786D01*
X313345Y196038D01*
X313169Y196691D01*
X312906Y197147D01*
Y202892D01*
X313169Y203348D01*
X313465Y204450D01*
Y205590D01*
X313169Y206691D01*
X312599Y207679D01*
X311793Y208485D01*
X310806Y209055D01*
X309704Y209350D01*
X308564D01*
X307462Y209055D01*
X306475Y208485D01*
X305668Y207679D01*
X305098Y206691D01*
X304803Y205590D01*
Y204450D01*
X305098Y203348D01*
X305361Y202892D01*
Y197147D01*
X305098Y196691D01*
X304803Y195590D01*
Y194450D01*
X305001Y193709D01*
X304992Y193547D01*
X304942Y193163D01*
X304880Y192833D01*
X304811Y192710D01*
X304499Y192241D01*
X293954Y181696D01*
X293669Y181270D01*
X293569Y180768D01*
Y128497D01*
X275450Y110377D01*
X275165Y109951D01*
X275065Y109449D01*
Y80840D01*
X265645D01*
X265288Y81196D01*
X264565Y81496D01*
X263782D01*
X263058Y81196D01*
X262504Y80643D01*
X262205Y79919D01*
Y79136D01*
X262504Y78412D01*
X263058Y77859D01*
X263782Y77559D01*
X264565D01*
X265288Y77859D01*
X265645Y78215D01*
X275065D01*
Y71016D01*
X242379Y38330D01*
X242094Y37904D01*
X241995Y37402D01*
Y19441D01*
X237312Y14759D01*
X236221Y15211D01*
Y262977D01*
X361402D01*
X361402Y803D01*
D02*
G37*
G36*
X321666Y161429D02*
X321606Y161593D01*
X321429Y161740D01*
X321134Y161870D01*
X320721Y161982D01*
X320189Y162077D01*
X319540Y162155D01*
X317886Y162258D01*
X315760Y162293D01*
Y168199D01*
X316882Y168209D01*
X320189Y168469D01*
X320721Y168588D01*
X321134Y168728D01*
X321429Y168890D01*
X321606Y169074D01*
X321666Y169279D01*
Y161429D01*
D02*
G37*
G36*
X221525Y121094D02*
X221469Y121021D01*
X221420Y120943D01*
X221377Y120858D01*
X221341Y120767D01*
X221312Y120671D01*
X221289Y120569D01*
X221273Y120460D01*
X221263Y120346D01*
X221260Y120226D01*
X220260D01*
X220257Y120346D01*
X220247Y120460D01*
X220230Y120569D01*
X220208Y120671D01*
X220178Y120767D01*
X220142Y120858D01*
X220100Y120943D01*
X220051Y121021D01*
X219995Y121094D01*
X219933Y121161D01*
X221587D01*
X221525Y121094D01*
D02*
G37*
G36*
X32037Y103461D02*
X32068Y103388D01*
X32121Y103299D01*
X32194Y103193D01*
X32288Y103072D01*
X32540Y102781D01*
X33075Y102223D01*
X30848Y99996D01*
X30646Y100196D01*
X29877Y100877D01*
X29772Y100950D01*
X29683Y101002D01*
X29610Y101033D01*
X29553Y101043D01*
X32027Y103518D01*
X32037Y103461D01*
D02*
G37*
G36*
X218875Y100664D02*
X218819Y100591D01*
X218770Y100513D01*
X218728Y100428D01*
X218692Y100337D01*
X218663Y100241D01*
X218640Y100138D01*
X218623Y100030D01*
X218614Y99916D01*
X218610Y99796D01*
X217610D01*
X217607Y99916D01*
X217597Y100030D01*
X217581Y100138D01*
X217558Y100241D01*
X217529Y100337D01*
X217493Y100428D01*
X217450Y100513D01*
X217401Y100591D01*
X217346Y100664D01*
X217284Y100731D01*
X218937D01*
X218875Y100664D01*
D02*
G37*
G36*
X32037Y90469D02*
X32068Y90396D01*
X32121Y90307D01*
X32194Y90201D01*
X32288Y90080D01*
X32540Y89789D01*
X33075Y89231D01*
X30848Y87004D01*
X30646Y87203D01*
X29877Y87885D01*
X29772Y87958D01*
X29683Y88010D01*
X29610Y88041D01*
X29553Y88051D01*
X32027Y90526D01*
X32037Y90469D01*
D02*
G37*
G36*
X265084Y80292D02*
X265157Y80237D01*
X265235Y80188D01*
X265320Y80145D01*
X265411Y80109D01*
X265507Y80080D01*
X265610Y80057D01*
X265718Y80041D01*
X265832Y80031D01*
X265952Y80028D01*
Y79028D01*
X265832Y79024D01*
X265718Y79014D01*
X265610Y78998D01*
X265507Y78975D01*
X265411Y78946D01*
X265320Y78910D01*
X265235Y78867D01*
X265157Y78818D01*
X265084Y78763D01*
X265017Y78701D01*
Y80354D01*
X265084Y80292D01*
D02*
G37*
G36*
X276878Y79528D02*
X275878Y78028D01*
X275868Y78218D01*
X275838Y78388D01*
X275788Y78538D01*
X275718Y78668D01*
X275628Y78778D01*
X275518Y78868D01*
X275388Y78938D01*
X275238Y78988D01*
X275068Y79018D01*
X274878Y79028D01*
Y80028D01*
X275068Y80038D01*
X275238Y80068D01*
X275388Y80118D01*
X275518Y80188D01*
X275628Y80278D01*
X275718Y80388D01*
X275788Y80518D01*
X275838Y80668D01*
X275868Y80838D01*
X275878Y81028D01*
X276878Y79528D01*
D02*
G37*
G36*
X31863Y76235D02*
X31874Y76148D01*
X31909Y76047D01*
X31966Y75932D01*
X32047Y75802D01*
X32151Y75659D01*
X32429Y75327D01*
X32800Y74939D01*
X30550Y72734D01*
X28716Y74801D01*
X31876Y76307D01*
X31863Y76235D01*
D02*
G37*
G36*
X228850Y66226D02*
X228859Y66111D01*
X228876Y66003D01*
X228899Y65901D01*
X228928Y65804D01*
X228964Y65714D01*
X229007Y65629D01*
X229056Y65550D01*
X229111Y65477D01*
X229173Y65410D01*
X227520D01*
X227582Y65477D01*
X227637Y65550D01*
X227686Y65629D01*
X227729Y65714D01*
X227765Y65804D01*
X227794Y65901D01*
X227817Y66003D01*
X227833Y66111D01*
X227843Y66226D01*
X227847Y66346D01*
X228847D01*
X228850Y66226D01*
D02*
G37*
G36*
X226488Y52380D02*
X226499Y52267D01*
X226518Y52161D01*
X226544Y52062D01*
X226577Y51970D01*
X226618Y51886D01*
X226667Y51809D01*
X226723Y51739D01*
X226786Y51677D01*
X226857Y51622D01*
X225227Y51339D01*
X225276Y51413D01*
X225320Y51492D01*
X225358Y51577D01*
X225392Y51666D01*
X225420Y51760D01*
X225443Y51859D01*
X225461Y51964D01*
X225474Y52074D01*
X225484Y52308D01*
X226484Y52501D01*
X226488Y52380D01*
D02*
G37*
G36*
X211437Y46320D02*
X211306Y46170D01*
X211190Y45996D01*
X211087Y45798D01*
X210999Y45575D01*
X210925Y45328D01*
X210865Y45057D01*
X210820Y44761D01*
X210788Y44441D01*
X210768Y43727D01*
X208137Y46358D01*
X208506Y46361D01*
X209170Y46410D01*
X209466Y46456D01*
X209737Y46516D01*
X209984Y46590D01*
X210207Y46678D01*
X210406Y46780D01*
X210580Y46897D01*
X210730Y47027D01*
X211437Y46320D01*
D02*
G37*
G36*
X205641Y46897D02*
X205815Y46780D01*
X206013Y46678D01*
X206236Y46590D01*
X206483Y46516D01*
X206755Y46456D01*
X207050Y46410D01*
X207370Y46379D01*
X208084Y46358D01*
X205453Y43727D01*
X205450Y44096D01*
X205401Y44761D01*
X205355Y45057D01*
X205295Y45328D01*
X205221Y45575D01*
X205133Y45798D01*
X205031Y45996D01*
X204914Y46170D01*
X204784Y46320D01*
X205491Y47027D01*
X205641Y46897D01*
D02*
G37*
G36*
X166437Y46320D02*
X166306Y46170D01*
X166190Y45996D01*
X166087Y45798D01*
X165999Y45575D01*
X165925Y45328D01*
X165866Y45057D01*
X165820Y44761D01*
X165788Y44441D01*
X165768Y43727D01*
X163137Y46358D01*
X163506Y46361D01*
X164170Y46410D01*
X164466Y46456D01*
X164737Y46516D01*
X164985Y46590D01*
X165207Y46678D01*
X165406Y46780D01*
X165580Y46897D01*
X165730Y47027D01*
X166437Y46320D01*
D02*
G37*
G36*
X155676Y45884D02*
X157222Y45226D01*
X157449Y45155D01*
X157650Y45105D01*
X157824Y45074D01*
X157970Y45064D01*
X158255Y44064D01*
X158050Y44049D01*
X157851Y44004D01*
X157658Y43929D01*
X157472Y43823D01*
X157293Y43688D01*
X157120Y43522D01*
X156954Y43326D01*
X156794Y43100D01*
X156641Y42844D01*
X156494Y42558D01*
X155285Y46077D01*
X155676Y45884D01*
D02*
G37*
G36*
X68134Y39373D02*
X64975Y37867D01*
X64987Y37939D01*
X64976Y38025D01*
X64942Y38126D01*
X64884Y38241D01*
X64803Y38371D01*
X64699Y38515D01*
X64421Y38846D01*
X64051Y39234D01*
X66300Y41439D01*
X68134Y39373D01*
D02*
G37*
G36*
X225369Y38399D02*
X225457Y38325D01*
X225545Y38260D01*
X225634Y38204D01*
X225723Y38156D01*
X225812Y38118D01*
X225902Y38088D01*
X225992Y38067D01*
X226083Y38055D01*
X226174Y38051D01*
X225005Y36882D01*
X225002Y36973D01*
X224989Y37064D01*
X224968Y37154D01*
X224939Y37244D01*
X224900Y37334D01*
X224852Y37423D01*
X224796Y37511D01*
X224731Y37599D01*
X224658Y37687D01*
X224575Y37774D01*
X225282Y38481D01*
X225369Y38399D01*
D02*
G37*
G36*
X116149Y36046D02*
X116065Y36024D01*
X115981Y35996D01*
X115897Y35961D01*
X115812Y35918D01*
X115727Y35870D01*
X115642Y35814D01*
X115556Y35751D01*
X115384Y35605D01*
X115298Y35522D01*
X114412Y36050D01*
X114495Y36139D01*
X114567Y36227D01*
X114628Y36315D01*
X114678Y36403D01*
X114717Y36491D01*
X114746Y36578D01*
X114763Y36666D01*
X114770Y36753D01*
X114766Y36841D01*
X114751Y36928D01*
X116149Y36046D01*
D02*
G37*
G36*
X112949Y35985D02*
X112909Y35906D01*
X112874Y35821D01*
X112844Y35732D01*
X112819Y35637D01*
X112798Y35537D01*
X112782Y35432D01*
X112763Y35208D01*
X112761Y35088D01*
X111761Y34835D01*
X111757Y34956D01*
X111745Y35069D01*
X111726Y35175D01*
X111700Y35272D01*
X111665Y35362D01*
X111624Y35444D01*
X111574Y35519D01*
X111517Y35585D01*
X111452Y35644D01*
X111380Y35695D01*
X112993Y36060D01*
X112949Y35985D01*
D02*
G37*
G36*
X83734Y34741D02*
X83730Y34653D01*
X83736Y34566D01*
X83754Y34478D01*
X83783Y34391D01*
X83822Y34303D01*
X83872Y34215D01*
X83933Y34127D01*
X84005Y34039D01*
X84088Y33950D01*
X83202Y33422D01*
X83116Y33505D01*
X82944Y33651D01*
X82858Y33714D01*
X82773Y33770D01*
X82688Y33818D01*
X82603Y33860D01*
X82519Y33896D01*
X82435Y33924D01*
X82351Y33946D01*
X83749Y34828D01*
X83734Y34741D01*
D02*
G37*
G36*
X86411Y34385D02*
X86371Y34306D01*
X86336Y34221D01*
X86306Y34132D01*
X86281Y34037D01*
X86260Y33937D01*
X86244Y33832D01*
X86225Y33608D01*
X86223Y33488D01*
X85223Y33235D01*
X85219Y33356D01*
X85208Y33469D01*
X85189Y33575D01*
X85162Y33672D01*
X85128Y33762D01*
X85086Y33844D01*
X85036Y33919D01*
X84979Y33985D01*
X84914Y34044D01*
X84842Y34095D01*
X86455Y34460D01*
X86411Y34385D01*
D02*
G37*
G36*
X165217Y27723D02*
X165350Y27613D01*
X165482Y27520D01*
X165614Y27443D01*
X165744Y27384D01*
X165873Y27340D01*
X166001Y27314D01*
X166128Y27305D01*
X166254Y27312D01*
X166378Y27336D01*
X164684Y25979D01*
X164733Y26092D01*
X164764Y26206D01*
X164778Y26321D01*
X164774Y26436D01*
X164752Y26552D01*
X164712Y26669D01*
X164654Y26786D01*
X164579Y26904D01*
X164486Y27023D01*
X164375Y27143D01*
X165082Y27850D01*
X165217Y27723D01*
D02*
G37*
G36*
X178405Y27383D02*
X178275Y27233D01*
X178158Y27059D01*
X178056Y26861D01*
X177968Y26638D01*
X177894Y26391D01*
X177834Y26120D01*
X177788Y25824D01*
X177757Y25504D01*
X177736Y24790D01*
X175105Y27421D01*
X175474Y27424D01*
X176139Y27473D01*
X176434Y27519D01*
X176706Y27579D01*
X176953Y27653D01*
X177176Y27741D01*
X177374Y27843D01*
X177548Y27960D01*
X177698Y28090D01*
X178405Y27383D01*
D02*
G37*
G36*
X187640Y21762D02*
X187680Y21557D01*
X187748Y21344D01*
X187844Y21124D01*
X187966Y20897D01*
X188116Y20663D01*
X188293Y20421D01*
X188496Y20173D01*
X188986Y19654D01*
X185266D01*
X185524Y19917D01*
X185959Y20421D01*
X186136Y20663D01*
X186286Y20897D01*
X186408Y21124D01*
X186504Y21344D01*
X186572Y21557D01*
X186612Y21762D01*
X186626Y21960D01*
X187626D01*
X187640Y21762D01*
D02*
G37*
G36*
X171323Y21791D02*
X171366Y21582D01*
X171437Y21371D01*
X171537Y21158D01*
X171665Y20942D01*
X171821Y20723D01*
X172006Y20502D01*
X172220Y20278D01*
X172462Y20052D01*
X172733Y19823D01*
X169030Y19467D01*
X169273Y19765D01*
X169682Y20324D01*
X169848Y20586D01*
X169989Y20835D01*
X170104Y21072D01*
X170194Y21297D01*
X170257Y21509D01*
X170296Y21710D01*
X170309Y21899D01*
X171309Y21996D01*
X171323Y21791D01*
D02*
G37*
G36*
X235863Y10747D02*
X235781Y10660D01*
X235707Y10572D01*
X235642Y10484D01*
X235586Y10395D01*
X235538Y10306D01*
X235500Y10217D01*
X235470Y10127D01*
X235449Y10036D01*
X235437Y9946D01*
X235433Y9854D01*
X234264Y11024D01*
X234355Y11027D01*
X234446Y11039D01*
X234536Y11060D01*
X234626Y11090D01*
X234716Y11129D01*
X234805Y11176D01*
X234893Y11232D01*
X234981Y11298D01*
X235069Y11371D01*
X235156Y11454D01*
X235863Y10747D01*
D02*
G37*
%LPC*%
G36*
X51840Y142421D02*
X50522D01*
X49229Y142164D01*
X48011Y141659D01*
X46915Y140927D01*
X45982Y139995D01*
X45250Y138899D01*
X44745Y137681D01*
X44488Y136388D01*
Y135069D01*
X44745Y133776D01*
X45250Y132558D01*
X45982Y131462D01*
X46915Y130530D01*
X48011Y129797D01*
X49229Y129293D01*
X50522Y129035D01*
X51840D01*
X53133Y129293D01*
X54351Y129797D01*
X55448Y130530D01*
X56380Y131462D01*
X57112Y132558D01*
X57617Y133776D01*
X57874Y135069D01*
Y136388D01*
X57617Y137681D01*
X57112Y138899D01*
X56380Y139995D01*
X55448Y140927D01*
X54351Y141659D01*
X53133Y142164D01*
X51840Y142421D01*
D02*
G37*
G36*
X199068Y117283D02*
X198136D01*
X197234Y117042D01*
X196426Y116576D01*
X195767Y115916D01*
X195564Y115565D01*
X195564Y115565D01*
X195351Y115298D01*
X194723Y115164D01*
X192481D01*
X191853Y115298D01*
X191640Y115565D01*
X191640Y115565D01*
X191437Y115916D01*
X190778Y116576D01*
X189970Y117042D01*
X189068Y117283D01*
X188136D01*
X187234Y117042D01*
X186426Y116576D01*
X185767Y115916D01*
X185564Y115565D01*
X185564Y115565D01*
X185351Y115298D01*
X184723Y115164D01*
X182481D01*
X181905Y115287D01*
X181438Y115916D01*
X180778Y116575D01*
X180778Y116576D01*
X179970Y117042D01*
X179970Y117042D01*
X179586Y117145D01*
X179069Y117283D01*
X178136D01*
X177235Y117042D01*
X176427Y116576D01*
X175767Y115916D01*
X175565Y115565D01*
X175565Y115565D01*
X175351Y115298D01*
X174723Y115164D01*
X172481D01*
X171853Y115298D01*
X171640Y115565D01*
X171640Y115565D01*
X171437Y115916D01*
X170778Y116576D01*
X169970Y117042D01*
X169069Y117283D01*
X168136D01*
X167234Y117042D01*
X166426Y116576D01*
X165767Y115916D01*
X165300Y115108D01*
X165059Y114207D01*
Y113274D01*
X165300Y112373D01*
X165767Y111565D01*
X166426Y110905D01*
X167234Y110438D01*
X168136Y110197D01*
X169069D01*
X169970Y110438D01*
X170778Y110905D01*
X171437Y111565D01*
X171640Y111915D01*
X171640Y111915D01*
X171853Y112182D01*
X172481Y112316D01*
X174723D01*
X175300Y112193D01*
X175767Y111565D01*
X176427Y110905D01*
X176427Y110905D01*
X177235Y110438D01*
X177235Y110438D01*
X177619Y110335D01*
X178136Y110197D01*
X179069D01*
X179970Y110438D01*
X180778Y110905D01*
X181438Y111565D01*
X181640Y111915D01*
X181640Y111916D01*
X181853Y112183D01*
X182481Y112316D01*
X184723D01*
X185351Y112183D01*
X185564Y111916D01*
X185564Y111915D01*
X185767Y111565D01*
X186426Y110905D01*
X187234Y110438D01*
X188136Y110197D01*
X189068D01*
X189970Y110438D01*
X189970Y110438D01*
X190778Y110905D01*
X190778Y110905D01*
X191437Y111565D01*
X191905Y112194D01*
X192481Y112316D01*
X194723D01*
X195351Y112182D01*
X195564Y111915D01*
X195564Y111915D01*
X195767Y111565D01*
X196426Y110905D01*
X197234Y110438D01*
X198136Y110197D01*
X199068D01*
X199970Y110438D01*
X200778Y110905D01*
X201437Y111565D01*
X201904Y112373D01*
X202145Y113274D01*
Y114207D01*
X201904Y115108D01*
X201437Y115916D01*
X200778Y116576D01*
X199970Y117042D01*
X199068Y117283D01*
D02*
G37*
G36*
X194069Y107283D02*
X193136D01*
X192234Y107042D01*
X191426Y106576D01*
X190767Y105916D01*
X190564Y105565D01*
X190564Y105565D01*
X190351Y105298D01*
X189723Y105164D01*
X187481D01*
X186853Y105298D01*
X186640Y105565D01*
X186640Y105565D01*
X186437Y105916D01*
X185778Y106576D01*
X184970Y107042D01*
X184069Y107283D01*
X183136D01*
X182234Y107042D01*
X181426Y106576D01*
X180767Y105916D01*
X180564Y105565D01*
X180564Y105565D01*
X180351Y105298D01*
X179723Y105164D01*
X177481D01*
X176905Y105287D01*
X176437Y105916D01*
X175778Y106575D01*
X175778Y106576D01*
X174970Y107042D01*
X174970Y107042D01*
X174585Y107145D01*
X174068Y107283D01*
X173136D01*
X172234Y107042D01*
X171426Y106576D01*
X170767Y105916D01*
X170564Y105565D01*
X170564Y105565D01*
X170351Y105298D01*
X169723Y105164D01*
X167481D01*
X166853Y105298D01*
X166640Y105565D01*
X166640Y105565D01*
X166437Y105916D01*
X165778Y106576D01*
X164970Y107042D01*
X164068Y107283D01*
X163136D01*
X162234Y107042D01*
X161426Y106576D01*
X160767Y105916D01*
X160300Y105108D01*
X160059Y104207D01*
Y103274D01*
X160300Y102373D01*
X160767Y101565D01*
X161426Y100905D01*
X162234Y100438D01*
X163136Y100197D01*
X164068D01*
X164970Y100438D01*
X165778Y100905D01*
X166437Y101565D01*
X166640Y101915D01*
X166640Y101915D01*
X166853Y102182D01*
X167481Y102316D01*
X169723D01*
X170351Y102182D01*
X170564Y101915D01*
X170564Y101915D01*
X170767Y101565D01*
X171426Y100905D01*
X172234Y100438D01*
X173136Y100197D01*
X174068D01*
X174970Y100438D01*
X175778Y100905D01*
X176437Y101565D01*
X176640Y101915D01*
X176640Y101915D01*
X176853Y102182D01*
X177481Y102316D01*
X179723D01*
X180299Y102193D01*
X180767Y101565D01*
X181426Y100905D01*
X181426Y100905D01*
X182234Y100438D01*
X182234Y100438D01*
X182619Y100335D01*
X183136Y100197D01*
X184069D01*
X184970Y100438D01*
X185778Y100905D01*
X186437Y101565D01*
X186640Y101915D01*
X186640Y101915D01*
X186853Y102182D01*
X187481Y102316D01*
X189723D01*
X190351Y102182D01*
X190564Y101915D01*
X190564Y101915D01*
X190767Y101565D01*
X191426Y100905D01*
X192234Y100438D01*
X193136Y100197D01*
X194069D01*
X194970Y100438D01*
X195778Y100905D01*
X196437Y101565D01*
X196904Y102373D01*
X197145Y103274D01*
Y104207D01*
X196904Y105108D01*
X196437Y105916D01*
X195778Y106576D01*
X194970Y107042D01*
X194069Y107283D01*
D02*
G37*
G36*
X204310Y85925D02*
X202895D01*
X201507Y85649D01*
X200199Y85107D01*
X199022Y84321D01*
X198021Y83320D01*
X197235Y82143D01*
X196693Y80836D01*
X196417Y79448D01*
Y78032D01*
X196693Y76644D01*
X197235Y75337D01*
X198021Y74160D01*
X199022Y73159D01*
X200199Y72373D01*
X201507Y71831D01*
X202895Y71555D01*
X204310D01*
X205698Y71831D01*
X207006Y72373D01*
X208183Y73159D01*
X209183Y74160D01*
X209970Y75337D01*
X210511Y76644D01*
X210787Y78032D01*
Y79448D01*
X210511Y80836D01*
X209970Y82143D01*
X209183Y83320D01*
X208183Y84321D01*
X207006Y85107D01*
X205698Y85649D01*
X204310Y85925D01*
D02*
G37*
G36*
X159310D02*
X157895D01*
X156507Y85649D01*
X155199Y85107D01*
X154022Y84321D01*
X153021Y83320D01*
X152235Y82143D01*
X151693Y80836D01*
X151417Y79448D01*
Y78032D01*
X151693Y76644D01*
X152235Y75337D01*
X153021Y74160D01*
X154022Y73159D01*
X155199Y72373D01*
X156507Y71831D01*
X157895Y71555D01*
X159310D01*
X160698Y71831D01*
X162006Y72373D01*
X163183Y73159D01*
X164183Y74160D01*
X164970Y75337D01*
X165511Y76644D01*
X165787Y78032D01*
Y79448D01*
X165511Y80836D01*
X164970Y82143D01*
X164183Y83320D01*
X163183Y84321D01*
X162006Y85107D01*
X160698Y85649D01*
X159310Y85925D01*
D02*
G37*
G36*
X166733Y66339D02*
X165748D01*
X164796Y66084D01*
X163944Y65591D01*
X163271Y64944D01*
X162497Y64199D01*
X159944D01*
X159170Y64944D01*
X158497Y65591D01*
X157644Y66084D01*
X156693Y66339D01*
X155708D01*
X154757Y66084D01*
X153904Y65591D01*
X153208Y64895D01*
X152716Y64042D01*
X152461Y63091D01*
Y62106D01*
X152716Y61155D01*
X153208Y60302D01*
X153904Y59606D01*
X154757Y59113D01*
X155708Y58858D01*
X156693D01*
X157644Y59113D01*
X158497Y59606D01*
X159170Y60253D01*
X159944Y60998D01*
X162497D01*
X163271Y60253D01*
X163944Y59606D01*
X164796Y59113D01*
X165748Y58858D01*
X166733D01*
X167684Y59113D01*
X168537Y59606D01*
X169233Y60302D01*
X169725Y61155D01*
X169980Y62106D01*
Y63091D01*
X169725Y64042D01*
X169233Y64895D01*
X168537Y65591D01*
X167684Y66084D01*
X166733Y66339D01*
D02*
G37*
G36*
X24645Y52362D02*
X22600D01*
X20580Y52042D01*
X18635Y51410D01*
X16813Y50482D01*
X15158Y49280D01*
X13712Y47834D01*
X12510Y46179D01*
X11582Y44357D01*
X10950Y42412D01*
X10630Y40393D01*
Y38348D01*
X10950Y36328D01*
X11582Y34383D01*
X12510Y32561D01*
X13712Y30906D01*
X15158Y29460D01*
X16813Y28258D01*
X18635Y27330D01*
X20580Y26698D01*
X22600Y26378D01*
X24645D01*
X26664Y26698D01*
X28609Y27330D01*
X30431Y28258D01*
X32086Y29460D01*
X33532Y30906D01*
X34734Y32561D01*
X35662Y34383D01*
X36294Y36328D01*
X36614Y38348D01*
Y40393D01*
X36294Y42412D01*
X35662Y44357D01*
X34734Y46179D01*
X33532Y47834D01*
X32086Y49280D01*
X30431Y50482D01*
X28609Y51410D01*
X26664Y52042D01*
X24645Y52362D01*
D02*
G37*
G36*
X307746Y260728D02*
X306427D01*
X305134Y260471D01*
X303916Y259967D01*
X302820Y259234D01*
X301888Y258302D01*
X301155Y257206D01*
X300651Y255988D01*
X300394Y254695D01*
Y253376D01*
X300651Y252083D01*
X301155Y250865D01*
X301888Y249769D01*
X302820Y248837D01*
X303916Y248104D01*
X305134Y247600D01*
X306427Y247342D01*
X307746D01*
X309039Y247600D01*
X310257Y248104D01*
X311353Y248837D01*
X312285Y249769D01*
X313018Y250865D01*
X313522Y252083D01*
X313779Y253376D01*
Y254695D01*
X313522Y255988D01*
X313018Y257206D01*
X312285Y258302D01*
X311353Y259234D01*
X310257Y259967D01*
X309039Y260471D01*
X307746Y260728D01*
D02*
G37*
G36*
X339605Y261024D02*
X337560D01*
X335540Y260704D01*
X333595Y260072D01*
X331773Y259143D01*
X330119Y257941D01*
X328673Y256495D01*
X327471Y254841D01*
X326542Y253019D01*
X325910Y251074D01*
X325591Y249054D01*
Y247009D01*
X325910Y244989D01*
X326542Y243044D01*
X327471Y241222D01*
X328673Y239568D01*
X330119Y238122D01*
X331773Y236920D01*
X333595Y235991D01*
X335540Y235359D01*
X337560Y235039D01*
X339605D01*
X341625Y235359D01*
X343570Y235991D01*
X345392Y236920D01*
X347046Y238122D01*
X348493Y239568D01*
X349694Y241222D01*
X350623Y243044D01*
X351255Y244989D01*
X351575Y247009D01*
Y249054D01*
X351255Y251074D01*
X350623Y253019D01*
X349694Y254841D01*
X348493Y256495D01*
X347046Y257941D01*
X345392Y259143D01*
X343570Y260072D01*
X341625Y260704D01*
X339605Y261024D01*
D02*
G37*
G36*
X309704Y239350D02*
X308564D01*
X307462Y239055D01*
X306475Y238485D01*
X305668Y237679D01*
X305098Y236691D01*
X304803Y235590D01*
Y234450D01*
X305098Y233348D01*
X305668Y232361D01*
X306475Y231554D01*
X307462Y230984D01*
X308564Y230689D01*
X309704D01*
X310806Y230984D01*
X311793Y231554D01*
X312599Y232361D01*
X313169Y233348D01*
X313465Y234450D01*
Y235590D01*
X313169Y236691D01*
X312599Y237679D01*
X311793Y238485D01*
X310806Y239055D01*
X309704Y239350D01*
D02*
G37*
G36*
X334252Y217323D02*
X320866D01*
Y207874D01*
X334252D01*
Y217323D01*
D02*
G37*
G36*
X340617Y208212D02*
X339698D01*
X338811Y207974D01*
X338016Y207515D01*
X337367Y206866D01*
X336908Y206070D01*
X336670Y205184D01*
Y204265D01*
X336908Y203378D01*
X337367Y202583D01*
X338016Y201934D01*
X338811Y201475D01*
X339698Y201237D01*
X340617D01*
X341504Y201475D01*
X342299Y201934D01*
X342948Y202583D01*
X343407Y203378D01*
X343645Y204265D01*
Y205184D01*
X343407Y206070D01*
X342948Y206866D01*
X342299Y207515D01*
X341504Y207974D01*
X340617Y208212D01*
D02*
G37*
G36*
Y157424D02*
X339698D01*
X338811Y157187D01*
X338016Y156728D01*
X337367Y156078D01*
X336908Y155283D01*
X336670Y154396D01*
Y153478D01*
X336908Y152591D01*
X337367Y151796D01*
X338016Y151146D01*
X338811Y150687D01*
X339698Y150450D01*
X340617D01*
X341504Y150687D01*
X342299Y151146D01*
X342948Y151796D01*
X343407Y152591D01*
X343645Y153478D01*
Y154396D01*
X343407Y155283D01*
X342948Y156078D01*
X342299Y156728D01*
X341504Y157187D01*
X340617Y157424D01*
D02*
G37*
G36*
X307746Y142421D02*
X306427D01*
X305134Y142164D01*
X303916Y141659D01*
X302820Y140927D01*
X301888Y139995D01*
X301155Y138899D01*
X300651Y137681D01*
X300394Y136388D01*
Y135069D01*
X300651Y133776D01*
X301155Y132558D01*
X301888Y131462D01*
X302820Y130530D01*
X303916Y129797D01*
X305134Y129293D01*
X306427Y129035D01*
X307746D01*
X309039Y129293D01*
X310257Y129797D01*
X311353Y130530D01*
X312285Y131462D01*
X313018Y132558D01*
X313522Y133776D01*
X313779Y135069D01*
Y136388D01*
X313522Y137681D01*
X313018Y138899D01*
X312285Y139995D01*
X311353Y140927D01*
X310257Y141659D01*
X309039Y142164D01*
X307746Y142421D01*
D02*
G37*
G36*
X314565Y122047D02*
X313782D01*
X313058Y121748D01*
X312504Y121194D01*
X312205Y120470D01*
Y119687D01*
X312504Y118964D01*
X313058Y118410D01*
X313470Y118239D01*
X313523Y117019D01*
X313420Y116945D01*
X306693D01*
X306693Y116945D01*
X306386Y116883D01*
X306125Y116709D01*
X306125Y116709D01*
X281322Y91906D01*
X281148Y91646D01*
X281087Y91339D01*
X281087Y71653D01*
X281148Y71346D01*
X281322Y71086D01*
X281582Y70912D01*
X281890Y70851D01*
X287925D01*
X288002Y70866D01*
X288081D01*
X288154Y70896D01*
X288232Y70912D01*
X288298Y70956D01*
X288370Y70986D01*
X288426Y71042D01*
X288492Y71086D01*
X289042Y70772D01*
X289766Y70472D01*
X290549D01*
X291273Y70772D01*
X291629Y71128D01*
X297882D01*
X301969Y67041D01*
Y66538D01*
X302268Y65814D01*
X302822Y65260D01*
X303545Y64961D01*
X304329D01*
X305052Y65260D01*
X305606Y65814D01*
X305906Y66538D01*
Y67321D01*
X305606Y68044D01*
X305052Y68598D01*
X304329Y68898D01*
X303825D01*
X302963Y69760D01*
X303415Y70851D01*
X326378D01*
X326378Y70851D01*
X326685Y70912D01*
X326946Y71086D01*
X340490Y84630D01*
X355906D01*
X356213Y84691D01*
X356473Y84865D01*
X356647Y85126D01*
X356708Y85433D01*
Y99606D01*
X356647Y99914D01*
X356473Y100174D01*
X356213Y100348D01*
X355906Y100409D01*
X342852D01*
X339779Y103482D01*
Y116142D01*
X339718Y116449D01*
X339544Y116709D01*
X339284Y116883D01*
X338976Y116945D01*
X332816D01*
X332327Y118126D01*
X332378Y118176D01*
X332677Y118900D01*
Y119683D01*
X332378Y120406D01*
X331824Y120960D01*
X331100Y121260D01*
X330317D01*
X330185Y121205D01*
X330055Y121291D01*
X329553Y121391D01*
X315645D01*
X315288Y121748D01*
X314565Y122047D01*
D02*
G37*
G36*
X264692Y114173D02*
X263655D01*
X262654Y113905D01*
X261756Y113387D01*
X261023Y112654D01*
X260505Y111756D01*
X260236Y110755D01*
Y109718D01*
X260505Y108717D01*
X261023Y107819D01*
X261756Y107086D01*
X262654Y106568D01*
X263655Y106299D01*
X264692D01*
X265693Y106568D01*
X266591Y107086D01*
X267324Y107819D01*
X267842Y108717D01*
X268110Y109718D01*
Y110755D01*
X267842Y111756D01*
X267324Y112654D01*
X266591Y113387D01*
X265693Y113905D01*
X264692Y114173D01*
D02*
G37*
G36*
X274016Y44722D02*
X265354D01*
X264224Y44574D01*
X263170Y44137D01*
X262266Y43443D01*
X261572Y42538D01*
X261135Y41485D01*
X260986Y40354D01*
X261135Y39224D01*
X261572Y38170D01*
X262266Y37266D01*
X263170Y36571D01*
X264224Y36135D01*
X265354Y35986D01*
X274016D01*
X275146Y36135D01*
X276200Y36571D01*
X277104Y37266D01*
X277799Y38170D01*
X278235Y39224D01*
X278384Y40354D01*
X278235Y41485D01*
X277799Y42538D01*
X277104Y43443D01*
X276200Y44137D01*
X275146Y44574D01*
X274016Y44722D01*
D02*
G37*
G36*
X339605Y52362D02*
X337560D01*
X335540Y52042D01*
X333595Y51410D01*
X331773Y50482D01*
X330119Y49280D01*
X328673Y47834D01*
X327471Y46179D01*
X326542Y44357D01*
X325910Y42412D01*
X325591Y40393D01*
Y38348D01*
X325910Y36328D01*
X326542Y34383D01*
X327471Y32561D01*
X328673Y30906D01*
X330119Y29460D01*
X331773Y28258D01*
X333595Y27330D01*
X335540Y26698D01*
X337560Y26378D01*
X339605D01*
X341625Y26698D01*
X343570Y27330D01*
X345392Y28258D01*
X347046Y29460D01*
X348493Y30906D01*
X349694Y32561D01*
X350623Y34383D01*
X351255Y36328D01*
X351575Y38348D01*
Y40393D01*
X351255Y42412D01*
X350623Y44357D01*
X349694Y46179D01*
X348493Y47834D01*
X347046Y49280D01*
X345392Y50482D01*
X343570Y51410D01*
X341625Y52042D01*
X339605Y52362D01*
D02*
G37*
%LPD*%
G36*
X315084Y120843D02*
X315157Y120788D01*
X315235Y120739D01*
X315320Y120696D01*
X315411Y120660D01*
X315507Y120631D01*
X315610Y120608D01*
X315718Y120592D01*
X315832Y120582D01*
X315952Y120579D01*
Y119579D01*
X315832Y119576D01*
X315718Y119566D01*
X315610Y119549D01*
X315507Y119527D01*
X315411Y119497D01*
X315320Y119461D01*
X315235Y119419D01*
X315157Y119370D01*
X315084Y119314D01*
X315017Y119252D01*
Y120905D01*
X315084Y120843D01*
D02*
G37*
G36*
X338976Y103150D02*
X342520Y99606D01*
X355906D01*
Y85433D01*
X340158D01*
X326378Y71653D01*
X301069D01*
X299353Y73369D01*
X298927Y73654D01*
X298425Y73754D01*
X291629D01*
X291273Y74110D01*
X290549Y74409D01*
X289766D01*
X289042Y74110D01*
X288489Y73556D01*
X288189Y72833D01*
Y72049D01*
X287925Y71653D01*
X281890D01*
X281890Y91339D01*
X306693Y116142D01*
X338976D01*
Y103150D01*
D02*
G37*
G36*
X291068Y73206D02*
X291141Y73150D01*
X291220Y73101D01*
X291304Y73059D01*
X291395Y73023D01*
X291491Y72993D01*
X291594Y72970D01*
X291702Y72954D01*
X291816Y72944D01*
X291936Y72941D01*
Y71941D01*
X291816Y71938D01*
X291702Y71928D01*
X291594Y71912D01*
X291491Y71889D01*
X291395Y71859D01*
X291304Y71823D01*
X291220Y71781D01*
X291141Y71732D01*
X291068Y71676D01*
X291001Y71614D01*
Y73268D01*
X291068Y73206D01*
D02*
G37*
G36*
X303120Y68458D02*
X303208Y68384D01*
X303296Y68319D01*
X303384Y68263D01*
X303473Y68215D01*
X303563Y68177D01*
X303653Y68147D01*
X303743Y68126D01*
X303834Y68114D01*
X303925Y68110D01*
X302756Y66941D01*
X302752Y67032D01*
X302740Y67123D01*
X302719Y67213D01*
X302689Y67303D01*
X302651Y67393D01*
X302603Y67482D01*
X302547Y67570D01*
X302482Y67659D01*
X302408Y67746D01*
X302326Y67833D01*
X303033Y68540D01*
X303120Y68458D01*
D02*
G37*
D14*
X176476Y26161D02*
X180013Y29698D01*
Y30526D01*
X179427Y31112D02*
X180013Y30526D01*
X177028Y31112D02*
X179427D01*
X176592Y31548D02*
X177028Y31112D01*
X176592Y31548D02*
Y32857D01*
X177028Y33293D01*
X180667D01*
X181253Y33879D01*
Y34747D01*
X180026Y35974D02*
X181253Y34747D01*
X148784Y36318D02*
Y36318D01*
Y36318D02*
X149284Y36818D01*
Y36818D01*
X150213Y37747D01*
X155209D01*
X156818Y36138D01*
Y35426D02*
Y36138D01*
Y35426D02*
X157255Y34990D01*
X158563D01*
X158999Y35426D01*
Y37896D01*
X160459Y39356D01*
X163215D01*
X164674Y37896D01*
Y35426D02*
Y37896D01*
Y35426D02*
X165111Y34990D01*
X166419D01*
X166856Y35426D01*
Y36138D01*
X168465Y37747D01*
X170200D01*
Y37747D02*
Y37747D01*
X148784Y33847D02*
X148784D01*
X148784D02*
X150519Y35582D01*
X150519D01*
X150937Y36000D01*
X154485D01*
X155071Y35414D01*
Y34703D02*
Y35414D01*
Y34703D02*
X156531Y33243D01*
X159287D01*
X160746Y34703D01*
Y37172D01*
X161183Y37609D01*
X162491D01*
X162927Y37172D01*
Y34703D02*
Y37172D01*
Y34703D02*
X164387Y33243D01*
X167143D01*
X168603Y34703D01*
Y35414D01*
X169188Y36000D01*
X170200D01*
X147813Y35347D02*
X148784Y36318D01*
X148537Y33600D02*
X148784Y33847D01*
X129691Y33600D02*
X148537D01*
X147813Y35347D02*
X147813D01*
X128967Y35347D02*
X147813D01*
X154752Y27496D02*
X155681D01*
X156267Y26910D01*
Y25178D02*
Y26910D01*
Y25178D02*
X156703Y24742D01*
X158012D01*
X158448Y25178D01*
Y27060D01*
X158885Y27496D01*
X160193D01*
X160629Y27060D01*
Y25178D02*
Y27060D01*
Y25178D02*
X161066Y24742D01*
X162374D01*
X162811Y25178D01*
Y26910D01*
X163396Y27496D01*
X163896D01*
X90623Y25177D02*
X131477D01*
X133796Y27496D02*
X154752D01*
X131477Y25177D02*
X133796Y27496D01*
X163896D02*
X164728D01*
X175079Y24764D02*
X176476Y26161D01*
X180000Y36000D02*
X180026Y35974D01*
X170200Y36000D02*
X180000D01*
X170200Y37747D02*
X180724D01*
X115309Y33833D02*
X127453D01*
X128967Y35347D01*
X114586Y32086D02*
X128177D01*
X129691Y33600D01*
X183000Y31000D02*
Y35471D01*
Y31000D02*
X187126Y26874D01*
Y17756D02*
Y26874D01*
X180724Y37747D02*
X183000Y35471D01*
X91346Y26924D02*
X130754D01*
X133072Y29243D01*
X167740D01*
X112000Y36700D02*
X112261Y36439D01*
Y34411D02*
X114586Y32086D01*
X114724Y34419D02*
Y35655D01*
X115900Y36831D01*
Y37200D01*
X112261Y34411D02*
Y36439D01*
X114724Y34419D02*
X115309Y33833D01*
X83976Y31824D02*
X90623Y25177D01*
X85723Y32548D02*
X91346Y26924D01*
X164728Y27496D02*
X167047Y25177D01*
X167740Y29243D02*
X170809Y26175D01*
X167047Y24764D02*
Y25177D01*
X170809Y18010D02*
Y26175D01*
Y18010D02*
X171063Y17756D01*
X82600Y34731D02*
X83976Y33356D01*
Y31824D02*
Y33356D01*
X82600Y34731D02*
Y35100D01*
X85723Y32548D02*
Y34839D01*
X85462Y35100D02*
X85723Y34839D01*
X234252Y9843D02*
X243307Y18898D01*
Y37402D01*
X276378Y79528D02*
Y109449D01*
X264173Y79528D02*
X276378D01*
Y70472D02*
Y79528D01*
X225984Y50852D02*
X226186Y50650D01*
X225984Y50852D02*
Y125591D01*
X228346Y64567D02*
Y126378D01*
X223622Y39434D02*
X226186Y36870D01*
X223622Y39434D02*
Y124803D01*
X208110Y43701D02*
X220760Y56350D01*
Y122005D01*
X145866Y205709D02*
X225984Y125591D01*
X150000Y198425D02*
X223622Y124803D01*
X218110Y64961D02*
Y101575D01*
X166053Y52362D02*
X205512D01*
X218110Y64961D01*
X158255Y44564D02*
X166053Y52362D01*
X154095Y43701D02*
X154958Y44564D01*
X158255D01*
X329553Y120079D02*
X330340Y119291D01*
X314173Y120079D02*
X329553D01*
X330340Y119291D02*
X330709D01*
X298425Y72441D02*
X303937Y66929D01*
X290158Y72441D02*
X298425D01*
X202598Y49213D02*
X208110Y43701D01*
X163110D02*
X168622Y49213D01*
X202598D01*
X243307Y37402D02*
X276378Y70472D01*
Y109449D02*
X294882Y127953D01*
Y180768D01*
X309134Y195020D01*
X52539Y198425D02*
X150000D01*
X49823Y205709D02*
X145866D01*
X143307Y211417D02*
X228346Y126378D01*
X52736Y211417D02*
X143307D01*
X49134Y195020D02*
X52539Y198425D01*
X49134Y215020D02*
X52736Y211417D01*
X208110Y43701D02*
X208110D01*
X49134Y205020D02*
X49823Y205709D01*
D15*
X316929Y178853D02*
X320389Y175394D01*
X327249D01*
X316929Y178853D02*
Y187118D01*
X327249Y175394D02*
X327840Y174803D01*
X309134Y195020D02*
Y205020D01*
X309360Y165246D02*
X327337D01*
X309134Y165020D02*
X309360Y165246D01*
X327337D02*
X327840Y165748D01*
X309134Y155020D02*
Y165020D01*
Y175020D02*
Y185020D01*
Y194914D02*
X316929Y187118D01*
X309134Y194914D02*
Y195020D01*
D74*
X156201Y62598D02*
D03*
X166240D02*
D03*
X195965D02*
D03*
X206004D02*
D03*
D76*
X264173Y110236D02*
D03*
D86*
X83280Y14961D02*
X92279D01*
X110280D01*
X119280D02*
X128279D01*
X71761D02*
X83280D01*
X110280D02*
X119280D01*
X128279D02*
X143701D01*
X149094Y20354D02*
Y21772D01*
X71761Y14961D02*
X74279D01*
X143701D02*
X149094Y20354D01*
X92279Y14961D02*
X101279D01*
X69005Y17717D02*
X71761Y14961D01*
X68504Y17717D02*
X69005D01*
X29528Y90551D02*
X68248Y51831D01*
X106555D01*
X72835Y60236D02*
X113386D01*
X121653Y51968D01*
X30453Y75059D02*
Y75739D01*
Y75059D02*
X66398Y39114D01*
Y38434D02*
X67323Y37509D01*
Y37008D02*
Y37509D01*
X29528Y76665D02*
Y77165D01*
Y76665D02*
X30453Y75739D01*
X66398Y38434D02*
Y39114D01*
X29528Y103543D02*
X72835Y60236D01*
D88*
X103937Y100787D02*
X129528D01*
X137008Y93307D01*
X80588Y124137D02*
X103937Y100787D01*
X80588Y124137D02*
Y124137D01*
X77165Y127559D02*
X80588Y124137D01*
X72058Y127548D02*
X72123Y127484D01*
X75469Y122562D02*
Y122562D01*
X72123Y125909D02*
Y127484D01*
Y125909D02*
X75469Y122562D01*
Y122562D02*
X101181Y96850D01*
X117717D01*
X66929Y125197D02*
Y127559D01*
Y125197D02*
X99213Y92913D01*
X106299D01*
X61811Y122835D02*
Y127559D01*
Y122835D02*
X91732Y92913D01*
X117717Y96850D02*
X121653Y92913D01*
D92*
X289223Y108415D02*
D03*
D93*
X298966Y98672D02*
D03*
D94*
X195158Y17756D02*
D03*
X187126D02*
D03*
X179095D02*
D03*
X171063D02*
D03*
X191142Y24764D02*
D03*
X183110D02*
D03*
X175079D02*
D03*
X167047D02*
D03*
X154095Y43701D02*
D03*
X163110D02*
D03*
X199094D02*
D03*
X208110D02*
D03*
D95*
X149094Y21772D02*
D03*
X213110D02*
D03*
D96*
X309134Y155020D02*
D03*
Y165020D02*
D03*
Y175020D02*
D03*
Y185020D02*
D03*
Y195020D02*
D03*
Y205020D02*
D03*
Y215020D02*
D03*
Y225020D02*
D03*
Y235020D02*
D03*
X49134Y165020D02*
D03*
Y175020D02*
D03*
Y185020D02*
D03*
Y195020D02*
D03*
Y205020D02*
D03*
Y215020D02*
D03*
Y225020D02*
D03*
Y235020D02*
D03*
D97*
X340158Y173622D02*
D03*
Y153937D02*
D03*
Y204724D02*
D03*
Y224410D02*
D03*
D98*
X163602Y103740D02*
D03*
X198602Y113740D02*
D03*
X193602Y103740D02*
D03*
X188602Y113740D02*
D03*
X183602Y103740D02*
D03*
X178602Y113740D02*
D03*
X173602Y103740D02*
D03*
X168602Y113740D02*
D03*
D99*
X149941Y93898D02*
D03*
X212264D02*
D03*
D100*
X347441Y92146D02*
D03*
Y77146D02*
D03*
D101*
X269685Y40354D02*
D03*
Y15748D02*
D03*
D102*
X288583Y28543D02*
D03*
D103*
X337779Y93685D02*
D03*
X330780Y107685D02*
D03*
X334279Y100685D02*
D03*
X330780Y93685D02*
D03*
X334279Y86685D02*
D03*
X330780Y79685D02*
D03*
X327279Y100685D02*
D03*
X323780Y93685D02*
D03*
X327279Y86685D02*
D03*
X323780Y79685D02*
D03*
X320280Y100685D02*
D03*
X316779Y93685D02*
D03*
X320280Y86685D02*
D03*
X316779Y79685D02*
D03*
X309780Y107685D02*
D03*
X313280Y100685D02*
D03*
X309780Y93685D02*
D03*
X313280Y86685D02*
D03*
X309780Y79685D02*
D03*
X302780Y107685D02*
D03*
X306279Y100685D02*
D03*
X302780Y93685D02*
D03*
X306279Y86685D02*
D03*
X295779Y93685D02*
D03*
X299279Y86685D02*
D03*
X288779Y93685D02*
D03*
X292280Y86685D02*
D03*
X288779Y79685D02*
D03*
X164567Y11417D02*
D03*
X174016Y10236D02*
D03*
X181496D02*
D03*
X190551D02*
D03*
X204331Y17717D02*
D03*
X156299Y19685D02*
D03*
X92279Y14685D02*
D03*
X83280D02*
D03*
X101279D02*
D03*
X110280D02*
D03*
X119280D02*
D03*
X74279D02*
D03*
X137279D02*
D03*
X128279D02*
D03*
X147244Y41732D02*
D03*
X213386Y30315D02*
D03*
X212992Y37008D02*
D03*
X203150Y37402D02*
D03*
X120079Y36614D02*
D03*
X107874Y35827D02*
D03*
X79921Y31496D02*
D03*
X89370Y35827D02*
D03*
X77953Y36220D02*
D03*
X192126Y41732D02*
D03*
X186221Y45276D02*
D03*
X181496D02*
D03*
X176378D02*
D03*
X171653D02*
D03*
X209279Y32685D02*
D03*
X204780Y23685D02*
D03*
X195780Y5685D02*
D03*
X186779D02*
D03*
X177779D02*
D03*
X168780D02*
D03*
X141779D02*
D03*
X132780D02*
D03*
X123779D02*
D03*
X114779D02*
D03*
X105780D02*
D03*
X96780D02*
D03*
X87779D02*
D03*
X78780Y23685D02*
D03*
Y5685D02*
D03*
X74279Y32685D02*
D03*
X69779Y23685D02*
D03*
Y5685D02*
D03*
X270866Y86614D02*
D03*
X112000Y36700D02*
D03*
X115900Y37200D02*
D03*
X82600Y35100D02*
D03*
X85462D02*
D03*
X234252Y9843D02*
D03*
X216535Y248032D02*
D03*
Y228346D02*
D03*
Y208662D02*
D03*
Y188976D02*
D03*
Y169291D02*
D03*
Y149606D02*
D03*
X211614Y257874D02*
D03*
X206693Y248032D02*
D03*
X211614Y238189D02*
D03*
X206693Y228346D02*
D03*
X211614Y218504D02*
D03*
X206693Y208662D02*
D03*
X211614Y198819D02*
D03*
X206693Y188976D02*
D03*
X211614Y179134D02*
D03*
X206693Y169291D02*
D03*
X211614Y159449D02*
D03*
X201772Y257874D02*
D03*
X196850Y248032D02*
D03*
X201772Y238189D02*
D03*
X196850Y228346D02*
D03*
X201772Y218504D02*
D03*
X196850Y208662D02*
D03*
X201772Y198819D02*
D03*
X196850Y188976D02*
D03*
X201772Y179134D02*
D03*
X196850Y169291D02*
D03*
X201772Y159449D02*
D03*
X191929Y257874D02*
D03*
X187008Y248032D02*
D03*
X191929Y238189D02*
D03*
X187008Y228346D02*
D03*
X191929Y218504D02*
D03*
X187008Y208662D02*
D03*
X191929Y198819D02*
D03*
X187008Y188976D02*
D03*
X191929Y179134D02*
D03*
X182087Y257874D02*
D03*
X177165Y248032D02*
D03*
X182087Y238189D02*
D03*
X177165Y228346D02*
D03*
X182087Y218504D02*
D03*
X177165Y208662D02*
D03*
X182087Y198819D02*
D03*
X177165Y188976D02*
D03*
X182087Y179134D02*
D03*
Y159449D02*
D03*
X172244Y257874D02*
D03*
X167323Y248032D02*
D03*
X172244Y238189D02*
D03*
Y218504D02*
D03*
X167323Y208662D02*
D03*
X172244Y198819D02*
D03*
X167323Y169291D02*
D03*
X172244Y159449D02*
D03*
X162402Y257874D02*
D03*
X157480Y248032D02*
D03*
Y208662D02*
D03*
X162402Y198819D02*
D03*
Y179134D02*
D03*
X157480Y169291D02*
D03*
X162402Y159449D02*
D03*
X152559Y257874D02*
D03*
X147638Y248032D02*
D03*
Y188976D02*
D03*
X152559Y179134D02*
D03*
X147638Y169291D02*
D03*
X152559Y159449D02*
D03*
X142717Y257874D02*
D03*
X137795Y248032D02*
D03*
Y188976D02*
D03*
X142717Y179134D02*
D03*
X137795Y169291D02*
D03*
X142717Y159449D02*
D03*
X132874Y257874D02*
D03*
X127953Y248032D02*
D03*
X132874Y238189D02*
D03*
X127953Y228346D02*
D03*
X132874Y218504D02*
D03*
X127953Y188976D02*
D03*
X132874Y179134D02*
D03*
X127953Y169291D02*
D03*
X132874Y159449D02*
D03*
X123031Y257874D02*
D03*
X118110Y248032D02*
D03*
X123031Y238189D02*
D03*
X118110Y228346D02*
D03*
X123031Y218504D02*
D03*
X118110Y188976D02*
D03*
X123031Y179134D02*
D03*
X118110Y169291D02*
D03*
X123031Y159449D02*
D03*
X113189Y257874D02*
D03*
X108268Y248032D02*
D03*
X113189Y238189D02*
D03*
X108268Y228346D02*
D03*
X113189Y218504D02*
D03*
X108268Y188976D02*
D03*
X113189Y179134D02*
D03*
X108268Y169291D02*
D03*
X113189Y159449D02*
D03*
X103346Y257874D02*
D03*
X98425Y248032D02*
D03*
X103346Y238189D02*
D03*
X98425Y228346D02*
D03*
X103346Y218504D02*
D03*
X98425Y188976D02*
D03*
X93504Y257874D02*
D03*
X88583Y248032D02*
D03*
X93504Y238189D02*
D03*
X88583Y228346D02*
D03*
X93504Y218504D02*
D03*
X88583Y188976D02*
D03*
X83661Y257874D02*
D03*
X78740Y248032D02*
D03*
X83661Y238189D02*
D03*
X78740Y228346D02*
D03*
X83661Y218504D02*
D03*
X78740Y188976D02*
D03*
X73819Y257874D02*
D03*
X68898Y248032D02*
D03*
X73819Y238189D02*
D03*
X68898Y228346D02*
D03*
X73819Y218504D02*
D03*
X68898Y188976D02*
D03*
Y169291D02*
D03*
X63976Y257874D02*
D03*
X59055Y248032D02*
D03*
X63976Y238189D02*
D03*
X59055Y228346D02*
D03*
X63976Y218504D02*
D03*
X59055Y188976D02*
D03*
X63976Y179134D02*
D03*
X39370Y248032D02*
D03*
Y228346D02*
D03*
Y208662D02*
D03*
X29528Y228346D02*
D03*
X34449Y218504D02*
D03*
X29528Y208662D02*
D03*
X34449Y198819D02*
D03*
X19685Y228346D02*
D03*
X24606Y218504D02*
D03*
X19685Y208662D02*
D03*
X24606Y198819D02*
D03*
X19685Y188976D02*
D03*
X9843Y228346D02*
D03*
X14764Y218504D02*
D03*
X9843Y208662D02*
D03*
X14764Y198819D02*
D03*
X9843Y188976D02*
D03*
X14764Y179134D02*
D03*
X9843Y169291D02*
D03*
Y149606D02*
D03*
Y129921D02*
D03*
X264173Y79528D02*
D03*
X355511Y256693D02*
D03*
Y242519D02*
D03*
X351968Y235433D02*
D03*
X355511Y228346D02*
D03*
X351968Y221259D02*
D03*
X355511Y214173D02*
D03*
X351968Y207086D02*
D03*
X355511Y200000D02*
D03*
X351968Y192913D02*
D03*
X355511Y185826D02*
D03*
X351968Y178740D02*
D03*
X355511Y171653D02*
D03*
X351968Y164567D02*
D03*
X355511Y157480D02*
D03*
X351968Y150393D02*
D03*
X355511Y143307D02*
D03*
X351968Y79527D02*
D03*
X355511Y72441D02*
D03*
X351968Y65354D02*
D03*
X355511Y58267D02*
D03*
X351968Y51181D02*
D03*
X355511Y44094D02*
D03*
Y29921D02*
D03*
X351968Y22834D02*
D03*
X355511Y15748D02*
D03*
X351968Y8661D02*
D03*
X348425Y228346D02*
D03*
X344882Y221259D02*
D03*
X348425Y214173D02*
D03*
Y200000D02*
D03*
X344882Y164567D02*
D03*
X348425Y157480D02*
D03*
Y143307D02*
D03*
X344882Y65354D02*
D03*
X348425Y58267D02*
D03*
X344882Y22834D02*
D03*
X348425Y15748D02*
D03*
X344882Y8661D02*
D03*
X341338Y214173D02*
D03*
Y72441D02*
D03*
X337795Y65354D02*
D03*
X341338Y58267D02*
D03*
X337795Y22834D02*
D03*
X341338Y15748D02*
D03*
X337795Y8661D02*
D03*
X330708Y235433D02*
D03*
X334252Y228346D02*
D03*
X330708Y221259D02*
D03*
X334252Y72441D02*
D03*
X330708Y65354D02*
D03*
X334252Y58267D02*
D03*
X330708Y22834D02*
D03*
X334252Y15748D02*
D03*
X330708Y8661D02*
D03*
X323622Y249606D02*
D03*
X327165Y228346D02*
D03*
X323622Y221259D02*
D03*
X327165Y143307D02*
D03*
X323622Y65354D02*
D03*
Y51181D02*
D03*
Y37008D02*
D03*
Y22834D02*
D03*
X327165Y15748D02*
D03*
X323622Y8661D02*
D03*
X320078Y256693D02*
D03*
X316535Y249606D02*
D03*
X320078Y228346D02*
D03*
X316535Y221259D02*
D03*
X320078Y143307D02*
D03*
X316535Y136220D02*
D03*
Y65354D02*
D03*
X320078Y58267D02*
D03*
X316535Y51181D02*
D03*
X320078Y44094D02*
D03*
X316535Y37008D02*
D03*
X320078Y29921D02*
D03*
X316535Y22834D02*
D03*
X320078Y15748D02*
D03*
X316535Y8661D02*
D03*
X312992Y242519D02*
D03*
Y143307D02*
D03*
Y129133D02*
D03*
X309449Y122047D02*
D03*
Y65354D02*
D03*
X312992Y58267D02*
D03*
X309449Y37008D02*
D03*
X312992Y29921D02*
D03*
X309449Y22834D02*
D03*
X312992Y15748D02*
D03*
X309449Y8661D02*
D03*
X305905Y242519D02*
D03*
X302362Y235433D02*
D03*
Y221259D02*
D03*
Y122047D02*
D03*
X305905Y29921D02*
D03*
X302362Y22834D02*
D03*
X305905Y15748D02*
D03*
X302362Y8661D02*
D03*
X298819Y256693D02*
D03*
X295275Y249606D02*
D03*
X298819Y242519D02*
D03*
X295275Y235433D02*
D03*
X298819Y228346D02*
D03*
X295275Y221259D02*
D03*
X298819Y214173D02*
D03*
X295275Y207086D02*
D03*
X298819Y200000D02*
D03*
X295275Y192913D02*
D03*
X298819Y171653D02*
D03*
Y157480D02*
D03*
Y129133D02*
D03*
X295275Y122047D02*
D03*
X298819Y114960D02*
D03*
Y29921D02*
D03*
X295275Y22834D02*
D03*
X298819Y15748D02*
D03*
X295275Y8661D02*
D03*
X291732Y256693D02*
D03*
X288189Y249606D02*
D03*
X291732Y242519D02*
D03*
Y228346D02*
D03*
Y214173D02*
D03*
X288189Y207086D02*
D03*
X291732Y200000D02*
D03*
X288189Y192913D02*
D03*
X291732Y185826D02*
D03*
X288189Y178740D02*
D03*
X291732Y171653D02*
D03*
Y157480D02*
D03*
Y143307D02*
D03*
Y114960D02*
D03*
Y15748D02*
D03*
X288189Y8661D02*
D03*
X284645Y256693D02*
D03*
X281102Y249606D02*
D03*
X284645Y242519D02*
D03*
X281102Y207086D02*
D03*
X284645Y200000D02*
D03*
X281102Y192913D02*
D03*
X284645Y185826D02*
D03*
X281102Y178740D02*
D03*
X284645Y143307D02*
D03*
X281102Y136220D02*
D03*
Y107874D02*
D03*
X284645Y100787D02*
D03*
X281102Y22834D02*
D03*
X284645Y15748D02*
D03*
X281102Y8661D02*
D03*
X277559Y256693D02*
D03*
X274015Y249606D02*
D03*
X277559Y242519D02*
D03*
X274015Y207086D02*
D03*
X277559Y200000D02*
D03*
X274015Y192913D02*
D03*
X277559Y185826D02*
D03*
X274015Y178740D02*
D03*
X277559Y143307D02*
D03*
X274015Y136220D02*
D03*
X277559Y129133D02*
D03*
Y29921D02*
D03*
X274015Y22834D02*
D03*
Y8661D02*
D03*
X270472Y256693D02*
D03*
X266929Y249606D02*
D03*
X270472Y242519D02*
D03*
X266929Y207086D02*
D03*
X270472Y200000D02*
D03*
X266929Y192913D02*
D03*
X270472Y185826D02*
D03*
X266929Y178740D02*
D03*
X270472Y143307D02*
D03*
X266929Y136220D02*
D03*
X270472Y129133D02*
D03*
X266929Y122047D02*
D03*
X270472Y114960D02*
D03*
Y100787D02*
D03*
X266929Y93700D02*
D03*
X270472Y72441D02*
D03*
Y29921D02*
D03*
X266929Y22834D02*
D03*
Y8661D02*
D03*
X263386Y256693D02*
D03*
X259842Y249606D02*
D03*
X263386Y242519D02*
D03*
X259842Y207086D02*
D03*
X263386Y200000D02*
D03*
X259842Y192913D02*
D03*
X263386Y185826D02*
D03*
X259842Y178740D02*
D03*
Y150393D02*
D03*
X263386Y143307D02*
D03*
X259842Y136220D02*
D03*
X263386Y129133D02*
D03*
X259842Y122047D02*
D03*
X263386Y72441D02*
D03*
X259842Y65354D02*
D03*
X263386Y29921D02*
D03*
X259842Y22834D02*
D03*
Y8661D02*
D03*
X256299Y256693D02*
D03*
X252756Y249606D02*
D03*
X256299Y242519D02*
D03*
X252756Y235433D02*
D03*
X256299Y228346D02*
D03*
X252756Y221259D02*
D03*
X256299Y214173D02*
D03*
X252756Y207086D02*
D03*
X256299Y200000D02*
D03*
X252756Y192913D02*
D03*
X256299Y185826D02*
D03*
X252756Y178740D02*
D03*
X256299Y171653D02*
D03*
X252756Y164567D02*
D03*
X256299Y157480D02*
D03*
X252756Y150393D02*
D03*
X256299Y143307D02*
D03*
X252756Y136220D02*
D03*
X256299Y129133D02*
D03*
X252756Y122047D02*
D03*
X256299Y114960D02*
D03*
X252756Y107874D02*
D03*
X256299Y86614D02*
D03*
Y29921D02*
D03*
X252756Y22834D02*
D03*
X256299Y15748D02*
D03*
X252756Y8661D02*
D03*
X249212Y256693D02*
D03*
X245669Y249606D02*
D03*
X249212Y242519D02*
D03*
X245669Y235433D02*
D03*
X249212Y228346D02*
D03*
X245669Y221259D02*
D03*
X249212Y214173D02*
D03*
X245669Y207086D02*
D03*
X249212Y200000D02*
D03*
X245669Y192913D02*
D03*
X249212Y185826D02*
D03*
X245669Y178740D02*
D03*
X249212Y171653D02*
D03*
X245669Y164567D02*
D03*
X249212Y157480D02*
D03*
X245669Y150393D02*
D03*
X249212Y143307D02*
D03*
X245669Y136220D02*
D03*
X249212Y129133D02*
D03*
X245669Y122047D02*
D03*
X249212Y114960D02*
D03*
X245669Y107874D02*
D03*
X242126Y256693D02*
D03*
X238582Y249606D02*
D03*
X242126Y242519D02*
D03*
X238582Y235433D02*
D03*
X242126Y228346D02*
D03*
X238582Y221259D02*
D03*
X242126Y214173D02*
D03*
X238582Y207086D02*
D03*
X242126Y200000D02*
D03*
X238582Y192913D02*
D03*
X242126Y185826D02*
D03*
X238582Y178740D02*
D03*
X242126Y171653D02*
D03*
X238582Y164567D02*
D03*
X242126Y157480D02*
D03*
X238582Y150393D02*
D03*
X242126Y143307D02*
D03*
X238582Y136220D02*
D03*
X242126Y129133D02*
D03*
Y100787D02*
D03*
X238582Y93700D02*
D03*
X242126Y86614D02*
D03*
X238582Y79527D02*
D03*
X242126Y72441D02*
D03*
X238582Y65354D02*
D03*
Y51181D02*
D03*
Y37008D02*
D03*
X77165Y127559D02*
D03*
X72047D02*
D03*
X66929D02*
D03*
X61811D02*
D03*
X91732Y92913D02*
D03*
X137008Y93307D02*
D03*
X121653Y92913D02*
D03*
X106299D02*
D03*
X228346Y64567D02*
D03*
X218110Y101575D02*
D03*
X330709Y119291D02*
D03*
X303937Y66929D02*
D03*
X290158Y72441D02*
D03*
X220760Y122005D02*
D03*
X314173Y120079D02*
D03*
X226186Y36870D02*
D03*
Y50650D02*
D03*
D104*
X68504Y17717D02*
D03*
Y77953D02*
D03*
X121653Y51968D02*
D03*
X29528Y103543D02*
D03*
X67323Y37008D02*
D03*
X106555Y51831D02*
D03*
X29528Y77165D02*
D03*
Y90551D02*
D03*
X342913Y184252D02*
D03*
X337008D02*
D03*
D105*
X142520Y219685D02*
D03*
X146063D02*
D03*
X149606D02*
D03*
X153150D02*
D03*
X156693D02*
D03*
X160236D02*
D03*
Y223228D02*
D03*
X156693D02*
D03*
X153150D02*
D03*
X149606D02*
D03*
X146063D02*
D03*
X142520D02*
D03*
X160236Y226772D02*
D03*
X156693D02*
D03*
X153150D02*
D03*
X149606D02*
D03*
X146063D02*
D03*
X142520D02*
D03*
X160236Y230315D02*
D03*
X156693D02*
D03*
X153150D02*
D03*
X149606D02*
D03*
X146063D02*
D03*
X142520D02*
D03*
X160236Y233858D02*
D03*
X156693D02*
D03*
X153150D02*
D03*
X149606D02*
D03*
X146063D02*
D03*
X142520D02*
D03*
X160236Y237402D02*
D03*
X156693D02*
D03*
X153150D02*
D03*
X149606D02*
D03*
X146063D02*
D03*
X142520D02*
D03*
X78740Y155512D02*
D03*
X82284D02*
D03*
X85827D02*
D03*
X89370D02*
D03*
X92913D02*
D03*
X96457D02*
D03*
Y159055D02*
D03*
X92913D02*
D03*
X89370D02*
D03*
X85827D02*
D03*
X82284D02*
D03*
X78740D02*
D03*
X96457Y162599D02*
D03*
X92913D02*
D03*
X89370D02*
D03*
X85827D02*
D03*
X82284D02*
D03*
X78740D02*
D03*
X96457Y166142D02*
D03*
X92913D02*
D03*
X89370D02*
D03*
X85827D02*
D03*
X82284D02*
D03*
X78740D02*
D03*
X96457Y169685D02*
D03*
X92913D02*
D03*
X89370D02*
D03*
X85827D02*
D03*
X82284D02*
D03*
X78740D02*
D03*
X96457Y173228D02*
D03*
X92913D02*
D03*
X89370D02*
D03*
X85827D02*
D03*
X82284D02*
D03*
X78740D02*
D03*
X266929Y216142D02*
D03*
X270472D02*
D03*
X274016D02*
D03*
X277559D02*
D03*
X281102D02*
D03*
X284646D02*
D03*
Y219685D02*
D03*
X281102D02*
D03*
X277559D02*
D03*
X274016D02*
D03*
X270472D02*
D03*
X266929D02*
D03*
X284646Y223228D02*
D03*
X281102D02*
D03*
X277559D02*
D03*
X274016D02*
D03*
X270472D02*
D03*
X266929D02*
D03*
X284646Y226772D02*
D03*
X281102D02*
D03*
X277559D02*
D03*
X274016D02*
D03*
X270472D02*
D03*
X266929D02*
D03*
X284646Y230315D02*
D03*
X281102D02*
D03*
X277559D02*
D03*
X274016D02*
D03*
X270472D02*
D03*
X266929D02*
D03*
X284646Y233858D02*
D03*
X281102D02*
D03*
X277559D02*
D03*
X274016D02*
D03*
X270472D02*
D03*
X266929D02*
D03*
Y155118D02*
D03*
X270472D02*
D03*
X274016D02*
D03*
X277559D02*
D03*
X281102D02*
D03*
X284646D02*
D03*
Y158661D02*
D03*
X281102D02*
D03*
X277559D02*
D03*
X274016D02*
D03*
X270472D02*
D03*
X266929D02*
D03*
X284646Y162205D02*
D03*
X281102D02*
D03*
X277559D02*
D03*
X274016D02*
D03*
X270472D02*
D03*
X266929D02*
D03*
X284646Y165748D02*
D03*
X281102D02*
D03*
X277559D02*
D03*
X274016D02*
D03*
X270472D02*
D03*
X266929D02*
D03*
X284646Y169291D02*
D03*
X281102D02*
D03*
X277559D02*
D03*
X274016D02*
D03*
X270472D02*
D03*
X266929D02*
D03*
X284646Y172835D02*
D03*
X281102D02*
D03*
X277559D02*
D03*
X274016D02*
D03*
X270472D02*
D03*
X266929D02*
D03*
D107*
X327559Y194488D02*
D03*
Y212598D02*
D03*
Y203543D02*
D03*
Y165354D02*
D03*
Y183465D02*
D03*
Y174409D02*
D03*
D108*
X23622Y39370D02*
D03*
X338583D02*
D03*
Y248031D02*
D03*
X23622D02*
D03*
M02*
