M48
;Layer_Color=9474304
;FILE_FORMAT=2:5
INCH,TZ
;TYPE=PLATED
T1F00S00C0.01181
T2F00S00C0.02799
T4F00S00C0.03346
T5F00S00C0.03400
T6F00S00C0.03504
T7F00S00C0.03543
T8F00S00C0.03937
T9F00S00C0.04300
T10F00S00C0.04331
T11F00S00C0.06299
T12F00S00C0.07087
T13F00S00C0.11811
;TYPE=NON_PLATED
T14F00S00C0.12795
T15F00S00C0.16614
%
T01
X234252Y9843
X252756Y8661
X259842
X266929
X274015
X281102
X288189
X295275
X302362
X309449
X316535
X323622
X330708
X337795
X344882
X351968
X355511Y15748
X348425
X341338
X334252
X327165
X320078
X312992
X305905
X298819
X291732
X284645
X281102Y22834
X274015
X266929
X259842
X252756
X256299Y29921
X263386
X270472
X277559
X298819
X305905
X312992
X320078
X316535Y37008
X323622
X320078Y44094
X316535Y51181
X323622
X320078Y58267
X312992
X309449Y65354
X303937Y66929
X316535Y65354
X323622
X330708
X337795
X344882
X351968
X355511Y72441
X351968Y79527
X341338Y72441
X334252
X330780Y79685
X323780
X316779
X309780
X313280Y86685
X320280
X327279
X334279
X337779Y93685
X330780
X323780
X316779
X309780
X302780
X295779
X288779
X292280Y86685
X299279
X306279
Y100685
X313280
X320280
X327279
X334279
X330780Y107685
X330709Y119291
X314173Y120079
X309449Y122047
X302362
X295275
X298819Y129133
X312992
X316535Y136220
X320078Y143307
X327165
X312992
X291732
X284645
X277559
X270472
X263386
X256299
X249212
X242126
X238582Y136220
X245669
X252756
X259842
X266929
X274015
X281102
X277559Y129133
X270472
X263386
X256299
X249212
X242126
X245669Y122047
X252756
X259842
X266929
X270472Y114960
Y100787
X266929Y93700
X270866Y86614
X264173Y79528
X263386Y72441
X270472
X259842Y65354
X238582
X242126Y72441
X238582Y79527
X242126Y86614
X238582Y93700
X242126Y100787
X245669Y107874
X252756
X256299Y114960
X249212
X256299Y86614
X288779Y79685
X290158Y72441
X284645Y100787
X281102Y107874
X291732Y114960
X298819
X302780Y107685
X309780
X309449Y37008
Y22834
X316535
X323622
X330708
X337795
X344882
X351968
X355511Y29921
Y44094
X351968Y51181
X355511Y58267
X348425
X341338
X334252
X302362Y22834
X295275
X256299Y15748
X238582Y37008
Y51181
X348425Y143307
X355511
X220760Y122005
X218110Y101575
X228346Y64567
X226186Y50650
Y36870
X212992Y37008
X213386Y30315
X209279Y32685
X203150Y37402
X204780Y23685
X204331Y17717
X195780Y5685
X186779
X190551Y10236
X181496
X174016
X177779Y5685
X168780
X164567Y11417
X156299Y19685
X137279Y14685
X128279
X119280
X110280
X101279
X92279
X83280
X87779Y5685
X96780
X105780
X114779
X123779
X132780
X141779
X147244Y41732
X171653Y45276
X176378
X181496
X186221
X192126Y41732
X120079Y36614
X115900Y37200
X112000Y36700
X107874Y35827
X89370
X85462Y35100
X82600
X77953Y36220
X79921Y31496
X78780Y23685
Y5685
X91732Y92913
X106299
X121653
X137008Y93307
X77165Y127559
X72047
X66929
X61811
X9843Y129921
X74279Y32685
X69779Y23685
X74279Y14685
X69779Y5685
X68898Y169291
X63976Y179134
X68898Y188976
X59055
X63976Y218504
X73819
X68898Y228346
X59055
X63976Y238189
X73819
X68898Y248032
X59055
X63976Y257874
X73819
X39370Y248032
Y228346
X29528
X19685
X9843
X14764Y218504
X24606
X34449
X39370Y208662
X29528
X19685
X9843
X14764Y198819
X24606
X34449
X19685Y188976
X9843
X14764Y179134
X9843Y169291
Y149606
X78740Y155512
Y159055
Y162599
Y166142
Y169685
Y173228
X82284
Y169685
Y166142
Y162599
Y159055
Y155512
X85827
Y159055
Y162599
Y166142
Y169685
Y173228
X89370
Y169685
Y166142
Y162599
Y159055
Y155512
X92913
X96457
Y159055
X92913
Y162599
X96457
Y166142
X92913
Y169685
X96457
Y173228
X92913
X108268Y169291
X118110
X127953
X137795
X147638
X157480
X167323
X172244Y159449
X182087
X201772
X211614
X216535Y169291
X206693
X196850
X201772Y179134
X211614
X216535Y188976
X206693
X196850
X187008
X177165
X182087Y198819
X191929
X201772
X211614
X216535Y208662
X206693
X196850
X187008
X177165
X167323
X157480
X156693Y219685
X153150
Y223228
X156693
X160236
Y219685
Y226772
X156693
X153150
Y230315
X156693
X160236
Y233858
X156693
X153150
Y237402
X156693
X160236
X149606
Y233858
Y230315
Y226772
Y223228
Y219685
X146063
Y223228
Y226772
Y230315
Y233858
Y237402
X142520
Y233858
Y230315
Y226772
Y223228
Y219685
X132874Y218504
X123031
X113189
X103346
X93504
X83661
X88583Y228346
X98425
X108268
X118110
X127953
X132874Y238189
X123031
X113189
X103346
X93504
X83661
X88583Y248032
X98425
X108268
X118110
X127953
X137795
X147638
X157480
X167323
X177165
X187008
X196850
X206693
X216535
X211614Y257874
X201772
X191929
X182087
X172244
X162402
X152559
X142717
X132874
X123031
X113189
X103346
X93504
X83661
X78740Y248032
Y228346
Y188976
X88583
X98425
X108268
X118110
X127953
X137795
X147638
X152559Y179134
X162402
X182087
X191929
Y218504
X201772
X211614
X216535Y228346
X206693
X196850
X187008
X177165
X182087Y238189
X191929
X201772
X211614
X172244
Y218504
X182087
X172244Y198819
X162402
Y159449
X152559
X142717
X132874
X123031
X113189
Y179134
X123031
X132874
X142717
X216535Y149606
X238582Y150393
X245669
X252756
X259842
X256299Y157480
X249212
X242126
X238582Y164567
X245669
X252756
X256299Y171653
X249212
X242126
X238582Y178740
X245669
X252756
X259842
X266929
X266929Y172835
Y169291
Y165748
Y162205
Y158661
Y155118
X270472
X274016
Y158661
X270472
Y162205
X274016
Y165748
X270472
Y169291
X274016
Y172835
X270472
X277559
Y169291
Y165748
Y162205
Y158661
Y155118
X281102
X284646
Y158661
X281102
Y162205
X284646
Y165748
X281102
Y169291
X284646
Y172835
X281102
X281102Y178740
X288189
X291732Y185826
X284645
X277559
X270472
X263386
X256299
X249212
X242126
X238582Y192913
X245669
X252756
X259842
X266929
X274015
X281102
X288189
X295275
X298819Y200000
X291732
X284645
X277559
X270472
X263386
X256299
X249212
X242126
X238582Y207086
X245669
X252756
X259842
X266929
X274015
X281102
X288189
X295275
X298819Y214173
X291732
X284646Y216142
X281102
X277559
Y219685
X281102
X284646
Y223228
X281102
X277559
Y226772
X281102
X284646
Y230315
X281102
X277559
Y233858
X281102
X284646
X284645Y242519
X291732
X298819
X305905
X312992
X316535Y249606
X323622
X320078Y256693
X298819
X291732
X284645
X277559
X270472
X263386
X256299
X249212
X242126
X238582Y249606
X245669
X252756
X259842
X266929
X274015
X281102
X288189
X295275
Y235433
X302362
X298819Y228346
X291732
X295275Y221259
X302362
X316535
X323622
X330708
X334252Y228346
X327165
X320078
X330708Y235433
X351968
X355511Y242519
Y256693
Y228346
X348425
X344882Y221259
X351968
X355511Y214173
X348425
X341338
X351968Y207086
X355511Y200000
X348425
X351968Y192913
X355511Y185826
X351968Y178740
X355511Y171653
X351968Y164567
X344882
X348425Y157480
X355511
X351968Y150393
X298819Y157480
X291732
Y171653
X298819
X274015Y178740
X274016Y216142
X270472
Y219685
X274016
Y223228
X270472
Y226772
X274016
Y230315
X270472
Y233858
X274016
X266929
Y230315
Y226772
Y223228
Y219685
Y216142
X256299Y214173
X249212
X242126
X238582Y221259
X245669
X252756
X256299Y228346
X249212
X242126
X238582Y235433
X245669
X252756
X256299Y242519
X263386
X270472
X277559
X249212
X242126
T02
X106555Y51831
X121653Y51968
X67323Y37008
X68504Y17717
Y77953
X29528Y77165
Y90551
Y103543
X337008Y184252
X342913
T04
X289223Y108415
X298966Y98672
T05
X340158Y153937
Y173622
Y204724
Y224410
T06
X171063Y17756
X179095
X187126
X195158
X191142Y24764
X183110
X175079
X167047
X163110Y43701
X154095
X199094
X208110
T07
X163602Y103740
X173602
X183602
X193602
X198602Y113740
X188602
X178602
X168602
T08
X156201Y62598
X166240
X195965
X206004
T09
X347441Y77146
Y92146
T10
X264173Y110236
X49134Y165020
Y175020
Y185020
Y195020
Y205020
Y215020
Y225020
Y235020
X309134
Y225020
Y215020
Y205020
Y195020
Y185020
Y175020
Y165020
Y155020
T11
X149941Y93898
X212264
T12
X149094Y21772
X213110
T13
X307087Y135728
X51181
Y254035
X307087
T14
X156102Y7756
X206102
X203602Y78740
X158602
T15
X338583Y39370
X23622
Y248031
X338583
M30
