G04*
G04 #@! TF.GenerationSoftware,Altium Limited,Altium Designer,21.9.2 (33)*
G04*
G04 Layer_Physical_Order=1*
G04 Layer_Color=255*
%FSLAX25Y25*%
%MOIN*%
G70*
G04*
G04 #@! TF.SameCoordinates,7D1D80C0-A4A2-4293-B872-F3C3C3D81CEA*
G04*
G04*
G04 #@! TF.FilePolarity,Positive*
G04*
G01*
G75*
%ADD13C,0.01000*%
%ADD15C,0.03150*%
G04:AMPARAMS|DCode=17|XSize=35.43mil|YSize=27.56mil|CornerRadius=3.45mil|HoleSize=0mil|Usage=FLASHONLY|Rotation=0.000|XOffset=0mil|YOffset=0mil|HoleType=Round|Shape=RoundedRectangle|*
%AMROUNDEDRECTD17*
21,1,0.03543,0.02067,0,0,0.0*
21,1,0.02854,0.02756,0,0,0.0*
1,1,0.00689,0.01427,-0.01034*
1,1,0.00689,-0.01427,-0.01034*
1,1,0.00689,-0.01427,0.01034*
1,1,0.00689,0.01427,0.01034*
%
%ADD17ROUNDEDRECTD17*%
%ADD18R,0.02756X0.03543*%
G04:AMPARAMS|DCode=19|XSize=57.09mil|YSize=23.23mil|CornerRadius=2.9mil|HoleSize=0mil|Usage=FLASHONLY|Rotation=0.000|XOffset=0mil|YOffset=0mil|HoleType=Round|Shape=RoundedRectangle|*
%AMROUNDEDRECTD19*
21,1,0.05709,0.01742,0,0,0.0*
21,1,0.05128,0.02323,0,0,0.0*
1,1,0.00581,0.02564,-0.00871*
1,1,0.00581,-0.02564,-0.00871*
1,1,0.00581,-0.02564,0.00871*
1,1,0.00581,0.02564,0.00871*
%
%ADD19ROUNDEDRECTD19*%
%ADD20R,0.09016X0.06732*%
%ADD21R,0.06457X0.01968*%
%ADD22R,0.01339X0.03937*%
%ADD23R,0.01339X0.03150*%
%ADD24R,0.09843X0.06693*%
%ADD25R,0.10709X0.06024*%
%ADD26R,0.03543X0.02756*%
%ADD27R,0.06024X0.10709*%
%ADD28R,0.04800X0.02200*%
G04:AMPARAMS|DCode=29|XSize=72.84mil|YSize=53.15mil|CornerRadius=6.64mil|HoleSize=0mil|Usage=FLASHONLY|Rotation=90.000|XOffset=0mil|YOffset=0mil|HoleType=Round|Shape=RoundedRectangle|*
%AMROUNDEDRECTD29*
21,1,0.07284,0.03986,0,0,90.0*
21,1,0.05955,0.05315,0,0,90.0*
1,1,0.01329,0.01993,0.02977*
1,1,0.01329,0.01993,-0.02977*
1,1,0.01329,-0.01993,-0.02977*
1,1,0.01329,-0.01993,0.02977*
%
%ADD29ROUNDEDRECTD29*%
G04:AMPARAMS|DCode=30|XSize=35.43mil|YSize=27.56mil|CornerRadius=3.45mil|HoleSize=0mil|Usage=FLASHONLY|Rotation=90.000|XOffset=0mil|YOffset=0mil|HoleType=Round|Shape=RoundedRectangle|*
%AMROUNDEDRECTD30*
21,1,0.03543,0.02067,0,0,90.0*
21,1,0.02854,0.02756,0,0,90.0*
1,1,0.00689,0.01034,0.01427*
1,1,0.00689,0.01034,-0.01427*
1,1,0.00689,-0.01034,-0.01427*
1,1,0.00689,-0.01034,0.01427*
%
%ADD30ROUNDEDRECTD30*%
%ADD31R,0.02992X0.09016*%
G04:AMPARAMS|DCode=32|XSize=72.84mil|YSize=53.15mil|CornerRadius=6.64mil|HoleSize=0mil|Usage=FLASHONLY|Rotation=180.000|XOffset=0mil|YOffset=0mil|HoleType=Round|Shape=RoundedRectangle|*
%AMROUNDEDRECTD32*
21,1,0.07284,0.03986,0,0,180.0*
21,1,0.05955,0.05315,0,0,180.0*
1,1,0.01329,-0.02977,0.01993*
1,1,0.01329,0.02977,0.01993*
1,1,0.01329,0.02977,-0.01993*
1,1,0.01329,-0.02977,-0.01993*
%
%ADD32ROUNDEDRECTD32*%
%ADD33R,0.09843X0.06693*%
%ADD34R,0.04724X0.03150*%
%ADD35R,0.05433X0.03622*%
%ADD37R,0.28347X0.24410*%
%ADD44C,0.03937*%
%ADD67C,0.05906*%
%ADD72C,0.06299*%
%ADD81R,0.29528X0.28406*%
%ADD82R,0.28347X0.24410*%
%ADD83C,0.01968*%
%ADD84C,0.03000*%
%ADD85C,0.02362*%
%ADD86C,0.02756*%
%ADD87C,0.05906*%
%ADD88C,0.03937*%
%ADD89R,0.39764X0.33071*%
%ADD90C,0.07087*%
%ADD91O,0.05512X0.14173*%
%ADD92O,0.14173X0.05512*%
%ADD93C,0.06300*%
%ADD94C,0.05512*%
%ADD95C,0.05400*%
%ADD96O,0.05512X0.06000*%
%ADD97R,0.06299X0.06299*%
%ADD98C,0.08661*%
%ADD99C,0.09449*%
%ADD100C,0.05315*%
%ADD101C,0.23622*%
%ADD102C,0.02362*%
%ADD103C,0.02402*%
%ADD104C,0.05000*%
G36*
X361402Y803D02*
X236221Y803D01*
Y9530D01*
X236240Y9532D01*
X237102Y9889D01*
X237842Y10457D01*
X238410Y11197D01*
X238767Y12059D01*
X238889Y12984D01*
Y13473D01*
X238767Y14397D01*
X238410Y15259D01*
X237842Y16000D01*
X237828Y16010D01*
X238095Y16798D01*
X239614D01*
X239961Y16451D01*
Y13189D01*
X244291D01*
Y18307D01*
X242669D01*
X242607Y18400D01*
X242978Y19094D01*
X244291D01*
Y24213D01*
X244291D01*
Y24606D01*
X244291D01*
Y29724D01*
X241864D01*
Y33204D01*
X242591Y33505D01*
X245585Y30512D01*
X245472Y29724D01*
X245472D01*
Y24606D01*
X245472Y24606D01*
Y24213D01*
X245472D01*
X245472Y23819D01*
Y19094D01*
X246870D01*
X247241Y18400D01*
X247179Y18307D01*
X245472D01*
Y13189D01*
X249803D01*
Y16451D01*
X252728Y19376D01*
X253013Y19802D01*
X253113Y20304D01*
Y31812D01*
X253013Y32314D01*
X252728Y32740D01*
X246513Y38956D01*
Y41463D01*
X248283D01*
Y43563D01*
Y45663D01*
X248256D01*
X247835Y46450D01*
X247986Y46676D01*
X251971D01*
Y48594D01*
X265301Y61925D01*
X265586Y62351D01*
X265686Y62853D01*
Y73708D01*
X266289Y74387D01*
X269144D01*
X269502Y74459D01*
X269715Y74281D01*
X270007Y73845D01*
X270008Y73843D01*
X270010Y73764D01*
X269920Y73312D01*
Y72941D01*
X277679D01*
Y73312D01*
X277579Y73816D01*
X277293Y74242D01*
X277378Y74889D01*
X277462Y75310D01*
Y77052D01*
X277397Y77380D01*
Y80118D01*
X277756D01*
Y85236D01*
X273425D01*
Y80118D01*
X273784D01*
Y78935D01*
X273622Y78165D01*
X270133D01*
X269960Y78424D01*
X269585Y78675D01*
X269144Y78762D01*
X266289D01*
X265707Y79417D01*
X266289Y80076D01*
X267216D01*
Y82480D01*
Y84885D01*
X266354D01*
X266228Y85033D01*
X265982Y85626D01*
X287311Y106955D01*
X293307D01*
X293809Y107055D01*
X294235Y107340D01*
X297234Y110338D01*
X298808Y111024D01*
X298943D01*
X299466Y111164D01*
X299873Y110458D01*
X281322Y91906D01*
X281148Y91646D01*
X281087Y91339D01*
Y85236D01*
X278937D01*
Y80118D01*
X281087D01*
Y78151D01*
X280330D01*
X279909Y78067D01*
X279553Y77829D01*
X279314Y77473D01*
X279231Y77052D01*
Y75310D01*
X279314Y74889D01*
X279320Y74881D01*
X279488Y74311D01*
X279320Y73741D01*
X279314Y73733D01*
X279231Y73312D01*
Y71570D01*
X279314Y71149D01*
X279312Y71135D01*
X278985Y70916D01*
X278573Y70300D01*
X278428Y69572D01*
Y69048D01*
X278250Y68929D01*
X277462Y69350D01*
Y69572D01*
X277378Y69992D01*
X277293Y70640D01*
X277579Y71066D01*
X277679Y71570D01*
Y71941D01*
X269920D01*
Y71570D01*
X270020Y71066D01*
X270305Y70640D01*
X270220Y69992D01*
X270136Y69572D01*
Y67830D01*
X270185Y67586D01*
Y65554D01*
X269568Y65197D01*
X269055Y64684D01*
X268692Y64056D01*
X268504Y63355D01*
Y62629D01*
X268692Y61928D01*
X269055Y61300D01*
X269568Y60787D01*
X269622Y60756D01*
X269751Y59772D01*
X260108Y50128D01*
X259586Y49347D01*
X259402Y48425D01*
Y42728D01*
X259418Y42649D01*
X259408Y42570D01*
X259509Y42191D01*
X259586Y41806D01*
X259630Y41740D01*
X259651Y41662D01*
X259890Y41351D01*
X260108Y41025D01*
X260174Y40980D01*
X260223Y40917D01*
X260563Y40721D01*
X260889Y40503D01*
X260968Y40487D01*
X261001Y40468D01*
X260986Y40354D01*
X261135Y39224D01*
X261572Y38170D01*
X262266Y37266D01*
X263170Y36571D01*
X264224Y36135D01*
X265354Y35986D01*
X274016D01*
X274449Y36043D01*
X274639Y35760D01*
X274835Y35420D01*
X274898Y35371D01*
X274943Y35305D01*
X275269Y35087D01*
X275580Y34848D01*
X275658Y34827D01*
X275724Y34783D01*
X276109Y34706D01*
X276488Y34604D01*
X276567Y34615D01*
X276646Y34599D01*
X284523D01*
X284911Y34019D01*
X284918Y33812D01*
X284794Y32874D01*
Y29043D01*
X288583D01*
X292371D01*
Y32874D01*
X292248Y33812D01*
X292254Y34019D01*
X292642Y34599D01*
X299606D01*
X300528Y34783D01*
X301309Y35305D01*
X301831Y36086D01*
X302015Y37008D01*
Y63583D01*
X301831Y64504D01*
X301691Y64714D01*
X301903Y65654D01*
X302456Y66208D01*
X302756Y66931D01*
Y67714D01*
X302456Y68438D01*
X301903Y68992D01*
X301179Y69291D01*
X300396D01*
X300276Y70019D01*
Y70851D01*
X300394D01*
X300701Y70912D01*
X300961Y71086D01*
X311238Y81363D01*
X312117Y81128D01*
X312248Y80637D01*
X312743Y79780D01*
X313442Y79081D01*
X314298Y78587D01*
X315248Y78332D01*
Y82087D01*
X315748D01*
Y82587D01*
X319502D01*
X319248Y83536D01*
X319071Y83843D01*
X319526Y84630D01*
X355906D01*
X356213Y84691D01*
X356473Y84865D01*
X356647Y85126D01*
X356708Y85433D01*
Y99606D01*
X356647Y99914D01*
X356473Y100174D01*
X356213Y100348D01*
X355906Y100409D01*
X342852D01*
X339779Y103482D01*
Y107677D01*
X339961D01*
Y112795D01*
X339779D01*
Y116142D01*
X339718Y116449D01*
X339544Y116709D01*
X339559Y117563D01*
X339577Y117597D01*
X339583Y117606D01*
X339667Y118027D01*
Y119769D01*
X339583Y120189D01*
X339544Y120613D01*
X339610Y120711D01*
X339684Y120802D01*
X339696Y120840D01*
X339718Y120873D01*
X339741Y120989D01*
X339775Y121102D01*
X339771Y121141D01*
X339779Y121180D01*
Y125652D01*
X345056Y130928D01*
X345230Y131189D01*
X345291Y131496D01*
Y155905D01*
X345291Y155905D01*
X345230Y156213D01*
X345056Y156473D01*
X332469Y169060D01*
X332770Y169788D01*
X337249D01*
X337556Y169849D01*
X337817Y170023D01*
X337991Y170283D01*
X338605Y170492D01*
X338811Y170372D01*
X339698Y170135D01*
X340617D01*
X341504Y170372D01*
X341710Y170492D01*
X342324Y170283D01*
X342498Y170023D01*
X342758Y169849D01*
X343066Y169788D01*
X346457D01*
X346764Y169849D01*
X347024Y170023D01*
X347198Y170283D01*
X347259Y170591D01*
Y189094D01*
X347198Y189402D01*
X347112Y189531D01*
X347024Y189700D01*
Y190339D01*
X347112Y190509D01*
X347198Y190638D01*
X347259Y190945D01*
X347259Y209449D01*
X347198Y209756D01*
X347024Y210016D01*
X346764Y210191D01*
X346457Y210252D01*
X318242D01*
Y239089D01*
X321048Y241895D01*
X321071Y241929D01*
X323950D01*
Y246260D01*
X320814D01*
X320476Y247022D01*
X320810Y247441D01*
X323950D01*
Y251772D01*
X322704D01*
Y252559D01*
X323950D01*
Y256890D01*
X318832D01*
Y252559D01*
X320079D01*
Y251772D01*
X318832D01*
Y249297D01*
X317182Y247647D01*
X316898Y247221D01*
X316798Y246719D01*
Y244540D01*
X311774Y239516D01*
X311606Y239458D01*
X311313Y239382D01*
X310974Y239318D01*
X310596Y239270D01*
X310113Y239241D01*
X309704Y239350D01*
X308564D01*
X307462Y239055D01*
X306475Y238485D01*
X305668Y237679D01*
X305098Y236691D01*
X304803Y235590D01*
Y234450D01*
X305098Y233348D01*
X305668Y232361D01*
X306475Y231554D01*
X307462Y230984D01*
X308564Y230689D01*
X309704D01*
X310806Y230984D01*
X311793Y231554D01*
X312599Y232361D01*
X313169Y233348D01*
X313465Y234450D01*
Y235590D01*
X313355Y235999D01*
X313384Y236482D01*
X313433Y236860D01*
X313496Y237199D01*
X313572Y237492D01*
X313630Y237660D01*
X314829Y238859D01*
X315616Y238532D01*
Y210252D01*
X312242D01*
X311470Y211006D01*
X311469Y211009D01*
X311470Y211122D01*
X311924Y211384D01*
X312769Y212230D01*
X313368Y213266D01*
X313677Y214422D01*
Y214520D01*
X309134D01*
X304591D01*
Y214422D01*
X304900Y213266D01*
X305498Y212230D01*
X306344Y211384D01*
X306799Y211122D01*
X306799Y211009D01*
X306798Y211005D01*
X306026Y210252D01*
X303150D01*
X302842Y210191D01*
X302582Y210016D01*
X302408Y209756D01*
X302347Y209449D01*
Y190945D01*
X302408Y190638D01*
X302494Y190509D01*
X302582Y190339D01*
Y189700D01*
X302494Y189531D01*
X302408Y189402D01*
X302347Y189094D01*
Y170591D01*
X302408Y170283D01*
X302505Y170138D01*
X302408Y169992D01*
X302347Y169685D01*
Y149606D01*
X302408Y149299D01*
X302582Y149039D01*
X302842Y148865D01*
X303150Y148803D01*
X326045D01*
X330693Y144156D01*
Y141181D01*
X325303D01*
Y137169D01*
Y133158D01*
X330693D01*
Y132299D01*
X318898D01*
X318590Y132238D01*
X318330Y132064D01*
X318156Y131803D01*
X318095Y131496D01*
Y122638D01*
X315866D01*
Y122283D01*
X315684Y122114D01*
X315079Y121834D01*
X314565Y122047D01*
X313782D01*
X313058Y121748D01*
X312504Y121194D01*
X312205Y120470D01*
Y119687D01*
X312504Y118964D01*
X313058Y118410D01*
X313782Y118110D01*
X314565D01*
X315079Y118323D01*
X315684Y118043D01*
X315866Y117874D01*
Y117126D01*
X315154Y116945D01*
X306693D01*
X306693Y116945D01*
X306386Y116883D01*
X306125Y116709D01*
X306125Y116709D01*
X302928Y113512D01*
X302222Y113920D01*
X302362Y114442D01*
Y115479D01*
X302094Y116480D01*
X301576Y117378D01*
X300843Y118111D01*
X299945Y118629D01*
X298943Y118898D01*
X297907D01*
X296906Y118629D01*
X296008Y118111D01*
X295275Y117378D01*
X294757Y116480D01*
X294488Y115479D01*
Y114442D01*
X294757Y113441D01*
X295115Y112820D01*
X295147Y112661D01*
X295175Y112412D01*
X295175Y112194D01*
X295153Y112006D01*
X295141Y111958D01*
X292763Y109580D01*
X288702D01*
X288401Y110308D01*
X288452Y110359D01*
X288736Y110785D01*
X288784Y111024D01*
X288944D01*
X289945Y111292D01*
X290843Y111810D01*
X291576Y112543D01*
X292094Y113441D01*
X292362Y114442D01*
Y115479D01*
X292094Y116480D01*
X291576Y117378D01*
X290843Y118111D01*
X289945Y118629D01*
X288944Y118898D01*
X287907D01*
X286906Y118629D01*
X286008Y118111D01*
X285275Y117378D01*
X284756Y116480D01*
X284488Y115479D01*
Y114442D01*
X284756Y113441D01*
X285275Y112543D01*
X286008Y111810D01*
X286029Y111649D01*
X280465Y106085D01*
X279738Y106386D01*
Y110540D01*
X279776Y110621D01*
X279904Y110847D01*
X280068Y111093D01*
X280264Y111351D01*
X280487Y111605D01*
X280843Y111810D01*
X281576Y112543D01*
X282094Y113441D01*
X282362Y114442D01*
Y115479D01*
X282094Y116480D01*
X281576Y117378D01*
X280843Y118111D01*
X279945Y118629D01*
X278943Y118898D01*
X277907D01*
X276906Y118629D01*
X276008Y118111D01*
X275275Y117378D01*
X274757Y116480D01*
X274488Y115479D01*
Y114442D01*
X274757Y113441D01*
X275275Y112543D01*
X276008Y111810D01*
X276363Y111605D01*
X276586Y111351D01*
X276782Y111093D01*
X276946Y110847D01*
X277075Y110621D01*
X277113Y110540D01*
Y105269D01*
X263583Y91739D01*
X262795Y92065D01*
Y94415D01*
X262830Y94438D01*
X269353Y100962D01*
X269638Y101387D01*
X269738Y101890D01*
Y110540D01*
X269776Y110621D01*
X269904Y110847D01*
X270068Y111093D01*
X270264Y111351D01*
X270487Y111605D01*
X270843Y111810D01*
X271576Y112543D01*
X272094Y113441D01*
X272362Y114442D01*
Y115479D01*
X272094Y116480D01*
X271576Y117378D01*
X270843Y118111D01*
X269945Y118629D01*
X268944Y118898D01*
X267907D01*
X266906Y118629D01*
X266008Y118111D01*
X265275Y117378D01*
X264756Y116480D01*
X264488Y115479D01*
Y114442D01*
X264756Y113441D01*
X265275Y112543D01*
X266008Y111810D01*
X266364Y111605D01*
X266586Y111351D01*
X266782Y111093D01*
X266946Y110847D01*
X267075Y110621D01*
X267113Y110540D01*
Y102434D01*
X261333Y96653D01*
X258465D01*
Y91535D01*
X262266D01*
X262592Y90748D01*
X260245Y88401D01*
X259961Y87976D01*
X259861Y87473D01*
Y85629D01*
X259073Y85303D01*
X257677Y86699D01*
Y89173D01*
X257220D01*
X257087Y89372D01*
Y90155D01*
X256841Y90748D01*
X257042Y91245D01*
X257244Y91535D01*
X257283D01*
Y96653D01*
X252953D01*
Y95269D01*
X251971D01*
Y95844D01*
X245596D01*
Y92069D01*
X251971D01*
Y92644D01*
X252953D01*
Y91535D01*
X252992D01*
X253194Y91245D01*
X253395Y90748D01*
X253150Y90155D01*
Y89372D01*
X253017Y89173D01*
X252559D01*
Y89090D01*
X252183Y88458D01*
X251772Y88458D01*
X249283D01*
Y86358D01*
Y84258D01*
X251503Y84258D01*
X252024Y83667D01*
X251983Y83346D01*
X251871Y83246D01*
X245596D01*
Y79471D01*
X251970D01*
Y79471D01*
X252559Y79331D01*
X252559Y79331D01*
X252700Y79331D01*
X255422D01*
X255748Y78543D01*
X255669Y78464D01*
X255306Y77835D01*
X255162Y77297D01*
X245669D01*
X245167Y77197D01*
X244741Y76912D01*
X239272Y71443D01*
X238987Y71017D01*
X238887Y70515D01*
Y45074D01*
X236948Y43135D01*
X236221Y43436D01*
Y103927D01*
X236983Y104578D01*
X238476D01*
Y109252D01*
Y113926D01*
X236983D01*
X236720Y114151D01*
Y114726D01*
X237415Y115404D01*
X238476D01*
Y120079D01*
Y124753D01*
X236983D01*
X236221Y125404D01*
Y262977D01*
X317983D01*
X318620Y262614D01*
X318620Y262189D01*
Y260736D01*
X324163D01*
Y262189D01*
X324163Y262614D01*
X324800Y262977D01*
X361402D01*
X361402Y803D01*
D02*
G37*
G36*
X322296Y253348D02*
X322211Y253319D01*
X322136Y253269D01*
X322071Y253199D01*
X322016Y253109D01*
X321971Y252998D01*
X321936Y252869D01*
X321911Y252718D01*
X321896Y252549D01*
X321891Y252359D01*
X320891D01*
X320886Y252549D01*
X320871Y252718D01*
X320846Y252869D01*
X320811Y252998D01*
X320766Y253109D01*
X320711Y253199D01*
X320646Y253269D01*
X320571Y253319D01*
X320486Y253348D01*
X320391Y253359D01*
X322391D01*
X322296Y253348D01*
D02*
G37*
G36*
X321896Y251782D02*
X321911Y251612D01*
X321936Y251462D01*
X321971Y251332D01*
X322016Y251222D01*
X322071Y251132D01*
X322136Y251062D01*
X322211Y251012D01*
X322296Y250982D01*
X322391Y250972D01*
X320391D01*
X320486Y250982D01*
X320571Y251012D01*
X320646Y251062D01*
X320711Y251132D01*
X320766Y251222D01*
X320811Y251332D01*
X320846Y251462D01*
X320871Y251612D01*
X320886Y251782D01*
X320891Y251972D01*
X321891D01*
X321896Y251782D01*
D02*
G37*
G36*
X321046Y248252D02*
X320969Y248308D01*
X320878Y248335D01*
X320773Y248334D01*
X320653Y248304D01*
X320519Y248246D01*
X320370Y248160D01*
X320207Y248046D01*
X320030Y247903D01*
X319632Y247533D01*
X318925Y248240D01*
X319124Y248446D01*
X319437Y248816D01*
X319552Y248979D01*
X319638Y249127D01*
X319695Y249261D01*
X319725Y249381D01*
X319726Y249487D01*
X319699Y249578D01*
X319644Y249655D01*
X321046Y248252D01*
D02*
G37*
G36*
X321440Y242741D02*
X321342Y242775D01*
X321227Y242778D01*
X321094Y242749D01*
X320943Y242689D01*
X320775Y242597D01*
X320590Y242474D01*
X320387Y242320D01*
X319928Y241917D01*
X319672Y241668D01*
X318925Y242335D01*
X319141Y242559D01*
X319478Y242951D01*
X319599Y243120D01*
X319687Y243270D01*
X319742Y243403D01*
X319766Y243517D01*
X319757Y243613D01*
X319717Y243690D01*
X319644Y243749D01*
X321440Y242741D01*
D02*
G37*
G36*
X313471Y238650D02*
X313315Y238466D01*
X313176Y238243D01*
X313054Y237981D01*
X312950Y237680D01*
X312862Y237340D01*
X312791Y236961D01*
X312737Y236543D01*
X312680Y235590D01*
X312677Y235055D01*
X309169Y238563D01*
X309704Y238566D01*
X310657Y238623D01*
X311075Y238677D01*
X311454Y238748D01*
X311794Y238835D01*
X312095Y238940D01*
X312357Y239062D01*
X312580Y239201D01*
X312764Y239357D01*
X313471Y238650D01*
D02*
G37*
G36*
X346457Y190945D02*
X312070D01*
X311984Y191445D01*
X312769Y192230D01*
X313368Y193266D01*
X313677Y194422D01*
Y194520D01*
X309134D01*
X304591D01*
Y194422D01*
X304900Y193266D01*
X305498Y192230D01*
X306283Y191445D01*
X306198Y190945D01*
X303150D01*
Y209449D01*
X306719D01*
X306853Y208949D01*
X306344Y208655D01*
X305498Y207809D01*
X304900Y206773D01*
X304591Y205618D01*
Y205520D01*
X309134D01*
X313677D01*
Y205618D01*
X313368Y206773D01*
X312769Y207809D01*
X311924Y208655D01*
X311415Y208949D01*
X311549Y209449D01*
X346457D01*
X346457Y190945D01*
D02*
G37*
G36*
X37163Y190689D02*
X37193Y190603D01*
X37243Y190529D01*
X37313Y190463D01*
X37403Y190409D01*
X37513Y190364D01*
X37643Y190329D01*
X37793Y190304D01*
X37963Y190288D01*
X38153Y190284D01*
Y189284D01*
X37963Y189278D01*
X37793Y189263D01*
X37643Y189239D01*
X37513Y189204D01*
X37403Y189158D01*
X37313Y189103D01*
X37243Y189039D01*
X37193Y188963D01*
X37163Y188879D01*
X37153Y188784D01*
Y190784D01*
X37163Y190689D01*
D02*
G37*
G36*
X45688Y189201D02*
X45911Y189062D01*
X46172Y188940D01*
X46473Y188835D01*
X46813Y188748D01*
X47192Y188677D01*
X47610Y188623D01*
X48563Y188566D01*
X49098Y188563D01*
X45591Y185055D01*
X45588Y185590D01*
X45531Y186543D01*
X45477Y186961D01*
X45406Y187340D01*
X45318Y187680D01*
X45213Y187981D01*
X45091Y188243D01*
X44952Y188466D01*
X44797Y188650D01*
X45504Y189357D01*
X45688Y189201D01*
D02*
G37*
G36*
X34954Y180477D02*
X35449D01*
X35354Y180467D01*
X35269Y180436D01*
X35194Y180386D01*
X35129Y180315D01*
X35074Y180224D01*
X35029Y180112D01*
X34994Y179981D01*
X34980Y179894D01*
X35092Y178442D01*
X35172Y177970D01*
X35270Y177552D01*
X35386Y177187D01*
X35520Y176875D01*
X35672Y176616D01*
X35842Y176411D01*
X33056D01*
X33226Y176616D01*
X33377Y176875D01*
X33511Y177187D01*
X33627Y177552D01*
X33726Y177970D01*
X33806Y178442D01*
X33913Y179545D01*
X33926Y179847D01*
X33904Y179981D01*
X33869Y180112D01*
X33824Y180224D01*
X33769Y180315D01*
X33704Y180386D01*
X33629Y180436D01*
X33544Y180467D01*
X33449Y180477D01*
X33944D01*
X33949Y180861D01*
X34949D01*
X34954Y180477D01*
D02*
G37*
G36*
X46603Y172539D02*
X46488Y172637D01*
X46341Y172724D01*
X46164Y172800D01*
X45956Y172867D01*
X45717Y172923D01*
X45448Y172969D01*
X44816Y173031D01*
X44454Y173046D01*
X44062Y173051D01*
Y176988D01*
X44454Y176993D01*
X45448Y177070D01*
X45717Y177116D01*
X45956Y177173D01*
X46164Y177239D01*
X46341Y177316D01*
X46488Y177403D01*
X46603Y177500D01*
Y172539D01*
D02*
G37*
G36*
X306198Y189094D02*
X306283Y188594D01*
X305498Y187809D01*
X304900Y186773D01*
X304591Y185618D01*
Y185520D01*
X309134D01*
X313677D01*
Y185618D01*
X313368Y186773D01*
X312769Y187809D01*
X311984Y188594D01*
X312070Y189094D01*
X346457Y189094D01*
Y170591D01*
X343066D01*
X342859Y171091D01*
X343118Y171350D01*
X343605Y172194D01*
X343854Y173122D01*
X340158D01*
X336461D01*
X336710Y172194D01*
X337197Y171350D01*
X337456Y171091D01*
X337249Y170591D01*
X311549D01*
X311415Y171091D01*
X311924Y171384D01*
X312769Y172230D01*
X313368Y173266D01*
X313677Y174422D01*
Y174520D01*
X309134D01*
X304591D01*
Y174422D01*
X304900Y173266D01*
X305498Y172230D01*
X306344Y171384D01*
X306853Y171091D01*
X306719Y170591D01*
X303150D01*
Y189094D01*
X306198D01*
D02*
G37*
G36*
X344488Y155905D02*
Y131496D01*
X338976Y125984D01*
Y121180D01*
X338590Y120863D01*
X338568Y120868D01*
X333440D01*
X333019Y120784D01*
X332663Y120546D01*
X332145Y120639D01*
X331824Y120960D01*
X331100Y121260D01*
X330317D01*
X329594Y120960D01*
X329040Y120406D01*
X328740Y119683D01*
Y118900D01*
X328476Y118504D01*
X318898D01*
Y131496D01*
X331496D01*
Y144488D01*
X326378Y149606D01*
X303150D01*
Y169685D01*
X307128D01*
X307262Y169185D01*
X306344Y168655D01*
X305498Y167809D01*
X304900Y166773D01*
X304591Y165618D01*
Y165520D01*
X309134D01*
X313677D01*
Y165618D01*
X313368Y166773D01*
X312769Y167809D01*
X311924Y168655D01*
X311006Y169185D01*
X311140Y169685D01*
X330709D01*
X344488Y155905D01*
D02*
G37*
G36*
X46645Y162498D02*
X46529Y162592D01*
X46383Y162676D01*
X46206Y162750D01*
X45998Y162814D01*
X45759Y162868D01*
X45489Y162913D01*
X44857Y162972D01*
X44495Y162987D01*
X44102Y162992D01*
X44023Y166929D01*
X44415Y166935D01*
X45408Y167014D01*
X45677Y167061D01*
X45916Y167119D01*
X46123Y167188D01*
X46301Y167267D01*
X46447Y167357D01*
X46562Y167457D01*
X46645Y162498D01*
D02*
G37*
G36*
X51975Y162872D02*
X51867Y162652D01*
X51772Y162413D01*
X51690Y162155D01*
X51620Y161879D01*
X51563Y161585D01*
X51487Y160941D01*
X51468Y160591D01*
X51462Y160223D01*
X48312Y159447D01*
X48302Y159815D01*
X48270Y160159D01*
X48217Y160478D01*
X48142Y160773D01*
X48046Y161042D01*
X47929Y161287D01*
X47791Y161507D01*
X47631Y161703D01*
X47450Y161874D01*
X47248Y162020D01*
X52095Y163074D01*
X51975Y162872D01*
D02*
G37*
G36*
X34683Y156280D02*
X34551Y156185D01*
X34435Y156028D01*
X34334Y155807D01*
X34249Y155524D01*
X34179Y155177D01*
X34125Y154768D01*
X34117Y154637D01*
X34179Y153878D01*
X34249Y153531D01*
X34334Y153248D01*
X34435Y153027D01*
X34551Y152870D01*
X34683Y152775D01*
X34830Y152744D01*
X30130D01*
X30277Y152775D01*
X30409Y152870D01*
X30525Y153027D01*
X30626Y153248D01*
X30712Y153531D01*
X30781Y153878D01*
X30836Y154287D01*
X30844Y154418D01*
X30781Y155177D01*
X30712Y155524D01*
X30626Y155807D01*
X30525Y156028D01*
X30409Y156185D01*
X30277Y156280D01*
X30130Y156311D01*
X34830D01*
X34683Y156280D01*
D02*
G37*
G36*
X22872Y155886D02*
X22740Y155792D01*
X22624Y155634D01*
X22523Y155414D01*
X22438Y155130D01*
X22368Y154784D01*
X22322Y154437D01*
X22368Y153878D01*
X22438Y153531D01*
X22523Y153248D01*
X22624Y153027D01*
X22740Y152870D01*
X22872Y152775D01*
X23020Y152744D01*
X18319D01*
X18466Y152775D01*
X18598Y152870D01*
X18714Y153027D01*
X18815Y153248D01*
X18901Y153531D01*
X18970Y153878D01*
X19016Y154224D01*
X18970Y154784D01*
X18901Y155130D01*
X18815Y155414D01*
X18714Y155634D01*
X18598Y155792D01*
X18466Y155886D01*
X18319Y155918D01*
X23020D01*
X22872Y155886D01*
D02*
G37*
G36*
X34683Y142500D02*
X34551Y142406D01*
X34435Y142248D01*
X34334Y142028D01*
X34249Y141744D01*
X34179Y141398D01*
X34125Y140988D01*
X34117Y140858D01*
X34179Y140099D01*
X34249Y139752D01*
X34334Y139469D01*
X34435Y139248D01*
X34551Y139091D01*
X34683Y138996D01*
X34830Y138965D01*
X30130D01*
X30277Y138996D01*
X30409Y139091D01*
X30525Y139248D01*
X30626Y139469D01*
X30711Y139752D01*
X30781Y140099D01*
X30836Y140508D01*
X30844Y140639D01*
X30781Y141398D01*
X30712Y141744D01*
X30626Y142028D01*
X30525Y142248D01*
X30409Y142406D01*
X30277Y142500D01*
X30130Y142532D01*
X34830D01*
X34683Y142500D01*
D02*
G37*
G36*
X22872D02*
X22740Y142406D01*
X22624Y142248D01*
X22523Y142028D01*
X22438Y141744D01*
X22368Y141398D01*
X22314Y140988D01*
X22306Y140858D01*
X22368Y140098D01*
X22438Y139752D01*
X22523Y139468D01*
X22624Y139248D01*
X22740Y139090D01*
X22872Y138996D01*
X23020Y138964D01*
X18319D01*
X18466Y138996D01*
X18598Y139090D01*
X18714Y139248D01*
X18815Y139468D01*
X18901Y139752D01*
X18970Y140098D01*
X19025Y140508D01*
X19033Y140638D01*
X18970Y141398D01*
X18901Y141744D01*
X18815Y142028D01*
X18714Y142248D01*
X18598Y142406D01*
X18466Y142500D01*
X18319Y142532D01*
X23020D01*
X22872Y142500D01*
D02*
G37*
G36*
X221638Y128049D02*
X220714Y127666D01*
X201478Y146902D01*
X200656Y147533D01*
X199698Y147930D01*
X198670Y148065D01*
X72117D01*
X62042Y158141D01*
Y169291D01*
X61906Y170319D01*
X61510Y171277D01*
X60879Y172099D01*
X55904Y177074D01*
X55081Y177705D01*
X54124Y178102D01*
X53163Y178228D01*
X52276Y179115D01*
X51109Y179789D01*
X50659Y179910D01*
Y180945D01*
X50805Y180984D01*
X51793Y181554D01*
X52599Y182361D01*
X53169Y183348D01*
X53465Y184450D01*
Y185590D01*
X53169Y186691D01*
X52599Y187679D01*
X51793Y188485D01*
X50805Y189055D01*
X49704Y189350D01*
X48564D01*
X48155Y189241D01*
X47671Y189270D01*
X47294Y189318D01*
X46955Y189382D01*
X46662Y189457D01*
X46494Y189516D01*
X45298Y190712D01*
X44872Y190996D01*
X44370Y191096D01*
X37953D01*
Y192382D01*
X30945D01*
Y187185D01*
X37953D01*
Y188471D01*
X43826D01*
X44638Y187660D01*
X44696Y187492D01*
X44772Y187199D01*
X44835Y186860D01*
X44884Y186482D01*
X44913Y185999D01*
X44803Y185590D01*
Y184450D01*
X45098Y183348D01*
X45668Y182361D01*
X46475Y181554D01*
X47462Y180984D01*
X47609Y180945D01*
Y179910D01*
X47158Y179789D01*
X46463Y179388D01*
X38740D01*
Y185650D01*
X30158D01*
Y179388D01*
X28169D01*
X27039Y179239D01*
X25985Y178803D01*
X25081Y178108D01*
X17974Y171002D01*
X17280Y170097D01*
X16844Y169044D01*
X16695Y167913D01*
Y164961D01*
X16732Y164677D01*
Y161417D01*
X16732Y161417D01*
Y160630D01*
X16732D01*
X16732Y160417D01*
Y157738D01*
X16698Y157480D01*
Y151181D01*
X16732Y150923D01*
Y148032D01*
X16732D01*
Y147244D01*
X16732D01*
Y144352D01*
X16698Y144095D01*
Y137402D01*
X16732Y137144D01*
Y134252D01*
X16299Y133432D01*
X15894Y133121D01*
X15042Y132011D01*
X14507Y130718D01*
X14324Y129331D01*
Y126378D01*
X803D01*
X803Y262977D01*
X221638D01*
Y128049D01*
D02*
G37*
G36*
X78157Y126386D02*
X78219Y125756D01*
X78274Y125500D01*
X78343Y125283D01*
X78429Y125106D01*
X78530Y124968D01*
X78646Y124870D01*
X78778Y124811D01*
X78925Y124791D01*
X75406D01*
X75553Y124811D01*
X75685Y124870D01*
X75801Y124968D01*
X75902Y125106D01*
X75987Y125283D01*
X76057Y125500D01*
X76111Y125756D01*
X76150Y126051D01*
X76173Y126386D01*
X76181Y126760D01*
X78150D01*
X78157Y126386D01*
D02*
G37*
G36*
X73039D02*
X73101Y125756D01*
X73156Y125500D01*
X73225Y125283D01*
X73311Y125106D01*
X73412Y124968D01*
X73528Y124870D01*
X73660Y124811D01*
X73807Y124791D01*
X70288D01*
X70435Y124811D01*
X70567Y124870D01*
X70683Y124968D01*
X70784Y125106D01*
X70869Y125283D01*
X70939Y125500D01*
X70993Y125756D01*
X71032Y126051D01*
X71055Y126386D01*
X71063Y126760D01*
X73032D01*
X73039Y126386D01*
D02*
G37*
G36*
X67921D02*
X67983Y125756D01*
X68037Y125500D01*
X68107Y125283D01*
X68192Y125106D01*
X68293Y124968D01*
X68410Y124870D01*
X68542Y124811D01*
X68689Y124791D01*
X65170D01*
X65317Y124811D01*
X65449Y124870D01*
X65565Y124968D01*
X65666Y125106D01*
X65751Y125283D01*
X65821Y125500D01*
X65875Y125756D01*
X65914Y126051D01*
X65937Y126386D01*
X65945Y126760D01*
X67913D01*
X67921Y126386D01*
D02*
G37*
G36*
X62803D02*
X62865Y125756D01*
X62919Y125500D01*
X62989Y125283D01*
X63074Y125106D01*
X63175Y124968D01*
X63292Y124870D01*
X63423Y124811D01*
X63571Y124791D01*
X60051D01*
X60199Y124811D01*
X60330Y124870D01*
X60447Y124968D01*
X60548Y125106D01*
X60633Y125283D01*
X60703Y125500D01*
X60757Y125756D01*
X60796Y126051D01*
X60819Y126386D01*
X60827Y126760D01*
X62795D01*
X62803Y126386D01*
D02*
G37*
G36*
X35454Y127557D02*
X35627Y125916D01*
X35779Y125250D01*
X35974Y124685D01*
X36212Y124223D01*
X36494Y123864D01*
X36819Y123607D01*
X37187Y123453D01*
X37598Y123401D01*
X28555Y123413D01*
X28740Y123464D01*
X28905Y123618D01*
X29051Y123874D01*
X29177Y124232D01*
X29284Y124693D01*
X29372Y125256D01*
X29488Y126689D01*
X29527Y128532D01*
X35433D01*
X35454Y127557D01*
D02*
G37*
G36*
X22626Y123413D02*
X13780Y123401D01*
X14341Y123461D01*
X14842Y123639D01*
X15285Y123935D01*
X15669Y124350D01*
X15994Y124883D01*
X16260Y125533D01*
X16466Y126303D01*
X16614Y127190D01*
X16703Y128195D01*
X16732Y129319D01*
X22638D01*
X22626Y123413D01*
D02*
G37*
G36*
X316677Y119079D02*
X316667Y119174D01*
X316637Y119259D01*
X316586Y119334D01*
X316516Y119399D01*
X316424Y119454D01*
X316313Y119499D01*
X316182Y119534D01*
X316030Y119559D01*
X315858Y119574D01*
X315823Y119575D01*
X315718Y119566D01*
X315610Y119549D01*
X315507Y119527D01*
X315411Y119497D01*
X315320Y119461D01*
X315235Y119419D01*
X315157Y119370D01*
X315084Y119314D01*
X315017Y119252D01*
Y120905D01*
X315084Y120843D01*
X315157Y120788D01*
X315235Y120739D01*
X315320Y120696D01*
X315411Y120660D01*
X315507Y120631D01*
X315610Y120608D01*
X315718Y120592D01*
X315823Y120583D01*
X315858Y120584D01*
X316030Y120599D01*
X316182Y120624D01*
X316313Y120659D01*
X316424Y120704D01*
X316516Y120759D01*
X316586Y120824D01*
X316637Y120899D01*
X316667Y120984D01*
X316677Y121079D01*
Y119079D01*
D02*
G37*
G36*
X222944Y119833D02*
X222934Y119946D01*
X222877Y120048D01*
X222774Y120137D01*
X222625Y120215D01*
X222429Y120281D01*
X222188Y120334D01*
X221900Y120376D01*
X221566Y120406D01*
X220760Y120430D01*
Y123580D01*
X223343Y123671D01*
X222944Y119833D01*
D02*
G37*
G36*
X333168Y118095D02*
X333161Y118190D01*
X333134Y118274D01*
X333085Y118350D01*
X333015Y118414D01*
X332925Y118470D01*
X332813Y118515D01*
X332680Y118550D01*
X332526Y118575D01*
X332352Y118589D01*
X332255Y118592D01*
X332251Y118592D01*
X332027Y118571D01*
X331922Y118553D01*
X331823Y118530D01*
X331729Y118501D01*
X331640Y118468D01*
X331555Y118429D01*
X331476Y118385D01*
X331402Y118335D01*
X331678Y119966D01*
X331733Y119895D01*
X331796Y119832D01*
X331866Y119776D01*
X331943Y119728D01*
X332028Y119687D01*
X332119Y119654D01*
X332218Y119628D01*
X332325Y119609D01*
X332375Y119604D01*
X332603Y119628D01*
X332729Y119655D01*
X332843Y119688D01*
X332946Y119729D01*
X333037Y119778D01*
X333116Y119834D01*
X333183Y119898D01*
X333239Y119969D01*
X333168Y118095D01*
D02*
G37*
G36*
X180890Y116542D02*
X180789Y116431D01*
X180707Y116321D01*
X180644Y116211D01*
X180601Y116102D01*
X180578Y115994D01*
X180574Y115887D01*
X180589Y115780D01*
X180624Y115674D01*
X180679Y115568D01*
X180753Y115464D01*
X178708Y116494D01*
X178848Y116497D01*
X178989Y116516D01*
X179132Y116551D01*
X179277Y116602D01*
X179424Y116669D01*
X179572Y116753D01*
X179722Y116853D01*
X179874Y116969D01*
X180027Y117101D01*
X180183Y117249D01*
X180890Y116542D01*
D02*
G37*
G36*
X196245Y116818D02*
X196412Y116695D01*
X196586Y116593D01*
X196769Y116510D01*
X196961Y116448D01*
X197161Y116405D01*
X197370Y116384D01*
X197587Y116382D01*
X197813Y116401D01*
X198047Y116440D01*
X195903Y114295D01*
X195941Y114529D01*
X195960Y114755D01*
X195958Y114972D01*
X195937Y115181D01*
X195895Y115381D01*
X195832Y115573D01*
X195750Y115756D01*
X195647Y115931D01*
X195524Y116097D01*
X195381Y116254D01*
X196088Y116962D01*
X196245Y116818D01*
D02*
G37*
G36*
X78547Y117245D02*
X78597Y116547D01*
X78925D01*
X78852Y116520D01*
X78788Y116437D01*
X78730Y116299D01*
X78681Y116106D01*
X78644Y115891D01*
X78674Y115481D01*
X78721Y115241D01*
X78775Y115038D01*
X78837Y114873D01*
X78906Y114746D01*
X78558D01*
X78543Y113792D01*
X75787D01*
X75784Y114315D01*
X75752Y114746D01*
X75425D01*
X75494Y114873D01*
X75555Y115038D01*
X75610Y115241D01*
X75657Y115481D01*
X75682Y115682D01*
X75650Y116106D01*
X75600Y116299D01*
X75543Y116437D01*
X75478Y116520D01*
X75406Y116547D01*
X75757D01*
X75773Y116817D01*
X75787Y117711D01*
X78543D01*
X78547Y117245D01*
D02*
G37*
G36*
X73429Y117245D02*
X73479Y116547D01*
X73807D01*
X73734Y116520D01*
X73669Y116437D01*
X73612Y116299D01*
X73563Y116106D01*
X73526Y115891D01*
X73556Y115481D01*
X73603Y115241D01*
X73657Y115038D01*
X73719Y114873D01*
X73788Y114746D01*
X73440D01*
X73425Y113792D01*
X70669D01*
X70666Y114315D01*
X70633Y114746D01*
X70307D01*
X70376Y114873D01*
X70437Y115038D01*
X70492Y115241D01*
X70539Y115481D01*
X70564Y115682D01*
X70532Y116106D01*
X70482Y116299D01*
X70425Y116437D01*
X70360Y116520D01*
X70288Y116547D01*
X70639D01*
X70655Y116817D01*
X70669Y117711D01*
X73425D01*
X73429Y117245D01*
D02*
G37*
G36*
X68311D02*
X68361Y116547D01*
X68689D01*
X68616Y116520D01*
X68551Y116437D01*
X68494Y116299D01*
X68445Y116106D01*
X68408Y115891D01*
X68438Y115481D01*
X68485Y115241D01*
X68539Y115038D01*
X68601Y114873D01*
X68669Y114746D01*
X68322D01*
X68307Y113792D01*
X65551D01*
X65547Y114315D01*
X65515Y114746D01*
X65189D01*
X65258Y114873D01*
X65319Y115038D01*
X65374Y115241D01*
X65421Y115481D01*
X65445Y115682D01*
X65414Y116106D01*
X65364Y116299D01*
X65307Y116437D01*
X65242Y116520D01*
X65170Y116547D01*
X65521D01*
X65537Y116817D01*
X65551Y117711D01*
X68307D01*
X68311Y117245D01*
D02*
G37*
G36*
X63193D02*
X63243Y116547D01*
X63571D01*
X63498Y116520D01*
X63433Y116437D01*
X63376Y116299D01*
X63326Y116106D01*
X63290Y115891D01*
X63319Y115481D01*
X63367Y115241D01*
X63421Y115038D01*
X63482Y114873D01*
X63551Y114746D01*
X63204D01*
X63189Y113792D01*
X60433D01*
X60429Y114315D01*
X60397Y114746D01*
X60071D01*
X60140Y114873D01*
X60201Y115038D01*
X60255Y115241D01*
X60303Y115481D01*
X60327Y115682D01*
X60296Y116106D01*
X60246Y116299D01*
X60189Y116437D01*
X60124Y116520D01*
X60051Y116547D01*
X60403D01*
X60419Y116817D01*
X60433Y117711D01*
X63189D01*
X63193Y117245D01*
D02*
G37*
G36*
X38436Y123101D02*
X38624Y122690D01*
X38938Y122180D01*
X39376Y121571D01*
X40629Y120056D01*
X43447Y117041D01*
X44638Y115838D01*
X39555Y112568D01*
X38357Y113724D01*
X36204Y115543D01*
X35248Y116207D01*
X34373Y116707D01*
X33578Y117042D01*
X32864Y117214D01*
X32230Y117221D01*
X31676Y117065D01*
X31203Y116744D01*
X38374Y123413D01*
X38436Y123101D01*
D02*
G37*
G36*
X288284Y111814D02*
X288234Y111811D01*
X288190Y111797D01*
X288151Y111772D01*
X288117Y111735D01*
X288088Y111688D01*
X288065Y111630D01*
X288047Y111561D01*
X288034Y111480D01*
X288026Y111389D01*
X288023Y111287D01*
X287023D01*
X287021Y111448D01*
X286990Y111846D01*
X286972Y111950D01*
X286949Y112039D01*
X286922Y112114D01*
X286891Y112175D01*
X286856Y112221D01*
X286817Y112252D01*
X288284Y111814D01*
D02*
G37*
G36*
X299509Y112003D02*
X298977Y111806D01*
X296578Y110761D01*
X296424Y110660D01*
X296317Y110571D01*
X295338Y111006D01*
X295501Y111196D01*
X295632Y111406D01*
X295729Y111636D01*
X295793Y111887D01*
X295825Y112158D01*
X295824Y112449D01*
X295790Y112761D01*
X295723Y113093D01*
X295623Y113445D01*
X295490Y113818D01*
X299509Y112003D01*
D02*
G37*
G36*
X168575Y110984D02*
X168187Y110981D01*
X167491Y110931D01*
X167181Y110885D01*
X166898Y110824D01*
X166640Y110748D01*
X166409Y110658D01*
X166203Y110553D01*
X166024Y110434D01*
X165870Y110301D01*
X165163Y111008D01*
X165296Y111162D01*
X165415Y111341D01*
X165520Y111547D01*
X165610Y111778D01*
X165685Y112036D01*
X165747Y112319D01*
X165793Y112629D01*
X165825Y112964D01*
X165846Y113713D01*
X168575Y110984D01*
D02*
G37*
G36*
X280306Y112383D02*
X279761Y111762D01*
X279539Y111469D01*
X279351Y111188D01*
X279198Y110919D01*
X279079Y110662D01*
X278993Y110417D01*
X278942Y110183D01*
X278925Y109961D01*
X277925D01*
X277908Y110183D01*
X277857Y110417D01*
X277772Y110662D01*
X277652Y110919D01*
X277499Y111188D01*
X277311Y111469D01*
X277090Y111762D01*
X276544Y112383D01*
X276220Y112711D01*
X280630D01*
X280306Y112383D01*
D02*
G37*
G36*
X270306D02*
X269760Y111762D01*
X269539Y111469D01*
X269351Y111188D01*
X269198Y110919D01*
X269079Y110662D01*
X268993Y110417D01*
X268942Y110183D01*
X268925Y109961D01*
X267925D01*
X267908Y110183D01*
X267857Y110417D01*
X267772Y110662D01*
X267652Y110919D01*
X267499Y111188D01*
X267312Y111469D01*
X267090Y111762D01*
X266544Y112383D01*
X266220Y112711D01*
X270630D01*
X270306Y112383D01*
D02*
G37*
G36*
X189903Y111311D02*
X189604Y111140D01*
X189337Y110963D01*
X189101Y110780D01*
X188897Y110592D01*
X188724Y110398D01*
X188582Y110198D01*
X188472Y109993D01*
X188394Y109783D01*
X188346Y109566D01*
X188331Y109344D01*
X187331Y109642D01*
X187319Y109801D01*
X187285Y109986D01*
X187229Y110197D01*
X187150Y110434D01*
X186923Y110984D01*
X186607Y111636D01*
X186199Y112391D01*
X189903Y111311D01*
D02*
G37*
G36*
X65372Y108666D02*
X65546Y108661D01*
Y106693D01*
X65372Y106691D01*
Y106331D01*
X65253Y106399D01*
X65112Y106461D01*
X64948Y106515D01*
X64763Y106562D01*
X64557Y106602D01*
X64355Y106627D01*
X64183Y106602D01*
X63792Y106515D01*
X63629Y106461D01*
X63487Y106399D01*
X63368Y106331D01*
Y106689D01*
X63195Y106693D01*
Y108661D01*
X63368Y108663D01*
Y109024D01*
X63487Y108955D01*
X63629Y108893D01*
X63792Y108839D01*
X63977Y108792D01*
X64183Y108752D01*
X64385Y108728D01*
X64557Y108752D01*
X64948Y108839D01*
X65112Y108893D01*
X65253Y108955D01*
X65372Y109024D01*
Y108666D01*
D02*
G37*
G36*
X32099Y106505D02*
X32665Y106496D01*
Y100591D01*
X32099Y100589D01*
Y100209D01*
X32039Y100281D01*
X31862Y100346D01*
X31567Y100403D01*
X31154Y100453D01*
X30315Y100507D01*
X26819Y100281D01*
X26760Y100209D01*
Y100581D01*
X26193Y100591D01*
Y106496D01*
X26760Y106498D01*
Y106878D01*
X26819Y106805D01*
X26996Y106740D01*
X27291Y106683D01*
X27705Y106633D01*
X28543Y106579D01*
X32039Y106805D01*
X32099Y106878D01*
Y106505D01*
D02*
G37*
G36*
X175964Y106228D02*
X175880Y106138D01*
X175808Y106051D01*
X175751Y105968D01*
X175708Y105888D01*
X175678Y105811D01*
X175663Y105738D01*
X175661Y105668D01*
X175673Y105602D01*
X175699Y105539D01*
X175740Y105480D01*
X174291Y106409D01*
X174363Y106398D01*
X174441Y106401D01*
X174524Y106418D01*
X174613Y106450D01*
X174707Y106495D01*
X174807Y106555D01*
X174911Y106629D01*
X175021Y106717D01*
X175257Y106935D01*
X175964Y106228D01*
D02*
G37*
G36*
X73724Y108955D02*
X73865Y108893D01*
X74028Y108839D01*
X74213Y108792D01*
X74420Y108752D01*
X74622Y108728D01*
X74793Y108752D01*
X75185Y108839D01*
X75348Y108893D01*
X75489Y108955D01*
X75608Y109024D01*
Y108666D01*
X75782Y108661D01*
Y106693D01*
X75608Y106691D01*
Y106331D01*
X75489Y106399D01*
X75348Y106461D01*
X75185Y106515D01*
X75000Y106562D01*
X74793Y106602D01*
X74591Y106627D01*
X74420Y106602D01*
X74028Y106515D01*
X73865Y106461D01*
X73724Y106399D01*
X73604Y106331D01*
Y106689D01*
X73431Y106693D01*
Y108661D01*
X73604Y108663D01*
Y109024D01*
X73724Y108955D01*
D02*
G37*
G36*
X194579Y107971D02*
X194591Y107789D01*
X194629Y107590D01*
X194693Y107373D01*
X194781Y107137D01*
X194895Y106884D01*
X195198Y106322D01*
X195388Y106015D01*
X195843Y105345D01*
X192043Y106012D01*
X192334Y106223D01*
X192596Y106435D01*
X192826Y106648D01*
X193026Y106860D01*
X193195Y107074D01*
X193333Y107288D01*
X193441Y107502D01*
X193517Y107718D01*
X193563Y107933D01*
X193579Y108150D01*
X194579Y107971D01*
D02*
G37*
G36*
X183255Y107902D02*
X183302Y107685D01*
X183381Y107476D01*
X183491Y107274D01*
X183633Y107080D01*
X183807Y106892D01*
X184012Y106711D01*
X184249Y106538D01*
X184518Y106372D01*
X184818Y106213D01*
X181154Y105005D01*
X181360Y105411D01*
X182065Y107016D01*
X182141Y107251D01*
X182195Y107459D01*
X182228Y107638D01*
X182239Y107789D01*
X183239Y108125D01*
X183255Y107902D01*
D02*
G37*
G36*
X70293Y107946D02*
X72047Y106693D01*
X71711Y106673D01*
X71409Y106614D01*
X71144Y106516D01*
X70913Y106378D01*
X70718Y106201D01*
X70559Y105984D01*
X70435Y105728D01*
X70346Y105433D01*
X70293Y105098D01*
X70276Y104724D01*
X68307D01*
X68293Y105098D01*
X68252Y105433D01*
X68183Y105728D01*
X68087Y105984D01*
X67963Y106201D01*
X67811Y106378D01*
X67632Y106516D01*
X67425Y106614D01*
X67191Y106673D01*
X66929Y106693D01*
X69291Y108661D01*
X70293Y108667D01*
Y107946D01*
D02*
G37*
G36*
X132633Y105270D02*
X132654Y105026D01*
X132673Y104927D01*
X132696Y104844D01*
X132725Y104775D01*
X132759Y104722D01*
X132798Y104684D01*
X132842Y104661D01*
X132892Y104653D01*
X131370D01*
X131420Y104661D01*
X131464Y104684D01*
X131503Y104722D01*
X131537Y104775D01*
X131565Y104844D01*
X131589Y104927D01*
X131607Y105026D01*
X131620Y105140D01*
X131628Y105270D01*
X131631Y105414D01*
X132631D01*
X132633Y105270D01*
D02*
G37*
G36*
X226588Y107993D02*
X226484Y107801D01*
X226392Y107563D01*
X226312Y107279D01*
X226244Y106949D01*
X226189Y106573D01*
X226115Y105683D01*
X226114Y105622D01*
X226590D01*
X226496Y105611D01*
X226411Y105581D01*
X226336Y105530D01*
X226271Y105459D01*
X226216Y105368D01*
X226171Y105257D01*
X226136Y105126D01*
X226111Y104974D01*
X226096Y104802D01*
X226091Y104613D01*
X226091Y104609D01*
X225091D01*
X225091Y104610D01*
X225086Y104802D01*
X225071Y104974D01*
X225046Y105126D01*
X225011Y105257D01*
X224966Y105368D01*
X224911Y105459D01*
X224846Y105530D01*
X224771Y105581D01*
X224686Y105611D01*
X224590Y105622D01*
X225055D01*
X224992Y106573D01*
X224937Y106949D01*
X224869Y107279D01*
X224790Y107563D01*
X224697Y107801D01*
X224593Y107993D01*
X224476Y108139D01*
X226705D01*
X226588Y107993D01*
D02*
G37*
G36*
X128746Y104653D02*
X128548Y104448D01*
X128237Y104081D01*
X128124Y103918D01*
X128039Y103770D01*
X127983Y103635D01*
X127954Y103515D01*
Y103409D01*
X127983Y103317D01*
X128039Y103239D01*
X126625Y104653D01*
X126703Y104597D01*
X126795Y104569D01*
X126901D01*
X127021Y104597D01*
X127155Y104653D01*
X127304Y104738D01*
X127466Y104851D01*
X127643Y104993D01*
X128039Y105360D01*
X128746Y104653D01*
D02*
G37*
G36*
X161325Y106737D02*
X161479Y106620D01*
X161638Y106522D01*
X161802Y106445D01*
X161970Y106388D01*
X162143Y106350D01*
X162321Y106333D01*
X162504Y106335D01*
X162691Y106358D01*
X162883Y106401D01*
X160942Y104460D01*
X160984Y104651D01*
X161007Y104839D01*
X161009Y105021D01*
X160992Y105199D01*
X160954Y105372D01*
X160897Y105541D01*
X160820Y105704D01*
X160722Y105863D01*
X160605Y106018D01*
X160468Y106167D01*
X161175Y106874D01*
X161325Y106737D01*
D02*
G37*
G36*
X82995Y104344D02*
X83005Y104336D01*
X83013Y104324D01*
X83019Y104305D01*
X83024Y104281D01*
X83026Y104252D01*
X83027Y104229D01*
X83646Y103610D01*
X83528Y103495D01*
X83182Y103199D01*
X83126Y103167D01*
X83083Y103151D01*
X83052Y103152D01*
X83033Y103170D01*
X83027Y103204D01*
Y104217D01*
X83027Y104229D01*
X82939Y104317D01*
X82956Y104332D01*
X82971Y104342D01*
X82984Y104345D01*
X82995Y104344D01*
D02*
G37*
G36*
X70285Y101888D02*
X70315Y101552D01*
X70364Y101254D01*
X70433Y100997D01*
X70522Y100779D01*
X70630Y100601D01*
X70758Y100462D01*
X70906Y100363D01*
X71073Y100304D01*
X71260Y100284D01*
X67323D01*
X67510Y100304D01*
X67677Y100363D01*
X67825Y100462D01*
X67953Y100601D01*
X68061Y100779D01*
X68150Y100997D01*
X68218Y101254D01*
X68268Y101552D01*
X68297Y101888D01*
X68307Y102264D01*
X70276D01*
X70285Y101888D01*
D02*
G37*
G36*
X219239Y101198D02*
X219233Y101112D01*
X219239Y101025D01*
X219256Y100937D01*
X219284Y100850D01*
X219323Y100762D01*
X219373Y100675D01*
X219433Y100587D01*
X219489Y100519D01*
X219869Y100192D01*
X220038Y100071D01*
X220189Y99983D01*
X220321Y99928D01*
X220434Y99905D01*
X220529Y99915D01*
X220604Y99957D01*
X220661Y100033D01*
X219707Y98182D01*
X219739Y98282D01*
X219740Y98400D01*
X219710Y98534D01*
X219649Y98685D01*
X219557Y98853D01*
X219434Y99039D01*
X219281Y99241D01*
X218881Y99696D01*
X218665Y99918D01*
X218603Y99979D01*
X218431Y100125D01*
X218346Y100188D01*
X218177Y100294D01*
X218093Y100337D01*
X218009Y100373D01*
X217926Y100402D01*
X217843Y100424D01*
X219255Y101285D01*
X219239Y101198D01*
D02*
G37*
G36*
X263056Y95814D02*
X262808Y95558D01*
X262250Y94896D01*
X262127Y94711D01*
X262035Y94543D01*
X261975Y94392D01*
X261947Y94259D01*
X261950Y94144D01*
X261984Y94046D01*
X260975Y95842D01*
X261034Y95769D01*
X261112Y95728D01*
X261208Y95720D01*
X261322Y95744D01*
X261454Y95799D01*
X261604Y95887D01*
X261773Y96008D01*
X261960Y96160D01*
X262390Y96561D01*
X263056Y95814D01*
D02*
G37*
G36*
X138016Y95642D02*
X137995Y95583D01*
X137977Y95485D01*
X137961Y95347D01*
X137936Y94953D01*
X137917Y93693D01*
X135948D01*
X135940Y94067D01*
X135913Y94402D01*
X135869Y94697D01*
X135808Y94953D01*
X135729Y95170D01*
X135633Y95347D01*
X135519Y95485D01*
X135387Y95583D01*
X135238Y95642D01*
X135071Y95662D01*
X138039D01*
X138016Y95642D01*
D02*
G37*
G36*
X122944D02*
X122859Y95583D01*
X122784Y95485D01*
X122719Y95347D01*
X122664Y95170D01*
X122619Y94953D01*
X122584Y94697D01*
X122544Y94067D01*
X122539Y93693D01*
X120571D01*
X120566Y94067D01*
X120491Y94953D01*
X120446Y95170D01*
X120391Y95347D01*
X120326Y95485D01*
X120251Y95583D01*
X120166Y95642D01*
X120071Y95662D01*
X123039D01*
X122944Y95642D01*
D02*
G37*
G36*
X107910D02*
X107794Y95583D01*
X107692Y95485D01*
X107604Y95347D01*
X107529Y95170D01*
X107468Y94953D01*
X107420Y94697D01*
X107386Y94402D01*
X107366Y94067D01*
X107359Y93693D01*
X105390D01*
X105387Y94067D01*
X105310Y95170D01*
X105275Y95347D01*
X105234Y95485D01*
X105186Y95583D01*
X105132Y95642D01*
X105071Y95662D01*
X108039D01*
X107910Y95642D01*
D02*
G37*
G36*
X92964D02*
X92896Y95583D01*
X92836Y95485D01*
X92785Y95347D01*
X92741Y95170D01*
X92705Y94953D01*
X92677Y94697D01*
X92645Y94067D01*
X92641Y93693D01*
X90673D01*
X90667Y94067D01*
X90619Y94697D01*
X90576Y94953D01*
X90522Y95170D01*
X90456Y95347D01*
X90378Y95485D01*
X90288Y95583D01*
X90185Y95642D01*
X90071Y95662D01*
X93039D01*
X92964Y95642D01*
D02*
G37*
G36*
X48564Y111951D02*
X50894Y109947D01*
X51993Y109133D01*
X53048Y108444D01*
X54059Y107880D01*
X55027Y107441D01*
X55950Y107128D01*
X56830Y106940D01*
X57665Y106878D01*
X47847Y100209D01*
X57665D01*
X57293Y100150D01*
X56961Y99973D01*
X56667Y99677D01*
X56413Y99264D01*
X56198Y98733D01*
X56022Y98083D01*
X55885Y97315D01*
X55850Y97001D01*
X55885Y96583D01*
X56022Y95815D01*
X56198Y95165D01*
X56413Y94634D01*
X56667Y94220D01*
X56961Y93925D01*
X57293Y93748D01*
X57665Y93689D01*
X47847D01*
X48218Y93748D01*
X48551Y93925D01*
X48844Y94220D01*
X49099Y94634D01*
X49314Y95165D01*
X49490Y95815D01*
X49627Y96583D01*
X49662Y96896D01*
X49627Y97315D01*
X49490Y98083D01*
X49314Y98733D01*
X49099Y99264D01*
X48844Y99677D01*
X48551Y99973D01*
X48218Y100150D01*
X47847Y100209D01*
X47805Y101024D01*
X47680Y101840D01*
X47471Y102659D01*
X47179Y103481D01*
X46803Y104304D01*
X46343Y105129D01*
X45801Y105957D01*
X45174Y106787D01*
X44464Y107618D01*
X43671Y108453D01*
X47333Y113142D01*
X48564Y111951D01*
D02*
G37*
G36*
X10640Y100150D02*
X10307Y99973D01*
X10014Y99677D01*
X9759Y99264D01*
X9544Y98733D01*
X9368Y98083D01*
X9231Y97315D01*
X9196Y97001D01*
X9231Y96583D01*
X9368Y95815D01*
X9544Y95165D01*
X9759Y94634D01*
X10014Y94220D01*
X10307Y93925D01*
X10640Y93748D01*
X11012Y93689D01*
X1193D01*
X1565Y93748D01*
X1897Y93925D01*
X2191Y94220D01*
X2445Y94634D01*
X2661Y95165D01*
X2836Y95815D01*
X2974Y96583D01*
X3008Y96896D01*
X2974Y97315D01*
X2836Y98083D01*
X2661Y98733D01*
X2445Y99264D01*
X2191Y99677D01*
X1897Y99973D01*
X1565Y100150D01*
X1193Y100209D01*
X11012D01*
X10640Y100150D01*
D02*
G37*
G36*
X32099Y93508D02*
X32665Y93504D01*
Y87598D01*
X32099Y87595D01*
Y87020D01*
X32039Y87130D01*
X31862Y87228D01*
X31567Y87315D01*
X31154Y87390D01*
X30622Y87454D01*
X30020Y87493D01*
X27291Y87315D01*
X26996Y87228D01*
X26819Y87130D01*
X26760Y87020D01*
Y87589D01*
X26193Y87598D01*
Y93504D01*
X26760Y93522D01*
Y93689D01*
X26819Y93654D01*
X26996Y93622D01*
X27291Y93594D01*
X28099Y93564D01*
X32099Y93689D01*
Y93508D01*
D02*
G37*
G36*
X253752Y92957D02*
X253742Y93052D01*
X253712Y93137D01*
X253662Y93212D01*
X253592Y93277D01*
X253502Y93332D01*
X253392Y93377D01*
X253262Y93412D01*
X253112Y93437D01*
X252942Y93452D01*
X252752Y93457D01*
Y94457D01*
X252942Y94462D01*
X253112Y94477D01*
X253262Y94502D01*
X253392Y94537D01*
X253502Y94582D01*
X253592Y94637D01*
X253662Y94702D01*
X253712Y94777D01*
X253742Y94862D01*
X253752Y94957D01*
Y92957D01*
D02*
G37*
G36*
X251169Y94862D02*
X251200Y94777D01*
X251250Y94702D01*
X251321Y94637D01*
X251412Y94582D01*
X251523Y94537D01*
X251655Y94502D01*
X251807Y94477D01*
X251979Y94462D01*
X252171Y94457D01*
Y93457D01*
X251979Y93452D01*
X251807Y93437D01*
X251655Y93412D01*
X251523Y93377D01*
X251412Y93332D01*
X251321Y93277D01*
X251250Y93212D01*
X251200Y93137D01*
X251169Y93052D01*
X251159Y92957D01*
Y94957D01*
X251169Y94862D01*
D02*
G37*
G36*
X221088Y92870D02*
X221003Y92839D01*
X220928Y92788D01*
X220863Y92717D01*
X220808Y92626D01*
X220763Y92514D01*
X220728Y92383D01*
X220703Y92232D01*
X220688Y92060D01*
X220683Y91869D01*
X219683D01*
X219695Y92869D01*
X221183Y92881D01*
X221088Y92870D01*
D02*
G37*
G36*
X255623Y89184D02*
X255638Y89014D01*
X255654Y88920D01*
X255945D01*
X255883Y88853D01*
X255827Y88780D01*
X255778Y88702D01*
X255741Y88628D01*
X255743Y88624D01*
X255798Y88534D01*
X255863Y88464D01*
X255938Y88414D01*
X256023Y88384D01*
X256118Y88374D01*
X255658D01*
X255647Y88327D01*
X255631Y88219D01*
X255621Y88105D01*
X255618Y87985D01*
X254618D01*
X254615Y88105D01*
X254605Y88219D01*
X254589Y88327D01*
X254578Y88374D01*
X254118D01*
X254213Y88384D01*
X254298Y88414D01*
X254373Y88464D01*
X254438Y88534D01*
X254493Y88624D01*
X254495Y88628D01*
X254458Y88702D01*
X254409Y88780D01*
X254353Y88853D01*
X254291Y88920D01*
X254583D01*
X254598Y89014D01*
X254613Y89184D01*
X254618Y89374D01*
X255618D01*
X255623Y89184D01*
D02*
G37*
G36*
X218608Y87980D02*
X218392Y87756D01*
X218055Y87364D01*
X217935Y87195D01*
X217847Y87045D01*
X217791Y86912D01*
X217767Y86798D01*
X217776Y86703D01*
X217816Y86625D01*
X217889Y86566D01*
X216093Y87574D01*
X216191Y87540D01*
X216307Y87537D01*
X216440Y87566D01*
X216590Y87626D01*
X216758Y87718D01*
X216944Y87841D01*
X217147Y87995D01*
X217605Y88398D01*
X217861Y88647D01*
X218608Y87980D01*
D02*
G37*
G36*
X338976Y103150D02*
X342520Y99606D01*
X355906D01*
Y85433D01*
X316949D01*
X316214Y85630D01*
X315282D01*
X314547Y85433D01*
X314173D01*
X313785Y85044D01*
X313572Y84922D01*
X312913Y84262D01*
X312790Y84050D01*
X300394Y71653D01*
X290028D01*
X289764Y72049D01*
Y72833D01*
X289464Y73556D01*
X288910Y74110D01*
X288187Y74409D01*
X287404D01*
X286680Y74110D01*
X286621Y74051D01*
X286235Y74089D01*
X285878Y74327D01*
X285458Y74411D01*
X281890D01*
X281890Y91339D01*
X306693Y116142D01*
X338976D01*
Y103150D01*
D02*
G37*
G36*
X256810Y86979D02*
X256783Y86888D01*
X256785Y86783D01*
X256814Y86663D01*
X256872Y86529D01*
X256958Y86380D01*
X257072Y86217D01*
X257215Y86040D01*
X257585Y85642D01*
X256878Y84935D01*
X256672Y85134D01*
X256302Y85448D01*
X256139Y85562D01*
X255991Y85648D01*
X255857Y85706D01*
X255737Y85735D01*
X255631Y85736D01*
X255540Y85709D01*
X255464Y85654D01*
X256866Y87056D01*
X256810Y86979D01*
D02*
G37*
G36*
X57293Y86961D02*
X56961Y86784D01*
X56667Y86488D01*
X56413Y86075D01*
X56198Y85544D01*
X56022Y84894D01*
X55885Y84126D01*
X55850Y83812D01*
X55885Y83394D01*
X56022Y82626D01*
X56198Y81976D01*
X56413Y81445D01*
X56667Y81031D01*
X56961Y80736D01*
X57293Y80559D01*
X57665Y80500D01*
X47847D01*
X48218Y80559D01*
X48551Y80736D01*
X48845Y81031D01*
X49099Y81445D01*
X49314Y81976D01*
X49490Y82626D01*
X49627Y83394D01*
X49662Y83708D01*
X49627Y84126D01*
X49490Y84894D01*
X49314Y85544D01*
X49099Y86075D01*
X48844Y86488D01*
X48551Y86784D01*
X48218Y86961D01*
X47847Y87020D01*
X57665D01*
X57293Y86961D01*
D02*
G37*
G36*
X10640D02*
X10307Y86784D01*
X10014Y86488D01*
X9759Y86075D01*
X9544Y85544D01*
X9368Y84894D01*
X9231Y84126D01*
X9196Y83812D01*
X9231Y83394D01*
X9368Y82626D01*
X9544Y81976D01*
X9759Y81445D01*
X10014Y81031D01*
X10307Y80736D01*
X10640Y80559D01*
X11012Y80500D01*
X1193D01*
X1565Y80559D01*
X1897Y80736D01*
X2191Y81031D01*
X2445Y81445D01*
X2661Y81976D01*
X2836Y82626D01*
X2974Y83394D01*
X3008Y83708D01*
X2974Y84126D01*
X2836Y84894D01*
X2661Y85544D01*
X2445Y86075D01*
X2191Y86488D01*
X1897Y86784D01*
X1565Y86961D01*
X1193Y87020D01*
X11012D01*
X10640Y86961D01*
D02*
G37*
G36*
X253370Y80358D02*
X253360Y80453D01*
X253330Y80538D01*
X253279Y80613D01*
X253208Y80678D01*
X253117Y80733D01*
X253006Y80778D01*
X252875Y80813D01*
X252723Y80838D01*
X252551Y80853D01*
X252359Y80858D01*
Y81858D01*
X252551Y81863D01*
X252723Y81878D01*
X252875Y81903D01*
X253006Y81938D01*
X253117Y81983D01*
X253208Y82038D01*
X253279Y82103D01*
X253330Y82178D01*
X253360Y82263D01*
X253370Y82358D01*
Y80358D01*
D02*
G37*
G36*
X251169Y82263D02*
X251200Y82178D01*
X251250Y82103D01*
X251321Y82038D01*
X251412Y81983D01*
X251523Y81938D01*
X251655Y81903D01*
X251807Y81878D01*
X251979Y81863D01*
X252171Y81858D01*
Y80858D01*
X251979Y80853D01*
X251807Y80838D01*
X251655Y80813D01*
X251523Y80778D01*
X251412Y80733D01*
X251321Y80678D01*
X251250Y80613D01*
X251200Y80538D01*
X251169Y80453D01*
X251159Y80358D01*
Y82358D01*
X251169Y82263D01*
D02*
G37*
G36*
X32099Y80127D02*
X32665Y80118D01*
Y74213D01*
X32099Y74211D01*
Y73831D01*
X32039Y73903D01*
X31862Y73968D01*
X31567Y74026D01*
X31154Y74075D01*
X30315Y74129D01*
X26819Y73903D01*
X26760Y73831D01*
Y74203D01*
X26193Y74213D01*
Y80118D01*
X26760Y80120D01*
Y80500D01*
X26819Y80427D01*
X26996Y80362D01*
X27291Y80305D01*
X27705Y80256D01*
X28543Y80201D01*
X32039Y80427D01*
X32099Y80500D01*
Y80127D01*
D02*
G37*
G36*
X215796Y79343D02*
X215719Y79399D01*
X215627Y79428D01*
X215521D01*
X215400Y79399D01*
X215266Y79343D01*
X215118Y79258D01*
X214955Y79145D01*
X214778Y79003D01*
X214382Y78636D01*
X213675Y79343D01*
X213873Y79548D01*
X214184Y79915D01*
X214297Y80078D01*
X214382Y80227D01*
X214439Y80361D01*
X214467Y80481D01*
Y80587D01*
X214439Y80679D01*
X214382Y80757D01*
X215796Y79343D01*
D02*
G37*
G36*
X221688Y80272D02*
X221603Y80242D01*
X221528Y80191D01*
X221463Y80120D01*
X221408Y80029D01*
X221363Y79918D01*
X221328Y79786D01*
X221303Y79635D01*
X221288Y79462D01*
X221283Y79270D01*
X220283D01*
X220278Y79462D01*
X220263Y79635D01*
X220238Y79786D01*
X220203Y79918D01*
X220158Y80029D01*
X220103Y80120D01*
X220038Y80191D01*
X219963Y80242D01*
X219878Y80272D01*
X219783Y80282D01*
X221783D01*
X221688Y80272D01*
D02*
G37*
G36*
X71352Y81608D02*
X71085Y81512D01*
X70849Y81352D01*
X70645Y81128D01*
X70472Y80841D01*
X70330Y80489D01*
X70220Y80074D01*
X70187Y79873D01*
X70191Y79859D01*
X70221Y79786D01*
X70254Y79738D01*
X70165D01*
X70142Y79594D01*
X70095Y79051D01*
X70079Y78444D01*
X66929D01*
X66913Y79051D01*
X66866Y79594D01*
X66843Y79738D01*
X66754D01*
X66787Y79786D01*
X66817Y79859D01*
X66821Y79873D01*
X66788Y80074D01*
X66677Y80489D01*
X66536Y80841D01*
X66363Y81128D01*
X66159Y81352D01*
X65923Y81512D01*
X65655Y81608D01*
X65357Y81640D01*
X71651D01*
X71352Y81608D01*
D02*
G37*
G36*
X259100Y79312D02*
X259103Y79135D01*
X259130Y78810D01*
X259153Y78662D01*
X259182Y78524D01*
X259218Y78395D01*
X259261Y78277D01*
X259311Y78168D01*
X259366Y78069D01*
X259429Y77979D01*
X257570Y78716D01*
X257671Y78742D01*
X257761Y78784D01*
X257840Y78842D01*
X257909Y78918D01*
X257967Y79011D01*
X258015Y79120D01*
X258052Y79247D01*
X258079Y79390D01*
X258095Y79550D01*
X258100Y79727D01*
X259100Y79312D01*
D02*
G37*
G36*
X269465Y77752D02*
X269574Y77666D01*
X269711Y77590D01*
X269876Y77525D01*
X270069Y77469D01*
X270290Y77423D01*
X270538Y77388D01*
X271119Y77348D01*
X271451Y77342D01*
X271400Y75374D01*
X271127Y75373D01*
Y75048D01*
X271017Y75110D01*
X270885Y75165D01*
X270729Y75214D01*
X270549Y75257D01*
X270347Y75292D01*
X270103Y75319D01*
X269428Y75281D01*
X269334Y75256D01*
X269273Y75228D01*
X269279Y75371D01*
X268983Y75374D01*
Y77342D01*
X269362Y77337D01*
X269383Y77848D01*
X269465Y77752D01*
D02*
G37*
G36*
X276884Y80898D02*
X276819Y80839D01*
X276762Y80740D01*
X276712Y80603D01*
X276670Y80425D01*
X276636Y80209D01*
X276609Y79953D01*
X276579Y79323D01*
X276577Y79130D01*
X276625Y77161D01*
X273622Y77324D01*
X273809Y77334D01*
X273976Y77386D01*
X274124Y77480D01*
X274252Y77615D01*
X274360Y77792D01*
X274449Y78011D01*
X274518Y78272D01*
X274567Y78574D01*
X274597Y78918D01*
X274604Y79203D01*
X274603Y79323D01*
X274545Y80209D01*
X274511Y80425D01*
X274469Y80603D01*
X274419Y80740D01*
X274362Y80839D01*
X274297Y80898D01*
X274225Y80918D01*
X276957D01*
X276884Y80898D01*
D02*
G37*
G36*
X218608Y76192D02*
X218408Y75985D01*
X218093Y75615D01*
X217979Y75451D01*
X217893Y75303D01*
X217835Y75169D01*
X217806Y75049D01*
X217805Y74944D01*
X217833Y74854D01*
X217889Y74778D01*
X216464Y76157D01*
X216542Y76103D01*
X216634Y76077D01*
X216740Y76078D01*
X216860Y76108D01*
X216994Y76166D01*
X217143Y76252D01*
X217305Y76366D01*
X217482Y76508D01*
X217878Y76876D01*
X218608Y76192D01*
D02*
G37*
G36*
X256720Y75177D02*
X256630Y75235D01*
X256531Y75287D01*
X256421Y75334D01*
X256302Y75374D01*
X256174Y75407D01*
X256035Y75435D01*
X255887Y75457D01*
X255562Y75481D01*
X255385Y75484D01*
X254927Y76484D01*
X255104Y76490D01*
X255264Y76505D01*
X255406Y76532D01*
X255532Y76568D01*
X255640Y76616D01*
X255730Y76674D01*
X255804Y76742D01*
X255860Y76821D01*
X255898Y76910D01*
X255920Y77010D01*
X256720Y75177D01*
D02*
G37*
G36*
X225532Y74927D02*
X225278Y74665D01*
X224711Y73995D01*
X224587Y73809D01*
X224497Y73641D01*
X224438Y73492D01*
X224413Y73362D01*
X224419Y73251D01*
X224459Y73159D01*
X223332Y74836D01*
X223396Y74768D01*
X223478Y74732D01*
X223576Y74726D01*
X223692Y74751D01*
X223825Y74808D01*
X223975Y74895D01*
X224142Y75014D01*
X224326Y75163D01*
X224746Y75555D01*
X225532Y74927D01*
D02*
G37*
G36*
X251169Y74665D02*
X251200Y74580D01*
X251250Y74505D01*
X251321Y74440D01*
X251412Y74385D01*
X251523Y74340D01*
X251655Y74305D01*
X251807Y74280D01*
X251979Y74265D01*
X252171Y74260D01*
Y73260D01*
X251979Y73255D01*
X251807Y73240D01*
X251655Y73215D01*
X251523Y73180D01*
X251412Y73135D01*
X251321Y73080D01*
X251250Y73015D01*
X251200Y72940D01*
X251169Y72855D01*
X251159Y72760D01*
Y74760D01*
X251169Y74665D01*
D02*
G37*
G36*
X247809Y72672D02*
X247731Y72728D01*
X247640Y72757D01*
X247533D01*
X247413Y72728D01*
X247279Y72672D01*
X247130Y72587D01*
X246968Y72474D01*
X246791Y72332D01*
X246395Y71965D01*
X245688Y72672D01*
X245886Y72877D01*
X246197Y73245D01*
X246310Y73407D01*
X246395Y73556D01*
X246452Y73690D01*
X246480Y73810D01*
Y73916D01*
X246452Y74008D01*
X246395Y74086D01*
X247809Y72672D01*
D02*
G37*
G36*
X221330D02*
X221239Y72715D01*
X221129Y72725D01*
X220999Y72702D01*
X220851Y72645D01*
X220684Y72556D01*
X220497Y72433D01*
X220292Y72277D01*
X219825Y71866D01*
X219562Y71611D01*
X218988Y72451D01*
X219196Y72666D01*
X219520Y73047D01*
X219637Y73213D01*
X219723Y73362D01*
X219778Y73496D01*
X219803Y73613D01*
X219798Y73713D01*
X219762Y73797D01*
X219695Y73865D01*
X221330Y72672D01*
D02*
G37*
G36*
X285707Y73340D02*
X285738Y73257D01*
X285790Y73183D01*
X285863Y73119D01*
X285958Y73064D01*
X286073Y73020D01*
X286208Y72985D01*
X286331Y72966D01*
X286359Y72970D01*
X286461Y72993D01*
X286558Y73023D01*
X286648Y73059D01*
X286733Y73101D01*
X286812Y73150D01*
X286885Y73206D01*
X286952Y73268D01*
Y71614D01*
X286885Y71676D01*
X286812Y71732D01*
X286733Y71781D01*
X286648Y71823D01*
X286558Y71859D01*
X286461Y71889D01*
X286359Y71912D01*
X286331Y71916D01*
X286208Y71896D01*
X286073Y71862D01*
X285958Y71818D01*
X285863Y71763D01*
X285790Y71699D01*
X285738Y71625D01*
X285707Y71541D01*
X285696Y71448D01*
Y73434D01*
X285707Y73340D01*
D02*
G37*
G36*
X218608Y70657D02*
X218409Y70451D01*
X218096Y70082D01*
X217981Y69919D01*
X217895Y69770D01*
X217838Y69636D01*
X217808Y69516D01*
X217807Y69411D01*
X217834Y69320D01*
X217889Y69243D01*
X216487Y70645D01*
X216564Y70590D01*
X216655Y70563D01*
X216760Y70564D01*
X216880Y70594D01*
X217015Y70651D01*
X217163Y70737D01*
X217326Y70852D01*
X217503Y70994D01*
X217901Y71364D01*
X218608Y70657D01*
D02*
G37*
G36*
X214588Y71165D02*
X214957Y70852D01*
X215120Y70737D01*
X215269Y70651D01*
X215403Y70594D01*
X215523Y70564D01*
X215629Y70563D01*
X215720Y70590D01*
X215796Y70645D01*
X214394Y69243D01*
X214449Y69320D01*
X214476Y69411D01*
X214475Y69516D01*
X214446Y69636D01*
X214388Y69770D01*
X214302Y69919D01*
X214188Y70082D01*
X214045Y70259D01*
X213675Y70657D01*
X214382Y71364D01*
X214588Y71165D01*
D02*
G37*
G36*
X57293Y73772D02*
X56961Y73595D01*
X56667Y73299D01*
X56413Y72886D01*
X56198Y72355D01*
X56022Y71705D01*
X55885Y70937D01*
X55850Y70623D01*
X55885Y70205D01*
X56022Y69437D01*
X56198Y68787D01*
X56413Y68256D01*
X56667Y67842D01*
X56961Y67547D01*
X57293Y67370D01*
X57665Y67311D01*
X47847D01*
X48218Y67370D01*
X48551Y67547D01*
X48844Y67842D01*
X49099Y68256D01*
X49314Y68787D01*
X49490Y69437D01*
X49627Y70205D01*
X49662Y70519D01*
X49627Y70937D01*
X49490Y71705D01*
X49314Y72355D01*
X49099Y72886D01*
X48845Y73299D01*
X48551Y73595D01*
X48218Y73772D01*
X47847Y73831D01*
X57665D01*
X57293Y73772D01*
D02*
G37*
G36*
X10640D02*
X10307Y73595D01*
X10014Y73299D01*
X9759Y72886D01*
X9544Y72355D01*
X9368Y71705D01*
X9231Y70937D01*
X9196Y70623D01*
X9231Y70205D01*
X9368Y69437D01*
X9544Y68787D01*
X9759Y68256D01*
X10014Y67842D01*
X10307Y67547D01*
X10640Y67370D01*
X11012Y67311D01*
X1193D01*
X1565Y67370D01*
X1897Y67547D01*
X2191Y67842D01*
X2445Y68256D01*
X2661Y68787D01*
X2836Y69437D01*
X2974Y70205D01*
X3008Y70519D01*
X2974Y70937D01*
X2836Y71705D01*
X2661Y72355D01*
X2445Y72886D01*
X2191Y73299D01*
X1897Y73595D01*
X1565Y73772D01*
X1193Y73831D01*
X11012D01*
X10640Y73772D01*
D02*
G37*
G36*
X32099Y66938D02*
X32665Y66929D01*
Y61024D01*
X32099Y61022D01*
Y60642D01*
X32039Y60715D01*
X31862Y60779D01*
X31567Y60837D01*
X31154Y60886D01*
X30315Y60940D01*
X26819Y60715D01*
X26760Y60642D01*
Y61014D01*
X26193Y61024D01*
Y66929D01*
X26760Y66931D01*
Y67311D01*
X26819Y67238D01*
X26996Y67173D01*
X27291Y67116D01*
X27705Y67067D01*
X28543Y67012D01*
X32039Y67238D01*
X32099Y67311D01*
Y66938D01*
D02*
G37*
G36*
X217731Y67915D02*
X217646Y67885D01*
X217571Y67835D01*
X217506Y67765D01*
X217451Y67675D01*
X217406Y67565D01*
X217371Y67435D01*
X217346Y67285D01*
X217331Y67115D01*
X217326Y66925D01*
X216326D01*
X216321Y67115D01*
X216306Y67285D01*
X216281Y67435D01*
X216246Y67565D01*
X216201Y67675D01*
X216146Y67765D01*
X216081Y67835D01*
X216006Y67885D01*
X215921Y67915D01*
X215826Y67925D01*
X217826D01*
X217731Y67915D01*
D02*
G37*
G36*
X222988Y67662D02*
X222903Y67632D01*
X222828Y67582D01*
X222763Y67512D01*
X222708Y67422D01*
X222663Y67312D01*
X222628Y67182D01*
X222603Y67032D01*
X222588Y66862D01*
X222583Y66672D01*
X221583D01*
X221578Y66862D01*
X221563Y67032D01*
X221538Y67182D01*
X221503Y67312D01*
X221458Y67422D01*
X221403Y67512D01*
X221338Y67582D01*
X221263Y67632D01*
X221178Y67662D01*
X221083Y67672D01*
X223083D01*
X222988Y67662D01*
D02*
G37*
G36*
X256603Y72391D02*
X259403D01*
X259622Y72434D01*
X260010Y71708D01*
X251350Y63049D01*
X245596D01*
Y61130D01*
X244040Y59575D01*
X243313Y59876D01*
Y67733D01*
X244656Y69076D01*
X245383Y68775D01*
Y66660D01*
X248283D01*
Y68760D01*
Y70860D01*
X248140D01*
X247738Y71647D01*
X247901Y71872D01*
X251971D01*
Y72447D01*
X256318D01*
X256603Y72391D01*
D02*
G37*
G36*
X299474Y68228D02*
X299505Y68143D01*
X299555Y68068D01*
X299626Y68003D01*
X299717Y67948D01*
X299727Y67944D01*
X299764Y67964D01*
X299813Y68002D01*
X299852Y68044D01*
Y67897D01*
X299960Y67868D01*
X300112Y67843D01*
X300284Y67828D01*
X300476Y67823D01*
Y66823D01*
X300284Y66818D01*
X300112Y66803D01*
X299960Y66778D01*
X299852Y66749D01*
Y66602D01*
X299813Y66644D01*
X299764Y66681D01*
X299727Y66702D01*
X299717Y66698D01*
X299626Y66643D01*
X299555Y66578D01*
X299505Y66503D01*
X299474Y66418D01*
X299464Y66323D01*
Y66788D01*
X299367Y66803D01*
X299258Y66814D01*
X299009Y66823D01*
Y67823D01*
X299138Y67825D01*
X299367Y67843D01*
X299464Y67858D01*
Y68323D01*
X299474Y68228D01*
D02*
G37*
G36*
X272498Y67558D02*
X272403Y67557D01*
X272318Y67535D01*
X272242Y67489D01*
X272178Y67422D01*
X272123Y67332D01*
X272077Y67219D01*
X272042Y67084D01*
X272018Y66927D01*
X272003Y66748D01*
X271997Y66546D01*
X270998Y66684D01*
X270973Y67721D01*
X272498Y67558D01*
D02*
G37*
G36*
X271997Y65817D02*
X272002Y65641D01*
X272016Y65475D01*
X272039Y65321D01*
X272071Y65178D01*
X272112Y65046D01*
X272163Y64926D01*
X272223Y64816D01*
X272292Y64718D01*
X272370Y64631D01*
X272457Y64555D01*
X270472Y64796D01*
X270572Y64849D01*
X270661Y64915D01*
X270740Y64996D01*
X270808Y65090D01*
X270866Y65198D01*
X270913Y65319D01*
X270950Y65455D01*
X270976Y65604D01*
X270992Y65767D01*
X270998Y65943D01*
X271997Y65817D01*
D02*
G37*
G36*
X227553Y63692D02*
X227483Y63750D01*
X227407Y63802D01*
X227326Y63848D01*
X227239Y63888D01*
X227147Y63922D01*
X227049Y63949D01*
X226946Y63971D01*
X226837Y63986D01*
X226723Y63995D01*
X226603Y63998D01*
X226538Y64998D01*
X226659Y65001D01*
X226772Y65012D01*
X226880Y65029D01*
X226981Y65053D01*
X227076Y65084D01*
X227165Y65122D01*
X227247Y65167D01*
X227323Y65219D01*
X227393Y65277D01*
X227456Y65343D01*
X227553Y63692D01*
D02*
G37*
G36*
X251178Y62241D02*
X251199Y62233D01*
X251233Y62226D01*
X251282Y62221D01*
X251420Y62211D01*
X251862Y62204D01*
Y61204D01*
X251729Y61202D01*
X251504Y61187D01*
X251413Y61174D01*
X251336Y61156D01*
X251272Y61136D01*
X251223Y61111D01*
X251188Y61082D01*
X251166Y61050D01*
X251159Y61014D01*
X251171Y62249D01*
X251178Y62241D01*
D02*
G37*
G36*
X247809Y60073D02*
X247731Y60130D01*
X247640Y60158D01*
X247533D01*
X247413Y60130D01*
X247279Y60073D01*
X247130Y59989D01*
X246968Y59875D01*
X246791Y59734D01*
X246395Y59366D01*
X245688Y60073D01*
X245886Y60278D01*
X246197Y60646D01*
X246310Y60809D01*
X246395Y60957D01*
X246452Y61092D01*
X246480Y61212D01*
Y61318D01*
X246452Y61410D01*
X246395Y61488D01*
X247809Y60073D01*
D02*
G37*
G36*
X219901Y62757D02*
X220270Y62444D01*
X220433Y62330D01*
X220582Y62243D01*
X220716Y62186D01*
X220836Y62156D01*
X220941Y62155D01*
X221033Y62182D01*
X221109Y62237D01*
X220027Y61155D01*
X221109Y60073D01*
X221031Y60130D01*
X220940Y60158D01*
X220833D01*
X220713Y60130D01*
X220579Y60073D01*
X220430Y59989D01*
X220268Y59875D01*
X220091Y59734D01*
X219695Y59366D01*
X218988Y60073D01*
X219186Y60278D01*
X219497Y60646D01*
X219610Y60809D01*
X219695Y60957D01*
X219752Y61092D01*
X219772Y61177D01*
X219759Y61228D01*
X219701Y61362D01*
X219615Y61511D01*
X219501Y61674D01*
X219358Y61852D01*
X218988Y62249D01*
X219695Y62957D01*
X219901Y62757D01*
D02*
G37*
G36*
X224414Y56410D02*
X224386Y56318D01*
Y56212D01*
X224414Y56092D01*
X224471Y55957D01*
X224556Y55809D01*
X224669Y55646D01*
X224811Y55469D01*
X225178Y55073D01*
X224471Y54366D01*
X224266Y54564D01*
X223898Y54875D01*
X223736Y54989D01*
X223587Y55073D01*
X223453Y55130D01*
X223333Y55158D01*
X223227D01*
X223135Y55130D01*
X223057Y55073D01*
X224471Y56488D01*
X224414Y56410D01*
D02*
G37*
G36*
X53949Y53950D02*
X54681Y53937D01*
Y50787D01*
X53949Y50751D01*
Y50603D01*
X53917Y50638D01*
X53823Y50669D01*
X53666Y50697D01*
X53445Y50721D01*
X53395Y50723D01*
X51360Y50622D01*
Y50782D01*
X50799Y50787D01*
Y53937D01*
X51360Y53939D01*
Y54103D01*
X51438Y54071D01*
X51572Y54043D01*
X51763Y54018D01*
X52205Y53986D01*
X53917Y54087D01*
X53949Y54122D01*
Y53950D01*
D02*
G37*
G36*
X226504Y53817D02*
X224955Y53335D01*
X224988Y53406D01*
X225008Y53479D01*
X225014Y53555D01*
X225008Y53632D01*
X224989Y53711D01*
X224957Y53793D01*
X224912Y53876D01*
X224853Y53962D01*
X224782Y54050D01*
X224698Y54139D01*
X225507Y54745D01*
X226504Y53817D01*
D02*
G37*
G36*
X120671Y55341D02*
X121210Y54884D01*
X121379Y54765D01*
X121541Y54663D01*
X121698Y54577D01*
X121849Y54509D01*
X121994Y54457D01*
X122134Y54422D01*
X119210Y52498D01*
X119233Y52657D01*
X119233Y52820D01*
X119210Y52986D01*
X119164Y53156D01*
X119096Y53330D01*
X119005Y53507D01*
X118891Y53688D01*
X118754Y53873D01*
X118595Y54061D01*
X118413Y54253D01*
X120480Y55527D01*
X120671Y55341D01*
D02*
G37*
G36*
X104877Y54980D02*
X105487Y54445D01*
X105602Y54364D01*
X105703Y54303D01*
X105789Y54264D01*
X105861Y54246D01*
X105917Y54248D01*
X104081Y52188D01*
X104076Y52239D01*
X104050Y52307D01*
X104002Y52391D01*
X103932Y52493D01*
X103841Y52611D01*
X103593Y52898D01*
X103059Y53454D01*
X104688Y55166D01*
X104877Y54980D01*
D02*
G37*
G36*
X64698Y54957D02*
X64087Y54329D01*
X62734Y52726D01*
X62443Y52285D01*
X62233Y51890D01*
X62103Y51543D01*
X62053Y51242D01*
X62082Y50988D01*
X62193Y50781D01*
X59461Y54122D01*
X59688Y54147D01*
X59943Y54222D01*
X60228Y54347D01*
X60541Y54523D01*
X60883Y54748D01*
X61255Y55024D01*
X62083Y55725D01*
X63028Y56627D01*
X64698Y54957D01*
D02*
G37*
G36*
X263061Y70018D02*
Y63397D01*
X250114Y50450D01*
X245596D01*
Y50450D01*
X244913Y50702D01*
Y53469D01*
X245383Y54061D01*
X248283D01*
Y56161D01*
Y58261D01*
X248140D01*
X247738Y59049D01*
X247901Y59274D01*
X251971D01*
Y60413D01*
X252364Y60492D01*
X252790Y60776D01*
X262333Y70319D01*
X263061Y70018D01*
D02*
G37*
G36*
X251878Y49651D02*
X251679Y49445D01*
X251365Y49076D01*
X251251Y48913D01*
X251165Y48764D01*
X251107Y48630D01*
X251078Y48510D01*
X251077Y48405D01*
X251104Y48314D01*
X251159Y48237D01*
X249757Y49639D01*
X249834Y49584D01*
X249925Y49556D01*
X250030Y49558D01*
X250150Y49587D01*
X250284Y49645D01*
X250433Y49731D01*
X250596Y49845D01*
X250773Y49988D01*
X251171Y50358D01*
X251878Y49651D01*
D02*
G37*
G36*
X219901Y50159D02*
X220270Y49845D01*
X220433Y49731D01*
X220582Y49645D01*
X220716Y49587D01*
X220836Y49558D01*
X220941Y49556D01*
X221033Y49584D01*
X221109Y49639D01*
X219707Y48237D01*
X219762Y48314D01*
X219790Y48405D01*
X219788Y48510D01*
X219759Y48630D01*
X219701Y48764D01*
X219615Y48913D01*
X219501Y49076D01*
X219358Y49253D01*
X218988Y49651D01*
X219695Y50358D01*
X219901Y50159D01*
D02*
G37*
G36*
X53949Y48044D02*
X54681Y48031D01*
Y44882D01*
X53949Y44845D01*
Y44697D01*
X53917Y44732D01*
X53823Y44764D01*
X53666Y44791D01*
X53445Y44815D01*
X53395Y44818D01*
X51360Y44716D01*
Y44876D01*
X50799Y44882D01*
Y48031D01*
X51360Y48033D01*
Y48197D01*
X51438Y48166D01*
X51572Y48138D01*
X51763Y48113D01*
X52205Y48081D01*
X53917Y48181D01*
X53949Y48216D01*
Y48044D01*
D02*
G37*
G36*
X64698Y47673D02*
X64222Y47193D01*
X62418Y45163D01*
X62293Y44967D01*
X62218Y44812D01*
X62193Y44697D01*
X60230Y48216D01*
X60371Y48040D01*
X60555Y47940D01*
X60782Y47916D01*
X61052Y47969D01*
X61364Y48098D01*
X61720Y48303D01*
X62118Y48584D01*
X62559Y48942D01*
X63571Y49887D01*
X64698Y47673D01*
D02*
G37*
G36*
X123295Y50064D02*
X123199Y49928D01*
X123113Y49776D01*
X123039Y49609D01*
X122977Y49425D01*
X122926Y49225D01*
X122886Y49009D01*
X122874Y48913D01*
X122935Y47858D01*
X122966Y47740D01*
X123000Y47669D01*
X123039Y47646D01*
X120071D01*
X120147Y47669D01*
X120216Y47740D01*
X120276Y47858D01*
X120328Y48023D01*
X120372Y48236D01*
X120408Y48496D01*
X120435Y48864D01*
X120421Y49009D01*
X120381Y49225D01*
X120330Y49425D01*
X120268Y49609D01*
X120194Y49776D01*
X120108Y49928D01*
X120012Y50064D01*
X119904Y50183D01*
X123404D01*
X123295Y50064D01*
D02*
G37*
G36*
X108197Y49926D02*
X108100Y49790D01*
X108015Y49639D01*
X107941Y49471D01*
X107878Y49287D01*
X107827Y49087D01*
X107787Y48871D01*
X107787Y48868D01*
X107845Y48023D01*
X107885Y47858D01*
X107930Y47740D01*
X107982Y47669D01*
X108039Y47646D01*
X105071D01*
X105129Y47669D01*
X105180Y47740D01*
X105226Y47858D01*
X105265Y48023D01*
X105298Y48236D01*
X105339Y48706D01*
X105323Y48871D01*
X105283Y49087D01*
X105232Y49287D01*
X105169Y49471D01*
X105095Y49639D01*
X105010Y49790D01*
X104913Y49926D01*
X104805Y50045D01*
X108305Y50045D01*
X108197Y49926D01*
D02*
G37*
G36*
X92423Y48751D02*
X92487Y47864D01*
X92511Y47768D01*
X92539Y47700D01*
X92570Y47659D01*
X92605Y47646D01*
X90071D01*
X90069Y47659D01*
X90067Y47700D01*
X90059Y49010D01*
X92421D01*
X92423Y48751D01*
D02*
G37*
G36*
X247809Y47475D02*
X247731Y47532D01*
X247640Y47560D01*
X247533D01*
X247413Y47532D01*
X247279Y47475D01*
X247130Y47390D01*
X246968Y47277D01*
X246791Y47136D01*
X246395Y46768D01*
X245688Y47475D01*
X245886Y47680D01*
X246197Y48048D01*
X246310Y48210D01*
X246395Y48359D01*
X246452Y48493D01*
X246480Y48613D01*
Y48719D01*
X246452Y48811D01*
X246395Y48889D01*
X247809Y47475D01*
D02*
G37*
G36*
X201915Y46877D02*
X201772Y46713D01*
X201655Y46533D01*
X201564Y46335D01*
X201498Y46121D01*
X201457Y45889D01*
X201442Y45641D01*
X201452Y45376D01*
X201488Y45093D01*
X201549Y44794D01*
X201636Y44478D01*
X198368Y46257D01*
X198775Y46376D01*
X200081Y46836D01*
X200328Y46946D01*
X200725Y47162D01*
X200876Y47267D01*
X200995Y47371D01*
X201915Y46877D01*
D02*
G37*
G36*
X224481Y44565D02*
X224511Y44489D01*
X224561Y44421D01*
X224631Y44363D01*
X224721Y44313D01*
X224831Y44273D01*
X224961Y44241D01*
X224979Y44239D01*
X225044Y44253D01*
X225141Y44282D01*
X225231Y44318D01*
X225316Y44361D01*
X225395Y44410D01*
X225467Y44466D01*
X225535Y44528D01*
Y42874D01*
X225467Y42936D01*
X225395Y42992D01*
X225316Y43041D01*
X225231Y43083D01*
X225141Y43119D01*
X225044Y43148D01*
X224988Y43161D01*
X224956Y43156D01*
X224825Y43121D01*
X224714Y43076D01*
X224623Y43021D01*
X224551Y42956D01*
X224500Y42881D01*
X224470Y42796D01*
X224459Y42701D01*
X224471Y44651D01*
X224481Y44565D01*
D02*
G37*
G36*
X53949Y42139D02*
X54681Y42126D01*
Y38976D01*
X53949Y38940D01*
Y38791D01*
X53917Y38827D01*
X53823Y38858D01*
X53666Y38886D01*
X53445Y38910D01*
X53395Y38912D01*
X51360Y38811D01*
Y38971D01*
X50799Y38976D01*
Y42126D01*
X51360Y42128D01*
Y42292D01*
X51438Y42260D01*
X51572Y42232D01*
X51763Y42207D01*
X52205Y42175D01*
X53917Y42276D01*
X53949Y42311D01*
Y42139D01*
D02*
G37*
G36*
X296236Y68398D02*
X296030Y67901D01*
X295932Y67154D01*
Y67126D01*
X296030Y66379D01*
X296319Y65683D01*
X296575Y65349D01*
Y63583D01*
X299606D01*
Y37008D01*
X289919D01*
X289713Y37093D01*
X288583Y37242D01*
X287452Y37093D01*
X287246Y37008D01*
X276646D01*
X276476Y37508D01*
X276694Y37676D01*
X277296Y38460D01*
X277675Y39374D01*
X277738Y39854D01*
X272099D01*
Y39658D01*
X272043Y39695D01*
X271952Y39729D01*
X271826Y39758D01*
X271666Y39784D01*
X271241Y39823D01*
X270346Y39852D01*
X269979Y39854D01*
X269685D01*
Y40354D01*
X269391D01*
Y39854D01*
X269024Y39852D01*
X267544Y39758D01*
X267419Y39729D01*
X267327Y39695D01*
X267271Y39658D01*
Y41051D01*
X267327Y41013D01*
X267419Y40980D01*
X267544Y40951D01*
X267705Y40925D01*
X268129Y40886D01*
X269024Y40856D01*
X269185Y40856D01*
Y44143D01*
X265354D01*
X264374Y44014D01*
X264338Y43999D01*
X265298Y43094D01*
X263300Y42158D01*
X263304Y42169D01*
X263293Y42193D01*
X263268Y42231D01*
X263229Y42280D01*
X263106Y42418D01*
X262690Y42848D01*
X263489Y43647D01*
X263460Y43635D01*
X262676Y43033D01*
X262311Y42558D01*
X261811Y42728D01*
Y48425D01*
X282283Y68898D01*
X295966D01*
X296236Y68398D01*
D02*
G37*
G36*
X128753Y38910D02*
X128047Y38202D01*
X127581Y38666D01*
X128027Y39638D01*
X128753Y38910D01*
D02*
G37*
G36*
X116661Y38812D02*
X116663Y38692D01*
X116665Y38666D01*
X117161D01*
X117066Y38656D01*
X116981Y38625D01*
X116906Y38575D01*
X116841Y38504D01*
X116786Y38413D01*
X116741Y38301D01*
X116725Y38241D01*
X116744Y38168D01*
X116774Y38079D01*
X116809Y37994D01*
X116849Y37915D01*
X116893Y37840D01*
X116669Y37891D01*
X116666Y37846D01*
X116661Y37654D01*
X115661D01*
X115656Y37846D01*
X115641Y38018D01*
X115623Y38128D01*
X115280Y38205D01*
X115352Y38256D01*
X115417Y38315D01*
X115474Y38381D01*
X115516Y38445D01*
X115481Y38504D01*
X115416Y38575D01*
X115341Y38625D01*
X115256Y38656D01*
X115161Y38666D01*
X115610D01*
X115626Y38725D01*
X115645Y38831D01*
X115657Y38944D01*
X115661Y39065D01*
X116661Y38812D01*
D02*
G37*
G36*
X131205Y38655D02*
X131120Y38624D01*
X131045Y38573D01*
X130980Y38502D01*
X130925Y38410D01*
X130880Y38299D01*
X130845Y38168D01*
X130820Y38017D01*
X130805Y37845D01*
X130800Y37654D01*
X129800D01*
X130071Y38654D01*
X131300Y38666D01*
X131205Y38655D01*
D02*
G37*
G36*
X70569Y39281D02*
X70387Y39090D01*
X70228Y38902D01*
X70091Y38717D01*
X69977Y38536D01*
X69885Y38359D01*
X69817Y38185D01*
X69771Y38015D01*
X69747Y37848D01*
X69747Y37685D01*
X69769Y37525D01*
X66854Y39464D01*
X66995Y39498D01*
X67141Y39550D01*
X67292Y39618D01*
X67450Y39703D01*
X67613Y39805D01*
X67782Y39923D01*
X68136Y40211D01*
X68321Y40380D01*
X68513Y40565D01*
X70569Y39281D01*
D02*
G37*
G36*
X112683Y38656D02*
X112598Y38625D01*
X112523Y38575D01*
X112458Y38504D01*
X112403Y38413D01*
X112358Y38301D01*
X112323Y38172D01*
X112338Y38118D01*
X112372Y38027D01*
X112413Y37943D01*
X112462Y37867D01*
X112518Y37799D01*
X112582Y37738D01*
X112653Y37684D01*
X111029Y37373D01*
X111076Y37447D01*
X111119Y37526D01*
X111156Y37611D01*
X111188Y37700D01*
X111215Y37795D01*
X111238Y37894D01*
X111255Y37999D01*
X111257Y38021D01*
X111233Y38170D01*
X111198Y38301D01*
X111153Y38413D01*
X111098Y38504D01*
X111033Y38575D01*
X110958Y38625D01*
X110873Y38656D01*
X110778Y38666D01*
X112778D01*
X112683Y38656D01*
D02*
G37*
G36*
X53949Y36233D02*
X54681Y36220D01*
Y33071D01*
X53949Y33034D01*
Y32886D01*
X53917Y32921D01*
X53823Y32953D01*
X53666Y32980D01*
X53445Y33004D01*
X53395Y33007D01*
X51360Y32905D01*
Y33065D01*
X50799Y33071D01*
Y36220D01*
X51360Y36222D01*
Y36386D01*
X51438Y36355D01*
X51572Y36326D01*
X51763Y36302D01*
X52205Y36270D01*
X53917Y36370D01*
X53949Y36405D01*
Y36233D01*
D02*
G37*
G36*
X227783Y36284D02*
X227631Y36125D01*
X227505Y35977D01*
X227404Y35841D01*
X227329Y35717D01*
X227280Y35604D01*
X227256Y35503D01*
X227258Y35414D01*
X227286Y35336D01*
X227340Y35269D01*
X227419Y35215D01*
X225580Y36191D01*
X225675Y36154D01*
X225777Y36138D01*
X225887Y36144D01*
X226005Y36171D01*
X226131Y36220D01*
X226264Y36290D01*
X226405Y36383D01*
X226554Y36496D01*
X226710Y36632D01*
X226874Y36789D01*
X227783Y36284D01*
D02*
G37*
G36*
X66444Y34668D02*
X66431Y34660D01*
X66401Y34636D01*
X66291Y34534D01*
X65556Y33810D01*
X64555Y34811D01*
Y33465D01*
X64106Y33459D01*
X63043Y33372D01*
X62783Y33320D01*
X62571Y33256D01*
X62405Y33181D01*
X62287Y33094D01*
X62216Y32996D01*
X62193Y32886D01*
Y36405D01*
X62216Y36295D01*
X62287Y36197D01*
X62405Y36110D01*
X62571Y36035D01*
X62783Y35971D01*
X63043Y35919D01*
X63350Y35879D01*
X64106Y35833D01*
X64245Y35831D01*
X64885Y36454D01*
X66444Y34668D01*
D02*
G37*
G36*
X232979Y31560D02*
X232953Y31670D01*
X232912Y31750D01*
X232856Y31800D01*
X232785Y31821D01*
X232697Y31812D01*
X232595Y31774D01*
X232477Y31705D01*
X232343Y31608D01*
X232194Y31480D01*
X232030Y31323D01*
X231535Y32243D01*
X231759Y32473D01*
X232129Y32898D01*
X232276Y33094D01*
X232398Y33278D01*
X232495Y33451D01*
X232566Y33613D01*
X232612Y33762D01*
X232633Y33901D01*
X232629Y34028D01*
X232979Y31560D01*
D02*
G37*
G36*
X226217Y30420D02*
X226133Y30386D01*
X226058Y30328D01*
X225994Y30247D01*
X225939Y30143D01*
X225894Y30016D01*
X225860Y29866D01*
X225835Y29692D01*
X225820Y29496D01*
X225815Y29276D01*
X224815D01*
X224810Y29496D01*
X224795Y29692D01*
X224770Y29866D01*
X224735Y30016D01*
X224691Y30143D01*
X224636Y30247D01*
X224572Y30328D01*
X224497Y30386D01*
X224413Y30420D01*
X224318Y30432D01*
X226311D01*
X226217Y30420D01*
D02*
G37*
G36*
X248143Y29733D02*
X248158Y29561D01*
X248183Y29409D01*
X248218Y29277D01*
X248263Y29166D01*
X248318Y29075D01*
X248383Y29004D01*
X248458Y28953D01*
X248543Y28923D01*
X248638Y28913D01*
X246638D01*
X246733Y28923D01*
X246818Y28953D01*
X246893Y29004D01*
X246958Y29075D01*
X247013Y29166D01*
X247058Y29277D01*
X247093Y29409D01*
X247118Y29561D01*
X247133Y29733D01*
X247138Y29925D01*
X248138D01*
X248143Y29733D01*
D02*
G37*
G36*
X45882Y31756D02*
X45929Y31199D01*
X46008Y30710D01*
X46118Y30290D01*
X46260Y29940D01*
X46433Y29658D01*
X46638Y29445D01*
X46874Y29302D01*
X47142Y29227D01*
X47441Y29221D01*
X43062Y28822D01*
X42996Y28765D01*
X42937Y28800D01*
X42886Y28926D01*
X42841Y29144D01*
X42803Y29454D01*
X42748Y30350D01*
X42717Y32383D01*
X45866D01*
X45882Y31756D01*
D02*
G37*
G36*
X225820Y26961D02*
X225835Y26764D01*
X225860Y26591D01*
X225894Y26441D01*
X225939Y26314D01*
X225994Y26210D01*
X226058Y26129D01*
X226133Y26071D01*
X226217Y26037D01*
X226311Y26025D01*
X224318D01*
X224413Y26037D01*
X224497Y26071D01*
X224572Y26129D01*
X224636Y26210D01*
X224691Y26314D01*
X224735Y26441D01*
X224770Y26591D01*
X224795Y26764D01*
X224810Y26961D01*
X224815Y27180D01*
X225815D01*
X225820Y26961D01*
D02*
G37*
G36*
X249711Y23413D02*
X249513Y23208D01*
X249202Y22840D01*
X249089Y22678D01*
X249004Y22529D01*
X248947Y22395D01*
X248919Y22275D01*
Y22169D01*
X248947Y22077D01*
X249004Y21999D01*
X247589Y23413D01*
X247667Y23357D01*
X247759Y23328D01*
X247865D01*
X247986Y23357D01*
X248120Y23413D01*
X248268Y23498D01*
X248431Y23611D01*
X248608Y23753D01*
X249004Y24120D01*
X249711Y23413D01*
D02*
G37*
G36*
X193812Y24841D02*
X193852Y24688D01*
X193907Y24552D01*
X193977Y24434D01*
X194062Y24335D01*
X194162Y24253D01*
X194277Y24190D01*
X194407Y24145D01*
X194553Y24118D01*
X194713Y24108D01*
Y23109D01*
X194468Y23103D01*
X194000Y23057D01*
X193777Y23017D01*
X193561Y22966D01*
X193353Y22903D01*
X193152Y22828D01*
X192958Y22743D01*
X192771Y22646D01*
X192592Y22537D01*
X193788Y25013D01*
X193812Y24841D01*
D02*
G37*
G36*
X238049Y23346D02*
X238063Y23261D01*
X238101Y23186D01*
X238165Y23121D01*
X238253Y23066D01*
X238366Y23021D01*
X238504Y22986D01*
X238667Y22961D01*
X238855Y22946D01*
X239068Y22941D01*
X238866Y21941D01*
X238644Y21936D01*
X238264Y21897D01*
X238104Y21862D01*
X237966Y21818D01*
X237849Y21764D01*
X237753Y21700D01*
X237677Y21626D01*
X237622Y21542D01*
X237589Y21449D01*
X238060Y23441D01*
X238049Y23346D01*
D02*
G37*
G36*
X240772Y21441D02*
X240761Y21536D01*
X240731Y21621D01*
X240680Y21696D01*
X240609Y21761D01*
X240517Y21816D01*
X240406Y21861D01*
X240275Y21896D01*
X240123Y21921D01*
X239952Y21936D01*
X239760Y21941D01*
Y22941D01*
X239950Y22946D01*
X240120Y22960D01*
X240270Y22983D01*
X240400Y23017D01*
X240510Y23059D01*
X240600Y23111D01*
X240670Y23172D01*
X240720Y23243D01*
X240750Y23324D01*
X240760Y23413D01*
X240772Y21441D01*
D02*
G37*
G36*
X195409Y21164D02*
X195427Y21013D01*
X195457Y20875D01*
X195499Y20751D01*
X195553Y20639D01*
X195618Y20540D01*
X195696Y20455D01*
X195786Y20382D01*
X195887Y20323D01*
X196001Y20276D01*
X193849Y20069D01*
X193954Y20138D01*
X194049Y20220D01*
X194132Y20314D01*
X194204Y20421D01*
X194265Y20540D01*
X194315Y20673D01*
X194353Y20817D01*
X194381Y20975D01*
X194397Y21145D01*
X194403Y21328D01*
X195403D01*
X195409Y21164D01*
D02*
G37*
G36*
X179763Y21922D02*
X179777Y21730D01*
X179816Y21528D01*
X179881Y21315D01*
X179973Y21091D01*
X180090Y20858D01*
X180234Y20613D01*
X180404Y20359D01*
X180823Y19818D01*
X181072Y19532D01*
X177359Y19768D01*
X177626Y20008D01*
X178075Y20477D01*
X178258Y20705D01*
X178412Y20929D01*
X178539Y21149D01*
X178637Y21364D01*
X178707Y21576D01*
X178749Y21784D01*
X178763Y21987D01*
X179763Y21922D01*
D02*
G37*
G36*
X226217Y20420D02*
X226133Y20385D01*
X226058Y20328D01*
X225994Y20247D01*
X225939Y20143D01*
X225894Y20016D01*
X225860Y19866D01*
X225835Y19692D01*
X225820Y19496D01*
X225815Y19276D01*
X224815D01*
X224810Y19496D01*
X224795Y19692D01*
X224770Y19866D01*
X224735Y20016D01*
X224691Y20143D01*
X224636Y20247D01*
X224572Y20328D01*
X224497Y20385D01*
X224413Y20420D01*
X224318Y20432D01*
X226311D01*
X226217Y20420D01*
D02*
G37*
G36*
X67386Y21064D02*
X68154Y20383D01*
X68259Y20310D01*
X68349Y20257D01*
X68422Y20226D01*
X68479Y20216D01*
X66004Y17741D01*
X65994Y17799D01*
X65963Y17872D01*
X65911Y17961D01*
X65838Y18067D01*
X65743Y18188D01*
X65492Y18479D01*
X64957Y19037D01*
X67184Y21264D01*
X67386Y21064D01*
D02*
G37*
G36*
X249711Y17508D02*
X249513Y17303D01*
X249202Y16935D01*
X249089Y16772D01*
X249004Y16624D01*
X248947Y16489D01*
X248919Y16369D01*
Y16263D01*
X248947Y16171D01*
X249004Y16093D01*
X247589Y17508D01*
X247667Y17451D01*
X247759Y17423D01*
X247865D01*
X247986Y17451D01*
X248120Y17508D01*
X248268Y17593D01*
X248431Y17706D01*
X248608Y17847D01*
X249004Y18215D01*
X249711Y17508D01*
D02*
G37*
G36*
X240945Y18034D02*
X241415Y17638D01*
X241542Y17554D01*
X241656Y17494D01*
X241755Y17458D01*
X241839Y17447D01*
X241909Y17459D01*
X241965Y17496D01*
X240772Y16303D01*
X240809Y16358D01*
X240821Y16429D01*
X240809Y16513D01*
X240774Y16612D01*
X240714Y16725D01*
X240630Y16853D01*
X240522Y16995D01*
X240233Y17323D01*
X240053Y17508D01*
X240760Y18215D01*
X240945Y18034D01*
D02*
G37*
G36*
X225820Y16961D02*
X225835Y16764D01*
X225860Y16591D01*
X225894Y16441D01*
X225939Y16314D01*
X225994Y16210D01*
X226058Y16129D01*
X226133Y16071D01*
X226217Y16037D01*
X226311Y16025D01*
X224318D01*
X224413Y16037D01*
X224497Y16071D01*
X224572Y16129D01*
X224636Y16210D01*
X224691Y16314D01*
X224735Y16441D01*
X224770Y16591D01*
X224795Y16764D01*
X224810Y16961D01*
X224815Y17180D01*
X225815D01*
X225820Y16961D01*
D02*
G37*
G36*
X150254Y17192D02*
X149779Y17061D01*
X148887Y16746D01*
X148468Y16563D01*
X148069Y16363D01*
X147688Y16145D01*
X147327Y15910D01*
X146984Y15657D01*
X146660Y15387D01*
X146355Y15100D01*
X143498Y16698D01*
X143804Y17031D01*
X144065Y17376D01*
X144281Y17731D01*
X144452Y18097D01*
X144578Y18474D01*
X144660Y18861D01*
X144697Y19260D01*
X144689Y19669D01*
X144636Y20090D01*
X144539Y20521D01*
X150254Y17192D01*
D02*
G37*
G36*
X71008Y17528D02*
X71039Y17481D01*
X71091Y17416D01*
X71259Y17225D01*
X72052Y16409D01*
X69837Y14171D01*
X68686Y15223D01*
X70999Y17555D01*
X71008Y17528D01*
D02*
G37*
G36*
X232618Y15734D02*
X232766Y15608D01*
X232901Y15507D01*
X233025Y15433D01*
X233137Y15384D01*
X233237Y15362D01*
X233325Y15366D01*
X233401Y15395D01*
X233466Y15451D01*
X233518Y15532D01*
X232587Y13647D01*
X232622Y13744D01*
X232636Y13849D01*
X232629Y13961D01*
X232600Y14080D01*
X232549Y14207D01*
X232477Y14342D01*
X232384Y14484D01*
X232270Y14633D01*
X232133Y14790D01*
X231976Y14955D01*
X232459Y15886D01*
X232618Y15734D01*
D02*
G37*
%LPC*%
G36*
X324163Y259736D02*
X321891D01*
Y257858D01*
X324163D01*
Y259736D01*
D02*
G37*
G36*
X320891D02*
X318620D01*
Y257858D01*
X320891D01*
Y259736D01*
D02*
G37*
G36*
X339591Y260842D02*
X339083D01*
Y248532D01*
X351394D01*
Y249040D01*
X351078Y251031D01*
X350455Y252949D01*
X349540Y254746D01*
X348354Y256377D01*
X346929Y257803D01*
X345297Y258988D01*
X343500Y259904D01*
X341583Y260527D01*
X339591Y260842D01*
D02*
G37*
G36*
X338083D02*
X337574D01*
X335583Y260527D01*
X333665Y259904D01*
X331868Y258988D01*
X330237Y257803D01*
X328811Y256377D01*
X327626Y254746D01*
X326710Y252949D01*
X326087Y251031D01*
X325772Y249040D01*
Y248532D01*
X338083D01*
Y260842D01*
D02*
G37*
G36*
X307746Y260728D02*
X306427D01*
X305134Y260471D01*
X303916Y259967D01*
X302820Y259234D01*
X301888Y258302D01*
X301155Y257206D01*
X300651Y255988D01*
X300394Y254695D01*
Y253376D01*
X300651Y252083D01*
X301155Y250865D01*
X301888Y249769D01*
X302820Y248837D01*
X303916Y248104D01*
X305134Y247600D01*
X306427Y247342D01*
X307746D01*
X309039Y247600D01*
X310257Y248104D01*
X311353Y248837D01*
X312285Y249769D01*
X313018Y250865D01*
X313522Y252083D01*
X313779Y253376D01*
Y254695D01*
X313522Y255988D01*
X313018Y257206D01*
X312285Y258302D01*
X311353Y259234D01*
X310257Y259967D01*
X309039Y260471D01*
X307746Y260728D01*
D02*
G37*
G36*
X351394Y247532D02*
X339083D01*
Y235221D01*
X339591D01*
X341583Y235536D01*
X343500Y236159D01*
X345297Y237075D01*
X346929Y238260D01*
X348354Y239686D01*
X349540Y241317D01*
X350455Y243114D01*
X351078Y245032D01*
X351394Y247023D01*
Y247532D01*
D02*
G37*
G36*
X338083D02*
X325772D01*
Y247023D01*
X326087Y245032D01*
X326710Y243114D01*
X327626Y241317D01*
X328811Y239686D01*
X330237Y238260D01*
X331868Y237075D01*
X333665Y236159D01*
X335583Y235536D01*
X337574Y235221D01*
X338083D01*
Y247532D01*
D02*
G37*
G36*
X309732Y229563D02*
X309634D01*
Y225520D01*
X313677D01*
Y225618D01*
X313368Y226773D01*
X312769Y227809D01*
X311924Y228655D01*
X310888Y229253D01*
X309732Y229563D01*
D02*
G37*
G36*
X290764Y238224D02*
X276091D01*
Y225520D01*
X290764D01*
Y238224D01*
D02*
G37*
G36*
X275091D02*
X260417D01*
Y225520D01*
X275091D01*
Y238224D01*
D02*
G37*
G36*
X308634Y229563D02*
X308536D01*
X307380Y229253D01*
X306344Y228655D01*
X305498Y227809D01*
X304900Y226773D01*
X304591Y225618D01*
Y225520D01*
X308634D01*
Y229563D01*
D02*
G37*
G36*
X340657Y226137D02*
Y222941D01*
X343854D01*
X343605Y223869D01*
X343118Y224713D01*
X342429Y225402D01*
X341586Y225889D01*
X340657Y226137D01*
D02*
G37*
G36*
X339657Y226137D02*
X338729Y225889D01*
X337886Y225402D01*
X337197Y224713D01*
X336710Y223869D01*
X336461Y222941D01*
X339657D01*
Y226137D01*
D02*
G37*
G36*
X313677Y224520D02*
X309634D01*
Y220476D01*
X309732D01*
X310888Y220786D01*
X311924Y221384D01*
X312769Y222230D01*
X313368Y223266D01*
X313677Y224422D01*
Y224520D01*
D02*
G37*
G36*
X308634D02*
X304591D01*
Y224422D01*
X304900Y223266D01*
X305498Y222230D01*
X306344Y221384D01*
X307380Y220786D01*
X308536Y220476D01*
X308634D01*
Y224520D01*
D02*
G37*
G36*
X343854Y221941D02*
X340657D01*
Y218744D01*
X341586Y218993D01*
X342429Y219480D01*
X343118Y220169D01*
X343605Y221013D01*
X343854Y221941D01*
D02*
G37*
G36*
X339657D02*
X336461D01*
X336710Y221013D01*
X337197Y220169D01*
X337886Y219480D01*
X338729Y218993D01*
X339657Y218744D01*
Y221941D01*
D02*
G37*
G36*
X309732Y219563D02*
X309634D01*
Y215520D01*
X313677D01*
Y215618D01*
X313368Y216773D01*
X312769Y217809D01*
X311924Y218655D01*
X310888Y219253D01*
X309732Y219563D01*
D02*
G37*
G36*
X308634D02*
X308536D01*
X307380Y219253D01*
X306344Y218655D01*
X305498Y217809D01*
X304900Y216773D01*
X304591Y215618D01*
Y215520D01*
X308634D01*
Y219563D01*
D02*
G37*
G36*
X290764Y224520D02*
X276091D01*
Y211815D01*
X290764D01*
Y224520D01*
D02*
G37*
G36*
X275091D02*
X260417D01*
Y211815D01*
X275091D01*
Y224520D01*
D02*
G37*
G36*
X290764Y177378D02*
X276091D01*
Y164673D01*
X290764D01*
Y177378D01*
D02*
G37*
G36*
X275091D02*
X260417D01*
Y164673D01*
X275091D01*
Y177378D01*
D02*
G37*
G36*
X290764Y163673D02*
X276091D01*
Y150969D01*
X290764D01*
Y163673D01*
D02*
G37*
G36*
X275091D02*
X260417D01*
Y150969D01*
X275091D01*
Y163673D01*
D02*
G37*
G36*
X324303Y141181D02*
X318449D01*
Y137669D01*
X324303D01*
Y141181D01*
D02*
G37*
G36*
X359858Y139779D02*
X354437D01*
Y135933D01*
X359858D01*
Y139779D01*
D02*
G37*
G36*
X353437D02*
X348016D01*
Y135933D01*
X353437D01*
Y139779D01*
D02*
G37*
G36*
X324303Y136669D02*
X318449D01*
Y133158D01*
X324303D01*
Y136669D01*
D02*
G37*
G36*
X359858Y134933D02*
X354437D01*
Y131087D01*
X359858D01*
Y134933D01*
D02*
G37*
G36*
X353437D02*
X348016D01*
Y131087D01*
X353437D01*
Y134933D01*
D02*
G37*
G36*
X307746Y142421D02*
X306427D01*
X305134Y142164D01*
X303916Y141659D01*
X302820Y140927D01*
X301888Y139995D01*
X301155Y138899D01*
X300651Y137681D01*
X300394Y136388D01*
Y135069D01*
X300651Y133776D01*
X301155Y132558D01*
X301888Y131462D01*
X302820Y130530D01*
X303916Y129797D01*
X305134Y129293D01*
X306427Y129035D01*
X307746D01*
X309039Y129293D01*
X310257Y129797D01*
X311353Y130530D01*
X312285Y131462D01*
X313018Y132558D01*
X313522Y133776D01*
X313779Y135069D01*
Y136388D01*
X313522Y137681D01*
X313018Y138899D01*
X312285Y139995D01*
X311353Y140927D01*
X310257Y141659D01*
X309039Y142164D01*
X307746Y142421D01*
D02*
G37*
G36*
X356662Y127165D02*
X355936D01*
X355236Y126978D01*
X354607Y126615D01*
X354094Y126102D01*
X353875Y125722D01*
X348556D01*
X348054Y125622D01*
X347628Y125338D01*
X346898Y124608D01*
X342534D01*
X342114Y124524D01*
X341757Y124286D01*
X341519Y123929D01*
X341436Y123509D01*
Y121767D01*
X341519Y121346D01*
X341604Y120699D01*
X341319Y120272D01*
X341219Y119769D01*
Y119398D01*
X345098D01*
X348978D01*
Y119769D01*
X348878Y120272D01*
X348593Y120699D01*
X348678Y121346D01*
X348761Y121767D01*
Y122758D01*
X349100Y123097D01*
X353875D01*
X354094Y122717D01*
X354607Y122204D01*
X355236Y121841D01*
X355936Y121653D01*
X356662D01*
X357363Y121841D01*
X357991Y122204D01*
X358505Y122717D01*
X358867Y123346D01*
X359055Y124047D01*
Y124772D01*
X358867Y125473D01*
X358505Y126102D01*
X357991Y126615D01*
X357363Y126978D01*
X356662Y127165D01*
D02*
G37*
G36*
X240969Y124753D02*
X239476D01*
Y120579D01*
X242667D01*
Y123056D01*
X242537Y123705D01*
X242169Y124256D01*
X241619Y124624D01*
X240969Y124753D01*
D02*
G37*
G36*
X354183Y121105D02*
X353256D01*
Y119201D01*
X355554D01*
Y119734D01*
X355450Y120259D01*
X355152Y120704D01*
X354708Y121001D01*
X354183Y121105D01*
D02*
G37*
G36*
X352256D02*
X351329D01*
X350804Y121001D01*
X350359Y120704D01*
X350062Y120259D01*
X349958Y119734D01*
Y119201D01*
X352256D01*
Y121105D01*
D02*
G37*
G36*
X355554Y118201D02*
X353256D01*
Y116297D01*
X354183D01*
X354708Y116401D01*
X355152Y116698D01*
X355450Y117143D01*
X355554Y117667D01*
Y118201D01*
D02*
G37*
G36*
X352256D02*
X349958D01*
Y117667D01*
X350062Y117143D01*
X350359Y116698D01*
X350804Y116401D01*
X351329Y116297D01*
X352256D01*
Y118201D01*
D02*
G37*
G36*
X252575Y119110D02*
X248925D01*
Y115461D01*
X252575D01*
Y119110D01*
D02*
G37*
G36*
X247925D02*
X244276D01*
Y115461D01*
X247925D01*
Y119110D01*
D02*
G37*
G36*
X242667Y119579D02*
X239476D01*
Y115404D01*
X240969D01*
X241619Y115534D01*
X242169Y115901D01*
X242537Y116452D01*
X242667Y117101D01*
Y119579D01*
D02*
G37*
G36*
X252575Y114461D02*
X248925D01*
Y110811D01*
X252575D01*
Y114461D01*
D02*
G37*
G36*
X247925D02*
X244276D01*
Y110811D01*
X247925D01*
Y114461D01*
D02*
G37*
G36*
X348978Y118398D02*
X345098D01*
X341219D01*
Y118027D01*
X341319Y117523D01*
X341604Y117096D01*
X341519Y116449D01*
X341436Y116028D01*
Y114286D01*
X341519Y113866D01*
X341708Y113583D01*
X341624Y113236D01*
X341409Y112795D01*
X341142D01*
Y107677D01*
X345472D01*
Y110455D01*
X345507Y110630D01*
Y112975D01*
X346295Y113100D01*
X347482Y111912D01*
X348069Y111520D01*
X348760Y111383D01*
X350229D01*
X350252Y111374D01*
X350262Y111320D01*
X350513Y110946D01*
X350887Y110696D01*
X351329Y110608D01*
X354183D01*
X354625Y110696D01*
X354999Y110946D01*
X355249Y111320D01*
X355337Y111762D01*
Y113829D01*
X355249Y114270D01*
X354999Y114645D01*
X354625Y114895D01*
X354183Y114983D01*
X352425D01*
X352362Y114995D01*
X349508D01*
X348761Y115742D01*
Y116028D01*
X348678Y116449D01*
X348593Y117096D01*
X348878Y117523D01*
X348978Y118027D01*
Y118398D01*
D02*
G37*
G36*
X240969Y113926D02*
X239476D01*
Y109752D01*
X242667D01*
Y112229D01*
X242537Y112879D01*
X242169Y113429D01*
X241619Y113797D01*
X240969Y113926D01*
D02*
G37*
G36*
X242667Y108752D02*
X239476D01*
Y104578D01*
X240969D01*
X241619Y104707D01*
X242169Y105075D01*
X242537Y105625D01*
X242667Y106275D01*
Y108752D01*
D02*
G37*
G36*
X258944Y118898D02*
X257907D01*
X256906Y118629D01*
X256008Y118111D01*
X255275Y117378D01*
X254756Y116480D01*
X254488Y115479D01*
Y114442D01*
X254756Y113441D01*
X255275Y112543D01*
X256008Y111810D01*
X256364Y111605D01*
X256586Y111351D01*
X256782Y111093D01*
X256946Y110847D01*
X257075Y110621D01*
X257113Y110540D01*
Y107394D01*
X250588Y100869D01*
X249383D01*
X249256Y100844D01*
X245596D01*
Y97069D01*
X251971D01*
Y98569D01*
X252060Y98628D01*
X259353Y105922D01*
X259638Y106348D01*
X259738Y106850D01*
Y110540D01*
X259776Y110621D01*
X259904Y110847D01*
X260068Y111093D01*
X260264Y111351D01*
X260487Y111605D01*
X260843Y111810D01*
X261576Y112543D01*
X262094Y113441D01*
X262362Y114442D01*
Y115479D01*
X262094Y116480D01*
X261576Y117378D01*
X260843Y118111D01*
X259945Y118629D01*
X258944Y118898D01*
D02*
G37*
G36*
X248283Y88458D02*
X245383D01*
Y86858D01*
X248283D01*
Y88458D01*
D02*
G37*
G36*
Y85858D02*
X245383D01*
Y84258D01*
X248283D01*
Y85858D01*
D02*
G37*
G36*
X269144Y84885D02*
X268216D01*
Y82980D01*
X270514D01*
Y83514D01*
X270410Y84038D01*
X270113Y84483D01*
X269668Y84780D01*
X269144Y84885D01*
D02*
G37*
G36*
X270514Y81980D02*
X268216D01*
Y80076D01*
X269144D01*
X269668Y80180D01*
X270113Y80477D01*
X270410Y80922D01*
X270514Y81447D01*
Y81980D01*
D02*
G37*
G36*
X319502Y81587D02*
X316248D01*
Y78332D01*
X317198Y78587D01*
X318054Y79081D01*
X318754Y79780D01*
X319248Y80637D01*
X319502Y81587D01*
D02*
G37*
G36*
X347987Y81296D02*
X347941D01*
Y77646D01*
X351591D01*
Y77692D01*
X351308Y78747D01*
X350762Y79694D01*
X349989Y80467D01*
X349043Y81013D01*
X347987Y81296D01*
D02*
G37*
G36*
X346941D02*
X346895D01*
X345839Y81013D01*
X344893Y80467D01*
X344120Y79694D01*
X343574Y78747D01*
X343291Y77692D01*
Y77646D01*
X346941D01*
Y81296D01*
D02*
G37*
G36*
X351591Y76646D02*
X347941D01*
Y72996D01*
X347987D01*
X349043Y73278D01*
X349989Y73825D01*
X350762Y74598D01*
X351308Y75544D01*
X351591Y76599D01*
Y76646D01*
D02*
G37*
G36*
X346941D02*
X343291D01*
Y76599D01*
X343574Y75544D01*
X344120Y74598D01*
X344893Y73825D01*
X345839Y73278D01*
X346895Y72996D01*
X346941D01*
Y76646D01*
D02*
G37*
G36*
X325697Y67900D02*
Y65461D01*
X328136D01*
X327963Y66106D01*
X327572Y66783D01*
X327020Y67336D01*
X326343Y67727D01*
X325697Y67900D01*
D02*
G37*
G36*
X324697D02*
X324051Y67727D01*
X323374Y67336D01*
X322821Y66783D01*
X322431Y66106D01*
X322258Y65461D01*
X324697D01*
Y67900D01*
D02*
G37*
G36*
X328136Y64461D02*
X325697D01*
Y62021D01*
X326343Y62194D01*
X327020Y62585D01*
X327572Y63138D01*
X327963Y63815D01*
X328136Y64461D01*
D02*
G37*
G36*
X324697D02*
X322258D01*
X322431Y63815D01*
X322821Y63138D01*
X323374Y62585D01*
X324051Y62194D01*
X324697Y62021D01*
Y64461D01*
D02*
G37*
G36*
X311260Y62260D02*
X307748D01*
Y56406D01*
X311260D01*
Y62260D01*
D02*
G37*
G36*
X306748D02*
X303236D01*
Y56406D01*
X306748D01*
Y62260D01*
D02*
G37*
G36*
X311260Y55405D02*
X307748D01*
Y49551D01*
X311260D01*
Y55405D01*
D02*
G37*
G36*
X306748D02*
X303236D01*
Y49551D01*
X306748D01*
Y55405D01*
D02*
G37*
G36*
X252183Y45663D02*
X249283D01*
Y44063D01*
X252183D01*
Y45663D01*
D02*
G37*
G36*
X316158Y47260D02*
X310736D01*
Y43413D01*
X316158D01*
Y47260D01*
D02*
G37*
G36*
X309736D02*
X304315D01*
Y43413D01*
X309736D01*
Y47260D01*
D02*
G37*
G36*
X252183Y43063D02*
X249283D01*
Y41463D01*
X252183D01*
Y43063D01*
D02*
G37*
G36*
X339591Y52181D02*
X339083D01*
Y39870D01*
X351394D01*
Y40378D01*
X351078Y42370D01*
X350455Y44288D01*
X349540Y46084D01*
X348354Y47716D01*
X346929Y49142D01*
X345297Y50327D01*
X343500Y51243D01*
X341583Y51866D01*
X339591Y52181D01*
D02*
G37*
G36*
X338083D02*
X337574D01*
X335583Y51866D01*
X333665Y51243D01*
X331868Y50327D01*
X330237Y49142D01*
X328811Y47716D01*
X327626Y46084D01*
X326710Y44288D01*
X326087Y42370D01*
X325772Y40378D01*
Y39870D01*
X338083D01*
Y52181D01*
D02*
G37*
G36*
X316158Y42413D02*
X310736D01*
Y38567D01*
X316158D01*
Y42413D01*
D02*
G37*
G36*
X309736D02*
X304315D01*
Y38567D01*
X309736D01*
Y42413D01*
D02*
G37*
G36*
X351394Y38870D02*
X339083D01*
Y26559D01*
X339591D01*
X341583Y26875D01*
X343500Y27498D01*
X345297Y28413D01*
X346929Y29598D01*
X348354Y31024D01*
X349540Y32656D01*
X350455Y34452D01*
X351078Y36370D01*
X351394Y38362D01*
Y38870D01*
D02*
G37*
G36*
X338083D02*
X325772D01*
Y38362D01*
X326087Y36370D01*
X326710Y34452D01*
X327626Y32656D01*
X328811Y31024D01*
X330237Y29598D01*
X331868Y28413D01*
X333665Y27498D01*
X335583Y26875D01*
X337574Y26559D01*
X338083D01*
Y38870D01*
D02*
G37*
G36*
X292371Y28043D02*
X289083D01*
Y20490D01*
X289563Y20553D01*
X290477Y20932D01*
X291261Y21534D01*
X291863Y22319D01*
X292242Y23232D01*
X292371Y24213D01*
Y28043D01*
D02*
G37*
G36*
X288083D02*
X284794D01*
Y24213D01*
X284924Y23232D01*
X285302Y22319D01*
X285904Y21534D01*
X286688Y20932D01*
X287602Y20553D01*
X288083Y20490D01*
Y28043D01*
D02*
G37*
G36*
X274016Y19536D02*
X270185D01*
Y16248D01*
X277738D01*
X277675Y16728D01*
X277296Y17642D01*
X276694Y18427D01*
X275910Y19029D01*
X274996Y19407D01*
X274016Y19536D01*
D02*
G37*
G36*
X269185D02*
X265354D01*
X264374Y19407D01*
X263460Y19029D01*
X262676Y18427D01*
X262074Y17642D01*
X261695Y16728D01*
X261632Y16248D01*
X269185D01*
Y19536D01*
D02*
G37*
G36*
X277738Y15248D02*
X270185D01*
Y11960D01*
X274016D01*
X274996Y12089D01*
X275910Y12467D01*
X276694Y13069D01*
X277296Y13854D01*
X277675Y14768D01*
X277738Y15248D01*
D02*
G37*
G36*
X269185D02*
X261632D01*
X261695Y14768D01*
X262074Y13854D01*
X262676Y13069D01*
X263460Y12467D01*
X264374Y12089D01*
X265354Y11960D01*
X269185D01*
Y15248D01*
D02*
G37*
%LPD*%
G36*
X348653Y123799D02*
X348456Y123595D01*
X348144Y123229D01*
X348030Y123068D01*
X347944Y122921D01*
X347886Y122789D01*
X347856Y122671D01*
X347854Y122568D01*
X347880Y122479D01*
X347934Y122405D01*
X346545Y123781D01*
X346620Y123727D01*
X346709Y123702D01*
X346813Y123704D01*
X346931Y123734D01*
X347063Y123792D01*
X347210Y123878D01*
X347371Y123992D01*
X347546Y124133D01*
X347940Y124500D01*
X348653Y123799D01*
D02*
G37*
G36*
X354604Y123409D02*
X354538Y123504D01*
X354461Y123590D01*
X354371Y123664D01*
X354269Y123729D01*
X354154Y123784D01*
X354027Y123829D01*
X353888Y123864D01*
X353736Y123890D01*
X353572Y123904D01*
X353395Y123909D01*
Y124909D01*
X353572Y124915D01*
X353736Y124929D01*
X353888Y124954D01*
X354027Y124989D01*
X354154Y125034D01*
X354269Y125090D01*
X354371Y125154D01*
X354461Y125229D01*
X354538Y125314D01*
X354604Y125409D01*
Y123409D01*
D02*
G37*
G36*
X345669Y114015D02*
X345482Y114003D01*
X345315Y113951D01*
X345167Y113856D01*
X345039Y113720D01*
X344931Y113543D01*
X344843Y113324D01*
X344774Y113064D01*
X344724Y112762D01*
X344695Y112419D01*
X344685Y112034D01*
X344673D01*
X344673Y111996D01*
X341941D01*
X342089Y112016D01*
X342220Y112075D01*
X342337Y112173D01*
X342437Y112311D01*
X342523Y112488D01*
X342593Y112705D01*
X342647Y112960D01*
X342653Y113005D01*
X342646Y113087D01*
X342605Y113309D01*
X342557Y113516D01*
X342499Y113706D01*
X342432Y113879D01*
X342357Y114037D01*
X342272Y114178D01*
X345669Y114015D01*
D02*
G37*
G36*
X347913Y115743D02*
X347928Y115662D01*
X347979Y115553D01*
X348065Y115416D01*
X348188Y115250D01*
X348540Y114836D01*
X349177Y114171D01*
X351199Y114142D01*
X351089Y111522D01*
X350986Y111652D01*
X350860Y111768D01*
X350711Y111870D01*
X350539Y111959D01*
X350344Y112034D01*
X350126Y112095D01*
X349884Y112143D01*
X349620Y112177D01*
X349332Y112198D01*
X349021Y112205D01*
Y113686D01*
X347946Y112611D01*
X347640Y112912D01*
X346533Y113883D01*
X346396Y113970D01*
X346287Y114021D01*
X346206Y114036D01*
X346153Y114015D01*
X347934Y115796D01*
X347913Y115743D01*
D02*
G37*
G36*
X260306Y112383D02*
X259760Y111762D01*
X259539Y111469D01*
X259351Y111188D01*
X259198Y110919D01*
X259079Y110662D01*
X258993Y110417D01*
X258942Y110183D01*
X258925Y109961D01*
X257925D01*
X257908Y110183D01*
X257857Y110417D01*
X257772Y110662D01*
X257652Y110919D01*
X257499Y111188D01*
X257312Y111469D01*
X257090Y111762D01*
X256544Y112383D01*
X256221Y112711D01*
X260630D01*
X260306Y112383D01*
D02*
G37*
G36*
X252232Y99950D02*
X251985Y99696D01*
X251432Y99039D01*
X251309Y98853D01*
X251217Y98685D01*
X251156Y98534D01*
X251126Y98400D01*
X251127Y98282D01*
X251159Y98182D01*
X250205Y100033D01*
X250262Y99957D01*
X250338Y99915D01*
X250432Y99905D01*
X250545Y99928D01*
X250677Y99983D01*
X250828Y100071D01*
X250997Y100192D01*
X251186Y100346D01*
X251620Y100752D01*
X252232Y99950D01*
D02*
G37*
%LPC*%
G36*
X340657Y206452D02*
Y203256D01*
X343854D01*
X343605Y204184D01*
X343118Y205028D01*
X342429Y205717D01*
X341586Y206204D01*
X340657Y206452D01*
D02*
G37*
G36*
X339657Y206452D02*
X338729Y206204D01*
X337886Y205717D01*
X337197Y205028D01*
X336710Y204184D01*
X336461Y203256D01*
X339657D01*
Y206452D01*
D02*
G37*
G36*
X313677Y204520D02*
X309634D01*
Y200476D01*
X309732D01*
X310888Y200786D01*
X311924Y201384D01*
X312769Y202230D01*
X313368Y203266D01*
X313677Y204422D01*
Y204520D01*
D02*
G37*
G36*
X308634D02*
X304591D01*
Y204422D01*
X304900Y203266D01*
X305498Y202230D01*
X306344Y201384D01*
X307380Y200786D01*
X308536Y200476D01*
X308634D01*
Y204520D01*
D02*
G37*
G36*
X343854Y202256D02*
X340657D01*
Y199059D01*
X341586Y199308D01*
X342429Y199795D01*
X343118Y200484D01*
X343605Y201328D01*
X343854Y202256D01*
D02*
G37*
G36*
X339657D02*
X336461D01*
X336710Y201328D01*
X337197Y200484D01*
X337886Y199795D01*
X338729Y199308D01*
X339657Y199059D01*
Y202256D01*
D02*
G37*
G36*
X309732Y199563D02*
X309634D01*
Y195520D01*
X313677D01*
Y195618D01*
X313368Y196773D01*
X312769Y197809D01*
X311924Y198655D01*
X310888Y199253D01*
X309732Y199563D01*
D02*
G37*
G36*
X308634D02*
X308536D01*
X307380Y199253D01*
X306344Y198655D01*
X305498Y197809D01*
X304900Y196773D01*
X304591Y195618D01*
Y195520D01*
X308634D01*
Y199563D01*
D02*
G37*
G36*
X313677Y184520D02*
X309634D01*
Y180476D01*
X309732D01*
X310888Y180786D01*
X311924Y181384D01*
X312769Y182230D01*
X313368Y183266D01*
X313677Y184422D01*
Y184520D01*
D02*
G37*
G36*
X308634D02*
X304591D01*
Y184422D01*
X304900Y183266D01*
X305498Y182230D01*
X306344Y181384D01*
X307380Y180786D01*
X308536Y180476D01*
X308634D01*
Y184520D01*
D02*
G37*
G36*
X309732Y179563D02*
X309634D01*
Y175520D01*
X313677D01*
Y175618D01*
X313368Y176773D01*
X312769Y177809D01*
X311924Y178655D01*
X310888Y179253D01*
X309732Y179563D01*
D02*
G37*
G36*
X308634D02*
X308536D01*
X307380Y179253D01*
X306344Y178655D01*
X305498Y177809D01*
X304900Y176773D01*
X304591Y175618D01*
Y175520D01*
X308634D01*
Y179563D01*
D02*
G37*
G36*
X340657Y177319D02*
Y174122D01*
X343854D01*
X343605Y175050D01*
X343118Y175894D01*
X342429Y176583D01*
X341586Y177070D01*
X340657Y177319D01*
D02*
G37*
G36*
X339657Y177319D02*
X338729Y177070D01*
X337886Y176583D01*
X337197Y175894D01*
X336710Y175050D01*
X336461Y174122D01*
X339657D01*
Y177319D01*
D02*
G37*
G36*
X313677Y164520D02*
X309634D01*
Y160476D01*
X309732D01*
X310888Y160786D01*
X311924Y161384D01*
X312769Y162230D01*
X313368Y163266D01*
X313677Y164422D01*
Y164520D01*
D02*
G37*
G36*
X308634D02*
X304591D01*
Y164422D01*
X304900Y163266D01*
X305498Y162230D01*
X306344Y161384D01*
X307380Y160786D01*
X308536Y160476D01*
X308634D01*
Y164520D01*
D02*
G37*
G36*
X309732Y159563D02*
X309634D01*
Y155520D01*
X313677D01*
Y155618D01*
X313368Y156773D01*
X312769Y157809D01*
X311924Y158655D01*
X310888Y159253D01*
X309732Y159563D01*
D02*
G37*
G36*
X308634D02*
X308536D01*
X307380Y159253D01*
X306344Y158655D01*
X305498Y157809D01*
X304900Y156773D01*
X304591Y155618D01*
Y155520D01*
X308634D01*
Y159563D01*
D02*
G37*
G36*
X340657Y157634D02*
Y154437D01*
X343854D01*
X343605Y155365D01*
X343118Y156209D01*
X342429Y156898D01*
X341586Y157385D01*
X340657Y157634D01*
D02*
G37*
G36*
X339657D02*
X338729Y157385D01*
X337886Y156898D01*
X337197Y156209D01*
X336710Y155365D01*
X336461Y154437D01*
X339657D01*
Y157634D01*
D02*
G37*
G36*
X313677Y154520D02*
X309634D01*
Y150476D01*
X309732D01*
X310888Y150786D01*
X311924Y151384D01*
X312769Y152230D01*
X313368Y153266D01*
X313677Y154422D01*
Y154520D01*
D02*
G37*
G36*
X308634D02*
X304591D01*
Y154422D01*
X304900Y153266D01*
X305498Y152230D01*
X306344Y151384D01*
X307380Y150786D01*
X308536Y150476D01*
X308634D01*
Y154520D01*
D02*
G37*
G36*
X343854Y153437D02*
X340657D01*
Y150241D01*
X341586Y150489D01*
X342429Y150976D01*
X343118Y151665D01*
X343605Y152509D01*
X343854Y153437D01*
D02*
G37*
G36*
X339657D02*
X336461D01*
X336710Y152509D01*
X337197Y151665D01*
X337886Y150976D01*
X338729Y150489D01*
X339657Y150241D01*
Y153437D01*
D02*
G37*
G36*
X333965Y130498D02*
Y128059D01*
X336404D01*
X336231Y128705D01*
X335840Y129382D01*
X335287Y129935D01*
X334610Y130325D01*
X333965Y130498D01*
D02*
G37*
G36*
X332965D02*
X332319Y130325D01*
X331642Y129935D01*
X331089Y129382D01*
X330698Y128705D01*
X330525Y128059D01*
X332965D01*
Y130498D01*
D02*
G37*
G36*
X336404Y127059D02*
X333965D01*
Y124620D01*
X334610Y124793D01*
X335287Y125184D01*
X335840Y125736D01*
X336231Y126413D01*
X336404Y127059D01*
D02*
G37*
G36*
X332965D02*
X330525D01*
X330698Y126413D01*
X331089Y125736D01*
X331642Y125184D01*
X332319Y124793D01*
X332965Y124620D01*
Y127059D01*
D02*
G37*
G36*
X51840Y260728D02*
X50522D01*
X49229Y260471D01*
X48011Y259967D01*
X46915Y259234D01*
X45982Y258302D01*
X45250Y257206D01*
X44745Y255988D01*
X44488Y254695D01*
Y253376D01*
X44745Y252083D01*
X45250Y250865D01*
X45982Y249769D01*
X46915Y248837D01*
X48011Y248104D01*
X49229Y247600D01*
X50522Y247342D01*
X51840D01*
X53133Y247600D01*
X54351Y248104D01*
X55448Y248837D01*
X56380Y249769D01*
X57112Y250865D01*
X57617Y252083D01*
X57874Y253376D01*
Y254695D01*
X57617Y255988D01*
X57112Y257206D01*
X56380Y258302D01*
X55448Y259234D01*
X54351Y259967D01*
X53133Y260471D01*
X51840Y260728D01*
D02*
G37*
G36*
X24676Y261417D02*
X22569D01*
X20488Y261088D01*
X18484Y260437D01*
X16606Y259480D01*
X14902Y258242D01*
X13412Y256752D01*
X12173Y255047D01*
X11217Y253170D01*
X10566Y251166D01*
X10236Y249085D01*
Y246978D01*
X10566Y244897D01*
X11217Y242893D01*
X12173Y241016D01*
X13412Y239311D01*
X14902Y237821D01*
X16606Y236583D01*
X18484Y235626D01*
X20488Y234975D01*
X22569Y234646D01*
X24676D01*
X26757Y234975D01*
X28760Y235626D01*
X30638Y236583D01*
X32342Y237821D01*
X33832Y239311D01*
X35071Y241016D01*
X36027Y242893D01*
X36678Y244897D01*
X37008Y246978D01*
Y249085D01*
X36678Y251166D01*
X36027Y253170D01*
X35071Y255047D01*
X33832Y256752D01*
X32342Y258242D01*
X30638Y259480D01*
X28760Y260437D01*
X26757Y261088D01*
X24676Y261417D01*
D02*
G37*
G36*
X49704Y239350D02*
X48564D01*
X47462Y239055D01*
X46475Y238485D01*
X45668Y237679D01*
X45098Y236691D01*
X44803Y235590D01*
Y234450D01*
X45098Y233348D01*
X45668Y232361D01*
X46475Y231554D01*
X47462Y230984D01*
X48564Y230689D01*
X49704D01*
X50805Y230984D01*
X51793Y231554D01*
X52599Y232361D01*
X53169Y233348D01*
X53465Y234450D01*
Y235590D01*
X53169Y236691D01*
X52599Y237679D01*
X51793Y238485D01*
X50805Y239055D01*
X49704Y239350D01*
D02*
G37*
G36*
Y229350D02*
X48564D01*
X47462Y229055D01*
X46475Y228485D01*
X45668Y227679D01*
X45098Y226691D01*
X44803Y225590D01*
Y224450D01*
X45098Y223348D01*
X45668Y222361D01*
X46475Y221554D01*
X47462Y220984D01*
X48564Y220689D01*
X49704D01*
X50805Y220984D01*
X51793Y221554D01*
X52599Y222361D01*
X53169Y223348D01*
X53465Y224450D01*
Y225590D01*
X53169Y226691D01*
X52599Y227679D01*
X51793Y228485D01*
X50805Y229055D01*
X49704Y229350D01*
D02*
G37*
G36*
Y219350D02*
X48564D01*
X47462Y219055D01*
X46475Y218485D01*
X45668Y217679D01*
X45098Y216691D01*
X44803Y215590D01*
Y214450D01*
X45098Y213348D01*
X45668Y212361D01*
X46475Y211554D01*
X47462Y210984D01*
X48564Y210689D01*
X49704D01*
X50805Y210984D01*
X51793Y211554D01*
X52599Y212361D01*
X53169Y213348D01*
X53465Y214450D01*
Y215590D01*
X53169Y216691D01*
X52599Y217679D01*
X51793Y218485D01*
X50805Y219055D01*
X49704Y219350D01*
D02*
G37*
G36*
Y209350D02*
X48564D01*
X47462Y209055D01*
X46475Y208485D01*
X45668Y207679D01*
X45098Y206691D01*
X44803Y205590D01*
Y204450D01*
X45098Y203348D01*
X45668Y202361D01*
X46475Y201554D01*
X47462Y200984D01*
X48564Y200689D01*
X49704D01*
X50805Y200984D01*
X51793Y201554D01*
X52599Y202361D01*
X53169Y203348D01*
X53465Y204450D01*
Y205590D01*
X53169Y206691D01*
X52599Y207679D01*
X51793Y208485D01*
X50805Y209055D01*
X49704Y209350D01*
D02*
G37*
G36*
Y199350D02*
X48564D01*
X47462Y199055D01*
X46475Y198485D01*
X45668Y197679D01*
X45098Y196691D01*
X44803Y195590D01*
Y194450D01*
X45098Y193348D01*
X45668Y192361D01*
X46475Y191554D01*
X47462Y190984D01*
X48564Y190689D01*
X49704D01*
X50805Y190984D01*
X51793Y191554D01*
X52599Y192361D01*
X53169Y193348D01*
X53465Y194450D01*
Y195590D01*
X53169Y196691D01*
X52599Y197679D01*
X51793Y198485D01*
X50805Y199055D01*
X49704Y199350D01*
D02*
G37*
G36*
X316248Y99621D02*
Y96366D01*
X319502D01*
X319248Y97316D01*
X318754Y98172D01*
X318054Y98872D01*
X317198Y99366D01*
X316248Y99621D01*
D02*
G37*
G36*
X315248D02*
X314298Y99366D01*
X313442Y98872D01*
X312743Y98172D01*
X312248Y97316D01*
X311994Y96366D01*
X315248D01*
Y99621D01*
D02*
G37*
G36*
X347987Y96296D02*
X347941D01*
Y92646D01*
X351591D01*
Y92692D01*
X351308Y93748D01*
X350762Y94694D01*
X349989Y95467D01*
X349043Y96013D01*
X347987Y96296D01*
D02*
G37*
G36*
X346941D02*
X346895D01*
X345839Y96013D01*
X344893Y95467D01*
X344120Y94694D01*
X343574Y93748D01*
X343291Y92692D01*
Y92646D01*
X346941D01*
Y96296D01*
D02*
G37*
G36*
X315248Y95366D02*
X311994D01*
X312248Y94416D01*
X312743Y93560D01*
X313442Y92861D01*
X314298Y92366D01*
X315248Y92112D01*
Y95366D01*
D02*
G37*
G36*
X319502D02*
X316248D01*
Y92112D01*
X317198Y92366D01*
X318054Y92861D01*
X318754Y93560D01*
X319248Y94416D01*
X319502Y95366D01*
D02*
G37*
G36*
X288295Y91522D02*
Y89083D01*
X290735D01*
X290562Y89728D01*
X290171Y90405D01*
X289618Y90958D01*
X288941Y91349D01*
X288295Y91522D01*
D02*
G37*
G36*
X287295D02*
X286649Y91349D01*
X285973Y90958D01*
X285420Y90405D01*
X285029Y89728D01*
X284856Y89083D01*
X287295D01*
Y91522D01*
D02*
G37*
G36*
X351591Y91646D02*
X347941D01*
Y87996D01*
X347987D01*
X349043Y88279D01*
X349989Y88825D01*
X350762Y89597D01*
X351308Y90544D01*
X351591Y91599D01*
Y91646D01*
D02*
G37*
G36*
X346941D02*
X343291D01*
Y91599D01*
X343574Y90544D01*
X344120Y89597D01*
X344893Y88825D01*
X345839Y88279D01*
X346895Y87996D01*
X346941D01*
Y91646D01*
D02*
G37*
G36*
X290735Y88083D02*
X288295D01*
Y85643D01*
X288941Y85817D01*
X289618Y86207D01*
X290171Y86760D01*
X290562Y87437D01*
X290735Y88083D01*
D02*
G37*
G36*
X287295D02*
X284856D01*
X285029Y87437D01*
X285420Y86760D01*
X285973Y86207D01*
X286649Y85817D01*
X287295Y85643D01*
Y88083D01*
D02*
G37*
G36*
X252183Y70860D02*
X249283D01*
Y69260D01*
X252183D01*
Y70860D01*
D02*
G37*
G36*
Y68260D02*
X249283D01*
Y66660D01*
X252183D01*
Y68260D01*
D02*
G37*
G36*
Y58261D02*
X249283D01*
Y56661D01*
X252183D01*
Y58261D01*
D02*
G37*
G36*
Y55661D02*
X249283D01*
Y54061D01*
X252183D01*
Y55661D01*
D02*
G37*
G36*
X287508Y59632D02*
Y57193D01*
X289947D01*
X289774Y57839D01*
X289383Y58516D01*
X288831Y59068D01*
X288154Y59459D01*
X287508Y59632D01*
D02*
G37*
G36*
X286508D02*
X285862Y59459D01*
X285185Y59068D01*
X284632Y58516D01*
X284242Y57839D01*
X284069Y57193D01*
X286508D01*
Y59632D01*
D02*
G37*
G36*
X289947Y56193D02*
X287508D01*
Y53754D01*
X288154Y53927D01*
X288831Y54317D01*
X289383Y54870D01*
X289774Y55547D01*
X289947Y56193D01*
D02*
G37*
G36*
X286508D02*
X284069D01*
X284242Y55547D01*
X284632Y54870D01*
X285185Y54317D01*
X285862Y53927D01*
X286508Y53754D01*
Y56193D01*
D02*
G37*
G36*
X274016Y44143D02*
X270185D01*
Y40856D01*
X270346Y40856D01*
X271826Y40951D01*
X271952Y40980D01*
X272043Y41013D01*
X272099Y41051D01*
Y40854D01*
X277738D01*
X277675Y41335D01*
X277296Y42248D01*
X276778Y42925D01*
X276478Y42568D01*
X276354Y42383D01*
X276267Y42219D01*
X276218Y42074D01*
X276206Y41950D01*
X276232Y41846D01*
X276294Y41763D01*
X276395Y41699D01*
X273291Y43099D01*
X273420Y43066D01*
X273570Y43070D01*
X273742Y43113D01*
X273934Y43194D01*
X274149Y43314D01*
X274384Y43472D01*
X274641Y43669D01*
X275020Y44004D01*
X274996Y44014D01*
X274016Y44143D01*
D02*
G37*
%LPD*%
D13*
X82961Y35461D02*
Y36290D01*
X84929Y36302D02*
X85662Y35569D01*
Y35200D02*
Y35569D01*
X83182Y36511D02*
Y38556D01*
X84929Y36302D02*
Y38556D01*
X82961Y36290D02*
X83182Y36511D01*
X82700Y35200D02*
X82961Y35461D01*
X82596Y39142D02*
X83182Y38556D01*
X81555Y40138D02*
Y43150D01*
X84929Y38556D02*
X85514Y39142D01*
X85559D01*
X86555Y40138D01*
Y43150D01*
X82551Y39142D02*
X82596D01*
X81555Y40138D02*
X82551Y39142D01*
X220183Y85758D02*
X220783Y86358D01*
X214205Y83742D02*
X218792D01*
X220183Y85133D01*
X211295Y80832D02*
X214205Y83742D01*
X220783Y86358D02*
X222083D01*
X220183Y85133D02*
Y85758D01*
X231300Y31300D02*
X232677Y32677D01*
X231300Y21062D02*
X234252Y18110D01*
X231300Y21062D02*
Y31300D01*
X229528Y18110D02*
Y33858D01*
Y18110D02*
X234409Y13228D01*
X229528Y33858D02*
X233071Y37402D01*
X245200Y38412D02*
X251800Y31812D01*
X247638Y22047D02*
X250200Y24610D01*
Y30115D01*
X251800Y20304D02*
Y31812D01*
X247638Y16142D02*
X251800Y20304D01*
X243600Y36715D02*
X250200Y30115D01*
X245200Y38412D02*
Y46280D01*
X242000Y68277D02*
X246952Y73228D01*
X243600Y57278D02*
X247483Y61161D01*
X242000Y35953D02*
X247638Y30315D01*
X245200Y46280D02*
X247483Y48563D01*
X243600Y36715D02*
Y57278D01*
X242000Y35953D02*
Y68277D01*
X235827Y40157D02*
X240200Y44531D01*
Y70515D02*
X245669Y75984D01*
X240200Y44531D02*
Y70515D01*
X245669Y75984D02*
X256517D01*
X257305Y76772D01*
X257874D01*
X258600Y78292D02*
Y83920D01*
X256517Y76210D02*
X258600Y78292D01*
X259403Y73703D02*
X261173Y75473D01*
Y87473D01*
X256603Y73703D02*
X259403D01*
X262773Y72616D02*
Y86537D01*
X256546Y73760D02*
X256603Y73703D01*
X248783Y73760D02*
X256546D01*
X251862Y61704D02*
X262773Y72616D01*
X255512Y87008D02*
X258600Y83920D01*
X287523Y111287D02*
Y114059D01*
X262773Y86537D02*
X287523Y111287D01*
Y114059D02*
X288425Y114961D01*
X250083Y48563D02*
X264373Y62853D01*
Y85874D02*
X286767Y108268D01*
X264373Y62853D02*
Y85874D01*
X278425Y104725D02*
Y114567D01*
X261173Y87473D02*
X278425Y104725D01*
X286767Y108268D02*
X293307D01*
X247483Y61161D02*
X248783D01*
X249326Y61704D01*
X251862D01*
X271260Y62992D02*
X271498Y63230D01*
Y68039D01*
X272159Y68701D01*
X273799D01*
X266575Y40354D02*
X269685D01*
X272795D01*
X282894Y72441D02*
X287795D01*
X217413Y70169D02*
X220183Y72939D01*
Y73160D02*
X221383Y74360D01*
X224258D01*
X217413Y70169D02*
Y70169D01*
X220183Y72939D02*
Y73160D01*
X217220Y69976D02*
X217413Y70169D01*
X216826Y69976D02*
X217220D01*
X216826Y65118D02*
Y69976D01*
Y65118D02*
X220783Y61161D01*
X222083Y65084D02*
Y68760D01*
Y65084D02*
X222669Y64498D01*
X225770Y75872D02*
Y100590D01*
X224258Y74360D02*
X225770Y75872D01*
X220783Y80758D02*
X221383Y81358D01*
X222083D01*
X220783Y79074D02*
Y80758D01*
X217413Y75704D02*
X220783Y79074D01*
X298819Y67154D02*
X298988Y67323D01*
X298819Y67126D02*
Y67154D01*
X298988Y67323D02*
X300787D01*
X255118Y87008D02*
Y89764D01*
Y87008D02*
X255512D01*
X230949Y40157D02*
X235827D01*
X225315Y34523D02*
X230949Y40157D01*
X225315Y33228D02*
Y34523D01*
X248783Y81358D02*
X249507D01*
X255000Y81496D02*
X255118D01*
X254862Y81358D02*
X255000Y81496D01*
X249507Y81358D02*
X254862D01*
X249145Y80996D02*
X249507Y81358D01*
X248783D02*
X249145Y80996D01*
X247483Y48563D02*
X250083D01*
X293307Y108268D02*
X298425Y113386D01*
Y114567D01*
X249383Y99557D02*
X251132D01*
X258425Y106850D02*
Y114567D01*
X251132Y99557D02*
X258425Y106850D01*
X248783Y98957D02*
X249383Y99557D01*
X260630Y94488D02*
X261508Y95366D01*
X261902D01*
X268425Y101890D01*
Y114567D01*
X260630Y94095D02*
Y94488D01*
X254980Y93957D02*
X255118Y94095D01*
X248783Y93957D02*
X254980D01*
X246952Y73228D02*
X248783D01*
X345098Y122638D02*
X346791D01*
X348556Y124409D02*
X356299D01*
X346791Y122638D02*
X347453Y123299D01*
Y123306D01*
X348556Y124409D01*
X330709Y119291D02*
X330906Y119095D01*
X335807D01*
X336004Y118898D01*
X234252Y18110D02*
X240158D01*
X234409Y13228D02*
X235315D01*
X241339Y22441D02*
X242126Y21654D01*
X235315Y23228D02*
X236102Y22441D01*
X241339D01*
X240158Y18110D02*
X242126Y16142D01*
X240551Y29134D02*
Y34252D01*
X233071Y37402D02*
X237402D01*
X240551Y34252D01*
Y29134D02*
X242126Y27559D01*
Y27165D02*
Y27559D01*
X247638Y27165D02*
Y30315D01*
X247638Y21260D02*
Y22047D01*
X225315Y23228D02*
Y33228D01*
Y13228D02*
Y23228D01*
X242126Y15748D02*
Y16142D01*
X247638Y15748D02*
Y16142D01*
X320120Y243216D02*
X320998Y244094D01*
X316929Y239632D02*
X320120Y242823D01*
X316929Y208374D02*
Y239632D01*
X320998Y244094D02*
X321391D01*
X320120Y242823D02*
Y243216D01*
X318110Y243996D02*
Y246719D01*
X310630Y236516D02*
X318110Y243996D01*
Y246719D02*
X320998Y249606D01*
X321391D01*
Y254724D01*
X310630Y235039D02*
Y236516D01*
X222083Y43563D02*
X222221Y43701D01*
X226378D01*
X223383Y56161D02*
X225724Y53821D01*
Y53017D02*
X225984Y52756D01*
X225724Y53017D02*
Y53821D01*
X222083Y56161D02*
X223383D01*
X218375Y50971D02*
Y58754D01*
Y50971D02*
X220783Y48563D01*
X222083D01*
X218375Y58754D02*
X220783Y61161D01*
X222083D01*
X225590Y100770D02*
Y109252D01*
Y100770D02*
X225770Y100590D01*
X222669Y64498D02*
X228278D01*
X228346Y64567D01*
X211295Y56965D02*
Y80832D01*
X198031Y43701D02*
X211295Y56965D01*
X217413Y75681D02*
Y75704D01*
X216535Y74803D02*
X217413Y75681D01*
X216142Y74803D02*
X216535D01*
X219735Y99557D02*
X221483D01*
X222083Y98957D01*
X218371Y100920D02*
X219735Y99557D01*
X218371Y100920D02*
Y101314D01*
X218110Y101575D02*
X218371Y101314D01*
X219986Y90857D02*
X220183Y91053D01*
Y93369D01*
X220771Y93957D01*
X222083D01*
X219986Y90065D02*
Y90857D01*
X217413Y87492D02*
X219986Y90065D01*
X217413Y87098D02*
Y87492D01*
X216535Y86221D02*
X217413Y87098D01*
X216142Y86221D02*
X216535D01*
X216142Y69291D02*
X216826Y69976D01*
X121167Y23844D02*
X137544D01*
X142400Y28700D01*
X136820Y25591D02*
X141676Y30447D01*
X133789Y25591D02*
X136820D01*
X130162Y34753D02*
X164339D01*
X130886Y36500D02*
X164339D01*
X141676Y30447D02*
X177427D01*
X142400Y28700D02*
X176704D01*
X128400Y36515D02*
X130162Y34753D01*
X130300Y37086D02*
X130886Y36500D01*
X130300Y37086D02*
Y38883D01*
X131555Y40138D01*
X177427Y30447D02*
X183110Y24764D01*
X176704Y28700D02*
X179263Y26140D01*
Y17925D02*
Y26140D01*
X128400Y36515D02*
Y38556D01*
X131555Y40138D02*
Y43150D01*
X187831Y101610D02*
Y112969D01*
X185961Y99740D02*
X187831Y101610D01*
X181362Y99740D02*
X185961D01*
X178739Y102364D02*
Y106753D01*
Y102364D02*
X181362Y99740D01*
X158511Y102119D02*
X163386Y97244D01*
X177232Y95497D02*
X181102Y91627D01*
X156764Y101396D02*
X162662Y95497D01*
X179628Y85927D02*
X181102Y87402D01*
X163386Y97244D02*
X177956D01*
X180434Y94766D01*
X162662Y95497D02*
X177232D01*
X181102Y87402D02*
Y91627D01*
X119010Y125490D02*
X142015D01*
X169860D02*
X171132D01*
X169274Y124904D02*
X169860Y125490D01*
X169274Y124293D02*
Y124904D01*
X168838Y123857D02*
X169274Y124293D01*
X167529Y123857D02*
X168838D01*
X167093Y124293D02*
X167529Y123857D01*
X167093Y124293D02*
Y125053D01*
X166656Y125490D02*
X167093Y125053D01*
X165348Y125490D02*
X166656D01*
X164912Y125053D02*
X165348Y125490D01*
X164912Y124293D02*
Y125053D01*
X164475Y123857D02*
X164912Y124293D01*
X163167Y123857D02*
X164475D01*
X162731Y124293D02*
X163167Y123857D01*
X162731Y124293D02*
Y125053D01*
X162294Y125490D02*
X162731Y125053D01*
X160986Y125490D02*
X162294D01*
X160549Y125053D02*
X160986Y125490D01*
X160549Y124293D02*
Y125053D01*
X160113Y123857D02*
X160549Y124293D01*
X158805Y123857D02*
X160113D01*
X158368Y124293D02*
X158805Y123857D01*
X158368Y124293D02*
Y125053D01*
X157932Y125490D02*
X158368Y125053D01*
X156623Y125490D02*
X157932D01*
X156187Y125053D02*
X156623Y125490D01*
X156187Y124293D02*
Y125053D01*
X155751Y123857D02*
X156187Y124293D01*
X154442Y123857D02*
X155751D01*
X154006Y124293D02*
X154442Y123857D01*
X154006Y124293D02*
Y125053D01*
X153570Y125490D02*
X154006Y125053D01*
X152261Y125490D02*
X153570D01*
X151825Y125053D02*
X152261Y125490D01*
X151825Y124293D02*
Y125053D01*
X151389Y123857D02*
X151825Y124293D01*
X150080Y123857D02*
X151389D01*
X149644Y124293D02*
X150080Y123857D01*
X149644Y124293D02*
Y125053D01*
X149208Y125490D02*
X149644Y125053D01*
X147899Y125490D02*
X149208D01*
X147463Y125053D02*
X147899Y125490D01*
X147463Y124293D02*
Y125053D01*
X147027Y123857D02*
X147463Y124293D01*
X145718Y123857D02*
X147027D01*
X145282Y124293D02*
X145718Y123857D01*
X145282Y124293D02*
Y124904D01*
X144696Y125490D02*
X145282Y124904D01*
X142015Y125490D02*
X144696D01*
X171132D02*
X171446D01*
X180536Y117254D02*
Y117825D01*
X179510Y118851D02*
X180536Y117825D01*
X178682Y118851D02*
X179510D01*
X178579Y118748D02*
X178682Y118851D01*
X177962Y118748D02*
X178579D01*
X177036Y119674D02*
X177962Y118748D01*
X177036Y119674D02*
Y120291D01*
X177245Y120499D01*
Y121116D01*
X176320Y122042D02*
X177245Y121116D01*
X175703Y122042D02*
X176320D01*
X175494Y121833D02*
X175703Y122042D01*
X174877Y121833D02*
X175494D01*
X173952Y122758D02*
X174877Y121833D01*
X173952Y122758D02*
Y123375D01*
X174055Y123478D01*
Y124306D01*
X172872Y125490D02*
X174055Y124306D01*
X171446Y125490D02*
X172872D01*
X180536Y116895D02*
Y117254D01*
X162042Y118110D02*
X164615D01*
X161457Y117525D02*
X162042Y118110D01*
X161457Y114259D02*
Y117525D01*
X161021Y113822D02*
X161457Y114259D01*
X159712Y113822D02*
X161021D01*
X159276Y114259D02*
X159712Y113822D01*
X159276Y114259D02*
Y117674D01*
X158839Y118110D02*
X159276Y117674D01*
X157531Y118110D02*
X158839D01*
X157095Y117674D02*
X157531Y118110D01*
X157095Y114259D02*
Y117674D01*
X156658Y113822D02*
X157095Y114259D01*
X155350Y113822D02*
X156658D01*
X154913Y114259D02*
X155350Y113822D01*
X154913Y114259D02*
Y117674D01*
X154477Y118110D02*
X154913Y117674D01*
X153169Y118110D02*
X154477D01*
X152732Y117674D02*
X153169Y118110D01*
X152732Y114259D02*
Y117674D01*
X152296Y113822D02*
X152732Y114259D01*
X150987Y113822D02*
X152296D01*
X150551Y114259D02*
X150987Y113822D01*
X150551Y114259D02*
Y117674D01*
X150115Y118110D02*
X150551Y117674D01*
X148806Y118110D02*
X150115D01*
X148370Y117674D02*
X148806Y118110D01*
X148370Y114259D02*
Y117674D01*
X147934Y113822D02*
X148370Y114259D01*
X146625Y113822D02*
X147934D01*
X146189Y114259D02*
X146625Y113822D01*
X146189Y114259D02*
Y117525D01*
X145603Y118110D02*
X146189Y117525D01*
X142922Y118110D02*
X145603D01*
X164615D02*
X170472D01*
X142683D02*
X142922D01*
X115147Y113748D02*
X115647Y114248D01*
Y114248D01*
X117561Y116161D01*
X119836D01*
X121445Y114552D01*
Y114551D02*
Y114552D01*
Y114551D02*
X121882Y114115D01*
X123190D01*
X123626Y114551D01*
Y119346D01*
X125086Y120805D01*
X127842D01*
X129302Y119346D01*
Y114478D02*
Y119346D01*
Y114478D02*
X129738Y114042D01*
X131046D01*
X131483Y114478D01*
Y120030D01*
X132942Y121490D01*
X135698D01*
X137158Y120030D01*
Y113930D02*
Y120030D01*
Y113930D02*
X137594Y113494D01*
X138903D01*
X139339Y113930D01*
Y118248D01*
X140948Y119857D01*
X142683D01*
Y119857D02*
Y119857D01*
X115147Y111277D02*
X115147Y111277D01*
X115147Y111277D02*
X116883Y113012D01*
X116883D01*
X118284Y114414D01*
X119113D01*
X119698Y113828D01*
Y113828D02*
Y113828D01*
Y113828D02*
X121158Y112368D01*
X123914D01*
X125373Y113828D01*
Y118622D01*
X125810Y119058D01*
X127118D01*
X127555Y118622D01*
Y113754D02*
Y118622D01*
Y113754D02*
X129014Y112295D01*
X131770D01*
X133230Y113754D01*
Y119307D01*
X133666Y119743D01*
X134975D01*
X135411Y119307D01*
Y113207D02*
Y119307D01*
Y113207D02*
X136870Y111747D01*
X139626D01*
X141086Y113207D01*
Y117525D01*
X141672Y118110D01*
X142683D01*
Y119857D02*
X171196D01*
X180406Y84234D02*
X182849Y86678D01*
Y87137D01*
X183435Y87723D01*
X185358D01*
X185794Y88159D01*
Y89468D01*
X185358Y89904D02*
X185794Y89468D01*
X183285Y89904D02*
X185358D01*
X182849Y90340D02*
X183285Y89904D01*
X182849Y90340D02*
Y91649D01*
X183285Y92085D01*
X185358D01*
X185794Y92521D01*
Y93830D01*
X185358Y94266D02*
X185794Y93830D01*
X180934Y94266D02*
X185358D01*
X180434Y94766D02*
X180934Y94266D01*
X179628Y83456D02*
X180406Y84234D01*
X179464Y83292D02*
X179628Y83456D01*
X175324Y83292D02*
X179464D01*
X171970Y90698D02*
X173279D01*
X173715Y90262D01*
X171534D02*
X171970Y90698D01*
X171534Y82894D02*
Y90262D01*
X173715Y84901D02*
Y90262D01*
Y84901D02*
X175324Y83292D01*
X170074Y81434D02*
X171534Y82894D01*
X163602Y103740D02*
Y103740D01*
X160821Y106521D02*
X163602Y103740D01*
X159277Y106521D02*
X160821D01*
X158511Y105755D02*
X159277Y106521D01*
X132717Y106000D02*
X145968D01*
X132131Y105414D02*
X132717Y106000D01*
X158511Y102119D02*
Y105755D01*
X132131Y100733D02*
Y105414D01*
X131555Y100157D02*
X132131Y100733D01*
X165422Y90698D02*
X165859Y90262D01*
X164114Y90698D02*
X165422D01*
X165859Y82894D02*
X167318Y81434D01*
X170074D01*
X165859Y82894D02*
Y90262D01*
X155905Y92805D02*
Y96063D01*
Y92805D02*
X158781Y89929D01*
X145968Y106000D02*
X155905Y96063D01*
X159925Y88785D02*
X162201D01*
X164114Y90698D01*
X158781Y89929D02*
X159925Y88785D01*
X174002Y92445D02*
X175462Y90985D01*
X179628Y85927D02*
X179628Y85927D01*
X166146Y92445D02*
X167606Y90985D01*
X171246Y92445D02*
X174002D01*
X169787Y90985D02*
X171246Y92445D01*
X175462Y85625D02*
X176048Y85039D01*
X178740D02*
X179628Y85927D01*
X175462Y85625D02*
Y90985D01*
X176048Y85039D02*
X178740D01*
X169351Y83181D02*
X169787Y83617D01*
Y90985D01*
X167606Y83617D02*
Y90985D01*
X168042Y83181D02*
X169351D01*
X167606Y83617D02*
X168042Y83181D01*
X158553Y108268D02*
X163130D01*
X168602Y113740D01*
X156764Y106478D02*
X158553Y108268D01*
X156764Y101396D02*
Y106478D01*
X146692Y107747D02*
X157652Y96787D01*
X131133Y107747D02*
X146692D01*
X126555Y103169D02*
X131133Y107747D01*
X126555Y100157D02*
Y103169D01*
X161477Y90532D02*
X163390Y92445D01*
X166146D01*
X160649Y90532D02*
X161477D01*
X157652Y93529D02*
X158781Y92400D01*
X157652Y93529D02*
Y96787D01*
X158781Y92400D02*
X160649Y90532D01*
X158781Y92400D02*
X158781Y92400D01*
X129863Y25591D02*
X133789D01*
X129277Y26176D02*
X129863Y25591D01*
X129277Y26176D02*
Y27480D01*
X128841Y27916D02*
X129277Y27480D01*
X127532Y27916D02*
X128841D01*
X127096Y27480D02*
X127532Y27916D01*
X127096Y26027D02*
Y27480D01*
X126660Y25591D02*
X127096Y26027D01*
X125351Y25591D02*
X126660D01*
X124915Y26027D02*
X125351Y25591D01*
X124915Y26027D02*
Y27480D01*
X124479Y27916D02*
X124915Y27480D01*
X123170Y27916D02*
X124479D01*
X122734Y27480D02*
X123170Y27916D01*
X122734Y26176D02*
Y27480D01*
X122148Y25591D02*
X122734Y26176D01*
X121648Y25591D02*
X122148D01*
X121167D02*
X121648D01*
X103604Y30667D02*
X105339Y28932D01*
X105339D01*
X108552Y25719D01*
X109380D01*
X109966Y26304D01*
Y29081D01*
X111426Y30541D01*
X114181D01*
X115641Y29081D01*
Y26176D02*
Y29081D01*
Y26176D02*
X116227Y25591D01*
X121167D01*
Y25591D02*
Y25591D01*
X103604Y28196D02*
X103604Y28196D01*
X104104Y27696D01*
Y27696D02*
Y27696D01*
Y27696D02*
X107828Y23972D01*
X110104D01*
X111713Y25581D01*
Y28358D01*
X112149Y28794D01*
X113458D01*
X113894Y28358D01*
Y25453D02*
Y28358D01*
Y25453D02*
X115503Y23844D01*
X121167D01*
X99929Y34342D02*
X103604Y30667D01*
X98182Y33618D02*
X103604Y28196D01*
X191374Y34753D02*
Y34753D01*
X187186Y34753D02*
X191374D01*
X185577Y36362D02*
X187186Y34753D01*
X185577Y36362D02*
Y39049D01*
X185141Y39485D02*
X185577Y39049D01*
X183832Y39485D02*
X185141D01*
X183396Y39049D02*
X183832Y39485D01*
X183396Y35765D02*
Y39049D01*
X181936Y34305D02*
X183396Y35765D01*
X179180Y34305D02*
X181936D01*
X177721Y35765D02*
X179180Y34305D01*
X177721Y35765D02*
Y39049D01*
X177284Y39485D02*
X177721Y39049D01*
X175976Y39485D02*
X177284D01*
X175540Y39049D02*
X175976Y39485D01*
X175540Y35906D02*
Y39049D01*
X174080Y34447D02*
X175540Y35906D01*
X171324Y34447D02*
X174080D01*
X169864Y35906D02*
X171324Y34447D01*
X169864Y35906D02*
Y39049D01*
X169428Y39485D02*
X169864Y39049D01*
X168120Y39485D02*
X169428D01*
X167683Y39049D02*
X168120Y39485D01*
X167683Y36362D02*
Y39049D01*
X166074Y34753D02*
X167683Y36362D01*
X164339Y34753D02*
X166074D01*
X164339D02*
Y34753D01*
X187909Y36500D02*
X191374D01*
X187324Y37086D02*
X187909Y36500D01*
X187324Y37086D02*
Y39772D01*
X185864Y41232D02*
X187324Y39772D01*
X183108Y41232D02*
X185864D01*
X181649Y39772D02*
X183108Y41232D01*
X181649Y36488D02*
Y39772D01*
X181212Y36052D02*
X181649Y36488D01*
X179904Y36052D02*
X181212D01*
X179468Y36488D02*
X179904Y36052D01*
X179468Y36488D02*
Y39772D01*
X178008Y41232D02*
X179468Y39772D01*
X175252Y41232D02*
X178008D01*
X173793Y39772D02*
X175252Y41232D01*
X173793Y36630D02*
Y39772D01*
X173356Y36194D02*
X173793Y36630D01*
X172048Y36194D02*
X173356D01*
X171611Y36630D02*
X172048Y36194D01*
X171611Y36630D02*
Y39772D01*
X170152Y41232D02*
X171611Y39772D01*
X167396Y41232D02*
X170152D01*
X165936Y39772D02*
X167396Y41232D01*
X165936Y37086D02*
Y39772D01*
X165351Y36500D02*
X165936Y37086D01*
X164339Y36500D02*
X165351D01*
X191374Y34753D02*
X192806D01*
X191374Y36500D02*
X193530D01*
X195299Y26378D02*
Y29243D01*
X194713Y29829D02*
X195299Y29243D01*
X193116Y29829D02*
X194713D01*
X192680Y30265D02*
X193116Y29829D01*
X192680Y30265D02*
Y31573D01*
X193116Y32010D01*
X193550D01*
X194135Y32595D01*
Y33424D01*
X192868Y34691D02*
X194135Y33424D01*
X192806Y34753D02*
X192868Y34691D01*
X195299Y24194D02*
Y26378D01*
X194713Y23608D02*
X195299Y24194D01*
X193530Y36500D02*
X197046Y32983D01*
X175611Y106582D02*
Y107410D01*
X173602Y103740D02*
Y104573D01*
X174409Y111082D02*
X178739Y106753D01*
X173602Y104573D02*
X175611Y106582D01*
X172662Y110359D02*
X175611Y107410D01*
X113182Y111782D02*
X115147Y113748D01*
X114929Y111058D02*
X115147Y111277D01*
X170472Y118110D02*
X172662Y115920D01*
X98182Y106040D02*
X98182D01*
X98182D02*
Y111676D01*
X100516Y114010D01*
Y114839D01*
X99968Y115386D02*
X100516Y114839D01*
X99968Y115386D02*
Y117450D01*
X101917Y119399D01*
X103981D01*
X108018Y115362D01*
X108635D01*
X109560Y116288D01*
Y116905D01*
X104893Y121572D02*
X109560Y116905D01*
X104893Y121572D02*
Y123636D01*
X106842Y125585D01*
X108906D01*
X113573Y120918D01*
X114190D01*
X115115Y121843D01*
Y122460D01*
X114224Y123352D02*
X115115Y122460D01*
X114224Y123352D02*
Y125628D01*
X115833Y127237D01*
X117263D01*
Y127237D02*
Y127237D01*
X99929Y104293D02*
Y110952D01*
X102263Y113287D01*
Y115562D01*
X101715Y116110D02*
X102263Y115562D01*
X101715Y116110D02*
Y116727D01*
X102641Y117652D01*
X103258D01*
X107294Y113616D01*
X109359D01*
X111307Y115564D01*
Y117628D01*
X106640Y122296D02*
X111307Y117628D01*
X106640Y122296D02*
Y122913D01*
X107565Y123838D01*
X108182D01*
X112850Y119171D01*
X114914D01*
X116862Y121119D01*
Y123183D01*
X115970Y124075D02*
X116862Y123183D01*
X115970Y124075D02*
Y124904D01*
X116556Y125490D01*
X119010D01*
X98182Y103964D02*
Y106040D01*
X99929Y103964D02*
Y104293D01*
X106113Y132984D02*
X179359D01*
X83292Y110163D02*
X106113Y132984D01*
X83292Y103964D02*
Y110163D01*
X85039Y109439D02*
X106837Y131237D01*
X178635D01*
X85039Y103898D02*
Y109439D01*
X117263Y127237D02*
X173595D01*
X113182Y103964D02*
Y111782D01*
X173595Y127237D02*
X182739Y118093D01*
X179359Y132984D02*
X189361Y122982D01*
X178635Y131237D02*
X187614Y122258D01*
X182739Y104603D02*
Y118093D01*
X178602Y114961D02*
X180536Y116895D01*
X178602Y113740D02*
Y114961D01*
X182739Y104603D02*
X183602Y103740D01*
X187831Y112969D02*
X188602Y113740D01*
X171196Y119857D02*
X174409Y116644D01*
X126555Y40138D02*
X127551Y39142D01*
X126555Y40138D02*
Y43150D01*
X127551Y39142D02*
X127814D01*
X128400Y38556D01*
X98182Y33618D02*
Y38432D01*
X99929Y34342D02*
Y38511D01*
X115900Y37200D02*
X116161Y37461D01*
X111778Y36922D02*
X112000Y36700D01*
X116061Y42655D02*
X116161Y42555D01*
X111778Y36922D02*
Y42927D01*
X116161Y37461D02*
Y42555D01*
X111555Y43150D02*
X111778Y42927D01*
X116061Y42655D02*
X116555Y43150D01*
X190963Y118908D02*
X194079Y115793D01*
X187614Y122258D02*
X190963Y118908D01*
X195728Y116614D02*
X195734Y116608D01*
X195728Y116614D02*
X195728D01*
X195381Y116962D02*
X195728Y116614D01*
X194923Y117419D02*
X195381Y116962D01*
X194923Y117419D02*
Y118248D01*
X195671Y118996D01*
Y119613D01*
X194746Y120538D02*
X195671Y119613D01*
X194129Y120538D02*
X194746D01*
X193381Y119790D02*
X194129Y120538D01*
X192552Y119790D02*
X193381D01*
X192552Y119790D02*
X192552Y119790D01*
X192199Y120144D02*
X192552Y119790D01*
X195734Y116608D02*
X198602Y113740D01*
X189361Y122982D02*
X192199Y120144D01*
X189361Y122982D02*
Y122982D01*
X197046Y23471D02*
Y32983D01*
X194903Y18010D02*
X195158Y17756D01*
X191142Y24764D02*
X192309D01*
X193465Y23608D01*
X194903Y18010D02*
Y21328D01*
X193465Y23608D02*
X194713D01*
X194903Y21328D02*
X197046Y23471D01*
X114929Y103964D02*
Y111058D01*
Y103964D02*
X115514Y103378D01*
X97551Y39063D02*
Y42153D01*
Y39063D02*
X98182Y38432D01*
X96555Y43150D02*
X97551Y42153D01*
X179095Y17756D02*
X179263Y17925D01*
X99929Y38511D02*
X101555Y40138D01*
Y43150D01*
X112596Y103378D02*
X113182Y103964D01*
X111555Y100157D02*
Y102382D01*
X112551Y103378D01*
X112596D01*
X174409Y111082D02*
Y116644D01*
X115514Y103378D02*
X115559D01*
X116555Y102382D01*
Y100157D02*
Y102382D01*
X172662Y110359D02*
Y115920D01*
X213083Y78043D02*
X215748Y80709D01*
X213083Y71957D02*
Y78043D01*
Y71957D02*
X215748Y69291D01*
Y80709D02*
X216142D01*
X82707Y103378D02*
X83292Y103964D01*
X82551Y103378D02*
X82707D01*
X81555Y102382D02*
X82551Y103378D01*
X81555Y100157D02*
Y102382D01*
X193602Y103740D02*
X194079Y104217D01*
Y115793D01*
X187614Y122258D02*
Y122258D01*
X85039Y103898D02*
X86555Y102382D01*
Y100157D02*
Y102382D01*
X99929Y103964D02*
X100514Y103378D01*
X100559D01*
X101555Y102382D01*
Y100157D02*
Y102382D01*
X97596Y103378D02*
X98182Y103964D01*
X97551Y103378D02*
X97596D01*
X96555Y102382D02*
X97551Y103378D01*
X96555Y100157D02*
Y102382D01*
X317323Y119882D02*
Y119909D01*
X317154Y120079D02*
X317323Y119909D01*
X314173Y120079D02*
X317154D01*
X34449Y175020D02*
Y182264D01*
X44370Y189784D02*
X49134Y185020D01*
X34449Y189784D02*
X44370D01*
D15*
X71274Y14961D02*
X143988D01*
X60138Y23524D02*
X62697D01*
X59055Y24606D02*
Y24803D01*
Y24606D02*
X60138Y23524D01*
X62697D02*
X68504Y17717D01*
X68518D01*
X71274Y14961D01*
X143988D02*
X149094Y20067D01*
Y21772D02*
X150300Y20566D01*
X224508Y111319D02*
X225590Y110236D01*
X222539Y111319D02*
X224508D01*
X195276Y138583D02*
X222539Y111319D01*
X66142Y138583D02*
X195276D01*
X49887Y154837D02*
X66142Y138583D01*
X68504Y77953D02*
Y84252D01*
X60827Y52362D02*
Y54528D01*
X42199Y57750D02*
X57604D01*
X60827Y54528D01*
X36836Y62771D02*
X39788D01*
X40354Y62205D01*
Y59596D02*
Y62205D01*
Y59596D02*
X42199Y57750D01*
X198670Y144095D02*
X220760Y122005D01*
X70472Y144095D02*
X198670D01*
X58071Y156496D02*
X70472Y144095D01*
X225590Y109252D02*
Y110236D01*
X220760Y122005D02*
X224508D01*
X225590Y120922D01*
Y120079D02*
Y120922D01*
X44291Y23819D02*
X44488Y23622D01*
X44291Y46457D02*
Y52362D01*
Y40551D02*
Y46457D01*
Y34646D02*
Y40551D01*
Y23819D02*
Y34646D01*
X58071Y156496D02*
Y169291D01*
X49887Y154837D02*
Y164266D01*
X49134Y165020D02*
X49887Y164266D01*
X53096Y174266D02*
X58071Y169291D01*
X49887Y174266D02*
X53096D01*
X49134Y175020D02*
X49887Y174266D01*
X49075Y164961D02*
X49134Y165020D01*
X20669Y151181D02*
Y157480D01*
X32480Y151181D02*
Y157874D01*
Y137402D02*
Y144095D01*
X32480Y137402D02*
X32480D01*
X20669Y137402D02*
Y144095D01*
X50197Y46457D02*
X55315D01*
X50197Y52362D02*
X55315D01*
X50197Y40551D02*
X55315D01*
X50197Y34646D02*
X55315D01*
D17*
X267717Y82480D02*
D03*
Y76575D02*
D03*
X352756Y118701D02*
D03*
Y112795D02*
D03*
X77165Y113583D02*
D03*
Y107677D02*
D03*
X72047Y113583D02*
D03*
Y107677D02*
D03*
X66929Y113583D02*
D03*
Y107677D02*
D03*
X61811Y113583D02*
D03*
Y107677D02*
D03*
D18*
X281102Y82677D02*
D03*
X275590D02*
D03*
X337795Y110236D02*
D03*
X343307D02*
D03*
X255118Y94095D02*
D03*
X260630D02*
D03*
X60827Y52362D02*
D03*
X55315D02*
D03*
X60827Y46457D02*
D03*
X55315D02*
D03*
X60827Y40551D02*
D03*
X55315D02*
D03*
X60827Y34646D02*
D03*
X55315D02*
D03*
X247638Y27165D02*
D03*
X242126D02*
D03*
X247638Y21654D02*
D03*
X242126D02*
D03*
X247638Y15748D02*
D03*
X242126D02*
D03*
D19*
X273799Y76181D02*
D03*
Y72441D02*
D03*
Y68701D02*
D03*
X282894D02*
D03*
Y72441D02*
D03*
Y76181D02*
D03*
X345098Y115157D02*
D03*
Y118898D02*
D03*
Y122638D02*
D03*
X336004D02*
D03*
Y118898D02*
D03*
Y115157D02*
D03*
D20*
X321161Y113012D02*
D03*
D03*
D03*
D03*
X294980Y73996D02*
D03*
D03*
D03*
D03*
D21*
X322441Y118898D02*
D03*
D03*
D03*
X293701Y68110D02*
D03*
D03*
D03*
D22*
X317323Y119882D02*
D03*
X319882D02*
D03*
X322441D02*
D03*
X325000D02*
D03*
X291142Y67126D02*
D03*
X293701D02*
D03*
X296260D02*
D03*
X298819D02*
D03*
D23*
X317323Y108071D02*
D03*
X319882D02*
D03*
X322441D02*
D03*
X325000D02*
D03*
X291142Y78937D02*
D03*
X293701D02*
D03*
X296260D02*
D03*
X298819D02*
D03*
D24*
X338189Y135433D02*
D03*
X353937D02*
D03*
X294488Y42913D02*
D03*
X310236D02*
D03*
D25*
X324803Y137169D02*
D03*
Y126610D02*
D03*
D26*
X321391Y254724D02*
D03*
Y260236D02*
D03*
Y249606D02*
D03*
Y244094D02*
D03*
X255118Y87008D02*
D03*
Y81496D02*
D03*
X216142Y69291D02*
D03*
Y74803D02*
D03*
Y80709D02*
D03*
Y86221D02*
D03*
X77165Y117913D02*
D03*
Y123425D02*
D03*
X72047Y117913D02*
D03*
Y123425D02*
D03*
X66929Y117913D02*
D03*
Y123425D02*
D03*
X61811Y117913D02*
D03*
Y123425D02*
D03*
D27*
X307248Y55905D02*
D03*
X296689D02*
D03*
D28*
X248783Y48563D02*
D03*
Y43563D02*
D03*
X222083D02*
D03*
Y48563D02*
D03*
X248783Y61161D02*
D03*
Y56161D02*
D03*
X222083D02*
D03*
Y61161D02*
D03*
X248783Y73760D02*
D03*
Y68760D02*
D03*
X222083D02*
D03*
Y73760D02*
D03*
Y81358D02*
D03*
Y86358D02*
D03*
X248783D02*
D03*
Y81358D02*
D03*
X222083Y93957D02*
D03*
Y98957D02*
D03*
X248783D02*
D03*
Y93957D02*
D03*
D29*
X225590Y120079D02*
D03*
X238976D02*
D03*
X225590Y109252D02*
D03*
X238976D02*
D03*
X59055Y25591D02*
D03*
X45669D02*
D03*
D30*
X44291Y52362D02*
D03*
X50197D02*
D03*
X44291Y46457D02*
D03*
X50197D02*
D03*
X44291Y40551D02*
D03*
X50197D02*
D03*
X44291Y34646D02*
D03*
X50197D02*
D03*
D31*
X136555Y43150D02*
D03*
X131555D02*
D03*
X126555D02*
D03*
X121555D02*
D03*
X116555D02*
D03*
X111555D02*
D03*
X106555D02*
D03*
X101555D02*
D03*
X96555D02*
D03*
X91555D02*
D03*
X86555D02*
D03*
X81555D02*
D03*
Y100157D02*
D03*
X86555D02*
D03*
X91555D02*
D03*
X96555D02*
D03*
X101555D02*
D03*
X106555D02*
D03*
X111555D02*
D03*
X116555D02*
D03*
X121555D02*
D03*
X126555D02*
D03*
X131555D02*
D03*
X136555D02*
D03*
D32*
X68504Y84252D02*
D03*
Y97638D02*
D03*
D33*
X21850Y63976D02*
D03*
X6102D02*
D03*
X21850Y77165D02*
D03*
X6102D02*
D03*
Y90354D02*
D03*
X21850D02*
D03*
X37008Y63976D02*
D03*
X52756D02*
D03*
X37008Y77165D02*
D03*
X52756D02*
D03*
X52756Y90354D02*
D03*
X37008D02*
D03*
X52756Y103543D02*
D03*
X37008D02*
D03*
X6102D02*
D03*
X21850D02*
D03*
X17717Y120079D02*
D03*
X33465D02*
D03*
D34*
X20669Y144095D02*
D03*
Y151181D02*
D03*
Y130315D02*
D03*
Y137402D02*
D03*
X32480Y130315D02*
D03*
Y137402D02*
D03*
X32480Y144095D02*
D03*
Y151181D02*
D03*
Y157874D02*
D03*
Y164961D02*
D03*
X20669Y157480D02*
D03*
Y164567D02*
D03*
D35*
X34449Y189784D02*
D03*
Y182264D02*
D03*
D37*
X275590Y225020D02*
D03*
Y164173D02*
D03*
D44*
X356299Y124409D02*
D03*
X287795Y88583D02*
D03*
X271260Y62992D02*
D03*
X257874Y76772D02*
D03*
X333465Y127559D02*
D03*
X325197Y64961D02*
D03*
X287008Y56693D02*
D03*
D67*
X206004Y62598D02*
D03*
X195965D02*
D03*
X166240D02*
D03*
X156201D02*
D03*
D72*
X298425Y114961D02*
D03*
X288425D02*
D03*
X258425D02*
D03*
X268425D02*
D03*
X278425D02*
D03*
D81*
X87402Y164173D02*
D03*
D82*
X151181Y228740D02*
D03*
D83*
X263386Y43544D02*
X266575Y40354D01*
X272795D02*
X276378Y43937D01*
X274193Y76181D02*
X275413D01*
X275590Y76358D02*
Y82677D01*
X275413Y76181D02*
X275590Y76358D01*
X273622D02*
X273799Y76181D01*
X267933Y76358D02*
X273622D01*
X267717Y76575D02*
X267933Y76358D01*
X348760Y113189D02*
X352362D01*
X352756Y112795D01*
X346791Y115157D02*
X348760Y113189D01*
X343878Y115157D02*
X346791D01*
X343701Y114980D02*
X343878Y115157D01*
X343701Y110630D02*
Y114980D01*
X343307Y110236D02*
X343701Y110630D01*
X77165Y127559D02*
X77165Y127559D01*
Y123425D02*
Y127559D01*
X72047Y123425D02*
Y127559D01*
X72047Y127559D02*
X72047Y127559D01*
X66929Y123425D02*
Y127559D01*
X66929Y127559D02*
X66929Y127559D01*
X61811Y127559D02*
X61811Y127559D01*
Y123425D02*
Y127559D01*
X69291Y107677D02*
X72047D01*
X66929D02*
X69291D01*
X68898Y97244D02*
X69291Y97638D01*
Y107677D01*
X76968D02*
X77165Y107480D01*
X72047Y107677D02*
X76968D01*
X61811D02*
X66929D01*
X91657Y92989D02*
Y98350D01*
Y92989D02*
X91732Y92913D01*
X91657Y98350D02*
X91732Y98425D01*
X136933Y93382D02*
Y97956D01*
Y93382D02*
X137008Y93307D01*
X136933Y97956D02*
X137008Y98032D01*
X121555Y93012D02*
X121653Y92913D01*
X121555Y93012D02*
Y100157D01*
X106375Y92989D02*
Y97169D01*
X106299Y97244D02*
X106375Y97169D01*
D84*
X150300Y20566D02*
X150328Y20538D01*
D85*
X121653Y43248D02*
Y52682D01*
X117808Y56528D02*
X121653Y52682D01*
X121555Y43150D02*
X121653Y43248D01*
X117808Y56528D02*
Y56601D01*
X115748Y58661D02*
X117808Y56601D01*
X67323Y37705D02*
X80011Y50394D01*
X91240Y43465D02*
Y49010D01*
X89856Y50394D02*
X91240Y49010D01*
X80011Y50394D02*
X89856D01*
X106352Y51831D02*
X106555D01*
X103852Y54331D02*
X106352Y51831D01*
X76378Y54331D02*
X103852D01*
X63189Y41142D02*
X76378Y54331D01*
X62008Y46654D02*
X74016Y58661D01*
X115748D01*
X61713Y53642D02*
X70669Y62598D01*
X120894D02*
X136240Y47252D01*
X70669Y62598D02*
X120894D01*
X61024Y52953D02*
X61713Y53642D01*
X60827Y52756D02*
X61024Y52953D01*
X61024D01*
X60827Y52362D02*
Y52756D01*
X61024Y46654D02*
Y46654D01*
X60827Y46457D02*
X61024Y46654D01*
Y46654D02*
X62008D01*
X67083Y37008D02*
X67323D01*
Y37705D01*
X64721Y34646D02*
X67083Y37008D01*
X60827Y34646D02*
X64721D01*
X60827Y40945D02*
X61024Y41142D01*
X60827Y40551D02*
Y40945D01*
X61024Y41142D02*
X63189D01*
X105925Y51831D02*
X106555Y51201D01*
Y43150D02*
Y51201D01*
X91240Y43465D02*
X91555Y43150D01*
X136240Y43465D02*
X136555Y43150D01*
X136240Y43465D02*
Y47252D01*
D86*
X77165Y113583D02*
Y117913D01*
X66929Y113583D02*
Y117913D01*
X72047Y113583D02*
Y117913D01*
X61811Y113583D02*
Y117913D01*
D87*
X21850Y103543D02*
X37008D01*
X52756Y90748D02*
Y103543D01*
Y90748D02*
X53150Y90354D01*
X50787Y103937D02*
X51181Y103543D01*
X36614Y119685D02*
X50787Y105512D01*
Y103937D02*
Y105512D01*
X51181Y103543D02*
X52756D01*
X37008Y103543D02*
X37008Y103543D01*
X33267Y119685D02*
X36614D01*
X21850Y77165D02*
X37008D01*
X22047Y90551D02*
X36811D01*
X21850Y103543D02*
X21850Y103543D01*
X52756Y63976D02*
Y77165D01*
Y90354D01*
X52756Y63976D02*
X52756Y63976D01*
X52756Y90354D02*
X52756Y90354D01*
X36811Y90551D02*
X37008Y90354D01*
X37008Y77165D02*
X37008Y77165D01*
X23031Y63976D02*
X37008D01*
X21850D02*
X23031D01*
X32480Y120473D02*
X33267Y119685D01*
X6102Y90354D02*
Y103543D01*
X8071Y103937D02*
Y108465D01*
X15748Y116142D01*
X7677Y103543D02*
X8071Y103937D01*
X6102Y77559D02*
Y90354D01*
Y103543D02*
X7677D01*
X21850Y77165D02*
X21850Y77165D01*
X21850Y90354D02*
X22047Y90551D01*
X6102Y77559D02*
X6496Y77165D01*
X6102Y63976D02*
Y77165D01*
X16142Y120079D02*
X19291D01*
X15748Y119685D02*
X16142Y120079D01*
X15748Y116142D02*
Y119685D01*
X32480Y128532D02*
Y130315D01*
X19685Y120473D02*
Y129331D01*
X19291Y120079D02*
X19685Y120473D01*
X32480D02*
Y128532D01*
D88*
X21063Y164961D02*
Y167913D01*
X28169Y175020D01*
X34449D01*
X49134D01*
X32480Y164961D02*
X49075D01*
D89*
X274606Y225197D02*
D03*
X277362Y163386D02*
D03*
D90*
X49134Y235020D02*
D03*
Y225020D02*
D03*
Y215020D02*
D03*
Y205020D02*
D03*
Y195020D02*
D03*
Y185020D02*
D03*
Y175020D02*
D03*
Y165020D02*
D03*
X309134Y235020D02*
D03*
Y225020D02*
D03*
Y215020D02*
D03*
Y205020D02*
D03*
Y195020D02*
D03*
Y185020D02*
D03*
Y175020D02*
D03*
Y165020D02*
D03*
Y155020D02*
D03*
D91*
X288583Y28543D02*
D03*
D92*
X269685Y15748D02*
D03*
Y40354D02*
D03*
D93*
X347441Y77146D02*
D03*
Y92146D02*
D03*
D94*
X315748Y82087D02*
D03*
Y95866D02*
D03*
X168602Y113740D02*
D03*
X173602Y103740D02*
D03*
X178602Y113740D02*
D03*
X183602Y103740D02*
D03*
X188602Y113740D02*
D03*
X193602Y103740D02*
D03*
X198602Y113740D02*
D03*
X163602Y103740D02*
D03*
D95*
X340158Y153937D02*
D03*
Y173622D02*
D03*
Y222441D02*
D03*
Y202756D02*
D03*
D96*
X235315Y13228D02*
D03*
X225315D02*
D03*
X235315Y23228D02*
D03*
X225315D02*
D03*
X235315Y33228D02*
D03*
X225315D02*
D03*
D97*
X248425Y114961D02*
D03*
D98*
X212264Y93898D02*
D03*
X149941D02*
D03*
D99*
X213110Y21772D02*
D03*
X149094D02*
D03*
D100*
X208110Y43701D02*
D03*
X199094D02*
D03*
X163110D02*
D03*
X154095D02*
D03*
X167047Y24764D02*
D03*
X175079D02*
D03*
X183110D02*
D03*
X191142D02*
D03*
X171063Y17756D02*
D03*
X179095D02*
D03*
X187126D02*
D03*
X195158D02*
D03*
D101*
X338583Y39370D02*
D03*
X23622D02*
D03*
X338583Y248031D02*
D03*
X23622D02*
D03*
D102*
X82700Y35200D02*
D03*
X85662D02*
D03*
X79921Y31496D02*
D03*
X301969Y81496D02*
D03*
Y76772D02*
D03*
X244882Y105512D02*
D03*
X248819Y52362D02*
D03*
Y64961D02*
D03*
X254331Y68898D02*
D03*
Y43701D02*
D03*
X257480Y62205D02*
D03*
X261417Y67716D02*
D03*
X254331Y57480D02*
D03*
X238583Y74803D02*
D03*
Y80709D02*
D03*
Y86614D02*
D03*
Y92126D02*
D03*
Y97244D02*
D03*
Y102362D02*
D03*
X268110Y68898D02*
D03*
Y72441D02*
D03*
X271260Y79528D02*
D03*
X272047Y82677D02*
D03*
X270079Y86614D02*
D03*
X357087Y255906D02*
D03*
Y238583D02*
D03*
X352756Y229922D02*
D03*
X357087Y221260D02*
D03*
X352756Y212599D02*
D03*
X357087Y203937D02*
D03*
X352756Y195276D02*
D03*
X357087Y186614D02*
D03*
X352756Y177953D02*
D03*
X357087Y169292D02*
D03*
X352756Y160630D02*
D03*
X357087Y151969D02*
D03*
X352756Y143307D02*
D03*
X357087Y117323D02*
D03*
X352756Y108662D02*
D03*
X357087Y82677D02*
D03*
X352756Y74016D02*
D03*
X357087Y65355D02*
D03*
X352756Y56693D02*
D03*
X357087Y48032D02*
D03*
Y30709D02*
D03*
X352756Y22047D02*
D03*
X357087Y13386D02*
D03*
X352756Y4725D02*
D03*
X344095Y229922D02*
D03*
X348425Y221260D02*
D03*
X344095Y212599D02*
D03*
X348425Y169292D02*
D03*
X344095Y160630D02*
D03*
X348425Y151969D02*
D03*
X344095Y125985D02*
D03*
X348425Y82677D02*
D03*
Y65355D02*
D03*
X344095Y56693D02*
D03*
Y22047D02*
D03*
X348425Y13386D02*
D03*
X344095Y4725D02*
D03*
X335433Y229922D02*
D03*
Y74016D02*
D03*
X339764Y65355D02*
D03*
X335433Y56693D02*
D03*
Y22047D02*
D03*
X339764Y13386D02*
D03*
X335433Y4725D02*
D03*
X326772Y229922D02*
D03*
X331102Y221260D02*
D03*
X326772Y143307D02*
D03*
X331102Y65355D02*
D03*
X326772Y56693D02*
D03*
Y22047D02*
D03*
X331102Y13386D02*
D03*
X326772Y4725D02*
D03*
X322441Y238583D02*
D03*
Y221260D02*
D03*
X318110Y143307D02*
D03*
Y56693D02*
D03*
X322441Y48032D02*
D03*
X318110Y39370D02*
D03*
X322441Y30709D02*
D03*
X318110Y22047D02*
D03*
X322441Y13386D02*
D03*
X318110Y4725D02*
D03*
X313780Y221260D02*
D03*
X309449Y143307D02*
D03*
Y125985D02*
D03*
X313780Y65355D02*
D03*
Y30709D02*
D03*
X309449Y22047D02*
D03*
X313780Y13386D02*
D03*
X309449Y4725D02*
D03*
X300787Y247244D02*
D03*
Y229922D02*
D03*
Y212599D02*
D03*
Y195276D02*
D03*
Y177953D02*
D03*
Y160630D02*
D03*
Y143307D02*
D03*
Y125985D02*
D03*
X305118Y65355D02*
D03*
Y30709D02*
D03*
X300787Y22047D02*
D03*
X305118Y13386D02*
D03*
X300787Y4725D02*
D03*
X296457Y255906D02*
D03*
X292126Y247244D02*
D03*
X296457Y238583D02*
D03*
X292126Y229922D02*
D03*
X296457Y221260D02*
D03*
X292126Y212599D02*
D03*
X296457Y203937D02*
D03*
X292126Y195276D02*
D03*
X296457Y186614D02*
D03*
Y169292D02*
D03*
Y151969D02*
D03*
Y134646D02*
D03*
Y30709D02*
D03*
Y13386D02*
D03*
X292126Y4725D02*
D03*
X287795Y255906D02*
D03*
X283465Y247244D02*
D03*
X287795Y203937D02*
D03*
X283465Y195276D02*
D03*
X287795Y186614D02*
D03*
X283465Y143307D02*
D03*
X287795Y134646D02*
D03*
X283465Y125985D02*
D03*
Y22047D02*
D03*
X287795Y13386D02*
D03*
X283465Y4725D02*
D03*
X279134Y255906D02*
D03*
X274803Y247244D02*
D03*
X279134Y203937D02*
D03*
X274803Y195276D02*
D03*
X279134Y186614D02*
D03*
X274803Y143307D02*
D03*
X279134Y134646D02*
D03*
X274803Y125985D02*
D03*
Y108662D02*
D03*
X279134Y30709D02*
D03*
X274803Y22047D02*
D03*
X279134Y13386D02*
D03*
X274803Y4725D02*
D03*
X270473Y255906D02*
D03*
X266142Y247244D02*
D03*
X270473Y203937D02*
D03*
X266142Y195276D02*
D03*
X270473Y186614D02*
D03*
X266142Y143307D02*
D03*
X270473Y134646D02*
D03*
X266142Y125985D02*
D03*
X270473Y30709D02*
D03*
X266142Y22047D02*
D03*
Y4725D02*
D03*
X261811Y255906D02*
D03*
X257480Y247244D02*
D03*
Y229922D02*
D03*
Y212599D02*
D03*
X261811Y203937D02*
D03*
X257480Y195276D02*
D03*
X261811Y186614D02*
D03*
X257480Y177953D02*
D03*
Y160630D02*
D03*
Y143307D02*
D03*
X261811Y134646D02*
D03*
X257480Y125985D02*
D03*
X261811Y100000D02*
D03*
X257480Y39370D02*
D03*
X261811Y30709D02*
D03*
X257480Y22047D02*
D03*
Y4725D02*
D03*
X253150Y255906D02*
D03*
X248819Y247244D02*
D03*
X253150Y238583D02*
D03*
X248819Y229922D02*
D03*
X253150Y221260D02*
D03*
X248819Y212599D02*
D03*
X253150Y203937D02*
D03*
X248819Y195276D02*
D03*
X253150Y186614D02*
D03*
X248819Y177953D02*
D03*
X253150Y169292D02*
D03*
X248819Y160630D02*
D03*
X253150Y151969D02*
D03*
X248819Y143307D02*
D03*
X253150Y134646D02*
D03*
X248819Y125985D02*
D03*
Y108662D02*
D03*
Y39370D02*
D03*
X253150Y13386D02*
D03*
X248819Y4725D02*
D03*
X244488Y255906D02*
D03*
X240158Y247244D02*
D03*
X244488Y238583D02*
D03*
X240158Y229922D02*
D03*
X244488Y221260D02*
D03*
X240158Y212599D02*
D03*
X244488Y203937D02*
D03*
X240158Y195276D02*
D03*
X244488Y186614D02*
D03*
X240158Y177953D02*
D03*
X244488Y169292D02*
D03*
X240158Y160630D02*
D03*
X244488Y151969D02*
D03*
X240158Y143307D02*
D03*
X244488Y134646D02*
D03*
X240158Y125985D02*
D03*
Y4725D02*
D03*
X287795Y72441D02*
D03*
X300787Y67323D02*
D03*
X255118Y89764D02*
D03*
X327279Y86685D02*
D03*
X323780Y93685D02*
D03*
X313280Y100685D02*
D03*
X302755Y106299D02*
D03*
X302780Y93685D02*
D03*
X226378Y43701D02*
D03*
X225984Y52756D02*
D03*
X128279Y14685D02*
D03*
X141779Y5685D02*
D03*
X137279Y14685D02*
D03*
X337779Y93685D02*
D03*
X330780Y107685D02*
D03*
X334279Y100685D02*
D03*
X330780Y93685D02*
D03*
X334279Y86685D02*
D03*
X327279Y100685D02*
D03*
X320280D02*
D03*
X309780Y107685D02*
D03*
Y93685D02*
D03*
X306279Y100685D02*
D03*
Y86685D02*
D03*
X295779Y93685D02*
D03*
X299279Y86685D02*
D03*
X288779Y93685D02*
D03*
X292280Y86685D02*
D03*
X288779Y79685D02*
D03*
X164567Y11417D02*
D03*
X174016Y10236D02*
D03*
X181496D02*
D03*
X190551D02*
D03*
X204331Y17717D02*
D03*
X156299Y19685D02*
D03*
X92279Y14685D02*
D03*
X83280D02*
D03*
X101279D02*
D03*
X110280D02*
D03*
X119280D02*
D03*
X74279D02*
D03*
X147244Y41732D02*
D03*
X213386Y30315D02*
D03*
X212992Y37008D02*
D03*
X203150Y37402D02*
D03*
X120079Y36614D02*
D03*
X107874Y35827D02*
D03*
X89370D02*
D03*
X77953Y36220D02*
D03*
X192126Y41732D02*
D03*
X186221Y45276D02*
D03*
X181496D02*
D03*
X176378D02*
D03*
X171653D02*
D03*
X209279Y32685D02*
D03*
X204780Y23685D02*
D03*
X195780Y5685D02*
D03*
X186779D02*
D03*
X177779D02*
D03*
X168780D02*
D03*
X132780D02*
D03*
X123779D02*
D03*
X114779D02*
D03*
X105780D02*
D03*
X96780D02*
D03*
X87779D02*
D03*
X78780Y23685D02*
D03*
Y5685D02*
D03*
X74279Y32685D02*
D03*
X69779Y23685D02*
D03*
Y5685D02*
D03*
X112000Y36700D02*
D03*
X115900Y37200D02*
D03*
X216535Y248032D02*
D03*
Y228346D02*
D03*
Y208662D02*
D03*
Y188976D02*
D03*
Y169291D02*
D03*
Y149606D02*
D03*
X211614Y257874D02*
D03*
X206693Y248032D02*
D03*
X211614Y238189D02*
D03*
X206693Y228346D02*
D03*
X211614Y218504D02*
D03*
X206693Y208662D02*
D03*
X211614Y198819D02*
D03*
X206693Y188976D02*
D03*
X211614Y179134D02*
D03*
X206693Y169291D02*
D03*
X211614Y159449D02*
D03*
X201772Y257874D02*
D03*
X196850Y248032D02*
D03*
X201772Y238189D02*
D03*
X196850Y228346D02*
D03*
X201772Y218504D02*
D03*
X196850Y208662D02*
D03*
X201772Y198819D02*
D03*
X196850Y188976D02*
D03*
X201772Y179134D02*
D03*
X196850Y169291D02*
D03*
X201772Y159449D02*
D03*
X191929Y257874D02*
D03*
X187008Y248032D02*
D03*
X191929Y238189D02*
D03*
X187008Y228346D02*
D03*
X191929Y218504D02*
D03*
X187008Y208662D02*
D03*
X191929Y198819D02*
D03*
X187008Y188976D02*
D03*
X191929Y179134D02*
D03*
X182087Y257874D02*
D03*
X177165Y248032D02*
D03*
X182087Y238189D02*
D03*
X177165Y228346D02*
D03*
X182087Y218504D02*
D03*
X177165Y208662D02*
D03*
X182087Y198819D02*
D03*
X177165Y188976D02*
D03*
X182087Y179134D02*
D03*
Y159449D02*
D03*
X172244Y257874D02*
D03*
X167323Y248032D02*
D03*
X172244Y238189D02*
D03*
Y218504D02*
D03*
X167323Y208662D02*
D03*
X172244Y198819D02*
D03*
X167323Y169291D02*
D03*
X172244Y159449D02*
D03*
X162402Y257874D02*
D03*
X157480Y248032D02*
D03*
Y208662D02*
D03*
X162402Y198819D02*
D03*
Y179134D02*
D03*
X157480Y169291D02*
D03*
X162402Y159449D02*
D03*
X152559Y257874D02*
D03*
X147638Y248032D02*
D03*
Y188976D02*
D03*
X152559Y179134D02*
D03*
X147638Y169291D02*
D03*
X152559Y159449D02*
D03*
X142717Y257874D02*
D03*
X137795Y248032D02*
D03*
Y188976D02*
D03*
X142717Y179134D02*
D03*
X137795Y169291D02*
D03*
X142717Y159449D02*
D03*
X132874Y257874D02*
D03*
X127953Y248032D02*
D03*
X132874Y238189D02*
D03*
X127953Y228346D02*
D03*
X132874Y218504D02*
D03*
X127953Y188976D02*
D03*
X132874Y179134D02*
D03*
X127953Y169291D02*
D03*
X132874Y159449D02*
D03*
X123031Y257874D02*
D03*
X118110Y248032D02*
D03*
X123031Y238189D02*
D03*
X118110Y228346D02*
D03*
X123031Y218504D02*
D03*
X118110Y188976D02*
D03*
X123031Y179134D02*
D03*
X118110Y169291D02*
D03*
X123031Y159449D02*
D03*
X113189Y257874D02*
D03*
X108268Y248032D02*
D03*
X113189Y238189D02*
D03*
X108268Y228346D02*
D03*
X113189Y218504D02*
D03*
X108268Y188976D02*
D03*
X113189Y179134D02*
D03*
X108268Y169291D02*
D03*
X113189Y159449D02*
D03*
X103346Y257874D02*
D03*
X98425Y248032D02*
D03*
X103346Y238189D02*
D03*
X98425Y228346D02*
D03*
X103346Y218504D02*
D03*
X98425Y188976D02*
D03*
X93504Y257874D02*
D03*
X88583Y248032D02*
D03*
X93504Y238189D02*
D03*
X88583Y228346D02*
D03*
X93504Y218504D02*
D03*
X88583Y188976D02*
D03*
X83661Y257874D02*
D03*
X78740Y248032D02*
D03*
X83661Y238189D02*
D03*
X78740Y228346D02*
D03*
X83661Y218504D02*
D03*
X78740Y188976D02*
D03*
X73819Y257874D02*
D03*
X68898Y248032D02*
D03*
X73819Y238189D02*
D03*
X68898Y228346D02*
D03*
X73819Y218504D02*
D03*
X68898Y188976D02*
D03*
Y169291D02*
D03*
X63976Y257874D02*
D03*
X59055Y248032D02*
D03*
X63976Y238189D02*
D03*
X59055Y228346D02*
D03*
X63976Y218504D02*
D03*
X59055Y188976D02*
D03*
X63976Y179134D02*
D03*
X39370Y228346D02*
D03*
Y208662D02*
D03*
X29528Y228346D02*
D03*
X34449Y218504D02*
D03*
X29528Y208662D02*
D03*
X34449Y198819D02*
D03*
X19685Y228346D02*
D03*
X24606Y218504D02*
D03*
X19685Y208662D02*
D03*
X24606Y198819D02*
D03*
X19685Y188976D02*
D03*
X9843Y228346D02*
D03*
X14764Y218504D02*
D03*
X9843Y208662D02*
D03*
X14764Y198819D02*
D03*
X9843Y188976D02*
D03*
X14764Y179134D02*
D03*
X9843Y169291D02*
D03*
Y149606D02*
D03*
Y129921D02*
D03*
X77165Y127559D02*
D03*
X72047D02*
D03*
X66929D02*
D03*
X61811D02*
D03*
X91732Y92913D02*
D03*
X137008Y93307D02*
D03*
X121653Y92913D02*
D03*
X106299D02*
D03*
X228346Y64567D02*
D03*
X218110Y101575D02*
D03*
X330709Y119291D02*
D03*
X220760Y122005D02*
D03*
X314173Y120079D02*
D03*
D103*
X266929Y172835D02*
D03*
X270472D02*
D03*
X274016D02*
D03*
X277559D02*
D03*
X281102D02*
D03*
X284646D02*
D03*
X266929Y169291D02*
D03*
X270472D02*
D03*
X274016D02*
D03*
X277559D02*
D03*
X281102D02*
D03*
X284646D02*
D03*
X266929Y165748D02*
D03*
X270472D02*
D03*
X274016D02*
D03*
X277559D02*
D03*
X281102D02*
D03*
X284646D02*
D03*
X266929Y162205D02*
D03*
X270472D02*
D03*
X274016D02*
D03*
X277559D02*
D03*
X281102D02*
D03*
X284646D02*
D03*
X266929Y158661D02*
D03*
X270472D02*
D03*
X274016D02*
D03*
X277559D02*
D03*
X281102D02*
D03*
X284646D02*
D03*
Y155118D02*
D03*
X281102D02*
D03*
X277559D02*
D03*
X274016D02*
D03*
X270472D02*
D03*
X266929D02*
D03*
Y233858D02*
D03*
X270472D02*
D03*
X274016D02*
D03*
X277559D02*
D03*
X281102D02*
D03*
X284646D02*
D03*
X266929Y230315D02*
D03*
X270472D02*
D03*
X274016D02*
D03*
X277559D02*
D03*
X281102D02*
D03*
X284646D02*
D03*
X266929Y226772D02*
D03*
X270472D02*
D03*
X274016D02*
D03*
X277559D02*
D03*
X281102D02*
D03*
X284646D02*
D03*
X266929Y223228D02*
D03*
X270472D02*
D03*
X274016D02*
D03*
X277559D02*
D03*
X281102D02*
D03*
X284646D02*
D03*
X266929Y219685D02*
D03*
X270472D02*
D03*
X274016D02*
D03*
X277559D02*
D03*
X281102D02*
D03*
X284646D02*
D03*
Y216142D02*
D03*
X281102D02*
D03*
X277559D02*
D03*
X274016D02*
D03*
X270472D02*
D03*
X266929D02*
D03*
X78740Y173228D02*
D03*
X82284D02*
D03*
X85827D02*
D03*
X89370D02*
D03*
X92913D02*
D03*
X96457D02*
D03*
X78740Y169685D02*
D03*
X82284D02*
D03*
X85827D02*
D03*
X89370D02*
D03*
X92913D02*
D03*
X96457D02*
D03*
X78740Y166142D02*
D03*
X82284D02*
D03*
X85827D02*
D03*
X89370D02*
D03*
X92913D02*
D03*
X96457D02*
D03*
X78740Y162599D02*
D03*
X82284D02*
D03*
X85827D02*
D03*
X89370D02*
D03*
X92913D02*
D03*
X96457D02*
D03*
X78740Y159055D02*
D03*
X82284D02*
D03*
X85827D02*
D03*
X89370D02*
D03*
X92913D02*
D03*
X96457D02*
D03*
Y155512D02*
D03*
X92913D02*
D03*
X89370D02*
D03*
X85827D02*
D03*
X82284D02*
D03*
X78740D02*
D03*
X142520Y237402D02*
D03*
X146063D02*
D03*
X149606D02*
D03*
X153150D02*
D03*
X156693D02*
D03*
X160236D02*
D03*
X142520Y233858D02*
D03*
X146063D02*
D03*
X149606D02*
D03*
X153150D02*
D03*
X156693D02*
D03*
X160236D02*
D03*
X142520Y230315D02*
D03*
X146063D02*
D03*
X149606D02*
D03*
X153150D02*
D03*
X156693D02*
D03*
X160236D02*
D03*
X142520Y226772D02*
D03*
X146063D02*
D03*
X149606D02*
D03*
X153150D02*
D03*
X156693D02*
D03*
X160236D02*
D03*
X142520Y223228D02*
D03*
X146063D02*
D03*
X149606D02*
D03*
X153150D02*
D03*
X156693D02*
D03*
X160236D02*
D03*
Y219685D02*
D03*
X156693D02*
D03*
X153150D02*
D03*
X149606D02*
D03*
X146063D02*
D03*
X142520D02*
D03*
D104*
X68504Y17717D02*
D03*
Y77953D02*
D03*
X121653Y51968D02*
D03*
X29528Y103543D02*
D03*
X67323Y37008D02*
D03*
X106555Y51831D02*
D03*
X29528Y77165D02*
D03*
Y90551D02*
D03*
X342913Y184252D02*
D03*
X337008D02*
D03*
M02*
