G04*
G04 #@! TF.GenerationSoftware,Altium Limited,Altium Designer,21.9.2 (33)*
G04*
G04 Layer_Color=8388736*
%FSLAX25Y25*%
%MOIN*%
G70*
G04*
G04 #@! TF.SameCoordinates,80A4DF04-3760-4FDC-88BC-B7D41CF879F5*
G04*
G04*
G04 #@! TF.FilePolarity,Negative*
G04*
G01*
G75*
%ADD24R,0.01200X0.03600*%
%ADD34R,0.10642X0.07493*%
%ADD35R,0.11863X0.08359*%
%ADD36R,0.30328X0.29206*%
%ADD37R,0.29147X0.25210*%
%ADD38R,0.29147X0.25210*%
%ADD39R,0.03792X0.09816*%
G04:AMPARAMS|DCode=40|XSize=80.83mil|YSize=61.15mil|CornerRadius=10.64mil|HoleSize=0mil|Usage=FLASHONLY|Rotation=180.000|XOffset=0mil|YOffset=0mil|HoleType=Round|Shape=RoundedRectangle|*
%AMROUNDEDRECTD40*
21,1,0.08083,0.03986,0,0,180.0*
21,1,0.05955,0.06115,0,0,180.0*
1,1,0.02129,-0.02977,0.01993*
1,1,0.02129,0.02977,0.01993*
1,1,0.02129,0.02977,-0.01993*
1,1,0.02129,-0.02977,-0.01993*
%
%ADD40ROUNDEDRECTD40*%
%ADD41R,0.12217X0.05918*%
%ADD42R,0.10642X0.07493*%
%ADD43R,0.04422X0.06233*%
G04:AMPARAMS|DCode=44|XSize=55.64mil|YSize=30.84mil|CornerRadius=6.85mil|HoleSize=0mil|Usage=FLASHONLY|Rotation=180.000|XOffset=0mil|YOffset=0mil|HoleType=Round|Shape=RoundedRectangle|*
%AMROUNDEDRECTD44*
21,1,0.05564,0.01713,0,0,180.0*
21,1,0.04193,0.03084,0,0,180.0*
1,1,0.01371,-0.02097,0.00856*
1,1,0.01371,0.02097,0.00856*
1,1,0.01371,0.02097,-0.00856*
1,1,0.01371,-0.02097,-0.00856*
%
%ADD44ROUNDEDRECTD44*%
G04:AMPARAMS|DCode=45|XSize=43.43mil|YSize=35.56mil|CornerRadius=7.45mil|HoleSize=0mil|Usage=FLASHONLY|Rotation=180.000|XOffset=0mil|YOffset=0mil|HoleType=Round|Shape=RoundedRectangle|*
%AMROUNDEDRECTD45*
21,1,0.04343,0.02067,0,0,180.0*
21,1,0.02854,0.03556,0,0,180.0*
1,1,0.01489,-0.01427,0.01034*
1,1,0.01489,0.01427,0.01034*
1,1,0.01489,0.01427,-0.01034*
1,1,0.01489,-0.01427,-0.01034*
%
%ADD45ROUNDEDRECTD45*%
%ADD46R,0.04343X0.03556*%
%ADD47C,0.04331*%
%ADD48R,0.05272X0.02672*%
G04:AMPARAMS|DCode=49|XSize=39.37mil|YSize=31.5mil|CornerRadius=8.86mil|HoleSize=0mil|Usage=FLASHONLY|Rotation=180.000|XOffset=0mil|YOffset=0mil|HoleType=Round|Shape=RoundedRectangle|*
%AMROUNDEDRECTD49*
21,1,0.03937,0.01378,0,0,180.0*
21,1,0.02165,0.03150,0,0,180.0*
1,1,0.01772,-0.01083,0.00689*
1,1,0.01772,0.01083,0.00689*
1,1,0.01772,0.01083,-0.00689*
1,1,0.01772,-0.01083,-0.00689*
%
%ADD49ROUNDEDRECTD49*%
%ADD50R,0.03556X0.04343*%
G04:AMPARAMS|DCode=51|XSize=43.43mil|YSize=35.56mil|CornerRadius=7.45mil|HoleSize=0mil|Usage=FLASHONLY|Rotation=90.000|XOffset=0mil|YOffset=0mil|HoleType=Round|Shape=RoundedRectangle|*
%AMROUNDEDRECTD51*
21,1,0.04343,0.02067,0,0,90.0*
21,1,0.02854,0.03556,0,0,90.0*
1,1,0.01489,0.01034,0.01427*
1,1,0.01489,0.01034,-0.01427*
1,1,0.01489,-0.01034,-0.01427*
1,1,0.01489,-0.01034,0.01427*
%
%ADD51ROUNDEDRECTD51*%
G04:AMPARAMS|DCode=52|XSize=39.37mil|YSize=31.5mil|CornerRadius=8.86mil|HoleSize=0mil|Usage=FLASHONLY|Rotation=90.000|XOffset=0mil|YOffset=0mil|HoleType=Round|Shape=RoundedRectangle|*
%AMROUNDEDRECTD52*
21,1,0.03937,0.01378,0,0,90.0*
21,1,0.02165,0.03150,0,0,90.0*
1,1,0.01772,0.00689,0.01083*
1,1,0.01772,0.00689,-0.01083*
1,1,0.01772,-0.00689,-0.01083*
1,1,0.01772,-0.00689,0.01083*
%
%ADD52ROUNDEDRECTD52*%
%ADD53C,0.03937*%
G04:AMPARAMS|DCode=54|XSize=80.83mil|YSize=61.15mil|CornerRadius=10.64mil|HoleSize=0mil|Usage=FLASHONLY|Rotation=90.000|XOffset=0mil|YOffset=0mil|HoleType=Round|Shape=RoundedRectangle|*
%AMROUNDEDRECTD54*
21,1,0.08083,0.03986,0,0,90.0*
21,1,0.05955,0.06115,0,0,90.0*
1,1,0.02129,0.01993,0.02977*
1,1,0.02129,0.01993,-0.02977*
1,1,0.02129,-0.01993,-0.02977*
1,1,0.02129,-0.01993,0.02977*
%
%ADD54ROUNDEDRECTD54*%
%ADD55C,0.10249*%
%ADD56C,0.06115*%
%ADD57C,0.00800*%
%ADD58O,0.16548X0.07887*%
%ADD59O,0.07887X0.14580*%
%ADD60O,0.15761X0.07887*%
%ADD61C,0.07887*%
%ADD62C,0.06200*%
%ADD63O,0.06312X0.06800*%
%ADD64C,0.24422*%
%ADD65C,0.07099*%
%ADD66R,0.07099X0.07099*%
%ADD67C,0.07493*%
%ADD68R,0.07099X0.07099*%
%ADD69C,0.06312*%
%ADD70O,0.08674X0.10249*%
%ADD71C,0.03202*%
%ADD72C,0.05394*%
%ADD73C,0.02756*%
G36*
X299195Y80878D02*
X288995D01*
Y73178D01*
X299195D01*
Y80878D01*
D02*
G37*
G36*
X341258Y132901D02*
X351458D01*
Y140601D01*
X341258D01*
Y132901D01*
D02*
G37*
D24*
X290256Y70078D02*
D03*
X292815D02*
D03*
X295374D02*
D03*
X297933D02*
D03*
Y82678D02*
D03*
X295374D02*
D03*
X292815D02*
D03*
X290256D02*
D03*
X350197Y143701D02*
D03*
X347638D02*
D03*
X345079D02*
D03*
X342520D02*
D03*
Y131101D02*
D03*
X345079D02*
D03*
X347638D02*
D03*
X350197D02*
D03*
D34*
X22638Y103543D02*
D03*
X6890D02*
D03*
X22638Y63976D02*
D03*
X6890D02*
D03*
X22638Y77165D02*
D03*
X6890D02*
D03*
Y90354D02*
D03*
X22638D02*
D03*
X37402Y63976D02*
D03*
X53150D02*
D03*
X37402Y77165D02*
D03*
X53150D02*
D03*
X53150Y90354D02*
D03*
X37402D02*
D03*
X53150Y103543D02*
D03*
X37402D02*
D03*
X18504Y117717D02*
D03*
X34252D02*
D03*
D35*
X17323Y129362D02*
D03*
Y143866D02*
D03*
X33071Y129362D02*
D03*
Y143866D02*
D03*
D36*
X87402Y175984D02*
D03*
D37*
X151181Y240551D02*
D03*
D38*
X275590Y236831D02*
D03*
Y175984D02*
D03*
D39*
X136555Y43150D02*
D03*
X131555D02*
D03*
X126555D02*
D03*
X121555D02*
D03*
X116555D02*
D03*
X111555D02*
D03*
X106555D02*
D03*
X101555D02*
D03*
X96555D02*
D03*
X91555D02*
D03*
X86555D02*
D03*
X81555D02*
D03*
Y100157D02*
D03*
X86555D02*
D03*
X91555D02*
D03*
X96555D02*
D03*
X101555D02*
D03*
X106555D02*
D03*
X111555D02*
D03*
X116555D02*
D03*
X121555D02*
D03*
X126555D02*
D03*
X131555D02*
D03*
X136555D02*
D03*
D40*
X67716Y105118D02*
D03*
Y91732D02*
D03*
D41*
X17323Y171260D02*
D03*
Y152362D02*
D03*
X33071Y171260D02*
D03*
Y152362D02*
D03*
D42*
X275984Y53150D02*
D03*
X260236D02*
D03*
D43*
X65925Y17323D02*
D03*
X73445D02*
D03*
D44*
X306083Y76181D02*
D03*
Y72441D02*
D03*
Y68701D02*
D03*
X315965Y76181D02*
D03*
Y72441D02*
D03*
Y68701D02*
D03*
X324193Y145472D02*
D03*
Y141732D02*
D03*
Y137992D02*
D03*
X334075Y145472D02*
D03*
Y141732D02*
D03*
Y137992D02*
D03*
D45*
X300394Y62795D02*
D03*
Y56890D02*
D03*
X323228Y156890D02*
D03*
Y150984D02*
D03*
X77165Y112008D02*
D03*
Y117913D02*
D03*
X72047Y117913D02*
D03*
Y112008D02*
D03*
X66929Y117913D02*
D03*
Y112008D02*
D03*
X61811Y117913D02*
D03*
Y112008D02*
D03*
D46*
X256299Y93701D02*
D03*
Y99213D02*
D03*
X33858Y198425D02*
D03*
Y192913D02*
D03*
X324016Y68898D02*
D03*
Y74410D02*
D03*
D47*
X301181Y36220D02*
D03*
X322835Y126378D02*
D03*
X321654Y82284D02*
D03*
D48*
X248783Y106555D02*
D03*
Y111555D02*
D03*
X222083D02*
D03*
Y106555D02*
D03*
X248783Y93957D02*
D03*
Y98957D02*
D03*
X222083D02*
D03*
Y93957D02*
D03*
X248783Y48563D02*
D03*
Y43563D02*
D03*
X222083D02*
D03*
Y48563D02*
D03*
X248783Y61161D02*
D03*
Y56161D02*
D03*
X222083D02*
D03*
Y61161D02*
D03*
X248783Y73760D02*
D03*
Y68760D02*
D03*
X222083D02*
D03*
Y73760D02*
D03*
Y81358D02*
D03*
Y86358D02*
D03*
X248783D02*
D03*
Y81358D02*
D03*
D49*
X216142Y98032D02*
D03*
Y92520D02*
D03*
X255906Y81496D02*
D03*
Y87008D02*
D03*
X283071Y74016D02*
D03*
Y68504D02*
D03*
X321391Y246850D02*
D03*
Y241339D02*
D03*
X61811Y122638D02*
D03*
Y128150D02*
D03*
X66929D02*
D03*
Y122638D02*
D03*
X72047D02*
D03*
Y128150D02*
D03*
X77165D02*
D03*
Y122638D02*
D03*
X216142Y81890D02*
D03*
Y87402D02*
D03*
X321391Y257480D02*
D03*
Y251969D02*
D03*
D50*
X255118Y106299D02*
D03*
X260630D02*
D03*
X316929Y132283D02*
D03*
X322441D02*
D03*
X26378Y210630D02*
D03*
X20866D02*
D03*
D51*
X334449Y131496D02*
D03*
X328543D02*
D03*
X334842Y150787D02*
D03*
X328937D02*
D03*
X306890Y82284D02*
D03*
X312795D02*
D03*
X306890Y62598D02*
D03*
X312795D02*
D03*
X44291Y52362D02*
D03*
X50197D02*
D03*
X44291Y46457D02*
D03*
X50197D02*
D03*
X44291Y40551D02*
D03*
X50197D02*
D03*
X44291Y34646D02*
D03*
X50197D02*
D03*
D52*
X247638Y27165D02*
D03*
X242126D02*
D03*
Y15748D02*
D03*
X247638D02*
D03*
X242126Y21654D02*
D03*
X247638D02*
D03*
X55315Y52362D02*
D03*
X60827D02*
D03*
X60827Y46457D02*
D03*
X55315D02*
D03*
X55315Y40551D02*
D03*
X60827D02*
D03*
Y34646D02*
D03*
X55315D02*
D03*
D53*
X257874Y76772D02*
D03*
X352362Y125197D02*
D03*
X354331Y152756D02*
D03*
X352756Y59449D02*
D03*
X290945Y48819D02*
D03*
D54*
X225590Y131890D02*
D03*
X238976D02*
D03*
X225590Y121653D02*
D03*
X238976D02*
D03*
X59055Y26772D02*
D03*
X45669D02*
D03*
D55*
X213110Y21772D02*
D03*
X149094D02*
D03*
D56*
X208110Y43701D02*
D03*
X199094D02*
D03*
X163110D02*
D03*
X154095D02*
D03*
X167047Y24764D02*
D03*
X175079D02*
D03*
X183110D02*
D03*
X191142D02*
D03*
X171063Y17756D02*
D03*
X179095D02*
D03*
X187126D02*
D03*
X195158D02*
D03*
D57*
X156102Y7756D02*
D03*
X206102D02*
D03*
X51181Y265846D02*
D03*
Y147539D02*
D03*
X307087D02*
D03*
Y265846D02*
D03*
X158209Y82677D02*
D03*
X203209D02*
D03*
D58*
X269685Y40551D02*
D03*
D59*
X288976Y28346D02*
D03*
D60*
X269685Y16929D02*
D03*
D61*
X49134Y246831D02*
D03*
Y236831D02*
D03*
Y226831D02*
D03*
Y216831D02*
D03*
Y206831D02*
D03*
Y196831D02*
D03*
Y186831D02*
D03*
Y176831D02*
D03*
X309134Y246831D02*
D03*
Y236831D02*
D03*
Y226831D02*
D03*
Y216831D02*
D03*
Y206831D02*
D03*
Y196831D02*
D03*
Y186831D02*
D03*
Y176831D02*
D03*
Y166831D02*
D03*
X297638Y106693D02*
D03*
X317323D02*
D03*
D62*
X340158Y230315D02*
D03*
Y210630D02*
D03*
Y186221D02*
D03*
Y166535D02*
D03*
D63*
X225315Y33228D02*
D03*
X235315D02*
D03*
X225315Y23228D02*
D03*
X235315D02*
D03*
X225315Y13228D02*
D03*
X235315D02*
D03*
D64*
X338583Y39370D02*
D03*
Y255906D02*
D03*
X23622Y39370D02*
D03*
Y255906D02*
D03*
D65*
X346850Y100197D02*
D03*
Y113976D02*
D03*
Y86417D02*
D03*
X268622Y111811D02*
D03*
X31102Y219803D02*
D03*
X16142Y229803D02*
D03*
X274685Y65748D02*
D03*
D66*
X346850Y72638D02*
D03*
X31102Y229803D02*
D03*
X16142Y219803D02*
D03*
D67*
X271024Y125197D02*
D03*
X281024D02*
D03*
X261024D02*
D03*
X251024D02*
D03*
X275000Y98228D02*
D03*
X265158D02*
D03*
X275000Y86024D02*
D03*
X265158D02*
D03*
D68*
X278622Y111811D02*
D03*
X264685Y65748D02*
D03*
D69*
X163208Y107677D02*
D03*
X198208Y117677D02*
D03*
X193208Y107677D02*
D03*
X188208Y117677D02*
D03*
X183208Y107677D02*
D03*
X178209Y117677D02*
D03*
X173208Y107677D02*
D03*
X168208Y117677D02*
D03*
D70*
X149606Y70669D02*
D03*
X211811D02*
D03*
D71*
X266929Y184646D02*
D03*
X270472D02*
D03*
X274016D02*
D03*
X277559D02*
D03*
X281102D02*
D03*
X284646D02*
D03*
X266929Y181102D02*
D03*
X270472D02*
D03*
X274016D02*
D03*
X277559D02*
D03*
X281102D02*
D03*
X284646D02*
D03*
X266929Y177559D02*
D03*
X270472D02*
D03*
X274016D02*
D03*
X277559D02*
D03*
X281102D02*
D03*
X284646D02*
D03*
X266929Y174016D02*
D03*
X270472D02*
D03*
X274016D02*
D03*
X277559D02*
D03*
X281102D02*
D03*
X284646D02*
D03*
X266929Y170473D02*
D03*
X270472D02*
D03*
X274016D02*
D03*
X277559D02*
D03*
X281102D02*
D03*
X284646D02*
D03*
Y166929D02*
D03*
X281102D02*
D03*
X277559D02*
D03*
X274016D02*
D03*
X270472D02*
D03*
X266929D02*
D03*
Y245669D02*
D03*
X270472D02*
D03*
X274016D02*
D03*
X277559D02*
D03*
X281102D02*
D03*
X284646D02*
D03*
X266929Y242126D02*
D03*
X270472D02*
D03*
X274016D02*
D03*
X277559D02*
D03*
X281102D02*
D03*
X284646D02*
D03*
X266929Y238583D02*
D03*
X270472D02*
D03*
X274016D02*
D03*
X277559D02*
D03*
X281102D02*
D03*
X284646D02*
D03*
X266929Y235039D02*
D03*
X270472D02*
D03*
X274016D02*
D03*
X277559D02*
D03*
X281102D02*
D03*
X284646D02*
D03*
X266929Y231496D02*
D03*
X270472D02*
D03*
X274016D02*
D03*
X277559D02*
D03*
X281102D02*
D03*
X284646D02*
D03*
Y227953D02*
D03*
X281102D02*
D03*
X277559D02*
D03*
X274016D02*
D03*
X270472D02*
D03*
X266929D02*
D03*
X78740Y185039D02*
D03*
X82284D02*
D03*
X85827D02*
D03*
X89370D02*
D03*
X92913D02*
D03*
X96457D02*
D03*
X78740Y181496D02*
D03*
X82284D02*
D03*
X85827D02*
D03*
X89370D02*
D03*
X92913D02*
D03*
X96457D02*
D03*
X78740Y177953D02*
D03*
X82284D02*
D03*
X85827D02*
D03*
X89370D02*
D03*
X92913D02*
D03*
X96457D02*
D03*
X78740Y174409D02*
D03*
X82284D02*
D03*
X85827D02*
D03*
X89370D02*
D03*
X92913D02*
D03*
X96457D02*
D03*
X78740Y170866D02*
D03*
X82284D02*
D03*
X85827D02*
D03*
X89370D02*
D03*
X92913D02*
D03*
X96457D02*
D03*
Y167323D02*
D03*
X92913D02*
D03*
X89370D02*
D03*
X85827D02*
D03*
X82284D02*
D03*
X78740D02*
D03*
X142520Y249213D02*
D03*
X146063D02*
D03*
X149606D02*
D03*
X153150D02*
D03*
X156693D02*
D03*
X160236D02*
D03*
X142520Y245669D02*
D03*
X146063D02*
D03*
X149606D02*
D03*
X153150D02*
D03*
X156693D02*
D03*
X160236D02*
D03*
X142520Y242126D02*
D03*
X146063D02*
D03*
X149606D02*
D03*
X153150D02*
D03*
X156693D02*
D03*
X160236D02*
D03*
X142520Y238583D02*
D03*
X146063D02*
D03*
X149606D02*
D03*
X153150D02*
D03*
X156693D02*
D03*
X160236D02*
D03*
X142520Y235039D02*
D03*
X146063D02*
D03*
X149606D02*
D03*
X153150D02*
D03*
X156693D02*
D03*
X160236D02*
D03*
Y231496D02*
D03*
X156693D02*
D03*
X153150D02*
D03*
X149606D02*
D03*
X146063D02*
D03*
X142520D02*
D03*
D72*
X68110Y83858D02*
D03*
X74016Y25591D02*
D03*
X67323Y37008D02*
D03*
D73*
X77165Y132677D02*
D03*
X61811D02*
D03*
X72047D02*
D03*
X66929D02*
D03*
M02*
