M48
;Layer_Color=9474304
;FILE_FORMAT=2:5
INCH,TZ
;TYPE=PLATED
T1F00S00C0.01181
T2F00S00C0.02799
T3F00S00C0.03000
T5F00S00C0.03400
T6F00S00C0.03504
T7F00S00C0.03543
T8F00S00C0.04331
T9F00S00C0.04724
T11F00S00C0.07087
T12F00S00C0.11811
T13F00S00C0.16614
;TYPE=NON_PLATED
T14F00S00C0.12598
T15F00S00C0.12795
%
T01
X238976Y3937
X248031Y3937
X259842
X271653
X283464
X295275
X307086
X318897
X330709
X342519
X354330
X357480Y5118
X348425Y15748
X336614
X324803
X312992
X301181
X289370
X295275Y27559
X307086
X318897
X312992Y39370
X318897Y51181
X307086
X300394Y52756
X295275Y51181
X289370Y39370
X271653Y27559
X259842
X253937Y39370
X248819Y39764
Y51968
X253937Y48031
X252756Y61417
X248819Y64567
X253543Y72441
X271653Y74803
X259449Y89764
X243307Y86221
Y111417
X244488Y121653
Y131890
X253937Y133858
X265748
X277559
X289370
X301181
X312992
X316929Y137402
X319685Y141732
X329134
X307086Y122047
X312992Y86614
X316142Y86221
X316929Y79921
X311024Y72441
X318110Y65354
X336614Y62992
X348425
X354330Y74803
Y51181
Y27559
X330709Y74803
X336614Y86614
X324803
X253937Y15748
X204331Y17717
X205063Y23512
X209563Y32512
X213386Y30315
X212992Y37008
X203150Y37402
X200563Y32512
X192126Y43307
X186221Y45276
X181496
X176378
X171653
X147244Y41732
X142063Y41512
X120079Y36614
X115900Y37200
X112000Y36700
X107874Y35827
X89370
X85662Y35200
X82634Y35260
X77953Y36220
X79921Y31496
X79063Y23512
X88063
X92563Y32512
Y14512
X101563
X110563
X119563
X128563
X137563
X142063Y5512
X133063
X124063
X115063
X106063
X97063
X88063
X79063
X83563Y14512
X133063Y23512
X156299Y19685
X164567Y11417
X169063Y5512
X178063
X181496Y10236
X174016
X190551
X187063Y5512
X196063
X221260Y40157
X224410Y53150
X225984Y68504
X225878Y108268
X221260Y114961
X212205Y101969
X211595Y135039
X137008Y93307
X121653Y92913
X106299
X91732
X77165Y132677
X72047
X66929
X61811
X5512Y144488
X74563Y32512
X70063Y5512
X46850Y161811
X5512
X5118Y175591
X11811Y240157
X23622
X35433
X70866
X64960Y251968
X70866Y263779
X6693Y268898
X70866Y192913
X82677
X82284Y185039
X85827
Y181496
X82284
Y177953
X85827
Y174409
X82284
Y170866
X85827
Y167323
X82284
X78740
Y170866
Y174409
Y177953
Y181496
Y185039
X89370
X92913
X96457
Y181496
X92913
X89370
Y177953
X92913
X96457
Y174409
X92913
X89370
Y170866
X92913
X96457
Y167323
X92913
X89370
X88583Y157480
X100394
X112205
X124016
X135827
X147638
X159449
X171260
X183071
X177165Y169291
X165354
X153543
X141732
X129921
X118110
X106299
X112205Y181102
X124016
X135827
X147638
X159449
X153543Y192913
X141732
X129921
X118110
X106299
X94488
X100394Y228346
X112205
X124016
X129921Y240157
X118110
X106299
X94488
X82677
X88583Y251968
X100394
X112205
X124016
X129921Y263779
X141732
X153543
X165354
X177165
X188976
X200787
X212598
X218504Y251968
X206693
X194882
X183071
X171260
X160236Y249213
X156693
X153150
Y245669
X156693
X160236
Y242126
X156693
X153150
Y238583
X156693
X160236
Y235039
X156693
X153150
Y231496
X156693
X160236
X149606
Y235039
Y238583
Y242126
Y245669
Y249213
X146063
Y245669
Y242126
Y238583
Y235039
Y231496
X142520
Y235039
Y238583
Y242126
Y245669
Y249213
X118110Y263779
X106299
X94488
X82677
X76771Y251968
Y228346
X88583
X171260
X183071
X194882
X206693
X218504
X212598Y240157
X200787
X188976
X177165
Y216535
X188976
X200787
X212598
X218504Y204724
X206693
X194882
X183071
X171260
X165354Y216535
X188976Y192913
X200787
X212598
X218504Y181102
X206693
X194882
X212598Y169291
X218504Y157480
X253937
X265748
X266929Y166929
Y170473
Y174016
Y177559
Y181102
Y184646
X270472
X274016
Y181102
X270472
Y177559
X274016
Y174016
X270472
Y170473
X274016
Y166929
X270472
X277559
Y170473
Y174016
Y177559
Y181102
Y184646
X281102
X284646
Y181102
X281102
Y177559
X284646
Y174016
X281102
Y170473
X284646
Y166929
X281102
X277559Y157480
X289370
X301181
X312992
X328740Y146457
X283464Y145669
X271653
X259842
X248031
Y169291
X253937Y181102
X259842Y192913
X271653
X283464
X289370Y204724
X277559
X265748
X253937
X259842Y216535
X271653
X283464
X295275
X301181Y228346
X284646Y227953
Y231496
Y235039
Y238583
Y242126
Y245669
X281102
X277559
Y242126
X281102
Y238583
X277559
Y235039
X281102
Y231496
X277559
Y227953
X281102
X274016
Y231496
Y235039
Y238583
Y242126
Y245669
X270472
Y242126
Y238583
Y235039
Y231496
Y227953
X266929
Y231496
Y235039
Y238583
Y242126
Y245669
X265748Y251968
X277559
X289370
X301181
X295275Y263779
X283464
X271653
X259842
X248031
X253937Y251968
X248031Y240157
X253937Y228346
X248031Y216535
Y192913
X301181Y181102
X348425
X354330Y192913
Y216535
X348425Y228346
X354330Y240157
X342519
X330709
X321260Y262205
X354330Y263779
X357480Y271654
X295275Y240157
X354330Y169291
T02
X106555Y51831
X121653Y51968
X67323Y37008
X74016Y25591
X68110Y83858
X29921Y90551
Y103543
Y77165
X337008Y196063
X342913
T03
X235315Y13228
Y23228
Y33228
X225315
Y23228
Y13228
T05
X340158Y166535
Y186221
Y210630
Y230315
T06
X171063Y17756
X179095
X187126
X195158
X191142Y24764
X183110
X175079
X167047
X163110Y43701
X154095
X199094
X208110
T07
X297638Y106693
X317323
X193208Y107677
X183208
X173208
X163208
X168208Y117677
X178209
X188208
X198208
T08
X264685Y65748
X274685
X278622Y111811
X268622
X271024Y125197
X281024
X261024
X251024
X346850Y113976
Y100197
Y86417
Y72638
X49134Y176831
Y186831
Y196831
Y206831
Y216831
Y226831
Y236831
Y246831
X31102Y229803
Y219803
X16142
Y229803
X309134Y226831
Y236831
Y246831
Y216831
Y206831
Y196831
Y186831
Y176831
Y166831
T09
X265158Y86024
X275000
Y98228
X265158
T11
X149094Y21772
X213110
T12
X51181Y147539
Y265846
X307087
Y147539
T13
X338583Y39370
X23622
Y255906
X338583
T14
X158209Y82677
X203209
T15
X156102Y7756
X206102
M30
