M48
;Layer_Color=9474304
;FILE_FORMAT=2:5
INCH,TZ
;TYPE=PLATED
T1F00S00C0.01181
T2F00S00C0.02799
T3F00S00C0.03000
T5F00S00C0.03346
T6F00S00C0.03400
T7F00S00C0.03504
T8F00S00C0.03543
T9F00S00C0.03937
T10F00S00C0.04300
T11F00S00C0.04331
T12F00S00C0.06299
T13F00S00C0.07087
T14F00S00C0.11811
T15F00S00C0.16614
;TYPE=NON_PLATED
T16F00S00C0.12795
%
T01
X240158Y4725
X248819
X257480
X266142
X274803
X283465
X292126
X300787
X309449
X318110
X326772
X335433
X344095
X352756
X357087Y13386
X348425
X339764
X331102
X322441
X313780
X305118
X296457
X287795
X279134
X283465Y22047
X274803
X266142
X257480
X261811Y30709
X270473
X279134
X296457
X305118
X313780
X322441
X326772Y22047
X335433
X344095
X352756
X357087Y30709
Y48032
X352756Y56693
X344095
X335433
X326772
X318110
X322441Y48032
X318110Y39370
Y22047
X309449
X300787
X300787Y67323
X305118Y65355
X313780
X331102
X339764
X348425
X357087
X352756Y74016
X357087Y82677
X348425
X334279Y86685
X327279
X323780Y93685
X330780
X337779
X334279Y100685
X327279
X320280
X313280
X306279
X302755Y106299
X309780Y107685
Y93685
X302780
X295779
X288779
X292280Y86685
X299279
X306279
X301969Y81496
Y76772
X288779Y79685
X287795Y72441
X268110
Y68898
X261417Y67716
X254331Y68898
X248819Y64961
X257480Y62205
X254331Y57480
X248819Y52362
X248819Y39370
X257480
X254331Y43701
X253150Y13386
X238583Y74803
Y80709
Y86614
Y92126
Y97244
Y102362
X244882Y105512
X248819Y108662
Y125985
X257480
X266142
X274803
X283465
X287795Y134646
X296457
X300787Y143307
X309449
X318110
X326772
X352756
X344095Y125985
X330709Y119291
X330780Y107685
X352756Y108662
X357087Y117323
X314173Y120079
X309449Y125985
X300787
X279134Y134646
X270473
X261811
X253150
X244488
X248819Y143307
X257480
X266142
X274803
X283465
X274803Y108662
X261811Y100000
X255118Y89764
X270079Y86614
X272047Y82677
X271260Y79528
X335433Y74016
X240158Y125985
Y143307
X220760Y122005
X218110Y101575
X228346Y64567
X225984Y52756
X226378Y43701
X212992Y37008
X213386Y30315
X209279Y32685
X203150Y37402
X204780Y23685
X204331Y17717
X195780Y5685
X186779
X190551Y10236
X181496
X174016
X177779Y5685
X168780
X164567Y11417
X156299Y19685
X137279Y14685
X128279
X119280
X110280
X101279
X92279
X83280
X87779Y5685
X96780
X105780
X114779
X123779
X132780
X141779
X147244Y41732
X171653Y45276
X176378
X181496
X186221
X192126Y41732
X120079Y36614
X115900Y37200
X112000Y36700
X107874Y35827
X89370
X85662Y35200
X82700
X77953Y36220
X79921Y31496
X78780Y23685
Y5685
X91732Y92913
X106299
X121653
X137008Y93307
X77165Y127559
X72047
X66929
X61811
X9843Y129921
X74279Y32685
X69779Y23685
X74279Y14685
X69779Y5685
X68898Y169291
X63976Y179134
X68898Y188976
X59055
X63976Y218504
X73819
X68898Y228346
X59055
X63976Y238189
X73819
X68898Y248032
X59055
X63976Y257874
X73819
X39370Y228346
X29528
X19685
X9843
X14764Y218504
X24606
X34449
X39370Y208662
X29528
X19685
X9843
X14764Y198819
X24606
X34449
X19685Y188976
X9843
X14764Y179134
X9843Y169291
Y149606
X78740Y155512
Y159055
Y162599
Y166142
Y169685
Y173228
X82284
X85827
Y169685
X82284
Y166142
X85827
Y162599
X82284
Y159055
X85827
Y155512
X82284
X89370
Y159055
Y162599
Y166142
Y169685
Y173228
X92913
X96457
Y169685
X92913
Y166142
X96457
Y162599
X92913
Y159055
X96457
Y155512
X92913
X113189Y159449
X123031
X132874
X142717
X152559
X162402
X172244
X182087
X201772
X211614
X216535Y169291
X206693
X196850
X201772Y179134
X211614
X216535Y188976
X206693
X196850
X187008
X177165
X182087Y198819
X191929
X201772
X211614
X216535Y208662
X206693
X196850
X187008
X177165
X167323
X157480
X156693Y219685
Y223228
Y226772
Y230315
Y233858
Y237402
X153150
Y233858
Y230315
Y226772
Y223228
Y219685
X149606
Y223228
Y226772
Y230315
Y233858
Y237402
X146063
Y233858
Y230315
Y226772
Y223228
Y219685
X142520
Y223228
Y226772
Y230315
Y233858
Y237402
X132874Y238189
X123031
X113189
X103346
X93504
X83661
X88583Y248032
X98425
X108268
X118110
X127953
X137795
X147638
X157480
X167323
X177165
X187008
X196850
X206693
X216535
X211614Y257874
X201772
X191929
X182087
X172244
X162402
X152559
X142717
X132874
X123031
X113189
X103346
X93504
X83661
X78740Y248032
Y228346
X88583
X98425
X108268
X118110
X127953
X132874Y218504
X123031
X113189
X103346
X93504
X83661
X88583Y188976
X98425
X108268
X118110
X127953
X137795
X147638
X152559Y179134
X162402
X167323Y169291
X157480
X147638
X137795
X127953
X118110
X108268
X113189Y179134
X123031
X132874
X142717
X182087
X191929
Y218504
X201772
X211614
X216535Y228346
X206693
X196850
X187008
X177165
X182087Y238189
X191929
X201772
X211614
X172244
X160236Y237402
Y233858
Y230315
Y226772
Y223228
Y219685
X172244Y218504
X182087
X172244Y198819
X162402
X78740Y188976
X216535Y149606
X244488Y151969
X253150
X257480Y160630
X248819
X240158
X244488Y169292
X253150
X257480Y177953
X248819
X240158
X244488Y186614
X253150
X261811
X270473
X279134
X287795
X296457
X300787Y195276
X292126
X283465
X274803
X266142
X257480
X248819
X240158
X244488Y203937
X253150
X261811
X270473
X279134
X287795
X296457
X300787Y212599
X292126
X284646Y216142
Y219685
Y223228
Y226772
Y230315
Y233858
X281102
X277559
Y230315
X281102
Y226772
X277559
Y223228
X281102
Y219685
X277559
Y216142
X281102
X274016
Y219685
Y223228
Y226772
Y230315
Y233858
X270472
Y230315
Y226772
Y223228
Y219685
Y216142
X266929
Y219685
Y223228
Y226772
Y230315
Y233858
X257480Y229922
X248819
X240158
X244488Y238583
X253150
X257480Y247244
X266142
X274803
X283465
X292126
X300787
X296457Y255906
X287795
X279134
X270473
X261811
X253150
X244488
X248819Y247244
X240158
X244488Y221260
X253150
X257480Y212599
X248819
X240158
X296457Y221260
X300787Y229922
X292126
X296457Y238583
X322441
X326772Y229922
X335433
X344095
X352756
X357087Y238583
Y255906
Y221260
X348425
X352756Y212599
X344095
X357087Y203937
X352756Y195276
X357087Y186614
X352756Y177953
X357087Y169292
X348425
X352756Y160630
X344095
X348425Y151969
X357087
X296457
X300787Y160630
X296457Y169292
X284646Y169291
Y172835
X281102
X277559
Y169291
X281102
Y165748
X277559
Y162205
X281102
X284646
Y165748
Y158661
X281102
X277559
Y155118
X281102
X284646
X274016
Y158661
Y162205
Y165748
Y169291
Y172835
X270472
Y169291
Y165748
Y162205
Y158661
Y155118
X266929
Y158661
Y162205
Y165748
Y169291
Y172835
X300787Y177953
X313780Y221260
X322441
X331102
T02
X106555Y51831
X121653Y51968
X67323Y37008
X68504Y17717
Y77953
X29528Y77165
Y90551
Y103543
X337008Y184252
X342913
T03
X235315Y13228
Y23228
Y33228
X225315
Y23228
Y13228
T05
X315748Y82087
Y95866
T06
X340158Y153937
Y173622
Y202756
Y222441
T07
X171063Y17756
X179095
X187126
X195158
X191142Y24764
X183110
X175079
X167047
X163110Y43701
X154095
X199094
X208110
T08
X163602Y103740
X173602
X183602
X193602
X188602Y113740
X178602
X168602
X198602
T09
X156201Y62598
X166240
X195965
X206004
T10
X347441Y77146
Y92146
T11
X248425Y114961
X258425
X268425
X278425
X288425
X298425
X49134Y165020
Y175020
Y185020
Y195020
Y205020
Y215020
Y225020
Y235020
X309134
Y225020
Y215020
Y205020
Y195020
Y185020
Y175020
Y165020
Y155020
T12
X149941Y93898
X212264
T13
X149094Y21772
X213110
T14
X307087Y135728
X51181
Y254035
X307087
T15
X338583Y39370
X23622
Y248031
X338583
T16
X156102Y7756
X206102
X203602Y78740
X158602
M30
