G04*
G04 #@! TF.GenerationSoftware,Altium Limited,Altium Designer,21.9.2 (33)*
G04*
G04 Layer_Physical_Order=4*
G04 Layer_Color=16711680*
%FSLAX25Y25*%
%MOIN*%
G70*
G04*
G04 #@! TF.SameCoordinates,7D1D80C0-A4A2-4293-B872-F3C3C3D81CEA*
G04*
G04*
G04 #@! TF.FilePolarity,Positive*
G04*
G01*
G75*
%ADD13C,0.01000*%
%ADD15C,0.03150*%
%ADD67C,0.05906*%
%ADD72C,0.06299*%
%ADD83C,0.01968*%
%ADD87C,0.05906*%
%ADD90C,0.07087*%
%ADD91O,0.05512X0.14173*%
%ADD92O,0.14173X0.05512*%
%ADD93C,0.06300*%
%ADD94C,0.05512*%
%ADD95C,0.05400*%
%ADD96O,0.05512X0.06000*%
%ADD97R,0.06299X0.06299*%
%ADD98C,0.08661*%
%ADD99C,0.09449*%
%ADD100C,0.05315*%
%ADD102C,0.02362*%
%ADD103C,0.02402*%
%ADD104C,0.05000*%
%ADD106R,0.11811X0.07874*%
%ADD107C,0.24410*%
G36*
X222441Y138255D02*
X219531Y137050D01*
X148598Y207982D01*
Y207982D01*
X148598D01*
X144235Y212346D01*
X143809Y212630D01*
X143307Y212730D01*
X142551D01*
X56265D01*
X53465Y214450D01*
Y215590D01*
X53169Y216691D01*
X52599Y217679D01*
X52063Y218215D01*
X51917Y220020D01*
X52063Y221825D01*
X52599Y222361D01*
X53169Y223348D01*
X53465Y224450D01*
Y225590D01*
X53169Y226691D01*
X52599Y227679D01*
X52063Y228215D01*
X51917Y230020D01*
X52063Y231825D01*
X52599Y232361D01*
X53169Y233348D01*
X53465Y234450D01*
Y235590D01*
X53169Y236691D01*
X52599Y237679D01*
X51793Y238485D01*
X50805Y239055D01*
X49704Y239350D01*
X48564D01*
X47462Y239055D01*
X46475Y238485D01*
X45668Y237679D01*
X45098Y236691D01*
X44803Y235590D01*
Y234450D01*
X45098Y233348D01*
X45668Y232361D01*
X46204Y231825D01*
X46350Y230020D01*
X46204Y228215D01*
X45668Y227679D01*
X45098Y226691D01*
X44803Y225590D01*
Y224450D01*
X45098Y223348D01*
X45668Y222361D01*
X46204Y221825D01*
X46350Y220020D01*
X46204Y218215D01*
X45668Y217679D01*
X45098Y216691D01*
X44803Y215590D01*
Y214450D01*
X45098Y213348D01*
X45668Y212361D01*
X46204Y211825D01*
X46350Y210020D01*
X46204Y208215D01*
X45668Y207679D01*
X45098Y206691D01*
X44803Y205590D01*
Y204450D01*
X45098Y203348D01*
X45668Y202361D01*
X46204Y201825D01*
X46350Y200020D01*
X46204Y198215D01*
X45668Y197679D01*
X45098Y196691D01*
X44803Y195590D01*
Y194450D01*
X45098Y193348D01*
X45668Y192361D01*
X46204Y191825D01*
X46350Y190020D01*
X46204Y188215D01*
X45668Y187679D01*
X45098Y186691D01*
X44803Y185590D01*
Y184450D01*
X45098Y183348D01*
X45580Y182514D01*
X45677Y182277D01*
X45908Y179949D01*
X45409Y178533D01*
X45038Y178162D01*
X44365Y176995D01*
X44016Y175694D01*
Y174346D01*
X44365Y173044D01*
X45038Y171877D01*
X45679Y170020D01*
X45038Y168162D01*
X44365Y166995D01*
X44016Y165693D01*
Y164346D01*
X44365Y163044D01*
X45038Y161877D01*
X45991Y160924D01*
X47158Y160250D01*
X48460Y159902D01*
X49808D01*
X51109Y160250D01*
X52276Y160924D01*
X53229Y161877D01*
X53903Y163044D01*
X54252Y164346D01*
Y165693D01*
X53903Y166995D01*
X53229Y168162D01*
X52588Y170020D01*
X53229Y171877D01*
X53903Y173044D01*
X54252Y174346D01*
Y175694D01*
X53903Y176995D01*
X53229Y178162D01*
X52859Y178533D01*
X52359Y179949D01*
X52591Y182277D01*
X52688Y182514D01*
X53169Y183348D01*
X53465Y184450D01*
Y185590D01*
X53169Y186691D01*
X52599Y187679D01*
X52063Y188215D01*
X51917Y190020D01*
X52063Y191825D01*
X52599Y192361D01*
X53169Y193348D01*
X53465Y194450D01*
Y195590D01*
X56317Y197113D01*
X149456D01*
X149981Y196588D01*
X218375Y128194D01*
X218458Y127960D01*
X218584Y124840D01*
X217924Y124180D01*
X217458Y123373D01*
X217216Y122471D01*
Y121538D01*
X217458Y120637D01*
X217873Y119919D01*
Y103698D01*
X217719Y103543D01*
X217719Y103543D01*
X217160Y103312D01*
X216995Y103244D01*
Y103244D01*
X216441Y102690D01*
X216142Y101966D01*
X216142Y101966D01*
X216142Y101183D01*
X214688Y99260D01*
X214662Y99237D01*
X213648Y98825D01*
X212938Y99016D01*
X211590D01*
X210288Y98667D01*
X209121Y97993D01*
X208168Y97040D01*
X207494Y95873D01*
X207146Y94571D01*
Y93224D01*
X207494Y91922D01*
X208168Y90755D01*
X209121Y89802D01*
X210288Y89128D01*
X211590Y88779D01*
X212938D01*
X213648Y88970D01*
X215510Y88056D01*
X216798Y86968D01*
Y65504D01*
X212763Y61470D01*
X211822Y61668D01*
X209744Y62905D01*
Y63091D01*
X209489Y64042D01*
X208997Y64895D01*
X208300Y65591D01*
X207448Y66084D01*
X206496Y66339D01*
X205511D01*
X204560Y66084D01*
X203707Y65591D01*
X203035Y64944D01*
X202261Y64199D01*
X199708D01*
X198934Y64944D01*
X198261Y65591D01*
X197408Y66084D01*
X196457Y66339D01*
X195472D01*
X194521Y66084D01*
X193668Y65591D01*
X192972Y64895D01*
X192479Y64042D01*
X192224Y63091D01*
Y62106D01*
X192479Y61155D01*
X192972Y60302D01*
X193668Y59606D01*
X194521Y59113D01*
X195472Y58858D01*
X196457D01*
X197408Y59113D01*
X198261Y59606D01*
X198934Y60253D01*
X199708Y60998D01*
X202261D01*
X203035Y60253D01*
X203707Y59606D01*
X204560Y59113D01*
X205511Y58858D01*
X205697D01*
X206934Y56780D01*
X207133Y55840D01*
X204968Y53675D01*
X166053D01*
X165551Y53575D01*
X165504Y53543D01*
X144897D01*
Y87440D01*
X144981Y87544D01*
X147965Y89128D01*
X149267Y88779D01*
X150615D01*
X151917Y89128D01*
X153084Y89802D01*
X154036Y90755D01*
X154710Y91922D01*
X155059Y93224D01*
Y94571D01*
X154710Y95873D01*
X154036Y97040D01*
X153084Y97993D01*
X151917Y98667D01*
X150615Y99016D01*
X149267D01*
X147965Y98667D01*
X144981Y100251D01*
X144897Y100355D01*
Y101083D01*
X144836Y101390D01*
X144662Y101650D01*
X144402Y101824D01*
X144095Y101885D01*
X130984D01*
X130805Y102065D01*
X130219Y102456D01*
X129528Y102594D01*
X104685D01*
X81865Y125414D01*
X81865Y125414D01*
X78996Y128283D01*
X78834Y128674D01*
X78834Y128674D01*
X78406Y129102D01*
X78280Y129228D01*
X78280D01*
X77557Y129527D01*
X77557Y129528D01*
X77557Y129528D01*
X76774Y129528D01*
X76774Y129528D01*
X76050Y129228D01*
X74606Y128885D01*
X73162Y129228D01*
X72439Y129528D01*
X72261Y129528D01*
X71656Y129528D01*
X71491Y129459D01*
X70932Y129228D01*
X69488Y128885D01*
X68044Y129228D01*
X68030Y129234D01*
X67321Y129528D01*
X67142Y129528D01*
X66538Y129528D01*
X66373Y129459D01*
X65814Y129228D01*
X64370Y128885D01*
X62926Y129228D01*
X62203Y129528D01*
X62203Y129528D01*
X62024D01*
X62024D01*
X61419Y129528D01*
X61419Y129528D01*
X61255Y129459D01*
X61255D01*
X60696Y129228D01*
X60696D01*
X60696Y129228D01*
X60142Y128674D01*
X60142Y128674D01*
X59843Y127951D01*
X59842Y127951D01*
X59842Y127772D01*
X59842Y127772D01*
X59842Y127168D01*
X59842Y127167D01*
X59911Y127003D01*
Y127003D01*
X60005Y126776D01*
X60005Y126365D01*
Y122835D01*
X60142Y122143D01*
X60534Y121557D01*
X77296Y104795D01*
X76090Y101885D01*
X74016D01*
X73708Y101824D01*
X73448Y101650D01*
X73274Y101390D01*
X73213Y101083D01*
Y82347D01*
X71751Y81389D01*
X70063Y80848D01*
X69773Y81016D01*
X68937Y81240D01*
X68071D01*
X67235Y81016D01*
X66485Y80583D01*
X65873Y79971D01*
X65441Y79222D01*
X65216Y78386D01*
Y77924D01*
X64230Y77162D01*
X62245Y76442D01*
X34348Y104338D01*
X34058Y105420D01*
X33418Y106529D01*
X32513Y107434D01*
X31404Y108074D01*
X30168Y108405D01*
X28887D01*
X27651Y108074D01*
X26542Y107434D01*
X25637Y106529D01*
X24997Y105420D01*
X24665Y104183D01*
Y102903D01*
X24997Y101667D01*
X25637Y100558D01*
X26542Y99653D01*
X27651Y99013D01*
X28089Y95703D01*
X27862Y95139D01*
X27651Y95082D01*
X26542Y94442D01*
X25637Y93537D01*
X24997Y92428D01*
X24665Y91191D01*
Y89911D01*
X24997Y88674D01*
X25637Y87566D01*
X26542Y86660D01*
X27651Y86020D01*
X28016Y84792D01*
X27651Y81696D01*
X26542Y81056D01*
X25637Y80151D01*
X24997Y79042D01*
X24665Y77806D01*
Y76525D01*
X24997Y75289D01*
X25637Y74180D01*
X26542Y73275D01*
X27112Y72946D01*
X27645Y72251D01*
X62461Y37435D01*
Y36368D01*
X62792Y35131D01*
X63432Y34022D01*
X64337Y33117D01*
X64961Y32757D01*
Y803D01*
X803Y803D01*
X803Y262977D01*
X15664D01*
X16420Y259827D01*
X16400Y259817D01*
X14645Y258542D01*
X13112Y257008D01*
X11837Y255254D01*
X10852Y253321D01*
X10182Y251258D01*
X9843Y249116D01*
Y246947D01*
X10182Y244805D01*
X10852Y242742D01*
X11837Y240809D01*
X13112Y239055D01*
X14645Y237521D01*
X16400Y236246D01*
X18333Y235262D01*
X20395Y234591D01*
X22538Y234252D01*
X24706D01*
X26849Y234591D01*
X28912Y235262D01*
X30844Y236246D01*
X32599Y237521D01*
X34133Y239055D01*
X35407Y240809D01*
X36392Y242742D01*
X37062Y244805D01*
X37402Y246947D01*
Y249116D01*
X37062Y251258D01*
X36392Y253321D01*
X35407Y255254D01*
X34133Y257008D01*
X32599Y258542D01*
X30844Y259817D01*
X30824Y259827D01*
X31580Y262977D01*
X46300D01*
X47847Y260158D01*
X47802Y259827D01*
X46915Y259234D01*
X45982Y258302D01*
X45250Y257206D01*
X44745Y255988D01*
X44488Y254695D01*
Y253376D01*
X44745Y252083D01*
X45250Y250865D01*
X45982Y249769D01*
X46915Y248837D01*
X48011Y248104D01*
X49229Y247600D01*
X50522Y247342D01*
X51840D01*
X53133Y247600D01*
X54351Y248104D01*
X55448Y248837D01*
X56380Y249769D01*
X57112Y250865D01*
X57617Y252083D01*
X57874Y253376D01*
Y254695D01*
X57617Y255988D01*
X57112Y257206D01*
X56380Y258302D01*
X55448Y259234D01*
X54560Y259827D01*
X54515Y260158D01*
X56062Y262977D01*
X222441D01*
Y138255D01*
D02*
G37*
G36*
X52505Y213856D02*
X52468Y213578D01*
X52457Y213312D01*
X52471Y213057D01*
X52510Y212814D01*
X52575Y212582D01*
X52666Y212362D01*
X52781Y212153D01*
X52923Y211956D01*
X53090Y211771D01*
X52383Y211064D01*
X52197Y211231D01*
X52000Y211372D01*
X51792Y211488D01*
X51572Y211578D01*
X51340Y211643D01*
X51097Y211683D01*
X50842Y211697D01*
X50576Y211685D01*
X50298Y211648D01*
X50008Y211586D01*
X52568Y214145D01*
X52505Y213856D01*
D02*
G37*
G36*
X51625Y207615D02*
X53269Y206643D01*
X53600Y206486D01*
X53898Y206365D01*
X54163Y206278D01*
X54397Y206226D01*
X54598Y206209D01*
X54798Y205209D01*
X54536Y205187D01*
X54272Y205123D01*
X54007Y205017D01*
X53740Y204868D01*
X53470Y204676D01*
X53200Y204442D01*
X52927Y204165D01*
X52653Y203846D01*
X52376Y203483D01*
X52098Y203079D01*
X51134Y207945D01*
X51625Y207615D01*
D02*
G37*
G36*
X52893Y198072D02*
X52743Y197908D01*
X52617Y197740D01*
X52514Y197567D01*
X52435Y197391D01*
X52380Y197210D01*
X52348Y197026D01*
X52340Y196836D01*
X52356Y196643D01*
X52396Y196446D01*
X52459Y196245D01*
X50359Y198345D01*
X50560Y198281D01*
X50757Y198242D01*
X50951Y198226D01*
X51140Y198234D01*
X51324Y198266D01*
X51505Y198321D01*
X51682Y198400D01*
X51854Y198502D01*
X52022Y198629D01*
X52186Y198779D01*
X52893Y198072D01*
D02*
G37*
G36*
X221525Y121094D02*
X221469Y121021D01*
X221420Y120943D01*
X221377Y120858D01*
X221341Y120767D01*
X221312Y120671D01*
X221289Y120569D01*
X221273Y120460D01*
X221263Y120346D01*
X221260Y120226D01*
X220260D01*
X220257Y120346D01*
X220247Y120460D01*
X220230Y120569D01*
X220208Y120671D01*
X220178Y120767D01*
X220142Y120858D01*
X220100Y120943D01*
X220051Y121021D01*
X219995Y121094D01*
X219933Y121161D01*
X221587D01*
X221525Y121094D01*
D02*
G37*
G36*
X32037Y103461D02*
X32068Y103388D01*
X32121Y103299D01*
X32194Y103193D01*
X32288Y103072D01*
X32540Y102781D01*
X33075Y102223D01*
X30848Y99996D01*
X30646Y100196D01*
X29877Y100877D01*
X29772Y100950D01*
X29683Y101002D01*
X29610Y101033D01*
X29553Y101043D01*
X32027Y103518D01*
X32037Y103461D01*
D02*
G37*
G36*
X218875Y100664D02*
X218819Y100591D01*
X218770Y100513D01*
X218728Y100428D01*
X218692Y100337D01*
X218663Y100241D01*
X218640Y100138D01*
X218623Y100030D01*
X218614Y99916D01*
X218610Y99796D01*
X217610D01*
X217607Y99916D01*
X217597Y100030D01*
X217581Y100138D01*
X217558Y100241D01*
X217529Y100337D01*
X217493Y100428D01*
X217450Y100513D01*
X217401Y100591D01*
X217346Y100664D01*
X217284Y100731D01*
X218937D01*
X218875Y100664D01*
D02*
G37*
G36*
X32037Y90469D02*
X32068Y90396D01*
X32121Y90307D01*
X32194Y90201D01*
X32288Y90080D01*
X32540Y89789D01*
X33075Y89231D01*
X30848Y87004D01*
X30646Y87203D01*
X29877Y87885D01*
X29772Y87958D01*
X29683Y88010D01*
X29610Y88041D01*
X29553Y88051D01*
X32027Y90526D01*
X32037Y90469D01*
D02*
G37*
G36*
X31863Y76235D02*
X31874Y76148D01*
X31909Y76047D01*
X31966Y75932D01*
X32047Y75802D01*
X32151Y75659D01*
X32429Y75327D01*
X32800Y74939D01*
X30550Y72734D01*
X28716Y74801D01*
X31876Y76307D01*
X31863Y76235D01*
D02*
G37*
G36*
X228850Y66226D02*
X228859Y66111D01*
X228876Y66003D01*
X228899Y65901D01*
X228928Y65804D01*
X228964Y65714D01*
X229007Y65629D01*
X229056Y65550D01*
X229111Y65477D01*
X229173Y65410D01*
X227520D01*
X227582Y65477D01*
X227637Y65550D01*
X227686Y65629D01*
X227729Y65714D01*
X227765Y65804D01*
X227794Y65901D01*
X227817Y66003D01*
X227833Y66111D01*
X227843Y66226D01*
X227847Y66346D01*
X228847D01*
X228850Y66226D01*
D02*
G37*
G36*
X226487Y54415D02*
X226497Y54300D01*
X226514Y54192D01*
X226536Y54090D01*
X226566Y53993D01*
X226602Y53903D01*
X226644Y53818D01*
X226693Y53739D01*
X226749Y53666D01*
X226811Y53599D01*
X225157D01*
X225220Y53666D01*
X225275Y53739D01*
X225324Y53818D01*
X225367Y53903D01*
X225403Y53993D01*
X225432Y54090D01*
X225455Y54192D01*
X225471Y54300D01*
X225481Y54415D01*
X225484Y54535D01*
X226484D01*
X226487Y54415D01*
D02*
G37*
G36*
X211437Y46320D02*
X211306Y46170D01*
X211190Y45996D01*
X211087Y45798D01*
X210999Y45575D01*
X210925Y45328D01*
X210865Y45057D01*
X210820Y44761D01*
X210788Y44441D01*
X210768Y43727D01*
X208137Y46358D01*
X208506Y46361D01*
X209170Y46410D01*
X209466Y46456D01*
X209737Y46516D01*
X209984Y46590D01*
X210207Y46678D01*
X210406Y46780D01*
X210580Y46897D01*
X210730Y47027D01*
X211437Y46320D01*
D02*
G37*
G36*
X205641Y46897D02*
X205815Y46780D01*
X206013Y46678D01*
X206236Y46590D01*
X206483Y46516D01*
X206755Y46456D01*
X207050Y46410D01*
X207370Y46379D01*
X208084Y46358D01*
X205453Y43727D01*
X205450Y44096D01*
X205401Y44761D01*
X205355Y45057D01*
X205295Y45328D01*
X205221Y45575D01*
X205133Y45798D01*
X205031Y45996D01*
X204914Y46170D01*
X204784Y46320D01*
X205491Y47027D01*
X205641Y46897D01*
D02*
G37*
G36*
X166437Y46320D02*
X166306Y46170D01*
X166190Y45996D01*
X166087Y45798D01*
X165999Y45575D01*
X165925Y45328D01*
X165866Y45057D01*
X165820Y44761D01*
X165788Y44441D01*
X165768Y43727D01*
X163137Y46358D01*
X163506Y46361D01*
X164170Y46410D01*
X164466Y46456D01*
X164737Y46516D01*
X164985Y46590D01*
X165207Y46678D01*
X165406Y46780D01*
X165580Y46897D01*
X165730Y47027D01*
X166437Y46320D01*
D02*
G37*
G36*
X225561Y45230D02*
X225649Y45156D01*
X225737Y45091D01*
X225825Y45035D01*
X225914Y44987D01*
X226004Y44949D01*
X226094Y44919D01*
X226184Y44898D01*
X226275Y44885D01*
X226366Y44882D01*
X225197Y43713D01*
X225193Y43804D01*
X225181Y43895D01*
X225160Y43985D01*
X225130Y44075D01*
X225092Y44164D01*
X225044Y44254D01*
X224988Y44342D01*
X224923Y44430D01*
X224849Y44518D01*
X224767Y44605D01*
X225474Y45312D01*
X225561Y45230D01*
D02*
G37*
G36*
X155676Y45884D02*
X157222Y45226D01*
X157449Y45155D01*
X157650Y45105D01*
X157824Y45074D01*
X157970Y45064D01*
X158255Y44064D01*
X158050Y44049D01*
X157851Y44004D01*
X157658Y43929D01*
X157472Y43823D01*
X157293Y43688D01*
X157120Y43522D01*
X156954Y43326D01*
X156794Y43100D01*
X156641Y42844D01*
X156494Y42558D01*
X155285Y46077D01*
X155676Y45884D01*
D02*
G37*
G36*
X68134Y39373D02*
X64975Y37867D01*
X64987Y37939D01*
X64976Y38025D01*
X64942Y38126D01*
X64884Y38241D01*
X64803Y38371D01*
X64699Y38515D01*
X64421Y38846D01*
X64051Y39234D01*
X66300Y41439D01*
X68134Y39373D01*
D02*
G37*
G36*
X116149Y36046D02*
X116065Y36024D01*
X115981Y35996D01*
X115897Y35961D01*
X115812Y35918D01*
X115727Y35870D01*
X115642Y35814D01*
X115556Y35751D01*
X115384Y35605D01*
X115298Y35522D01*
X114412Y36050D01*
X114495Y36139D01*
X114567Y36227D01*
X114628Y36315D01*
X114678Y36403D01*
X114717Y36491D01*
X114746Y36578D01*
X114763Y36666D01*
X114770Y36753D01*
X114766Y36841D01*
X114751Y36928D01*
X116149Y36046D01*
D02*
G37*
G36*
X112949Y35985D02*
X112909Y35906D01*
X112874Y35821D01*
X112844Y35732D01*
X112819Y35637D01*
X112798Y35537D01*
X112782Y35432D01*
X112763Y35208D01*
X112761Y35088D01*
X111761Y34835D01*
X111757Y34956D01*
X111745Y35069D01*
X111726Y35175D01*
X111700Y35272D01*
X111665Y35362D01*
X111624Y35444D01*
X111574Y35519D01*
X111517Y35585D01*
X111452Y35644D01*
X111380Y35695D01*
X112993Y36060D01*
X112949Y35985D01*
D02*
G37*
G36*
X86494Y34351D02*
X86443Y34274D01*
X86398Y34192D01*
X86359Y34105D01*
X86326Y34013D01*
X86300Y33915D01*
X86279Y33811D01*
X86264Y33702D01*
X86255Y33588D01*
X86252Y33468D01*
X85252Y33384D01*
X85248Y33504D01*
X85238Y33618D01*
X85220Y33726D01*
X85196Y33827D01*
X85164Y33921D01*
X85126Y34009D01*
X85080Y34091D01*
X85028Y34166D01*
X84968Y34234D01*
X84902Y34296D01*
X86550Y34422D01*
X86494Y34351D01*
D02*
G37*
G36*
X83649Y34485D02*
X83609Y34406D01*
X83574Y34321D01*
X83544Y34232D01*
X83519Y34137D01*
X83498Y34037D01*
X83482Y33933D01*
X83463Y33708D01*
X83461Y33588D01*
X82461Y33335D01*
X82457Y33456D01*
X82445Y33569D01*
X82426Y33675D01*
X82400Y33772D01*
X82365Y33862D01*
X82323Y33944D01*
X82274Y34019D01*
X82217Y34085D01*
X82152Y34144D01*
X82080Y34195D01*
X83693Y34560D01*
X83649Y34485D01*
D02*
G37*
G36*
X166059Y27231D02*
X164772Y26138D01*
X164603Y26289D01*
X164625Y27289D01*
X166059Y27231D01*
D02*
G37*
G36*
X178405Y27383D02*
X178275Y27233D01*
X178158Y27059D01*
X178056Y26861D01*
X177968Y26638D01*
X177894Y26391D01*
X177834Y26120D01*
X177788Y25824D01*
X177757Y25504D01*
X177736Y24790D01*
X175105Y27421D01*
X175474Y27424D01*
X176139Y27473D01*
X176434Y27519D01*
X176706Y27579D01*
X176953Y27653D01*
X177176Y27741D01*
X177374Y27843D01*
X177548Y27960D01*
X177698Y28090D01*
X178405Y27383D01*
D02*
G37*
G36*
X187640Y21762D02*
X187680Y21557D01*
X187748Y21344D01*
X187844Y21124D01*
X187966Y20897D01*
X188116Y20663D01*
X188293Y20421D01*
X188496Y20173D01*
X188986Y19654D01*
X185266D01*
X185524Y19917D01*
X185959Y20421D01*
X186136Y20663D01*
X186286Y20897D01*
X186408Y21124D01*
X186504Y21344D01*
X186572Y21557D01*
X186612Y21762D01*
X186626Y21960D01*
X187626D01*
X187640Y21762D01*
D02*
G37*
G36*
X171476Y21776D02*
X171518Y21569D01*
X171587Y21357D01*
X171684Y21140D01*
X171809Y20917D01*
X171962Y20689D01*
X172142Y20455D01*
X172351Y20216D01*
X172850Y19723D01*
X169132Y19582D01*
X169385Y19859D01*
X169811Y20385D01*
X169983Y20634D01*
X170130Y20874D01*
X170249Y21106D01*
X170343Y21328D01*
X170409Y21541D01*
X170449Y21744D01*
X170462Y21939D01*
X171462Y21978D01*
X171476Y21776D01*
D02*
G37*
G36*
X150050Y17145D02*
X149571Y17034D01*
X148670Y16753D01*
X148248Y16583D01*
X147845Y16393D01*
X147460Y16183D01*
X147095Y15953D01*
X146748Y15704D01*
X146421Y15434D01*
X146112Y15145D01*
X143369Y16856D01*
X143673Y17188D01*
X143935Y17532D01*
X144154Y17888D01*
X144330Y18256D01*
X144463Y18637D01*
X144553Y19030D01*
X144601Y19435D01*
X144606Y19852D01*
X144568Y20282D01*
X144488Y20723D01*
X150050Y17145D01*
D02*
G37*
G36*
X70995Y18018D02*
X71029Y17970D01*
X71084Y17904D01*
X71374Y17587D01*
X72053Y16895D01*
X70244Y14250D01*
X70043Y14448D01*
X69382Y15021D01*
X69253Y15110D01*
X69138Y15176D01*
X69039Y15221D01*
X68954Y15244D01*
X68883Y15245D01*
X70982Y18046D01*
X70995Y18018D01*
D02*
G37*
G36*
X361402Y803D02*
X236221Y803D01*
Y9530D01*
X236240Y9532D01*
X237102Y9889D01*
X237842Y10457D01*
X238410Y11197D01*
X238767Y12059D01*
X238889Y12984D01*
Y13473D01*
X238767Y14397D01*
X238410Y15259D01*
X237842Y16000D01*
X237102Y16567D01*
X236240Y16925D01*
X236221Y16927D01*
Y19530D01*
X236240Y19532D01*
X237102Y19889D01*
X237842Y20457D01*
X238410Y21197D01*
X238767Y22059D01*
X238889Y22984D01*
Y23472D01*
X238767Y24397D01*
X238410Y25259D01*
X237842Y26000D01*
X237102Y26568D01*
X236240Y26924D01*
X236221Y26927D01*
Y29530D01*
X236240Y29532D01*
X237102Y29889D01*
X237842Y30457D01*
X238410Y31197D01*
X238767Y32059D01*
X238889Y32984D01*
Y33472D01*
X238767Y34397D01*
X238410Y35259D01*
X237842Y36000D01*
X237102Y36568D01*
X236240Y36924D01*
X236221Y36927D01*
Y262977D01*
X361402D01*
X361402Y803D01*
D02*
G37*
%LPC*%
G36*
X51840Y142421D02*
X50522D01*
X49229Y142164D01*
X48011Y141659D01*
X46915Y140927D01*
X45982Y139995D01*
X45250Y138899D01*
X44745Y137681D01*
X44488Y136388D01*
Y135069D01*
X44745Y133776D01*
X45250Y132558D01*
X45982Y131462D01*
X46915Y130530D01*
X48011Y129797D01*
X49229Y129293D01*
X50522Y129035D01*
X51840D01*
X53133Y129293D01*
X54351Y129797D01*
X55448Y130530D01*
X56380Y131462D01*
X57112Y132558D01*
X57617Y133776D01*
X57874Y135069D01*
Y136388D01*
X57617Y137681D01*
X57112Y138899D01*
X56380Y139995D01*
X55448Y140927D01*
X54351Y141659D01*
X53133Y142164D01*
X51840Y142421D01*
D02*
G37*
G36*
X199068Y117283D02*
X198136D01*
X197234Y117042D01*
X196426Y116576D01*
X195767Y115916D01*
X195564Y115565D01*
X195564Y115565D01*
X195351Y115298D01*
X194723Y115164D01*
X192481D01*
X191853Y115298D01*
X191640Y115565D01*
X191640Y115565D01*
X191437Y115916D01*
X190778Y116576D01*
X189970Y117042D01*
X189068Y117283D01*
X188136D01*
X187234Y117042D01*
X186426Y116576D01*
X185767Y115916D01*
X185564Y115565D01*
X185564Y115565D01*
X185351Y115298D01*
X184723Y115164D01*
X182481D01*
X181853Y115298D01*
X181640Y115565D01*
X181640Y115565D01*
X181438Y115916D01*
X180778Y116576D01*
X179970Y117042D01*
X179069Y117283D01*
X178136D01*
X177235Y117042D01*
X177235Y117042D01*
X176427Y116576D01*
X176427Y116575D01*
X175767Y115916D01*
X175300Y115287D01*
X174723Y115164D01*
X173209D01*
X172302Y115202D01*
X171853Y115298D01*
X171640Y115565D01*
X171640Y115565D01*
X171437Y115916D01*
X170778Y116576D01*
X169970Y117042D01*
X169069Y117283D01*
X168136D01*
X167234Y117042D01*
X166426Y116576D01*
X165767Y115916D01*
X165300Y115108D01*
X165059Y114207D01*
Y113274D01*
X165300Y112373D01*
X165767Y111565D01*
X166426Y110905D01*
X167234Y110438D01*
X168136Y110197D01*
X169069D01*
X169970Y110438D01*
X170778Y110905D01*
X171437Y111565D01*
X171640Y111915D01*
X171640Y111915D01*
X171853Y112182D01*
X172481Y112316D01*
X174723D01*
X175300Y112193D01*
X175767Y111565D01*
X176427Y110905D01*
X176427Y110905D01*
X177235Y110438D01*
X177235Y110438D01*
X177619Y110335D01*
X178136Y110197D01*
X179069D01*
X179970Y110438D01*
X180778Y110905D01*
X181438Y111565D01*
X181640Y111915D01*
X181640Y111916D01*
X181853Y112183D01*
X182481Y112316D01*
X184723D01*
X185351Y112183D01*
X185564Y111916D01*
X185564Y111915D01*
X185767Y111565D01*
X186426Y110905D01*
X187234Y110438D01*
X188136Y110197D01*
X189068D01*
X189970Y110438D01*
X189970Y110438D01*
X190778Y110905D01*
X190778Y110905D01*
X191437Y111565D01*
X191905Y112194D01*
X192481Y112316D01*
X194723D01*
X195351Y112182D01*
X195564Y111915D01*
X195564Y111915D01*
X195767Y111565D01*
X196426Y110905D01*
X197234Y110438D01*
X198136Y110197D01*
X199068D01*
X199970Y110438D01*
X200778Y110905D01*
X201437Y111565D01*
X201904Y112373D01*
X202145Y113274D01*
Y114207D01*
X201904Y115108D01*
X201437Y115916D01*
X200778Y116576D01*
X199970Y117042D01*
X199068Y117283D01*
D02*
G37*
G36*
X194069Y107283D02*
X193136D01*
X192234Y107042D01*
X192234Y107042D01*
X191426Y106576D01*
X191426Y106575D01*
X190767Y105916D01*
X190299Y105287D01*
X189723Y105164D01*
X188209D01*
X187302Y105202D01*
X186853Y105298D01*
X186640Y105565D01*
X186640Y105565D01*
X186437Y105916D01*
X185778Y106576D01*
X184970Y107042D01*
X184069Y107283D01*
X183136D01*
X182234Y107042D01*
X181426Y106576D01*
X180767Y105916D01*
X180564Y105565D01*
X180564Y105565D01*
X180351Y105298D01*
X179723Y105164D01*
X177481D01*
X176905Y105287D01*
X176437Y105916D01*
X175778Y106575D01*
X175778Y106576D01*
X174970Y107042D01*
X174970Y107042D01*
X174585Y107145D01*
X174068Y107283D01*
X173136D01*
X172234Y107042D01*
X171426Y106576D01*
X170767Y105916D01*
X170564Y105565D01*
X170564Y105565D01*
X170351Y105298D01*
X169723Y105164D01*
X167481D01*
X166853Y105298D01*
X166640Y105565D01*
X166640Y105565D01*
X166437Y105916D01*
X165778Y106576D01*
X164970Y107042D01*
X164068Y107283D01*
X163136D01*
X162234Y107042D01*
X161426Y106576D01*
X160767Y105916D01*
X160300Y105108D01*
X160059Y104207D01*
Y103274D01*
X160300Y102373D01*
X160767Y101565D01*
X161426Y100905D01*
X162234Y100438D01*
X163136Y100197D01*
X164068D01*
X164970Y100438D01*
X165778Y100905D01*
X166437Y101565D01*
X166640Y101915D01*
X166640Y101915D01*
X166853Y102182D01*
X167481Y102316D01*
X169723D01*
X170299Y102193D01*
X170767Y101565D01*
X171426Y100905D01*
X171426Y100905D01*
X172234Y100438D01*
X172234Y100438D01*
X172619Y100335D01*
X173136Y100197D01*
X174068D01*
X174970Y100438D01*
X175778Y100905D01*
X176437Y101565D01*
X176640Y101915D01*
X176640Y101915D01*
X176853Y102182D01*
X177481Y102316D01*
X179723D01*
X180351Y102182D01*
X180564Y101915D01*
X180564Y101915D01*
X180767Y101565D01*
X181426Y100905D01*
X182234Y100438D01*
X183136Y100197D01*
X184069D01*
X184970Y100438D01*
X185778Y100905D01*
X186437Y101565D01*
X186640Y101915D01*
X186640Y101915D01*
X186853Y102182D01*
X187481Y102316D01*
X189723D01*
X190299Y102193D01*
X190767Y101565D01*
X191426Y100905D01*
X191426Y100905D01*
X192234Y100438D01*
X192234Y100438D01*
X192619Y100335D01*
X193136Y100197D01*
X194069D01*
X194970Y100438D01*
X195778Y100905D01*
X196437Y101565D01*
X196904Y102373D01*
X197145Y103274D01*
Y104207D01*
X196904Y105108D01*
X196437Y105916D01*
X195778Y106576D01*
X194970Y107042D01*
X194069Y107283D01*
D02*
G37*
G36*
X204310Y85925D02*
X202895D01*
X201507Y85649D01*
X200199Y85107D01*
X199022Y84321D01*
X198021Y83320D01*
X197235Y82143D01*
X196693Y80836D01*
X196417Y79448D01*
Y78032D01*
X196693Y76644D01*
X197235Y75337D01*
X198021Y74160D01*
X199022Y73159D01*
X200199Y72373D01*
X201507Y71831D01*
X202895Y71555D01*
X204310D01*
X205698Y71831D01*
X207006Y72373D01*
X208183Y73159D01*
X209183Y74160D01*
X209970Y75337D01*
X210511Y76644D01*
X210787Y78032D01*
Y79448D01*
X210511Y80836D01*
X209970Y82143D01*
X209183Y83320D01*
X208183Y84321D01*
X207006Y85107D01*
X205698Y85649D01*
X204310Y85925D01*
D02*
G37*
G36*
X159310D02*
X157895D01*
X156507Y85649D01*
X155199Y85107D01*
X154022Y84321D01*
X153021Y83320D01*
X152235Y82143D01*
X151693Y80836D01*
X151417Y79448D01*
Y78032D01*
X151693Y76644D01*
X152235Y75337D01*
X153021Y74160D01*
X154022Y73159D01*
X155199Y72373D01*
X156507Y71831D01*
X157895Y71555D01*
X159310D01*
X160698Y71831D01*
X162006Y72373D01*
X163183Y73159D01*
X164183Y74160D01*
X164970Y75337D01*
X165511Y76644D01*
X165787Y78032D01*
Y79448D01*
X165511Y80836D01*
X164970Y82143D01*
X164183Y83320D01*
X163183Y84321D01*
X162006Y85107D01*
X160698Y85649D01*
X159310Y85925D01*
D02*
G37*
G36*
X166733Y66339D02*
X165748D01*
X164796Y66084D01*
X163944Y65591D01*
X163271Y64944D01*
X162497Y64199D01*
X159944D01*
X159170Y64944D01*
X158497Y65591D01*
X157644Y66084D01*
X156693Y66339D01*
X155708D01*
X154757Y66084D01*
X153904Y65591D01*
X153208Y64895D01*
X152716Y64042D01*
X152461Y63091D01*
Y62106D01*
X152716Y61155D01*
X153208Y60302D01*
X153904Y59606D01*
X154757Y59113D01*
X155708Y58858D01*
X156693D01*
X157644Y59113D01*
X158497Y59606D01*
X159170Y60253D01*
X159944Y60998D01*
X162497D01*
X163271Y60253D01*
X163944Y59606D01*
X164796Y59113D01*
X165748Y58858D01*
X166733D01*
X167684Y59113D01*
X168537Y59606D01*
X169233Y60302D01*
X169725Y61155D01*
X169980Y62106D01*
Y63091D01*
X169725Y64042D01*
X169233Y64895D01*
X168537Y65591D01*
X167684Y66084D01*
X166733Y66339D01*
D02*
G37*
G36*
X24706Y53150D02*
X22538D01*
X20395Y52810D01*
X18333Y52140D01*
X16400Y51155D01*
X14645Y49880D01*
X13112Y48347D01*
X11837Y46592D01*
X10852Y44660D01*
X10182Y42597D01*
X9843Y40455D01*
Y38286D01*
X10182Y36143D01*
X10852Y34081D01*
X11837Y32148D01*
X13112Y30393D01*
X14645Y28860D01*
X16400Y27585D01*
X18333Y26600D01*
X20395Y25930D01*
X22538Y25591D01*
X24706D01*
X26849Y25930D01*
X28912Y26600D01*
X30844Y27585D01*
X32599Y28860D01*
X34133Y30393D01*
X35407Y32148D01*
X36392Y34081D01*
X37062Y36143D01*
X37402Y38286D01*
Y40455D01*
X37062Y42597D01*
X36392Y44660D01*
X35407Y46592D01*
X34133Y48347D01*
X32599Y49880D01*
X30844Y51155D01*
X28912Y52140D01*
X26849Y52810D01*
X24706Y53150D01*
D02*
G37*
G36*
X339622Y261236D02*
X339083D01*
Y248532D01*
X351787D01*
Y249071D01*
X351462Y251124D01*
X350820Y253100D01*
X349876Y254952D01*
X348655Y256634D01*
X347185Y258103D01*
X345503Y259325D01*
X343652Y260269D01*
X341675Y260911D01*
X339622Y261236D01*
D02*
G37*
G36*
X338083D02*
X337543D01*
X335491Y260911D01*
X333514Y260269D01*
X331662Y259325D01*
X329980Y258103D01*
X328511Y256634D01*
X327289Y254952D01*
X326345Y253100D01*
X325703Y251124D01*
X325378Y249071D01*
Y248532D01*
X338083D01*
Y261236D01*
D02*
G37*
G36*
X307746Y260728D02*
X306427D01*
X305134Y260471D01*
X303916Y259967D01*
X302820Y259234D01*
X301888Y258302D01*
X301155Y257206D01*
X300651Y255988D01*
X300394Y254695D01*
Y253376D01*
X300651Y252083D01*
X301155Y250865D01*
X301888Y249769D01*
X302820Y248837D01*
X303916Y248104D01*
X305134Y247600D01*
X306427Y247342D01*
X307746D01*
X309039Y247600D01*
X310257Y248104D01*
X311353Y248837D01*
X312285Y249769D01*
X313018Y250865D01*
X313522Y252083D01*
X313779Y253376D01*
Y254695D01*
X313522Y255988D01*
X313018Y257206D01*
X312285Y258302D01*
X311353Y259234D01*
X310257Y259967D01*
X309039Y260471D01*
X307746Y260728D01*
D02*
G37*
G36*
X351787Y247532D02*
X339083D01*
Y234827D01*
X339622D01*
X341675Y235152D01*
X343652Y235794D01*
X345503Y236738D01*
X347185Y237960D01*
X348655Y239429D01*
X349876Y241111D01*
X350820Y242963D01*
X351462Y244939D01*
X351787Y246992D01*
Y247532D01*
D02*
G37*
G36*
X338083D02*
X325378D01*
Y246992D01*
X325703Y244939D01*
X326345Y242963D01*
X327289Y241111D01*
X328511Y239429D01*
X329980Y237960D01*
X331662Y236738D01*
X333514Y235794D01*
X335491Y235152D01*
X337543Y234827D01*
X338083D01*
Y247532D01*
D02*
G37*
G36*
X309704Y239350D02*
X308564D01*
X307462Y239055D01*
X306475Y238485D01*
X305668Y237679D01*
X305098Y236691D01*
X304803Y235590D01*
Y234450D01*
X305098Y233348D01*
X305668Y232361D01*
X306475Y231554D01*
X307462Y230984D01*
X308564Y230689D01*
X309704D01*
X310806Y230984D01*
X311793Y231554D01*
X312599Y232361D01*
X313169Y233348D01*
X313465Y234450D01*
Y235590D01*
X313169Y236691D01*
X312599Y237679D01*
X311793Y238485D01*
X310806Y239055D01*
X309704Y239350D01*
D02*
G37*
G36*
X309732Y229563D02*
X309634D01*
Y225520D01*
X313677D01*
Y225618D01*
X313368Y226773D01*
X312769Y227809D01*
X311924Y228655D01*
X310888Y229253D01*
X309732Y229563D01*
D02*
G37*
G36*
X308634D02*
X308536D01*
X307380Y229253D01*
X306344Y228655D01*
X305498Y227809D01*
X304900Y226773D01*
X304591Y225618D01*
Y225520D01*
X308634D01*
Y229563D01*
D02*
G37*
G36*
X340657Y226137D02*
Y222941D01*
X343854D01*
X343605Y223869D01*
X343118Y224713D01*
X342429Y225402D01*
X341586Y225889D01*
X340657Y226137D01*
D02*
G37*
G36*
X339657Y226137D02*
X338729Y225889D01*
X337886Y225402D01*
X337197Y224713D01*
X336710Y223869D01*
X336461Y222941D01*
X339657D01*
Y226137D01*
D02*
G37*
G36*
X313677Y224520D02*
X309634D01*
Y220476D01*
X309732D01*
X310888Y220786D01*
X311924Y221384D01*
X312769Y222230D01*
X313368Y223266D01*
X313677Y224422D01*
Y224520D01*
D02*
G37*
G36*
X308634D02*
X304591D01*
Y224422D01*
X304900Y223266D01*
X305498Y222230D01*
X306344Y221384D01*
X307380Y220786D01*
X308536Y220476D01*
X308634D01*
Y224520D01*
D02*
G37*
G36*
X343854Y221941D02*
X340657D01*
Y218744D01*
X341586Y218993D01*
X342429Y219480D01*
X343118Y220169D01*
X343605Y221013D01*
X343854Y221941D01*
D02*
G37*
G36*
X339657D02*
X336461D01*
X336710Y221013D01*
X337197Y220169D01*
X337886Y219480D01*
X338729Y218993D01*
X339657Y218744D01*
Y221941D01*
D02*
G37*
G36*
X309732Y219563D02*
X309634D01*
Y215520D01*
X313677D01*
Y215618D01*
X313368Y216773D01*
X312769Y217809D01*
X311924Y218655D01*
X310888Y219253D01*
X309732Y219563D01*
D02*
G37*
G36*
X308634D02*
X308536D01*
X307380Y219253D01*
X306344Y218655D01*
X305498Y217809D01*
X304900Y216773D01*
X304591Y215618D01*
Y215520D01*
X308634D01*
Y219563D01*
D02*
G37*
G36*
X313677Y214520D02*
X309634D01*
Y210476D01*
X309732D01*
X310888Y210786D01*
X311924Y211384D01*
X312769Y212230D01*
X313368Y213266D01*
X313677Y214422D01*
Y214520D01*
D02*
G37*
G36*
X308634D02*
X304591D01*
Y214422D01*
X304900Y213266D01*
X305498Y212230D01*
X306344Y211384D01*
X307380Y210786D01*
X308536Y210476D01*
X308634D01*
Y214520D01*
D02*
G37*
G36*
X334252Y217323D02*
X320866D01*
Y208480D01*
X320654D01*
Y204043D01*
X334465D01*
Y208480D01*
X334252D01*
Y217323D01*
D02*
G37*
G36*
X340617Y206243D02*
X339698D01*
X338811Y206006D01*
X338016Y205546D01*
X337367Y204897D01*
X336908Y204102D01*
X336670Y203215D01*
Y202297D01*
X336908Y201410D01*
X337367Y200615D01*
X338016Y199965D01*
X338811Y199506D01*
X339698Y199268D01*
X340617D01*
X341504Y199506D01*
X342299Y199965D01*
X342948Y200615D01*
X343407Y201410D01*
X343645Y202297D01*
Y203215D01*
X343407Y204102D01*
X342948Y204897D01*
X342299Y205546D01*
X341504Y206006D01*
X340617Y206243D01*
D02*
G37*
G36*
X309704Y209350D02*
X308564D01*
X307462Y209055D01*
X306475Y208485D01*
X305668Y207679D01*
X305098Y206691D01*
X304803Y205590D01*
Y204450D01*
X305098Y203348D01*
X305361Y202892D01*
Y197147D01*
X305098Y196691D01*
X304803Y195590D01*
Y194450D01*
X304913Y194040D01*
X304884Y193557D01*
X304835Y193180D01*
X304778Y192871D01*
X304718Y192767D01*
X304341Y192199D01*
X303993Y191735D01*
X292379Y180121D01*
X292094Y179695D01*
X291995Y179193D01*
Y118073D01*
X291207Y117746D01*
X290843Y118111D01*
X289945Y118629D01*
X288944Y118898D01*
X287907D01*
X286906Y118629D01*
X286008Y118111D01*
X285275Y117378D01*
X284756Y116480D01*
X284488Y115479D01*
Y114442D01*
X284756Y113441D01*
X285275Y112543D01*
X286008Y111810D01*
X286906Y111292D01*
X287907Y111024D01*
X288944D01*
X289945Y111292D01*
X290843Y111810D01*
X291207Y112175D01*
X291995Y111849D01*
Y110780D01*
X272291Y91076D01*
X256589D01*
X256233Y91433D01*
X255510Y91732D01*
X254727D01*
X254003Y91433D01*
X253449Y90879D01*
X253150Y90155D01*
Y89372D01*
X253449Y88649D01*
X254003Y88095D01*
X254727Y87795D01*
X255510D01*
X256233Y88095D01*
X256589Y88451D01*
X272835D01*
X273337Y88551D01*
X273763Y88836D01*
X294235Y109308D01*
X294520Y109734D01*
X294620Y110236D01*
Y112129D01*
X294860Y112281D01*
X295407Y112411D01*
X296008Y111810D01*
X296906Y111292D01*
X297907Y111024D01*
X298943D01*
X299466Y111164D01*
X299873Y110458D01*
X281322Y91906D01*
X281148Y91646D01*
X281087Y91339D01*
Y74803D01*
X281148Y74496D01*
X281322Y74235D01*
X281582Y74061D01*
X281890Y74000D01*
X285542D01*
X285984Y73213D01*
X285827Y72833D01*
Y72049D01*
X286126Y71326D01*
X286680Y70772D01*
X287404Y70472D01*
X288187D01*
X288910Y70772D01*
X289267Y71128D01*
X295126D01*
X298819Y67435D01*
Y66931D01*
X299119Y66208D01*
X299672Y65654D01*
X300396Y65354D01*
X301179D01*
X301903Y65654D01*
X302456Y66208D01*
X302756Y66931D01*
Y67714D01*
X302456Y68438D01*
X301903Y68992D01*
X301179Y69291D01*
X300675D01*
X296754Y73213D01*
X296926Y73826D01*
X297051Y74000D01*
X303543D01*
X303851Y74061D01*
X304111Y74235D01*
X304111Y74235D01*
X311238Y81363D01*
X312117Y81128D01*
X312248Y80637D01*
X312743Y79780D01*
X313442Y79081D01*
X314298Y78587D01*
X315248Y78332D01*
Y82087D01*
X315748D01*
Y82587D01*
X319502D01*
X319248Y83536D01*
X319071Y83843D01*
X319526Y84630D01*
X355906Y84630D01*
X356213Y84691D01*
X356473Y84865D01*
X356647Y85126D01*
X356708Y85433D01*
Y99606D01*
X356647Y99914D01*
X356473Y100174D01*
X356213Y100348D01*
X355906Y100409D01*
X342852D01*
X339779Y103482D01*
Y116142D01*
X339718Y116449D01*
X339544Y116709D01*
X339284Y116883D01*
X338976Y116945D01*
X332175D01*
X332035Y117215D01*
X331933Y117732D01*
X332378Y118176D01*
X332677Y118900D01*
Y119683D01*
X332378Y120406D01*
X331824Y120960D01*
X331100Y121260D01*
X330317D01*
X330185Y121205D01*
X330055Y121291D01*
X329553Y121391D01*
X315645D01*
X315288Y121748D01*
X314565Y122047D01*
X313782D01*
X313058Y121748D01*
X312504Y121194D01*
X312205Y120470D01*
Y119687D01*
X312504Y118964D01*
X313058Y118410D01*
X313782Y118110D01*
X314565D01*
X315288Y118410D01*
X315645Y118766D01*
X328796D01*
X329040Y118176D01*
X329484Y117732D01*
X329382Y117215D01*
X329243Y116945D01*
X306693D01*
X306693Y116945D01*
X306386Y116883D01*
X306125Y116709D01*
X306125Y116709D01*
X302928Y113512D01*
X302222Y113920D01*
X302362Y114442D01*
Y115479D01*
X302094Y116480D01*
X301576Y117378D01*
X300843Y118111D01*
X299945Y118629D01*
X298943Y118898D01*
X297907D01*
X296906Y118629D01*
X296008Y118111D01*
X295407Y117510D01*
X294860Y117640D01*
X294620Y117792D01*
Y178649D01*
X305850Y189879D01*
X306313Y190227D01*
X306882Y190604D01*
X306985Y190663D01*
X307294Y190721D01*
X307671Y190770D01*
X308061Y190793D01*
X308801Y190053D01*
X308427Y189314D01*
X307462Y189055D01*
X306475Y188485D01*
X305668Y187679D01*
X305098Y186691D01*
X304803Y185590D01*
Y184450D01*
X305098Y183348D01*
X305361Y182892D01*
Y177147D01*
X305098Y176691D01*
X304803Y175590D01*
Y174450D01*
X305098Y173348D01*
X305668Y172361D01*
X306475Y171554D01*
X307462Y170984D01*
X308564Y170689D01*
X309704D01*
X310806Y170984D01*
X311793Y171554D01*
X312599Y172361D01*
X313169Y173348D01*
X313465Y174450D01*
Y175590D01*
X313362Y175971D01*
X314068Y176379D01*
X317721Y172726D01*
X318502Y172127D01*
X319412Y171750D01*
X320389Y171621D01*
X320866D01*
Y169323D01*
X320545Y169214D01*
X320092Y169113D01*
X318889Y169018D01*
X310870D01*
X310806Y169055D01*
X309704Y169350D01*
X308564D01*
X307462Y169055D01*
X306475Y168485D01*
X305668Y167679D01*
X305098Y166691D01*
X304803Y165590D01*
Y164450D01*
X305098Y163348D01*
X305361Y162892D01*
Y157147D01*
X305098Y156691D01*
X304803Y155590D01*
Y154450D01*
X305098Y153348D01*
X305668Y152361D01*
X306475Y151554D01*
X307462Y150984D01*
X308564Y150689D01*
X309704D01*
X310806Y150984D01*
X311793Y151554D01*
X312599Y152361D01*
X313169Y153348D01*
X313465Y154450D01*
Y155590D01*
X313169Y156691D01*
X312906Y157147D01*
Y161473D01*
X319769D01*
X320093Y161434D01*
X320578Y161348D01*
X320866Y161270D01*
Y160630D01*
X334252D01*
Y168945D01*
X334646Y169670D01*
X337367D01*
X337675Y169731D01*
X337935Y169905D01*
X338109Y170165D01*
X338777Y170392D01*
X338811Y170372D01*
X339698Y170135D01*
X340617D01*
X341504Y170372D01*
X341538Y170392D01*
X342206Y170165D01*
X342380Y169905D01*
X342640Y169731D01*
X342948Y169670D01*
X346457D01*
X346764Y169731D01*
X347024Y169905D01*
X347198Y170165D01*
X347259Y170472D01*
Y188976D01*
X347198Y189284D01*
X347024Y189544D01*
X339150Y197418D01*
X338890Y197592D01*
X338583Y197653D01*
X334252D01*
Y198606D01*
X334465D01*
Y203043D01*
X320654D01*
Y198606D01*
X320866D01*
Y189764D01*
X321244D01*
Y188189D01*
X320866D01*
Y182144D01*
X320079Y181723D01*
X320002Y181774D01*
Y187959D01*
X319874Y188935D01*
X319497Y189845D01*
X318897Y190627D01*
X313293Y196231D01*
X313169Y196691D01*
X312906Y197147D01*
Y202892D01*
X313169Y203348D01*
X313465Y204450D01*
Y205590D01*
X313169Y206691D01*
X312599Y207679D01*
X311793Y208485D01*
X310806Y209055D01*
X309704Y209350D01*
D02*
G37*
G36*
X340617Y157424D02*
X339698D01*
X338811Y157187D01*
X338016Y156728D01*
X337367Y156078D01*
X336908Y155283D01*
X336670Y154396D01*
Y153478D01*
X336908Y152591D01*
X337367Y151796D01*
X338016Y151146D01*
X338811Y150687D01*
X339698Y150450D01*
X340617D01*
X341504Y150687D01*
X342299Y151146D01*
X342948Y151796D01*
X343407Y152591D01*
X343645Y153478D01*
Y154396D01*
X343407Y155283D01*
X342948Y156078D01*
X342299Y156728D01*
X341504Y157187D01*
X340617Y157424D01*
D02*
G37*
G36*
X307746Y142421D02*
X306427D01*
X305134Y142164D01*
X303916Y141659D01*
X302820Y140927D01*
X301888Y139995D01*
X301155Y138899D01*
X300651Y137681D01*
X300394Y136388D01*
Y135069D01*
X300651Y133776D01*
X301155Y132558D01*
X301888Y131462D01*
X302820Y130530D01*
X303916Y129797D01*
X305134Y129293D01*
X306427Y129035D01*
X307746D01*
X309039Y129293D01*
X310257Y129797D01*
X311353Y130530D01*
X312285Y131462D01*
X313018Y132558D01*
X313522Y133776D01*
X313779Y135069D01*
Y136388D01*
X313522Y137681D01*
X313018Y138899D01*
X312285Y139995D01*
X311353Y140927D01*
X310257Y141659D01*
X309039Y142164D01*
X307746Y142421D01*
D02*
G37*
G36*
X252575Y119110D02*
X248925D01*
Y115461D01*
X252575D01*
Y119110D01*
D02*
G37*
G36*
X247925D02*
X244276D01*
Y115461D01*
X247925D01*
Y119110D01*
D02*
G37*
G36*
X278943Y118898D02*
X277907D01*
X276906Y118629D01*
X276008Y118111D01*
X275275Y117378D01*
X274757Y116480D01*
X274488Y115479D01*
Y114442D01*
X274757Y113441D01*
X275275Y112543D01*
X276008Y111810D01*
X276906Y111292D01*
X277907Y111024D01*
X278943D01*
X279945Y111292D01*
X280843Y111810D01*
X281576Y112543D01*
X282094Y113441D01*
X282362Y114442D01*
Y115479D01*
X282094Y116480D01*
X281576Y117378D01*
X280843Y118111D01*
X279945Y118629D01*
X278943Y118898D01*
D02*
G37*
G36*
X268944D02*
X267907D01*
X266906Y118629D01*
X266008Y118111D01*
X265275Y117378D01*
X264756Y116480D01*
X264488Y115479D01*
Y114442D01*
X264756Y113441D01*
X265275Y112543D01*
X266008Y111810D01*
X266906Y111292D01*
X267907Y111024D01*
X268944D01*
X269945Y111292D01*
X270843Y111810D01*
X271576Y112543D01*
X272094Y113441D01*
X272362Y114442D01*
Y115479D01*
X272094Y116480D01*
X271576Y117378D01*
X270843Y118111D01*
X269945Y118629D01*
X268944Y118898D01*
D02*
G37*
G36*
X258944D02*
X257907D01*
X256906Y118629D01*
X256008Y118111D01*
X255275Y117378D01*
X254756Y116480D01*
X254488Y115479D01*
Y114442D01*
X254756Y113441D01*
X255275Y112543D01*
X256008Y111810D01*
X256906Y111292D01*
X257907Y111024D01*
X258944D01*
X259945Y111292D01*
X260843Y111810D01*
X261576Y112543D01*
X262094Y113441D01*
X262362Y114442D01*
Y115479D01*
X262094Y116480D01*
X261576Y117378D01*
X260843Y118111D01*
X259945Y118629D01*
X258944Y118898D01*
D02*
G37*
G36*
X252575Y114461D02*
X248925D01*
Y110811D01*
X252575D01*
Y114461D01*
D02*
G37*
G36*
X247925D02*
X244276D01*
Y110811D01*
X247925D01*
Y114461D01*
D02*
G37*
G36*
X319502Y81587D02*
X316248D01*
Y78332D01*
X317198Y78587D01*
X318054Y79081D01*
X318754Y79780D01*
X319248Y80637D01*
X319502Y81587D01*
D02*
G37*
G36*
X347987Y81296D02*
X347941D01*
Y77646D01*
X351591D01*
Y77692D01*
X351308Y78747D01*
X350762Y79694D01*
X349989Y80467D01*
X349043Y81013D01*
X347987Y81296D01*
D02*
G37*
G36*
X346941D02*
X346895D01*
X345839Y81013D01*
X344893Y80467D01*
X344120Y79694D01*
X343574Y78747D01*
X343291Y77692D01*
Y77646D01*
X346941D01*
Y81296D01*
D02*
G37*
G36*
X351591Y76646D02*
X347941D01*
Y72996D01*
X347987D01*
X349043Y73278D01*
X349989Y73825D01*
X350762Y74598D01*
X351308Y75544D01*
X351591Y76599D01*
Y76646D01*
D02*
G37*
G36*
X346941D02*
X343291D01*
Y76599D01*
X343574Y75544D01*
X344120Y74598D01*
X344893Y73825D01*
X345839Y73278D01*
X346895Y72996D01*
X346941D01*
Y76646D01*
D02*
G37*
G36*
X339622Y52575D02*
X339083D01*
Y39870D01*
X351787D01*
Y40409D01*
X351462Y42462D01*
X350820Y44439D01*
X349876Y46291D01*
X348655Y47972D01*
X347185Y49442D01*
X345503Y50664D01*
X343652Y51607D01*
X341675Y52250D01*
X339622Y52575D01*
D02*
G37*
G36*
X338083D02*
X337543D01*
X335491Y52250D01*
X333514Y51607D01*
X331662Y50664D01*
X329980Y49442D01*
X328511Y47972D01*
X327289Y46291D01*
X326345Y44439D01*
X325703Y42462D01*
X325378Y40409D01*
Y39870D01*
X338083D01*
Y52575D01*
D02*
G37*
G36*
X274016Y44722D02*
X265354D01*
X264224Y44574D01*
X263170Y44137D01*
X262266Y43443D01*
X261572Y42538D01*
X261135Y41485D01*
X260986Y40354D01*
X261135Y39224D01*
X261572Y38170D01*
X262266Y37266D01*
X263170Y36571D01*
X264224Y36135D01*
X265354Y35986D01*
X274016D01*
X275146Y36135D01*
X276200Y36571D01*
X277104Y37266D01*
X277799Y38170D01*
X278235Y39224D01*
X278384Y40354D01*
X278235Y41485D01*
X277799Y42538D01*
X277104Y43443D01*
X276200Y44137D01*
X275146Y44574D01*
X274016Y44722D01*
D02*
G37*
G36*
X289083Y36597D02*
Y29043D01*
X292371D01*
Y32874D01*
X292242Y33854D01*
X291863Y34768D01*
X291261Y35553D01*
X290477Y36155D01*
X289563Y36533D01*
X289083Y36597D01*
D02*
G37*
G36*
X288083D02*
X287602Y36533D01*
X286688Y36155D01*
X285904Y35553D01*
X285302Y34768D01*
X284924Y33854D01*
X284794Y32874D01*
Y29043D01*
X288083D01*
Y36597D01*
D02*
G37*
G36*
X351787Y38870D02*
X339083D01*
Y26165D01*
X339622D01*
X341675Y26491D01*
X343652Y27133D01*
X345503Y28076D01*
X347185Y29298D01*
X348655Y30768D01*
X349876Y32449D01*
X350820Y34301D01*
X351462Y36278D01*
X351787Y38331D01*
Y38870D01*
D02*
G37*
G36*
X338083D02*
X325378D01*
Y38331D01*
X325703Y36278D01*
X326345Y34301D01*
X327289Y32449D01*
X328511Y30768D01*
X329980Y29298D01*
X331662Y28076D01*
X333514Y27133D01*
X335491Y26491D01*
X337543Y26165D01*
X338083D01*
Y38870D01*
D02*
G37*
G36*
X292371Y28043D02*
X289083D01*
Y20490D01*
X289563Y20553D01*
X290477Y20932D01*
X291261Y21534D01*
X291863Y22319D01*
X292242Y23232D01*
X292371Y24213D01*
Y28043D01*
D02*
G37*
G36*
X288083D02*
X284794D01*
Y24213D01*
X284924Y23232D01*
X285302Y22319D01*
X285904Y21534D01*
X286688Y20932D01*
X287602Y20553D01*
X288083Y20490D01*
Y28043D01*
D02*
G37*
G36*
X274016Y19536D02*
X270185D01*
Y16248D01*
X277738D01*
X277675Y16728D01*
X277296Y17642D01*
X276694Y18427D01*
X275910Y19029D01*
X274996Y19407D01*
X274016Y19536D01*
D02*
G37*
G36*
X269185D02*
X265354D01*
X264374Y19407D01*
X263460Y19029D01*
X262676Y18427D01*
X262074Y17642D01*
X261695Y16728D01*
X261632Y16248D01*
X269185D01*
Y19536D01*
D02*
G37*
G36*
X277738Y15248D02*
X270185D01*
Y11960D01*
X274016D01*
X274996Y12089D01*
X275910Y12467D01*
X276694Y13069D01*
X277296Y13854D01*
X277675Y14768D01*
X277738Y15248D01*
D02*
G37*
G36*
X269185D02*
X261632D01*
X261695Y14768D01*
X262074Y13854D01*
X262676Y13069D01*
X263460Y12467D01*
X264374Y12089D01*
X265354Y11960D01*
X269185D01*
Y15248D01*
D02*
G37*
%LPD*%
G36*
X309136Y192067D02*
X308672Y192030D01*
X308568Y192007D01*
X309098Y191477D01*
X308563Y191474D01*
X307610Y191417D01*
X307192Y191363D01*
X306813Y191292D01*
X306746Y191274D01*
X306541Y191158D01*
X305939Y190758D01*
X305309Y190286D01*
X303967Y189123D01*
X303254Y188433D01*
X302547Y189140D01*
X303237Y189852D01*
X304400Y191195D01*
X304872Y191825D01*
X305272Y192427D01*
X305389Y192632D01*
X305406Y192699D01*
X305477Y193078D01*
X305531Y193496D01*
X305588Y194449D01*
X305591Y194984D01*
X306121Y194454D01*
X306144Y194558D01*
X306181Y195022D01*
X309136Y192067D01*
D02*
G37*
G36*
X346457Y188976D02*
Y170472D01*
X342948D01*
X342741Y170972D01*
X343118Y171350D01*
X343605Y172194D01*
X343854Y173122D01*
X340158D01*
X336461D01*
X336710Y172194D01*
X337197Y171350D01*
X337575Y170972D01*
X337367Y170472D01*
X334646D01*
Y180315D01*
X322047D01*
Y196850D01*
X338583D01*
X346457Y188976D01*
D02*
G37*
G36*
X321666Y161429D02*
X321606Y161593D01*
X321429Y161740D01*
X321134Y161870D01*
X320721Y161982D01*
X320189Y162077D01*
X319540Y162155D01*
X317886Y162258D01*
X315760Y162293D01*
Y168199D01*
X316882Y168209D01*
X320189Y168469D01*
X320721Y168588D01*
X321134Y168728D01*
X321429Y168890D01*
X321606Y169074D01*
X321666Y169279D01*
Y161429D01*
D02*
G37*
G36*
X315084Y120843D02*
X315157Y120788D01*
X315235Y120739D01*
X315320Y120696D01*
X315411Y120660D01*
X315507Y120631D01*
X315610Y120608D01*
X315718Y120592D01*
X315832Y120582D01*
X315952Y120579D01*
Y119579D01*
X315832Y119576D01*
X315718Y119566D01*
X315610Y119549D01*
X315507Y119527D01*
X315411Y119497D01*
X315320Y119461D01*
X315235Y119419D01*
X315157Y119370D01*
X315084Y119314D01*
X315017Y119252D01*
Y120905D01*
X315084Y120843D01*
D02*
G37*
G36*
X256029Y90529D02*
X256101Y90473D01*
X256180Y90424D01*
X256265Y90381D01*
X256356Y90346D01*
X256452Y90316D01*
X256554Y90293D01*
X256663Y90277D01*
X256777Y90267D01*
X256897Y90264D01*
Y89264D01*
X256777Y89261D01*
X256663Y89251D01*
X256554Y89234D01*
X256452Y89211D01*
X256356Y89182D01*
X256265Y89146D01*
X256180Y89104D01*
X256101Y89055D01*
X256029Y88999D01*
X255962Y88937D01*
Y90591D01*
X256029Y90529D01*
D02*
G37*
G36*
X338976Y103150D02*
X342520Y99606D01*
X355906D01*
Y85433D01*
X316949Y85433D01*
X316214Y85630D01*
X315282D01*
X314547Y85433D01*
X314173D01*
X313785Y85044D01*
X313572Y84922D01*
X312913Y84262D01*
X312790Y84050D01*
X303543Y74803D01*
X281890D01*
Y91339D01*
X306693Y116142D01*
X338976D01*
Y103150D01*
D02*
G37*
G36*
X288706Y73206D02*
X288779Y73150D01*
X288858Y73101D01*
X288942Y73059D01*
X289033Y73023D01*
X289129Y72993D01*
X289231Y72970D01*
X289340Y72954D01*
X289454Y72944D01*
X289574Y72941D01*
Y71941D01*
X289454Y71938D01*
X289340Y71928D01*
X289231Y71912D01*
X289129Y71889D01*
X289033Y71859D01*
X288942Y71823D01*
X288858Y71781D01*
X288779Y71732D01*
X288706Y71676D01*
X288639Y71614D01*
Y73268D01*
X288706Y73206D01*
D02*
G37*
G36*
X299970Y68852D02*
X300058Y68778D01*
X300146Y68713D01*
X300235Y68657D01*
X300324Y68609D01*
X300413Y68571D01*
X300503Y68541D01*
X300593Y68520D01*
X300684Y68507D01*
X300776Y68504D01*
X299606Y67335D01*
X299603Y67426D01*
X299591Y67517D01*
X299570Y67607D01*
X299540Y67697D01*
X299501Y67787D01*
X299454Y67875D01*
X299397Y67964D01*
X299332Y68052D01*
X299259Y68140D01*
X299176Y68227D01*
X299883Y68934D01*
X299970Y68852D01*
D02*
G37*
%LPC*%
G36*
X340657Y177319D02*
Y174122D01*
X343854D01*
X343605Y175050D01*
X343118Y175894D01*
X342429Y176583D01*
X341586Y177070D01*
X340657Y177319D01*
D02*
G37*
G36*
X339657Y177319D02*
X338729Y177070D01*
X337886Y176583D01*
X337197Y175894D01*
X336710Y175050D01*
X336461Y174122D01*
X339657D01*
Y177319D01*
D02*
G37*
G36*
X316248Y99621D02*
Y96366D01*
X319502D01*
X319248Y97316D01*
X318754Y98172D01*
X318054Y98872D01*
X317198Y99366D01*
X316248Y99621D01*
D02*
G37*
G36*
X315248D02*
X314298Y99366D01*
X313442Y98872D01*
X312743Y98172D01*
X312248Y97316D01*
X311994Y96366D01*
X315248D01*
Y99621D01*
D02*
G37*
G36*
X347987Y96296D02*
X347941D01*
Y92646D01*
X351591D01*
Y92692D01*
X351308Y93748D01*
X350762Y94694D01*
X349989Y95467D01*
X349043Y96013D01*
X347987Y96296D01*
D02*
G37*
G36*
X346941D02*
X346895D01*
X345839Y96013D01*
X344893Y95467D01*
X344120Y94694D01*
X343574Y93748D01*
X343291Y92692D01*
Y92646D01*
X346941D01*
Y96296D01*
D02*
G37*
G36*
X315248Y95366D02*
X311994D01*
X312248Y94416D01*
X312743Y93560D01*
X313442Y92861D01*
X314298Y92366D01*
X315248Y92112D01*
Y95366D01*
D02*
G37*
G36*
X319502D02*
X316248D01*
Y92112D01*
X317198Y92366D01*
X318054Y92861D01*
X318754Y93560D01*
X319248Y94416D01*
X319502Y95366D01*
D02*
G37*
G36*
X351591Y91646D02*
X347941D01*
Y87996D01*
X347987D01*
X349043Y88279D01*
X349989Y88825D01*
X350762Y89597D01*
X351308Y90544D01*
X351591Y91599D01*
Y91646D01*
D02*
G37*
G36*
X346941D02*
X343291D01*
Y91599D01*
X343574Y90544D01*
X344120Y89597D01*
X344893Y88825D01*
X345839Y88279D01*
X346895Y87996D01*
X346941D01*
Y91646D01*
D02*
G37*
%LPD*%
D13*
X146582Y27496D02*
X146682Y27596D01*
X151507D01*
X151607Y27496D01*
X133796D02*
X146582D01*
X151607D02*
X154752D01*
X152331Y29243D02*
X154752D01*
X85752Y32519D02*
X91346Y26924D01*
X85662Y35200D02*
X85752Y35111D01*
X82700Y35200D02*
X82961Y34939D01*
Y32839D02*
Y34939D01*
X85752Y32519D02*
Y35111D01*
X154752Y29243D02*
X164620D01*
X82961Y32839D02*
X90623Y25177D01*
X131477D02*
X133796Y27496D01*
X133173Y29343D02*
X152231D01*
X152331Y29243D01*
X166648Y25164D02*
X167047Y24764D01*
X130754Y26924D02*
X133173Y29343D01*
X164620Y29243D02*
X164913Y28950D01*
X170962Y17857D02*
X171063Y17756D01*
X170962Y17857D02*
Y26163D01*
X168175Y28950D02*
X170962Y26163D01*
X166648Y25164D02*
Y26789D01*
X164913Y28950D02*
X168175D01*
X164603Y26789D02*
X166648D01*
X163896Y27496D02*
X164603Y26789D01*
X91346Y26924D02*
X130754D01*
X90623Y25177D02*
X131477D01*
X287795Y72441D02*
X295669D01*
X300787Y67323D01*
X255118Y89764D02*
X272835D01*
X293307Y110236D01*
Y179193D02*
X309134Y195020D01*
X293307Y110236D02*
Y179193D01*
X223622Y46457D02*
X226378Y43701D01*
X223622Y46457D02*
Y124803D01*
X225984Y52756D02*
Y125591D01*
X128177Y32086D02*
X129691Y33600D01*
X114586Y32086D02*
X128177D01*
X127453Y33833D02*
X128967Y35347D01*
X115309Y33833D02*
X127453D01*
X129691Y33600D02*
X148537D01*
X128967Y35347D02*
X147813D01*
X176476Y26161D02*
X180013Y29698D01*
Y30526D01*
X179427Y31112D02*
X180013Y30526D01*
X177028Y31112D02*
X179427D01*
X176592Y31548D02*
X177028Y31112D01*
X176592Y31548D02*
Y32857D01*
X177028Y33293D01*
X180667D01*
X181253Y33879D01*
Y34747D01*
X180026Y35974D02*
X181253Y34747D01*
X148784Y36318D02*
Y36318D01*
Y36318D02*
X149284Y36818D01*
Y36818D01*
X150213Y37747D01*
X155209D01*
X156818Y36138D01*
Y35426D02*
Y36138D01*
Y35426D02*
X157255Y34990D01*
X158563D01*
X158999Y35426D01*
Y37896D01*
X160459Y39356D01*
X163215D01*
X164674Y37896D01*
Y35426D02*
Y37896D01*
Y35426D02*
X165111Y34990D01*
X166419D01*
X166856Y35426D01*
Y36138D01*
X168465Y37747D01*
X170200D01*
Y37747D02*
Y37747D01*
X148784Y33847D02*
X148784D01*
X148784D02*
X150519Y35582D01*
X150519D01*
X150937Y36000D01*
X154485D01*
X155071Y35414D01*
Y34703D02*
Y35414D01*
Y34703D02*
X156531Y33243D01*
X159287D01*
X160746Y34703D01*
Y37172D01*
X161183Y37609D01*
X162491D01*
X162927Y37172D01*
Y34703D02*
Y37172D01*
Y34703D02*
X164387Y33243D01*
X167143D01*
X168603Y34703D01*
Y35414D01*
X169188Y36000D01*
X170200D01*
X147813Y35347D02*
X148784Y36318D01*
X148537Y33600D02*
X148784Y33847D01*
X147813Y35347D02*
X147813D01*
X154752Y27496D02*
X155681D01*
X156267Y26910D01*
Y25178D02*
Y26910D01*
Y25178D02*
X156703Y24742D01*
X158012D01*
X158448Y25178D01*
Y27060D01*
X158885Y27496D01*
X160193D01*
X160629Y27060D01*
Y25178D02*
Y27060D01*
Y25178D02*
X161066Y24742D01*
X162374D01*
X162811Y25178D01*
Y26910D01*
X163396Y27496D01*
X163896D01*
X175079Y24764D02*
X176476Y26161D01*
X180000Y36000D02*
X180026Y35974D01*
X170200Y36000D02*
X180000D01*
X170200Y37747D02*
X180724D01*
X183000Y31000D02*
Y35471D01*
Y31000D02*
X187126Y26874D01*
Y17756D02*
Y26874D01*
X180724Y37747D02*
X183000Y35471D01*
X112000Y36700D02*
X112261Y36439D01*
Y34411D02*
X114586Y32086D01*
X114724Y34419D02*
Y35655D01*
X115900Y36831D01*
Y37200D01*
X112261Y34411D02*
Y36439D01*
X114724Y34419D02*
X115309Y33833D01*
X228346Y64567D02*
Y126378D01*
X208110Y43701D02*
X220760Y56350D01*
Y122005D01*
X145866Y205709D02*
X225984Y125591D01*
X150000Y198425D02*
X223622Y124803D01*
X218110Y64961D02*
Y101575D01*
X166053Y52362D02*
X205512D01*
X218110Y64961D01*
X158255Y44564D02*
X166053Y52362D01*
X154095Y43701D02*
X154958Y44564D01*
X158255D01*
X329553Y120079D02*
X330340Y119291D01*
X314173Y120079D02*
X329553D01*
X330340Y119291D02*
X330709D01*
X202598Y49213D02*
X208110Y43701D01*
X163110D02*
X168622Y49213D01*
X202598D01*
X52539Y198425D02*
X150000D01*
X49823Y205709D02*
X145866D01*
X143307Y211417D02*
X228346Y126378D01*
X52736Y211417D02*
X143307D01*
X49134Y195020D02*
X52539Y198425D01*
X49134Y215020D02*
X52736Y211417D01*
X208110Y43701D02*
X208110D01*
X49134Y205020D02*
X49823Y205709D01*
D15*
X119280Y14961D02*
X128279D01*
X143701D01*
X149094Y20354D02*
Y21772D01*
X143701Y14961D02*
X149094Y20354D01*
X83280Y14961D02*
X92279D01*
X110280D01*
X71761D02*
X83280D01*
X110280D02*
X119280D01*
X71761D02*
X74279D01*
X92279D02*
X101279D01*
X69005Y17717D02*
X71761Y14961D01*
X68504Y17717D02*
X69005D01*
X29528Y90551D02*
X68248Y51831D01*
X106555D01*
X72835Y60236D02*
X113386D01*
X121653Y51968D01*
X30453Y75059D02*
Y75739D01*
Y75059D02*
X66398Y39114D01*
Y38434D02*
X67323Y37509D01*
Y37008D02*
Y37509D01*
X29528Y76665D02*
Y77165D01*
Y76665D02*
X30453Y75739D01*
X66398Y38434D02*
Y39114D01*
X29528Y103543D02*
X72835Y60236D01*
D67*
X206004Y62598D02*
D03*
X195965D02*
D03*
X166240D02*
D03*
X156201D02*
D03*
D72*
X298425Y114961D02*
D03*
X288425D02*
D03*
X258425D02*
D03*
X268425D02*
D03*
X278425D02*
D03*
D83*
X103937Y100787D02*
X129528D01*
X137008Y93307D01*
X80588Y124137D02*
X103937Y100787D01*
X80588Y124137D02*
Y124137D01*
X77165Y127559D02*
X80588Y124137D01*
X72058Y127548D02*
X72123Y127484D01*
X75469Y122562D02*
Y122562D01*
X72123Y125909D02*
Y127484D01*
Y125909D02*
X75469Y122562D01*
Y122562D02*
X101181Y96850D01*
X117717D01*
X66929Y125197D02*
Y127559D01*
Y125197D02*
X99213Y92913D01*
X106299D01*
X61811Y122835D02*
Y127559D01*
Y122835D02*
X91732Y92913D01*
X117717Y96850D02*
X121653Y92913D01*
D87*
X316230Y179552D02*
X320389Y175394D01*
X309169Y195020D02*
X316230Y187959D01*
X309134Y195020D02*
X309169D01*
X316230Y179552D02*
Y187959D01*
X320389Y175394D02*
X327249D01*
X327840Y174803D01*
X309134Y195020D02*
Y205020D01*
X309360Y165246D02*
X327337D01*
X309134Y165020D02*
X309360Y165246D01*
X327337D02*
X327840Y165748D01*
X309134Y155020D02*
Y165020D01*
Y175020D02*
Y185020D01*
D90*
X49134Y235020D02*
D03*
Y225020D02*
D03*
Y215020D02*
D03*
Y205020D02*
D03*
Y195020D02*
D03*
Y185020D02*
D03*
Y175020D02*
D03*
Y165020D02*
D03*
X309134Y235020D02*
D03*
Y225020D02*
D03*
Y215020D02*
D03*
Y205020D02*
D03*
Y195020D02*
D03*
Y185020D02*
D03*
Y175020D02*
D03*
Y165020D02*
D03*
Y155020D02*
D03*
D91*
X288583Y28543D02*
D03*
D92*
X269685Y15748D02*
D03*
Y40354D02*
D03*
D93*
X347441Y77146D02*
D03*
Y92146D02*
D03*
D94*
X315748Y82087D02*
D03*
Y95866D02*
D03*
X168602Y113740D02*
D03*
X173602Y103740D02*
D03*
X178602Y113740D02*
D03*
X183602Y103740D02*
D03*
X188602Y113740D02*
D03*
X193602Y103740D02*
D03*
X198602Y113740D02*
D03*
X163602Y103740D02*
D03*
D95*
X340158Y153937D02*
D03*
Y173622D02*
D03*
Y222441D02*
D03*
Y202756D02*
D03*
D96*
X235315Y13228D02*
D03*
X225315D02*
D03*
X235315Y23228D02*
D03*
X225315D02*
D03*
X235315Y33228D02*
D03*
X225315D02*
D03*
D97*
X248425Y114961D02*
D03*
D98*
X212264Y93898D02*
D03*
X149941D02*
D03*
D99*
X213110Y21772D02*
D03*
X149094D02*
D03*
D100*
X208110Y43701D02*
D03*
X199094D02*
D03*
X163110D02*
D03*
X154095D02*
D03*
X167047Y24764D02*
D03*
X175079D02*
D03*
X183110D02*
D03*
X191142D02*
D03*
X171063Y17756D02*
D03*
X179095D02*
D03*
X187126D02*
D03*
X195158D02*
D03*
D102*
X82700Y35200D02*
D03*
X85662D02*
D03*
X79921Y31496D02*
D03*
X301969Y81496D02*
D03*
Y76772D02*
D03*
X244882Y105512D02*
D03*
X248819Y52362D02*
D03*
Y64961D02*
D03*
X254331Y68898D02*
D03*
Y43701D02*
D03*
X257480Y62205D02*
D03*
X261417Y67716D02*
D03*
X254331Y57480D02*
D03*
X238583Y74803D02*
D03*
Y80709D02*
D03*
Y86614D02*
D03*
Y92126D02*
D03*
Y97244D02*
D03*
Y102362D02*
D03*
X268110Y68898D02*
D03*
Y72441D02*
D03*
X271260Y79528D02*
D03*
X272047Y82677D02*
D03*
X270079Y86614D02*
D03*
X357087Y255906D02*
D03*
Y238583D02*
D03*
X352756Y229922D02*
D03*
X357087Y221260D02*
D03*
X352756Y212599D02*
D03*
X357087Y203937D02*
D03*
X352756Y195276D02*
D03*
X357087Y186614D02*
D03*
X352756Y177953D02*
D03*
X357087Y169292D02*
D03*
X352756Y160630D02*
D03*
X357087Y151969D02*
D03*
X352756Y143307D02*
D03*
X357087Y117323D02*
D03*
X352756Y108662D02*
D03*
X357087Y82677D02*
D03*
X352756Y74016D02*
D03*
X357087Y65355D02*
D03*
X352756Y56693D02*
D03*
X357087Y48032D02*
D03*
Y30709D02*
D03*
X352756Y22047D02*
D03*
X357087Y13386D02*
D03*
X352756Y4725D02*
D03*
X344095Y229922D02*
D03*
X348425Y221260D02*
D03*
X344095Y212599D02*
D03*
X348425Y169292D02*
D03*
X344095Y160630D02*
D03*
X348425Y151969D02*
D03*
X344095Y125985D02*
D03*
X348425Y82677D02*
D03*
Y65355D02*
D03*
X344095Y56693D02*
D03*
Y22047D02*
D03*
X348425Y13386D02*
D03*
X344095Y4725D02*
D03*
X335433Y229922D02*
D03*
Y74016D02*
D03*
X339764Y65355D02*
D03*
X335433Y56693D02*
D03*
Y22047D02*
D03*
X339764Y13386D02*
D03*
X335433Y4725D02*
D03*
X326772Y229922D02*
D03*
X331102Y221260D02*
D03*
X326772Y143307D02*
D03*
X331102Y65355D02*
D03*
X326772Y56693D02*
D03*
Y22047D02*
D03*
X331102Y13386D02*
D03*
X326772Y4725D02*
D03*
X322441Y238583D02*
D03*
Y221260D02*
D03*
X318110Y143307D02*
D03*
Y56693D02*
D03*
X322441Y48032D02*
D03*
X318110Y39370D02*
D03*
X322441Y30709D02*
D03*
X318110Y22047D02*
D03*
X322441Y13386D02*
D03*
X318110Y4725D02*
D03*
X313780Y221260D02*
D03*
X309449Y143307D02*
D03*
Y125985D02*
D03*
X313780Y65355D02*
D03*
Y30709D02*
D03*
X309449Y22047D02*
D03*
X313780Y13386D02*
D03*
X309449Y4725D02*
D03*
X300787Y247244D02*
D03*
Y229922D02*
D03*
Y212599D02*
D03*
Y195276D02*
D03*
Y177953D02*
D03*
Y160630D02*
D03*
Y143307D02*
D03*
Y125985D02*
D03*
X305118Y65355D02*
D03*
Y30709D02*
D03*
X300787Y22047D02*
D03*
X305118Y13386D02*
D03*
X300787Y4725D02*
D03*
X296457Y255906D02*
D03*
X292126Y247244D02*
D03*
X296457Y238583D02*
D03*
X292126Y229922D02*
D03*
X296457Y221260D02*
D03*
X292126Y212599D02*
D03*
X296457Y203937D02*
D03*
X292126Y195276D02*
D03*
X296457Y186614D02*
D03*
Y169292D02*
D03*
Y151969D02*
D03*
Y134646D02*
D03*
Y30709D02*
D03*
Y13386D02*
D03*
X292126Y4725D02*
D03*
X287795Y255906D02*
D03*
X283465Y247244D02*
D03*
X287795Y203937D02*
D03*
X283465Y195276D02*
D03*
X287795Y186614D02*
D03*
X283465Y143307D02*
D03*
X287795Y134646D02*
D03*
X283465Y125985D02*
D03*
Y22047D02*
D03*
X287795Y13386D02*
D03*
X283465Y4725D02*
D03*
X279134Y255906D02*
D03*
X274803Y247244D02*
D03*
X279134Y203937D02*
D03*
X274803Y195276D02*
D03*
X279134Y186614D02*
D03*
X274803Y143307D02*
D03*
X279134Y134646D02*
D03*
X274803Y125985D02*
D03*
Y108662D02*
D03*
X279134Y30709D02*
D03*
X274803Y22047D02*
D03*
X279134Y13386D02*
D03*
X274803Y4725D02*
D03*
X270473Y255906D02*
D03*
X266142Y247244D02*
D03*
X270473Y203937D02*
D03*
X266142Y195276D02*
D03*
X270473Y186614D02*
D03*
X266142Y143307D02*
D03*
X270473Y134646D02*
D03*
X266142Y125985D02*
D03*
X270473Y30709D02*
D03*
X266142Y22047D02*
D03*
Y4725D02*
D03*
X261811Y255906D02*
D03*
X257480Y247244D02*
D03*
Y229922D02*
D03*
Y212599D02*
D03*
X261811Y203937D02*
D03*
X257480Y195276D02*
D03*
X261811Y186614D02*
D03*
X257480Y177953D02*
D03*
Y160630D02*
D03*
Y143307D02*
D03*
X261811Y134646D02*
D03*
X257480Y125985D02*
D03*
X261811Y100000D02*
D03*
X257480Y39370D02*
D03*
X261811Y30709D02*
D03*
X257480Y22047D02*
D03*
Y4725D02*
D03*
X253150Y255906D02*
D03*
X248819Y247244D02*
D03*
X253150Y238583D02*
D03*
X248819Y229922D02*
D03*
X253150Y221260D02*
D03*
X248819Y212599D02*
D03*
X253150Y203937D02*
D03*
X248819Y195276D02*
D03*
X253150Y186614D02*
D03*
X248819Y177953D02*
D03*
X253150Y169292D02*
D03*
X248819Y160630D02*
D03*
X253150Y151969D02*
D03*
X248819Y143307D02*
D03*
X253150Y134646D02*
D03*
X248819Y125985D02*
D03*
Y108662D02*
D03*
Y39370D02*
D03*
X253150Y13386D02*
D03*
X248819Y4725D02*
D03*
X244488Y255906D02*
D03*
X240158Y247244D02*
D03*
X244488Y238583D02*
D03*
X240158Y229922D02*
D03*
X244488Y221260D02*
D03*
X240158Y212599D02*
D03*
X244488Y203937D02*
D03*
X240158Y195276D02*
D03*
X244488Y186614D02*
D03*
X240158Y177953D02*
D03*
X244488Y169292D02*
D03*
X240158Y160630D02*
D03*
X244488Y151969D02*
D03*
X240158Y143307D02*
D03*
X244488Y134646D02*
D03*
X240158Y125985D02*
D03*
Y4725D02*
D03*
X287795Y72441D02*
D03*
X300787Y67323D02*
D03*
X255118Y89764D02*
D03*
X327279Y86685D02*
D03*
X323780Y93685D02*
D03*
X313280Y100685D02*
D03*
X302755Y106299D02*
D03*
X302780Y93685D02*
D03*
X226378Y43701D02*
D03*
X225984Y52756D02*
D03*
X128279Y14685D02*
D03*
X141779Y5685D02*
D03*
X137279Y14685D02*
D03*
X337779Y93685D02*
D03*
X330780Y107685D02*
D03*
X334279Y100685D02*
D03*
X330780Y93685D02*
D03*
X334279Y86685D02*
D03*
X327279Y100685D02*
D03*
X320280D02*
D03*
X309780Y107685D02*
D03*
Y93685D02*
D03*
X306279Y100685D02*
D03*
Y86685D02*
D03*
X295779Y93685D02*
D03*
X299279Y86685D02*
D03*
X288779Y93685D02*
D03*
X292280Y86685D02*
D03*
X288779Y79685D02*
D03*
X164567Y11417D02*
D03*
X174016Y10236D02*
D03*
X181496D02*
D03*
X190551D02*
D03*
X204331Y17717D02*
D03*
X156299Y19685D02*
D03*
X92279Y14685D02*
D03*
X83280D02*
D03*
X101279D02*
D03*
X110280D02*
D03*
X119280D02*
D03*
X74279D02*
D03*
X147244Y41732D02*
D03*
X213386Y30315D02*
D03*
X212992Y37008D02*
D03*
X203150Y37402D02*
D03*
X120079Y36614D02*
D03*
X107874Y35827D02*
D03*
X89370D02*
D03*
X77953Y36220D02*
D03*
X192126Y41732D02*
D03*
X186221Y45276D02*
D03*
X181496D02*
D03*
X176378D02*
D03*
X171653D02*
D03*
X209279Y32685D02*
D03*
X204780Y23685D02*
D03*
X195780Y5685D02*
D03*
X186779D02*
D03*
X177779D02*
D03*
X168780D02*
D03*
X132780D02*
D03*
X123779D02*
D03*
X114779D02*
D03*
X105780D02*
D03*
X96780D02*
D03*
X87779D02*
D03*
X78780Y23685D02*
D03*
Y5685D02*
D03*
X74279Y32685D02*
D03*
X69779Y23685D02*
D03*
Y5685D02*
D03*
X112000Y36700D02*
D03*
X115900Y37200D02*
D03*
X216535Y248032D02*
D03*
Y228346D02*
D03*
Y208662D02*
D03*
Y188976D02*
D03*
Y169291D02*
D03*
Y149606D02*
D03*
X211614Y257874D02*
D03*
X206693Y248032D02*
D03*
X211614Y238189D02*
D03*
X206693Y228346D02*
D03*
X211614Y218504D02*
D03*
X206693Y208662D02*
D03*
X211614Y198819D02*
D03*
X206693Y188976D02*
D03*
X211614Y179134D02*
D03*
X206693Y169291D02*
D03*
X211614Y159449D02*
D03*
X201772Y257874D02*
D03*
X196850Y248032D02*
D03*
X201772Y238189D02*
D03*
X196850Y228346D02*
D03*
X201772Y218504D02*
D03*
X196850Y208662D02*
D03*
X201772Y198819D02*
D03*
X196850Y188976D02*
D03*
X201772Y179134D02*
D03*
X196850Y169291D02*
D03*
X201772Y159449D02*
D03*
X191929Y257874D02*
D03*
X187008Y248032D02*
D03*
X191929Y238189D02*
D03*
X187008Y228346D02*
D03*
X191929Y218504D02*
D03*
X187008Y208662D02*
D03*
X191929Y198819D02*
D03*
X187008Y188976D02*
D03*
X191929Y179134D02*
D03*
X182087Y257874D02*
D03*
X177165Y248032D02*
D03*
X182087Y238189D02*
D03*
X177165Y228346D02*
D03*
X182087Y218504D02*
D03*
X177165Y208662D02*
D03*
X182087Y198819D02*
D03*
X177165Y188976D02*
D03*
X182087Y179134D02*
D03*
Y159449D02*
D03*
X172244Y257874D02*
D03*
X167323Y248032D02*
D03*
X172244Y238189D02*
D03*
Y218504D02*
D03*
X167323Y208662D02*
D03*
X172244Y198819D02*
D03*
X167323Y169291D02*
D03*
X172244Y159449D02*
D03*
X162402Y257874D02*
D03*
X157480Y248032D02*
D03*
Y208662D02*
D03*
X162402Y198819D02*
D03*
Y179134D02*
D03*
X157480Y169291D02*
D03*
X162402Y159449D02*
D03*
X152559Y257874D02*
D03*
X147638Y248032D02*
D03*
Y188976D02*
D03*
X152559Y179134D02*
D03*
X147638Y169291D02*
D03*
X152559Y159449D02*
D03*
X142717Y257874D02*
D03*
X137795Y248032D02*
D03*
Y188976D02*
D03*
X142717Y179134D02*
D03*
X137795Y169291D02*
D03*
X142717Y159449D02*
D03*
X132874Y257874D02*
D03*
X127953Y248032D02*
D03*
X132874Y238189D02*
D03*
X127953Y228346D02*
D03*
X132874Y218504D02*
D03*
X127953Y188976D02*
D03*
X132874Y179134D02*
D03*
X127953Y169291D02*
D03*
X132874Y159449D02*
D03*
X123031Y257874D02*
D03*
X118110Y248032D02*
D03*
X123031Y238189D02*
D03*
X118110Y228346D02*
D03*
X123031Y218504D02*
D03*
X118110Y188976D02*
D03*
X123031Y179134D02*
D03*
X118110Y169291D02*
D03*
X123031Y159449D02*
D03*
X113189Y257874D02*
D03*
X108268Y248032D02*
D03*
X113189Y238189D02*
D03*
X108268Y228346D02*
D03*
X113189Y218504D02*
D03*
X108268Y188976D02*
D03*
X113189Y179134D02*
D03*
X108268Y169291D02*
D03*
X113189Y159449D02*
D03*
X103346Y257874D02*
D03*
X98425Y248032D02*
D03*
X103346Y238189D02*
D03*
X98425Y228346D02*
D03*
X103346Y218504D02*
D03*
X98425Y188976D02*
D03*
X93504Y257874D02*
D03*
X88583Y248032D02*
D03*
X93504Y238189D02*
D03*
X88583Y228346D02*
D03*
X93504Y218504D02*
D03*
X88583Y188976D02*
D03*
X83661Y257874D02*
D03*
X78740Y248032D02*
D03*
X83661Y238189D02*
D03*
X78740Y228346D02*
D03*
X83661Y218504D02*
D03*
X78740Y188976D02*
D03*
X73819Y257874D02*
D03*
X68898Y248032D02*
D03*
X73819Y238189D02*
D03*
X68898Y228346D02*
D03*
X73819Y218504D02*
D03*
X68898Y188976D02*
D03*
Y169291D02*
D03*
X63976Y257874D02*
D03*
X59055Y248032D02*
D03*
X63976Y238189D02*
D03*
X59055Y228346D02*
D03*
X63976Y218504D02*
D03*
X59055Y188976D02*
D03*
X63976Y179134D02*
D03*
X39370Y228346D02*
D03*
Y208662D02*
D03*
X29528Y228346D02*
D03*
X34449Y218504D02*
D03*
X29528Y208662D02*
D03*
X34449Y198819D02*
D03*
X19685Y228346D02*
D03*
X24606Y218504D02*
D03*
X19685Y208662D02*
D03*
X24606Y198819D02*
D03*
X19685Y188976D02*
D03*
X9843Y228346D02*
D03*
X14764Y218504D02*
D03*
X9843Y208662D02*
D03*
X14764Y198819D02*
D03*
X9843Y188976D02*
D03*
X14764Y179134D02*
D03*
X9843Y169291D02*
D03*
Y149606D02*
D03*
Y129921D02*
D03*
X77165Y127559D02*
D03*
X72047D02*
D03*
X66929D02*
D03*
X61811D02*
D03*
X91732Y92913D02*
D03*
X137008Y93307D02*
D03*
X121653Y92913D02*
D03*
X106299D02*
D03*
X228346Y64567D02*
D03*
X218110Y101575D02*
D03*
X330709Y119291D02*
D03*
X220760Y122005D02*
D03*
X314173Y120079D02*
D03*
D103*
X266929Y172835D02*
D03*
X270472D02*
D03*
X274016D02*
D03*
X277559D02*
D03*
X281102D02*
D03*
X284646D02*
D03*
X266929Y169291D02*
D03*
X270472D02*
D03*
X274016D02*
D03*
X277559D02*
D03*
X281102D02*
D03*
X284646D02*
D03*
X266929Y165748D02*
D03*
X270472D02*
D03*
X274016D02*
D03*
X277559D02*
D03*
X281102D02*
D03*
X284646D02*
D03*
X266929Y162205D02*
D03*
X270472D02*
D03*
X274016D02*
D03*
X277559D02*
D03*
X281102D02*
D03*
X284646D02*
D03*
X266929Y158661D02*
D03*
X270472D02*
D03*
X274016D02*
D03*
X277559D02*
D03*
X281102D02*
D03*
X284646D02*
D03*
Y155118D02*
D03*
X281102D02*
D03*
X277559D02*
D03*
X274016D02*
D03*
X270472D02*
D03*
X266929D02*
D03*
Y233858D02*
D03*
X270472D02*
D03*
X274016D02*
D03*
X277559D02*
D03*
X281102D02*
D03*
X284646D02*
D03*
X266929Y230315D02*
D03*
X270472D02*
D03*
X274016D02*
D03*
X277559D02*
D03*
X281102D02*
D03*
X284646D02*
D03*
X266929Y226772D02*
D03*
X270472D02*
D03*
X274016D02*
D03*
X277559D02*
D03*
X281102D02*
D03*
X284646D02*
D03*
X266929Y223228D02*
D03*
X270472D02*
D03*
X274016D02*
D03*
X277559D02*
D03*
X281102D02*
D03*
X284646D02*
D03*
X266929Y219685D02*
D03*
X270472D02*
D03*
X274016D02*
D03*
X277559D02*
D03*
X281102D02*
D03*
X284646D02*
D03*
Y216142D02*
D03*
X281102D02*
D03*
X277559D02*
D03*
X274016D02*
D03*
X270472D02*
D03*
X266929D02*
D03*
X78740Y173228D02*
D03*
X82284D02*
D03*
X85827D02*
D03*
X89370D02*
D03*
X92913D02*
D03*
X96457D02*
D03*
X78740Y169685D02*
D03*
X82284D02*
D03*
X85827D02*
D03*
X89370D02*
D03*
X92913D02*
D03*
X96457D02*
D03*
X78740Y166142D02*
D03*
X82284D02*
D03*
X85827D02*
D03*
X89370D02*
D03*
X92913D02*
D03*
X96457D02*
D03*
X78740Y162599D02*
D03*
X82284D02*
D03*
X85827D02*
D03*
X89370D02*
D03*
X92913D02*
D03*
X96457D02*
D03*
X78740Y159055D02*
D03*
X82284D02*
D03*
X85827D02*
D03*
X89370D02*
D03*
X92913D02*
D03*
X96457D02*
D03*
Y155512D02*
D03*
X92913D02*
D03*
X89370D02*
D03*
X85827D02*
D03*
X82284D02*
D03*
X78740D02*
D03*
X142520Y237402D02*
D03*
X146063D02*
D03*
X149606D02*
D03*
X153150D02*
D03*
X156693D02*
D03*
X160236D02*
D03*
X142520Y233858D02*
D03*
X146063D02*
D03*
X149606D02*
D03*
X153150D02*
D03*
X156693D02*
D03*
X160236D02*
D03*
X142520Y230315D02*
D03*
X146063D02*
D03*
X149606D02*
D03*
X153150D02*
D03*
X156693D02*
D03*
X160236D02*
D03*
X142520Y226772D02*
D03*
X146063D02*
D03*
X149606D02*
D03*
X153150D02*
D03*
X156693D02*
D03*
X160236D02*
D03*
X142520Y223228D02*
D03*
X146063D02*
D03*
X149606D02*
D03*
X153150D02*
D03*
X156693D02*
D03*
X160236D02*
D03*
Y219685D02*
D03*
X156693D02*
D03*
X153150D02*
D03*
X149606D02*
D03*
X146063D02*
D03*
X142520D02*
D03*
D104*
X68504Y17717D02*
D03*
Y77953D02*
D03*
X121653Y51968D02*
D03*
X29528Y103543D02*
D03*
X67323Y37008D02*
D03*
X106555Y51831D02*
D03*
X29528Y77165D02*
D03*
Y90551D02*
D03*
X342913Y184252D02*
D03*
X337008D02*
D03*
D106*
X327559Y174409D02*
D03*
Y183465D02*
D03*
Y165354D02*
D03*
Y203543D02*
D03*
Y212598D02*
D03*
Y194488D02*
D03*
D107*
X338583Y39370D02*
D03*
X23622D02*
D03*
X338583Y248031D02*
D03*
X23622D02*
D03*
M02*
