ISO-10303-21;
HEADER;
/* Generated by software containing ST-Developer
 * from STEP Tools, Inc. (www.steptools.com) 
 */

FILE_DESCRIPTION(
/* description */ (''),
/* implementation_level */ '2;1');

FILE_NAME(
/* name */ 'beovox-panel-mounts-CX50.step',
/* time_stamp */ '2026-05-07T23:01:39-06:00',
/* author */ (''),
/* organization */ (''),
/* preprocessor_version */ 'ST-DEVELOPER v20.1',
/* originating_system */ 'Autodesk Translation Framework v15.8.0.0',
/* authorisation */ '');

FILE_SCHEMA (('AUTOMOTIVE_DESIGN { 1 0 10303 214 3 1 1 }'));
ENDSEC;

DATA;
#10=MECHANICAL_DESIGN_GEOMETRIC_PRESENTATION_REPRESENTATION('',(#17,#18),
#994);
#11=ITEM_DEFINED_TRANSFORMATION($,$,#596,#653);
#12=(
REPRESENTATION_RELATIONSHIP($,$,#1005,#1004)
REPRESENTATION_RELATIONSHIP_WITH_TRANSFORMATION(#11)
SHAPE_REPRESENTATION_RELATIONSHIP()
);
#13=CONTEXT_DEPENDENT_SHAPE_REPRESENTATION(#12,#1003);
#14=NEXT_ASSEMBLY_USAGE_OCCURRENCE('pcb-mounts:1','pcb-mounts:1',
'pcb-mounts:1',#1007,#1008,'pcb-mounts:1');
#15=SHAPE_REPRESENTATION_RELATIONSHIP('SRR','None',#1005,#16);
#16=ADVANCED_BREP_SHAPE_REPRESENTATION('',(#19,#20),#993);
#17=STYLED_ITEM('',(#1018),#19);
#18=STYLED_ITEM('',(#1018),#20);
#19=MANIFOLD_SOLID_BREP('Body1',#581);
#20=MANIFOLD_SOLID_BREP('Body3',#582);
#21=CYLINDRICAL_SURFACE('',#603,1.6);
#22=CYLINDRICAL_SURFACE('',#610,4.);
#23=CYLINDRICAL_SURFACE('',#612,4.);
#24=CYLINDRICAL_SURFACE('',#622,2.3);
#25=CYLINDRICAL_SURFACE('',#623,2.3);
#26=CYLINDRICAL_SURFACE('',#631,1.6);
#27=CYLINDRICAL_SURFACE('',#638,4.);
#28=CYLINDRICAL_SURFACE('',#640,4.);
#29=CYLINDRICAL_SURFACE('',#650,2.3);
#30=CYLINDRICAL_SURFACE('',#651,2.3);
#31=FACE_BOUND('',#97,.T.);
#32=FACE_BOUND('',#106,.T.);
#33=FACE_BOUND('',#110,.T.);
#34=FACE_BOUND('',#111,.T.);
#35=FACE_BOUND('',#118,.T.);
#36=FACE_BOUND('',#127,.T.);
#37=FACE_BOUND('',#131,.T.);
#38=FACE_BOUND('',#132,.T.);
#39=PLANE('',#600);
#40=PLANE('',#605);
#41=PLANE('',#606);
#42=PLANE('',#607);
#43=PLANE('',#608);
#44=PLANE('',#614);
#45=PLANE('',#615);
#46=PLANE('',#616);
#47=PLANE('',#617);
#48=PLANE('',#620);
#49=PLANE('',#624);
#50=PLANE('',#628);
#51=PLANE('',#633);
#52=PLANE('',#634);
#53=PLANE('',#635);
#54=PLANE('',#636);
#55=PLANE('',#642);
#56=PLANE('',#643);
#57=PLANE('',#644);
#58=PLANE('',#645);
#59=PLANE('',#648);
#60=PLANE('',#652);
#61=FACE_OUTER_BOUND('',#95,.T.);
#62=FACE_OUTER_BOUND('',#96,.T.);
#63=FACE_OUTER_BOUND('',#98,.T.);
#64=FACE_OUTER_BOUND('',#99,.T.);
#65=FACE_OUTER_BOUND('',#100,.T.);
#66=FACE_OUTER_BOUND('',#101,.T.);
#67=FACE_OUTER_BOUND('',#102,.T.);
#68=FACE_OUTER_BOUND('',#103,.T.);
#69=FACE_OUTER_BOUND('',#104,.T.);
#70=FACE_OUTER_BOUND('',#105,.T.);
#71=FACE_OUTER_BOUND('',#107,.T.);
#72=FACE_OUTER_BOUND('',#108,.T.);
#73=FACE_OUTER_BOUND('',#109,.T.);
#74=FACE_OUTER_BOUND('',#112,.T.);
#75=FACE_OUTER_BOUND('',#113,.T.);
#76=FACE_OUTER_BOUND('',#114,.T.);
#77=FACE_OUTER_BOUND('',#115,.T.);
#78=FACE_OUTER_BOUND('',#116,.T.);
#79=FACE_OUTER_BOUND('',#117,.T.);
#80=FACE_OUTER_BOUND('',#119,.T.);
#81=FACE_OUTER_BOUND('',#120,.T.);
#82=FACE_OUTER_BOUND('',#121,.T.);
#83=FACE_OUTER_BOUND('',#122,.T.);
#84=FACE_OUTER_BOUND('',#123,.T.);
#85=FACE_OUTER_BOUND('',#124,.T.);
#86=FACE_OUTER_BOUND('',#125,.T.);
#87=FACE_OUTER_BOUND('',#126,.T.);
#88=FACE_OUTER_BOUND('',#128,.T.);
#89=FACE_OUTER_BOUND('',#129,.T.);
#90=FACE_OUTER_BOUND('',#130,.T.);
#91=FACE_OUTER_BOUND('',#133,.T.);
#92=FACE_OUTER_BOUND('',#134,.T.);
#93=FACE_OUTER_BOUND('',#135,.T.);
#94=FACE_OUTER_BOUND('',#136,.T.);
#95=EDGE_LOOP('',(#393,#394,#395,#396));
#96=EDGE_LOOP('',(#397,#398,#399,#400,#401));
#97=EDGE_LOOP('',(#402));
#98=EDGE_LOOP('',(#403,#404,#405,#406));
#99=EDGE_LOOP('',(#407,#408,#409,#410));
#100=EDGE_LOOP('',(#411,#412,#413,#414,#415,#416));
#101=EDGE_LOOP('',(#417,#418,#419,#420,#421));
#102=EDGE_LOOP('',(#422));
#103=EDGE_LOOP('',(#423,#424,#425,#426));
#104=EDGE_LOOP('',(#427,#428,#429,#430));
#105=EDGE_LOOP('',(#431,#432,#433,#434,#435,#436,#437));
#106=EDGE_LOOP('',(#438));
#107=EDGE_LOOP('',(#439,#440,#441,#442));
#108=EDGE_LOOP('',(#443,#444,#445,#446,#447,#448,#449));
#109=EDGE_LOOP('',(#450,#451,#452,#453));
#110=EDGE_LOOP('',(#454));
#111=EDGE_LOOP('',(#455));
#112=EDGE_LOOP('',(#456));
#113=EDGE_LOOP('',(#457,#458,#459,#460));
#114=EDGE_LOOP('',(#461,#462,#463,#464));
#115=EDGE_LOOP('',(#465,#466,#467,#468));
#116=EDGE_LOOP('',(#469,#470,#471,#472));
#117=EDGE_LOOP('',(#473,#474,#475,#476,#477));
#118=EDGE_LOOP('',(#478));
#119=EDGE_LOOP('',(#479,#480,#481,#482));
#120=EDGE_LOOP('',(#483,#484,#485,#486));
#121=EDGE_LOOP('',(#487,#488,#489,#490,#491,#492));
#122=EDGE_LOOP('',(#493,#494,#495,#496,#497));
#123=EDGE_LOOP('',(#498));
#124=EDGE_LOOP('',(#499,#500,#501,#502));
#125=EDGE_LOOP('',(#503,#504,#505,#506));
#126=EDGE_LOOP('',(#507,#508,#509,#510,#511,#512,#513));
#127=EDGE_LOOP('',(#514));
#128=EDGE_LOOP('',(#515,#516,#517,#518));
#129=EDGE_LOOP('',(#519,#520,#521,#522,#523,#524,#525));
#130=EDGE_LOOP('',(#526,#527,#528,#529));
#131=EDGE_LOOP('',(#530));
#132=EDGE_LOOP('',(#531));
#133=EDGE_LOOP('',(#532));
#134=EDGE_LOOP('',(#533,#534,#535,#536));
#135=EDGE_LOOP('',(#537,#538,#539,#540));
#136=EDGE_LOOP('',(#541,#542,#543,#544));
#137=LINE('',#832,#191);
#138=LINE('',#837,#192);
#139=LINE('',#839,#193);
#140=LINE('',#844,#194);
#141=LINE('',#847,#195);
#142=LINE('',#851,#196);
#143=LINE('',#853,#197);
#144=LINE('',#854,#198);
#145=LINE('',#857,#199);
#146=LINE('',#859,#200);
#147=LINE('',#861,#201);
#148=LINE('',#863,#202);
#149=LINE('',#864,#203);
#150=LINE('',#867,#204);
#151=LINE('',#868,#205);
#152=LINE('',#876,#206);
#153=LINE('',#877,#207);
#154=LINE('',#882,#208);
#155=LINE('',#884,#209);
#156=LINE('',#885,#210);
#157=LINE('',#888,#211);
#158=LINE('',#889,#212);
#159=LINE('',#892,#213);
#160=LINE('',#893,#214);
#161=LINE('',#895,#215);
#162=LINE('',#904,#216);
#163=LINE('',#906,#217);
#164=LINE('',#912,#218);
#165=LINE('',#917,#219);
#166=LINE('',#919,#220);
#167=LINE('',#924,#221);
#168=LINE('',#927,#222);
#169=LINE('',#931,#223);
#170=LINE('',#933,#224);
#171=LINE('',#934,#225);
#172=LINE('',#937,#226);
#173=LINE('',#939,#227);
#174=LINE('',#941,#228);
#175=LINE('',#943,#229);
#176=LINE('',#944,#230);
#177=LINE('',#947,#231);
#178=LINE('',#948,#232);
#179=LINE('',#956,#233);
#180=LINE('',#957,#234);
#181=LINE('',#962,#235);
#182=LINE('',#964,#236);
#183=LINE('',#965,#237);
#184=LINE('',#968,#238);
#185=LINE('',#969,#239);
#186=LINE('',#972,#240);
#187=LINE('',#973,#241);
#188=LINE('',#975,#242);
#189=LINE('',#984,#243);
#190=LINE('',#986,#244);
#191=VECTOR('',#662,2.35);
#192=VECTOR('',#667,10.);
#193=VECTOR('',#668,10.);
#194=VECTOR('',#673,10.);
#195=VECTOR('',#676,1.6);
#196=VECTOR('',#681,10.);
#197=VECTOR('',#682,10.);
#198=VECTOR('',#683,10.);
#199=VECTOR('',#686,10.);
#200=VECTOR('',#687,10.);
#201=VECTOR('',#688,10.);
#202=VECTOR('',#689,10.);
#203=VECTOR('',#690,10.);
#204=VECTOR('',#693,10.);
#205=VECTOR('',#694,10.);
#206=VECTOR('',#703,10.);
#207=VECTOR('',#704,10.);
#208=VECTOR('',#711,10.);
#209=VECTOR('',#712,10.);
#210=VECTOR('',#713,10.);
#211=VECTOR('',#716,10.);
#212=VECTOR('',#717,10.);
#213=VECTOR('',#720,10.);
#214=VECTOR('',#721,10.);
#215=VECTOR('',#724,10.);
#216=VECTOR('',#735,2.3);
#217=VECTOR('',#738,2.3);
#218=VECTOR('',#745,2.35);
#219=VECTOR('',#750,10.);
#220=VECTOR('',#751,10.);
#221=VECTOR('',#756,10.);
#222=VECTOR('',#759,1.6);
#223=VECTOR('',#764,10.);
#224=VECTOR('',#765,10.);
#225=VECTOR('',#766,10.);
#226=VECTOR('',#769,10.);
#227=VECTOR('',#770,10.);
#228=VECTOR('',#771,10.);
#229=VECTOR('',#772,10.);
#230=VECTOR('',#773,10.);
#231=VECTOR('',#776,10.);
#232=VECTOR('',#777,10.);
#233=VECTOR('',#786,10.);
#234=VECTOR('',#787,10.);
#235=VECTOR('',#794,10.);
#236=VECTOR('',#795,10.);
#237=VECTOR('',#796,10.);
#238=VECTOR('',#799,10.);
#239=VECTOR('',#800,10.);
#240=VECTOR('',#803,10.);
#241=VECTOR('',#804,10.);
#242=VECTOR('',#807,10.);
#243=VECTOR('',#818,2.3);
#244=VECTOR('',#821,2.3);
#245=CIRCLE('',#598,1.6);
#246=CIRCLE('',#599,3.1);
#247=CIRCLE('',#601,4.);
#248=CIRCLE('',#602,4.);
#249=CIRCLE('',#604,1.6);
#250=CIRCLE('',#609,2.3);
#251=CIRCLE('',#611,4.);
#252=CIRCLE('',#613,4.);
#253=CIRCLE('',#618,2.3);
#254=CIRCLE('',#619,2.3);
#255=CIRCLE('',#621,2.3);
#256=CIRCLE('',#626,1.6);
#257=CIRCLE('',#627,3.1);
#258=CIRCLE('',#629,4.);
#259=CIRCLE('',#630,4.);
#260=CIRCLE('',#632,1.6);
#261=CIRCLE('',#637,2.3);
#262=CIRCLE('',#639,4.);
#263=CIRCLE('',#641,4.);
#264=CIRCLE('',#646,2.3);
#265=CIRCLE('',#647,2.3);
#266=CIRCLE('',#649,2.3);
#267=VERTEX_POINT('',#829);
#268=VERTEX_POINT('',#831);
#269=VERTEX_POINT('',#835);
#270=VERTEX_POINT('',#836);
#271=VERTEX_POINT('',#838);
#272=VERTEX_POINT('',#840);
#273=VERTEX_POINT('',#842);
#274=VERTEX_POINT('',#846);
#275=VERTEX_POINT('',#850);
#276=VERTEX_POINT('',#852);
#277=VERTEX_POINT('',#856);
#278=VERTEX_POINT('',#858);
#279=VERTEX_POINT('',#860);
#280=VERTEX_POINT('',#862);
#281=VERTEX_POINT('',#866);
#282=VERTEX_POINT('',#870);
#283=VERTEX_POINT('',#873);
#284=VERTEX_POINT('',#874);
#285=VERTEX_POINT('',#881);
#286=VERTEX_POINT('',#883);
#287=VERTEX_POINT('',#887);
#288=VERTEX_POINT('',#891);
#289=VERTEX_POINT('',#896);
#290=VERTEX_POINT('',#898);
#291=VERTEX_POINT('',#901);
#292=VERTEX_POINT('',#909);
#293=VERTEX_POINT('',#911);
#294=VERTEX_POINT('',#915);
#295=VERTEX_POINT('',#916);
#296=VERTEX_POINT('',#918);
#297=VERTEX_POINT('',#920);
#298=VERTEX_POINT('',#922);
#299=VERTEX_POINT('',#926);
#300=VERTEX_POINT('',#930);
#301=VERTEX_POINT('',#932);
#302=VERTEX_POINT('',#936);
#303=VERTEX_POINT('',#938);
#304=VERTEX_POINT('',#940);
#305=VERTEX_POINT('',#942);
#306=VERTEX_POINT('',#946);
#307=VERTEX_POINT('',#950);
#308=VERTEX_POINT('',#953);
#309=VERTEX_POINT('',#954);
#310=VERTEX_POINT('',#961);
#311=VERTEX_POINT('',#963);
#312=VERTEX_POINT('',#967);
#313=VERTEX_POINT('',#971);
#314=VERTEX_POINT('',#976);
#315=VERTEX_POINT('',#978);
#316=VERTEX_POINT('',#981);
#317=EDGE_CURVE('',#267,#267,#245,.T.);
#318=EDGE_CURVE('',#267,#268,#137,.T.);
#319=EDGE_CURVE('',#268,#268,#246,.T.);
#320=EDGE_CURVE('',#269,#270,#138,.T.);
#321=EDGE_CURVE('',#269,#271,#139,.T.);
#322=EDGE_CURVE('',#272,#271,#247,.T.);
#323=EDGE_CURVE('',#273,#272,#248,.T.);
#324=EDGE_CURVE('',#273,#270,#140,.T.);
#325=EDGE_CURVE('',#267,#274,#141,.T.);
#326=EDGE_CURVE('',#274,#274,#249,.T.);
#327=EDGE_CURVE('',#270,#275,#142,.T.);
#328=EDGE_CURVE('',#275,#276,#143,.T.);
#329=EDGE_CURVE('',#276,#269,#144,.T.);
#330=EDGE_CURVE('',#277,#275,#145,.T.);
#331=EDGE_CURVE('',#278,#277,#146,.F.);
#332=EDGE_CURVE('',#279,#278,#147,.T.);
#333=EDGE_CURVE('',#280,#279,#148,.T.);
#334=EDGE_CURVE('',#276,#280,#149,.F.);
#335=EDGE_CURVE('',#281,#273,#150,.T.);
#336=EDGE_CURVE('',#277,#281,#151,.T.);
#337=EDGE_CURVE('',#282,#282,#250,.T.);
#338=EDGE_CURVE('',#283,#284,#251,.T.);
#339=EDGE_CURVE('',#272,#284,#152,.T.);
#340=EDGE_CURVE('',#271,#283,#153,.T.);
#341=EDGE_CURVE('',#284,#281,#252,.T.);
#342=EDGE_CURVE('',#283,#285,#154,.T.);
#343=EDGE_CURVE('',#285,#286,#155,.T.);
#344=EDGE_CURVE('',#286,#278,#156,.T.);
#345=EDGE_CURVE('',#286,#287,#157,.T.);
#346=EDGE_CURVE('',#279,#287,#158,.T.);
#347=EDGE_CURVE('',#288,#280,#159,.T.);
#348=EDGE_CURVE('',#285,#288,#160,.T.);
#349=EDGE_CURVE('',#287,#288,#161,.T.);
#350=EDGE_CURVE('',#289,#289,#253,.T.);
#351=EDGE_CURVE('',#290,#290,#254,.T.);
#352=EDGE_CURVE('',#291,#291,#255,.T.);
#353=EDGE_CURVE('',#291,#290,#162,.T.);
#354=EDGE_CURVE('',#282,#289,#163,.T.);
#355=EDGE_CURVE('',#292,#292,#256,.T.);
#356=EDGE_CURVE('',#292,#293,#164,.T.);
#357=EDGE_CURVE('',#293,#293,#257,.T.);
#358=EDGE_CURVE('',#294,#295,#165,.T.);
#359=EDGE_CURVE('',#296,#295,#166,.T.);
#360=EDGE_CURVE('',#296,#297,#258,.T.);
#361=EDGE_CURVE('',#297,#298,#259,.T.);
#362=EDGE_CURVE('',#294,#298,#167,.T.);
#363=EDGE_CURVE('',#292,#299,#168,.T.);
#364=EDGE_CURVE('',#299,#299,#260,.T.);
#365=EDGE_CURVE('',#295,#300,#169,.T.);
#366=EDGE_CURVE('',#301,#294,#170,.T.);
#367=EDGE_CURVE('',#300,#301,#171,.T.);
#368=EDGE_CURVE('',#301,#302,#172,.F.);
#369=EDGE_CURVE('',#302,#303,#173,.T.);
#370=EDGE_CURVE('',#303,#304,#174,.T.);
#371=EDGE_CURVE('',#304,#305,#175,.F.);
#372=EDGE_CURVE('',#305,#300,#176,.T.);
#373=EDGE_CURVE('',#305,#306,#177,.T.);
#374=EDGE_CURVE('',#306,#296,#178,.T.);
#375=EDGE_CURVE('',#307,#307,#261,.T.);
#376=EDGE_CURVE('',#308,#309,#262,.T.);
#377=EDGE_CURVE('',#298,#308,#179,.T.);
#378=EDGE_CURVE('',#297,#309,#180,.T.);
#379=EDGE_CURVE('',#309,#306,#263,.T.);
#380=EDGE_CURVE('',#310,#304,#181,.T.);
#381=EDGE_CURVE('',#311,#310,#182,.T.);
#382=EDGE_CURVE('',#308,#311,#183,.T.);
#383=EDGE_CURVE('',#303,#312,#184,.T.);
#384=EDGE_CURVE('',#310,#312,#185,.T.);
#385=EDGE_CURVE('',#311,#313,#186,.T.);
#386=EDGE_CURVE('',#313,#302,#187,.T.);
#387=EDGE_CURVE('',#312,#313,#188,.T.);
#388=EDGE_CURVE('',#314,#314,#264,.T.);
#389=EDGE_CURVE('',#315,#315,#265,.T.);
#390=EDGE_CURVE('',#316,#316,#266,.T.);
#391=EDGE_CURVE('',#316,#315,#189,.T.);
#392=EDGE_CURVE('',#307,#314,#190,.T.);
#393=ORIENTED_EDGE('',*,*,#317,.T.);
#394=ORIENTED_EDGE('',*,*,#318,.T.);
#395=ORIENTED_EDGE('',*,*,#319,.T.);
#396=ORIENTED_EDGE('',*,*,#318,.F.);
#397=ORIENTED_EDGE('',*,*,#320,.F.);
#398=ORIENTED_EDGE('',*,*,#321,.T.);
#399=ORIENTED_EDGE('',*,*,#322,.F.);
#400=ORIENTED_EDGE('',*,*,#323,.F.);
#401=ORIENTED_EDGE('',*,*,#324,.T.);
#402=ORIENTED_EDGE('',*,*,#319,.F.);
#403=ORIENTED_EDGE('',*,*,#317,.F.);
#404=ORIENTED_EDGE('',*,*,#325,.T.);
#405=ORIENTED_EDGE('',*,*,#326,.T.);
#406=ORIENTED_EDGE('',*,*,#325,.F.);
#407=ORIENTED_EDGE('',*,*,#327,.T.);
#408=ORIENTED_EDGE('',*,*,#328,.T.);
#409=ORIENTED_EDGE('',*,*,#329,.T.);
#410=ORIENTED_EDGE('',*,*,#320,.T.);
#411=ORIENTED_EDGE('',*,*,#328,.F.);
#412=ORIENTED_EDGE('',*,*,#330,.F.);
#413=ORIENTED_EDGE('',*,*,#331,.F.);
#414=ORIENTED_EDGE('',*,*,#332,.F.);
#415=ORIENTED_EDGE('',*,*,#333,.F.);
#416=ORIENTED_EDGE('',*,*,#334,.F.);
#417=ORIENTED_EDGE('',*,*,#324,.F.);
#418=ORIENTED_EDGE('',*,*,#335,.F.);
#419=ORIENTED_EDGE('',*,*,#336,.F.);
#420=ORIENTED_EDGE('',*,*,#330,.T.);
#421=ORIENTED_EDGE('',*,*,#327,.F.);
#422=ORIENTED_EDGE('',*,*,#337,.F.);
#423=ORIENTED_EDGE('',*,*,#338,.T.);
#424=ORIENTED_EDGE('',*,*,#339,.F.);
#425=ORIENTED_EDGE('',*,*,#322,.T.);
#426=ORIENTED_EDGE('',*,*,#340,.T.);
#427=ORIENTED_EDGE('',*,*,#323,.T.);
#428=ORIENTED_EDGE('',*,*,#339,.T.);
#429=ORIENTED_EDGE('',*,*,#341,.T.);
#430=ORIENTED_EDGE('',*,*,#335,.T.);
#431=ORIENTED_EDGE('',*,*,#338,.F.);
#432=ORIENTED_EDGE('',*,*,#342,.T.);
#433=ORIENTED_EDGE('',*,*,#343,.T.);
#434=ORIENTED_EDGE('',*,*,#344,.T.);
#435=ORIENTED_EDGE('',*,*,#331,.T.);
#436=ORIENTED_EDGE('',*,*,#336,.T.);
#437=ORIENTED_EDGE('',*,*,#341,.F.);
#438=ORIENTED_EDGE('',*,*,#326,.F.);
#439=ORIENTED_EDGE('',*,*,#332,.T.);
#440=ORIENTED_EDGE('',*,*,#344,.F.);
#441=ORIENTED_EDGE('',*,*,#345,.T.);
#442=ORIENTED_EDGE('',*,*,#346,.F.);
#443=ORIENTED_EDGE('',*,*,#334,.T.);
#444=ORIENTED_EDGE('',*,*,#347,.F.);
#445=ORIENTED_EDGE('',*,*,#348,.F.);
#446=ORIENTED_EDGE('',*,*,#342,.F.);
#447=ORIENTED_EDGE('',*,*,#340,.F.);
#448=ORIENTED_EDGE('',*,*,#321,.F.);
#449=ORIENTED_EDGE('',*,*,#329,.F.);
#450=ORIENTED_EDGE('',*,*,#348,.T.);
#451=ORIENTED_EDGE('',*,*,#349,.F.);
#452=ORIENTED_EDGE('',*,*,#345,.F.);
#453=ORIENTED_EDGE('',*,*,#343,.F.);
#454=ORIENTED_EDGE('',*,*,#350,.T.);
#455=ORIENTED_EDGE('',*,*,#351,.T.);
#456=ORIENTED_EDGE('',*,*,#352,.F.);
#457=ORIENTED_EDGE('',*,*,#352,.T.);
#458=ORIENTED_EDGE('',*,*,#353,.T.);
#459=ORIENTED_EDGE('',*,*,#351,.F.);
#460=ORIENTED_EDGE('',*,*,#353,.F.);
#461=ORIENTED_EDGE('',*,*,#337,.T.);
#462=ORIENTED_EDGE('',*,*,#354,.T.);
#463=ORIENTED_EDGE('',*,*,#350,.F.);
#464=ORIENTED_EDGE('',*,*,#354,.F.);
#465=ORIENTED_EDGE('',*,*,#333,.T.);
#466=ORIENTED_EDGE('',*,*,#346,.T.);
#467=ORIENTED_EDGE('',*,*,#349,.T.);
#468=ORIENTED_EDGE('',*,*,#347,.T.);
#469=ORIENTED_EDGE('',*,*,#355,.F.);
#470=ORIENTED_EDGE('',*,*,#356,.T.);
#471=ORIENTED_EDGE('',*,*,#357,.F.);
#472=ORIENTED_EDGE('',*,*,#356,.F.);
#473=ORIENTED_EDGE('',*,*,#358,.T.);
#474=ORIENTED_EDGE('',*,*,#359,.F.);
#475=ORIENTED_EDGE('',*,*,#360,.T.);
#476=ORIENTED_EDGE('',*,*,#361,.T.);
#477=ORIENTED_EDGE('',*,*,#362,.F.);
#478=ORIENTED_EDGE('',*,*,#357,.T.);
#479=ORIENTED_EDGE('',*,*,#355,.T.);
#480=ORIENTED_EDGE('',*,*,#363,.T.);
#481=ORIENTED_EDGE('',*,*,#364,.F.);
#482=ORIENTED_EDGE('',*,*,#363,.F.);
#483=ORIENTED_EDGE('',*,*,#365,.F.);
#484=ORIENTED_EDGE('',*,*,#358,.F.);
#485=ORIENTED_EDGE('',*,*,#366,.F.);
#486=ORIENTED_EDGE('',*,*,#367,.F.);
#487=ORIENTED_EDGE('',*,*,#367,.T.);
#488=ORIENTED_EDGE('',*,*,#368,.T.);
#489=ORIENTED_EDGE('',*,*,#369,.T.);
#490=ORIENTED_EDGE('',*,*,#370,.T.);
#491=ORIENTED_EDGE('',*,*,#371,.T.);
#492=ORIENTED_EDGE('',*,*,#372,.T.);
#493=ORIENTED_EDGE('',*,*,#359,.T.);
#494=ORIENTED_EDGE('',*,*,#365,.T.);
#495=ORIENTED_EDGE('',*,*,#372,.F.);
#496=ORIENTED_EDGE('',*,*,#373,.T.);
#497=ORIENTED_EDGE('',*,*,#374,.T.);
#498=ORIENTED_EDGE('',*,*,#375,.T.);
#499=ORIENTED_EDGE('',*,*,#376,.F.);
#500=ORIENTED_EDGE('',*,*,#377,.F.);
#501=ORIENTED_EDGE('',*,*,#361,.F.);
#502=ORIENTED_EDGE('',*,*,#378,.T.);
#503=ORIENTED_EDGE('',*,*,#360,.F.);
#504=ORIENTED_EDGE('',*,*,#374,.F.);
#505=ORIENTED_EDGE('',*,*,#379,.F.);
#506=ORIENTED_EDGE('',*,*,#378,.F.);
#507=ORIENTED_EDGE('',*,*,#376,.T.);
#508=ORIENTED_EDGE('',*,*,#379,.T.);
#509=ORIENTED_EDGE('',*,*,#373,.F.);
#510=ORIENTED_EDGE('',*,*,#371,.F.);
#511=ORIENTED_EDGE('',*,*,#380,.F.);
#512=ORIENTED_EDGE('',*,*,#381,.F.);
#513=ORIENTED_EDGE('',*,*,#382,.F.);
#514=ORIENTED_EDGE('',*,*,#364,.T.);
#515=ORIENTED_EDGE('',*,*,#370,.F.);
#516=ORIENTED_EDGE('',*,*,#383,.T.);
#517=ORIENTED_EDGE('',*,*,#384,.F.);
#518=ORIENTED_EDGE('',*,*,#380,.T.);
#519=ORIENTED_EDGE('',*,*,#368,.F.);
#520=ORIENTED_EDGE('',*,*,#366,.T.);
#521=ORIENTED_EDGE('',*,*,#362,.T.);
#522=ORIENTED_EDGE('',*,*,#377,.T.);
#523=ORIENTED_EDGE('',*,*,#382,.T.);
#524=ORIENTED_EDGE('',*,*,#385,.T.);
#525=ORIENTED_EDGE('',*,*,#386,.T.);
#526=ORIENTED_EDGE('',*,*,#385,.F.);
#527=ORIENTED_EDGE('',*,*,#381,.T.);
#528=ORIENTED_EDGE('',*,*,#384,.T.);
#529=ORIENTED_EDGE('',*,*,#387,.T.);
#530=ORIENTED_EDGE('',*,*,#388,.F.);
#531=ORIENTED_EDGE('',*,*,#389,.F.);
#532=ORIENTED_EDGE('',*,*,#390,.T.);
#533=ORIENTED_EDGE('',*,*,#390,.F.);
#534=ORIENTED_EDGE('',*,*,#391,.T.);
#535=ORIENTED_EDGE('',*,*,#389,.T.);
#536=ORIENTED_EDGE('',*,*,#391,.F.);
#537=ORIENTED_EDGE('',*,*,#375,.F.);
#538=ORIENTED_EDGE('',*,*,#392,.T.);
#539=ORIENTED_EDGE('',*,*,#388,.T.);
#540=ORIENTED_EDGE('',*,*,#392,.F.);
#541=ORIENTED_EDGE('',*,*,#369,.F.);
#542=ORIENTED_EDGE('',*,*,#386,.F.);
#543=ORIENTED_EDGE('',*,*,#387,.F.);
#544=ORIENTED_EDGE('',*,*,#383,.F.);
#545=CONICAL_SURFACE('',#597,2.35,0.78539816339745);
#546=CONICAL_SURFACE('',#625,2.35,0.78539816339745);
#547=ADVANCED_FACE('',(#61),#545,.F.);
#548=ADVANCED_FACE('',(#62,#31),#39,.T.);
#549=ADVANCED_FACE('',(#63),#21,.F.);
#550=ADVANCED_FACE('',(#64),#40,.T.);
#551=ADVANCED_FACE('',(#65),#41,.F.);
#552=ADVANCED_FACE('',(#66),#42,.F.);
#553=ADVANCED_FACE('',(#67),#43,.F.);
#554=ADVANCED_FACE('',(#68),#22,.T.);
#555=ADVANCED_FACE('',(#69),#23,.T.);
#556=ADVANCED_FACE('',(#70,#32),#44,.F.);
#557=ADVANCED_FACE('',(#71),#45,.T.);
#558=ADVANCED_FACE('',(#72),#46,.F.);
#559=ADVANCED_FACE('',(#73,#33,#34),#47,.T.);
#560=ADVANCED_FACE('',(#74),#48,.F.);
#561=ADVANCED_FACE('',(#75),#24,.F.);
#562=ADVANCED_FACE('',(#76),#25,.F.);
#563=ADVANCED_FACE('',(#77),#49,.T.);
#564=ADVANCED_FACE('',(#78),#546,.F.);
#565=ADVANCED_FACE('',(#79,#35),#50,.F.);
#566=ADVANCED_FACE('',(#80),#26,.F.);
#567=ADVANCED_FACE('',(#81),#51,.F.);
#568=ADVANCED_FACE('',(#82),#52,.T.);
#569=ADVANCED_FACE('',(#83),#53,.T.);
#570=ADVANCED_FACE('',(#84),#54,.T.);
#571=ADVANCED_FACE('',(#85),#27,.T.);
#572=ADVANCED_FACE('',(#86),#28,.T.);
#573=ADVANCED_FACE('',(#87,#36),#55,.T.);
#574=ADVANCED_FACE('',(#88),#56,.F.);
#575=ADVANCED_FACE('',(#89),#57,.T.);
#576=ADVANCED_FACE('',(#90,#37,#38),#58,.F.);
#577=ADVANCED_FACE('',(#91),#59,.T.);
#578=ADVANCED_FACE('',(#92),#29,.F.);
#579=ADVANCED_FACE('',(#93),#30,.F.);
#580=ADVANCED_FACE('',(#94),#60,.F.);
#581=CLOSED_SHELL('',(#547,#548,#549,#550,#551,#552,#553,#554,#555,#556,
#557,#558,#559,#560,#561,#562,#563));
#582=CLOSED_SHELL('',(#564,#565,#566,#567,#568,#569,#570,#571,#572,#573,
#574,#575,#576,#577,#578,#579,#580));
#583=DERIVED_UNIT_ELEMENT(#585,1.);
#584=DERIVED_UNIT_ELEMENT(#996,-3.);
#585=(
MASS_UNIT()
NAMED_UNIT(*)
SI_UNIT(.KILO.,.GRAM.)
);
#586=DERIVED_UNIT((#583,#584));
#587=MEASURE_REPRESENTATION_ITEM('density measure',
POSITIVE_RATIO_MEASURE(1060.),#586);
#588=PROPERTY_DEFINITION_REPRESENTATION(#593,#590);
#589=PROPERTY_DEFINITION_REPRESENTATION(#594,#591);
#590=REPRESENTATION('material name',(#592),#993);
#591=REPRESENTATION('density',(#587),#993);
#592=DESCRIPTIVE_REPRESENTATION_ITEM('ABS Plastic','ABS Plastic');
#593=PROPERTY_DEFINITION('material property','material name',#1008);
#594=PROPERTY_DEFINITION('material property','density of part',#1008);
#595=AXIS2_PLACEMENT_3D('',#826,#654,#655);
#596=AXIS2_PLACEMENT_3D('',#827,#656,#657);
#597=AXIS2_PLACEMENT_3D('',#828,#658,#659);
#598=AXIS2_PLACEMENT_3D('',#830,#660,#661);
#599=AXIS2_PLACEMENT_3D('',#833,#663,#664);
#600=AXIS2_PLACEMENT_3D('',#834,#665,#666);
#601=AXIS2_PLACEMENT_3D('',#841,#669,#670);
#602=AXIS2_PLACEMENT_3D('',#843,#671,#672);
#603=AXIS2_PLACEMENT_3D('',#845,#674,#675);
#604=AXIS2_PLACEMENT_3D('',#848,#677,#678);
#605=AXIS2_PLACEMENT_3D('',#849,#679,#680);
#606=AXIS2_PLACEMENT_3D('',#855,#684,#685);
#607=AXIS2_PLACEMENT_3D('',#865,#691,#692);
#608=AXIS2_PLACEMENT_3D('',#869,#695,#696);
#609=AXIS2_PLACEMENT_3D('',#871,#697,#698);
#610=AXIS2_PLACEMENT_3D('',#872,#699,#700);
#611=AXIS2_PLACEMENT_3D('',#875,#701,#702);
#612=AXIS2_PLACEMENT_3D('',#878,#705,#706);
#613=AXIS2_PLACEMENT_3D('',#879,#707,#708);
#614=AXIS2_PLACEMENT_3D('',#880,#709,#710);
#615=AXIS2_PLACEMENT_3D('',#886,#714,#715);
#616=AXIS2_PLACEMENT_3D('',#890,#718,#719);
#617=AXIS2_PLACEMENT_3D('',#894,#722,#723);
#618=AXIS2_PLACEMENT_3D('',#897,#725,#726);
#619=AXIS2_PLACEMENT_3D('',#899,#727,#728);
#620=AXIS2_PLACEMENT_3D('',#900,#729,#730);
#621=AXIS2_PLACEMENT_3D('',#902,#731,#732);
#622=AXIS2_PLACEMENT_3D('',#903,#733,#734);
#623=AXIS2_PLACEMENT_3D('',#905,#736,#737);
#624=AXIS2_PLACEMENT_3D('',#907,#739,#740);
#625=AXIS2_PLACEMENT_3D('',#908,#741,#742);
#626=AXIS2_PLACEMENT_3D('',#910,#743,#744);
#627=AXIS2_PLACEMENT_3D('',#913,#746,#747);
#628=AXIS2_PLACEMENT_3D('',#914,#748,#749);
#629=AXIS2_PLACEMENT_3D('',#921,#752,#753);
#630=AXIS2_PLACEMENT_3D('',#923,#754,#755);
#631=AXIS2_PLACEMENT_3D('',#925,#757,#758);
#632=AXIS2_PLACEMENT_3D('',#928,#760,#761);
#633=AXIS2_PLACEMENT_3D('',#929,#762,#763);
#634=AXIS2_PLACEMENT_3D('',#935,#767,#768);
#635=AXIS2_PLACEMENT_3D('',#945,#774,#775);
#636=AXIS2_PLACEMENT_3D('',#949,#778,#779);
#637=AXIS2_PLACEMENT_3D('',#951,#780,#781);
#638=AXIS2_PLACEMENT_3D('',#952,#782,#783);
#639=AXIS2_PLACEMENT_3D('',#955,#784,#785);
#640=AXIS2_PLACEMENT_3D('',#958,#788,#789);
#641=AXIS2_PLACEMENT_3D('',#959,#790,#791);
#642=AXIS2_PLACEMENT_3D('',#960,#792,#793);
#643=AXIS2_PLACEMENT_3D('',#966,#797,#798);
#644=AXIS2_PLACEMENT_3D('',#970,#801,#802);
#645=AXIS2_PLACEMENT_3D('',#974,#805,#806);
#646=AXIS2_PLACEMENT_3D('',#977,#808,#809);
#647=AXIS2_PLACEMENT_3D('',#979,#810,#811);
#648=AXIS2_PLACEMENT_3D('',#980,#812,#813);
#649=AXIS2_PLACEMENT_3D('',#982,#814,#815);
#650=AXIS2_PLACEMENT_3D('',#983,#816,#817);
#651=AXIS2_PLACEMENT_3D('',#985,#819,#820);
#652=AXIS2_PLACEMENT_3D('',#987,#822,#823);
#653=AXIS2_PLACEMENT_3D('',#988,#824,#825);
#654=DIRECTION('axis',(0.,0.,1.));
#655=DIRECTION('refdir',(1.,0.,0.));
#656=DIRECTION('axis',(0.,0.,1.));
#657=DIRECTION('refdir',(1.,0.,0.));
#658=DIRECTION('center_axis',(0.,0.,1.));
#659=DIRECTION('ref_axis',(1.,0.,0.));
#660=DIRECTION('center_axis',(0.,0.,-1.));
#661=DIRECTION('ref_axis',(1.,0.,0.));
#662=DIRECTION('',(-0.707106781186548,8.65956056235494E-17,0.707106781186547));
#663=DIRECTION('center_axis',(0.,0.,1.));
#664=DIRECTION('ref_axis',(1.,0.,0.));
#665=DIRECTION('center_axis',(0.,0.,1.));
#666=DIRECTION('ref_axis',(1.,0.,0.));
#667=DIRECTION('',(-1.,0.,0.));
#668=DIRECTION('',(0.,1.,0.));
#669=DIRECTION('center_axis',(0.,0.,-1.));
#670=DIRECTION('ref_axis',(0.707106781186546,0.707106781186549,0.));
#671=DIRECTION('center_axis',(0.,0.,-1.));
#672=DIRECTION('ref_axis',(-0.707106781186549,0.707106781186546,0.));
#673=DIRECTION('',(0.,-1.,0.));
#674=DIRECTION('center_axis',(0.,0.,1.));
#675=DIRECTION('ref_axis',(1.,0.,0.));
#676=DIRECTION('',(0.,0.,-1.));
#677=DIRECTION('center_axis',(0.,0.,-1.));
#678=DIRECTION('ref_axis',(1.,0.,0.));
#679=DIRECTION('center_axis',(0.,0.707106781186547,0.707106781186548));
#680=DIRECTION('ref_axis',(1.,0.,0.));
#681=DIRECTION('',(0.,-0.707106781186548,0.707106781186547));
#682=DIRECTION('',(1.,0.,0.));
#683=DIRECTION('',(0.,0.707106781186548,-0.707106781186547));
#684=DIRECTION('center_axis',(0.,-1.,0.));
#685=DIRECTION('ref_axis',(0.,0.,-1.));
#686=DIRECTION('',(0.,0.,1.));
#687=DIRECTION('',(-1.,0.,0.));
#688=DIRECTION('',(0.,0.,-1.));
#689=DIRECTION('',(-1.,0.,0.));
#690=DIRECTION('',(0.,0.,-1.));
#691=DIRECTION('center_axis',(1.,0.,0.));
#692=DIRECTION('ref_axis',(0.,0.,-1.));
#693=DIRECTION('',(0.,0.,1.));
#694=DIRECTION('',(0.,1.,0.));
#695=DIRECTION('center_axis',(0.,1.,0.));
#696=DIRECTION('ref_axis',(-1.,0.,0.));
#697=DIRECTION('center_axis',(0.,1.,0.));
#698=DIRECTION('ref_axis',(-1.,0.,0.));
#699=DIRECTION('center_axis',(0.,0.,-1.));
#700=DIRECTION('ref_axis',(0.707106781186546,0.707106781186549,0.));
#701=DIRECTION('center_axis',(0.,0.,1.));
#702=DIRECTION('ref_axis',(0.707106781186546,0.707106781186549,0.));
#703=DIRECTION('',(0.,0.,-1.));
#704=DIRECTION('',(0.,0.,-1.));
#705=DIRECTION('center_axis',(0.,0.,1.));
#706=DIRECTION('ref_axis',(-0.707106781186549,0.707106781186546,0.));
#707=DIRECTION('center_axis',(0.,0.,1.));
#708=DIRECTION('ref_axis',(-0.707106781186549,0.707106781186546,0.));
#709=DIRECTION('center_axis',(0.,0.,1.));
#710=DIRECTION('ref_axis',(1.,0.,0.));
#711=DIRECTION('',(0.,-1.,0.));
#712=DIRECTION('',(-1.,0.,0.));
#713=DIRECTION('',(0.,1.,0.));
#714=DIRECTION('center_axis',(-1.,0.,0.));
#715=DIRECTION('ref_axis',(0.,-1.,0.));
#716=DIRECTION('',(0.,0.,1.));
#717=DIRECTION('',(0.,-1.,0.));
#718=DIRECTION('center_axis',(-1.,0.,0.));
#719=DIRECTION('ref_axis',(0.,0.,1.));
#720=DIRECTION('',(0.,1.,0.));
#721=DIRECTION('',(0.,0.,1.));
#722=DIRECTION('center_axis',(0.,-1.,0.));
#723=DIRECTION('ref_axis',(1.,0.,0.));
#724=DIRECTION('',(1.,0.,0.));
#725=DIRECTION('center_axis',(0.,1.,0.));
#726=DIRECTION('ref_axis',(-1.,0.,0.));
#727=DIRECTION('center_axis',(0.,1.,0.));
#728=DIRECTION('ref_axis',(-1.,0.,0.));
#729=DIRECTION('center_axis',(0.,1.,0.));
#730=DIRECTION('ref_axis',(-1.,0.,0.));
#731=DIRECTION('center_axis',(0.,1.,0.));
#732=DIRECTION('ref_axis',(-1.,0.,0.));
#733=DIRECTION('center_axis',(0.,-1.,0.));
#734=DIRECTION('ref_axis',(-1.,0.,0.));
#735=DIRECTION('',(0.,-1.,0.));
#736=DIRECTION('center_axis',(0.,-1.,0.));
#737=DIRECTION('ref_axis',(-1.,0.,0.));
#738=DIRECTION('',(0.,-1.,0.));
#739=DIRECTION('center_axis',(0.,0.,1.));
#740=DIRECTION('ref_axis',(1.,0.,0.));
#741=DIRECTION('center_axis',(0.,0.,1.));
#742=DIRECTION('ref_axis',(-1.,0.,0.));
#743=DIRECTION('center_axis',(0.,0.,1.));
#744=DIRECTION('ref_axis',(-1.,0.,0.));
#745=DIRECTION('',(0.707106781186548,8.65956056235494E-17,0.707106781186547));
#746=DIRECTION('center_axis',(0.,0.,-1.));
#747=DIRECTION('ref_axis',(-1.,0.,0.));
#748=DIRECTION('center_axis',(0.,0.,-1.));
#749=DIRECTION('ref_axis',(-1.,0.,0.));
#750=DIRECTION('',(1.,0.,0.));
#751=DIRECTION('',(0.,-1.,0.));
#752=DIRECTION('center_axis',(0.,0.,1.));
#753=DIRECTION('ref_axis',(0.707106781186549,0.707106781186546,0.));
#754=DIRECTION('center_axis',(0.,0.,1.));
#755=DIRECTION('ref_axis',(-0.707106781186546,0.707106781186549,0.));
#756=DIRECTION('',(0.,1.,0.));
#757=DIRECTION('center_axis',(0.,0.,-1.));
#758=DIRECTION('ref_axis',(-1.,0.,0.));
#759=DIRECTION('',(0.,0.,-1.));
#760=DIRECTION('center_axis',(0.,0.,1.));
#761=DIRECTION('ref_axis',(-1.,0.,0.));
#762=DIRECTION('center_axis',(0.,-0.707106781186547,-0.707106781186548));
#763=DIRECTION('ref_axis',(-1.,0.,0.));
#764=DIRECTION('',(0.,-0.707106781186548,0.707106781186547));
#765=DIRECTION('',(0.,0.707106781186548,-0.707106781186547));
#766=DIRECTION('',(-1.,0.,0.));
#767=DIRECTION('center_axis',(0.,1.,0.));
#768=DIRECTION('ref_axis',(0.,0.,-1.));
#769=DIRECTION('',(0.,0.,-1.));
#770=DIRECTION('',(1.,0.,0.));
#771=DIRECTION('',(0.,0.,-1.));
#772=DIRECTION('',(1.,0.,0.));
#773=DIRECTION('',(0.,0.,1.));
#774=DIRECTION('center_axis',(1.,0.,0.));
#775=DIRECTION('ref_axis',(0.,0.,-1.));
#776=DIRECTION('',(0.,1.,0.));
#777=DIRECTION('',(0.,0.,1.));
#778=DIRECTION('center_axis',(0.,-1.,0.));
#779=DIRECTION('ref_axis',(1.,0.,0.));
#780=DIRECTION('center_axis',(0.,-1.,0.));
#781=DIRECTION('ref_axis',(1.,0.,0.));
#782=DIRECTION('center_axis',(0.,0.,1.));
#783=DIRECTION('ref_axis',(-0.707106781186546,0.707106781186549,0.));
#784=DIRECTION('center_axis',(0.,0.,-1.));
#785=DIRECTION('ref_axis',(-0.707106781186546,0.707106781186549,0.));
#786=DIRECTION('',(0.,0.,-1.));
#787=DIRECTION('',(0.,0.,-1.));
#788=DIRECTION('center_axis',(0.,0.,-1.));
#789=DIRECTION('ref_axis',(0.707106781186549,0.707106781186546,0.));
#790=DIRECTION('center_axis',(0.,0.,-1.));
#791=DIRECTION('ref_axis',(0.707106781186549,0.707106781186546,0.));
#792=DIRECTION('center_axis',(0.,0.,-1.));
#793=DIRECTION('ref_axis',(-1.,0.,0.));
#794=DIRECTION('',(0.,1.,0.));
#795=DIRECTION('',(1.,0.,0.));
#796=DIRECTION('',(0.,-1.,0.));
#797=DIRECTION('center_axis',(-1.,0.,0.));
#798=DIRECTION('ref_axis',(0.,-1.,0.));
#799=DIRECTION('',(0.,-1.,0.));
#800=DIRECTION('',(0.,0.,1.));
#801=DIRECTION('center_axis',(-1.,0.,0.));
#802=DIRECTION('ref_axis',(0.,0.,1.));
#803=DIRECTION('',(0.,0.,1.));
#804=DIRECTION('',(0.,1.,0.));
#805=DIRECTION('center_axis',(0.,1.,0.));
#806=DIRECTION('ref_axis',(-1.,0.,0.));
#807=DIRECTION('',(-1.,0.,0.));
#808=DIRECTION('center_axis',(0.,-1.,0.));
#809=DIRECTION('ref_axis',(1.,0.,0.));
#810=DIRECTION('center_axis',(0.,-1.,0.));
#811=DIRECTION('ref_axis',(1.,0.,0.));
#812=DIRECTION('center_axis',(0.,-1.,0.));
#813=DIRECTION('ref_axis',(1.,0.,0.));
#814=DIRECTION('center_axis',(0.,-1.,0.));
#815=DIRECTION('ref_axis',(1.,0.,0.));
#816=DIRECTION('center_axis',(0.,1.,0.));
#817=DIRECTION('ref_axis',(1.,0.,0.));
#818=DIRECTION('',(0.,-1.,0.));
#819=DIRECTION('center_axis',(0.,1.,0.));
#820=DIRECTION('ref_axis',(1.,0.,0.));
#821=DIRECTION('',(0.,-1.,0.));
#822=DIRECTION('center_axis',(0.,0.,-1.));
#823=DIRECTION('ref_axis',(-1.,0.,0.));
#824=DIRECTION('',(0.,0.,1.));
#825=DIRECTION('',(1.,0.,0.));
#826=CARTESIAN_POINT('',(0.,0.,0.));
#827=CARTESIAN_POINT('',(0.,0.,0.));
#828=CARTESIAN_POINT('Origin',(86.,10.,2.75));
#829=CARTESIAN_POINT('',(84.4,10.,2.));
#830=CARTESIAN_POINT('Origin',(86.,10.,2.));
#831=CARTESIAN_POINT('',(82.9,10.,3.5));
#832=CARTESIAN_POINT('',(83.65,10.,2.75));
#833=CARTESIAN_POINT('Origin',(86.,10.,3.5));
#834=CARTESIAN_POINT('Origin',(84.4999998046975,7.,3.5));
#835=CARTESIAN_POINT('',(90.,6.5,3.5));
#836=CARTESIAN_POINT('',(81.999999609395,6.5,3.5));
#837=CARTESIAN_POINT('',(82.2499997070463,6.5,3.5));
#838=CARTESIAN_POINT('',(90.,10.,3.5));
#839=CARTESIAN_POINT('',(90.,3.5,3.5));
#840=CARTESIAN_POINT('',(85.999999609395,14.,3.5));
#841=CARTESIAN_POINT('Origin',(86.,10.,3.5));
#842=CARTESIAN_POINT('',(81.999999609395,10.,3.5));
#843=CARTESIAN_POINT('Origin',(85.999999609395,10.,3.5));
#844=CARTESIAN_POINT('',(81.999999609395,10.5,3.5));
#845=CARTESIAN_POINT('Origin',(86.,10.,0.));
#846=CARTESIAN_POINT('',(84.4,10.,0.));
#847=CARTESIAN_POINT('',(84.4,10.,0.));
#848=CARTESIAN_POINT('Origin',(86.,10.,0.));
#849=CARTESIAN_POINT('Origin',(82.2499997070463,5.75,4.25));
#850=CARTESIAN_POINT('',(81.999999609395,5.,5.));
#851=CARTESIAN_POINT('',(81.999999609395,9.375,0.625000000000002));
#852=CARTESIAN_POINT('',(90.,5.,5.));
#853=CARTESIAN_POINT('',(82.2499997070463,5.,5.));
#854=CARTESIAN_POINT('',(90.,5.875,4.125));
#855=CARTESIAN_POINT('Origin',(79.999999609395,5.,0.));
#856=CARTESIAN_POINT('',(81.999999609395,5.,0.));
#857=CARTESIAN_POINT('',(81.999999609395,5.,0.));
#858=CARTESIAN_POINT('',(76.999999609395,5.,0.));
#859=CARTESIAN_POINT('',(82.2499997070463,5.,0.));
#860=CARTESIAN_POINT('',(76.999999609395,5.,22.));
#861=CARTESIAN_POINT('',(76.999999609395,5.,0.));
#862=CARTESIAN_POINT('',(90.,5.,22.));
#863=CARTESIAN_POINT('',(82.2499997070463,5.,22.));
#864=CARTESIAN_POINT('',(90.,5.,0.));
#865=CARTESIAN_POINT('Origin',(81.999999609395,14.,0.));
#866=CARTESIAN_POINT('',(81.999999609395,10.,0.));
#867=CARTESIAN_POINT('',(81.999999609395,10.,0.));
#868=CARTESIAN_POINT('',(81.999999609395,6.5,0.));
#869=CARTESIAN_POINT('Origin',(84.4999993002511,4.,17.4763917582217));
#870=CARTESIAN_POINT('',(86.7999993002511,4.,17.4763917582217));
#871=CARTESIAN_POINT('Origin',(84.4999993002511,4.,17.4763917582217));
#872=CARTESIAN_POINT('Origin',(86.,10.,0.));
#873=CARTESIAN_POINT('',(90.,10.,0.));
#874=CARTESIAN_POINT('',(85.999999609395,14.,0.));
#875=CARTESIAN_POINT('Origin',(86.,10.,0.));
#876=CARTESIAN_POINT('',(85.999999609395,14.,0.));
#877=CARTESIAN_POINT('',(90.,10.,0.));
#878=CARTESIAN_POINT('Origin',(85.999999609395,10.,0.));
#879=CARTESIAN_POINT('Origin',(85.999999609395,10.,0.));
#880=CARTESIAN_POINT('Origin',(84.4999998046975,7.,0.));
#881=CARTESIAN_POINT('',(90.,0.,0.));
#882=CARTESIAN_POINT('',(90.,3.5,0.));
#883=CARTESIAN_POINT('',(76.999999609395,0.,0.));
#884=CARTESIAN_POINT('',(79.999999609395,0.,0.));
#885=CARTESIAN_POINT('',(76.999999609395,0.,0.));
#886=CARTESIAN_POINT('Origin',(76.999999609395,6.,0.));
#887=CARTESIAN_POINT('',(76.999999609395,0.,22.));
#888=CARTESIAN_POINT('',(76.999999609395,0.,0.));
#889=CARTESIAN_POINT('',(76.999999609395,0.,22.));
#890=CARTESIAN_POINT('Origin',(90.,0.,0.));
#891=CARTESIAN_POINT('',(90.,0.,22.));
#892=CARTESIAN_POINT('',(90.,1.5,22.));
#893=CARTESIAN_POINT('',(90.,0.,0.));
#894=CARTESIAN_POINT('Origin',(76.999999609395,0.,0.));
#895=CARTESIAN_POINT('',(79.999999609395,0.,22.));
#896=CARTESIAN_POINT('',(86.7999993002511,0.,17.4763917582217));
#897=CARTESIAN_POINT('Origin',(84.4999993002511,0.,17.4763917582217));
#898=CARTESIAN_POINT('',(86.8000000708651,0.,3.19185886243144));
#899=CARTESIAN_POINT('Origin',(84.5000000708651,0.,3.19185886243144));
#900=CARTESIAN_POINT('Origin',(84.5000000708651,4.,3.19185886243144));
#901=CARTESIAN_POINT('',(86.8000000708651,4.,3.19185886243144));
#902=CARTESIAN_POINT('Origin',(84.5000000708651,4.,3.19185886243144));
#903=CARTESIAN_POINT('Origin',(84.5000000708651,6.,3.19185886243144));
#904=CARTESIAN_POINT('',(86.8000000708651,6.,3.19185886243144));
#905=CARTESIAN_POINT('Origin',(84.4999993002511,6.,17.4763917582217));
#906=CARTESIAN_POINT('',(86.7999993002511,6.,17.4763917582217));
#907=CARTESIAN_POINT('Origin',(84.4999998046975,3.,22.));
#908=CARTESIAN_POINT('Origin',(6.00000000000001,10.,2.75));
#909=CARTESIAN_POINT('',(7.60000000000002,10.,2.));
#910=CARTESIAN_POINT('Origin',(6.00000000000001,10.,2.));
#911=CARTESIAN_POINT('',(9.10000000000002,10.,3.5));
#912=CARTESIAN_POINT('',(8.35000000000002,10.,2.75));
#913=CARTESIAN_POINT('Origin',(6.00000000000001,10.,3.5));
#914=CARTESIAN_POINT('Origin',(7.50000019530249,7.,3.5));
#915=CARTESIAN_POINT('',(1.99999999999998,6.5,3.5));
#916=CARTESIAN_POINT('',(10.000000390605,6.5,3.5));
#917=CARTESIAN_POINT('',(9.75000029295375,6.5,3.5));
#918=CARTESIAN_POINT('',(10.000000390605,10.,3.5));
#919=CARTESIAN_POINT('',(10.000000390605,10.5,3.5));
#920=CARTESIAN_POINT('',(6.000000390605,14.,3.5));
#921=CARTESIAN_POINT('Origin',(6.000000390605,10.,3.5));
#922=CARTESIAN_POINT('',(1.99999999999998,10.,3.5));
#923=CARTESIAN_POINT('Origin',(6.,10.,3.5));
#924=CARTESIAN_POINT('',(1.99999999999998,3.5,3.5));
#925=CARTESIAN_POINT('Origin',(6.00000000000001,10.,0.));
#926=CARTESIAN_POINT('',(7.60000000000002,10.,0.));
#927=CARTESIAN_POINT('',(7.60000000000002,10.,0.));
#928=CARTESIAN_POINT('Origin',(6.00000000000001,10.,0.));
#929=CARTESIAN_POINT('Origin',(9.75000029295375,5.75,4.25));
#930=CARTESIAN_POINT('',(10.000000390605,5.,5.));
#931=CARTESIAN_POINT('',(10.000000390605,9.375,0.625000000000002));
#932=CARTESIAN_POINT('',(1.99999999999999,5.,5.));
#933=CARTESIAN_POINT('',(1.99999999999999,5.875,4.125));
#934=CARTESIAN_POINT('',(9.75000029295375,5.,5.));
#935=CARTESIAN_POINT('Origin',(12.000000390605,5.,0.));
#936=CARTESIAN_POINT('',(1.99999999999998,5.,22.));
#937=CARTESIAN_POINT('',(1.99999999999999,5.,0.));
#938=CARTESIAN_POINT('',(15.000000390605,5.,22.));
#939=CARTESIAN_POINT('',(9.75000029295375,5.,22.));
#940=CARTESIAN_POINT('',(15.000000390605,5.,0.));
#941=CARTESIAN_POINT('',(15.000000390605,5.,0.));
#942=CARTESIAN_POINT('',(10.000000390605,5.,0.));
#943=CARTESIAN_POINT('',(9.75000029295375,5.,0.));
#944=CARTESIAN_POINT('',(10.000000390605,5.,0.));
#945=CARTESIAN_POINT('Origin',(10.000000390605,14.,0.));
#946=CARTESIAN_POINT('',(10.000000390605,10.,0.));
#947=CARTESIAN_POINT('',(10.000000390605,6.5,0.));
#948=CARTESIAN_POINT('',(10.000000390605,10.,0.));
#949=CARTESIAN_POINT('Origin',(7.5000006997489,4.,17.4763917582217));
#950=CARTESIAN_POINT('',(5.20000069974889,4.,17.4763917582217));
#951=CARTESIAN_POINT('Origin',(7.5000006997489,4.,17.4763917582217));
#952=CARTESIAN_POINT('Origin',(6.,10.,0.));
#953=CARTESIAN_POINT('',(1.99999999999998,10.,0.));
#954=CARTESIAN_POINT('',(6.000000390605,14.,0.));
#955=CARTESIAN_POINT('Origin',(6.,10.,0.));
#956=CARTESIAN_POINT('',(1.99999999999999,10.,0.));
#957=CARTESIAN_POINT('',(6.000000390605,14.,0.));
#958=CARTESIAN_POINT('Origin',(6.000000390605,10.,0.));
#959=CARTESIAN_POINT('Origin',(6.000000390605,10.,0.));
#960=CARTESIAN_POINT('Origin',(7.50000019530249,7.,0.));
#961=CARTESIAN_POINT('',(15.000000390605,0.,0.));
#962=CARTESIAN_POINT('',(15.000000390605,0.,0.));
#963=CARTESIAN_POINT('',(1.99999999999999,0.,0.));
#964=CARTESIAN_POINT('',(12.000000390605,0.,0.));
#965=CARTESIAN_POINT('',(1.99999999999998,3.5,0.));
#966=CARTESIAN_POINT('Origin',(15.000000390605,6.,0.));
#967=CARTESIAN_POINT('',(15.000000390605,0.,22.));
#968=CARTESIAN_POINT('',(15.000000390605,0.,22.));
#969=CARTESIAN_POINT('',(15.000000390605,0.,0.));
#970=CARTESIAN_POINT('Origin',(1.99999999999999,0.,0.));
#971=CARTESIAN_POINT('',(1.99999999999999,0.,22.));
#972=CARTESIAN_POINT('',(1.99999999999999,0.,0.));
#973=CARTESIAN_POINT('',(1.99999999999998,1.5,22.));
#974=CARTESIAN_POINT('Origin',(15.000000390605,0.,0.));
#975=CARTESIAN_POINT('',(12.000000390605,0.,22.));
#976=CARTESIAN_POINT('',(5.20000069974889,0.,17.4763917582217));
#977=CARTESIAN_POINT('Origin',(7.5000006997489,0.,17.4763917582217));
#978=CARTESIAN_POINT('',(5.19999992913487,0.,3.19185886243144));
#979=CARTESIAN_POINT('Origin',(7.49999992913487,0.,3.19185886243144));
#980=CARTESIAN_POINT('Origin',(7.49999992913487,4.,3.19185886243144));
#981=CARTESIAN_POINT('',(5.19999992913487,4.,3.19185886243144));
#982=CARTESIAN_POINT('Origin',(7.49999992913487,4.,3.19185886243144));
#983=CARTESIAN_POINT('Origin',(7.49999992913487,6.,3.19185886243144));
#984=CARTESIAN_POINT('',(5.19999992913487,6.,3.19185886243144));
#985=CARTESIAN_POINT('Origin',(7.5000006997489,6.,17.4763917582217));
#986=CARTESIAN_POINT('',(5.20000069974889,6.,17.4763917582217));
#987=CARTESIAN_POINT('Origin',(7.50000019530249,3.,22.));
#988=CARTESIAN_POINT('',(0.,0.,0.));
#989=UNCERTAINTY_MEASURE_WITH_UNIT(LENGTH_MEASURE(0.01),#995,
'DISTANCE_ACCURACY_VALUE',
'Maximum model space distance between geometric entities at asserted c
onnectivities');
#990=UNCERTAINTY_MEASURE_WITH_UNIT(LENGTH_MEASURE(0.01),#995,
'DISTANCE_ACCURACY_VALUE',
'Maximum model space distance between geometric entities at asserted c
onnectivities');
#991=UNCERTAINTY_MEASURE_WITH_UNIT(LENGTH_MEASURE(0.01),#995,
'DISTANCE_ACCURACY_VALUE',
'Maximum model space distance between geometric entities at asserted c
onnectivities');
#992=(
GEOMETRIC_REPRESENTATION_CONTEXT(3)
GLOBAL_UNCERTAINTY_ASSIGNED_CONTEXT((#989))
GLOBAL_UNIT_ASSIGNED_CONTEXT((#995,#997,#998))
REPRESENTATION_CONTEXT('','3D')
);
#993=(
GEOMETRIC_REPRESENTATION_CONTEXT(3)
GLOBAL_UNCERTAINTY_ASSIGNED_CONTEXT((#990))
GLOBAL_UNIT_ASSIGNED_CONTEXT((#995,#997,#998))
REPRESENTATION_CONTEXT('','3D')
);
#994=(
GEOMETRIC_REPRESENTATION_CONTEXT(3)
GLOBAL_UNCERTAINTY_ASSIGNED_CONTEXT((#991))
GLOBAL_UNIT_ASSIGNED_CONTEXT((#995,#997,#998))
REPRESENTATION_CONTEXT('','3D')
);
#995=(
LENGTH_UNIT()
NAMED_UNIT(*)
SI_UNIT(.MILLI.,.METRE.)
);
#996=(
LENGTH_UNIT()
NAMED_UNIT(*)
SI_UNIT($,.METRE.)
);
#997=(
NAMED_UNIT(*)
PLANE_ANGLE_UNIT()
SI_UNIT($,.RADIAN.)
);
#998=(
NAMED_UNIT(*)
SI_UNIT($,.STERADIAN.)
SOLID_ANGLE_UNIT()
);
#999=SHAPE_DEFINITION_REPRESENTATION(#1001,#1004);
#1000=SHAPE_DEFINITION_REPRESENTATION(#1002,#1005);
#1001=PRODUCT_DEFINITION_SHAPE('',$,#1007);
#1002=PRODUCT_DEFINITION_SHAPE('',$,#1008);
#1003=PRODUCT_DEFINITION_SHAPE($,$,#14);
#1004=SHAPE_REPRESENTATION('',(#595,#653),#992);
#1005=SHAPE_REPRESENTATION('',(#596),#993);
#1006=PRODUCT_DEFINITION_CONTEXT('part definition',#1014,'design');
#1007=PRODUCT_DEFINITION('beovox-poe CX50 panel',
'beovox-poe CX50 panel v2',#1009,#1006);
#1008=PRODUCT_DEFINITION('pcb-mounts','pcb-mounts',#1010,#1006);
#1009=PRODUCT_DEFINITION_FORMATION('',$,#1016);
#1010=PRODUCT_DEFINITION_FORMATION('',$,#1017);
#1011=PRODUCT_RELATED_PRODUCT_CATEGORY('beovox-poe CX50 panel v2',
'beovox-poe CX50 panel v2',(#1016));
#1012=PRODUCT_RELATED_PRODUCT_CATEGORY('pcb-mounts','pcb-mounts',(#1017));
#1013=APPLICATION_PROTOCOL_DEFINITION('international standard',
'automotive_design',2009,#1014);
#1014=APPLICATION_CONTEXT(
'Core Data for Automotive Mechanical Design Process');
#1015=PRODUCT_CONTEXT('part definition',#1014,'mechanical');
#1016=PRODUCT('beovox-poe CX50 panel','beovox-poe CX50 panel v2',$,(#1015));
#1017=PRODUCT('pcb-mounts','pcb-mounts',$,(#1015));
#1018=PRESENTATION_STYLE_ASSIGNMENT((#1019));
#1019=SURFACE_STYLE_USAGE(.BOTH.,#1020);
#1020=SURFACE_SIDE_STYLE('',(#1021));
#1021=SURFACE_STYLE_FILL_AREA(#1022);
#1022=FILL_AREA_STYLE('ABS (White)',(#1023));
#1023=FILL_AREA_STYLE_COLOUR('ABS (White)',#1024);
#1024=COLOUR_RGB('ABS (White)',0.964705882352941,0.964705882352941,0.952941176470588);
ENDSEC;
END-ISO-10303-21;
