ISO-10303-21;
HEADER;
/* Generated by software containing ST-Developer
 * from STEP Tools, Inc. (www.steptools.com) 
 */

FILE_DESCRIPTION(
/* description */ (''),
/* implementation_level */ '2;1');

FILE_NAME(
/* name */ 'beovox-panel-cx50.step',
/* time_stamp */ '2026-05-08T11:07:18-06:00',
/* author */ (''),
/* organization */ (''),
/* preprocessor_version */ 'ST-DEVELOPER v20.1',
/* originating_system */ 'Autodesk Translation Framework v15.8.0.0',
/* authorisation */ '');

FILE_SCHEMA (('AUTOMOTIVE_DESIGN { 1 0 10303 214 3 1 1 }'));
ENDSEC;

DATA;
#10=MECHANICAL_DESIGN_GEOMETRIC_PRESENTATION_REPRESENTATION('',(#17),#1563);
#11=ITEM_DEFINED_TRANSFORMATION($,$,#979,#1046);
#12=(
REPRESENTATION_RELATIONSHIP($,$,#1574,#1573)
REPRESENTATION_RELATIONSHIP_WITH_TRANSFORMATION(#11)
SHAPE_REPRESENTATION_RELATIONSHIP()
);
#13=CONTEXT_DEPENDENT_SHAPE_REPRESENTATION(#12,#1572);
#14=NEXT_ASSEMBLY_USAGE_OCCURRENCE('panel2:1','panel2:1','panel2:1',#1576,
#1577,'panel2:1');
#15=SHAPE_REPRESENTATION_RELATIONSHIP('SRR','None',#1574,#16);
#16=ADVANCED_BREP_SHAPE_REPRESENTATION('',(#18),#1562);
#17=STYLED_ITEM('',(#1587),#18);
#18=MANIFOLD_SOLID_BREP('Body2',#965);
#19=CONICAL_SURFACE('',#994,2.35,0.78539816339745);
#20=CONICAL_SURFACE('',#1001,2.35,0.78539816339745);
#21=CONICAL_SURFACE('',#1003,2.35,0.785398163397449);
#22=CONICAL_SURFACE('',#1004,2.35,0.785398163397449);
#23=FACE_BOUND('',#139,.T.);
#24=FACE_BOUND('',#140,.T.);
#25=FACE_BOUND('',#148,.T.);
#26=FACE_BOUND('',#149,.T.);
#27=FACE_BOUND('',#150,.T.);
#28=FACE_BOUND('',#151,.T.);
#29=FACE_BOUND('',#152,.T.);
#30=FACE_BOUND('',#160,.T.);
#31=FACE_BOUND('',#161,.T.);
#32=FACE_BOUND('',#162,.T.);
#33=FACE_BOUND('',#163,.T.);
#34=FACE_BOUND('',#164,.T.);
#35=FACE_BOUND('',#170,.T.);
#36=FACE_BOUND('',#171,.T.);
#37=FACE_BOUND('',#172,.T.);
#38=FACE_BOUND('',#173,.T.);
#39=FACE_BOUND('',#174,.T.);
#40=FACE_BOUND('',#175,.T.);
#41=FACE_BOUND('',#176,.T.);
#42=FACE_BOUND('',#182,.T.);
#43=FACE_BOUND('',#183,.T.);
#44=FACE_BOUND('',#194,.T.);
#45=FACE_BOUND('',#195,.T.);
#46=FACE_BOUND('',#196,.T.);
#47=PLANE('',#983);
#48=PLANE('',#984);
#49=PLANE('',#985);
#50=PLANE('',#986);
#51=PLANE('',#989);
#52=PLANE('',#990);
#53=PLANE('',#991);
#54=PLANE('',#992);
#55=PLANE('',#993);
#56=PLANE('',#997);
#57=PLANE('',#1005);
#58=PLANE('',#1006);
#59=PLANE('',#1007);
#60=PLANE('',#1008);
#61=PLANE('',#1010);
#62=PLANE('',#1011);
#63=PLANE('',#1012);
#64=PLANE('',#1013);
#65=PLANE('',#1014);
#66=PLANE('',#1019);
#67=PLANE('',#1020);
#68=PLANE('',#1021);
#69=PLANE('',#1022);
#70=PLANE('',#1023);
#71=PLANE('',#1024);
#72=PLANE('',#1025);
#73=PLANE('',#1026);
#74=PLANE('',#1027);
#75=PLANE('',#1028);
#76=PLANE('',#1029);
#77=PLANE('',#1030);
#78=PLANE('',#1031);
#79=PLANE('',#1032);
#80=PLANE('',#1033);
#81=PLANE('',#1039);
#82=PLANE('',#1040);
#83=PLANE('',#1042);
#84=PLANE('',#1043);
#85=PLANE('',#1045);
#86=FACE_OUTER_BOUND('',#134,.T.);
#87=FACE_OUTER_BOUND('',#135,.T.);
#88=FACE_OUTER_BOUND('',#136,.T.);
#89=FACE_OUTER_BOUND('',#137,.T.);
#90=FACE_OUTER_BOUND('',#138,.T.);
#91=FACE_OUTER_BOUND('',#141,.T.);
#92=FACE_OUTER_BOUND('',#142,.T.);
#93=FACE_OUTER_BOUND('',#143,.T.);
#94=FACE_OUTER_BOUND('',#144,.T.);
#95=FACE_OUTER_BOUND('',#145,.T.);
#96=FACE_OUTER_BOUND('',#146,.T.);
#97=FACE_OUTER_BOUND('',#147,.T.);
#98=FACE_OUTER_BOUND('',#153,.T.);
#99=FACE_OUTER_BOUND('',#154,.T.);
#100=FACE_OUTER_BOUND('',#155,.T.);
#101=FACE_OUTER_BOUND('',#156,.T.);
#102=FACE_OUTER_BOUND('',#157,.T.);
#103=FACE_OUTER_BOUND('',#158,.T.);
#104=FACE_OUTER_BOUND('',#159,.T.);
#105=FACE_OUTER_BOUND('',#165,.T.);
#106=FACE_OUTER_BOUND('',#166,.T.);
#107=FACE_OUTER_BOUND('',#167,.T.);
#108=FACE_OUTER_BOUND('',#168,.T.);
#109=FACE_OUTER_BOUND('',#169,.T.);
#110=FACE_OUTER_BOUND('',#177,.T.);
#111=FACE_OUTER_BOUND('',#178,.T.);
#112=FACE_OUTER_BOUND('',#179,.T.);
#113=FACE_OUTER_BOUND('',#180,.T.);
#114=FACE_OUTER_BOUND('',#181,.T.);
#115=FACE_OUTER_BOUND('',#184,.T.);
#116=FACE_OUTER_BOUND('',#185,.T.);
#117=FACE_OUTER_BOUND('',#186,.T.);
#118=FACE_OUTER_BOUND('',#187,.T.);
#119=FACE_OUTER_BOUND('',#188,.T.);
#120=FACE_OUTER_BOUND('',#189,.T.);
#121=FACE_OUTER_BOUND('',#190,.T.);
#122=FACE_OUTER_BOUND('',#191,.T.);
#123=FACE_OUTER_BOUND('',#192,.T.);
#124=FACE_OUTER_BOUND('',#193,.T.);
#125=FACE_OUTER_BOUND('',#197,.T.);
#126=FACE_OUTER_BOUND('',#198,.T.);
#127=FACE_OUTER_BOUND('',#199,.T.);
#128=FACE_OUTER_BOUND('',#200,.T.);
#129=FACE_OUTER_BOUND('',#201,.T.);
#130=FACE_OUTER_BOUND('',#202,.T.);
#131=FACE_OUTER_BOUND('',#203,.T.);
#132=FACE_OUTER_BOUND('',#204,.T.);
#133=FACE_OUTER_BOUND('',#205,.T.);
#134=EDGE_LOOP('',(#656,#657,#658,#659));
#135=EDGE_LOOP('',(#660,#661,#662,#663));
#136=EDGE_LOOP('',(#664,#665,#666,#667));
#137=EDGE_LOOP('',(#668,#669,#670,#671));
#138=EDGE_LOOP('',(#672,#673,#674,#675,#676,#677,#678,#679));
#139=EDGE_LOOP('',(#680));
#140=EDGE_LOOP('',(#681));
#141=EDGE_LOOP('',(#682,#683,#684,#685));
#142=EDGE_LOOP('',(#686,#687,#688,#689));
#143=EDGE_LOOP('',(#690,#691,#692,#693));
#144=EDGE_LOOP('',(#694,#695,#696,#697));
#145=EDGE_LOOP('',(#698,#699,#700,#701));
#146=EDGE_LOOP('',(#702,#703,#704,#705));
#147=EDGE_LOOP('',(#706,#707,#708,#709));
#148=EDGE_LOOP('',(#710));
#149=EDGE_LOOP('',(#711));
#150=EDGE_LOOP('',(#712,#713,#714,#715));
#151=EDGE_LOOP('',(#716));
#152=EDGE_LOOP('',(#717));
#153=EDGE_LOOP('',(#718,#719,#720,#721));
#154=EDGE_LOOP('',(#722,#723,#724,#725));
#155=EDGE_LOOP('',(#726,#727,#728,#729));
#156=EDGE_LOOP('',(#730,#731,#732,#733));
#157=EDGE_LOOP('',(#734,#735,#736,#737));
#158=EDGE_LOOP('',(#738,#739,#740,#741));
#159=EDGE_LOOP('',(#742,#743,#744,#745,#746,#747,#748,#749,#750,#751,#752,
#753));
#160=EDGE_LOOP('',(#754));
#161=EDGE_LOOP('',(#755,#756));
#162=EDGE_LOOP('',(#757,#758,#759,#760));
#163=EDGE_LOOP('',(#761,#762,#763,#764));
#164=EDGE_LOOP('',(#765,#766,#767,#768));
#165=EDGE_LOOP('',(#769,#770,#771,#772));
#166=EDGE_LOOP('',(#773,#774,#775,#776));
#167=EDGE_LOOP('',(#777,#778,#779,#780));
#168=EDGE_LOOP('',(#781,#782,#783,#784));
#169=EDGE_LOOP('',(#785,#786,#787,#788));
#170=EDGE_LOOP('',(#789));
#171=EDGE_LOOP('',(#790));
#172=EDGE_LOOP('',(#791,#792,#793,#794));
#173=EDGE_LOOP('',(#795));
#174=EDGE_LOOP('',(#796,#797,#798,#799));
#175=EDGE_LOOP('',(#800));
#176=EDGE_LOOP('',(#801,#802));
#177=EDGE_LOOP('',(#803,#804,#805,#806));
#178=EDGE_LOOP('',(#807,#808,#809,#810,#811,#812));
#179=EDGE_LOOP('',(#813,#814,#815,#816));
#180=EDGE_LOOP('',(#817,#818,#819,#820,#821,#822));
#181=EDGE_LOOP('',(#823,#824,#825,#826,#827,#828,#829,#830));
#182=EDGE_LOOP('',(#831));
#183=EDGE_LOOP('',(#832));
#184=EDGE_LOOP('',(#833,#834,#835,#836));
#185=EDGE_LOOP('',(#837,#838,#839,#840));
#186=EDGE_LOOP('',(#841,#842,#843,#844));
#187=EDGE_LOOP('',(#845,#846,#847,#848));
#188=EDGE_LOOP('',(#849,#850,#851,#852));
#189=EDGE_LOOP('',(#853,#854,#855,#856));
#190=EDGE_LOOP('',(#857,#858,#859,#860));
#191=EDGE_LOOP('',(#861,#862,#863,#864));
#192=EDGE_LOOP('',(#865,#866,#867,#868));
#193=EDGE_LOOP('',(#869,#870,#871,#872));
#194=EDGE_LOOP('',(#873));
#195=EDGE_LOOP('',(#874));
#196=EDGE_LOOP('',(#875));
#197=EDGE_LOOP('',(#876,#877,#878,#879));
#198=EDGE_LOOP('',(#880,#881,#882,#883));
#199=EDGE_LOOP('',(#884,#885,#886,#887));
#200=EDGE_LOOP('',(#888,#889,#890,#891));
#201=EDGE_LOOP('',(#892,#893,#894,#895));
#202=EDGE_LOOP('',(#896,#897,#898,#899));
#203=EDGE_LOOP('',(#900,#901,#902,#903));
#204=EDGE_LOOP('',(#904,#905,#906,#907));
#205=EDGE_LOOP('',(#908,#909,#910,#911));
#206=LINE('',#1301,#316);
#207=LINE('',#1306,#317);
#208=LINE('',#1308,#318);
#209=LINE('',#1310,#319);
#210=LINE('',#1311,#320);
#211=LINE('',#1315,#321);
#212=LINE('',#1317,#322);
#213=LINE('',#1319,#323);
#214=LINE('',#1320,#324);
#215=LINE('',#1322,#325);
#216=LINE('',#1323,#326);
#217=LINE('',#1326,#327);
#218=LINE('',#1328,#328);
#219=LINE('',#1330,#329);
#220=LINE('',#1332,#330);
#221=LINE('',#1334,#331);
#222=LINE('',#1336,#332);
#223=LINE('',#1337,#333);
#224=LINE('',#1344,#334);
#225=LINE('',#1345,#335);
#226=LINE('',#1348,#336);
#227=LINE('',#1350,#337);
#228=LINE('',#1351,#338);
#229=LINE('',#1354,#339);
#230=LINE('',#1356,#340);
#231=LINE('',#1357,#341);
#232=LINE('',#1360,#342);
#233=LINE('',#1362,#343);
#234=LINE('',#1363,#344);
#235=LINE('',#1366,#345);
#236=LINE('',#1368,#346);
#237=LINE('',#1369,#347);
#238=LINE('',#1374,#348);
#239=LINE('',#1379,#349);
#240=LINE('',#1381,#350);
#241=LINE('',#1383,#351);
#242=LINE('',#1384,#352);
#243=LINE('',#1391,#353);
#244=LINE('',#1393,#354);
#245=LINE('',#1395,#355);
#246=LINE('',#1396,#356);
#247=LINE('',#1402,#357);
#248=LINE('',#1404,#358);
#249=LINE('',#1406,#359);
#250=LINE('',#1409,#360);
#251=LINE('',#1411,#361);
#252=LINE('',#1412,#362);
#253=LINE('',#1415,#363);
#254=LINE('',#1416,#364);
#255=LINE('',#1418,#365);
#256=LINE('',#1419,#366);
#257=LINE('',#1421,#367);
#258=LINE('',#1424,#368);
#259=LINE('',#1428,#369);
#260=LINE('',#1430,#370);
#261=LINE('',#1432,#371);
#262=LINE('',#1433,#372);
#263=LINE('',#1436,#373);
#264=LINE('',#1438,#374);
#265=LINE('',#1440,#375);
#266=LINE('',#1441,#376);
#267=LINE('',#1444,#377);
#268=LINE('',#1446,#378);
#269=LINE('',#1448,#379);
#270=LINE('',#1449,#380);
#271=LINE('',#1453,#381);
#272=LINE('',#1454,#382);
#273=LINE('',#1455,#383);
#274=LINE('',#1459,#384);
#275=LINE('',#1460,#385);
#276=LINE('',#1461,#386);
#277=LINE('',#1463,#387);
#278=LINE('',#1465,#388);
#279=LINE('',#1471,#389);
#280=LINE('',#1473,#390);
#281=LINE('',#1475,#391);
#282=LINE('',#1476,#392);
#283=LINE('',#1481,#393);
#284=LINE('',#1483,#394);
#285=LINE('',#1485,#395);
#286=LINE('',#1486,#396);
#287=LINE('',#1491,#397);
#288=LINE('',#1494,#398);
#289=LINE('',#1495,#399);
#290=LINE('',#1498,#400);
#291=LINE('',#1499,#401);
#292=LINE('',#1502,#402);
#293=LINE('',#1503,#403);
#294=LINE('',#1505,#404);
#295=LINE('',#1508,#405);
#296=LINE('',#1509,#406);
#297=LINE('',#1511,#407);
#298=LINE('',#1512,#408);
#299=LINE('',#1514,#409);
#300=LINE('',#1516,#410);
#301=LINE('',#1517,#411);
#302=LINE('',#1519,#412);
#303=LINE('',#1522,#413);
#304=LINE('',#1524,#414);
#305=LINE('',#1525,#415);
#306=LINE('',#1528,#416);
#307=LINE('',#1529,#417);
#308=LINE('',#1532,#418);
#309=LINE('',#1533,#419);
#310=LINE('',#1535,#420);
#311=LINE('',#1545,#421);
#312=LINE('',#1547,#422);
#313=LINE('',#1550,#423);
#314=LINE('',#1552,#424);
#315=LINE('',#1555,#425);
#316=VECTOR('',#1055,1.6);
#317=VECTOR('',#1060,10.);
#318=VECTOR('',#1061,10.);
#319=VECTOR('',#1062,10.);
#320=VECTOR('',#1063,10.);
#321=VECTOR('',#1066,10.);
#322=VECTOR('',#1067,10.);
#323=VECTOR('',#1068,10.);
#324=VECTOR('',#1069,10.);
#325=VECTOR('',#1072,10.);
#326=VECTOR('',#1073,10.);
#327=VECTOR('',#1076,10.);
#328=VECTOR('',#1077,10.);
#329=VECTOR('',#1078,10.);
#330=VECTOR('',#1079,10.);
#331=VECTOR('',#1080,10.);
#332=VECTOR('',#1081,10.);
#333=VECTOR('',#1082,10.);
#334=VECTOR('',#1089,10.);
#335=VECTOR('',#1090,10.);
#336=VECTOR('',#1093,10.);
#337=VECTOR('',#1094,10.);
#338=VECTOR('',#1095,10.);
#339=VECTOR('',#1098,10.);
#340=VECTOR('',#1099,10.);
#341=VECTOR('',#1100,10.);
#342=VECTOR('',#1103,10.);
#343=VECTOR('',#1104,10.);
#344=VECTOR('',#1105,10.);
#345=VECTOR('',#1108,10.);
#346=VECTOR('',#1109,10.);
#347=VECTOR('',#1110,10.);
#348=VECTOR('',#1115,2.35);
#349=VECTOR('',#1120,10.);
#350=VECTOR('',#1121,10.);
#351=VECTOR('',#1122,10.);
#352=VECTOR('',#1123,10.);
#353=VECTOR('',#1128,10.);
#354=VECTOR('',#1129,10.);
#355=VECTOR('',#1130,10.);
#356=VECTOR('',#1131,10.);
#357=VECTOR('',#1138,2.35);
#358=VECTOR('',#1141,2.35);
#359=VECTOR('',#1144,2.35);
#360=VECTOR('',#1147,10.);
#361=VECTOR('',#1148,10.);
#362=VECTOR('',#1149,10.);
#363=VECTOR('',#1152,10.);
#364=VECTOR('',#1153,10.);
#365=VECTOR('',#1156,10.);
#366=VECTOR('',#1157,10.);
#367=VECTOR('',#1160,10.);
#368=VECTOR('',#1161,10.);
#369=VECTOR('',#1164,10.);
#370=VECTOR('',#1165,10.);
#371=VECTOR('',#1166,10.);
#372=VECTOR('',#1167,10.);
#373=VECTOR('',#1168,10.);
#374=VECTOR('',#1169,10.);
#375=VECTOR('',#1170,10.);
#376=VECTOR('',#1171,10.);
#377=VECTOR('',#1172,10.);
#378=VECTOR('',#1173,10.);
#379=VECTOR('',#1174,10.);
#380=VECTOR('',#1175,10.);
#381=VECTOR('',#1178,10.);
#382=VECTOR('',#1179,10.);
#383=VECTOR('',#1180,10.);
#384=VECTOR('',#1183,10.);
#385=VECTOR('',#1184,10.);
#386=VECTOR('',#1185,10.);
#387=VECTOR('',#1188,10.);
#388=VECTOR('',#1191,10.);
#389=VECTOR('',#1196,10.);
#390=VECTOR('',#1197,10.);
#391=VECTOR('',#1198,10.);
#392=VECTOR('',#1199,10.);
#393=VECTOR('',#1202,10.);
#394=VECTOR('',#1203,10.);
#395=VECTOR('',#1204,10.);
#396=VECTOR('',#1205,10.);
#397=VECTOR('',#1208,10.);
#398=VECTOR('',#1213,10.);
#399=VECTOR('',#1214,10.);
#400=VECTOR('',#1217,10.);
#401=VECTOR('',#1218,10.);
#402=VECTOR('',#1221,10.);
#403=VECTOR('',#1222,10.);
#404=VECTOR('',#1225,10.);
#405=VECTOR('',#1230,10.);
#406=VECTOR('',#1231,10.);
#407=VECTOR('',#1234,10.);
#408=VECTOR('',#1235,10.);
#409=VECTOR('',#1238,10.);
#410=VECTOR('',#1241,10.);
#411=VECTOR('',#1242,10.);
#412=VECTOR('',#1245,10.);
#413=VECTOR('',#1248,10.);
#414=VECTOR('',#1249,10.);
#415=VECTOR('',#1250,10.);
#416=VECTOR('',#1253,10.);
#417=VECTOR('',#1254,10.);
#418=VECTOR('',#1257,10.);
#419=VECTOR('',#1258,10.);
#420=VECTOR('',#1261,10.);
#421=VECTOR('',#1274,1.57499964);
#422=VECTOR('',#1277,10.);
#423=VECTOR('',#1282,1.57499964);
#424=VECTOR('',#1285,10.);
#425=VECTOR('',#1290,1.57499964);
#426=CIRCLE('',#981,1.6);
#427=CIRCLE('',#982,1.6);
#428=CIRCLE('',#987,1.6);
#429=CIRCLE('',#988,1.6);
#430=CIRCLE('',#995,1.6);
#431=CIRCLE('',#996,3.1);
#432=CIRCLE('',#998,3.1);
#433=CIRCLE('',#999,3.1);
#434=CIRCLE('',#1000,3.1);
#435=CIRCLE('',#1002,1.6);
#436=CIRCLE('',#1009,5.6388);
#437=CIRCLE('',#1015,1.57499964);
#438=CIRCLE('',#1016,1.57499964);
#439=CIRCLE('',#1017,1.57499964);
#440=CIRCLE('',#1018,5.6388);
#441=CIRCLE('',#1034,1.57499964);
#442=CIRCLE('',#1035,1.57499964);
#443=CIRCLE('',#1036,1.57499964);
#444=VERTEX_POINT('',#1298);
#445=VERTEX_POINT('',#1300);
#446=VERTEX_POINT('',#1304);
#447=VERTEX_POINT('',#1305);
#448=VERTEX_POINT('',#1307);
#449=VERTEX_POINT('',#1309);
#450=VERTEX_POINT('',#1313);
#451=VERTEX_POINT('',#1314);
#452=VERTEX_POINT('',#1316);
#453=VERTEX_POINT('',#1318);
#454=VERTEX_POINT('',#1325);
#455=VERTEX_POINT('',#1327);
#456=VERTEX_POINT('',#1329);
#457=VERTEX_POINT('',#1331);
#458=VERTEX_POINT('',#1333);
#459=VERTEX_POINT('',#1335);
#460=VERTEX_POINT('',#1338);
#461=VERTEX_POINT('',#1340);
#462=VERTEX_POINT('',#1343);
#463=VERTEX_POINT('',#1347);
#464=VERTEX_POINT('',#1349);
#465=VERTEX_POINT('',#1353);
#466=VERTEX_POINT('',#1355);
#467=VERTEX_POINT('',#1359);
#468=VERTEX_POINT('',#1361);
#469=VERTEX_POINT('',#1365);
#470=VERTEX_POINT('',#1367);
#471=VERTEX_POINT('',#1371);
#472=VERTEX_POINT('',#1373);
#473=VERTEX_POINT('',#1377);
#474=VERTEX_POINT('',#1378);
#475=VERTEX_POINT('',#1380);
#476=VERTEX_POINT('',#1382);
#477=VERTEX_POINT('',#1385);
#478=VERTEX_POINT('',#1387);
#479=VERTEX_POINT('',#1389);
#480=VERTEX_POINT('',#1390);
#481=VERTEX_POINT('',#1392);
#482=VERTEX_POINT('',#1394);
#483=VERTEX_POINT('',#1397);
#484=VERTEX_POINT('',#1400);
#485=VERTEX_POINT('',#1408);
#486=VERTEX_POINT('',#1410);
#487=VERTEX_POINT('',#1414);
#488=VERTEX_POINT('',#1422);
#489=VERTEX_POINT('',#1423);
#490=VERTEX_POINT('',#1426);
#491=VERTEX_POINT('',#1427);
#492=VERTEX_POINT('',#1429);
#493=VERTEX_POINT('',#1431);
#494=VERTEX_POINT('',#1434);
#495=VERTEX_POINT('',#1435);
#496=VERTEX_POINT('',#1437);
#497=VERTEX_POINT('',#1439);
#498=VERTEX_POINT('',#1442);
#499=VERTEX_POINT('',#1443);
#500=VERTEX_POINT('',#1445);
#501=VERTEX_POINT('',#1447);
#502=VERTEX_POINT('',#1451);
#503=VERTEX_POINT('',#1452);
#504=VERTEX_POINT('',#1457);
#505=VERTEX_POINT('',#1458);
#506=VERTEX_POINT('',#1467);
#507=VERTEX_POINT('',#1469);
#508=VERTEX_POINT('',#1470);
#509=VERTEX_POINT('',#1472);
#510=VERTEX_POINT('',#1474);
#511=VERTEX_POINT('',#1477);
#512=VERTEX_POINT('',#1479);
#513=VERTEX_POINT('',#1480);
#514=VERTEX_POINT('',#1482);
#515=VERTEX_POINT('',#1484);
#516=VERTEX_POINT('',#1487);
#517=VERTEX_POINT('',#1489);
#518=VERTEX_POINT('',#1490);
#519=VERTEX_POINT('',#1497);
#520=VERTEX_POINT('',#1501);
#521=VERTEX_POINT('',#1521);
#522=VERTEX_POINT('',#1523);
#523=VERTEX_POINT('',#1527);
#524=VERTEX_POINT('',#1531);
#525=VERTEX_POINT('',#1537);
#526=VERTEX_POINT('',#1539);
#527=VERTEX_POINT('',#1541);
#528=EDGE_CURVE('',#444,#444,#426,.T.);
#529=EDGE_CURVE('',#444,#445,#206,.T.);
#530=EDGE_CURVE('',#445,#445,#427,.F.);
#531=EDGE_CURVE('',#446,#447,#207,.T.);
#532=EDGE_CURVE('',#446,#448,#208,.T.);
#533=EDGE_CURVE('',#449,#448,#209,.F.);
#534=EDGE_CURVE('',#447,#449,#210,.F.);
#535=EDGE_CURVE('',#450,#451,#211,.T.);
#536=EDGE_CURVE('',#452,#450,#212,.F.);
#537=EDGE_CURVE('',#453,#452,#213,.F.);
#538=EDGE_CURVE('',#451,#453,#214,.T.);
#539=EDGE_CURVE('',#446,#451,#215,.T.);
#540=EDGE_CURVE('',#448,#453,#216,.F.);
#541=EDGE_CURVE('',#447,#454,#217,.T.);
#542=EDGE_CURVE('',#455,#454,#218,.T.);
#543=EDGE_CURVE('',#455,#456,#219,.T.);
#544=EDGE_CURVE('',#456,#457,#220,.T.);
#545=EDGE_CURVE('',#457,#458,#221,.T.);
#546=EDGE_CURVE('',#458,#459,#222,.T.);
#547=EDGE_CURVE('',#459,#446,#223,.T.);
#548=EDGE_CURVE('',#460,#460,#428,.T.);
#549=EDGE_CURVE('',#461,#461,#429,.T.);
#550=EDGE_CURVE('',#449,#462,#224,.T.);
#551=EDGE_CURVE('',#462,#454,#225,.T.);
#552=EDGE_CURVE('',#463,#456,#226,.T.);
#553=EDGE_CURVE('',#464,#463,#227,.F.);
#554=EDGE_CURVE('',#457,#464,#228,.T.);
#555=EDGE_CURVE('',#465,#457,#229,.T.);
#556=EDGE_CURVE('',#466,#464,#230,.F.);
#557=EDGE_CURVE('',#465,#466,#231,.T.);
#558=EDGE_CURVE('',#465,#467,#232,.T.);
#559=EDGE_CURVE('',#468,#466,#233,.F.);
#560=EDGE_CURVE('',#467,#468,#234,.T.);
#561=EDGE_CURVE('',#469,#468,#235,.T.);
#562=EDGE_CURVE('',#470,#469,#236,.T.);
#563=EDGE_CURVE('',#467,#470,#237,.T.);
#564=EDGE_CURVE('',#471,#471,#430,.T.);
#565=EDGE_CURVE('',#471,#472,#238,.T.);
#566=EDGE_CURVE('',#472,#472,#431,.T.);
#567=EDGE_CURVE('',#473,#474,#239,.T.);
#568=EDGE_CURVE('',#475,#473,#240,.T.);
#569=EDGE_CURVE('',#476,#475,#241,.T.);
#570=EDGE_CURVE('',#474,#476,#242,.T.);
#571=EDGE_CURVE('',#477,#477,#432,.T.);
#572=EDGE_CURVE('',#478,#478,#433,.T.);
#573=EDGE_CURVE('',#479,#480,#243,.T.);
#574=EDGE_CURVE('',#481,#479,#244,.T.);
#575=EDGE_CURVE('',#482,#481,#245,.T.);
#576=EDGE_CURVE('',#480,#482,#246,.T.);
#577=EDGE_CURVE('',#483,#483,#434,.T.);
#578=EDGE_CURVE('',#484,#484,#435,.T.);
#579=EDGE_CURVE('',#484,#477,#247,.T.);
#580=EDGE_CURVE('',#461,#483,#248,.T.);
#581=EDGE_CURVE('',#460,#478,#249,.T.);
#582=EDGE_CURVE('',#485,#450,#250,.T.);
#583=EDGE_CURVE('',#485,#486,#251,.T.);
#584=EDGE_CURVE('',#486,#452,#252,.T.);
#585=EDGE_CURVE('',#487,#455,#253,.F.);
#586=EDGE_CURVE('',#463,#487,#254,.T.);
#587=EDGE_CURVE('',#469,#486,#255,.T.);
#588=EDGE_CURVE('',#485,#470,#256,.T.);
#589=EDGE_CURVE('',#462,#487,#257,.T.);
#590=EDGE_CURVE('',#488,#489,#258,.T.);
#591=EDGE_CURVE('',#489,#488,#436,.T.);
#592=EDGE_CURVE('',#490,#491,#259,.T.);
#593=EDGE_CURVE('',#492,#490,#260,.T.);
#594=EDGE_CURVE('',#493,#492,#261,.T.);
#595=EDGE_CURVE('',#491,#493,#262,.T.);
#596=EDGE_CURVE('',#494,#495,#263,.T.);
#597=EDGE_CURVE('',#496,#494,#264,.T.);
#598=EDGE_CURVE('',#497,#496,#265,.T.);
#599=EDGE_CURVE('',#495,#497,#266,.T.);
#600=EDGE_CURVE('',#498,#499,#267,.F.);
#601=EDGE_CURVE('',#500,#498,#268,.F.);
#602=EDGE_CURVE('',#501,#500,#269,.F.);
#603=EDGE_CURVE('',#499,#501,#270,.F.);
#604=EDGE_CURVE('',#502,#503,#271,.T.);
#605=EDGE_CURVE('',#503,#482,#272,.T.);
#606=EDGE_CURVE('',#481,#502,#273,.T.);
#607=EDGE_CURVE('',#504,#505,#274,.T.);
#608=EDGE_CURVE('',#505,#479,#275,.T.);
#609=EDGE_CURVE('',#480,#504,#276,.T.);
#610=EDGE_CURVE('',#505,#502,#277,.T.);
#611=EDGE_CURVE('',#503,#504,#278,.T.);
#612=EDGE_CURVE('',#506,#506,#437,.T.);
#613=EDGE_CURVE('',#507,#508,#279,.T.);
#614=EDGE_CURVE('',#508,#509,#280,.T.);
#615=EDGE_CURVE('',#509,#510,#281,.T.);
#616=EDGE_CURVE('',#510,#507,#282,.T.);
#617=EDGE_CURVE('',#511,#511,#438,.T.);
#618=EDGE_CURVE('',#512,#513,#283,.T.);
#619=EDGE_CURVE('',#513,#514,#284,.T.);
#620=EDGE_CURVE('',#514,#515,#285,.T.);
#621=EDGE_CURVE('',#515,#512,#286,.T.);
#622=EDGE_CURVE('',#516,#516,#439,.T.);
#623=EDGE_CURVE('',#517,#518,#287,.T.);
#624=EDGE_CURVE('',#518,#517,#440,.T.);
#625=EDGE_CURVE('',#474,#459,#288,.T.);
#626=EDGE_CURVE('',#458,#473,#289,.T.);
#627=EDGE_CURVE('',#476,#519,#290,.T.);
#628=EDGE_CURVE('',#451,#519,#291,.T.);
#629=EDGE_CURVE('',#519,#520,#292,.T.);
#630=EDGE_CURVE('',#475,#520,#293,.T.);
#631=EDGE_CURVE('',#520,#465,#294,.T.);
#632=EDGE_CURVE('',#489,#518,#295,.T.);
#633=EDGE_CURVE('',#488,#517,#296,.T.);
#634=EDGE_CURVE('',#490,#512,#297,.F.);
#635=EDGE_CURVE('',#492,#515,#298,.T.);
#636=EDGE_CURVE('',#491,#513,#299,.F.);
#637=EDGE_CURVE('',#494,#507,#300,.F.);
#638=EDGE_CURVE('',#496,#510,#301,.T.);
#639=EDGE_CURVE('',#495,#508,#302,.F.);
#640=EDGE_CURVE('',#498,#521,#303,.T.);
#641=EDGE_CURVE('',#521,#522,#304,.T.);
#642=EDGE_CURVE('',#500,#522,#305,.T.);
#643=EDGE_CURVE('',#499,#523,#306,.T.);
#644=EDGE_CURVE('',#523,#521,#307,.T.);
#645=EDGE_CURVE('',#501,#524,#308,.T.);
#646=EDGE_CURVE('',#524,#523,#309,.T.);
#647=EDGE_CURVE('',#522,#524,#310,.T.);
#648=EDGE_CURVE('',#525,#525,#441,.T.);
#649=EDGE_CURVE('',#526,#526,#442,.T.);
#650=EDGE_CURVE('',#527,#527,#443,.T.);
#651=EDGE_CURVE('',#516,#525,#311,.T.);
#652=EDGE_CURVE('',#493,#514,#312,.T.);
#653=EDGE_CURVE('',#511,#526,#313,.T.);
#654=EDGE_CURVE('',#497,#509,#314,.F.);
#655=EDGE_CURVE('',#506,#527,#315,.T.);
#656=ORIENTED_EDGE('',*,*,#528,.F.);
#657=ORIENTED_EDGE('',*,*,#529,.T.);
#658=ORIENTED_EDGE('',*,*,#530,.F.);
#659=ORIENTED_EDGE('',*,*,#529,.F.);
#660=ORIENTED_EDGE('',*,*,#531,.F.);
#661=ORIENTED_EDGE('',*,*,#532,.T.);
#662=ORIENTED_EDGE('',*,*,#533,.F.);
#663=ORIENTED_EDGE('',*,*,#534,.F.);
#664=ORIENTED_EDGE('',*,*,#535,.F.);
#665=ORIENTED_EDGE('',*,*,#536,.F.);
#666=ORIENTED_EDGE('',*,*,#537,.F.);
#667=ORIENTED_EDGE('',*,*,#538,.F.);
#668=ORIENTED_EDGE('',*,*,#539,.T.);
#669=ORIENTED_EDGE('',*,*,#538,.T.);
#670=ORIENTED_EDGE('',*,*,#540,.F.);
#671=ORIENTED_EDGE('',*,*,#532,.F.);
#672=ORIENTED_EDGE('',*,*,#531,.T.);
#673=ORIENTED_EDGE('',*,*,#541,.T.);
#674=ORIENTED_EDGE('',*,*,#542,.F.);
#675=ORIENTED_EDGE('',*,*,#543,.T.);
#676=ORIENTED_EDGE('',*,*,#544,.T.);
#677=ORIENTED_EDGE('',*,*,#545,.T.);
#678=ORIENTED_EDGE('',*,*,#546,.T.);
#679=ORIENTED_EDGE('',*,*,#547,.T.);
#680=ORIENTED_EDGE('',*,*,#548,.T.);
#681=ORIENTED_EDGE('',*,*,#549,.T.);
#682=ORIENTED_EDGE('',*,*,#534,.T.);
#683=ORIENTED_EDGE('',*,*,#550,.T.);
#684=ORIENTED_EDGE('',*,*,#551,.T.);
#685=ORIENTED_EDGE('',*,*,#541,.F.);
#686=ORIENTED_EDGE('',*,*,#544,.F.);
#687=ORIENTED_EDGE('',*,*,#552,.F.);
#688=ORIENTED_EDGE('',*,*,#553,.F.);
#689=ORIENTED_EDGE('',*,*,#554,.F.);
#690=ORIENTED_EDGE('',*,*,#555,.T.);
#691=ORIENTED_EDGE('',*,*,#554,.T.);
#692=ORIENTED_EDGE('',*,*,#556,.F.);
#693=ORIENTED_EDGE('',*,*,#557,.F.);
#694=ORIENTED_EDGE('',*,*,#558,.F.);
#695=ORIENTED_EDGE('',*,*,#557,.T.);
#696=ORIENTED_EDGE('',*,*,#559,.F.);
#697=ORIENTED_EDGE('',*,*,#560,.F.);
#698=ORIENTED_EDGE('',*,*,#560,.T.);
#699=ORIENTED_EDGE('',*,*,#561,.F.);
#700=ORIENTED_EDGE('',*,*,#562,.F.);
#701=ORIENTED_EDGE('',*,*,#563,.F.);
#702=ORIENTED_EDGE('',*,*,#564,.F.);
#703=ORIENTED_EDGE('',*,*,#565,.T.);
#704=ORIENTED_EDGE('',*,*,#566,.T.);
#705=ORIENTED_EDGE('',*,*,#565,.F.);
#706=ORIENTED_EDGE('',*,*,#567,.F.);
#707=ORIENTED_EDGE('',*,*,#568,.F.);
#708=ORIENTED_EDGE('',*,*,#569,.F.);
#709=ORIENTED_EDGE('',*,*,#570,.F.);
#710=ORIENTED_EDGE('',*,*,#571,.F.);
#711=ORIENTED_EDGE('',*,*,#572,.F.);
#712=ORIENTED_EDGE('',*,*,#573,.F.);
#713=ORIENTED_EDGE('',*,*,#574,.F.);
#714=ORIENTED_EDGE('',*,*,#575,.F.);
#715=ORIENTED_EDGE('',*,*,#576,.F.);
#716=ORIENTED_EDGE('',*,*,#577,.F.);
#717=ORIENTED_EDGE('',*,*,#566,.F.);
#718=ORIENTED_EDGE('',*,*,#578,.F.);
#719=ORIENTED_EDGE('',*,*,#579,.T.);
#720=ORIENTED_EDGE('',*,*,#571,.T.);
#721=ORIENTED_EDGE('',*,*,#579,.F.);
#722=ORIENTED_EDGE('',*,*,#549,.F.);
#723=ORIENTED_EDGE('',*,*,#580,.T.);
#724=ORIENTED_EDGE('',*,*,#577,.T.);
#725=ORIENTED_EDGE('',*,*,#580,.F.);
#726=ORIENTED_EDGE('',*,*,#548,.F.);
#727=ORIENTED_EDGE('',*,*,#581,.T.);
#728=ORIENTED_EDGE('',*,*,#572,.T.);
#729=ORIENTED_EDGE('',*,*,#581,.F.);
#730=ORIENTED_EDGE('',*,*,#536,.T.);
#731=ORIENTED_EDGE('',*,*,#582,.F.);
#732=ORIENTED_EDGE('',*,*,#583,.T.);
#733=ORIENTED_EDGE('',*,*,#584,.T.);
#734=ORIENTED_EDGE('',*,*,#552,.T.);
#735=ORIENTED_EDGE('',*,*,#543,.F.);
#736=ORIENTED_EDGE('',*,*,#585,.F.);
#737=ORIENTED_EDGE('',*,*,#586,.F.);
#738=ORIENTED_EDGE('',*,*,#562,.T.);
#739=ORIENTED_EDGE('',*,*,#587,.T.);
#740=ORIENTED_EDGE('',*,*,#583,.F.);
#741=ORIENTED_EDGE('',*,*,#588,.T.);
#742=ORIENTED_EDGE('',*,*,#561,.T.);
#743=ORIENTED_EDGE('',*,*,#559,.T.);
#744=ORIENTED_EDGE('',*,*,#556,.T.);
#745=ORIENTED_EDGE('',*,*,#553,.T.);
#746=ORIENTED_EDGE('',*,*,#586,.T.);
#747=ORIENTED_EDGE('',*,*,#589,.F.);
#748=ORIENTED_EDGE('',*,*,#550,.F.);
#749=ORIENTED_EDGE('',*,*,#533,.T.);
#750=ORIENTED_EDGE('',*,*,#540,.T.);
#751=ORIENTED_EDGE('',*,*,#537,.T.);
#752=ORIENTED_EDGE('',*,*,#584,.F.);
#753=ORIENTED_EDGE('',*,*,#587,.F.);
#754=ORIENTED_EDGE('',*,*,#528,.T.);
#755=ORIENTED_EDGE('',*,*,#590,.F.);
#756=ORIENTED_EDGE('',*,*,#591,.F.);
#757=ORIENTED_EDGE('',*,*,#592,.F.);
#758=ORIENTED_EDGE('',*,*,#593,.F.);
#759=ORIENTED_EDGE('',*,*,#594,.F.);
#760=ORIENTED_EDGE('',*,*,#595,.F.);
#761=ORIENTED_EDGE('',*,*,#596,.F.);
#762=ORIENTED_EDGE('',*,*,#597,.F.);
#763=ORIENTED_EDGE('',*,*,#598,.F.);
#764=ORIENTED_EDGE('',*,*,#599,.F.);
#765=ORIENTED_EDGE('',*,*,#600,.F.);
#766=ORIENTED_EDGE('',*,*,#601,.F.);
#767=ORIENTED_EDGE('',*,*,#602,.F.);
#768=ORIENTED_EDGE('',*,*,#603,.F.);
#769=ORIENTED_EDGE('',*,*,#604,.T.);
#770=ORIENTED_EDGE('',*,*,#605,.T.);
#771=ORIENTED_EDGE('',*,*,#575,.T.);
#772=ORIENTED_EDGE('',*,*,#606,.T.);
#773=ORIENTED_EDGE('',*,*,#607,.T.);
#774=ORIENTED_EDGE('',*,*,#608,.T.);
#775=ORIENTED_EDGE('',*,*,#573,.T.);
#776=ORIENTED_EDGE('',*,*,#609,.T.);
#777=ORIENTED_EDGE('',*,*,#574,.T.);
#778=ORIENTED_EDGE('',*,*,#608,.F.);
#779=ORIENTED_EDGE('',*,*,#610,.T.);
#780=ORIENTED_EDGE('',*,*,#606,.F.);
#781=ORIENTED_EDGE('',*,*,#611,.T.);
#782=ORIENTED_EDGE('',*,*,#609,.F.);
#783=ORIENTED_EDGE('',*,*,#576,.T.);
#784=ORIENTED_EDGE('',*,*,#605,.F.);
#785=ORIENTED_EDGE('',*,*,#607,.F.);
#786=ORIENTED_EDGE('',*,*,#611,.F.);
#787=ORIENTED_EDGE('',*,*,#604,.F.);
#788=ORIENTED_EDGE('',*,*,#610,.F.);
#789=ORIENTED_EDGE('',*,*,#530,.T.);
#790=ORIENTED_EDGE('',*,*,#612,.T.);
#791=ORIENTED_EDGE('',*,*,#613,.T.);
#792=ORIENTED_EDGE('',*,*,#614,.T.);
#793=ORIENTED_EDGE('',*,*,#615,.T.);
#794=ORIENTED_EDGE('',*,*,#616,.T.);
#795=ORIENTED_EDGE('',*,*,#617,.T.);
#796=ORIENTED_EDGE('',*,*,#618,.T.);
#797=ORIENTED_EDGE('',*,*,#619,.T.);
#798=ORIENTED_EDGE('',*,*,#620,.T.);
#799=ORIENTED_EDGE('',*,*,#621,.T.);
#800=ORIENTED_EDGE('',*,*,#622,.T.);
#801=ORIENTED_EDGE('',*,*,#623,.T.);
#802=ORIENTED_EDGE('',*,*,#624,.T.);
#803=ORIENTED_EDGE('',*,*,#567,.T.);
#804=ORIENTED_EDGE('',*,*,#625,.T.);
#805=ORIENTED_EDGE('',*,*,#546,.F.);
#806=ORIENTED_EDGE('',*,*,#626,.T.);
#807=ORIENTED_EDGE('',*,*,#547,.F.);
#808=ORIENTED_EDGE('',*,*,#625,.F.);
#809=ORIENTED_EDGE('',*,*,#570,.T.);
#810=ORIENTED_EDGE('',*,*,#627,.T.);
#811=ORIENTED_EDGE('',*,*,#628,.F.);
#812=ORIENTED_EDGE('',*,*,#539,.F.);
#813=ORIENTED_EDGE('',*,*,#629,.F.);
#814=ORIENTED_EDGE('',*,*,#627,.F.);
#815=ORIENTED_EDGE('',*,*,#569,.T.);
#816=ORIENTED_EDGE('',*,*,#630,.T.);
#817=ORIENTED_EDGE('',*,*,#631,.F.);
#818=ORIENTED_EDGE('',*,*,#630,.F.);
#819=ORIENTED_EDGE('',*,*,#568,.T.);
#820=ORIENTED_EDGE('',*,*,#626,.F.);
#821=ORIENTED_EDGE('',*,*,#545,.F.);
#822=ORIENTED_EDGE('',*,*,#555,.F.);
#823=ORIENTED_EDGE('',*,*,#535,.T.);
#824=ORIENTED_EDGE('',*,*,#628,.T.);
#825=ORIENTED_EDGE('',*,*,#629,.T.);
#826=ORIENTED_EDGE('',*,*,#631,.T.);
#827=ORIENTED_EDGE('',*,*,#558,.T.);
#828=ORIENTED_EDGE('',*,*,#563,.T.);
#829=ORIENTED_EDGE('',*,*,#588,.F.);
#830=ORIENTED_EDGE('',*,*,#582,.T.);
#831=ORIENTED_EDGE('',*,*,#578,.T.);
#832=ORIENTED_EDGE('',*,*,#564,.T.);
#833=ORIENTED_EDGE('',*,*,#590,.T.);
#834=ORIENTED_EDGE('',*,*,#632,.T.);
#835=ORIENTED_EDGE('',*,*,#623,.F.);
#836=ORIENTED_EDGE('',*,*,#633,.F.);
#837=ORIENTED_EDGE('',*,*,#593,.T.);
#838=ORIENTED_EDGE('',*,*,#634,.T.);
#839=ORIENTED_EDGE('',*,*,#621,.F.);
#840=ORIENTED_EDGE('',*,*,#635,.F.);
#841=ORIENTED_EDGE('',*,*,#592,.T.);
#842=ORIENTED_EDGE('',*,*,#636,.T.);
#843=ORIENTED_EDGE('',*,*,#618,.F.);
#844=ORIENTED_EDGE('',*,*,#634,.F.);
#845=ORIENTED_EDGE('',*,*,#597,.T.);
#846=ORIENTED_EDGE('',*,*,#637,.T.);
#847=ORIENTED_EDGE('',*,*,#616,.F.);
#848=ORIENTED_EDGE('',*,*,#638,.F.);
#849=ORIENTED_EDGE('',*,*,#596,.T.);
#850=ORIENTED_EDGE('',*,*,#639,.T.);
#851=ORIENTED_EDGE('',*,*,#613,.F.);
#852=ORIENTED_EDGE('',*,*,#637,.F.);
#853=ORIENTED_EDGE('',*,*,#601,.T.);
#854=ORIENTED_EDGE('',*,*,#640,.T.);
#855=ORIENTED_EDGE('',*,*,#641,.T.);
#856=ORIENTED_EDGE('',*,*,#642,.F.);
#857=ORIENTED_EDGE('',*,*,#600,.T.);
#858=ORIENTED_EDGE('',*,*,#643,.T.);
#859=ORIENTED_EDGE('',*,*,#644,.T.);
#860=ORIENTED_EDGE('',*,*,#640,.F.);
#861=ORIENTED_EDGE('',*,*,#603,.T.);
#862=ORIENTED_EDGE('',*,*,#645,.T.);
#863=ORIENTED_EDGE('',*,*,#646,.T.);
#864=ORIENTED_EDGE('',*,*,#643,.F.);
#865=ORIENTED_EDGE('',*,*,#602,.T.);
#866=ORIENTED_EDGE('',*,*,#642,.T.);
#867=ORIENTED_EDGE('',*,*,#647,.T.);
#868=ORIENTED_EDGE('',*,*,#645,.F.);
#869=ORIENTED_EDGE('',*,*,#641,.F.);
#870=ORIENTED_EDGE('',*,*,#644,.F.);
#871=ORIENTED_EDGE('',*,*,#646,.F.);
#872=ORIENTED_EDGE('',*,*,#647,.F.);
#873=ORIENTED_EDGE('',*,*,#648,.F.);
#874=ORIENTED_EDGE('',*,*,#649,.F.);
#875=ORIENTED_EDGE('',*,*,#650,.F.);
#876=ORIENTED_EDGE('',*,*,#591,.T.);
#877=ORIENTED_EDGE('',*,*,#633,.T.);
#878=ORIENTED_EDGE('',*,*,#624,.F.);
#879=ORIENTED_EDGE('',*,*,#632,.F.);
#880=ORIENTED_EDGE('',*,*,#622,.F.);
#881=ORIENTED_EDGE('',*,*,#651,.T.);
#882=ORIENTED_EDGE('',*,*,#648,.T.);
#883=ORIENTED_EDGE('',*,*,#651,.F.);
#884=ORIENTED_EDGE('',*,*,#594,.T.);
#885=ORIENTED_EDGE('',*,*,#635,.T.);
#886=ORIENTED_EDGE('',*,*,#620,.F.);
#887=ORIENTED_EDGE('',*,*,#652,.F.);
#888=ORIENTED_EDGE('',*,*,#595,.T.);
#889=ORIENTED_EDGE('',*,*,#652,.T.);
#890=ORIENTED_EDGE('',*,*,#619,.F.);
#891=ORIENTED_EDGE('',*,*,#636,.F.);
#892=ORIENTED_EDGE('',*,*,#617,.F.);
#893=ORIENTED_EDGE('',*,*,#653,.T.);
#894=ORIENTED_EDGE('',*,*,#649,.T.);
#895=ORIENTED_EDGE('',*,*,#653,.F.);
#896=ORIENTED_EDGE('',*,*,#598,.T.);
#897=ORIENTED_EDGE('',*,*,#638,.T.);
#898=ORIENTED_EDGE('',*,*,#615,.F.);
#899=ORIENTED_EDGE('',*,*,#654,.F.);
#900=ORIENTED_EDGE('',*,*,#599,.T.);
#901=ORIENTED_EDGE('',*,*,#654,.T.);
#902=ORIENTED_EDGE('',*,*,#614,.F.);
#903=ORIENTED_EDGE('',*,*,#639,.F.);
#904=ORIENTED_EDGE('',*,*,#612,.F.);
#905=ORIENTED_EDGE('',*,*,#655,.T.);
#906=ORIENTED_EDGE('',*,*,#650,.T.);
#907=ORIENTED_EDGE('',*,*,#655,.F.);
#908=ORIENTED_EDGE('',*,*,#585,.T.);
#909=ORIENTED_EDGE('',*,*,#542,.T.);
#910=ORIENTED_EDGE('',*,*,#551,.F.);
#911=ORIENTED_EDGE('',*,*,#589,.T.);
#912=CYLINDRICAL_SURFACE('',#980,1.6);
#913=CYLINDRICAL_SURFACE('',#1037,5.6388);
#914=CYLINDRICAL_SURFACE('',#1038,1.57499964);
#915=CYLINDRICAL_SURFACE('',#1041,1.57499964);
#916=CYLINDRICAL_SURFACE('',#1044,1.57499964);
#917=ADVANCED_FACE('',(#86),#912,.F.);
#918=ADVANCED_FACE('',(#87),#47,.T.);
#919=ADVANCED_FACE('',(#88),#48,.T.);
#920=ADVANCED_FACE('',(#89),#49,.T.);
#921=ADVANCED_FACE('',(#90,#23,#24),#50,.T.);
#922=ADVANCED_FACE('',(#91),#51,.T.);
#923=ADVANCED_FACE('',(#92),#52,.T.);
#924=ADVANCED_FACE('',(#93),#53,.T.);
#925=ADVANCED_FACE('',(#94),#54,.T.);
#926=ADVANCED_FACE('',(#95),#55,.F.);
#927=ADVANCED_FACE('',(#96),#19,.F.);
#928=ADVANCED_FACE('',(#97,#25,#26,#27,#28,#29),#56,.T.);
#929=ADVANCED_FACE('',(#98),#20,.F.);
#930=ADVANCED_FACE('',(#99),#21,.F.);
#931=ADVANCED_FACE('',(#100),#22,.F.);
#932=ADVANCED_FACE('',(#101),#57,.T.);
#933=ADVANCED_FACE('',(#102),#58,.F.);
#934=ADVANCED_FACE('',(#103),#59,.T.);
#935=ADVANCED_FACE('',(#104,#30,#31,#32,#33,#34),#60,.F.);
#936=ADVANCED_FACE('',(#105),#61,.T.);
#937=ADVANCED_FACE('',(#106),#62,.T.);
#938=ADVANCED_FACE('',(#107),#63,.T.);
#939=ADVANCED_FACE('',(#108),#64,.T.);
#940=ADVANCED_FACE('',(#109,#35,#36,#37,#38,#39,#40,#41),#65,.T.);
#941=ADVANCED_FACE('',(#110),#66,.T.);
#942=ADVANCED_FACE('',(#111),#67,.T.);
#943=ADVANCED_FACE('',(#112),#68,.T.);
#944=ADVANCED_FACE('',(#113),#69,.T.);
#945=ADVANCED_FACE('',(#114,#42,#43),#70,.T.);
#946=ADVANCED_FACE('',(#115),#71,.T.);
#947=ADVANCED_FACE('',(#116),#72,.T.);
#948=ADVANCED_FACE('',(#117),#73,.T.);
#949=ADVANCED_FACE('',(#118),#74,.T.);
#950=ADVANCED_FACE('',(#119),#75,.T.);
#951=ADVANCED_FACE('',(#120),#76,.F.);
#952=ADVANCED_FACE('',(#121),#77,.F.);
#953=ADVANCED_FACE('',(#122),#78,.F.);
#954=ADVANCED_FACE('',(#123),#79,.F.);
#955=ADVANCED_FACE('',(#124,#44,#45,#46),#80,.F.);
#956=ADVANCED_FACE('',(#125),#913,.F.);
#957=ADVANCED_FACE('',(#126),#914,.F.);
#958=ADVANCED_FACE('',(#127),#81,.T.);
#959=ADVANCED_FACE('',(#128),#82,.T.);
#960=ADVANCED_FACE('',(#129),#915,.F.);
#961=ADVANCED_FACE('',(#130),#83,.T.);
#962=ADVANCED_FACE('',(#131),#84,.T.);
#963=ADVANCED_FACE('',(#132),#916,.F.);
#964=ADVANCED_FACE('',(#133),#85,.T.);
#965=CLOSED_SHELL('',(#917,#918,#919,#920,#921,#922,#923,#924,#925,#926,
#927,#928,#929,#930,#931,#932,#933,#934,#935,#936,#937,#938,#939,#940,#941,
#942,#943,#944,#945,#946,#947,#948,#949,#950,#951,#952,#953,#954,#955,#956,
#957,#958,#959,#960,#961,#962,#963,#964));
#966=DERIVED_UNIT_ELEMENT(#968,1.);
#967=DERIVED_UNIT_ELEMENT(#1565,-3.);
#968=(
MASS_UNIT()
NAMED_UNIT(*)
SI_UNIT(.KILO.,.GRAM.)
);
#969=DERIVED_UNIT((#966,#967));
#970=MEASURE_REPRESENTATION_ITEM('density measure',
POSITIVE_RATIO_MEASURE(1060.),#969);
#971=PROPERTY_DEFINITION_REPRESENTATION(#976,#973);
#972=PROPERTY_DEFINITION_REPRESENTATION(#977,#974);
#973=REPRESENTATION('material name',(#975),#1562);
#974=REPRESENTATION('density',(#970),#1562);
#975=DESCRIPTIVE_REPRESENTATION_ITEM('ABS Plastic','ABS Plastic');
#976=PROPERTY_DEFINITION('material property','material name',#1577);
#977=PROPERTY_DEFINITION('material property','density of part',#1577);
#978=AXIS2_PLACEMENT_3D('',#1295,#1047,#1048);
#979=AXIS2_PLACEMENT_3D('',#1296,#1049,#1050);
#980=AXIS2_PLACEMENT_3D('',#1297,#1051,#1052);
#981=AXIS2_PLACEMENT_3D('',#1299,#1053,#1054);
#982=AXIS2_PLACEMENT_3D('',#1302,#1056,#1057);
#983=AXIS2_PLACEMENT_3D('',#1303,#1058,#1059);
#984=AXIS2_PLACEMENT_3D('',#1312,#1064,#1065);
#985=AXIS2_PLACEMENT_3D('',#1321,#1070,#1071);
#986=AXIS2_PLACEMENT_3D('',#1324,#1074,#1075);
#987=AXIS2_PLACEMENT_3D('',#1339,#1083,#1084);
#988=AXIS2_PLACEMENT_3D('',#1341,#1085,#1086);
#989=AXIS2_PLACEMENT_3D('',#1342,#1087,#1088);
#990=AXIS2_PLACEMENT_3D('',#1346,#1091,#1092);
#991=AXIS2_PLACEMENT_3D('',#1352,#1096,#1097);
#992=AXIS2_PLACEMENT_3D('',#1358,#1101,#1102);
#993=AXIS2_PLACEMENT_3D('',#1364,#1106,#1107);
#994=AXIS2_PLACEMENT_3D('',#1370,#1111,#1112);
#995=AXIS2_PLACEMENT_3D('',#1372,#1113,#1114);
#996=AXIS2_PLACEMENT_3D('',#1375,#1116,#1117);
#997=AXIS2_PLACEMENT_3D('',#1376,#1118,#1119);
#998=AXIS2_PLACEMENT_3D('',#1386,#1124,#1125);
#999=AXIS2_PLACEMENT_3D('',#1388,#1126,#1127);
#1000=AXIS2_PLACEMENT_3D('',#1398,#1132,#1133);
#1001=AXIS2_PLACEMENT_3D('',#1399,#1134,#1135);
#1002=AXIS2_PLACEMENT_3D('',#1401,#1136,#1137);
#1003=AXIS2_PLACEMENT_3D('',#1403,#1139,#1140);
#1004=AXIS2_PLACEMENT_3D('',#1405,#1142,#1143);
#1005=AXIS2_PLACEMENT_3D('',#1407,#1145,#1146);
#1006=AXIS2_PLACEMENT_3D('',#1413,#1150,#1151);
#1007=AXIS2_PLACEMENT_3D('',#1417,#1154,#1155);
#1008=AXIS2_PLACEMENT_3D('',#1420,#1158,#1159);
#1009=AXIS2_PLACEMENT_3D('',#1425,#1162,#1163);
#1010=AXIS2_PLACEMENT_3D('',#1450,#1176,#1177);
#1011=AXIS2_PLACEMENT_3D('',#1456,#1181,#1182);
#1012=AXIS2_PLACEMENT_3D('',#1462,#1186,#1187);
#1013=AXIS2_PLACEMENT_3D('',#1464,#1189,#1190);
#1014=AXIS2_PLACEMENT_3D('',#1466,#1192,#1193);
#1015=AXIS2_PLACEMENT_3D('',#1468,#1194,#1195);
#1016=AXIS2_PLACEMENT_3D('',#1478,#1200,#1201);
#1017=AXIS2_PLACEMENT_3D('',#1488,#1206,#1207);
#1018=AXIS2_PLACEMENT_3D('',#1492,#1209,#1210);
#1019=AXIS2_PLACEMENT_3D('',#1493,#1211,#1212);
#1020=AXIS2_PLACEMENT_3D('',#1496,#1215,#1216);
#1021=AXIS2_PLACEMENT_3D('',#1500,#1219,#1220);
#1022=AXIS2_PLACEMENT_3D('',#1504,#1223,#1224);
#1023=AXIS2_PLACEMENT_3D('',#1506,#1226,#1227);
#1024=AXIS2_PLACEMENT_3D('',#1507,#1228,#1229);
#1025=AXIS2_PLACEMENT_3D('',#1510,#1232,#1233);
#1026=AXIS2_PLACEMENT_3D('',#1513,#1236,#1237);
#1027=AXIS2_PLACEMENT_3D('',#1515,#1239,#1240);
#1028=AXIS2_PLACEMENT_3D('',#1518,#1243,#1244);
#1029=AXIS2_PLACEMENT_3D('',#1520,#1246,#1247);
#1030=AXIS2_PLACEMENT_3D('',#1526,#1251,#1252);
#1031=AXIS2_PLACEMENT_3D('',#1530,#1255,#1256);
#1032=AXIS2_PLACEMENT_3D('',#1534,#1259,#1260);
#1033=AXIS2_PLACEMENT_3D('',#1536,#1262,#1263);
#1034=AXIS2_PLACEMENT_3D('',#1538,#1264,#1265);
#1035=AXIS2_PLACEMENT_3D('',#1540,#1266,#1267);
#1036=AXIS2_PLACEMENT_3D('',#1542,#1268,#1269);
#1037=AXIS2_PLACEMENT_3D('',#1543,#1270,#1271);
#1038=AXIS2_PLACEMENT_3D('',#1544,#1272,#1273);
#1039=AXIS2_PLACEMENT_3D('',#1546,#1275,#1276);
#1040=AXIS2_PLACEMENT_3D('',#1548,#1278,#1279);
#1041=AXIS2_PLACEMENT_3D('',#1549,#1280,#1281);
#1042=AXIS2_PLACEMENT_3D('',#1551,#1283,#1284);
#1043=AXIS2_PLACEMENT_3D('',#1553,#1286,#1287);
#1044=AXIS2_PLACEMENT_3D('',#1554,#1288,#1289);
#1045=AXIS2_PLACEMENT_3D('',#1556,#1291,#1292);
#1046=AXIS2_PLACEMENT_3D('',#1557,#1293,#1294);
#1047=DIRECTION('axis',(0.,0.,1.));
#1048=DIRECTION('refdir',(1.,0.,0.));
#1049=DIRECTION('axis',(0.,0.,1.));
#1050=DIRECTION('refdir',(1.,0.,0.));
#1051=DIRECTION('center_axis',(0.,-1.,0.));
#1052=DIRECTION('ref_axis',(-1.,0.,0.));
#1053=DIRECTION('center_axis',(0.,-1.,0.));
#1054=DIRECTION('ref_axis',(-1.,0.,0.));
#1055=DIRECTION('',(0.,-1.,0.));
#1056=DIRECTION('center_axis',(0.,-1.,0.));
#1057=DIRECTION('ref_axis',(-1.,0.,0.));
#1058=DIRECTION('center_axis',(-1.,0.,0.));
#1059=DIRECTION('ref_axis',(0.,0.,1.));
#1060=DIRECTION('',(0.,5.59280302880243E-17,-1.));
#1061=DIRECTION('',(0.,1.,0.));
#1062=DIRECTION('',(0.,0.,-1.));
#1063=DIRECTION('',(0.,-0.996194698091746,0.0871557427476582));
#1064=DIRECTION('center_axis',(1.,0.,0.));
#1065=DIRECTION('ref_axis',(0.,0.,-1.));
#1066=DIRECTION('',(0.,-5.59280302880243E-17,1.));
#1067=DIRECTION('',(0.,0.996194698091746,-0.0871557427476582));
#1068=DIRECTION('',(0.,0.,1.));
#1069=DIRECTION('',(0.,1.,0.));
#1070=DIRECTION('center_axis',(0.,0.,1.));
#1071=DIRECTION('ref_axis',(1.,0.,0.));
#1072=DIRECTION('',(1.,0.,0.));
#1073=DIRECTION('',(-1.,0.,0.));
#1074=DIRECTION('center_axis',(0.,1.,5.59280302880243E-17));
#1075=DIRECTION('ref_axis',(1.,0.,0.));
#1076=DIRECTION('',(-1.,0.,0.));
#1077=DIRECTION('',(0.,-5.59280302880243E-17,1.));
#1078=DIRECTION('',(1.,0.,0.));
#1079=DIRECTION('',(0.,5.59280302880243E-17,-1.));
#1080=DIRECTION('',(-1.,0.,0.));
#1081=DIRECTION('',(0.,-5.59280302880243E-17,1.));
#1082=DIRECTION('',(1.,0.,0.));
#1083=DIRECTION('center_axis',(0.,-1.,-5.59280302880243E-17));
#1084=DIRECTION('ref_axis',(1.,0.,0.));
#1085=DIRECTION('center_axis',(0.,-1.,-5.59280302880243E-17));
#1086=DIRECTION('ref_axis',(1.,0.,0.));
#1087=DIRECTION('center_axis',(0.,0.0871557427476582,0.996194698091746));
#1088=DIRECTION('ref_axis',(1.,0.,0.));
#1089=DIRECTION('',(-1.,0.,0.));
#1090=DIRECTION('',(-0.0868265938642476,-0.992432509138967,0.0868265938642476));
#1091=DIRECTION('center_axis',(-1.,0.,0.));
#1092=DIRECTION('ref_axis',(0.,0.,1.));
#1093=DIRECTION('',(0.,-0.996194698091746,-0.0871557427476582));
#1094=DIRECTION('',(0.,0.,-1.));
#1095=DIRECTION('',(0.,1.,0.));
#1096=DIRECTION('center_axis',(0.,0.,-1.));
#1097=DIRECTION('ref_axis',(-1.,0.,0.));
#1098=DIRECTION('',(-1.,0.,0.));
#1099=DIRECTION('',(1.,0.,0.));
#1100=DIRECTION('',(0.,1.,0.));
#1101=DIRECTION('center_axis',(1.,0.,0.));
#1102=DIRECTION('ref_axis',(0.,0.,-1.));
#1103=DIRECTION('',(0.,-5.59280302880243E-17,1.));
#1104=DIRECTION('',(0.,0.,1.));
#1105=DIRECTION('',(0.,0.996194698091746,0.0871557427476582));
#1106=DIRECTION('center_axis',(0.,-0.0871557427476582,0.996194698091746));
#1107=DIRECTION('ref_axis',(1.,0.,0.));
#1108=DIRECTION('',(-1.,0.,0.));
#1109=DIRECTION('',(-0.0868265938642476,0.992432509138967,0.0868265938642476));
#1110=DIRECTION('',(1.,0.,0.));
#1111=DIRECTION('center_axis',(0.,-1.,0.));
#1112=DIRECTION('ref_axis',(1.,0.,0.));
#1113=DIRECTION('center_axis',(0.,-1.,-5.59280302880243E-17));
#1114=DIRECTION('ref_axis',(1.,0.,0.));
#1115=DIRECTION('',(-0.707106781186548,-0.707106781186547,8.65956056235494E-17));
#1116=DIRECTION('center_axis',(0.,-1.,0.));
#1117=DIRECTION('ref_axis',(1.,0.,0.));
#1118=DIRECTION('center_axis',(0.,-1.,0.));
#1119=DIRECTION('ref_axis',(0.,0.,-1.));
#1120=DIRECTION('',(0.,0.,1.));
#1121=DIRECTION('',(-1.,0.,0.));
#1122=DIRECTION('',(0.,0.,-1.));
#1123=DIRECTION('',(1.,0.,0.));
#1124=DIRECTION('center_axis',(0.,-1.,0.));
#1125=DIRECTION('ref_axis',(1.,0.,0.));
#1126=DIRECTION('center_axis',(0.,-1.,0.));
#1127=DIRECTION('ref_axis',(1.,0.,0.));
#1128=DIRECTION('',(1.,0.,0.));
#1129=DIRECTION('',(0.,0.,-1.));
#1130=DIRECTION('',(-1.,0.,0.));
#1131=DIRECTION('',(0.,0.,1.));
#1132=DIRECTION('center_axis',(0.,-1.,0.));
#1133=DIRECTION('ref_axis',(1.,0.,0.));
#1134=DIRECTION('center_axis',(0.,-1.,0.));
#1135=DIRECTION('ref_axis',(1.,0.,0.));
#1136=DIRECTION('center_axis',(0.,-1.,-5.59280302880243E-17));
#1137=DIRECTION('ref_axis',(1.,0.,0.));
#1138=DIRECTION('',(-0.707106781186548,-0.707106781186547,8.65956056235494E-17));
#1139=DIRECTION('center_axis',(0.,-1.,0.));
#1140=DIRECTION('ref_axis',(1.,0.,0.));
#1141=DIRECTION('',(-0.707106781186548,-0.707106781186547,8.65956056235494E-17));
#1142=DIRECTION('center_axis',(0.,-1.,0.));
#1143=DIRECTION('ref_axis',(1.,0.,0.));
#1144=DIRECTION('',(-0.707106781186548,-0.707106781186547,8.65956056235494E-17));
#1145=DIRECTION('center_axis',(0.,0.0871557427476582,0.996194698091746));
#1146=DIRECTION('ref_axis',(1.,0.,0.));
#1147=DIRECTION('',(-1.,0.,0.));
#1148=DIRECTION('',(-0.0868265938642476,0.992432509138967,-0.0868265938642476));
#1149=DIRECTION('',(-1.,0.,0.));
#1150=DIRECTION('center_axis',(0.,-0.0871557427476582,0.996194698091746));
#1151=DIRECTION('ref_axis',(1.,0.,0.));
#1152=DIRECTION('',(0.0868265938642476,0.992432509138967,0.0868265938642476));
#1153=DIRECTION('',(-1.,0.,0.));
#1154=DIRECTION('center_axis',(0.996194698091746,0.0871557427476582,4.87444902016628E-18));
#1155=DIRECTION('ref_axis',(-4.87444902016628E-18,-2.12823040379932E-19,
1.));
#1156=DIRECTION('',(-4.89306862353664E-18,0.,1.));
#1157=DIRECTION('',(0.,5.59280302880243E-17,-1.));
#1158=DIRECTION('center_axis',(0.,-1.,0.));
#1159=DIRECTION('ref_axis',(1.,0.,0.));
#1160=DIRECTION('',(-4.89306862353664E-18,0.,-1.));
#1161=DIRECTION('',(1.,0.,0.));
#1162=DIRECTION('center_axis',(0.,1.,0.));
#1163=DIRECTION('ref_axis',(1.,0.,0.));
#1164=DIRECTION('',(0.,0.,1.));
#1165=DIRECTION('',(-1.,0.,0.));
#1166=DIRECTION('',(0.,0.,-1.));
#1167=DIRECTION('',(1.,0.,0.));
#1168=DIRECTION('',(-1.,0.,0.));
#1169=DIRECTION('',(0.,0.,-1.));
#1170=DIRECTION('',(1.,0.,0.));
#1171=DIRECTION('',(0.,0.,1.));
#1172=DIRECTION('',(-5.78617826055751E-16,0.,1.));
#1173=DIRECTION('',(-1.,0.,0.));
#1174=DIRECTION('',(0.,0.,-1.));
#1175=DIRECTION('',(1.,0.,0.));
#1176=DIRECTION('center_axis',(0.,-0.707106781186548,-0.707106781186547));
#1177=DIRECTION('ref_axis',(-1.,0.,0.));
#1178=DIRECTION('',(1.,0.,0.));
#1179=DIRECTION('',(0.577350269189627,-0.577350269189625,0.577350269189625));
#1180=DIRECTION('',(0.577350269189623,0.577350269189627,-0.577350269189627));
#1181=DIRECTION('center_axis',(0.,-0.707106781186548,0.707106781186547));
#1182=DIRECTION('ref_axis',(1.,0.,0.));
#1183=DIRECTION('',(-1.,0.,0.));
#1184=DIRECTION('',(-0.577350269189623,-0.577350269189627,-0.577350269189627));
#1185=DIRECTION('',(-0.577350269189628,0.577350269189625,0.577350269189625));
#1186=DIRECTION('center_axis',(0.707106781186548,-0.707106781186547,0.));
#1187=DIRECTION('ref_axis',(0.,0.,-1.));
#1188=DIRECTION('',(0.,0.,1.));
#1189=DIRECTION('center_axis',(-0.707106781186546,-0.707106781186549,0.));
#1190=DIRECTION('ref_axis',(0.,0.,1.));
#1191=DIRECTION('',(0.,0.,-1.));
#1192=DIRECTION('center_axis',(0.,-1.,0.));
#1193=DIRECTION('ref_axis',(1.,0.,0.));
#1194=DIRECTION('center_axis',(0.,1.,0.));
#1195=DIRECTION('ref_axis',(1.,0.,0.));
#1196=DIRECTION('',(-1.,0.,0.));
#1197=DIRECTION('',(0.,0.,1.));
#1198=DIRECTION('',(1.,0.,0.));
#1199=DIRECTION('',(0.,0.,-1.));
#1200=DIRECTION('center_axis',(0.,1.,0.));
#1201=DIRECTION('ref_axis',(1.,0.,0.));
#1202=DIRECTION('',(0.,0.,1.));
#1203=DIRECTION('',(1.,0.,0.));
#1204=DIRECTION('',(0.,0.,-1.));
#1205=DIRECTION('',(-1.,0.,0.));
#1206=DIRECTION('center_axis',(0.,1.,0.));
#1207=DIRECTION('ref_axis',(1.,0.,0.));
#1208=DIRECTION('',(1.,0.,0.));
#1209=DIRECTION('center_axis',(0.,1.,0.));
#1210=DIRECTION('ref_axis',(1.,0.,0.));
#1211=DIRECTION('center_axis',(-0.707106781186547,-0.707106781186548,0.));
#1212=DIRECTION('ref_axis',(0.,0.,1.));
#1213=DIRECTION('',(-0.577350269189627,0.577350269189626,0.577350269189625));
#1214=DIRECTION('',(0.577350269189626,-0.577350269189626,0.577350269189625));
#1215=DIRECTION('center_axis',(0.,-0.707106781186547,0.707106781186548));
#1216=DIRECTION('ref_axis',(1.,0.,0.));
#1217=DIRECTION('',(0.577350269189627,0.577350269189626,0.577350269189625));
#1218=DIRECTION('',(1.,0.,0.));
#1219=DIRECTION('center_axis',(0.707106781186547,-0.707106781186548,0.));
#1220=DIRECTION('ref_axis',(0.,0.,-1.));
#1221=DIRECTION('',(0.,5.59280302880243E-17,-1.));
#1222=DIRECTION('',(0.577350269189626,0.577350269189626,-0.577350269189625));
#1223=DIRECTION('center_axis',(0.,-0.707106781186548,-0.707106781186547));
#1224=DIRECTION('ref_axis',(-1.,0.,0.));
#1225=DIRECTION('',(-1.,0.,0.));
#1226=DIRECTION('center_axis',(0.,1.,5.59280302880243E-17));
#1227=DIRECTION('ref_axis',(1.,0.,0.));
#1228=DIRECTION('center_axis',(0.,0.,-1.));
#1229=DIRECTION('ref_axis',(1.,0.,0.));
#1230=DIRECTION('',(0.,-1.,0.));
#1231=DIRECTION('',(0.,-1.,0.));
#1232=DIRECTION('center_axis',(0.,0.,1.));
#1233=DIRECTION('ref_axis',(-1.,0.,0.));
#1234=DIRECTION('',(0.,1.,0.));
#1235=DIRECTION('',(0.,-1.,0.));
#1236=DIRECTION('center_axis',(1.,0.,0.));
#1237=DIRECTION('ref_axis',(0.,0.,1.));
#1238=DIRECTION('',(0.,1.,0.));
#1239=DIRECTION('center_axis',(-1.,0.,0.));
#1240=DIRECTION('ref_axis',(0.,0.,-1.));
#1241=DIRECTION('',(0.,1.,0.));
#1242=DIRECTION('',(0.,-1.,0.));
#1243=DIRECTION('center_axis',(0.,0.,1.));
#1244=DIRECTION('ref_axis',(-1.,0.,0.));
#1245=DIRECTION('',(0.,1.,0.));
#1246=DIRECTION('center_axis',(0.,0.,1.));
#1247=DIRECTION('ref_axis',(-1.,0.,0.));
#1248=DIRECTION('',(0.,-1.,0.));
#1249=DIRECTION('',(-1.,0.,0.));
#1250=DIRECTION('',(0.,-1.,0.));
#1251=DIRECTION('center_axis',(1.,0.,5.78617826055751E-16));
#1252=DIRECTION('ref_axis',(-5.78617826055751E-16,0.,1.));
#1253=DIRECTION('',(0.,-1.,0.));
#1254=DIRECTION('',(-5.78617826055751E-16,0.,1.));
#1255=DIRECTION('center_axis',(0.,0.,-1.));
#1256=DIRECTION('ref_axis',(1.,0.,0.));
#1257=DIRECTION('',(0.,-1.,0.));
#1258=DIRECTION('',(1.,0.,0.));
#1259=DIRECTION('center_axis',(-1.,0.,0.));
#1260=DIRECTION('ref_axis',(0.,0.,-1.));
#1261=DIRECTION('',(0.,0.,-1.));
#1262=DIRECTION('center_axis',(0.,-1.,0.));
#1263=DIRECTION('ref_axis',(0.,0.,-1.));
#1264=DIRECTION('center_axis',(0.,1.,0.));
#1265=DIRECTION('ref_axis',(1.,0.,0.));
#1266=DIRECTION('center_axis',(0.,1.,0.));
#1267=DIRECTION('ref_axis',(1.,0.,0.));
#1268=DIRECTION('center_axis',(0.,1.,0.));
#1269=DIRECTION('ref_axis',(1.,0.,0.));
#1270=DIRECTION('center_axis',(0.,-1.,0.));
#1271=DIRECTION('ref_axis',(-1.08418380562736E-14,0.,-1.));
#1272=DIRECTION('center_axis',(0.,-1.,0.));
#1273=DIRECTION('ref_axis',(1.,0.,0.));
#1274=DIRECTION('',(0.,1.,0.));
#1275=DIRECTION('center_axis',(-1.,0.,0.));
#1276=DIRECTION('ref_axis',(0.,0.,-1.));
#1277=DIRECTION('',(0.,-1.,0.));
#1278=DIRECTION('center_axis',(0.,0.,-1.));
#1279=DIRECTION('ref_axis',(1.,0.,0.));
#1280=DIRECTION('center_axis',(0.,-1.,0.));
#1281=DIRECTION('ref_axis',(1.,0.,0.));
#1282=DIRECTION('',(0.,1.,0.));
#1283=DIRECTION('center_axis',(0.,0.,-1.));
#1284=DIRECTION('ref_axis',(1.,0.,0.));
#1285=DIRECTION('',(0.,1.,0.));
#1286=DIRECTION('center_axis',(1.,0.,0.));
#1287=DIRECTION('ref_axis',(0.,0.,1.));
#1288=DIRECTION('center_axis',(0.,-1.,0.));
#1289=DIRECTION('ref_axis',(1.,0.,0.));
#1290=DIRECTION('',(0.,1.,0.));
#1291=DIRECTION('center_axis',(-0.996194698091746,0.0871557427476582,4.87444902016628E-18));
#1292=DIRECTION('ref_axis',(-4.87444902016628E-18,2.12823040379932E-19,
-1.));
#1293=DIRECTION('',(0.,0.,1.));
#1294=DIRECTION('',(1.,0.,0.));
#1295=CARTESIAN_POINT('',(0.,0.,0.));
#1296=CARTESIAN_POINT('',(0.,0.,0.));
#1297=CARTESIAN_POINT('Origin',(68.4999949451637,-0.2,13.7126697151406));
#1298=CARTESIAN_POINT('',(70.0999949451637,-0.1,13.7126697151406));
#1299=CARTESIAN_POINT('Origin',(68.4999949451637,-0.1,13.7126697151406));
#1300=CARTESIAN_POINT('',(70.0999949451637,-3.2,13.7126697151406));
#1301=CARTESIAN_POINT('',(70.0999949451637,-0.2,13.7126697151406));
#1302=CARTESIAN_POINT('Origin',(68.4999949451637,-3.2,13.7126697151406));
#1303=CARTESIAN_POINT('Origin',(43.350000629395,-3.,23.54519604));
#1304=CARTESIAN_POINT('',(43.350000629395,-3.,25.54519604));
#1305=CARTESIAN_POINT('',(43.350000629395,-3.,23.54519604));
#1306=CARTESIAN_POINT('',(43.350000629395,-3.,17.39669604));
#1307=CARTESIAN_POINT('',(43.350000629395,-0.1,25.54519604));
#1308=CARTESIAN_POINT('',(43.350000629395,-3.,25.54519604));
#1309=CARTESIAN_POINT('',(43.350000629395,-0.1,23.2914789157748));
#1310=CARTESIAN_POINT('',(43.350000629395,-0.1,16.83419604));
#1311=CARTESIAN_POINT('',(43.350000629395,-1.50570795286238,23.4144624258785));
#1312=CARTESIAN_POINT('Origin',(48.650000629395,-3.,25.54519604));
#1313=CARTESIAN_POINT('',(48.650000629395,-3.,23.54519604));
#1314=CARTESIAN_POINT('',(48.650000629395,-3.,25.54519604));
#1315=CARTESIAN_POINT('',(48.650000629395,-3.,18.39669604));
#1316=CARTESIAN_POINT('',(48.650000629395,-0.0999999999999999,23.2914789157748));
#1317=CARTESIAN_POINT('',(48.650000629395,-1.59253204169585,23.4220585493724));
#1318=CARTESIAN_POINT('',(48.650000629395,-0.1,25.54519604));
#1319=CARTESIAN_POINT('',(48.650000629395,-0.1,17.83419604));
#1320=CARTESIAN_POINT('',(48.650000629395,-3.,25.54519604));
#1321=CARTESIAN_POINT('Origin',(43.350000629395,-3.,25.54519604));
#1322=CARTESIAN_POINT('',(67.750000119395,-3.,25.54519604));
#1323=CARTESIAN_POINT('',(44.675000629395,-0.1,25.54519604));
#1324=CARTESIAN_POINT('Origin',(46.000000629395,-3.,11.24819604));
#1325=CARTESIAN_POINT('',(12.000001649395,-3.,23.54519604));
#1326=CARTESIAN_POINT('',(63.000000119395,-3.,23.54519604));
#1327=CARTESIAN_POINT('',(12.000001649395,-3.,-2.87680396));
#1328=CARTESIAN_POINT('',(12.000001649395,-3.,17.31069604));
#1329=CARTESIAN_POINT('',(43.350000629395,-3.,-2.87680396));
#1330=CARTESIAN_POINT('',(29.000001139395,-3.,-2.87680396));
#1331=CARTESIAN_POINT('',(43.350000629395,-3.,-4.87680396));
#1332=CARTESIAN_POINT('',(43.350000629395,-3.,3.18569604));
#1333=CARTESIAN_POINT('',(2.500001649395,-3.,-4.87680396));
#1334=CARTESIAN_POINT('',(89.499999609395,-3.,-4.87680396));
#1335=CARTESIAN_POINT('',(2.500001649395,-3.,25.54519604));
#1336=CARTESIAN_POINT('',(2.500001649395,-3.,-4.87680396));
#1337=CARTESIAN_POINT('',(67.750000119395,-3.,25.54519604));
#1338=CARTESIAN_POINT('',(5.90000084704924,-3.,17.4763896812452));
#1339=CARTESIAN_POINT('Origin',(7.50000084704924,-3.,17.4763896812452));
#1340=CARTESIAN_POINT('',(5.90000084704924,-3.,3.19185678545491));
#1341=CARTESIAN_POINT('Origin',(7.50000084704924,-3.,3.19185678545491));
#1342=CARTESIAN_POINT('Origin',(79.999999609395,-0.0114159057247631,23.283728811757));
#1343=CARTESIAN_POINT('',(12.2537187736202,-0.1,23.2914789157748));
#1344=CARTESIAN_POINT('',(63.000000119395,-0.1,23.2914789157748));
#1345=CARTESIAN_POINT('',(12.5164671992062,2.90322824691593,23.0287304901888));
#1346=CARTESIAN_POINT('Origin',(43.350000629395,-3.,-4.87680396));
#1347=CARTESIAN_POINT('',(43.350000629395,-0.0999999999999999,-2.62308683577482));
#1348=CARTESIAN_POINT('',(43.350000629395,-1.59253204169585,-2.75366646937241));
#1349=CARTESIAN_POINT('',(43.350000629395,-0.1,-4.87680396));
#1350=CARTESIAN_POINT('',(43.350000629395,-0.1,2.62319604));
#1351=CARTESIAN_POINT('',(43.350000629395,-3.,-4.87680396));
#1352=CARTESIAN_POINT('Origin',(48.650000629395,-3.,-4.87680396));
#1353=CARTESIAN_POINT('',(48.650000629395,-3.,-4.87680396));
#1354=CARTESIAN_POINT('',(89.499999609395,-3.,-4.87680396));
#1355=CARTESIAN_POINT('',(48.650000629395,-0.1,-4.87680396));
#1356=CARTESIAN_POINT('',(47.325000629395,-0.1,-4.87680396));
#1357=CARTESIAN_POINT('',(48.650000629395,-3.,-4.87680396));
#1358=CARTESIAN_POINT('Origin',(48.650000629395,-3.,-2.87680396));
#1359=CARTESIAN_POINT('',(48.650000629395,-3.,-2.87680396));
#1360=CARTESIAN_POINT('',(48.650000629395,-3.,4.18569604));
#1361=CARTESIAN_POINT('',(48.650000629395,-0.1,-2.62308683577482));
#1362=CARTESIAN_POINT('',(48.650000629395,-0.1,3.62319604));
#1363=CARTESIAN_POINT('',(48.650000629395,-1.50570795286238,-2.74607034587851));
#1364=CARTESIAN_POINT('Origin',(12.000001649395,-0.0114159057247631,-2.61533673175703));
#1365=CARTESIAN_POINT('',(79.7462824851698,-0.0999999999999998,-2.62308683577482));
#1366=CARTESIAN_POINT('',(29.000001139395,-0.1,-2.62308683577482));
#1367=CARTESIAN_POINT('',(79.999999609395,-3.,-2.87680396));
#1368=CARTESIAN_POINT('',(79.4851247584957,2.8850464751557,-2.36192910910068));
#1369=CARTESIAN_POINT('',(29.000001139395,-3.,-2.87680396));
#1370=CARTESIAN_POINT('Origin',(84.4999993002511,-3.75,17.4763917582217));
#1371=CARTESIAN_POINT('',(82.8999993002511,-3.,17.4763917582217));
#1372=CARTESIAN_POINT('Origin',(84.4999993002511,-3.,17.4763917582217));
#1373=CARTESIAN_POINT('',(81.3999993002511,-4.5,17.4763917582217));
#1374=CARTESIAN_POINT('',(82.1499993002511,-3.75,17.4763917582217));
#1375=CARTESIAN_POINT('Origin',(84.4999993002511,-4.5,17.4763917582217));
#1376=CARTESIAN_POINT('Origin',(46.000000629395,-4.5,11.24819604));
#1377=CARTESIAN_POINT('',(4.00000164939501,-4.5,-3.37680396));
#1378=CARTESIAN_POINT('',(4.00000164939501,-4.5,24.04519604));
#1379=CARTESIAN_POINT('',(4.00000164939501,-4.5,19.31069604));
#1380=CARTESIAN_POINT('',(87.999999609395,-4.5,-3.37680396));
#1381=CARTESIAN_POINT('',(24.250001139395,-4.5,-3.37680396));
#1382=CARTESIAN_POINT('',(87.999999609395,-4.5,24.04519604));
#1383=CARTESIAN_POINT('',(87.999999609395,-4.5,3.18569604));
#1384=CARTESIAN_POINT('',(67.750000119395,-4.5,24.04519604));
#1385=CARTESIAN_POINT('',(81.4000000708651,-4.5,3.19185886243144));
#1386=CARTESIAN_POINT('Origin',(84.5000000708651,-4.5,3.19185886243144));
#1387=CARTESIAN_POINT('',(4.40000084704924,-4.5,17.4763896812452));
#1388=CARTESIAN_POINT('Origin',(7.50000084704924,-4.5,17.4763896812452));
#1389=CARTESIAN_POINT('',(13.000001649395,-4.5,-1.62680396));
#1390=CARTESIAN_POINT('',(78.999999609395,-4.5,-1.62680396));
#1391=CARTESIAN_POINT('',(63.000000119395,-4.5,-1.62680396));
#1392=CARTESIAN_POINT('',(13.000001649395,-4.5,22.29519604));
#1393=CARTESIAN_POINT('',(13.000001649395,-4.5,4.81069604));
#1394=CARTESIAN_POINT('',(78.999999609395,-4.5,22.29519604));
#1395=CARTESIAN_POINT('',(29.000001139395,-4.5,22.29519604));
#1396=CARTESIAN_POINT('',(78.999999609395,-4.5,17.31069604));
#1397=CARTESIAN_POINT('',(4.40000084704924,-4.5,3.19185678545491));
#1398=CARTESIAN_POINT('Origin',(7.50000084704924,-4.5,3.19185678545491));
#1399=CARTESIAN_POINT('Origin',(84.5000000708651,-3.75,3.19185886243144));
#1400=CARTESIAN_POINT('',(82.9000000708651,-3.,3.19185886243144));
#1401=CARTESIAN_POINT('Origin',(84.5000000708651,-3.,3.19185886243144));
#1402=CARTESIAN_POINT('',(82.1500000708651,-3.75,3.19185886243144));
#1403=CARTESIAN_POINT('Origin',(7.50000084704924,-3.75,3.19185678545491));
#1404=CARTESIAN_POINT('',(5.15000084704924,-3.75,3.19185678545491));
#1405=CARTESIAN_POINT('Origin',(7.50000084704924,-3.75,17.4763896812452));
#1406=CARTESIAN_POINT('',(5.15000084704924,-3.75,17.4763896812452));
#1407=CARTESIAN_POINT('Origin',(79.999999609395,-0.0114159057247631,23.283728811757));
#1408=CARTESIAN_POINT('',(79.999999609395,-3.,23.54519604));
#1409=CARTESIAN_POINT('',(63.000000119395,-3.,23.54519604));
#1410=CARTESIAN_POINT('',(79.7462824851698,-0.1,23.2914789157748));
#1411=CARTESIAN_POINT('',(79.6399653429871,1.11521049582864,23.1851617735921));
#1412=CARTESIAN_POINT('',(63.000000119395,-0.1,23.2914789157748));
#1413=CARTESIAN_POINT('Origin',(12.000001649395,-0.0114159057247631,-2.61533673175703));
#1414=CARTESIAN_POINT('',(12.2537187736202,-0.1,-2.62308683577482));
#1415=CARTESIAN_POINT('',(12.3584452168911,1.0970287240684,-2.51836039250393));
#1416=CARTESIAN_POINT('',(29.000001139395,-0.1,-2.62308683577482));
#1417=CARTESIAN_POINT('Origin',(79.738532381152,-0.0114159057247631,-3.12680396));
#1418=CARTESIAN_POINT('',(79.7462824851698,-0.1,3.49819604));
#1419=CARTESIAN_POINT('',(79.999999609395,-3.,4.06069604));
#1420=CARTESIAN_POINT('Origin',(46.000000629395,-0.1,10.12319604));
#1421=CARTESIAN_POINT('',(12.2537187736202,-0.1,16.74819604));
#1422=CARTESIAN_POINT('',(22.4876223490004,-0.1,17.6799992));
#1423=CARTESIAN_POINT('',(27.3823809497897,-0.1,17.6799992));
#1424=CARTESIAN_POINT('',(34.2438114891977,-0.1,17.6799992));
#1425=CARTESIAN_POINT('Origin',(24.935001649395,-0.1,12.5999992));
#1426=CARTESIAN_POINT('',(63.8999949451638,-0.1,-0.1));
#1427=CARTESIAN_POINT('',(63.8999949451638,-0.1,11.1126697151406));
#1428=CARTESIAN_POINT('',(63.8999949451638,-0.1,5.06159802));
#1429=CARTESIAN_POINT('',(73.0999949451636,-0.1,-0.1));
#1430=CARTESIAN_POINT('',(59.4999977872793,-0.1,-0.1));
#1431=CARTESIAN_POINT('',(73.0999949451636,-0.1,11.1126697151406));
#1432=CARTESIAN_POINT('',(73.0999949451636,-0.1,10.5679328775703));
#1433=CARTESIAN_POINT('',(54.9999977872794,-0.1,11.1126697151406));
#1434=CARTESIAN_POINT('',(54.229999609395,-0.1,-0.1));
#1435=CARTESIAN_POINT('',(37.770001649395,-0.1,-0.1));
#1436=CARTESIAN_POINT('',(50.065000119395,-0.1,-0.1));
#1437=CARTESIAN_POINT('',(54.229999609395,-0.1,13.1999992));
#1438=CARTESIAN_POINT('',(54.229999609395,-0.1,11.61159762));
#1439=CARTESIAN_POINT('',(37.770001649395,-0.1,13.1999992));
#1440=CARTESIAN_POINT('',(41.935001139395,-0.1,13.1999992));
#1441=CARTESIAN_POINT('',(37.770001649395,-0.1,5.06159802));
#1442=CARTESIAN_POINT('',(60.960001389395,-0.1,15.05000098));
#1443=CARTESIAN_POINT('',(60.960001389395,-0.1,-0.3));
#1444=CARTESIAN_POINT('',(60.960001389395,-0.1,4.91159802));
#1445=CARTESIAN_POINT('',(56.039999869395,-0.1,15.05000098));
#1446=CARTESIAN_POINT('',(53.480001009395,-0.1,15.05000098));
#1447=CARTESIAN_POINT('',(56.039999869395,-0.1,-0.3));
#1448=CARTESIAN_POINT('',(56.039999869395,-0.1,12.58659851));
#1449=CARTESIAN_POINT('',(51.020000249395,-0.1,-0.3));
#1450=CARTESIAN_POINT('Origin',(29.000001139395,-4.,21.79519604));
#1451=CARTESIAN_POINT('',(14.300001649395,-3.2,20.99519604));
#1452=CARTESIAN_POINT('',(77.699999609395,-3.2,20.99519604));
#1453=CARTESIAN_POINT('',(37.500000884395,-3.2,20.99519604));
#1454=CARTESIAN_POINT('',(77.999999609395,-3.5,21.29519604));
#1455=CARTESIAN_POINT('',(13.000001649395,-4.5,22.29519604));
#1456=CARTESIAN_POINT('Origin',(63.000000119395,-4.,-1.12680396));
#1457=CARTESIAN_POINT('',(77.699999609395,-3.2,-0.326803959999997));
#1458=CARTESIAN_POINT('',(14.300001649395,-3.2,-0.326803959999998));
#1459=CARTESIAN_POINT('',(54.500000374395,-3.2,-0.326803959999997));
#1460=CARTESIAN_POINT('',(14.000001649395,-3.5,-0.626803959999998));
#1461=CARTESIAN_POINT('',(78.999999609395,-4.5,-1.62680396));
#1462=CARTESIAN_POINT('Origin',(13.500001649395,-4.,4.24819604));
#1463=CARTESIAN_POINT('',(14.300001649395,-3.2,7.18569604));
#1464=CARTESIAN_POINT('Origin',(78.499999609395,-4.,16.74819604));
#1465=CARTESIAN_POINT('',(77.699999609395,-3.2,13.43569604));
#1466=CARTESIAN_POINT('Origin',(46.000000629395,-3.2,10.12319604));
#1467=CARTESIAN_POINT('',(56.925000989395,-3.2,2.53999990633954));
#1468=CARTESIAN_POINT('Origin',(58.500000629395,-3.2,2.53999990633954));
#1469=CARTESIAN_POINT('',(54.229999609395,-3.2,-0.1));
#1470=CARTESIAN_POINT('',(37.770001649395,-3.2,-0.1));
#1471=CARTESIAN_POINT('',(50.065000119395,-3.2,-0.1));
#1472=CARTESIAN_POINT('',(37.770001649395,-3.2,13.1999992));
#1473=CARTESIAN_POINT('',(37.770001649395,-3.2,5.06159802));
#1474=CARTESIAN_POINT('',(54.229999609395,-3.2,13.1999992));
#1475=CARTESIAN_POINT('',(41.935001139395,-3.2,13.1999992));
#1476=CARTESIAN_POINT('',(54.229999609395,-3.2,11.61159762));
#1477=CARTESIAN_POINT('',(56.925000989395,-3.2,7.61999983004554));
#1478=CARTESIAN_POINT('Origin',(58.500000629395,-3.2,7.61999983004554));
#1479=CARTESIAN_POINT('',(63.8999949451638,-3.2,-0.1));
#1480=CARTESIAN_POINT('',(63.8999949451638,-3.2,11.1126697151406));
#1481=CARTESIAN_POINT('',(63.8999949451638,-3.2,5.06159802));
#1482=CARTESIAN_POINT('',(73.0999949451636,-3.2,11.1126697151406));
#1483=CARTESIAN_POINT('',(54.9999977872794,-3.2,11.1126697151406));
#1484=CARTESIAN_POINT('',(73.0999949451636,-3.2,-0.1));
#1485=CARTESIAN_POINT('',(73.0999949451636,-3.2,10.5679328775703));
#1486=CARTESIAN_POINT('',(59.4999977872793,-3.2,-0.1));
#1487=CARTESIAN_POINT('',(56.925000989395,-3.2,12.6999997537515));
#1488=CARTESIAN_POINT('Origin',(58.500000629395,-3.2,12.6999997537515));
#1489=CARTESIAN_POINT('',(22.4876223490004,-3.2,17.6799992));
#1490=CARTESIAN_POINT('',(27.3823809497897,-3.2,17.6799992));
#1491=CARTESIAN_POINT('',(34.2438114891977,-3.2,17.6799992));
#1492=CARTESIAN_POINT('Origin',(24.935001649395,-3.2,12.5999992));
#1493=CARTESIAN_POINT('Origin',(3.25000164939501,-3.75,19.31069604));
#1494=CARTESIAN_POINT('',(4.00000164939501,-4.5,24.04519604));
#1495=CARTESIAN_POINT('',(2.500001649395,-3.,-4.87680396));
#1496=CARTESIAN_POINT('Origin',(67.750000119395,-3.75,24.79519604));
#1497=CARTESIAN_POINT('',(89.499999609395,-3.,25.54519604));
#1498=CARTESIAN_POINT('',(87.999999609395,-4.5,24.04519604));
#1499=CARTESIAN_POINT('',(67.750000119395,-3.,25.54519604));
#1500=CARTESIAN_POINT('Origin',(88.749999609395,-3.75,3.18569604));
#1501=CARTESIAN_POINT('',(89.499999609395,-3.,-4.87680396));
#1502=CARTESIAN_POINT('',(89.499999609395,-3.,27.37319604));
#1503=CARTESIAN_POINT('',(87.999999609395,-4.5,-3.37680396));
#1504=CARTESIAN_POINT('Origin',(24.250001139395,-3.75,-4.12680396));
#1505=CARTESIAN_POINT('',(89.499999609395,-3.,-4.87680396));
#1506=CARTESIAN_POINT('Origin',(46.000000629395,-3.,11.24819604));
#1507=CARTESIAN_POINT('Origin',(22.4876223490004,0.,17.6799992));
#1508=CARTESIAN_POINT('',(27.3823809497897,0.,17.6799992));
#1509=CARTESIAN_POINT('',(22.4876223490004,0.,17.6799992));
#1510=CARTESIAN_POINT('Origin',(72.9999949451636,0.,-0.1));
#1511=CARTESIAN_POINT('',(63.8999949451638,0.,-0.1));
#1512=CARTESIAN_POINT('',(73.0999949451636,0.,-0.1));
#1513=CARTESIAN_POINT('Origin',(63.8999949451638,0.,0.));
#1514=CARTESIAN_POINT('',(63.8999949451638,0.,11.1126697151406));
#1515=CARTESIAN_POINT('Origin',(54.229999609395,0.,13.0999992));
#1516=CARTESIAN_POINT('',(54.229999609395,0.,-0.1));
#1517=CARTESIAN_POINT('',(54.229999609395,0.,13.1999992));
#1518=CARTESIAN_POINT('Origin',(54.129999609395,0.,-0.1));
#1519=CARTESIAN_POINT('',(37.770001649395,0.,-0.1));
#1520=CARTESIAN_POINT('Origin',(60.960001389395,0.,15.05000098));
#1521=CARTESIAN_POINT('',(60.960001389395,-2.1,15.05000098));
#1522=CARTESIAN_POINT('',(60.960001389395,0.,15.05000098));
#1523=CARTESIAN_POINT('',(56.039999869395,-2.1,15.05000098));
#1524=CARTESIAN_POINT('',(56.039999869395,-2.1,15.05000098));
#1525=CARTESIAN_POINT('',(56.039999869395,0.,15.05000098));
#1526=CARTESIAN_POINT('Origin',(60.960001389395,0.,-0.3));
#1527=CARTESIAN_POINT('',(60.960001389395,-2.1,-0.3));
#1528=CARTESIAN_POINT('',(60.960001389395,0.,-0.3));
#1529=CARTESIAN_POINT('',(60.960001389395,-2.1,15.05000098));
#1530=CARTESIAN_POINT('Origin',(56.039999869395,0.,-0.3));
#1531=CARTESIAN_POINT('',(56.039999869395,-2.1,-0.3));
#1532=CARTESIAN_POINT('',(56.039999869395,0.,-0.3));
#1533=CARTESIAN_POINT('',(60.960001389395,-2.1,-0.3));
#1534=CARTESIAN_POINT('Origin',(56.039999869395,0.,15.05000098));
#1535=CARTESIAN_POINT('',(56.039999869395,-2.1,-0.3));
#1536=CARTESIAN_POINT('Origin',(58.500000629395,-2.1,7.37500049));
#1537=CARTESIAN_POINT('',(56.925000989395,-2.1,12.6999997537515));
#1538=CARTESIAN_POINT('Origin',(58.500000629395,-2.1,12.6999997537515));
#1539=CARTESIAN_POINT('',(56.925000989395,-2.1,7.61999983004554));
#1540=CARTESIAN_POINT('Origin',(58.500000629395,-2.1,7.61999983004554));
#1541=CARTESIAN_POINT('',(56.925000989395,-2.1,2.53999990633954));
#1542=CARTESIAN_POINT('Origin',(58.500000629395,-2.1,2.53999990633954));
#1543=CARTESIAN_POINT('Origin',(24.935001649395,0.,12.5999992));
#1544=CARTESIAN_POINT('Origin',(58.500000629395,0.,12.6999997537515));
#1545=CARTESIAN_POINT('',(56.925000989395,0.,12.6999997537515));
#1546=CARTESIAN_POINT('Origin',(73.0999949451636,0.,11.0126697151406));
#1547=CARTESIAN_POINT('',(73.0999949451636,0.,11.1126697151406));
#1548=CARTESIAN_POINT('Origin',(63.9999949451638,0.,11.1126697151406));
#1549=CARTESIAN_POINT('Origin',(58.500000629395,0.,7.61999983004554));
#1550=CARTESIAN_POINT('',(56.925000989395,0.,7.61999983004554));
#1551=CARTESIAN_POINT('Origin',(37.870001649395,0.,13.1999992));
#1552=CARTESIAN_POINT('',(37.770001649395,0.,13.1999992));
#1553=CARTESIAN_POINT('Origin',(37.770001649395,0.,0.));
#1554=CARTESIAN_POINT('Origin',(58.500000629395,0.,2.53999990633954));
#1555=CARTESIAN_POINT('',(56.925000989395,0.,2.53999990633954));
#1556=CARTESIAN_POINT('Origin',(12.261468877638,-0.0114159057247633,23.37319604));
#1557=CARTESIAN_POINT('',(0.,-0.1,0.));
#1558=UNCERTAINTY_MEASURE_WITH_UNIT(LENGTH_MEASURE(0.01),#1564,
'DISTANCE_ACCURACY_VALUE',
'Maximum model space distance between geometric entities at asserted c
onnectivities');
#1559=UNCERTAINTY_MEASURE_WITH_UNIT(LENGTH_MEASURE(0.01),#1564,
'DISTANCE_ACCURACY_VALUE',
'Maximum model space distance between geometric entities at asserted c
onnectivities');
#1560=UNCERTAINTY_MEASURE_WITH_UNIT(LENGTH_MEASURE(0.01),#1564,
'DISTANCE_ACCURACY_VALUE',
'Maximum model space distance between geometric entities at asserted c
onnectivities');
#1561=(
GEOMETRIC_REPRESENTATION_CONTEXT(3)
GLOBAL_UNCERTAINTY_ASSIGNED_CONTEXT((#1558))
GLOBAL_UNIT_ASSIGNED_CONTEXT((#1564,#1566,#1567))
REPRESENTATION_CONTEXT('','3D')
);
#1562=(
GEOMETRIC_REPRESENTATION_CONTEXT(3)
GLOBAL_UNCERTAINTY_ASSIGNED_CONTEXT((#1559))
GLOBAL_UNIT_ASSIGNED_CONTEXT((#1564,#1566,#1567))
REPRESENTATION_CONTEXT('','3D')
);
#1563=(
GEOMETRIC_REPRESENTATION_CONTEXT(3)
GLOBAL_UNCERTAINTY_ASSIGNED_CONTEXT((#1560))
GLOBAL_UNIT_ASSIGNED_CONTEXT((#1564,#1566,#1567))
REPRESENTATION_CONTEXT('','3D')
);
#1564=(
LENGTH_UNIT()
NAMED_UNIT(*)
SI_UNIT(.MILLI.,.METRE.)
);
#1565=(
LENGTH_UNIT()
NAMED_UNIT(*)
SI_UNIT($,.METRE.)
);
#1566=(
NAMED_UNIT(*)
PLANE_ANGLE_UNIT()
SI_UNIT($,.RADIAN.)
);
#1567=(
NAMED_UNIT(*)
SI_UNIT($,.STERADIAN.)
SOLID_ANGLE_UNIT()
);
#1568=SHAPE_DEFINITION_REPRESENTATION(#1570,#1573);
#1569=SHAPE_DEFINITION_REPRESENTATION(#1571,#1574);
#1570=PRODUCT_DEFINITION_SHAPE('',$,#1576);
#1571=PRODUCT_DEFINITION_SHAPE('',$,#1577);
#1572=PRODUCT_DEFINITION_SHAPE($,$,#14);
#1573=SHAPE_REPRESENTATION('',(#978,#1046),#1561);
#1574=SHAPE_REPRESENTATION('',(#979),#1562);
#1575=PRODUCT_DEFINITION_CONTEXT('part definition',#1583,'design');
#1576=PRODUCT_DEFINITION('beovox-poe CX50 panel',
'beovox-poe CX50 panel v4',#1578,#1575);
#1577=PRODUCT_DEFINITION('panel2','panel2',#1579,#1575);
#1578=PRODUCT_DEFINITION_FORMATION('',$,#1585);
#1579=PRODUCT_DEFINITION_FORMATION('',$,#1586);
#1580=PRODUCT_RELATED_PRODUCT_CATEGORY('beovox-poe CX50 panel v4',
'beovox-poe CX50 panel v4',(#1585));
#1581=PRODUCT_RELATED_PRODUCT_CATEGORY('panel2','panel2',(#1586));
#1582=APPLICATION_PROTOCOL_DEFINITION('international standard',
'automotive_design',2009,#1583);
#1583=APPLICATION_CONTEXT(
'Core Data for Automotive Mechanical Design Process');
#1584=PRODUCT_CONTEXT('part definition',#1583,'mechanical');
#1585=PRODUCT('beovox-poe CX50 panel','beovox-poe CX50 panel v4',$,(#1584));
#1586=PRODUCT('panel2','panel2',$,(#1584));
#1587=PRESENTATION_STYLE_ASSIGNMENT((#1588));
#1588=SURFACE_STYLE_USAGE(.BOTH.,#1589);
#1589=SURFACE_SIDE_STYLE('',(#1590));
#1590=SURFACE_STYLE_FILL_AREA(#1591);
#1591=FILL_AREA_STYLE('ABS (White)',(#1592));
#1592=FILL_AREA_STYLE_COLOUR('ABS (White)',#1593);
#1593=COLOUR_RGB('ABS (White)',0.964705882352941,0.964705882352941,0.952941176470588);
ENDSEC;
END-ISO-10303-21;
