ISO-10303-21;
HEADER;
/* Generated by software containing ST-Developer
 * from STEP Tools, Inc. (www.steptools.com) 
 */

FILE_DESCRIPTION(
/* description */ (''),
/* implementation_level */ '2;1');

FILE_NAME(
/* name */ 'mini-xlr-plug-inner.step',
/* time_stamp */ '2026-05-08T11:17:50-06:00',
/* author */ (''),
/* organization */ (''),
/* preprocessor_version */ 'ST-DEVELOPER v20.1',
/* originating_system */ 'Autodesk Translation Framework v15.8.0.0',
/* authorisation */ '');

FILE_SCHEMA (('AUTOMOTIVE_DESIGN { 1 0 10303 214 3 1 1 }'));
ENDSEC;

DATA;
#10=MECHANICAL_DESIGN_GEOMETRIC_PRESENTATION_REPRESENTATION('',(#13),#358);
#11=SHAPE_REPRESENTATION_RELATIONSHIP('SRR','None',#365,#12);
#12=ADVANCED_BREP_SHAPE_REPRESENTATION('',(#14),#357);
#13=STYLED_ITEM('',(#374),#14);
#14=MANIFOLD_SOLID_BREP('Body2',#211);
#15=FACE_BOUND('',#44,.T.);
#16=FACE_BOUND('',#52,.T.);
#17=FACE_BOUND('',#55,.T.);
#18=PLANE('',#230);
#19=PLANE('',#231);
#20=PLANE('',#232);
#21=PLANE('',#233);
#22=PLANE('',#234);
#23=PLANE('',#235);
#24=PLANE('',#236);
#25=PLANE('',#237);
#26=PLANE('',#241);
#27=CYLINDRICAL_SURFACE('',#228,6.5);
#28=CYLINDRICAL_SURFACE('',#239,1.55);
#29=FACE_OUTER_BOUND('',#41,.T.);
#30=FACE_OUTER_BOUND('',#42,.T.);
#31=FACE_OUTER_BOUND('',#43,.T.);
#32=FACE_OUTER_BOUND('',#45,.T.);
#33=FACE_OUTER_BOUND('',#46,.T.);
#34=FACE_OUTER_BOUND('',#47,.T.);
#35=FACE_OUTER_BOUND('',#48,.T.);
#36=FACE_OUTER_BOUND('',#49,.T.);
#37=FACE_OUTER_BOUND('',#50,.T.);
#38=FACE_OUTER_BOUND('',#51,.T.);
#39=FACE_OUTER_BOUND('',#53,.T.);
#40=FACE_OUTER_BOUND('',#54,.T.);
#41=EDGE_LOOP('',(#146,#147,#148,#149));
#42=EDGE_LOOP('',(#150,#151,#152,#153));
#43=EDGE_LOOP('',(#154));
#44=EDGE_LOOP('',(#155,#156,#157,#158,#159,#160));
#45=EDGE_LOOP('',(#161,#162,#163,#164));
#46=EDGE_LOOP('',(#165,#166,#167,#168));
#47=EDGE_LOOP('',(#169,#170,#171,#172));
#48=EDGE_LOOP('',(#173,#174,#175,#176));
#49=EDGE_LOOP('',(#177,#178,#179,#180));
#50=EDGE_LOOP('',(#181,#182,#183,#184));
#51=EDGE_LOOP('',(#185,#186,#187,#188,#189,#190));
#52=EDGE_LOOP('',(#191));
#53=EDGE_LOOP('',(#192,#193,#194,#195));
#54=EDGE_LOOP('',(#196));
#55=EDGE_LOOP('',(#197));
#56=LINE('',#304,#77);
#57=LINE('',#308,#78);
#58=LINE('',#313,#79);
#59=LINE('',#315,#80);
#60=LINE('',#317,#81);
#61=LINE('',#319,#82);
#62=LINE('',#321,#83);
#63=LINE('',#322,#84);
#64=LINE('',#325,#85);
#65=LINE('',#327,#86);
#66=LINE('',#328,#87);
#67=LINE('',#331,#88);
#68=LINE('',#332,#89);
#69=LINE('',#335,#90);
#70=LINE('',#336,#91);
#71=LINE('',#339,#92);
#72=LINE('',#340,#93);
#73=LINE('',#343,#94);
#74=LINE('',#344,#95);
#75=LINE('',#346,#96);
#76=LINE('',#352,#97);
#77=VECTOR('',#248,6.);
#78=VECTOR('',#253,6.5);
#79=VECTOR('',#258,10.);
#80=VECTOR('',#259,10.);
#81=VECTOR('',#260,10.);
#82=VECTOR('',#261,10.);
#83=VECTOR('',#262,10.);
#84=VECTOR('',#263,10.);
#85=VECTOR('',#266,10.);
#86=VECTOR('',#267,10.);
#87=VECTOR('',#268,10.);
#88=VECTOR('',#271,10.);
#89=VECTOR('',#272,10.);
#90=VECTOR('',#275,10.);
#91=VECTOR('',#276,10.);
#92=VECTOR('',#279,10.);
#93=VECTOR('',#280,10.);
#94=VECTOR('',#283,10.);
#95=VECTOR('',#284,10.);
#96=VECTOR('',#287,10.);
#97=VECTOR('',#294,1.55);
#98=CIRCLE('',#226,5.5);
#99=CIRCLE('',#227,6.5);
#100=CIRCLE('',#229,6.5);
#101=CIRCLE('',#238,1.55);
#102=CIRCLE('',#240,1.55);
#103=VERTEX_POINT('',#301);
#104=VERTEX_POINT('',#303);
#105=VERTEX_POINT('',#307);
#106=VERTEX_POINT('',#311);
#107=VERTEX_POINT('',#312);
#108=VERTEX_POINT('',#314);
#109=VERTEX_POINT('',#316);
#110=VERTEX_POINT('',#318);
#111=VERTEX_POINT('',#320);
#112=VERTEX_POINT('',#324);
#113=VERTEX_POINT('',#326);
#114=VERTEX_POINT('',#330);
#115=VERTEX_POINT('',#334);
#116=VERTEX_POINT('',#338);
#117=VERTEX_POINT('',#342);
#118=VERTEX_POINT('',#348);
#119=VERTEX_POINT('',#351);
#120=EDGE_CURVE('',#103,#103,#98,.T.);
#121=EDGE_CURVE('',#103,#104,#56,.T.);
#122=EDGE_CURVE('',#104,#104,#99,.T.);
#123=EDGE_CURVE('',#104,#105,#57,.T.);
#124=EDGE_CURVE('',#105,#105,#100,.T.);
#125=EDGE_CURVE('',#106,#107,#58,.T.);
#126=EDGE_CURVE('',#107,#108,#59,.T.);
#127=EDGE_CURVE('',#108,#109,#60,.T.);
#128=EDGE_CURVE('',#109,#110,#61,.T.);
#129=EDGE_CURVE('',#110,#111,#62,.T.);
#130=EDGE_CURVE('',#111,#106,#63,.T.);
#131=EDGE_CURVE('',#106,#112,#64,.T.);
#132=EDGE_CURVE('',#112,#113,#65,.T.);
#133=EDGE_CURVE('',#107,#113,#66,.T.);
#134=EDGE_CURVE('',#111,#114,#67,.T.);
#135=EDGE_CURVE('',#114,#112,#68,.T.);
#136=EDGE_CURVE('',#110,#115,#69,.T.);
#137=EDGE_CURVE('',#115,#114,#70,.T.);
#138=EDGE_CURVE('',#109,#116,#71,.T.);
#139=EDGE_CURVE('',#116,#115,#72,.T.);
#140=EDGE_CURVE('',#108,#117,#73,.T.);
#141=EDGE_CURVE('',#117,#116,#74,.T.);
#142=EDGE_CURVE('',#113,#117,#75,.T.);
#143=EDGE_CURVE('',#118,#118,#101,.T.);
#144=EDGE_CURVE('',#118,#119,#76,.T.);
#145=EDGE_CURVE('',#119,#119,#102,.T.);
#146=ORIENTED_EDGE('',*,*,#120,.T.);
#147=ORIENTED_EDGE('',*,*,#121,.T.);
#148=ORIENTED_EDGE('',*,*,#122,.T.);
#149=ORIENTED_EDGE('',*,*,#121,.F.);
#150=ORIENTED_EDGE('',*,*,#122,.F.);
#151=ORIENTED_EDGE('',*,*,#123,.T.);
#152=ORIENTED_EDGE('',*,*,#124,.F.);
#153=ORIENTED_EDGE('',*,*,#123,.F.);
#154=ORIENTED_EDGE('',*,*,#120,.F.);
#155=ORIENTED_EDGE('',*,*,#125,.T.);
#156=ORIENTED_EDGE('',*,*,#126,.T.);
#157=ORIENTED_EDGE('',*,*,#127,.T.);
#158=ORIENTED_EDGE('',*,*,#128,.T.);
#159=ORIENTED_EDGE('',*,*,#129,.T.);
#160=ORIENTED_EDGE('',*,*,#130,.T.);
#161=ORIENTED_EDGE('',*,*,#125,.F.);
#162=ORIENTED_EDGE('',*,*,#131,.T.);
#163=ORIENTED_EDGE('',*,*,#132,.T.);
#164=ORIENTED_EDGE('',*,*,#133,.F.);
#165=ORIENTED_EDGE('',*,*,#130,.F.);
#166=ORIENTED_EDGE('',*,*,#134,.T.);
#167=ORIENTED_EDGE('',*,*,#135,.T.);
#168=ORIENTED_EDGE('',*,*,#131,.F.);
#169=ORIENTED_EDGE('',*,*,#129,.F.);
#170=ORIENTED_EDGE('',*,*,#136,.T.);
#171=ORIENTED_EDGE('',*,*,#137,.T.);
#172=ORIENTED_EDGE('',*,*,#134,.F.);
#173=ORIENTED_EDGE('',*,*,#128,.F.);
#174=ORIENTED_EDGE('',*,*,#138,.T.);
#175=ORIENTED_EDGE('',*,*,#139,.T.);
#176=ORIENTED_EDGE('',*,*,#136,.F.);
#177=ORIENTED_EDGE('',*,*,#127,.F.);
#178=ORIENTED_EDGE('',*,*,#140,.T.);
#179=ORIENTED_EDGE('',*,*,#141,.T.);
#180=ORIENTED_EDGE('',*,*,#138,.F.);
#181=ORIENTED_EDGE('',*,*,#126,.F.);
#182=ORIENTED_EDGE('',*,*,#133,.T.);
#183=ORIENTED_EDGE('',*,*,#142,.T.);
#184=ORIENTED_EDGE('',*,*,#140,.F.);
#185=ORIENTED_EDGE('',*,*,#142,.F.);
#186=ORIENTED_EDGE('',*,*,#132,.F.);
#187=ORIENTED_EDGE('',*,*,#135,.F.);
#188=ORIENTED_EDGE('',*,*,#137,.F.);
#189=ORIENTED_EDGE('',*,*,#139,.F.);
#190=ORIENTED_EDGE('',*,*,#141,.F.);
#191=ORIENTED_EDGE('',*,*,#143,.F.);
#192=ORIENTED_EDGE('',*,*,#143,.T.);
#193=ORIENTED_EDGE('',*,*,#144,.T.);
#194=ORIENTED_EDGE('',*,*,#145,.F.);
#195=ORIENTED_EDGE('',*,*,#144,.F.);
#196=ORIENTED_EDGE('',*,*,#124,.T.);
#197=ORIENTED_EDGE('',*,*,#145,.T.);
#198=CONICAL_SURFACE('',#225,6.,0.785398163397448);
#199=ADVANCED_FACE('',(#29),#198,.T.);
#200=ADVANCED_FACE('',(#30),#27,.T.);
#201=ADVANCED_FACE('',(#31,#15),#18,.F.);
#202=ADVANCED_FACE('',(#32),#19,.F.);
#203=ADVANCED_FACE('',(#33),#20,.F.);
#204=ADVANCED_FACE('',(#34),#21,.F.);
#205=ADVANCED_FACE('',(#35),#22,.F.);
#206=ADVANCED_FACE('',(#36),#23,.F.);
#207=ADVANCED_FACE('',(#37),#24,.F.);
#208=ADVANCED_FACE('',(#38,#16),#25,.T.);
#209=ADVANCED_FACE('',(#39),#28,.F.);
#210=ADVANCED_FACE('',(#40,#17),#26,.T.);
#211=CLOSED_SHELL('',(#199,#200,#201,#202,#203,#204,#205,#206,#207,#208,
#209,#210));
#212=DERIVED_UNIT_ELEMENT(#214,1.);
#213=DERIVED_UNIT_ELEMENT(#360,-3.);
#214=(
MASS_UNIT()
NAMED_UNIT(*)
SI_UNIT(.KILO.,.GRAM.)
);
#215=DERIVED_UNIT((#212,#213));
#216=MEASURE_REPRESENTATION_ITEM('density measure',
POSITIVE_RATIO_MEASURE(1060.),#215);
#217=PROPERTY_DEFINITION_REPRESENTATION(#222,#219);
#218=PROPERTY_DEFINITION_REPRESENTATION(#223,#220);
#219=REPRESENTATION('material name',(#221),#357);
#220=REPRESENTATION('density',(#216),#357);
#221=DESCRIPTIVE_REPRESENTATION_ITEM('ABS Plastic','ABS Plastic');
#222=PROPERTY_DEFINITION('material property','material name',#367);
#223=PROPERTY_DEFINITION('material property','density of part',#367);
#224=AXIS2_PLACEMENT_3D('',#299,#242,#243);
#225=AXIS2_PLACEMENT_3D('',#300,#244,#245);
#226=AXIS2_PLACEMENT_3D('',#302,#246,#247);
#227=AXIS2_PLACEMENT_3D('',#305,#249,#250);
#228=AXIS2_PLACEMENT_3D('',#306,#251,#252);
#229=AXIS2_PLACEMENT_3D('',#309,#254,#255);
#230=AXIS2_PLACEMENT_3D('',#310,#256,#257);
#231=AXIS2_PLACEMENT_3D('',#323,#264,#265);
#232=AXIS2_PLACEMENT_3D('',#329,#269,#270);
#233=AXIS2_PLACEMENT_3D('',#333,#273,#274);
#234=AXIS2_PLACEMENT_3D('',#337,#277,#278);
#235=AXIS2_PLACEMENT_3D('',#341,#281,#282);
#236=AXIS2_PLACEMENT_3D('',#345,#285,#286);
#237=AXIS2_PLACEMENT_3D('',#347,#288,#289);
#238=AXIS2_PLACEMENT_3D('',#349,#290,#291);
#239=AXIS2_PLACEMENT_3D('',#350,#292,#293);
#240=AXIS2_PLACEMENT_3D('',#353,#295,#296);
#241=AXIS2_PLACEMENT_3D('',#354,#297,#298);
#242=DIRECTION('axis',(0.,0.,1.));
#243=DIRECTION('refdir',(1.,0.,0.));
#244=DIRECTION('center_axis',(0.,0.,1.));
#245=DIRECTION('ref_axis',(1.,0.,0.));
#246=DIRECTION('center_axis',(0.,0.,1.));
#247=DIRECTION('ref_axis',(1.,0.,0.));
#248=DIRECTION('',(-0.707106781186547,8.65956056235493E-17,0.707106781186548));
#249=DIRECTION('center_axis',(0.,0.,-1.));
#250=DIRECTION('ref_axis',(1.,0.,0.));
#251=DIRECTION('center_axis',(0.,0.,-1.));
#252=DIRECTION('ref_axis',(1.,0.,0.));
#253=DIRECTION('',(0.,0.,1.));
#254=DIRECTION('center_axis',(0.,0.,1.));
#255=DIRECTION('ref_axis',(1.,0.,0.));
#256=DIRECTION('center_axis',(0.,0.,1.));
#257=DIRECTION('ref_axis',(1.,0.,0.));
#258=DIRECTION('',(0.5,-0.866025403784439,0.));
#259=DIRECTION('',(1.,-1.74814789671233E-16,0.));
#260=DIRECTION('',(0.5,0.866025403784439,0.));
#261=DIRECTION('',(-0.5,0.866025403784439,0.));
#262=DIRECTION('',(-1.,5.24444369013699E-16,0.));
#263=DIRECTION('',(-0.5,-0.866025403784438,0.));
#264=DIRECTION('center_axis',(-0.866025403784439,-0.5,0.));
#265=DIRECTION('ref_axis',(0.5,-0.866025403784439,0.));
#266=DIRECTION('',(0.,0.,1.));
#267=DIRECTION('',(0.5,-0.866025403784439,0.));
#268=DIRECTION('',(0.,0.,1.));
#269=DIRECTION('center_axis',(-0.866025403784438,0.5,0.));
#270=DIRECTION('ref_axis',(-0.5,-0.866025403784438,0.));
#271=DIRECTION('',(0.,0.,1.));
#272=DIRECTION('',(-0.5,-0.866025403784438,0.));
#273=DIRECTION('center_axis',(5.24444369013699E-16,1.,0.));
#274=DIRECTION('ref_axis',(-1.,5.24444369013699E-16,0.));
#275=DIRECTION('',(0.,0.,1.));
#276=DIRECTION('',(-1.,5.24444369013699E-16,0.));
#277=DIRECTION('center_axis',(0.866025403784439,0.5,0.));
#278=DIRECTION('ref_axis',(-0.5,0.866025403784439,0.));
#279=DIRECTION('',(0.,0.,1.));
#280=DIRECTION('',(-0.5,0.866025403784439,0.));
#281=DIRECTION('center_axis',(0.866025403784439,-0.5,0.));
#282=DIRECTION('ref_axis',(0.5,0.866025403784439,0.));
#283=DIRECTION('',(0.,0.,1.));
#284=DIRECTION('',(0.5,0.866025403784439,0.));
#285=DIRECTION('center_axis',(-1.74814789671233E-16,-1.,0.));
#286=DIRECTION('ref_axis',(1.,-1.74814789671233E-16,0.));
#287=DIRECTION('',(1.,-1.74814789671233E-16,0.));
#288=DIRECTION('center_axis',(0.,0.,-1.));
#289=DIRECTION('ref_axis',(1.,0.,0.));
#290=DIRECTION('center_axis',(0.,0.,-1.));
#291=DIRECTION('ref_axis',(1.,0.,0.));
#292=DIRECTION('center_axis',(0.,0.,-1.));
#293=DIRECTION('ref_axis',(1.,0.,0.));
#294=DIRECTION('',(0.,0.,1.));
#295=DIRECTION('center_axis',(0.,0.,-1.));
#296=DIRECTION('ref_axis',(1.,0.,0.));
#297=DIRECTION('center_axis',(0.,0.,1.));
#298=DIRECTION('ref_axis',(1.,0.,0.));
#299=CARTESIAN_POINT('',(0.,0.,0.));
#300=CARTESIAN_POINT('Origin',(0.,0.,-3.));
#301=CARTESIAN_POINT('',(-5.5,-6.73555739531044E-16,-3.5));
#302=CARTESIAN_POINT('Origin',(0.,0.,-3.5));
#303=CARTESIAN_POINT('',(-6.5,7.9602041944578E-16,-2.5));
#304=CARTESIAN_POINT('',(-6.,7.34788079488412E-16,-3.));
#305=CARTESIAN_POINT('Origin',(0.,0.,-2.5));
#306=CARTESIAN_POINT('Origin',(0.,0.,0.));
#307=CARTESIAN_POINT('',(-6.5,-7.9602041944578E-16,0.));
#308=CARTESIAN_POINT('',(-6.5,7.9602041944578E-16,0.));
#309=CARTESIAN_POINT('Origin',(0.,0.,0.));
#310=CARTESIAN_POINT('Origin',(0.,0.,-3.5));
#311=CARTESIAN_POINT('',(-3.17542648054294,1.25184297007985E-15,-3.5));
#312=CARTESIAN_POINT('',(-1.58771324027147,-2.75,-3.5));
#313=CARTESIAN_POINT('',(-2.77849817047507,-0.687499999999999,-3.5));
#314=CARTESIAN_POINT('',(1.58771324027147,-2.75,-3.5));
#315=CARTESIAN_POINT('',(-0.793856620135737,-2.75,-3.5));
#316=CARTESIAN_POINT('',(3.17542648054294,0.,-3.5));
#317=CARTESIAN_POINT('',(1.98464155033934,-2.0625,-3.5));
#318=CARTESIAN_POINT('',(1.58771324027147,2.75,-3.5));
#319=CARTESIAN_POINT('',(2.77849817047507,0.6875,-3.5));
#320=CARTESIAN_POINT('',(-1.58771324027147,2.75,-3.5));
#321=CARTESIAN_POINT('',(0.793856620135737,2.75,-3.5));
#322=CARTESIAN_POINT('',(-1.98464155033934,2.0625,-3.5));
#323=CARTESIAN_POINT('Origin',(-3.17542648054294,1.11022302462516E-15,-3.5));
#324=CARTESIAN_POINT('',(-3.17542648054294,1.25184297007985E-15,-1.));
#325=CARTESIAN_POINT('',(-3.17542648054294,1.25184297007985E-15,-3.5));
#326=CARTESIAN_POINT('',(-1.58771324027147,-2.75,-1.));
#327=CARTESIAN_POINT('',(-1.58771324027147,-2.75,-1.));
#328=CARTESIAN_POINT('',(-1.58771324027147,-2.75,-3.5));
#329=CARTESIAN_POINT('Origin',(-1.58771324027147,2.75,-3.5));
#330=CARTESIAN_POINT('',(-1.58771324027147,2.75,-1.));
#331=CARTESIAN_POINT('',(-1.58771324027147,2.75,-3.5));
#332=CARTESIAN_POINT('',(-3.17542648054294,1.25184297007985E-15,-1.));
#333=CARTESIAN_POINT('Origin',(1.58771324027147,2.75,-3.5));
#334=CARTESIAN_POINT('',(1.58771324027147,2.75,-1.));
#335=CARTESIAN_POINT('',(1.58771324027147,2.75,-3.5));
#336=CARTESIAN_POINT('',(-1.58771324027147,2.75,-1.));
#337=CARTESIAN_POINT('Origin',(3.17542648054294,0.,-3.5));
#338=CARTESIAN_POINT('',(3.17542648054294,0.,-1.));
#339=CARTESIAN_POINT('',(3.17542648054294,0.,-3.5));
#340=CARTESIAN_POINT('',(1.58771324027147,2.75,-1.));
#341=CARTESIAN_POINT('Origin',(1.58771324027147,-2.75,-3.5));
#342=CARTESIAN_POINT('',(1.58771324027147,-2.75,-1.));
#343=CARTESIAN_POINT('',(1.58771324027147,-2.75,-3.5));
#344=CARTESIAN_POINT('',(3.17542648054294,0.,-1.));
#345=CARTESIAN_POINT('Origin',(-1.58771324027147,-2.75,-3.5));
#346=CARTESIAN_POINT('',(1.58771324027147,-2.75,-1.));
#347=CARTESIAN_POINT('Origin',(0.,5.55111512312578E-16,-1.));
#348=CARTESIAN_POINT('',(-1.55,1.8982025386784E-16,-1.));
#349=CARTESIAN_POINT('Origin',(0.,0.,-1.));
#350=CARTESIAN_POINT('Origin',(0.,0.,0.));
#351=CARTESIAN_POINT('',(-1.55,-1.8982025386784E-16,0.));
#352=CARTESIAN_POINT('',(-1.55,1.8982025386784E-16,0.));
#353=CARTESIAN_POINT('Origin',(0.,0.,0.));
#354=CARTESIAN_POINT('Origin',(0.,0.,0.));
#355=UNCERTAINTY_MEASURE_WITH_UNIT(LENGTH_MEASURE(0.01),#359,
'DISTANCE_ACCURACY_VALUE',
'Maximum model space distance between geometric entities at asserted c
onnectivities');
#356=UNCERTAINTY_MEASURE_WITH_UNIT(LENGTH_MEASURE(0.01),#359,
'DISTANCE_ACCURACY_VALUE',
'Maximum model space distance between geometric entities at asserted c
onnectivities');
#357=(
GEOMETRIC_REPRESENTATION_CONTEXT(3)
GLOBAL_UNCERTAINTY_ASSIGNED_CONTEXT((#355))
GLOBAL_UNIT_ASSIGNED_CONTEXT((#359,#361,#362))
REPRESENTATION_CONTEXT('','3D')
);
#358=(
GEOMETRIC_REPRESENTATION_CONTEXT(3)
GLOBAL_UNCERTAINTY_ASSIGNED_CONTEXT((#356))
GLOBAL_UNIT_ASSIGNED_CONTEXT((#359,#361,#362))
REPRESENTATION_CONTEXT('','3D')
);
#359=(
LENGTH_UNIT()
NAMED_UNIT(*)
SI_UNIT(.MILLI.,.METRE.)
);
#360=(
LENGTH_UNIT()
NAMED_UNIT(*)
SI_UNIT($,.METRE.)
);
#361=(
NAMED_UNIT(*)
PLANE_ANGLE_UNIT()
SI_UNIT($,.RADIAN.)
);
#362=(
NAMED_UNIT(*)
SI_UNIT($,.STERADIAN.)
SOLID_ANGLE_UNIT()
);
#363=SHAPE_DEFINITION_REPRESENTATION(#364,#365);
#364=PRODUCT_DEFINITION_SHAPE('',$,#367);
#365=SHAPE_REPRESENTATION('',(#224),#357);
#366=PRODUCT_DEFINITION_CONTEXT('part definition',#371,'design');
#367=PRODUCT_DEFINITION('(Unsaved)','(Unsaved)',#368,#366);
#368=PRODUCT_DEFINITION_FORMATION('',$,#373);
#369=PRODUCT_RELATED_PRODUCT_CATEGORY('(Unsaved)','(Unsaved)',(#373));
#370=APPLICATION_PROTOCOL_DEFINITION('international standard',
'automotive_design',2009,#371);
#371=APPLICATION_CONTEXT(
'Core Data for Automotive Mechanical Design Process');
#372=PRODUCT_CONTEXT('part definition',#371,'mechanical');
#373=PRODUCT('(Unsaved)','(Unsaved)',$,(#372));
#374=PRESENTATION_STYLE_ASSIGNMENT((#375));
#375=SURFACE_STYLE_USAGE(.BOTH.,#376);
#376=SURFACE_SIDE_STYLE('',(#377));
#377=SURFACE_STYLE_FILL_AREA(#378);
#378=FILL_AREA_STYLE('ABS (White)',(#379));
#379=FILL_AREA_STYLE_COLOUR('ABS (White)',#380);
#380=COLOUR_RGB('ABS (White)',0.964705882352941,0.964705882352941,0.952941176470588);
ENDSEC;
END-ISO-10303-21;
