ISO-10303-21;
HEADER;
/* Generated by software containing ST-Developer
 * from STEP Tools, Inc. (www.steptools.com) 
 */

FILE_DESCRIPTION(
/* description */ (''),
/* implementation_level */ '2;1');

FILE_NAME(
/* name */ 'mini-xlr-plug-outer.step',
/* time_stamp */ '2026-05-08T11:17:38-06:00',
/* author */ (''),
/* organization */ (''),
/* preprocessor_version */ 'ST-DEVELOPER v20.1',
/* originating_system */ 'Autodesk Translation Framework v15.8.0.0',
/* authorisation */ '');

FILE_SCHEMA (('AUTOMOTIVE_DESIGN { 1 0 10303 214 3 1 1 }'));
ENDSEC;

DATA;
#10=MECHANICAL_DESIGN_GEOMETRIC_PRESENTATION_REPRESENTATION('',(#13),#195);
#11=SHAPE_REPRESENTATION_RELATIONSHIP('SRR','None',#202,#12);
#12=ADVANCED_BREP_SHAPE_REPRESENTATION('',(#14),#194);
#13=STYLED_ITEM('',(#211),#14);
#14=MANIFOLD_SOLID_BREP('Body1',#104);
#15=CYLINDRICAL_SURFACE('',#125,1.55);
#16=FACE_BOUND('',#31,.T.);
#17=FACE_BOUND('',#36,.T.);
#18=FACE_BOUND('',#38,.T.);
#19=PLANE('',#121);
#20=PLANE('',#130);
#21=PLANE('',#131);
#22=FACE_OUTER_BOUND('',#29,.T.);
#23=FACE_OUTER_BOUND('',#30,.T.);
#24=FACE_OUTER_BOUND('',#32,.T.);
#25=FACE_OUTER_BOUND('',#33,.T.);
#26=FACE_OUTER_BOUND('',#34,.T.);
#27=FACE_OUTER_BOUND('',#35,.T.);
#28=FACE_OUTER_BOUND('',#37,.T.);
#29=EDGE_LOOP('',(#72,#73,#74,#75));
#30=EDGE_LOOP('',(#76));
#31=EDGE_LOOP('',(#77));
#32=EDGE_LOOP('',(#78,#79,#80,#81));
#33=EDGE_LOOP('',(#82,#83,#84,#85));
#34=EDGE_LOOP('',(#86,#87,#88,#89));
#35=EDGE_LOOP('',(#90));
#36=EDGE_LOOP('',(#91));
#37=EDGE_LOOP('',(#92));
#38=EDGE_LOOP('',(#93));
#39=LINE('',#171,#43);
#40=LINE('',#178,#44);
#41=LINE('',#182,#45);
#42=LINE('',#188,#46);
#43=VECTOR('',#138,6.);
#44=VECTOR('',#147,2.3);
#45=VECTOR('',#152,1.55);
#46=VECTOR('',#159,5.4);
#47=CIRCLE('',#119,5.5);
#48=CIRCLE('',#120,6.5);
#49=CIRCLE('',#122,3.05);
#50=CIRCLE('',#124,1.55);
#51=CIRCLE('',#126,1.55);
#52=CIRCLE('',#128,5.13753400942223);
#53=CIRCLE('',#129,5.4);
#54=VERTEX_POINT('',#168);
#55=VERTEX_POINT('',#170);
#56=VERTEX_POINT('',#174);
#57=VERTEX_POINT('',#177);
#58=VERTEX_POINT('',#181);
#59=VERTEX_POINT('',#185);
#60=VERTEX_POINT('',#187);
#61=EDGE_CURVE('',#54,#54,#47,.T.);
#62=EDGE_CURVE('',#54,#55,#39,.T.);
#63=EDGE_CURVE('',#55,#55,#48,.T.);
#64=EDGE_CURVE('',#56,#56,#49,.T.);
#65=EDGE_CURVE('',#56,#57,#40,.T.);
#66=EDGE_CURVE('',#57,#57,#50,.T.);
#67=EDGE_CURVE('',#57,#58,#41,.T.);
#68=EDGE_CURVE('',#58,#58,#51,.T.);
#69=EDGE_CURVE('',#59,#59,#52,.F.);
#70=EDGE_CURVE('',#59,#60,#42,.T.);
#71=EDGE_CURVE('',#60,#60,#53,.F.);
#72=ORIENTED_EDGE('',*,*,#61,.T.);
#73=ORIENTED_EDGE('',*,*,#62,.T.);
#74=ORIENTED_EDGE('',*,*,#63,.T.);
#75=ORIENTED_EDGE('',*,*,#62,.F.);
#76=ORIENTED_EDGE('',*,*,#61,.F.);
#77=ORIENTED_EDGE('',*,*,#64,.F.);
#78=ORIENTED_EDGE('',*,*,#64,.T.);
#79=ORIENTED_EDGE('',*,*,#65,.T.);
#80=ORIENTED_EDGE('',*,*,#66,.T.);
#81=ORIENTED_EDGE('',*,*,#65,.F.);
#82=ORIENTED_EDGE('',*,*,#66,.F.);
#83=ORIENTED_EDGE('',*,*,#67,.T.);
#84=ORIENTED_EDGE('',*,*,#68,.T.);
#85=ORIENTED_EDGE('',*,*,#67,.F.);
#86=ORIENTED_EDGE('',*,*,#69,.F.);
#87=ORIENTED_EDGE('',*,*,#70,.T.);
#88=ORIENTED_EDGE('',*,*,#71,.T.);
#89=ORIENTED_EDGE('',*,*,#70,.F.);
#90=ORIENTED_EDGE('',*,*,#63,.F.);
#91=ORIENTED_EDGE('',*,*,#71,.F.);
#92=ORIENTED_EDGE('',*,*,#69,.T.);
#93=ORIENTED_EDGE('',*,*,#68,.F.);
#94=CONICAL_SURFACE('',#118,6.,0.785398163397448);
#95=CONICAL_SURFACE('',#123,2.3,0.785398163397448);
#96=CONICAL_SURFACE('',#127,5.4,0.0872664625997165);
#97=ADVANCED_FACE('',(#22),#94,.T.);
#98=ADVANCED_FACE('',(#23,#16),#19,.T.);
#99=ADVANCED_FACE('',(#24),#95,.F.);
#100=ADVANCED_FACE('',(#25),#15,.F.);
#101=ADVANCED_FACE('',(#26),#96,.T.);
#102=ADVANCED_FACE('',(#27,#17),#20,.F.);
#103=ADVANCED_FACE('',(#28,#18),#21,.F.);
#104=CLOSED_SHELL('',(#97,#98,#99,#100,#101,#102,#103));
#105=DERIVED_UNIT_ELEMENT(#107,1.);
#106=DERIVED_UNIT_ELEMENT(#197,-3.);
#107=(
MASS_UNIT()
NAMED_UNIT(*)
SI_UNIT(.KILO.,.GRAM.)
);
#108=DERIVED_UNIT((#105,#106));
#109=MEASURE_REPRESENTATION_ITEM('density measure',
POSITIVE_RATIO_MEASURE(1060.),#108);
#110=PROPERTY_DEFINITION_REPRESENTATION(#115,#112);
#111=PROPERTY_DEFINITION_REPRESENTATION(#116,#113);
#112=REPRESENTATION('material name',(#114),#194);
#113=REPRESENTATION('density',(#109),#194);
#114=DESCRIPTIVE_REPRESENTATION_ITEM('ABS Plastic','ABS Plastic');
#115=PROPERTY_DEFINITION('material property','material name',#204);
#116=PROPERTY_DEFINITION('material property','density of part',#204);
#117=AXIS2_PLACEMENT_3D('',#166,#132,#133);
#118=AXIS2_PLACEMENT_3D('',#167,#134,#135);
#119=AXIS2_PLACEMENT_3D('',#169,#136,#137);
#120=AXIS2_PLACEMENT_3D('',#172,#139,#140);
#121=AXIS2_PLACEMENT_3D('',#173,#141,#142);
#122=AXIS2_PLACEMENT_3D('',#175,#143,#144);
#123=AXIS2_PLACEMENT_3D('',#176,#145,#146);
#124=AXIS2_PLACEMENT_3D('',#179,#148,#149);
#125=AXIS2_PLACEMENT_3D('',#180,#150,#151);
#126=AXIS2_PLACEMENT_3D('',#183,#153,#154);
#127=AXIS2_PLACEMENT_3D('',#184,#155,#156);
#128=AXIS2_PLACEMENT_3D('',#186,#157,#158);
#129=AXIS2_PLACEMENT_3D('',#189,#160,#161);
#130=AXIS2_PLACEMENT_3D('',#190,#162,#163);
#131=AXIS2_PLACEMENT_3D('',#191,#164,#165);
#132=DIRECTION('axis',(0.,0.,1.));
#133=DIRECTION('refdir',(1.,0.,0.));
#134=DIRECTION('center_axis',(0.,0.,-1.));
#135=DIRECTION('ref_axis',(1.,0.,0.));
#136=DIRECTION('center_axis',(0.,0.,-1.));
#137=DIRECTION('ref_axis',(1.,0.,0.));
#138=DIRECTION('',(-0.707106781186547,-8.65956056235493E-17,-0.707106781186547));
#139=DIRECTION('center_axis',(0.,0.,1.));
#140=DIRECTION('ref_axis',(1.,0.,0.));
#141=DIRECTION('center_axis',(0.,0.,1.));
#142=DIRECTION('ref_axis',(1.,0.,0.));
#143=DIRECTION('center_axis',(0.,0.,1.));
#144=DIRECTION('ref_axis',(1.,0.,0.));
#145=DIRECTION('center_axis',(0.,0.,1.));
#146=DIRECTION('ref_axis',(1.,0.,0.));
#147=DIRECTION('',(0.707106781186547,8.65956056235493E-17,-0.707106781186548));
#148=DIRECTION('center_axis',(0.,0.,-1.));
#149=DIRECTION('ref_axis',(1.,0.,0.));
#150=DIRECTION('center_axis',(0.,0.,1.));
#151=DIRECTION('ref_axis',(1.,0.,0.));
#152=DIRECTION('',(0.,0.,-1.));
#153=DIRECTION('center_axis',(0.,0.,-1.));
#154=DIRECTION('ref_axis',(1.,0.,0.));
#155=DIRECTION('center_axis',(0.,0.,1.));
#156=DIRECTION('ref_axis',(1.,0.,0.));
#157=DIRECTION('center_axis',(0.,0.,1.));
#158=DIRECTION('ref_axis',(1.,0.,0.));
#159=DIRECTION('',(-0.0871557427476582,-1.0673500138323E-17,0.996194698091745));
#160=DIRECTION('center_axis',(0.,0.,1.));
#161=DIRECTION('ref_axis',(1.,0.,0.));
#162=DIRECTION('center_axis',(0.,0.,1.));
#163=DIRECTION('ref_axis',(1.,0.,0.));
#164=DIRECTION('center_axis',(0.,0.,1.));
#165=DIRECTION('ref_axis',(1.,0.,0.));
#166=CARTESIAN_POINT('',(0.,0.,0.));
#167=CARTESIAN_POINT('Origin',(0.,0.,3.5));
#168=CARTESIAN_POINT('',(-5.5,6.73555739531044E-16,4.));
#169=CARTESIAN_POINT('Origin',(0.,0.,4.));
#170=CARTESIAN_POINT('',(-6.5,-7.9602041944578E-16,3.));
#171=CARTESIAN_POINT('',(-6.,-7.34788079488412E-16,3.5));
#172=CARTESIAN_POINT('Origin',(0.,0.,3.));
#173=CARTESIAN_POINT('Origin',(0.,0.,4.));
#174=CARTESIAN_POINT('',(-3.05,-3.73517273739943E-16,4.));
#175=CARTESIAN_POINT('Origin',(0.,0.,4.));
#176=CARTESIAN_POINT('Origin',(0.,0.,3.25));
#177=CARTESIAN_POINT('',(-1.55,1.8982025386784E-16,2.5));
#178=CARTESIAN_POINT('',(-2.3,-2.81668763803891E-16,3.25));
#179=CARTESIAN_POINT('Origin',(0.,0.,2.5));
#180=CARTESIAN_POINT('Origin',(0.,0.,0.));
#181=CARTESIAN_POINT('',(-1.55,-1.8982025386784E-16,0.));
#182=CARTESIAN_POINT('',(-1.55,-1.8982025386784E-16,0.));
#183=CARTESIAN_POINT('Origin',(0.,0.,0.));
#184=CARTESIAN_POINT('Origin',(0.,0.,3.));
#185=CARTESIAN_POINT('',(-5.13753400942223,-6.2916645801496E-16,0.));
#186=CARTESIAN_POINT('Origin',(0.,0.,0.));
#187=CARTESIAN_POINT('',(-5.4,-6.61309271539571E-16,3.));
#188=CARTESIAN_POINT('',(-5.4,-6.61309271539571E-16,3.));
#189=CARTESIAN_POINT('Origin',(0.,0.,3.));
#190=CARTESIAN_POINT('Origin',(0.,0.,3.));
#191=CARTESIAN_POINT('Origin',(0.,0.,0.));
#192=UNCERTAINTY_MEASURE_WITH_UNIT(LENGTH_MEASURE(0.01),#196,
'DISTANCE_ACCURACY_VALUE',
'Maximum model space distance between geometric entities at asserted c
onnectivities');
#193=UNCERTAINTY_MEASURE_WITH_UNIT(LENGTH_MEASURE(0.01),#196,
'DISTANCE_ACCURACY_VALUE',
'Maximum model space distance between geometric entities at asserted c
onnectivities');
#194=(
GEOMETRIC_REPRESENTATION_CONTEXT(3)
GLOBAL_UNCERTAINTY_ASSIGNED_CONTEXT((#192))
GLOBAL_UNIT_ASSIGNED_CONTEXT((#196,#198,#199))
REPRESENTATION_CONTEXT('','3D')
);
#195=(
GEOMETRIC_REPRESENTATION_CONTEXT(3)
GLOBAL_UNCERTAINTY_ASSIGNED_CONTEXT((#193))
GLOBAL_UNIT_ASSIGNED_CONTEXT((#196,#198,#199))
REPRESENTATION_CONTEXT('','3D')
);
#196=(
LENGTH_UNIT()
NAMED_UNIT(*)
SI_UNIT(.MILLI.,.METRE.)
);
#197=(
LENGTH_UNIT()
NAMED_UNIT(*)
SI_UNIT($,.METRE.)
);
#198=(
NAMED_UNIT(*)
PLANE_ANGLE_UNIT()
SI_UNIT($,.RADIAN.)
);
#199=(
NAMED_UNIT(*)
SI_UNIT($,.STERADIAN.)
SOLID_ANGLE_UNIT()
);
#200=SHAPE_DEFINITION_REPRESENTATION(#201,#202);
#201=PRODUCT_DEFINITION_SHAPE('',$,#204);
#202=SHAPE_REPRESENTATION('',(#117),#194);
#203=PRODUCT_DEFINITION_CONTEXT('part definition',#208,'design');
#204=PRODUCT_DEFINITION('(Unsaved)','(Unsaved)',#205,#203);
#205=PRODUCT_DEFINITION_FORMATION('',$,#210);
#206=PRODUCT_RELATED_PRODUCT_CATEGORY('(Unsaved)','(Unsaved)',(#210));
#207=APPLICATION_PROTOCOL_DEFINITION('international standard',
'automotive_design',2009,#208);
#208=APPLICATION_CONTEXT(
'Core Data for Automotive Mechanical Design Process');
#209=PRODUCT_CONTEXT('part definition',#208,'mechanical');
#210=PRODUCT('(Unsaved)','(Unsaved)',$,(#209));
#211=PRESENTATION_STYLE_ASSIGNMENT((#212));
#212=SURFACE_STYLE_USAGE(.BOTH.,#213);
#213=SURFACE_SIDE_STYLE('',(#214));
#214=SURFACE_STYLE_FILL_AREA(#215);
#215=FILL_AREA_STYLE('ABS (White)',(#216));
#216=FILL_AREA_STYLE_COLOUR('ABS (White)',#217);
#217=COLOUR_RGB('ABS (White)',0.964705882352941,0.964705882352941,0.952941176470588);
ENDSEC;
END-ISO-10303-21;
