G04*
G04 #@! TF.GenerationSoftware,Altium Limited,Altium Designer,21.9.2 (33)*
G04*
G04 Layer_Physical_Order=1*
G04 Layer_Color=255*
%FSLAX25Y25*%
%MOIN*%
G70*
G04*
G04 #@! TF.SameCoordinates,AF823FE0-973A-453D-8A6F-17937DE8E2E7*
G04*
G04*
G04 #@! TF.FilePolarity,Positive*
G04*
G01*
G75*
%ADD10C,0.00787*%
%ADD13C,0.01000*%
%ADD16C,0.03150*%
%ADD17R,0.09843X0.06693*%
%ADD18R,0.11063X0.07559*%
%ADD19R,0.02992X0.09016*%
G04:AMPARAMS|DCode=20|XSize=72.84mil|YSize=53.15mil|CornerRadius=6.64mil|HoleSize=0mil|Usage=FLASHONLY|Rotation=180.000|XOffset=0mil|YOffset=0mil|HoleType=Round|Shape=RoundedRectangle|*
%AMROUNDEDRECTD20*
21,1,0.07284,0.03986,0,0,180.0*
21,1,0.05955,0.05315,0,0,180.0*
1,1,0.01329,-0.02977,0.01993*
1,1,0.01329,0.02977,0.01993*
1,1,0.01329,0.02977,-0.01993*
1,1,0.01329,-0.02977,-0.01993*
%
%ADD20ROUNDEDRECTD20*%
%ADD21R,0.11417X0.05118*%
%ADD22R,0.09843X0.06693*%
%ADD23R,0.03622X0.05433*%
%ADD24R,0.01200X0.03600*%
G04:AMPARAMS|DCode=25|XSize=47.64mil|YSize=22.84mil|CornerRadius=2.85mil|HoleSize=0mil|Usage=FLASHONLY|Rotation=180.000|XOffset=0mil|YOffset=0mil|HoleType=Round|Shape=RoundedRectangle|*
%AMROUNDEDRECTD25*
21,1,0.04764,0.01713,0,0,180.0*
21,1,0.04193,0.02284,0,0,180.0*
1,1,0.00571,-0.02097,0.00856*
1,1,0.00571,0.02097,0.00856*
1,1,0.00571,0.02097,-0.00856*
1,1,0.00571,-0.02097,-0.00856*
%
%ADD25ROUNDEDRECTD25*%
G04:AMPARAMS|DCode=26|XSize=35.43mil|YSize=27.56mil|CornerRadius=3.45mil|HoleSize=0mil|Usage=FLASHONLY|Rotation=180.000|XOffset=0mil|YOffset=0mil|HoleType=Round|Shape=RoundedRectangle|*
%AMROUNDEDRECTD26*
21,1,0.03543,0.02067,0,0,180.0*
21,1,0.02854,0.02756,0,0,180.0*
1,1,0.00689,-0.01427,0.01034*
1,1,0.00689,0.01427,0.01034*
1,1,0.00689,0.01427,-0.01034*
1,1,0.00689,-0.01427,-0.01034*
%
%ADD26ROUNDEDRECTD26*%
%ADD27R,0.03543X0.02756*%
%ADD28R,0.04800X0.02200*%
%ADD29R,0.02756X0.03543*%
G04:AMPARAMS|DCode=30|XSize=35.43mil|YSize=27.56mil|CornerRadius=3.45mil|HoleSize=0mil|Usage=FLASHONLY|Rotation=90.000|XOffset=0mil|YOffset=0mil|HoleType=Round|Shape=RoundedRectangle|*
%AMROUNDEDRECTD30*
21,1,0.03543,0.02067,0,0,90.0*
21,1,0.02854,0.02756,0,0,90.0*
1,1,0.00689,0.01034,0.01427*
1,1,0.00689,0.01034,-0.01427*
1,1,0.00689,-0.01034,-0.01427*
1,1,0.00689,-0.01034,0.01427*
%
%ADD30ROUNDEDRECTD30*%
G04:AMPARAMS|DCode=31|XSize=35.43mil|YSize=27.56mil|CornerRadius=6.89mil|HoleSize=0mil|Usage=FLASHONLY|Rotation=180.000|XOffset=0mil|YOffset=0mil|HoleType=Round|Shape=RoundedRectangle|*
%AMROUNDEDRECTD31*
21,1,0.03543,0.01378,0,0,180.0*
21,1,0.02165,0.02756,0,0,180.0*
1,1,0.01378,-0.01083,0.00689*
1,1,0.01378,0.01083,0.00689*
1,1,0.01378,0.01083,-0.00689*
1,1,0.01378,-0.01083,-0.00689*
%
%ADD31ROUNDEDRECTD31*%
G04:AMPARAMS|DCode=32|XSize=35.43mil|YSize=27.56mil|CornerRadius=6.89mil|HoleSize=0mil|Usage=FLASHONLY|Rotation=90.000|XOffset=0mil|YOffset=0mil|HoleType=Round|Shape=RoundedRectangle|*
%AMROUNDEDRECTD32*
21,1,0.03543,0.01378,0,0,90.0*
21,1,0.02165,0.02756,0,0,90.0*
1,1,0.01378,0.00689,0.01083*
1,1,0.01378,0.00689,-0.01083*
1,1,0.01378,-0.00689,-0.01083*
1,1,0.01378,-0.00689,0.01083*
%
%ADD32ROUNDEDRECTD32*%
G04:AMPARAMS|DCode=33|XSize=72.84mil|YSize=53.15mil|CornerRadius=6.64mil|HoleSize=0mil|Usage=FLASHONLY|Rotation=90.000|XOffset=0mil|YOffset=0mil|HoleType=Round|Shape=RoundedRectangle|*
%AMROUNDEDRECTD33*
21,1,0.07284,0.03986,0,0,90.0*
21,1,0.05955,0.05315,0,0,90.0*
1,1,0.01329,0.01993,0.02977*
1,1,0.01329,0.01993,-0.02977*
1,1,0.01329,-0.01993,-0.02977*
1,1,0.01329,-0.01993,0.02977*
%
%ADD33ROUNDEDRECTD33*%
%ADD53C,0.03937*%
%ADD66C,0.06693*%
%ADD67C,0.07087*%
%ADD74R,0.28347X0.24410*%
%ADD75R,0.28347X0.24410*%
%ADD76R,0.29528X0.28406*%
%ADD77C,0.03937*%
%ADD78C,0.00811*%
%ADD79C,0.01575*%
%ADD80C,0.05906*%
%ADD81C,0.01968*%
%ADD82C,0.02756*%
%ADD83C,0.02362*%
%ADD84R,0.39764X0.33071*%
%ADD85C,0.05315*%
%ADD86C,0.09449*%
%ADD87O,0.14961X0.07087*%
%ADD88O,0.07087X0.13780*%
%ADD89O,0.15748X0.07087*%
%ADD90C,0.05400*%
%ADD91O,0.05512X0.06000*%
%ADD92C,0.23622*%
%ADD93R,0.06299X0.06299*%
%ADD94C,0.06299*%
%ADD95R,0.06299X0.06299*%
%ADD96O,0.07874X0.09449*%
%ADD97C,0.05512*%
%ADD98C,0.02402*%
%ADD99C,0.02362*%
%ADD100C,0.05000*%
G36*
X35616Y199330D02*
X35646Y199245D01*
X35697Y199170D01*
X35768Y199105D01*
X35859Y199050D01*
X35970Y199005D01*
X36102Y198970D01*
X36254Y198945D01*
X36426Y198930D01*
X36618Y198925D01*
Y197925D01*
X36426Y197920D01*
X36254Y197905D01*
X36102Y197880D01*
X35970Y197845D01*
X35859Y197800D01*
X35768Y197745D01*
X35697Y197680D01*
X35646Y197605D01*
X35616Y197520D01*
X35606Y197425D01*
Y199425D01*
X35616Y199330D01*
D02*
G37*
G36*
X33196Y192043D02*
X33251Y191759D01*
X33315Y191547D01*
X33677D01*
X33582Y191537D01*
X33497Y191507D01*
X33422Y191457D01*
X33365Y191396D01*
X33474Y191118D01*
X33641Y190761D01*
X33845Y190380D01*
X34364Y189544D01*
X35032Y188612D01*
X30323D01*
X30675Y189091D01*
X31510Y190380D01*
X31714Y190761D01*
X31880Y191118D01*
X32010Y191450D01*
X32103Y191759D01*
X32159Y192043D01*
X32177Y192303D01*
X33177D01*
X33196Y192043D01*
D02*
G37*
G36*
X52155Y188721D02*
X52292Y188611D01*
X52460Y188514D01*
X52661Y188430D01*
X52893Y188359D01*
X53157Y188300D01*
X53452Y188255D01*
X53780Y188223D01*
X54529Y188197D01*
X53698Y184260D01*
X53300Y184256D01*
X51806Y184150D01*
X51607Y184111D01*
X51440Y184065D01*
X51306Y184014D01*
X51206Y183956D01*
X52049Y188845D01*
X52155Y188721D01*
D02*
G37*
G36*
X22103Y178000D02*
X22325Y175101D01*
X22427Y174635D01*
X22547Y174273D01*
X22686Y174014D01*
X22843Y173859D01*
X23020Y173807D01*
X13964Y173795D01*
X14387Y173847D01*
X14765Y174003D01*
X15098Y174263D01*
X15387Y174626D01*
X15632Y175093D01*
X15832Y175664D01*
X15988Y176338D01*
X16099Y177116D01*
X16166Y177998D01*
X16188Y178983D01*
X22093D01*
X22103Y178000D01*
D02*
G37*
G36*
X41768Y174743D02*
X40969Y173926D01*
X39237Y171915D01*
X38881Y171391D01*
X38635Y170940D01*
X38499Y170563D01*
X38474Y170259D01*
X38560Y170028D01*
X38756Y169871D01*
X30608Y173795D01*
X30904Y173737D01*
X31289Y173806D01*
X31764Y174002D01*
X32328Y174325D01*
X32982Y174774D01*
X33725Y175349D01*
X35480Y176881D01*
X37592Y178919D01*
X41768Y174743D01*
D02*
G37*
G36*
X55387Y175589D02*
X52849Y172559D01*
X52567Y172831D01*
X52050Y173268D01*
X51816Y173433D01*
X51597Y173562D01*
X51394Y173655D01*
X51207Y173713D01*
X51036Y173735D01*
X50880Y173722D01*
X50740Y173672D01*
X52356Y178305D01*
X55387Y175589D01*
D02*
G37*
G36*
X36026Y150186D02*
X36049Y149815D01*
X38767D01*
X38246Y149756D01*
X37780Y149579D01*
X37368Y149284D01*
X37011Y148870D01*
X36710Y148339D01*
X36463Y147689D01*
X36271Y146922D01*
X36133Y146036D01*
X36051Y145032D01*
X36024Y143910D01*
X30118D01*
X30091Y145032D01*
X30008Y146036D01*
X29871Y146922D01*
X29679Y147689D01*
X29432Y148339D01*
X29130Y148870D01*
X28774Y149284D01*
X28362Y149579D01*
X27896Y149756D01*
X27374Y149815D01*
X30103D01*
X30118Y150787D01*
X36024D01*
X36026Y150186D01*
D02*
G37*
G36*
X22498Y149756D02*
X22032Y149579D01*
X21620Y149284D01*
X21263Y148870D01*
X20962Y148339D01*
X20715Y147689D01*
X20523Y146922D01*
X20385Y146036D01*
X20303Y145032D01*
X20276Y143910D01*
X14370D01*
X14343Y145032D01*
X14260Y146036D01*
X14123Y146922D01*
X13931Y147689D01*
X13684Y148339D01*
X13382Y148870D01*
X13026Y149284D01*
X12614Y149579D01*
X12148Y149756D01*
X11626Y149815D01*
X23020D01*
X22498Y149756D01*
D02*
G37*
G36*
X221638Y140945D02*
X212083D01*
X201120Y151908D01*
X200216Y152602D01*
X199162Y153038D01*
X198031Y153187D01*
X81337D01*
X68148Y166376D01*
Y177953D01*
X67999Y179083D01*
X67562Y180137D01*
X66868Y181041D01*
X58593Y189317D01*
X57688Y190011D01*
X56635Y190447D01*
X55504Y190596D01*
X52944D01*
X52925Y190621D01*
X51814Y191473D01*
X51034Y191797D01*
X50937Y192222D01*
X51011Y192914D01*
X51793Y193365D01*
X52599Y194172D01*
X53169Y195159D01*
X53465Y196261D01*
Y197401D01*
X53169Y198502D01*
X52599Y199490D01*
X51793Y200296D01*
X50805Y200866D01*
X49704Y201161D01*
X48564D01*
X47462Y200866D01*
X46475Y200296D01*
X45912Y199734D01*
X45892Y199738D01*
X36417D01*
Y200591D01*
X31299D01*
X31299Y196260D01*
X30118Y196260D01*
Y193604D01*
X29889Y193050D01*
X29790Y192303D01*
Y192192D01*
X26988D01*
X25601Y192009D01*
X24308Y191473D01*
X23198Y190621D01*
X23198Y190621D01*
X15350Y182774D01*
X14498Y181664D01*
X13962Y180371D01*
X13780Y178983D01*
X13780Y178983D01*
Y175787D01*
X9646D01*
Y166732D01*
X15709D01*
X16329Y166475D01*
X17717Y166293D01*
X19140D01*
X20528Y166475D01*
X21148Y166732D01*
X25000D01*
Y166732D01*
X25394D01*
Y166732D01*
X33819D01*
X34439Y166475D01*
X35827Y166293D01*
X37214Y166475D01*
X37834Y166732D01*
X40748D01*
Y169646D01*
X41005Y170266D01*
X41052Y170621D01*
X41900Y171470D01*
X48814D01*
X50202Y171653D01*
X50315Y171699D01*
X52719Y169296D01*
Y161024D01*
X52867Y159893D01*
X53304Y158840D01*
X53998Y157935D01*
X70042Y141891D01*
X69651Y140945D01*
X55201D01*
X54891Y141969D01*
X55448Y142341D01*
X56380Y143273D01*
X57112Y144369D01*
X57617Y145587D01*
X57874Y146880D01*
Y148199D01*
X57617Y149492D01*
X57112Y150710D01*
X56380Y151806D01*
X55448Y152738D01*
X54351Y153471D01*
X53133Y153975D01*
X51840Y154232D01*
X50522D01*
X49229Y153975D01*
X48011Y153471D01*
X46915Y152738D01*
X45982Y151806D01*
X45250Y150710D01*
X44745Y149492D01*
X44488Y148199D01*
Y146880D01*
X44745Y145587D01*
X45250Y144369D01*
X45982Y143273D01*
X46915Y142341D01*
X47472Y141969D01*
X47161Y140945D01*
X40571D01*
Y147835D01*
X40748D01*
Y156890D01*
X25394D01*
Y156890D01*
X25000D01*
Y156890D01*
X9646D01*
Y147835D01*
X9823D01*
Y140945D01*
X1385D01*
X1385Y274206D01*
X221638D01*
Y140945D01*
D02*
G37*
G36*
X78155Y131155D02*
X78202Y130555D01*
X78243Y130296D01*
X78296Y130065D01*
X78361Y129862D01*
X78437Y129687D01*
X78525Y129539D01*
X78625Y129419D01*
X78736Y129327D01*
X75595D01*
X75706Y129419D01*
X75806Y129539D01*
X75894Y129687D01*
X75970Y129862D01*
X76034Y130065D01*
X76087Y130296D01*
X76128Y130555D01*
X76158Y130841D01*
X76181Y131497D01*
X78150D01*
X78155Y131155D01*
D02*
G37*
G36*
X73037D02*
X73084Y130555D01*
X73125Y130296D01*
X73178Y130065D01*
X73243Y129862D01*
X73319Y129687D01*
X73407Y129539D01*
X73507Y129419D01*
X73618Y129327D01*
X70477D01*
X70588Y129419D01*
X70688Y129539D01*
X70776Y129687D01*
X70852Y129862D01*
X70916Y130065D01*
X70969Y130296D01*
X71010Y130555D01*
X71039Y130841D01*
X71063Y131497D01*
X73032D01*
X73037Y131155D01*
D02*
G37*
G36*
X67919D02*
X67966Y130555D01*
X68007Y130296D01*
X68060Y130065D01*
X68125Y129862D01*
X68201Y129687D01*
X68289Y129539D01*
X68388Y129419D01*
X68500Y129327D01*
X65358D01*
X65470Y129419D01*
X65570Y129539D01*
X65658Y129687D01*
X65734Y129862D01*
X65798Y130065D01*
X65851Y130296D01*
X65892Y130555D01*
X65921Y130841D01*
X65945Y131497D01*
X67913D01*
X67919Y131155D01*
D02*
G37*
G36*
X62801D02*
X62848Y130555D01*
X62889Y130296D01*
X62942Y130065D01*
X63006Y129862D01*
X63083Y129687D01*
X63171Y129539D01*
X63270Y129419D01*
X63382Y129327D01*
X60240D01*
X60352Y129419D01*
X60451Y129539D01*
X60539Y129687D01*
X60616Y129862D01*
X60680Y130065D01*
X60733Y130296D01*
X60774Y130555D01*
X60803Y130841D01*
X60827Y131497D01*
X62795D01*
X62801Y131155D01*
D02*
G37*
G36*
X223127Y128442D02*
X222908Y128723D01*
X222646Y128975D01*
X222340Y129197D01*
X221992Y129389D01*
X221600Y129551D01*
X221165Y129685D01*
X220687Y129788D01*
X220166Y129862D01*
X219602Y129906D01*
X218995Y129921D01*
Y133858D01*
X219602Y133873D01*
X220166Y133917D01*
X220687Y133991D01*
X221165Y134095D01*
X221600Y134228D01*
X221992Y134391D01*
X222340Y134583D01*
X222646Y134805D01*
X222908Y135056D01*
X223127Y135337D01*
Y128442D01*
D02*
G37*
G36*
X36640Y125834D02*
X36658Y125597D01*
X38590Y125595D01*
X38215Y125536D01*
X37879Y125358D01*
X37582Y125063D01*
X37326Y124650D01*
X37108Y124118D01*
X36943Y123515D01*
X37022Y123177D01*
X37251Y122527D01*
X37531Y121996D01*
X37862Y121582D01*
X38244Y121287D01*
X38677Y121110D01*
X39161Y121051D01*
X36665D01*
X36614Y119689D01*
X30709D01*
X30679Y120813D01*
X30658Y121051D01*
X29343D01*
X29602Y121110D01*
X29834Y121287D01*
X30039Y121582D01*
X30217Y121996D01*
X30367Y122527D01*
X30418Y122797D01*
X30236Y123475D01*
X29970Y124126D01*
X29646Y124658D01*
X29262Y125073D01*
X28819Y125369D01*
X28317Y125547D01*
X27756Y125607D01*
X30682Y125603D01*
X30695Y125834D01*
X30709Y126956D01*
X36614D01*
X36640Y125834D01*
D02*
G37*
G36*
X20892D02*
X20910Y125597D01*
X22842Y125595D01*
X22467Y125536D01*
X22131Y125358D01*
X21835Y125063D01*
X21578Y124650D01*
X21360Y124118D01*
X21195Y123515D01*
X21274Y123177D01*
X21503Y122527D01*
X21783Y121996D01*
X22114Y121582D01*
X22496Y121287D01*
X22929Y121110D01*
X23413Y121051D01*
X20917D01*
X20866Y119689D01*
X15303D01*
X21946Y114394D01*
X21446Y114685D01*
X20871Y114818D01*
X20222Y114793D01*
X19498Y114611D01*
X18700Y114271D01*
X17828Y113773D01*
X16881Y113118D01*
X15860Y112305D01*
X14764Y111334D01*
X13595Y110206D01*
X9419Y114382D01*
X10212Y115200D01*
X11548Y116736D01*
X12091Y117454D01*
X12551Y118137D01*
X12926Y118787D01*
X13219Y119404D01*
X13428Y119986D01*
X13553Y120536D01*
X13595Y121051D01*
X14953Y119968D01*
X14931Y120813D01*
X14910Y121051D01*
X13595D01*
X13854Y121110D01*
X14086Y121287D01*
X14291Y121582D01*
X14469Y121996D01*
X14619Y122527D01*
X14670Y122797D01*
X14488Y123475D01*
X14222Y124126D01*
X13898Y124658D01*
X13514Y125073D01*
X13071Y125369D01*
X12569Y125547D01*
X12008Y125607D01*
X14934Y125603D01*
X14947Y125834D01*
X14961Y126956D01*
X20866D01*
X20892Y125834D01*
D02*
G37*
G36*
X223343Y125245D02*
X222944Y119390D01*
X222929Y119764D01*
X222829Y120098D01*
X222645Y120394D01*
X222377Y120650D01*
X222024Y120866D01*
X221587Y121043D01*
X221066Y121181D01*
X220460Y121280D01*
X219770Y121339D01*
X218995Y121358D01*
X219660Y125296D01*
X223343Y125245D01*
D02*
G37*
G36*
X78546Y121685D02*
X78886D01*
X78821Y121561D01*
X78763Y121396D01*
X78711Y121190D01*
X78667Y120941D01*
X78622Y120535D01*
X78674Y119811D01*
X78721Y119571D01*
X78775Y119369D01*
X78837Y119204D01*
X78906Y119077D01*
X78550D01*
X78543Y118576D01*
X75787D01*
X75784Y119074D01*
X75784Y119077D01*
X75425D01*
X75494Y119204D01*
X75555Y119369D01*
X75610Y119571D01*
X75657Y119811D01*
X75709Y120239D01*
X75664Y120941D01*
X75620Y121190D01*
X75568Y121396D01*
X75510Y121561D01*
X75445Y121685D01*
X75782D01*
X75787Y122042D01*
X78543D01*
X78546Y121685D01*
D02*
G37*
G36*
X73428D02*
X73768D01*
X73703Y121561D01*
X73644Y121396D01*
X73593Y121190D01*
X73549Y120941D01*
X73504Y120535D01*
X73556Y119811D01*
X73603Y119571D01*
X73657Y119369D01*
X73719Y119204D01*
X73788Y119077D01*
X73432D01*
X73425Y118576D01*
X70669D01*
X70666Y119074D01*
X70666Y119077D01*
X70307D01*
X70376Y119204D01*
X70437Y119369D01*
X70492Y119571D01*
X70539Y119811D01*
X70591Y120239D01*
X70546Y120941D01*
X70502Y121190D01*
X70450Y121396D01*
X70392Y121561D01*
X70327Y121685D01*
X70663D01*
X70669Y122042D01*
X73425D01*
X73428Y121685D01*
D02*
G37*
G36*
X68310D02*
X68650D01*
X68585Y121561D01*
X68526Y121396D01*
X68475Y121190D01*
X68430Y120941D01*
X68386Y120535D01*
X68438Y119811D01*
X68485Y119571D01*
X68539Y119369D01*
X68601Y119204D01*
X68669Y119077D01*
X68314D01*
X68307Y118576D01*
X65551D01*
X65548Y119074D01*
X65548Y119077D01*
X65189D01*
X65258Y119204D01*
X65319Y119369D01*
X65374Y119571D01*
X65421Y119811D01*
X65473Y120239D01*
X65428Y120941D01*
X65383Y121190D01*
X65332Y121396D01*
X65274Y121561D01*
X65209Y121685D01*
X65545D01*
X65551Y122042D01*
X68307D01*
X68310Y121685D01*
D02*
G37*
G36*
X63192D02*
X63531D01*
X63466Y121561D01*
X63408Y121396D01*
X63357Y121190D01*
X63312Y120941D01*
X63267Y120535D01*
X63319Y119811D01*
X63367Y119571D01*
X63421Y119369D01*
X63482Y119204D01*
X63551Y119077D01*
X63196D01*
X63189Y118576D01*
X60433D01*
X60430Y119074D01*
X60430Y119077D01*
X60071D01*
X60140Y119204D01*
X60201Y119369D01*
X60255Y119571D01*
X60303Y119811D01*
X60355Y120239D01*
X60310Y120941D01*
X60265Y121190D01*
X60214Y121396D01*
X60156Y121561D01*
X60091Y121685D01*
X60427D01*
X60433Y122042D01*
X63189D01*
X63192Y121685D01*
D02*
G37*
G36*
X227283Y118013D02*
X227198Y117982D01*
X227123Y117932D01*
X227058Y117861D01*
X227003Y117770D01*
X226958Y117659D01*
X226923Y117527D01*
X226898Y117375D01*
X226883Y117203D01*
X226878Y117011D01*
X225878D01*
X225873Y117203D01*
X225858Y117375D01*
X225833Y117527D01*
X225798Y117659D01*
X225753Y117770D01*
X225698Y117861D01*
X225633Y117932D01*
X225558Y117982D01*
X225473Y118013D01*
X225378Y118023D01*
X227378D01*
X227283Y118013D01*
D02*
G37*
G36*
X197627Y114983D02*
X197441Y115015D01*
X197260Y115029D01*
X197084Y115025D01*
X196914Y115003D01*
X196748Y114963D01*
X196587Y114905D01*
X196431Y114830D01*
X196281Y114736D01*
X196135Y114625D01*
X195994Y114496D01*
X195421Y115069D01*
X195539Y115200D01*
X195637Y115335D01*
X195714Y115474D01*
X195771Y115617D01*
X195808Y115765D01*
X195825Y115916D01*
X195820Y116072D01*
X195796Y116233D01*
X195751Y116398D01*
X195686Y116566D01*
X197627Y114983D01*
D02*
G37*
G36*
X180899Y116976D02*
X180883Y116695D01*
X180885Y116431D01*
X180907Y116182D01*
X180948Y115948D01*
X181008Y115731D01*
X181087Y115530D01*
X181185Y115344D01*
X181302Y115174D01*
X181439Y115020D01*
X180866Y114447D01*
X180712Y114583D01*
X180542Y114701D01*
X180356Y114799D01*
X180155Y114878D01*
X179937Y114938D01*
X179704Y114979D01*
X179455Y115001D01*
X179190Y115003D01*
X178910Y114987D01*
X178613Y114951D01*
X180935Y117272D01*
X180899Y116976D01*
D02*
G37*
G36*
X168181Y114921D02*
X167769Y114919D01*
X167034Y114874D01*
X166712Y114831D01*
X166419Y114775D01*
X166155Y114706D01*
X165921Y114623D01*
X165717Y114526D01*
X165543Y114417D01*
X165398Y114294D01*
X164825Y114867D01*
X164948Y115012D01*
X165058Y115186D01*
X165154Y115390D01*
X165237Y115624D01*
X165306Y115887D01*
X165362Y116180D01*
X165405Y116503D01*
X165450Y117238D01*
X165453Y117650D01*
X168181Y114921D01*
D02*
G37*
G36*
X190135Y115651D02*
X189508Y114711D01*
X189355Y114439D01*
X189133Y113956D01*
X189063Y113746D01*
X189022Y113556D01*
X189008Y113386D01*
X188197Y113268D01*
X188180Y113470D01*
X188132Y113676D01*
X188051Y113885D01*
X187938Y114099D01*
X187793Y114315D01*
X187615Y114536D01*
X187405Y114760D01*
X187162Y114988D01*
X186887Y115219D01*
X186580Y115454D01*
X190399Y116005D01*
X190135Y115651D01*
D02*
G37*
G36*
X70490Y112996D02*
X70664Y112992D01*
Y111024D01*
X70490Y111022D01*
Y110661D01*
X70371Y110730D01*
X70230Y110792D01*
X70067Y110846D01*
X69882Y110893D01*
X69675Y110933D01*
X69473Y110957D01*
X69302Y110933D01*
X68910Y110846D01*
X68747Y110792D01*
X68605Y110730D01*
X68549Y110698D01*
X68466Y110632D01*
X68350Y110506D01*
X68248Y110357D01*
X68159Y110185D01*
X68084Y109990D01*
X68023Y109771D01*
X67975Y109530D01*
X67941Y109265D01*
X67937Y109212D01*
X67953Y109032D01*
X68002Y108735D01*
X68071Y108477D01*
X68160Y108259D01*
X68268Y108081D01*
X68396Y107943D01*
X68543Y107844D01*
X68711Y107784D01*
X68898Y107764D01*
X64961D01*
X65148Y107784D01*
X65315Y107844D01*
X65463Y107943D01*
X65591Y108081D01*
X65699Y108259D01*
X65787Y108477D01*
X65856Y108735D01*
X65905Y109032D01*
X65918Y109177D01*
X65883Y109530D01*
X65836Y109771D01*
X65774Y109990D01*
X65699Y110185D01*
X65610Y110357D01*
X65508Y110506D01*
X65392Y110632D01*
X65309Y110698D01*
X65253Y110730D01*
X65112Y110792D01*
X64948Y110846D01*
X64763Y110893D01*
X64557Y110933D01*
X64355Y110957D01*
X64183Y110933D01*
X63792Y110846D01*
X63629Y110792D01*
X63487Y110730D01*
X63368Y110661D01*
Y111020D01*
X63195Y111024D01*
Y112992D01*
X63368Y112994D01*
Y113355D01*
X63487Y113286D01*
X63629Y113224D01*
X63792Y113170D01*
X63977Y113123D01*
X64183Y113083D01*
X64385Y113058D01*
X64557Y113083D01*
X64948Y113170D01*
X65112Y113224D01*
X65253Y113286D01*
X65372Y113355D01*
Y112996D01*
X65546Y112992D01*
Y111024D01*
X65372Y111022D01*
Y110735D01*
X68486D01*
Y111020D01*
X68313Y111024D01*
Y112992D01*
X68486Y112994D01*
Y113355D01*
X68605Y113286D01*
X68747Y113224D01*
X68910Y113170D01*
X69095Y113123D01*
X69302Y113083D01*
X69503Y113058D01*
X69675Y113083D01*
X70067Y113170D01*
X70230Y113224D01*
X70371Y113286D01*
X70490Y113355D01*
Y112996D01*
D02*
G37*
G36*
X222024Y114050D02*
X221969Y113977D01*
X221920Y113899D01*
X221878Y113814D01*
X221842Y113723D01*
X221812Y113627D01*
X221789Y113524D01*
X221773Y113416D01*
X221771Y113389D01*
X221780Y113283D01*
X221805Y113133D01*
X221840Y113003D01*
X221885Y112893D01*
X221940Y112803D01*
X222005Y112733D01*
X222080Y112683D01*
X222165Y112653D01*
X222260Y112643D01*
X220260D01*
X220355Y112653D01*
X220440Y112683D01*
X220515Y112733D01*
X220580Y112803D01*
X220635Y112893D01*
X220680Y113003D01*
X220715Y113133D01*
X220740Y113283D01*
X220749Y113389D01*
X220747Y113416D01*
X220730Y113524D01*
X220708Y113627D01*
X220678Y113723D01*
X220642Y113814D01*
X220600Y113899D01*
X220551Y113977D01*
X220495Y114050D01*
X220433Y114117D01*
X222087D01*
X222024Y114050D01*
D02*
G37*
G36*
X73724Y113286D02*
X73865Y113224D01*
X74028Y113170D01*
X74213Y113123D01*
X74420Y113083D01*
X74622Y113058D01*
X74793Y113083D01*
X75185Y113170D01*
X75348Y113224D01*
X75489Y113286D01*
X75608Y113355D01*
Y112996D01*
X75782Y112992D01*
Y111024D01*
X75608Y111022D01*
Y110661D01*
X75489Y110730D01*
X75348Y110792D01*
X75185Y110846D01*
X75000Y110893D01*
X74793Y110933D01*
X74591Y110957D01*
X74420Y110933D01*
X74028Y110846D01*
X73865Y110792D01*
X73724Y110730D01*
X73604Y110661D01*
Y111020D01*
X73431Y111024D01*
Y112992D01*
X73604Y112994D01*
Y113355D01*
X73724Y113286D01*
D02*
G37*
G36*
X173629Y111034D02*
X173643Y110905D01*
X173666Y110788D01*
X173698Y110682D01*
X173740Y110588D01*
X173790Y110506D01*
X173850Y110434D01*
X173919Y110375D01*
X173997Y110327D01*
X174084Y110290D01*
X172354Y110297D01*
X172441Y110333D01*
X172519Y110380D01*
X172588Y110439D01*
X172648Y110510D01*
X172699Y110592D01*
X172740Y110685D01*
X172772Y110790D01*
X172795Y110907D01*
X172809Y111035D01*
X172814Y111174D01*
X173625D01*
X173629Y111034D01*
D02*
G37*
G36*
X45425Y114755D02*
X41622Y110206D01*
X40388Y111399D01*
X38185Y113267D01*
X37217Y113943D01*
X36338Y114447D01*
X35547Y114778D01*
X34845Y114937D01*
X34231Y114925D01*
X33707Y114739D01*
X33270Y114382D01*
X39161Y121051D01*
X45425Y114755D01*
D02*
G37*
G36*
X183629Y111867D02*
X183675Y111666D01*
X183751Y111454D01*
X183858Y111230D01*
X183995Y110995D01*
X184162Y110748D01*
X184360Y110489D01*
X184848Y109938D01*
X185137Y109645D01*
X181279D01*
X181569Y109938D01*
X182056Y110489D01*
X182254Y110748D01*
X182422Y110995D01*
X182559Y111230D01*
X182666Y111454D01*
X182742Y111666D01*
X182788Y111867D01*
X182803Y112057D01*
X183614D01*
X183629Y111867D01*
D02*
G37*
G36*
X266566Y109425D02*
X266301Y109635D01*
X266044Y109802D01*
X265795Y109927D01*
X265553Y110010D01*
X265318Y110050D01*
X265091Y110047D01*
X264871Y110002D01*
X264659Y109915D01*
X264454Y109785D01*
X264257Y109612D01*
X263794Y110564D01*
X263944Y110722D01*
X264290Y111131D01*
X264926Y111976D01*
X265988Y113537D01*
X266566Y109425D01*
D02*
G37*
G36*
X194252Y111881D02*
X194265Y111730D01*
X194304Y111552D01*
X194368Y111346D01*
X194458Y111113D01*
X194716Y110566D01*
X195077Y109910D01*
X195541Y109145D01*
X191787Y110038D01*
X192102Y110238D01*
X192383Y110438D01*
X192631Y110640D01*
X192846Y110842D01*
X193028Y111046D01*
X193176Y111250D01*
X193292Y111455D01*
X193375Y111661D01*
X193424Y111869D01*
X193441Y112077D01*
X194252Y111881D01*
D02*
G37*
G36*
X262703Y108059D02*
X262505Y107854D01*
X262194Y107486D01*
X262081Y107324D01*
X261996Y107175D01*
X261939Y107041D01*
X261911Y106920D01*
Y106814D01*
X261939Y106722D01*
X261996Y106645D01*
X260582Y108059D01*
X260659Y108002D01*
X260751Y107974D01*
X260857D01*
X260978Y108002D01*
X261112Y108059D01*
X261261Y108144D01*
X261423Y108257D01*
X261600Y108398D01*
X261996Y108766D01*
X262703Y108059D01*
D02*
G37*
G36*
X360820Y1385D02*
X236221Y1385D01*
Y9530D01*
X236240Y9532D01*
X237102Y9889D01*
X237842Y10457D01*
X238410Y11197D01*
X238767Y12059D01*
X238889Y12984D01*
Y13473D01*
X238767Y14397D01*
X238410Y15259D01*
X237842Y16000D01*
X237828Y16010D01*
X238095Y16798D01*
X239614D01*
X239932Y16480D01*
Y14665D01*
X240046Y14089D01*
X240373Y13601D01*
X240861Y13275D01*
X241437Y13160D01*
X242815D01*
X243391Y13275D01*
X243879Y13601D01*
X244206Y14089D01*
X244320Y14665D01*
Y16831D01*
X244206Y17407D01*
X243879Y17895D01*
X243391Y18221D01*
X242999Y18299D01*
Y19102D01*
X243391Y19180D01*
X243879Y19507D01*
X244206Y19995D01*
X244320Y20571D01*
Y22736D01*
X244206Y23312D01*
X243879Y23801D01*
X243623Y23972D01*
X243595Y24059D01*
Y24760D01*
X243623Y24847D01*
X243879Y25018D01*
X244206Y25507D01*
X244320Y26083D01*
Y28248D01*
X244206Y28824D01*
X243879Y29312D01*
X243391Y29639D01*
X242815Y29753D01*
X241864D01*
Y33272D01*
X242651Y33599D01*
X245953Y30297D01*
X245884Y29312D01*
X245558Y28824D01*
X245444Y28248D01*
Y26083D01*
X245558Y25507D01*
X245884Y25018D01*
X246141Y24847D01*
X246169Y24760D01*
Y24059D01*
X246141Y23972D01*
X245884Y23801D01*
X245558Y23312D01*
X245444Y22736D01*
Y20571D01*
X245558Y19995D01*
X245884Y19507D01*
X246373Y19180D01*
X246765Y19102D01*
Y18299D01*
X246373Y18221D01*
X245884Y17895D01*
X245558Y17407D01*
X245444Y16831D01*
Y14665D01*
X245558Y14089D01*
X245884Y13601D01*
X246373Y13275D01*
X246949Y13160D01*
X248327D01*
X248903Y13275D01*
X249391Y13601D01*
X249717Y14089D01*
X249832Y14665D01*
Y16633D01*
X252652Y19452D01*
X252652Y19452D01*
X252913Y19843D01*
X253004Y20304D01*
Y31812D01*
X253004Y31812D01*
X252913Y32273D01*
X252652Y32664D01*
X246404Y38911D01*
Y41463D01*
X248283D01*
Y43563D01*
Y45663D01*
X248103D01*
X247682Y46450D01*
X247832Y46676D01*
X251970D01*
X251971Y46676D01*
Y46676D01*
X251971Y46676D01*
X252685Y46499D01*
X252821Y46363D01*
X253545Y46063D01*
X254328D01*
X255052Y46363D01*
X255605Y46916D01*
X255905Y47640D01*
Y48423D01*
X256159Y48803D01*
X259736D01*
Y52650D01*
X254315D01*
Y50000D01*
X253545D01*
X252821Y49700D01*
X252758Y49637D01*
X251971Y49835D01*
Y50450D01*
X245596D01*
Y49141D01*
X245592Y49138D01*
X244804Y49559D01*
Y53558D01*
X245383Y54061D01*
X248283D01*
Y56161D01*
Y58261D01*
X247987D01*
X247585Y59049D01*
X247748Y59274D01*
X251971D01*
Y59274D01*
X252283Y59483D01*
X252364Y59449D01*
X253148D01*
X253871Y59749D01*
X254425Y60302D01*
X254724Y61026D01*
Y61809D01*
X254425Y62532D01*
X253871Y63086D01*
X253148Y63386D01*
X252364D01*
X251641Y63086D01*
X251604Y63049D01*
X245596D01*
Y60977D01*
X243664Y59045D01*
X242936Y59347D01*
Y67510D01*
X244656Y69229D01*
X245383Y68928D01*
Y66660D01*
X248283D01*
Y68760D01*
X248783D01*
Y69260D01*
X252183D01*
Y70021D01*
X252971Y70547D01*
X253152Y70472D01*
X253935D01*
X254658Y70772D01*
X255212Y71326D01*
X255512Y72049D01*
Y72833D01*
X255212Y73556D01*
X254658Y74110D01*
X253935Y74409D01*
X253152D01*
X252852Y74285D01*
X252651Y74325D01*
X252151Y75045D01*
X252283Y75572D01*
X255384D01*
X255669Y75080D01*
X256182Y74566D01*
X256810Y74204D01*
X257511Y74016D01*
X258237D01*
X258938Y74204D01*
X259566Y74566D01*
X260079Y75080D01*
X260442Y75708D01*
X260630Y76409D01*
Y77135D01*
X260442Y77835D01*
X260234Y78195D01*
X260268Y78245D01*
X260368Y78747D01*
Y84252D01*
X260268Y84754D01*
X259983Y85180D01*
X258730Y86433D01*
X258735Y87269D01*
X259266Y87795D01*
X259840D01*
X260564Y88095D01*
X260817Y88348D01*
X261447Y87864D01*
X261305Y87619D01*
X261024Y86568D01*
Y85479D01*
X261305Y84428D01*
X261850Y83485D01*
X262619Y82716D01*
X263562Y82171D01*
X264613Y81890D01*
X265702D01*
X266753Y82171D01*
X267696Y82716D01*
X268465Y83485D01*
X269010Y84428D01*
X269291Y85479D01*
Y86568D01*
X269010Y87619D01*
X268465Y88562D01*
X267696Y89332D01*
X266753Y89876D01*
X265702Y90158D01*
X264613D01*
X263562Y89876D01*
X262619Y89332D01*
X261994Y88706D01*
X261326Y89152D01*
X261417Y89372D01*
Y90155D01*
X261118Y90879D01*
X260564Y91433D01*
X259840Y91732D01*
X259057Y91732D01*
X258858Y91865D01*
X258858Y92263D01*
Y94162D01*
X259586Y94463D01*
X261670Y92379D01*
X262096Y92094D01*
X262598Y91995D01*
X268354D01*
X271291Y89057D01*
X271317Y88963D01*
X271352Y88733D01*
X271365Y88466D01*
X271352Y88165D01*
X271324Y87924D01*
X271148Y87619D01*
X270866Y86568D01*
Y85479D01*
X271148Y84428D01*
X271692Y83485D01*
X272462Y82716D01*
X273404Y82171D01*
X274456Y81890D01*
X275544D01*
X276596Y82171D01*
X277538Y82716D01*
X278308Y83485D01*
X278852Y84428D01*
X279134Y85479D01*
Y86568D01*
X278852Y87619D01*
X278308Y88562D01*
X277538Y89332D01*
X276596Y89876D01*
X275544Y90158D01*
X274964D01*
X274921Y90169D01*
X274078Y90427D01*
X273427Y90670D01*
X273362Y90699D01*
X269826Y94235D01*
X269400Y94520D01*
X268898Y94620D01*
X268509D01*
X268182Y95407D01*
X268465Y95690D01*
X269010Y96633D01*
X269291Y97684D01*
Y98773D01*
X269010Y99824D01*
X268465Y100767D01*
X267696Y101536D01*
X266753Y102081D01*
X265702Y102362D01*
X264733D01*
X264596Y102392D01*
X264299Y102479D01*
X264022Y102577D01*
X263775Y102682D01*
X263297Y103161D01*
X263130Y103353D01*
X262795Y103924D01*
X262795Y104367D01*
Y107002D01*
X265200Y109406D01*
X265267Y109407D01*
X265394Y109385D01*
X265524Y109341D01*
X266205Y108661D01*
X267102Y108142D01*
X268104Y107874D01*
X269140D01*
X270142Y108142D01*
X271039Y108661D01*
X271772Y109394D01*
X272291Y110291D01*
X272559Y111293D01*
Y112329D01*
X272291Y113331D01*
X271772Y114228D01*
X271039Y114961D01*
X270142Y115480D01*
X269140Y115748D01*
X268104D01*
X267102Y115480D01*
X266205Y114961D01*
X265472Y114228D01*
X264953Y113331D01*
X264877Y113047D01*
X264403Y112350D01*
X264319Y112239D01*
X260939Y108858D01*
X258465D01*
X258465Y104247D01*
X257874Y103890D01*
X257283Y104247D01*
Y108858D01*
X252953D01*
Y107868D01*
X251971D01*
Y108442D01*
X245596D01*
Y104668D01*
X251971D01*
Y104668D01*
X252758Y104881D01*
X252953Y104686D01*
X252953Y103915D01*
X252589Y103336D01*
X252437Y103167D01*
X250114Y100844D01*
X245596D01*
Y97069D01*
X251971D01*
Y98988D01*
X253013Y100030D01*
X253740Y99729D01*
Y97047D01*
X256880D01*
X257214Y96629D01*
X256876Y95866D01*
X253740D01*
Y95269D01*
X251971D01*
Y95844D01*
X245596D01*
Y92069D01*
X251971D01*
Y92644D01*
X253740D01*
Y91535D01*
X257323D01*
X257525Y91245D01*
X257726Y90748D01*
X257480Y90155D01*
Y89943D01*
X256739Y89202D01*
X254823D01*
X254247Y89088D01*
X253758Y88761D01*
X253432Y88273D01*
X253317Y87697D01*
Y86319D01*
X253432Y85743D01*
X253758Y85255D01*
X254247Y84928D01*
X254823Y84814D01*
X256280D01*
X256533Y84478D01*
X256140Y83690D01*
X254823D01*
X254247Y83576D01*
X253758Y83249D01*
X253432Y82761D01*
X253428Y82740D01*
X251971D01*
Y83246D01*
X245596D01*
Y79471D01*
X251971D01*
Y80115D01*
X253510D01*
X253758Y79743D01*
X254247Y79416D01*
X254823Y79302D01*
X255218Y78514D01*
X255008Y78197D01*
X246569D01*
X246067Y78097D01*
X245641Y77812D01*
X239174Y71346D01*
X238890Y70920D01*
X238790Y70417D01*
Y44977D01*
X237008Y43195D01*
X236221Y43521D01*
Y77135D01*
Y116328D01*
X236981Y116977D01*
X237008Y116979D01*
X238476D01*
Y121653D01*
Y126328D01*
X237449D01*
X237236Y126751D01*
X237433Y127118D01*
X237560Y127215D01*
X238476D01*
Y131890D01*
Y136564D01*
X236983D01*
X236221Y137215D01*
X236221Y226233D01*
Y274206D01*
X360820D01*
X360820Y1385D01*
D02*
G37*
G36*
X32492Y106512D02*
X33452Y106496D01*
Y100591D01*
X32492Y100587D01*
Y100209D01*
X32433Y100281D01*
X32256Y100346D01*
X31961Y100403D01*
X31547Y100453D01*
X30906Y100495D01*
X27606Y100281D01*
X27547Y100209D01*
Y100575D01*
X26587Y100591D01*
Y106496D01*
X27547Y106499D01*
Y106878D01*
X27606Y106805D01*
X27783Y106740D01*
X28078Y106683D01*
X28492Y106633D01*
X29134Y106592D01*
X32433Y106805D01*
X32492Y106878D01*
Y106512D01*
D02*
G37*
G36*
X160752Y106428D02*
X160699Y106515D01*
X160635Y106594D01*
X160560Y106663D01*
X160473Y106723D01*
X160374Y106774D01*
X160265Y106815D01*
X160143Y106847D01*
X160011Y106870D01*
X159867Y106884D01*
X159711Y106889D01*
Y107700D01*
X159844Y107705D01*
X159965Y107720D01*
X160074Y107745D01*
X160171Y107780D01*
X160256Y107826D01*
X160329Y107881D01*
X160391Y107946D01*
X160440Y108022D01*
X160477Y108107D01*
X160503Y108203D01*
X160752Y106428D01*
D02*
G37*
G36*
X253764Y105555D02*
X253754Y105650D01*
X253724Y105735D01*
X253673Y105810D01*
X253602Y105875D01*
X253511Y105930D01*
X253400Y105975D01*
X253268Y106010D01*
X253116Y106035D01*
X252944Y106050D01*
X252752Y106055D01*
Y107055D01*
X252944Y107060D01*
X253116Y107075D01*
X253268Y107100D01*
X253400Y107135D01*
X253511Y107180D01*
X253602Y107235D01*
X253673Y107300D01*
X253724Y107375D01*
X253754Y107460D01*
X253764Y107555D01*
Y105555D01*
D02*
G37*
G36*
X251169Y107460D02*
X251200Y107375D01*
X251250Y107300D01*
X251321Y107235D01*
X251412Y107180D01*
X251523Y107135D01*
X251655Y107100D01*
X251807Y107075D01*
X251979Y107060D01*
X252171Y107055D01*
Y106055D01*
X251979Y106050D01*
X251807Y106035D01*
X251655Y106010D01*
X251523Y105975D01*
X251412Y105930D01*
X251321Y105875D01*
X251250Y105810D01*
X251200Y105735D01*
X251169Y105650D01*
X251159Y105555D01*
Y107555D01*
X251169Y107460D01*
D02*
G37*
G36*
X212919Y102917D02*
X212999Y102877D01*
X213083Y102843D01*
X213173Y102813D01*
X213268Y102787D01*
X213367Y102766D01*
X213472Y102750D01*
X213697Y102732D01*
X213817Y102729D01*
X214070Y101729D01*
X213949Y101725D01*
X213836Y101714D01*
X213730Y101695D01*
X213632Y101668D01*
X213542Y101634D01*
X213460Y101592D01*
X213386Y101542D01*
X213319Y101485D01*
X213261Y101421D01*
X213210Y101348D01*
X212845Y102961D01*
X212919Y102917D01*
D02*
G37*
G36*
X251878Y100045D02*
X251680Y99840D01*
X251369Y99472D01*
X251256Y99309D01*
X251171Y99161D01*
X251115Y99027D01*
X251086Y98906D01*
Y98800D01*
X251115Y98708D01*
X251171Y98630D01*
X249757Y100045D01*
X249835Y99988D01*
X249927Y99960D01*
X250033D01*
X250153Y99988D01*
X250287Y100045D01*
X250436Y100129D01*
X250598Y100243D01*
X250775Y100384D01*
X251171Y100752D01*
X251878Y100045D01*
D02*
G37*
G36*
X262783Y102544D02*
X262998Y102384D01*
X263237Y102237D01*
X263500Y102101D01*
X263789Y101978D01*
X264101Y101867D01*
X264438Y101769D01*
X265186Y101608D01*
X265597Y101546D01*
X262060Y99494D01*
X262180Y99818D01*
X262270Y100126D01*
X262329Y100418D01*
X262358Y100694D01*
X262355Y100953D01*
X262323Y101197D01*
X262259Y101424D01*
X262165Y101635D01*
X262041Y101830D01*
X261885Y102009D01*
X262593Y102716D01*
X262783Y102544D01*
D02*
G37*
G36*
X219900Y100554D02*
X220268Y100243D01*
X220430Y100129D01*
X220579Y100045D01*
X220713Y99988D01*
X220833Y99960D01*
X220940D01*
X221031Y99988D01*
X221109Y100045D01*
X219695Y98630D01*
X219752Y98708D01*
X219780Y98800D01*
Y98906D01*
X219752Y99027D01*
X219695Y99161D01*
X219610Y99309D01*
X219497Y99472D01*
X219356Y99649D01*
X218988Y100045D01*
X219695Y100752D01*
X219900Y100554D01*
D02*
G37*
G36*
X257992Y99184D02*
X257964Y99093D01*
X257966Y98988D01*
X257995Y98868D01*
X258053Y98734D01*
X258139Y98585D01*
X258253Y98422D01*
X258396Y98245D01*
X258766Y97847D01*
X258059Y97140D01*
X257853Y97339D01*
X257484Y97652D01*
X257321Y97767D01*
X257172Y97853D01*
X257038Y97910D01*
X256918Y97940D01*
X256812Y97941D01*
X256721Y97914D01*
X256645Y97859D01*
X258047Y99261D01*
X257992Y99184D01*
D02*
G37*
G36*
X215389Y96664D02*
X215331Y96738D01*
X215256Y96781D01*
X215164Y96793D01*
X215055Y96775D01*
X214930Y96726D01*
X214788Y96647D01*
X214629Y96536D01*
X214453Y96396D01*
X214052Y96022D01*
X213357Y96742D01*
X213597Y96988D01*
X213984Y97431D01*
X214132Y97628D01*
X214250Y97808D01*
X214337Y97972D01*
X214394Y98119D01*
X214420Y98249D01*
X214416Y98363D01*
X214381Y98460D01*
X215389Y96664D01*
D02*
G37*
G36*
X217886Y97463D02*
X217886Y97426D01*
X217903Y97377D01*
X217935Y97315D01*
X217985Y97242D01*
X218050Y97157D01*
X218229Y96951D01*
X218474Y96698D01*
X217767Y95991D01*
X217619Y96136D01*
X217158Y96545D01*
X217075Y96603D01*
X217005Y96645D01*
X216948Y96669D01*
X216904Y96675D01*
X216874Y96664D01*
X217903Y97489D01*
X217886Y97463D01*
D02*
G37*
G36*
X138016Y95642D02*
X137995Y95583D01*
X137977Y95485D01*
X137961Y95347D01*
X137936Y94953D01*
X137917Y93693D01*
X135948D01*
X135940Y94067D01*
X135913Y94402D01*
X135869Y94697D01*
X135808Y94953D01*
X135729Y95170D01*
X135633Y95347D01*
X135519Y95485D01*
X135387Y95583D01*
X135238Y95642D01*
X135071Y95662D01*
X138039D01*
X138016Y95642D01*
D02*
G37*
G36*
X122944D02*
X122859Y95583D01*
X122784Y95485D01*
X122719Y95347D01*
X122664Y95170D01*
X122619Y94953D01*
X122584Y94697D01*
X122544Y94067D01*
X122539Y93693D01*
X120571D01*
X120566Y94067D01*
X120491Y94953D01*
X120446Y95170D01*
X120391Y95347D01*
X120326Y95485D01*
X120251Y95583D01*
X120166Y95642D01*
X120071Y95662D01*
X123039D01*
X122944Y95642D01*
D02*
G37*
G36*
X107910D02*
X107794Y95583D01*
X107692Y95485D01*
X107604Y95347D01*
X107529Y95170D01*
X107468Y94953D01*
X107420Y94697D01*
X107386Y94402D01*
X107366Y94067D01*
X107359Y93693D01*
X105390D01*
X105387Y94067D01*
X105310Y95170D01*
X105275Y95347D01*
X105234Y95485D01*
X105186Y95583D01*
X105132Y95642D01*
X105071Y95662D01*
X108039D01*
X107910Y95642D01*
D02*
G37*
G36*
X92964D02*
X92896Y95583D01*
X92836Y95485D01*
X92785Y95347D01*
X92741Y95170D01*
X92705Y94953D01*
X92677Y94697D01*
X92645Y94067D01*
X92641Y93693D01*
X90673D01*
X90667Y94067D01*
X90619Y94697D01*
X90576Y94953D01*
X90522Y95170D01*
X90456Y95347D01*
X90378Y95485D01*
X90288Y95583D01*
X90185Y95642D01*
X90071Y95662D01*
X93039D01*
X92964Y95642D01*
D02*
G37*
G36*
X48586Y111635D02*
X52558Y108288D01*
X53658Y107563D01*
X54646Y107033D01*
X55522Y106698D01*
X56286Y106559D01*
X56938Y106615D01*
X57478Y106866D01*
X48240Y100209D01*
X58059D01*
X57687Y100150D01*
X57354Y99973D01*
X57061Y99677D01*
X56807Y99264D01*
X56591Y98733D01*
X56415Y98083D01*
X56278Y97315D01*
X56244Y97001D01*
X56278Y96583D01*
X56415Y95815D01*
X56591Y95165D01*
X56807Y94634D01*
X57061Y94220D01*
X57354Y93925D01*
X57687Y93748D01*
X58059Y93689D01*
X48240D01*
X48612Y93748D01*
X48945Y93925D01*
X49238Y94220D01*
X49492Y94634D01*
X49708Y95165D01*
X49884Y95815D01*
X50021Y96583D01*
X50055Y96896D01*
X50021Y97315D01*
X49884Y98083D01*
X49708Y98733D01*
X49492Y99264D01*
X49238Y99677D01*
X48945Y99973D01*
X48612Y100150D01*
X48240Y100209D01*
X48199Y100893D01*
X48073Y101592D01*
X47864Y102308D01*
X47572Y103040D01*
X47196Y103787D01*
X46737Y104551D01*
X46194Y105330D01*
X45568Y106125D01*
X44065Y107764D01*
X47038Y113142D01*
X48586Y111635D01*
D02*
G37*
G36*
X11353Y100150D02*
X10953Y99973D01*
X10600Y99677D01*
X10295Y99264D01*
X10036Y98733D01*
X9825Y98083D01*
X9660Y97315D01*
X9619Y97001D01*
X9660Y96583D01*
X9825Y95815D01*
X10036Y95165D01*
X10295Y94634D01*
X10600Y94220D01*
X10953Y93925D01*
X11353Y93748D01*
X11799Y93689D01*
X1980D01*
X2277Y93748D01*
X2543Y93925D01*
X2778Y94220D01*
X2981Y94634D01*
X3153Y95165D01*
X3293Y95815D01*
X3403Y96583D01*
X3414Y96713D01*
X3293Y98083D01*
X3153Y98733D01*
X2981Y99264D01*
X2778Y99677D01*
X2543Y99973D01*
X2277Y100150D01*
X1980Y100209D01*
X11799D01*
X11353Y100150D01*
D02*
G37*
G36*
X32492Y93511D02*
X33452Y93504D01*
Y87598D01*
X32492Y87594D01*
Y87020D01*
X32433Y87130D01*
X32256Y87228D01*
X31961Y87315D01*
X31547Y87390D01*
X31016Y87454D01*
X30610Y87480D01*
X28078Y87315D01*
X27783Y87228D01*
X27606Y87130D01*
X27547Y87020D01*
Y87582D01*
X26587Y87598D01*
Y93504D01*
X27547Y93534D01*
Y93689D01*
X27606Y93654D01*
X27783Y93622D01*
X28078Y93594D01*
X28710Y93570D01*
X32492Y93689D01*
Y93511D01*
D02*
G37*
G36*
X254552Y92957D02*
X254541Y93052D01*
X254511Y93137D01*
X254461Y93212D01*
X254390Y93277D01*
X254299Y93332D01*
X254187Y93377D01*
X254056Y93412D01*
X253904Y93437D01*
X253732Y93452D01*
X253540Y93457D01*
Y94457D01*
X253732Y94462D01*
X253904Y94477D01*
X254056Y94502D01*
X254187Y94537D01*
X254299Y94582D01*
X254390Y94637D01*
X254461Y94702D01*
X254511Y94777D01*
X254541Y94862D01*
X254552Y94957D01*
Y92957D01*
D02*
G37*
G36*
X251169Y94862D02*
X251200Y94777D01*
X251250Y94702D01*
X251321Y94637D01*
X251412Y94582D01*
X251523Y94537D01*
X251655Y94502D01*
X251807Y94477D01*
X251979Y94462D01*
X252171Y94457D01*
Y93457D01*
X251979Y93452D01*
X251807Y93437D01*
X251655Y93412D01*
X251523Y93377D01*
X251412Y93332D01*
X251321Y93277D01*
X251250Y93212D01*
X251200Y93137D01*
X251169Y93052D01*
X251159Y92957D01*
Y94957D01*
X251169Y94862D01*
D02*
G37*
G36*
X220661Y92881D02*
X220604Y92956D01*
X220529Y92999D01*
X220434Y93009D01*
X220321Y92986D01*
X220189Y92930D01*
X220038Y92842D01*
X219869Y92721D01*
X219680Y92567D01*
X219247Y92162D01*
X218828Y92711D01*
Y91950D01*
X218640Y91946D01*
X218324Y91913D01*
X218195Y91885D01*
X218086Y91848D01*
X217996Y91803D01*
X217926Y91751D01*
X217875Y91690D01*
X217844Y91621D01*
X217832Y91543D01*
X217872Y93360D01*
X217880Y93282D01*
X217908Y93212D01*
X217954Y93151D01*
X218021Y93098D01*
X218107Y93052D01*
X218212Y93015D01*
X218337Y92987D01*
X218481Y92966D01*
X218642Y92954D01*
X218634Y92964D01*
X218881Y93217D01*
X219434Y93875D01*
X219557Y94060D01*
X219649Y94228D01*
X219710Y94380D01*
X219740Y94514D01*
X219739Y94631D01*
X219707Y94731D01*
X220661Y92881D01*
D02*
G37*
G36*
X259231Y88603D02*
X259142Y88614D01*
X259054Y88615D01*
X258965Y88606D01*
X258876Y88586D01*
X258788Y88555D01*
X258699Y88514D01*
X258611Y88463D01*
X258523Y88401D01*
X258435Y88329D01*
X258361Y88260D01*
X258191Y88083D01*
X257884Y87720D01*
X257771Y87559D01*
X257685Y87411D01*
X257627Y87276D01*
X257596Y87155D01*
X257592Y87046D01*
X257608Y86984D01*
X257666Y87043D01*
X257612Y86967D01*
X257616Y86952D01*
X257666Y86871D01*
X257604Y86943D01*
X257584Y86875D01*
X257585Y86770D01*
X257615Y86650D01*
X257672Y86515D01*
X257758Y86367D01*
X257873Y86204D01*
X258015Y86027D01*
X258385Y85629D01*
X257678Y84922D01*
X257472Y85121D01*
X257103Y85434D01*
X256940Y85549D01*
X256791Y85635D01*
X256657Y85692D01*
X256538Y85722D01*
X256432Y85723D01*
X256341Y85696D01*
X256264Y85641D01*
X257587Y86963D01*
X256366Y88375D01*
X256438Y88315D01*
X256526Y88284D01*
X256628Y88282D01*
X256745Y88309D01*
X256878Y88365D01*
X257025Y88450D01*
X257188Y88564D01*
X257366Y88707D01*
X257767Y89080D01*
X257916Y88887D01*
X257779Y89092D01*
X257862Y89179D01*
X258006Y89352D01*
X258067Y89439D01*
X258121Y89525D01*
X258168Y89612D01*
X258208Y89698D01*
X258241Y89785D01*
X258266Y89872D01*
X258284Y89958D01*
X259231Y88603D01*
D02*
G37*
G36*
X272493Y90441D02*
X272676Y90322D01*
X272906Y90200D01*
X273182Y90076D01*
X273872Y89819D01*
X274745Y89551D01*
X275803Y89272D01*
X271768Y86891D01*
X271873Y87325D01*
X271948Y87733D01*
X271993Y88114D01*
X272007Y88468D01*
X271992Y88796D01*
X271946Y89097D01*
X271871Y89371D01*
X271765Y89619D01*
X271629Y89840D01*
X271463Y90035D01*
X272355Y90557D01*
X272493Y90441D01*
D02*
G37*
G36*
X70758Y89173D02*
X70492Y89070D01*
X70257Y88902D01*
X70053Y88670D01*
X69880Y88374D01*
X69739Y88013D01*
X69629Y87588D01*
X69551Y87098D01*
X69518Y86713D01*
X69545Y86287D01*
X69570Y86134D01*
X69599Y86005D01*
X69633Y85903D01*
X69671Y85827D01*
X69714Y85776D01*
X66225Y85500D01*
X66247Y85540D01*
X66266Y85607D01*
X66283Y85701D01*
X66298Y85822D01*
X66328Y86340D01*
X66323Y86531D01*
X66276Y87073D01*
X66197Y87550D01*
X66087Y87963D01*
X65945Y88311D01*
X65772Y88595D01*
X65567Y88815D01*
X65331Y88970D01*
X65063Y89060D01*
X64764Y89086D01*
X71056Y89211D01*
X70758Y89173D01*
D02*
G37*
G36*
X224404Y86608D02*
X224377Y86517D01*
X224378Y86411D01*
X224407Y86291D01*
X224465Y86157D01*
X224551Y86009D01*
X224665Y85846D01*
X224808Y85668D01*
X225178Y85270D01*
X224471Y84563D01*
X224265Y84762D01*
X223896Y85076D01*
X223733Y85190D01*
X223584Y85276D01*
X223450Y85334D01*
X223330Y85364D01*
X223225Y85365D01*
X223134Y85338D01*
X223057Y85282D01*
X224459Y86685D01*
X224404Y86608D01*
D02*
G37*
G36*
X217896Y82527D02*
X217920Y82442D01*
X217966Y82368D01*
X218035Y82303D01*
X218125Y82248D01*
X218239Y82204D01*
X218374Y82169D01*
X218532Y82144D01*
X218712Y82129D01*
X218825Y82126D01*
X218885Y82127D01*
X219205Y82153D01*
X219335Y82176D01*
X219445Y82205D01*
X219535Y82240D01*
X219605Y82282D01*
X219655Y82330D01*
X219685Y82385D01*
X219695Y82446D01*
X219707Y80624D01*
X219696Y80719D01*
X219666Y80804D01*
X219615Y80879D01*
X219544Y80944D01*
X219452Y80999D01*
X219341Y81044D01*
X219210Y81079D01*
X219058Y81104D01*
X218887Y81119D01*
X218792Y81121D01*
X218723Y81120D01*
X218409Y81087D01*
X218272Y81058D01*
X218147Y81021D01*
X218034Y80976D01*
X217935Y80923D01*
X217848Y80861D01*
X217774Y80791D01*
X217712Y80713D01*
X217894Y82622D01*
X217896Y82527D01*
D02*
G37*
G36*
X57687Y86961D02*
X57354Y86784D01*
X57061Y86488D01*
X56807Y86075D01*
X56591Y85544D01*
X56415Y84894D01*
X56278Y84126D01*
X56244Y83812D01*
X56278Y83394D01*
X56415Y82626D01*
X56591Y81976D01*
X56807Y81445D01*
X57061Y81031D01*
X57354Y80736D01*
X57687Y80559D01*
X58059Y80500D01*
X48240D01*
X48612Y80559D01*
X48945Y80736D01*
X49238Y81031D01*
X49492Y81445D01*
X49708Y81976D01*
X49884Y82626D01*
X50021Y83394D01*
X50055Y83708D01*
X50021Y84126D01*
X49884Y84894D01*
X49708Y85544D01*
X49492Y86075D01*
X49238Y86488D01*
X48945Y86784D01*
X48612Y86961D01*
X48240Y87020D01*
X58059D01*
X57687Y86961D01*
D02*
G37*
G36*
X11353D02*
X10953Y86784D01*
X10600Y86488D01*
X10295Y86075D01*
X10036Y85544D01*
X9825Y84894D01*
X9660Y84126D01*
X9619Y83812D01*
X9660Y83394D01*
X9825Y82626D01*
X10036Y81976D01*
X10295Y81445D01*
X10600Y81031D01*
X10953Y80736D01*
X11353Y80559D01*
X11799Y80500D01*
X1980D01*
X2277Y80559D01*
X2543Y80736D01*
X2778Y81031D01*
X2981Y81445D01*
X3153Y81976D01*
X3293Y82626D01*
X3403Y83394D01*
X3414Y83524D01*
X3293Y84894D01*
X3153Y85544D01*
X2981Y86075D01*
X2778Y86488D01*
X2543Y86784D01*
X2277Y86961D01*
X1980Y87020D01*
X11799D01*
X11353Y86961D01*
D02*
G37*
G36*
X254273Y80434D02*
X254257Y80528D01*
X254221Y80611D01*
X254162Y80685D01*
X254081Y80750D01*
X253978Y80804D01*
X253853Y80848D01*
X253706Y80883D01*
X253537Y80907D01*
X253346Y80922D01*
X253133Y80927D01*
Y81927D01*
X253338Y81932D01*
X253521Y81947D01*
X253682Y81972D01*
X253821Y82007D01*
X253938Y82052D01*
X254032Y82106D01*
X254105Y82171D01*
X254156Y82246D01*
X254186Y82330D01*
X254192Y82425D01*
X254273Y80434D01*
D02*
G37*
G36*
X251169Y82332D02*
X251200Y82247D01*
X251250Y82172D01*
X251321Y82107D01*
X251412Y82052D01*
X251523Y82007D01*
X251655Y81972D01*
X251807Y81947D01*
X251979Y81932D01*
X252171Y81927D01*
Y80927D01*
X251979Y80922D01*
X251807Y80907D01*
X251655Y80882D01*
X251523Y80847D01*
X251412Y80802D01*
X251321Y80747D01*
X251250Y80682D01*
X251200Y80607D01*
X251169Y80522D01*
X251159Y80427D01*
Y82427D01*
X251169Y82332D01*
D02*
G37*
G36*
X32492Y80134D02*
X33452Y80118D01*
Y74213D01*
X32492Y74209D01*
Y73831D01*
X32433Y73903D01*
X32256Y73968D01*
X31961Y74026D01*
X31547Y74075D01*
X30906Y74117D01*
X27606Y73903D01*
X27547Y73831D01*
Y74197D01*
X26587Y74213D01*
Y80118D01*
X27547Y80121D01*
Y80500D01*
X27606Y80427D01*
X27783Y80362D01*
X28078Y80305D01*
X28492Y80256D01*
X29134Y80214D01*
X32433Y80427D01*
X32492Y80500D01*
Y80134D01*
D02*
G37*
G36*
X256124Y75870D02*
X256065Y75968D01*
X255992Y76055D01*
X255907Y76133D01*
X255808Y76199D01*
X255697Y76256D01*
X255572Y76302D01*
X255435Y76338D01*
X255284Y76364D01*
X255120Y76379D01*
X254944Y76384D01*
X255003Y77384D01*
X255180Y77389D01*
X255345Y77404D01*
X255497Y77428D01*
X255639Y77462D01*
X255768Y77505D01*
X255886Y77558D01*
X255992Y77621D01*
X256086Y77693D01*
X256168Y77775D01*
X256239Y77867D01*
X256124Y75870D01*
D02*
G37*
G36*
X225178Y74848D02*
X224979Y74642D01*
X224665Y74273D01*
X224551Y74110D01*
X224465Y73961D01*
X224407Y73827D01*
X224378Y73707D01*
X224377Y73601D01*
X224404Y73510D01*
X224459Y73434D01*
X223057Y74836D01*
X223134Y74780D01*
X223225Y74753D01*
X223330Y74755D01*
X223450Y74784D01*
X223584Y74842D01*
X223733Y74928D01*
X223896Y75042D01*
X224073Y75185D01*
X224471Y75555D01*
X225178Y74848D01*
D02*
G37*
G36*
X220936Y72684D02*
X220867Y72747D01*
X220782Y72780D01*
X220681Y72783D01*
X220564Y72756D01*
X220430Y72699D01*
X220281Y72612D01*
X220115Y72495D01*
X219934Y72348D01*
X219522Y71965D01*
X218988Y72845D01*
X219179Y73043D01*
X219483Y73402D01*
X219595Y73562D01*
X219680Y73710D01*
X219738Y73845D01*
X219770Y73968D01*
X219776Y74077D01*
X219755Y74174D01*
X219707Y74259D01*
X220936Y72684D01*
D02*
G37*
G36*
X251168Y73872D02*
X251192Y73805D01*
X251233Y73747D01*
X251289Y73695D01*
X251361Y73652D01*
X251449Y73616D01*
X251552Y73589D01*
X251672Y73569D01*
X251807Y73558D01*
X251958Y73554D01*
Y72766D01*
X251809Y72765D01*
X251297Y72732D01*
X251242Y72720D01*
X251203Y72706D01*
X251179Y72690D01*
X251171Y72672D01*
X251159Y73947D01*
X251168Y73872D01*
D02*
G37*
G36*
X247509Y72672D02*
X247447Y72716D01*
X247375Y72739D01*
X247291D01*
X247197Y72716D01*
X247091Y72672D01*
X246974Y72605D01*
X246846Y72516D01*
X246707Y72405D01*
X246395Y72115D01*
X245838Y72672D01*
X245994Y72833D01*
X246239Y73123D01*
X246328Y73251D01*
X246395Y73368D01*
X246440Y73474D01*
X246462Y73568D01*
Y73652D01*
X246440Y73724D01*
X246395Y73785D01*
X247509Y72672D01*
D02*
G37*
G36*
X224470Y69537D02*
X224500Y69452D01*
X224551Y69377D01*
X224623Y69312D01*
X224714Y69257D01*
X224825Y69212D01*
X224837Y69209D01*
X224915Y69235D01*
X225003Y69272D01*
X225086Y69314D01*
X225163Y69363D01*
X225235Y69417D01*
X225205Y69143D01*
X225279Y69137D01*
X225471Y69132D01*
Y68132D01*
X225281Y68127D01*
X225111Y68113D01*
X225093Y68111D01*
X225056Y67773D01*
X224996Y67842D01*
X224930Y67902D01*
X224856Y67956D01*
X224777Y68003D01*
X224734Y68022D01*
X224721Y68017D01*
X224631Y67966D01*
X224561Y67906D01*
X224511Y67838D01*
X224481Y67759D01*
X224471Y67672D01*
X224468Y68104D01*
X224389Y68118D01*
X224275Y68128D01*
X224155Y68132D01*
X224275Y69132D01*
X224395Y69135D01*
X224462Y69142D01*
X224459Y69632D01*
X224470Y69537D01*
D02*
G37*
G36*
X57687Y73772D02*
X57354Y73595D01*
X57061Y73299D01*
X56807Y72886D01*
X56591Y72355D01*
X56415Y71705D01*
X56278Y70937D01*
X56244Y70623D01*
X56278Y70205D01*
X56415Y69437D01*
X56591Y68787D01*
X56807Y68256D01*
X57061Y67842D01*
X57354Y67547D01*
X57687Y67370D01*
X58059Y67311D01*
X48240D01*
X48612Y67370D01*
X48945Y67547D01*
X49238Y67842D01*
X49492Y68256D01*
X49708Y68787D01*
X49884Y69437D01*
X50021Y70205D01*
X50055Y70519D01*
X50021Y70937D01*
X49884Y71705D01*
X49708Y72355D01*
X49492Y72886D01*
X49238Y73299D01*
X48945Y73595D01*
X48612Y73772D01*
X48240Y73831D01*
X58059D01*
X57687Y73772D01*
D02*
G37*
G36*
X11353D02*
X10953Y73595D01*
X10600Y73299D01*
X10295Y72886D01*
X10036Y72355D01*
X9825Y71705D01*
X9660Y70937D01*
X9619Y70623D01*
X9660Y70205D01*
X9825Y69437D01*
X10036Y68787D01*
X10295Y68256D01*
X10600Y67842D01*
X10953Y67547D01*
X11353Y67370D01*
X11799Y67311D01*
X1980D01*
X2277Y67370D01*
X2543Y67547D01*
X2778Y67842D01*
X2981Y68256D01*
X3153Y68787D01*
X3293Y69437D01*
X3403Y70205D01*
X3414Y70335D01*
X3293Y71705D01*
X3153Y72355D01*
X2981Y72886D01*
X2778Y73299D01*
X2543Y73595D01*
X2277Y73772D01*
X1980Y73831D01*
X11799D01*
X11353Y73772D01*
D02*
G37*
G36*
X32492Y66945D02*
X33452Y66929D01*
Y61024D01*
X32492Y61020D01*
Y60642D01*
X32433Y60715D01*
X32256Y60779D01*
X31961Y60837D01*
X31547Y60886D01*
X30906Y60928D01*
X27606Y60715D01*
X27547Y60642D01*
Y61008D01*
X26587Y61024D01*
Y66929D01*
X27547Y66932D01*
Y67311D01*
X27606Y67238D01*
X27783Y67173D01*
X28078Y67116D01*
X28492Y67067D01*
X29134Y67025D01*
X32433Y67238D01*
X32492Y67311D01*
Y66945D01*
D02*
G37*
G36*
X251878Y61685D02*
X251958Y61683D01*
Y60949D01*
X252007Y60504D01*
X251911Y60578D01*
X251813Y60645D01*
X251715Y60704D01*
X251615Y60755D01*
X251513Y60798D01*
X251431Y60826D01*
X251359Y60797D01*
X251287Y60754D01*
X251231Y60703D01*
X251191Y60644D01*
X251167Y60577D01*
X251159Y60502D01*
Y60885D01*
X251095Y60892D01*
X250988Y60896D01*
X250896Y61683D01*
X251008Y61688D01*
X251115Y61702D01*
X251159Y61712D01*
Y62077D01*
X251167Y62002D01*
X251191Y61935D01*
X251231Y61876D01*
X251287Y61825D01*
X251359Y61782D01*
X251366Y61779D01*
X251412Y61799D01*
X251503Y61850D01*
X251590Y61911D01*
X251674Y61980D01*
X251753Y62059D01*
X251828Y62148D01*
X251878Y61685D01*
D02*
G37*
G36*
X247509Y60073D02*
X247447Y60118D01*
X247375Y60140D01*
X247291D01*
X247197Y60118D01*
X247091Y60073D01*
X246974Y60007D01*
X246846Y59917D01*
X246707Y59806D01*
X246395Y59517D01*
X245838Y60073D01*
X245994Y60235D01*
X246239Y60524D01*
X246328Y60653D01*
X246395Y60769D01*
X246440Y60875D01*
X246462Y60970D01*
Y61053D01*
X246440Y61126D01*
X246395Y61187D01*
X247509Y60073D01*
D02*
G37*
G36*
X219987Y62761D02*
X220350Y62453D01*
X220512Y62340D01*
X220660Y62255D01*
X220795Y62196D01*
X220916Y62165D01*
X221024Y62162D01*
X221118Y62186D01*
X221199Y62237D01*
X220000Y61182D01*
X221109Y60073D01*
X221031Y60130D01*
X220940Y60158D01*
X220833D01*
X220713Y60130D01*
X220579Y60073D01*
X220430Y59989D01*
X220268Y59875D01*
X220091Y59734D01*
X219695Y59366D01*
X218988Y60073D01*
X219186Y60278D01*
X219497Y60646D01*
X219610Y60809D01*
X219695Y60957D01*
X219752Y61092D01*
X219780Y61212D01*
Y61263D01*
X219770Y61307D01*
X219712Y61441D01*
X219626Y61590D01*
X219510Y61754D01*
X219365Y61934D01*
X218988Y62339D01*
X219784Y62957D01*
X219987Y62761D01*
D02*
G37*
G36*
X224473Y55063D02*
X224475Y55036D01*
X224483Y55037D01*
X224487Y54915D01*
X224499Y54802D01*
X224518Y54699D01*
X224546Y54605D01*
X224581Y54520D01*
X224624Y54444D01*
X224676Y54378D01*
X224734Y54321D01*
X224801Y54273D01*
X224876Y54235D01*
X224483Y54083D01*
X224483Y54073D01*
X224459D01*
X223334Y53638D01*
X223362Y53710D01*
X223388Y53796D01*
X223410Y53895D01*
X223446Y54132D01*
X223459Y54271D01*
X223464Y54419D01*
X223463Y54433D01*
X223438Y54583D01*
X223403Y54713D01*
X223358Y54823D01*
X223303Y54913D01*
X223238Y54983D01*
X223163Y55033D01*
X223078Y55063D01*
X222983Y55073D01*
X224471D01*
X224473Y55063D01*
D02*
G37*
G36*
X120671Y55341D02*
X121210Y54884D01*
X121379Y54765D01*
X121541Y54663D01*
X121698Y54577D01*
X121849Y54509D01*
X121994Y54457D01*
X122134Y54422D01*
X119210Y52498D01*
X119233Y52657D01*
X119233Y52820D01*
X119210Y52986D01*
X119164Y53156D01*
X119096Y53330D01*
X119005Y53507D01*
X118891Y53688D01*
X118754Y53873D01*
X118595Y54061D01*
X118413Y54253D01*
X120480Y55527D01*
X120671Y55341D01*
D02*
G37*
G36*
X104877Y54980D02*
X105487Y54445D01*
X105602Y54364D01*
X105703Y54303D01*
X105789Y54264D01*
X105861Y54246D01*
X105917Y54248D01*
X104081Y52188D01*
X104076Y52239D01*
X104050Y52307D01*
X104002Y52391D01*
X103932Y52493D01*
X103841Y52611D01*
X103593Y52898D01*
X103059Y53454D01*
X104688Y55166D01*
X104877Y54980D01*
D02*
G37*
G36*
X64509Y54768D02*
X64124Y54369D01*
X63454Y53587D01*
X63168Y53203D01*
X62697Y52453D01*
X62511Y52086D01*
X62359Y51723D01*
X62239Y51367D01*
X62153Y51015D01*
X59874Y54083D01*
X60040Y54133D01*
X60236Y54225D01*
X60460Y54358D01*
X60713Y54532D01*
X61306Y55003D01*
X62015Y55639D01*
X62839Y56438D01*
X64509Y54768D01*
D02*
G37*
G36*
X51438Y54071D02*
X51572Y54043D01*
X51763Y54018D01*
X52178Y53988D01*
X54362Y54083D01*
Y53943D01*
X54681Y53937D01*
Y50787D01*
X54362Y50771D01*
Y50642D01*
X54289Y50669D01*
X54157Y50694D01*
X53967Y50716D01*
X53617Y50734D01*
X51360Y50622D01*
Y50783D01*
X50994Y50787D01*
Y53937D01*
X51360Y53953D01*
Y54103D01*
X51438Y54071D01*
D02*
G37*
G36*
X220775Y50234D02*
X220793Y50000D01*
X220808Y49905D01*
X220828Y49824D01*
X220853Y49758D01*
X220882Y49706D01*
X220915Y49669D01*
X220953Y49647D01*
X220995Y49639D01*
X219695Y49651D01*
X219710Y49658D01*
X219723Y49680D01*
X219735Y49716D01*
X219745Y49767D01*
X219753Y49832D01*
X219765Y50005D01*
X219772Y50374D01*
X220772D01*
X220775Y50234D01*
D02*
G37*
G36*
X64711Y47687D02*
X62153Y45110D01*
X60243Y48218D01*
X60390Y48049D01*
X60575Y47953D01*
X60801Y47930D01*
X61067Y47980D01*
X61373Y48103D01*
X61718Y48300D01*
X62104Y48569D01*
X62529Y48911D01*
X63499Y49815D01*
X64711Y47687D01*
D02*
G37*
G36*
X123295Y50064D02*
X123199Y49928D01*
X123113Y49776D01*
X123039Y49609D01*
X122977Y49425D01*
X122926Y49225D01*
X122886Y49009D01*
X122874Y48913D01*
X122935Y47858D01*
X122966Y47740D01*
X123000Y47669D01*
X123039Y47646D01*
X120071D01*
X120147Y47669D01*
X120216Y47740D01*
X120276Y47858D01*
X120328Y48023D01*
X120372Y48236D01*
X120408Y48496D01*
X120435Y48864D01*
X120421Y49009D01*
X120381Y49225D01*
X120330Y49425D01*
X120268Y49609D01*
X120194Y49776D01*
X120108Y49928D01*
X120012Y50064D01*
X119904Y50183D01*
X123404D01*
X123295Y50064D01*
D02*
G37*
G36*
X108197Y49926D02*
X108100Y49790D01*
X108015Y49639D01*
X107941Y49471D01*
X107878Y49287D01*
X107827Y49087D01*
X107787Y48871D01*
X107787Y48868D01*
X107845Y48023D01*
X107885Y47858D01*
X107930Y47740D01*
X107982Y47669D01*
X108039Y47646D01*
X105071D01*
X105129Y47669D01*
X105180Y47740D01*
X105226Y47858D01*
X105265Y48023D01*
X105298Y48236D01*
X105339Y48706D01*
X105323Y48871D01*
X105283Y49087D01*
X105232Y49287D01*
X105169Y49471D01*
X105095Y49639D01*
X105010Y49790D01*
X104913Y49926D01*
X104805Y50045D01*
X108305Y50045D01*
X108197Y49926D01*
D02*
G37*
G36*
X92423Y48751D02*
X92487Y47864D01*
X92511Y47768D01*
X92539Y47700D01*
X92570Y47659D01*
X92605Y47646D01*
X90071D01*
X90069Y47659D01*
X90067Y47700D01*
X90059Y49010D01*
X92421D01*
X92423Y48751D01*
D02*
G37*
G36*
X251167Y49005D02*
X251191Y48938D01*
X251231Y48879D01*
X251287Y48827D01*
X251359Y48784D01*
X251447Y48749D01*
X251551Y48721D01*
X251671Y48702D01*
X251807Y48690D01*
X251958Y48686D01*
Y47898D01*
X251807Y47894D01*
X251671Y47883D01*
X251551Y47863D01*
X251447Y47835D01*
X251359Y47800D01*
X251287Y47757D01*
X251231Y47705D01*
X251191Y47646D01*
X251167Y47579D01*
X251159Y47505D01*
Y49079D01*
X251167Y49005D01*
D02*
G37*
G36*
X247509Y47475D02*
X247447Y47519D01*
X247375Y47542D01*
X247291D01*
X247197Y47519D01*
X247091Y47475D01*
X246974Y47408D01*
X246846Y47319D01*
X246707Y47208D01*
X246395Y46918D01*
X245838Y47475D01*
X245994Y47637D01*
X246239Y47926D01*
X246328Y48054D01*
X246395Y48171D01*
X246440Y48277D01*
X246462Y48371D01*
Y48455D01*
X246440Y48527D01*
X246395Y48588D01*
X247509Y47475D01*
D02*
G37*
G36*
X252931Y47411D02*
X252869Y47504D01*
X252800Y47587D01*
X252726Y47660D01*
X252647Y47723D01*
X252562Y47776D01*
X252471Y47820D01*
X252375Y47855D01*
X252274Y47879D01*
X252167Y47894D01*
X252054Y47898D01*
X252245Y48686D01*
X252350Y48689D01*
X252455Y48699D01*
X252561Y48716D01*
X252666Y48740D01*
X252771Y48770D01*
X252876Y48807D01*
X252981Y48851D01*
X253086Y48902D01*
X253296Y49024D01*
X252931Y47411D01*
D02*
G37*
G36*
X51438Y48166D02*
X51572Y48138D01*
X51763Y48113D01*
X52178Y48083D01*
X54362Y48177D01*
Y48037D01*
X54681Y48031D01*
Y44882D01*
X54362Y44866D01*
Y44736D01*
X54289Y44764D01*
X54157Y44789D01*
X53967Y44811D01*
X53617Y44829D01*
X51360Y44716D01*
Y44878D01*
X50994Y44882D01*
Y48031D01*
X51360Y48047D01*
Y48197D01*
X51438Y48166D01*
D02*
G37*
G36*
X202421Y46320D02*
X202291Y46170D01*
X202174Y45996D01*
X202072Y45798D01*
X201984Y45575D01*
X201910Y45328D01*
X201850Y45057D01*
X201804Y44761D01*
X201772Y44441D01*
X201752Y43727D01*
X199121Y46358D01*
X199490Y46361D01*
X200154Y46410D01*
X200450Y46456D01*
X200722Y46516D01*
X200969Y46590D01*
X201191Y46678D01*
X201390Y46780D01*
X201564Y46897D01*
X201714Y47027D01*
X202421Y46320D01*
D02*
G37*
G36*
X222165Y42465D02*
X222080Y42435D01*
X222005Y42385D01*
X221940Y42315D01*
X221885Y42225D01*
X221840Y42115D01*
X221805Y41985D01*
X221780Y41835D01*
X221771Y41730D01*
X221773Y41702D01*
X221789Y41594D01*
X221812Y41491D01*
X221842Y41395D01*
X221878Y41304D01*
X221920Y41220D01*
X221969Y41141D01*
X222024Y41068D01*
X222087Y41001D01*
X220433D01*
X220495Y41068D01*
X220551Y41141D01*
X220600Y41220D01*
X220642Y41304D01*
X220678Y41395D01*
X220708Y41491D01*
X220730Y41594D01*
X220747Y41702D01*
X220749Y41730D01*
X220740Y41835D01*
X220715Y41985D01*
X220680Y42115D01*
X220635Y42225D01*
X220580Y42315D01*
X220515Y42385D01*
X220440Y42435D01*
X220355Y42465D01*
X220260Y42475D01*
X222260D01*
X222165Y42465D01*
D02*
G37*
G36*
X51438Y42260D02*
X51572Y42232D01*
X51763Y42207D01*
X52178Y42177D01*
X54362Y42272D01*
Y42132D01*
X54681Y42126D01*
Y38976D01*
X54362Y38960D01*
Y38831D01*
X54289Y38859D01*
X54157Y38883D01*
X53967Y38905D01*
X53617Y38923D01*
X51360Y38811D01*
Y38972D01*
X50994Y38976D01*
Y42126D01*
X51360Y42142D01*
Y42292D01*
X51438Y42260D01*
D02*
G37*
G36*
X128039Y38654D02*
X128042Y38647D01*
X128043Y38628D01*
X128047Y38552D01*
X128051Y38020D01*
X127240D01*
X127238Y38142D01*
X127220Y38348D01*
X127204Y38432D01*
X127183Y38503D01*
X127158Y38561D01*
X127128Y38607D01*
X127094Y38639D01*
X127055Y38659D01*
X127012Y38666D01*
X128039Y38654D01*
D02*
G37*
G36*
X132862Y38658D02*
X132807Y38636D01*
X132759Y38599D01*
X132717Y38547D01*
X132681Y38480D01*
X132652Y38399D01*
X132629Y38302D01*
X132613Y38191D01*
X132603Y38065D01*
X132600Y37924D01*
X131789D01*
X131786Y38065D01*
X131776Y38191D01*
X131760Y38302D01*
X131737Y38399D01*
X131708Y38480D01*
X131672Y38547D01*
X131630Y38599D01*
X131581Y38636D01*
X131526Y38658D01*
X131464Y38666D01*
X132924D01*
X132862Y38658D01*
D02*
G37*
G36*
X116310Y38907D02*
X116322Y38799D01*
X116343Y38694D01*
X116352Y38666D01*
X116711D01*
X116634Y38658D01*
X116565Y38633D01*
X116504Y38592D01*
X116452Y38534D01*
X116418Y38478D01*
X116457Y38398D01*
X116512Y38305D01*
X116575Y38215D01*
X116647Y38127D01*
X116727Y38043D01*
X116313D01*
X116310Y37999D01*
X116305Y37843D01*
X115495D01*
X115490Y37999D01*
X115487Y38043D01*
X115073D01*
X115153Y38127D01*
X115225Y38215D01*
X115288Y38305D01*
X115343Y38398D01*
X115382Y38478D01*
X115348Y38534D01*
X115296Y38592D01*
X115235Y38633D01*
X115166Y38658D01*
X115089Y38666D01*
X115448D01*
X115457Y38694D01*
X115478Y38799D01*
X115490Y38907D01*
X115495Y39018D01*
X116305D01*
X116310Y38907D01*
D02*
G37*
G36*
X70569Y39281D02*
X70387Y39090D01*
X70228Y38902D01*
X70091Y38717D01*
X69977Y38536D01*
X69885Y38359D01*
X69817Y38185D01*
X69771Y38015D01*
X69747Y37848D01*
X69747Y37685D01*
X69769Y37525D01*
X66854Y39464D01*
X66995Y39498D01*
X67141Y39550D01*
X67292Y39618D01*
X67450Y39703D01*
X67613Y39805D01*
X67782Y39923D01*
X68136Y40211D01*
X68321Y40380D01*
X68513Y40565D01*
X70569Y39281D01*
D02*
G37*
G36*
X112630Y38658D02*
X112562Y38633D01*
X112501Y38592D01*
X112448Y38534D01*
X112403Y38460D01*
X112367Y38369D01*
X112339Y38263D01*
X112337Y38252D01*
X112342Y38227D01*
X112374Y38127D01*
X112414Y38031D01*
X112463Y37939D01*
X112521Y37852D01*
X112589Y37768D01*
X112665Y37688D01*
X112750Y37613D01*
X111102Y37468D01*
X111176Y37560D01*
X111242Y37653D01*
X111301Y37749D01*
X111351Y37847D01*
X111394Y37947D01*
X111429Y38048D01*
X111456Y38152D01*
X111465Y38200D01*
X111454Y38263D01*
X111426Y38369D01*
X111390Y38460D01*
X111345Y38534D01*
X111292Y38592D01*
X111232Y38633D01*
X111163Y38658D01*
X111085Y38666D01*
X112708D01*
X112630Y38658D01*
D02*
G37*
G36*
X227783Y36284D02*
X227631Y36125D01*
X227505Y35977D01*
X227404Y35841D01*
X227329Y35717D01*
X227280Y35604D01*
X227256Y35503D01*
X227258Y35414D01*
X227286Y35336D01*
X227340Y35269D01*
X227419Y35215D01*
X225580Y36191D01*
X225675Y36154D01*
X225777Y36138D01*
X225887Y36144D01*
X226005Y36171D01*
X226131Y36220D01*
X226264Y36290D01*
X226405Y36383D01*
X226554Y36496D01*
X226710Y36632D01*
X226874Y36789D01*
X227783Y36284D01*
D02*
G37*
G36*
X66444Y34668D02*
X66431Y34660D01*
X66401Y34636D01*
X66291Y34534D01*
X65556Y33810D01*
X64549Y34818D01*
Y33465D01*
X64168Y33459D01*
X63164Y33378D01*
X62876Y33330D01*
X62610Y33270D01*
X62368Y33200D01*
X62149Y33119D01*
X61953Y33028D01*
X61780Y32925D01*
Y36366D01*
X61953Y36264D01*
X62149Y36172D01*
X62368Y36091D01*
X62610Y36021D01*
X62876Y35962D01*
X63164Y35913D01*
X63810Y35848D01*
X64168Y35832D01*
X64245Y35831D01*
X64885Y36454D01*
X66444Y34668D01*
D02*
G37*
G36*
X83681Y36960D02*
X83682Y36753D01*
X83751Y35659D01*
X83767Y35592D01*
X82398Y36418D01*
X82488Y36442D01*
X82568Y36477D01*
X82639Y36522D01*
X82700Y36577D01*
X82752Y36643D01*
X82795Y36719D01*
X82828Y36805D01*
X82851Y36902D01*
X82865Y37009D01*
X82870Y37126D01*
X83681Y36960D01*
D02*
G37*
G36*
X51438Y36355D02*
X51572Y36326D01*
X51763Y36302D01*
X52178Y36272D01*
X54362Y36366D01*
Y36226D01*
X54681Y36220D01*
Y33071D01*
X54362Y33055D01*
Y32925D01*
X54289Y32953D01*
X54157Y32978D01*
X53967Y33000D01*
X53617Y33018D01*
X51360Y32905D01*
Y33067D01*
X50994Y33071D01*
Y36220D01*
X51360Y36236D01*
Y36386D01*
X51438Y36355D01*
D02*
G37*
G36*
X232979Y31560D02*
X232953Y31670D01*
X232912Y31750D01*
X232856Y31800D01*
X232785Y31821D01*
X232697Y31812D01*
X232595Y31774D01*
X232477Y31705D01*
X232343Y31608D01*
X232194Y31480D01*
X232030Y31323D01*
X231535Y32243D01*
X231759Y32473D01*
X232129Y32898D01*
X232276Y33094D01*
X232398Y33278D01*
X232495Y33451D01*
X232566Y33613D01*
X232612Y33762D01*
X232633Y33901D01*
X232629Y34028D01*
X232979Y31560D01*
D02*
G37*
G36*
X45882Y32937D02*
X45929Y32380D01*
X46008Y31891D01*
X46118Y31471D01*
X46260Y31121D01*
X46433Y30839D01*
X46638Y30626D01*
X46874Y30483D01*
X47142Y30408D01*
X47441Y30402D01*
X43062Y30004D01*
X42996Y29946D01*
X42937Y29981D01*
X42886Y30107D01*
X42841Y30325D01*
X42803Y30635D01*
X42748Y31531D01*
X42717Y33564D01*
X45866D01*
X45882Y32937D01*
D02*
G37*
G36*
X226217Y30420D02*
X226133Y30386D01*
X226058Y30328D01*
X225994Y30247D01*
X225939Y30143D01*
X225894Y30016D01*
X225860Y29866D01*
X225835Y29692D01*
X225820Y29496D01*
X225815Y29276D01*
X224815D01*
X224810Y29496D01*
X224795Y29692D01*
X224770Y29866D01*
X224735Y30016D01*
X224691Y30143D01*
X224636Y30247D01*
X224572Y30328D01*
X224497Y30386D01*
X224413Y30420D01*
X224318Y30432D01*
X226311D01*
X226217Y30420D01*
D02*
G37*
G36*
X248035Y29570D02*
X248047Y29431D01*
X248067Y29308D01*
X248094Y29202D01*
X248129Y29112D01*
X248172Y29038D01*
X248223Y28981D01*
X248282Y28940D01*
X248348Y28915D01*
X248423Y28907D01*
X246853D01*
X246927Y28915D01*
X246994Y28940D01*
X247052Y28981D01*
X247103Y29038D01*
X247146Y29112D01*
X247182Y29202D01*
X247209Y29308D01*
X247228Y29431D01*
X247240Y29570D01*
X247244Y29726D01*
X248031D01*
X248035Y29570D01*
D02*
G37*
G36*
X241019Y29374D02*
X241529Y28925D01*
X241542Y28926D01*
X240759Y28143D01*
X240760Y28156D01*
X240749Y28181D01*
X240724Y28216D01*
X240687Y28263D01*
X240575Y28391D01*
X240198Y28780D01*
X240905Y29487D01*
X241019Y29374D01*
D02*
G37*
G36*
X225820Y26961D02*
X225835Y26764D01*
X225860Y26591D01*
X225894Y26441D01*
X225939Y26314D01*
X225994Y26210D01*
X226058Y26129D01*
X226133Y26071D01*
X226217Y26037D01*
X226311Y26025D01*
X224318D01*
X224413Y26037D01*
X224497Y26071D01*
X224572Y26129D01*
X224636Y26210D01*
X224691Y26314D01*
X224735Y26441D01*
X224770Y26591D01*
X224795Y26764D01*
X224810Y26961D01*
X224815Y27180D01*
X225815D01*
X225820Y26961D01*
D02*
G37*
G36*
X180685Y26959D02*
X180781Y26886D01*
X180876Y26829D01*
X180971Y26789D01*
X181064Y26765D01*
X181157Y26757D01*
X181248Y26766D01*
X181339Y26792D01*
X181429Y26834D01*
X181518Y26892D01*
X180509Y25309D01*
X180525Y25421D01*
X180527Y25533D01*
X180514Y25647D01*
X180486Y25762D01*
X180444Y25877D01*
X180387Y25995D01*
X180315Y26113D01*
X180229Y26232D01*
X180129Y26353D01*
X180014Y26474D01*
X180587Y27048D01*
X180685Y26959D01*
D02*
G37*
G36*
X72000Y24111D02*
X71950Y24160D01*
X71873Y24204D01*
X71771Y24243D01*
X71643Y24277D01*
X71489Y24305D01*
X71309Y24328D01*
X70873Y24359D01*
X70334Y24370D01*
X70925Y27519D01*
X72496Y27576D01*
X72000Y24111D01*
D02*
G37*
G36*
X194033Y24307D02*
Y23496D01*
X193478Y23497D01*
X193764Y24331D01*
X194033Y24307D01*
D02*
G37*
G36*
X249552Y23404D02*
X249399Y23246D01*
X249159Y22962D01*
X249071Y22837D01*
X249006Y22722D01*
X248962Y22618D01*
X248940Y22525D01*
X248940Y22444D01*
X248961Y22373D01*
X249005Y22313D01*
X247903Y23414D01*
X247963Y23371D01*
X248034Y23349D01*
X248116Y23349D01*
X248209Y23371D01*
X248312Y23415D01*
X248427Y23481D01*
X248553Y23568D01*
X248689Y23677D01*
X248995Y23961D01*
X249552Y23404D01*
D02*
G37*
G36*
X61724Y28795D02*
X61812Y28527D01*
X61965Y28291D01*
X62183Y28086D01*
X62467Y27913D01*
X62816Y27771D01*
X63230Y27661D01*
X63709Y27582D01*
X64253Y27535D01*
X64863Y27519D01*
Y24370D01*
X64353Y24359D01*
X63451Y24276D01*
X63058Y24203D01*
X62704Y24108D01*
X62389Y23993D01*
X62113Y23857D01*
X61876Y23700D01*
X61678Y23523D01*
X61519Y23324D01*
X61701Y29094D01*
X61724Y28795D01*
D02*
G37*
G36*
X29462Y29030D02*
X28949Y28545D01*
X28496Y27997D01*
X28104Y27386D01*
X27771Y26711D01*
X27500Y25974D01*
X27289Y25173D01*
X27138Y24309D01*
X27047Y23382D01*
X27017Y22392D01*
X21112D01*
X21080Y23339D01*
X20986Y24223D01*
X20829Y25043D01*
X20609Y25799D01*
X20326Y26491D01*
X19980Y27120D01*
X19572Y27686D01*
X19100Y28187D01*
X18566Y28625D01*
X17969Y29000D01*
X30035Y29452D01*
X29462Y29030D01*
D02*
G37*
G36*
X75511Y23587D02*
X75463Y23536D01*
X75419Y23459D01*
X75381Y23357D01*
X75348Y23229D01*
X75320Y23075D01*
X75297Y22895D01*
X75266Y22459D01*
X75256Y21920D01*
X75251Y21921D01*
X75244Y20027D01*
X71646D01*
X71733Y20059D01*
X71812Y20153D01*
X71881Y20311D01*
X71940Y20531D01*
X71991Y20815D01*
X72033Y21161D01*
X72088Y22043D01*
X72098Y22678D01*
X72043Y24056D01*
X75511Y23587D01*
D02*
G37*
G36*
X238049Y23346D02*
X238063Y23261D01*
X238101Y23186D01*
X238165Y23121D01*
X238253Y23066D01*
X238366Y23021D01*
X238504Y22986D01*
X238667Y22961D01*
X238855Y22946D01*
X239068Y22941D01*
X238866Y21941D01*
X238644Y21936D01*
X238264Y21897D01*
X238104Y21862D01*
X237966Y21818D01*
X237849Y21764D01*
X237753Y21700D01*
X237677Y21626D01*
X237622Y21542D01*
X237589Y21449D01*
X238060Y23441D01*
X238049Y23346D01*
D02*
G37*
G36*
X240759Y21441D02*
X240768Y21536D01*
X240753Y21621D01*
X240713Y21696D01*
X240648Y21761D01*
X240559Y21816D01*
X240446Y21861D01*
X240308Y21896D01*
X240145Y21921D01*
X239958Y21936D01*
X239747Y21941D01*
X239788Y22941D01*
X239934Y22945D01*
X240079Y22958D01*
X240222Y22980D01*
X240363Y23010D01*
X240503Y23049D01*
X240640Y23097D01*
X240776Y23153D01*
X240910Y23218D01*
X241042Y23292D01*
X241173Y23374D01*
X240759Y21441D01*
D02*
G37*
G36*
X196035Y21479D02*
X196066Y21273D01*
X196117Y21067D01*
X196188Y20861D01*
X196280Y20655D01*
X196391Y20449D01*
X196524Y20244D01*
X196676Y20039D01*
X196849Y19834D01*
X197043Y19629D01*
X194028Y20161D01*
X194253Y20277D01*
X194455Y20401D01*
X194633Y20533D01*
X194787Y20673D01*
X194918Y20821D01*
X195024Y20977D01*
X195107Y21142D01*
X195167Y21315D01*
X195202Y21496D01*
X195214Y21685D01*
X196025D01*
X196035Y21479D01*
D02*
G37*
G36*
X179735Y21929D02*
X179749Y21755D01*
X179791Y21565D01*
X179860Y21360D01*
X179956Y21139D01*
X180080Y20902D01*
X180232Y20649D01*
X180619Y20097D01*
X180853Y19797D01*
X181115Y19481D01*
X177410Y19811D01*
X177698Y20056D01*
X178182Y20530D01*
X178379Y20758D01*
X178546Y20980D01*
X178682Y21196D01*
X178788Y21406D01*
X178864Y21611D01*
X178909Y21810D01*
X178924Y22002D01*
X179735Y21929D01*
D02*
G37*
G36*
X226217Y20420D02*
X226133Y20385D01*
X226058Y20328D01*
X225994Y20247D01*
X225939Y20143D01*
X225894Y20016D01*
X225860Y19866D01*
X225835Y19692D01*
X225820Y19496D01*
X225815Y19276D01*
X224815D01*
X224810Y19496D01*
X224795Y19692D01*
X224770Y19866D01*
X224735Y20016D01*
X224691Y20143D01*
X224636Y20247D01*
X224572Y20328D01*
X224497Y20385D01*
X224413Y20420D01*
X224318Y20432D01*
X226311D01*
X226217Y20420D01*
D02*
G37*
G36*
X249552Y17499D02*
X249399Y17341D01*
X249159Y17057D01*
X249071Y16931D01*
X249006Y16816D01*
X248962Y16713D01*
X248940Y16620D01*
X248940Y16538D01*
X248961Y16467D01*
X249005Y16407D01*
X247903Y17509D01*
X247963Y17465D01*
X248034Y17444D01*
X248116Y17444D01*
X248209Y17466D01*
X248312Y17509D01*
X248427Y17575D01*
X248553Y17662D01*
X248689Y17772D01*
X248995Y18056D01*
X249552Y17499D01*
D02*
G37*
G36*
X240953Y18029D02*
X241322Y17715D01*
X241485Y17601D01*
X241634Y17515D01*
X241768Y17457D01*
X241888Y17428D01*
X241993Y17426D01*
X242084Y17454D01*
X242161Y17509D01*
X240759Y16107D01*
X240814Y16183D01*
X240841Y16274D01*
X240840Y16380D01*
X240811Y16500D01*
X240753Y16634D01*
X240667Y16783D01*
X240552Y16946D01*
X240410Y17123D01*
X240040Y17521D01*
X240747Y18228D01*
X240953Y18029D01*
D02*
G37*
G36*
X225820Y16961D02*
X225835Y16764D01*
X225860Y16591D01*
X225894Y16441D01*
X225939Y16314D01*
X225994Y16210D01*
X226058Y16129D01*
X226133Y16071D01*
X226217Y16037D01*
X226311Y16025D01*
X224318D01*
X224413Y16037D01*
X224497Y16071D01*
X224572Y16129D01*
X224636Y16210D01*
X224691Y16314D01*
X224735Y16441D01*
X224770Y16591D01*
X224795Y16764D01*
X224810Y16961D01*
X224815Y17180D01*
X225815D01*
X225820Y16961D01*
D02*
G37*
G36*
X150254Y17192D02*
X149779Y17061D01*
X148887Y16746D01*
X148468Y16563D01*
X148069Y16363D01*
X147688Y16145D01*
X147327Y15910D01*
X146984Y15657D01*
X146660Y15387D01*
X146355Y15100D01*
X143498Y16698D01*
X143804Y17031D01*
X144065Y17376D01*
X144281Y17731D01*
X144452Y18097D01*
X144578Y18474D01*
X144660Y18861D01*
X144697Y19260D01*
X144689Y19669D01*
X144636Y20090D01*
X144539Y20521D01*
X150254Y17192D01*
D02*
G37*
G36*
X75263Y18961D02*
X75356Y18709D01*
X75510Y18485D01*
X75726Y18292D01*
X76003Y18128D01*
X76341Y17994D01*
X76740Y17890D01*
X77201Y17815D01*
X77723Y17771D01*
X78307Y17756D01*
Y14606D01*
X75244Y14618D01*
X75232Y19244D01*
X75263Y18961D01*
D02*
G37*
G36*
X232618Y15734D02*
X232766Y15608D01*
X232901Y15507D01*
X233025Y15433D01*
X233137Y15384D01*
X233237Y15362D01*
X233325Y15366D01*
X233401Y15395D01*
X233466Y15451D01*
X233518Y15532D01*
X232587Y13647D01*
X232622Y13744D01*
X232636Y13849D01*
X232629Y13961D01*
X232600Y14080D01*
X232549Y14207D01*
X232477Y14342D01*
X232384Y14484D01*
X232270Y14633D01*
X232133Y14790D01*
X231976Y14955D01*
X232459Y15886D01*
X232618Y15734D01*
D02*
G37*
%LPC*%
G36*
X51840Y272539D02*
X50522D01*
X49229Y272282D01*
X48011Y271778D01*
X46915Y271045D01*
X45982Y270113D01*
X45250Y269017D01*
X44745Y267799D01*
X44488Y266506D01*
Y265187D01*
X44745Y263894D01*
X45250Y262676D01*
X45982Y261580D01*
X46915Y260648D01*
X48011Y259915D01*
X49229Y259411D01*
X50522Y259154D01*
X51840D01*
X53133Y259411D01*
X54351Y259915D01*
X55448Y260648D01*
X56380Y261580D01*
X57112Y262676D01*
X57617Y263894D01*
X57874Y265187D01*
Y266506D01*
X57617Y267799D01*
X57112Y269017D01*
X56380Y270113D01*
X55448Y271045D01*
X54351Y271778D01*
X53133Y272282D01*
X51840Y272539D01*
D02*
G37*
G36*
X24676Y269291D02*
X22569D01*
X20488Y268962D01*
X18484Y268311D01*
X16606Y267354D01*
X14902Y266116D01*
X13412Y264626D01*
X12173Y262921D01*
X11217Y261044D01*
X10566Y259040D01*
X10236Y256959D01*
Y254852D01*
X10566Y252771D01*
X11217Y250767D01*
X12173Y248890D01*
X13412Y247185D01*
X14902Y245695D01*
X16606Y244457D01*
X18484Y243500D01*
X20488Y242849D01*
X22569Y242520D01*
X24676D01*
X26757Y242849D01*
X28760Y243500D01*
X30638Y244457D01*
X32342Y245695D01*
X33832Y247185D01*
X35071Y248890D01*
X36027Y250767D01*
X36678Y252771D01*
X37008Y254852D01*
Y256959D01*
X36678Y259040D01*
X36027Y261044D01*
X35071Y262921D01*
X33832Y264626D01*
X32342Y266116D01*
X30638Y267354D01*
X28760Y268311D01*
X26757Y268962D01*
X24676Y269291D01*
D02*
G37*
G36*
X49704Y251161D02*
X48564D01*
X47462Y250866D01*
X46475Y250296D01*
X45668Y249490D01*
X45098Y248502D01*
X44803Y247401D01*
Y246607D01*
X44676Y246066D01*
X44442Y245271D01*
X44330Y244961D01*
X44276Y244833D01*
X33183Y233740D01*
X27165D01*
Y225866D01*
X34363D01*
X34787Y224843D01*
X33577Y223632D01*
X33507Y223609D01*
X33273Y223557D01*
X33001Y223521D01*
X32703Y223503D01*
X32480Y223510D01*
X31621Y223740D01*
X30584D01*
X29583Y223472D01*
X28685Y222954D01*
X28007Y222275D01*
X20564Y229717D01*
X20138Y230002D01*
X20079Y230014D01*
Y230322D01*
X19810Y231323D01*
X19292Y232221D01*
X18559Y232954D01*
X17661Y233472D01*
X16660Y233740D01*
X15623D01*
X14622Y233472D01*
X13724Y232954D01*
X12991Y232221D01*
X12473Y231323D01*
X12205Y230322D01*
Y229285D01*
X12473Y228284D01*
X12991Y227386D01*
X13724Y226653D01*
X14622Y226134D01*
X15623Y225866D01*
X16660D01*
X17661Y226134D01*
X18559Y226653D01*
X19238Y227331D01*
X26680Y219889D01*
X27106Y219604D01*
X27165Y219593D01*
Y219285D01*
X27277Y218866D01*
X27257Y218550D01*
X27213Y218229D01*
X27155Y217938D01*
X27086Y217688D01*
X27060Y217617D01*
X25450Y216007D01*
X25165Y215581D01*
X25065Y215079D01*
Y213189D01*
X24213D01*
Y208071D01*
X28543D01*
Y213189D01*
X27691D01*
Y214535D01*
X28916Y215761D01*
X28987Y215787D01*
X29238Y215855D01*
X29528Y215913D01*
X29850Y215958D01*
X30166Y215978D01*
X30584Y215866D01*
X31621D01*
X32622Y216135D01*
X33520Y216653D01*
X34253Y217386D01*
X34771Y218284D01*
X35039Y219285D01*
Y220321D01*
X35013Y220420D01*
X35138Y221048D01*
X35218Y221348D01*
X35305Y221612D01*
X35329Y221672D01*
X46225Y232568D01*
X46377Y232616D01*
X46655Y232674D01*
X46976Y232715D01*
X47332Y232736D01*
X47720Y232726D01*
X48564Y232500D01*
X49704D01*
X50805Y232795D01*
X51793Y233365D01*
X52599Y234172D01*
X53169Y235159D01*
X53465Y236261D01*
Y237401D01*
X53169Y238502D01*
X52599Y239490D01*
X51793Y240296D01*
X50805Y240866D01*
X49704Y241161D01*
X48564D01*
X47462Y240866D01*
X46475Y240296D01*
X45668Y239490D01*
X45098Y238502D01*
X44803Y237401D01*
Y236261D01*
X44838Y236131D01*
X44689Y235308D01*
X44602Y234959D01*
X44508Y234653D01*
X44451Y234506D01*
X36063Y226118D01*
X35039Y226542D01*
Y231884D01*
X45970Y242814D01*
X46110Y242854D01*
X46371Y242897D01*
X46671Y242917D01*
X47000Y242914D01*
X47319Y242878D01*
X47462Y242795D01*
X48564Y242500D01*
X49704D01*
X50805Y242795D01*
X51793Y243365D01*
X52599Y244172D01*
X53169Y245159D01*
X53465Y246261D01*
Y247401D01*
X53169Y248502D01*
X52599Y249490D01*
X51793Y250296D01*
X50805Y250866D01*
X49704Y251161D01*
D02*
G37*
G36*
Y231161D02*
X48564D01*
X47462Y230866D01*
X46475Y230296D01*
X45668Y229490D01*
X45098Y228502D01*
X44803Y227401D01*
Y226261D01*
X45098Y225159D01*
X45668Y224172D01*
X46475Y223365D01*
X47462Y222795D01*
X48564Y222500D01*
X49704D01*
X50805Y222795D01*
X51793Y223365D01*
X52599Y224172D01*
X53169Y225159D01*
X53465Y226261D01*
Y227401D01*
X53169Y228502D01*
X52599Y229490D01*
X51793Y230296D01*
X50805Y230866D01*
X49704Y231161D01*
D02*
G37*
G36*
Y221161D02*
X48564D01*
X47462Y220866D01*
X46475Y220296D01*
X45668Y219490D01*
X45098Y218502D01*
X44803Y217401D01*
Y216261D01*
X45098Y215159D01*
X45668Y214172D01*
X46475Y213365D01*
X47462Y212795D01*
X48564Y212500D01*
X49704D01*
X50805Y212795D01*
X51793Y213365D01*
X52599Y214172D01*
X53169Y215159D01*
X53465Y216261D01*
Y217401D01*
X53169Y218502D01*
X52599Y219490D01*
X51793Y220296D01*
X50805Y220866D01*
X49704Y221161D01*
D02*
G37*
G36*
X20079Y223740D02*
X12205D01*
Y215866D01*
X18222D01*
X19554Y214535D01*
Y213189D01*
X18701D01*
Y208071D01*
X23031D01*
Y213189D01*
X22179D01*
Y215079D01*
X22079Y215581D01*
X21794Y216007D01*
X20079Y217723D01*
Y223740D01*
D02*
G37*
G36*
X49704Y211161D02*
X48564D01*
X47462Y210866D01*
X46475Y210296D01*
X45668Y209490D01*
X45098Y208502D01*
X44803Y207401D01*
Y206261D01*
X45098Y205159D01*
X45668Y204172D01*
X46475Y203365D01*
X47462Y202795D01*
X48564Y202500D01*
X49704D01*
X50805Y202795D01*
X51793Y203365D01*
X52599Y204172D01*
X53169Y205159D01*
X53465Y206261D01*
Y207401D01*
X53169Y208502D01*
X52599Y209490D01*
X51793Y210296D01*
X50805Y210866D01*
X49704Y211161D01*
D02*
G37*
%LPD*%
G36*
X48389Y243367D02*
X47908Y243459D01*
X47040Y243555D01*
X46652Y243560D01*
X46296Y243535D01*
X45971Y243482D01*
X45676Y243399D01*
X45414Y243286D01*
X45182Y243145D01*
X44981Y242975D01*
X44420Y243828D01*
X44549Y243981D01*
X44677Y244182D01*
X44803Y244431D01*
X44928Y244727D01*
X45052Y245071D01*
X45297Y245902D01*
X45537Y246923D01*
X45656Y247506D01*
X48389Y243367D01*
D02*
G37*
G36*
X48744Y233309D02*
X48234Y233356D01*
X47321Y233379D01*
X46917Y233355D01*
X46548Y233308D01*
X46214Y233238D01*
X45915Y233144D01*
X45652Y233026D01*
X45423Y232886D01*
X45230Y232721D01*
X44595Y233501D01*
X44739Y233671D01*
X44874Y233886D01*
X45000Y234143D01*
X45115Y234443D01*
X45221Y234787D01*
X45317Y235173D01*
X45480Y236076D01*
X45605Y237150D01*
X48744Y233309D01*
D02*
G37*
G36*
X34947Y232941D02*
X34748Y232735D01*
X34434Y232365D01*
X34320Y232203D01*
X34234Y232054D01*
X34176Y231920D01*
X34147Y231800D01*
X34146Y231694D01*
X34173Y231603D01*
X34228Y231526D01*
X32826Y232929D01*
X32902Y232873D01*
X32994Y232846D01*
X33099Y232847D01*
X33219Y232877D01*
X33353Y232935D01*
X33502Y233021D01*
X33665Y233135D01*
X33842Y233278D01*
X34240Y233648D01*
X34947Y232941D01*
D02*
G37*
G36*
X19636Y229289D02*
Y228289D01*
X19497Y228289D01*
X18890Y228251D01*
X18877Y228242D01*
X19262Y229374D01*
X19636Y229289D01*
D02*
G37*
G36*
X35187Y222678D02*
X35052Y222522D01*
X34927Y222329D01*
X34810Y222100D01*
X34702Y221834D01*
X34603Y221532D01*
X34512Y221194D01*
X34356Y220409D01*
X34235Y219479D01*
X31489Y222929D01*
X31925Y222884D01*
X32713Y222860D01*
X33063Y222881D01*
X33384Y222924D01*
X33677Y222989D01*
X33941Y223075D01*
X34177Y223184D01*
X34383Y223314D01*
X34561Y223467D01*
X35187Y222678D01*
D02*
G37*
G36*
X27982Y220233D02*
X27608Y220317D01*
Y221317D01*
X27747Y221318D01*
X28355Y221356D01*
X28367Y221365D01*
X27982Y220233D01*
D02*
G37*
G36*
X31071Y216654D02*
X30610Y216651D01*
X29785Y216597D01*
X29421Y216547D01*
X29090Y216481D01*
X28791Y216399D01*
X28525Y216301D01*
X28291Y216188D01*
X28090Y216059D01*
X27921Y215915D01*
X27214Y216622D01*
X27358Y216790D01*
X27487Y216992D01*
X27601Y217226D01*
X27698Y217492D01*
X27780Y217791D01*
X27846Y218122D01*
X27896Y218486D01*
X27950Y219310D01*
X27953Y219772D01*
X31071Y216654D01*
D02*
G37*
G36*
X26883Y213197D02*
X26898Y213025D01*
X26923Y212874D01*
X26958Y212742D01*
X27003Y212631D01*
X27058Y212540D01*
X27123Y212469D01*
X27198Y212418D01*
X27283Y212388D01*
X27378Y212378D01*
X25378D01*
X25473Y212388D01*
X25558Y212418D01*
X25633Y212469D01*
X25698Y212540D01*
X25753Y212631D01*
X25798Y212742D01*
X25833Y212874D01*
X25858Y213025D01*
X25873Y213197D01*
X25878Y213390D01*
X26878D01*
X26883Y213197D01*
D02*
G37*
G36*
X19223Y218002D02*
X19195Y217910D01*
Y217804D01*
X19223Y217684D01*
X19279Y217549D01*
X19364Y217401D01*
X19477Y217238D01*
X19619Y217061D01*
X19986Y216666D01*
X19279Y215958D01*
X19074Y216156D01*
X18707Y216468D01*
X18544Y216581D01*
X18395Y216666D01*
X18261Y216722D01*
X18141Y216750D01*
X18035D01*
X17943Y216722D01*
X17865Y216666D01*
X19279Y218080D01*
X19223Y218002D01*
D02*
G37*
G36*
X21371Y213197D02*
X21386Y213025D01*
X21411Y212874D01*
X21446Y212742D01*
X21491Y212631D01*
X21546Y212540D01*
X21611Y212469D01*
X21686Y212418D01*
X21771Y212388D01*
X21866Y212378D01*
X19866D01*
X19961Y212388D01*
X20046Y212418D01*
X20121Y212469D01*
X20186Y212540D01*
X20241Y212631D01*
X20286Y212742D01*
X20321Y212874D01*
X20346Y213025D01*
X20361Y213197D01*
X20366Y213390D01*
X21366D01*
X21371Y213197D01*
D02*
G37*
%LPC*%
G36*
X307746Y272539D02*
X306427D01*
X305134Y272282D01*
X303916Y271778D01*
X302820Y271045D01*
X301888Y270113D01*
X301155Y269017D01*
X300651Y267799D01*
X300394Y266506D01*
Y265187D01*
X300651Y263894D01*
X301155Y262676D01*
X301888Y261580D01*
X302820Y260648D01*
X303916Y259915D01*
X305134Y259411D01*
X306427Y259154D01*
X307746D01*
X309039Y259411D01*
X310257Y259915D01*
X311353Y260648D01*
X312285Y261580D01*
X313018Y262676D01*
X313522Y263894D01*
X313779Y265187D01*
Y266506D01*
X313522Y267799D01*
X313018Y269017D01*
X312285Y270113D01*
X311353Y271045D01*
X310257Y271778D01*
X309039Y272282D01*
X307746Y272539D01*
D02*
G37*
G36*
X322474Y259891D02*
X321891D01*
Y257980D01*
X324196D01*
Y258169D01*
X324065Y258828D01*
X323692Y259387D01*
X323133Y259760D01*
X322474Y259891D01*
D02*
G37*
G36*
X320891D02*
X320309D01*
X319650Y259760D01*
X319091Y259387D01*
X318718Y258828D01*
X318587Y258169D01*
Y257980D01*
X320891D01*
Y259891D01*
D02*
G37*
G36*
X324196Y256980D02*
X321891D01*
Y255069D01*
X322474D01*
X323133Y255200D01*
X323692Y255574D01*
X324065Y256132D01*
X324196Y256791D01*
Y256980D01*
D02*
G37*
G36*
X320891D02*
X318587D01*
Y256791D01*
X318718Y256132D01*
X319091Y255574D01*
X319650Y255200D01*
X320309Y255069D01*
X320891D01*
Y256980D01*
D02*
G37*
G36*
X322474Y254163D02*
X320309D01*
X319733Y254048D01*
X319244Y253722D01*
X318918Y253234D01*
X318803Y252658D01*
Y251279D01*
X318918Y250704D01*
X319244Y250215D01*
X319733Y249889D01*
X320079Y249820D01*
Y248999D01*
X319733Y248930D01*
X319244Y248604D01*
X318950Y248163D01*
X314160D01*
X314013Y248234D01*
X313751Y248387D01*
X313464Y248582D01*
X313160Y248815D01*
X312812Y249121D01*
X312599Y249490D01*
X311793Y250296D01*
X310806Y250866D01*
X309704Y251161D01*
X308564D01*
X307462Y250866D01*
X306475Y250296D01*
X305668Y249490D01*
X305098Y248502D01*
X304803Y247401D01*
Y246261D01*
X305098Y245159D01*
X305668Y244172D01*
X306475Y243365D01*
X307462Y242795D01*
X308564Y242500D01*
X309704D01*
X310806Y242795D01*
X311793Y243365D01*
X312599Y244172D01*
X312833Y244576D01*
X313177Y244884D01*
X313477Y245117D01*
X313760Y245313D01*
X314020Y245466D01*
X314167Y245538D01*
X318950D01*
X319244Y245097D01*
X319733Y244771D01*
X320309Y244656D01*
X322474D01*
X323050Y244771D01*
X323538Y245097D01*
X323865Y245585D01*
X323979Y246161D01*
Y247539D01*
X323865Y248115D01*
X323538Y248604D01*
X323050Y248930D01*
X322704Y248999D01*
Y249820D01*
X323050Y249889D01*
X323538Y250215D01*
X323865Y250704D01*
X323979Y251279D01*
Y252658D01*
X323865Y253234D01*
X323538Y253722D01*
X323050Y254048D01*
X322474Y254163D01*
D02*
G37*
G36*
X339636Y269291D02*
X337529D01*
X335448Y268962D01*
X333444Y268311D01*
X331567Y267354D01*
X329862Y266116D01*
X328373Y264626D01*
X327134Y262921D01*
X326178Y261044D01*
X325526Y259040D01*
X325197Y256959D01*
Y254852D01*
X325526Y252771D01*
X326178Y250767D01*
X327134Y248890D01*
X328373Y247185D01*
X329862Y245695D01*
X331567Y244457D01*
X333444Y243500D01*
X335448Y242849D01*
X337529Y242520D01*
X339636D01*
X341717Y242849D01*
X343721Y243500D01*
X345598Y244457D01*
X347303Y245695D01*
X348793Y247185D01*
X350031Y248890D01*
X350988Y250767D01*
X351639Y252771D01*
X351969Y254852D01*
Y256959D01*
X351639Y259040D01*
X350988Y261044D01*
X350031Y262921D01*
X348793Y264626D01*
X347303Y266116D01*
X345598Y267354D01*
X343721Y268311D01*
X341717Y268962D01*
X339636Y269291D01*
D02*
G37*
G36*
X309732Y241374D02*
X309634D01*
Y237331D01*
X313677D01*
Y237429D01*
X313368Y238584D01*
X312769Y239620D01*
X311924Y240466D01*
X310888Y241064D01*
X309732Y241374D01*
D02*
G37*
G36*
X308634D02*
X308536D01*
X307380Y241064D01*
X306344Y240466D01*
X305498Y239620D01*
X304900Y238584D01*
X304591Y237429D01*
Y237331D01*
X308634D01*
Y241374D01*
D02*
G37*
G36*
X290764Y250035D02*
X276091D01*
Y237331D01*
X290764D01*
Y250035D01*
D02*
G37*
G36*
X275091D02*
X260417D01*
Y237331D01*
X275091D01*
Y250035D01*
D02*
G37*
G36*
X313677Y236331D02*
X309634D01*
Y232287D01*
X309732D01*
X310888Y232597D01*
X311924Y233195D01*
X312769Y234041D01*
X313368Y235077D01*
X313677Y236233D01*
Y236331D01*
D02*
G37*
G36*
X308634D02*
X304591D01*
Y236233D01*
X304900Y235077D01*
X305498Y234041D01*
X306344Y233195D01*
X307380Y232597D01*
X308536Y232287D01*
X308634D01*
Y236331D01*
D02*
G37*
G36*
X340657Y234012D02*
Y230815D01*
X343854D01*
X343605Y231743D01*
X343118Y232587D01*
X342429Y233276D01*
X341586Y233763D01*
X340657Y234012D01*
D02*
G37*
G36*
X339657D02*
X338729Y233763D01*
X337886Y233276D01*
X337197Y232587D01*
X336710Y231743D01*
X336461Y230815D01*
X339657D01*
Y234012D01*
D02*
G37*
G36*
X309732Y231374D02*
X309634D01*
Y227331D01*
X313677D01*
Y227429D01*
X313368Y228584D01*
X312769Y229620D01*
X311924Y230466D01*
X310888Y231064D01*
X309732Y231374D01*
D02*
G37*
G36*
X308634D02*
X308536D01*
X307380Y231064D01*
X306344Y230466D01*
X305498Y229620D01*
X304900Y228584D01*
X304591Y227429D01*
Y227331D01*
X308634D01*
Y231374D01*
D02*
G37*
G36*
X343854Y229815D02*
X340657D01*
Y226618D01*
X341586Y226867D01*
X342429Y227354D01*
X343118Y228043D01*
X343605Y228887D01*
X343854Y229815D01*
D02*
G37*
G36*
X339657D02*
X336461D01*
X336710Y228887D01*
X337197Y228043D01*
X337886Y227354D01*
X338729Y226867D01*
X339657Y226618D01*
Y229815D01*
D02*
G37*
G36*
X290764Y236331D02*
X276091D01*
Y223626D01*
X290764D01*
Y236331D01*
D02*
G37*
G36*
X275091D02*
X260417D01*
Y223626D01*
X275091D01*
Y236331D01*
D02*
G37*
G36*
X322474Y243533D02*
X320309D01*
X319733Y243418D01*
X319244Y243092D01*
X318918Y242604D01*
X318803Y242028D01*
Y240650D01*
X318918Y240074D01*
X319244Y239585D01*
X319733Y239259D01*
X320079Y239190D01*
Y222063D01*
X312242D01*
X311500Y222722D01*
X311469Y222817D01*
X311470Y222933D01*
X311924Y223195D01*
X312769Y224041D01*
X313368Y225077D01*
X313677Y226233D01*
Y226331D01*
X309134D01*
X304591D01*
Y226233D01*
X304900Y225077D01*
X305498Y224041D01*
X306344Y223195D01*
X306798Y222933D01*
X306799Y222817D01*
X306768Y222722D01*
X306026Y222063D01*
X303150D01*
X302842Y222002D01*
X302582Y221828D01*
X302408Y221567D01*
X302347Y221260D01*
Y202756D01*
X302408Y202449D01*
X302494Y202320D01*
X302582Y202150D01*
Y201511D01*
X302494Y201342D01*
X302408Y201213D01*
X302347Y200906D01*
Y181890D01*
X302408Y181582D01*
X302582Y181322D01*
Y181276D01*
X302408Y181016D01*
X302347Y180709D01*
Y160236D01*
X302408Y159929D01*
X302582Y159669D01*
X302842Y159494D01*
X303150Y159433D01*
X318565Y159433D01*
X320647Y157351D01*
Y155856D01*
X320735Y155415D01*
X320985Y155040D01*
X321359Y154790D01*
X321801Y154702D01*
X323296D01*
X324039Y153959D01*
X323713Y153172D01*
X321801D01*
X321359Y153084D01*
X320985Y152834D01*
X320735Y152459D01*
X320647Y152018D01*
Y149951D01*
X320735Y149509D01*
X320985Y149135D01*
X321359Y148885D01*
X321801Y148797D01*
X321916D01*
Y147387D01*
X321678Y147339D01*
X321323Y147102D01*
X321086Y146747D01*
X321003Y146329D01*
Y144616D01*
X321086Y144197D01*
X321323Y143843D01*
X320931Y143158D01*
X320886Y143090D01*
X320786Y142589D01*
Y142232D01*
X327600D01*
Y142589D01*
X327500Y143090D01*
X327455Y143158D01*
X327063Y143843D01*
X327300Y144197D01*
X327383Y144616D01*
Y146329D01*
X327300Y146747D01*
X327063Y147102D01*
X326708Y147339D01*
X326289Y147423D01*
X324541D01*
Y148797D01*
X324656D01*
X325097Y148885D01*
X325472Y149135D01*
X325722Y149509D01*
X325745Y149628D01*
X326533Y149550D01*
Y149360D01*
X326637Y148836D01*
X326934Y148391D01*
X327379Y148094D01*
X327904Y147989D01*
X328121D01*
X328106Y148164D01*
X328072Y148362D01*
X328028Y148540D01*
X327975Y148697D01*
X327912Y148834D01*
X327839Y148950D01*
X327756Y149045D01*
X327664Y149120D01*
X328437D01*
Y150787D01*
X329437D01*
Y149120D01*
X330210D01*
X330118Y149045D01*
X330035Y148950D01*
X329962Y148834D01*
X329899Y148697D01*
X329846Y148540D01*
X329802Y148362D01*
X329768Y148164D01*
X329749Y147989D01*
X329971D01*
X330061Y148007D01*
X330093Y147960D01*
X330148Y147856D01*
X330179Y147830D01*
X330201Y147797D01*
X331081Y146917D01*
X330968Y146747D01*
X330885Y146329D01*
Y144616D01*
X330968Y144197D01*
X331087Y144019D01*
Y143755D01*
X331095Y143716D01*
X331091Y143676D01*
X331125Y143563D01*
X331148Y143448D01*
X331170Y143415D01*
X331182Y143377D01*
X331200Y143355D01*
X330968Y143007D01*
X330885Y142589D01*
Y140876D01*
X330968Y140457D01*
X331205Y140103D01*
X331205Y139622D01*
X330968Y139267D01*
X330885Y138848D01*
Y137136D01*
X330968Y136717D01*
X331205Y136362D01*
X331560Y136125D01*
X331978Y136042D01*
X332268D01*
Y132957D01*
X332261Y132923D01*
Y130069D01*
X332268Y130035D01*
Y124742D01*
X331164Y123637D01*
X325105D01*
X324779Y124425D01*
X325040Y124686D01*
X325403Y125314D01*
X325590Y126015D01*
Y126741D01*
X325403Y127442D01*
X325040Y128070D01*
X324527Y128583D01*
X323950Y128916D01*
Y129724D01*
X324606D01*
Y132728D01*
X324618Y132746D01*
X324718Y133248D01*
Y136042D01*
X326289D01*
X326708Y136125D01*
X327063Y136362D01*
X327300Y136717D01*
X327383Y137136D01*
Y138848D01*
X327300Y139267D01*
X327063Y139622D01*
X327455Y140307D01*
X327500Y140374D01*
X327600Y140876D01*
Y141232D01*
X320786D01*
Y140876D01*
X320886Y140374D01*
X320931Y140307D01*
X321323Y139622D01*
X321086Y139267D01*
X321003Y138848D01*
Y137136D01*
X321086Y136717D01*
X321323Y136362D01*
X321678Y136125D01*
X322093Y136043D01*
Y134843D01*
X320276D01*
Y129724D01*
X321325D01*
Y128689D01*
X321143Y128583D01*
X320629Y128070D01*
X320267Y127442D01*
X320079Y126741D01*
Y126015D01*
X320267Y125314D01*
X320629Y124686D01*
X321055Y124260D01*
X321081Y123649D01*
X321019Y123335D01*
X302710Y105026D01*
X302004Y105434D01*
X302181Y106095D01*
Y106193D01*
X298138D01*
Y102150D01*
X298236D01*
X298897Y102327D01*
X299304Y101621D01*
X287228Y89544D01*
X287054Y89284D01*
X286993Y88976D01*
Y88721D01*
X286265Y88420D01*
X282584Y92101D01*
Y109161D01*
X282559Y109288D01*
Y115748D01*
X274685D01*
Y107874D01*
X279959D01*
Y91557D01*
X280059Y91055D01*
X280344Y90629D01*
X284908Y86064D01*
Y76851D01*
X284154Y76210D01*
X281988D01*
X281412Y76095D01*
X280924Y75769D01*
X280597Y75281D01*
X280483Y74705D01*
Y73576D01*
X276765Y69857D01*
X276697Y69832D01*
X276441Y69757D01*
X276145Y69691D01*
X275816Y69636D01*
X275501Y69605D01*
X275203Y69685D01*
X274167D01*
X273165Y69417D01*
X272268Y68898D01*
X271535Y68165D01*
X271016Y67268D01*
X270748Y66266D01*
Y65230D01*
X271016Y64228D01*
X271535Y63331D01*
X272268Y62598D01*
X273165Y62079D01*
X273323Y62037D01*
X273527Y61277D01*
X267936Y55686D01*
X267762Y55425D01*
X267701Y55118D01*
Y47260D01*
X262205D01*
X261897Y47198D01*
X261637Y47024D01*
X258881Y44269D01*
X258707Y44008D01*
X258646Y43701D01*
Y36220D01*
X258707Y35913D01*
X258881Y35653D01*
X261637Y32897D01*
X261897Y32723D01*
X262205Y32662D01*
X277559D01*
X277866Y32723D01*
X278127Y32897D01*
X278127Y32897D01*
X284751Y39521D01*
X284925Y39782D01*
X284986Y40089D01*
Y47506D01*
X288521D01*
X288740Y47127D01*
X289253Y46614D01*
X289881Y46251D01*
X290582Y46063D01*
X291308D01*
X292009Y46251D01*
X292637Y46614D01*
X293150Y47127D01*
X293513Y47755D01*
X293701Y48456D01*
Y49182D01*
X293513Y49883D01*
X293150Y50511D01*
X292637Y51024D01*
X292009Y51387D01*
X291308Y51575D01*
X290582D01*
X289881Y51387D01*
X289253Y51024D01*
X288740Y50511D01*
X288521Y50131D01*
X284986D01*
Y54717D01*
X290096Y59827D01*
X297979D01*
X298217Y59040D01*
X297997Y58893D01*
X297700Y58448D01*
X297596Y57923D01*
Y57390D01*
X300394D01*
X303192D01*
Y57923D01*
X303087Y58448D01*
X302790Y58893D01*
X302570Y59040D01*
X302809Y59827D01*
X306423D01*
Y59641D01*
X306523Y59139D01*
X306807Y58713D01*
X307393Y58127D01*
X307819Y57842D01*
X308321Y57743D01*
X318504D01*
X319006Y57842D01*
X319432Y58127D01*
X324944Y63639D01*
X325229Y64065D01*
X325328Y64567D01*
Y66732D01*
X326575D01*
Y71063D01*
X321457D01*
Y66732D01*
X322703D01*
Y65111D01*
X317960Y60368D01*
X315528D01*
X314980Y61155D01*
X314983Y61171D01*
Y61945D01*
X315938Y62901D01*
X316223Y63326D01*
X316322Y63829D01*
Y66751D01*
X318061D01*
X318480Y66834D01*
X318834Y67071D01*
X319072Y67426D01*
X319155Y67844D01*
Y69557D01*
X319072Y69976D01*
X318834Y70331D01*
X319227Y71016D01*
X319272Y71083D01*
X319372Y71585D01*
Y71941D01*
X315965D01*
X312558D01*
Y71585D01*
X312657Y71083D01*
X312702Y71016D01*
X313095Y70331D01*
X312858Y69976D01*
X312774Y69557D01*
Y67844D01*
X312858Y67426D01*
X313095Y67071D01*
X313450Y66834D01*
X313697Y66785D01*
Y65180D01*
X311762D01*
X311320Y65092D01*
X310946Y64842D01*
X310696Y64467D01*
X309916Y64584D01*
Y70317D01*
X309893Y70433D01*
X309881Y70550D01*
X309863Y70585D01*
X309855Y70624D01*
X309789Y70722D01*
X309734Y70826D01*
X309703Y70852D01*
X309681Y70885D01*
X309583Y70950D01*
X309492Y71025D01*
X309193Y71184D01*
X309273Y71585D01*
Y73297D01*
X309190Y73716D01*
X309392Y73866D01*
X309491Y73929D01*
X309530Y73968D01*
X309623Y74036D01*
X309663Y74097D01*
X309716Y74147D01*
X309750Y74226D01*
X309797Y74296D01*
X309811Y74368D01*
X309840Y74435D01*
X309841Y74520D01*
X309858Y74604D01*
Y79868D01*
X310645Y80107D01*
X310792Y79887D01*
X311237Y79590D01*
X311762Y79485D01*
X312295D01*
Y82284D01*
Y85081D01*
X311762D01*
X311237Y84977D01*
X310792Y84680D01*
X310645Y84460D01*
X309858Y84699D01*
Y87856D01*
X315687Y93685D01*
X351181D01*
X351488Y93747D01*
X351749Y93920D01*
X351749Y93920D01*
X355292Y97464D01*
X355466Y97724D01*
X355527Y98032D01*
Y122708D01*
X355466Y123015D01*
X355292Y123275D01*
X355032Y123449D01*
X354941Y124173D01*
X355118Y124834D01*
Y125560D01*
X354941Y126221D01*
X355032Y126944D01*
X355292Y127118D01*
X355466Y127379D01*
X355527Y127686D01*
Y140945D01*
X355466Y141252D01*
X355403Y141346D01*
X355466Y141440D01*
X355527Y141748D01*
Y149785D01*
X355517Y149838D01*
X355520Y149891D01*
X355486Y149990D01*
X355466Y150092D01*
X356023Y150551D01*
X356536Y151064D01*
X356899Y151692D01*
X357087Y152393D01*
Y153119D01*
X356899Y153820D01*
X356536Y154448D01*
X356023Y154961D01*
X355466Y155419D01*
X355486Y155522D01*
X355520Y155621D01*
X355517Y155674D01*
X355527Y155727D01*
Y163779D01*
X355527Y163779D01*
X355466Y164087D01*
X355292Y164347D01*
X339280Y180359D01*
X339581Y181087D01*
X346457D01*
X346764Y181148D01*
X347024Y181322D01*
X347198Y181582D01*
X347259Y181890D01*
Y200905D01*
X347198Y201213D01*
X347112Y201342D01*
X347024Y201511D01*
Y202150D01*
X347112Y202320D01*
X347198Y202449D01*
X347259Y202756D01*
X347259Y221260D01*
X347198Y221567D01*
X347024Y221828D01*
X346764Y222002D01*
X346457Y222063D01*
X322704D01*
Y239190D01*
X323050Y239259D01*
X323538Y239585D01*
X323865Y240074D01*
X323979Y240650D01*
Y242028D01*
X323865Y242604D01*
X323538Y243092D01*
X323050Y243418D01*
X322474Y243533D01*
D02*
G37*
G36*
X290764Y189189D02*
X276091D01*
Y176484D01*
X290764D01*
Y189189D01*
D02*
G37*
G36*
X275091D02*
X260417D01*
Y176484D01*
X275091D01*
Y189189D01*
D02*
G37*
G36*
X290764Y175484D02*
X276091D01*
Y162779D01*
X290764D01*
Y175484D01*
D02*
G37*
G36*
X275091D02*
X260417D01*
Y162779D01*
X275091D01*
Y175484D01*
D02*
G37*
G36*
X307746Y154232D02*
X306427D01*
X305134Y153975D01*
X303916Y153471D01*
X302820Y152738D01*
X301888Y151806D01*
X301155Y150710D01*
X300651Y149492D01*
X300394Y148199D01*
Y146880D01*
X300651Y145587D01*
X301155Y144369D01*
X301888Y143273D01*
X302820Y142341D01*
X303916Y141608D01*
X305134Y141104D01*
X306427Y140847D01*
X307746D01*
X309039Y141104D01*
X310257Y141608D01*
X311353Y142341D01*
X312285Y143273D01*
X313018Y144369D01*
X313522Y145587D01*
X313779Y146880D01*
Y148199D01*
X313522Y149492D01*
X313018Y150710D01*
X312285Y151806D01*
X311353Y152738D01*
X310257Y153471D01*
X309039Y153975D01*
X307746Y154232D01*
D02*
G37*
G36*
X240969Y136564D02*
X239476D01*
Y132390D01*
X242667D01*
Y134867D01*
X242537Y135517D01*
X242169Y136067D01*
X241619Y136435D01*
X240969Y136564D01*
D02*
G37*
G36*
X329577Y134294D02*
X329043D01*
Y131996D01*
X330948D01*
Y132923D01*
X330843Y133448D01*
X330546Y133893D01*
X330101Y134190D01*
X329577Y134294D01*
D02*
G37*
G36*
X328043D02*
X327510D01*
X326985Y134190D01*
X326540Y133893D01*
X326243Y133448D01*
X326139Y132923D01*
Y131996D01*
X328043D01*
Y134294D01*
D02*
G37*
G36*
X317321Y139370D02*
X316538D01*
X315814Y139070D01*
X315260Y138517D01*
X314961Y137793D01*
Y137010D01*
X315260Y136286D01*
X315616Y135930D01*
Y134843D01*
X314764D01*
Y129724D01*
X319094D01*
Y134843D01*
X318242D01*
Y135930D01*
X318598Y136286D01*
X318898Y137010D01*
Y137793D01*
X318598Y138517D01*
X318044Y139070D01*
X317321Y139370D01*
D02*
G37*
G36*
X330948Y130996D02*
X329043D01*
Y128698D01*
X329577D01*
X330101Y128802D01*
X330546Y129100D01*
X330843Y129544D01*
X330948Y130069D01*
Y130996D01*
D02*
G37*
G36*
X328043D02*
X326139D01*
Y130069D01*
X326243Y129544D01*
X326540Y129100D01*
X326985Y128802D01*
X327510Y128698D01*
X328043D01*
Y130996D01*
D02*
G37*
G36*
X242667Y131390D02*
X239476D01*
Y127215D01*
X240969D01*
X241619Y127345D01*
X242169Y127712D01*
X242537Y128263D01*
X242667Y128912D01*
Y131390D01*
D02*
G37*
G36*
X251596Y129543D02*
X251524D01*
Y125697D01*
X255370D01*
Y125769D01*
X255074Y126874D01*
X254502Y127866D01*
X253692Y128675D01*
X252701Y129247D01*
X251596Y129543D01*
D02*
G37*
G36*
X250524D02*
X250451D01*
X249346Y129247D01*
X248355Y128675D01*
X247546Y127866D01*
X246973Y126874D01*
X246677Y125769D01*
Y125697D01*
X250524D01*
Y129543D01*
D02*
G37*
G36*
X240969Y126328D02*
X239476D01*
Y122153D01*
X242667D01*
Y124631D01*
X242537Y125280D01*
X242169Y125831D01*
X241619Y126199D01*
X240969Y126328D01*
D02*
G37*
G36*
X281568Y129331D02*
X280479D01*
X279428Y129049D01*
X278485Y128505D01*
X277716Y127735D01*
X277171Y126793D01*
X276890Y125741D01*
Y124653D01*
X277171Y123601D01*
X277716Y122659D01*
X278485Y121889D01*
X279428Y121345D01*
X280479Y121063D01*
X281568D01*
X282619Y121345D01*
X283562Y121889D01*
X284331Y122659D01*
X284876Y123601D01*
X285157Y124653D01*
Y125741D01*
X284876Y126793D01*
X284331Y127735D01*
X283562Y128505D01*
X282619Y129049D01*
X281568Y129331D01*
D02*
G37*
G36*
X271568D02*
X270479D01*
X269428Y129049D01*
X268485Y128505D01*
X267716Y127735D01*
X267172Y126793D01*
X266890Y125741D01*
Y124653D01*
X267172Y123601D01*
X267716Y122659D01*
X268485Y121889D01*
X269428Y121345D01*
X270479Y121063D01*
X271568D01*
X272619Y121345D01*
X273562Y121889D01*
X274331Y122659D01*
X274876Y123601D01*
X275157Y124653D01*
Y125741D01*
X274876Y126793D01*
X274331Y127735D01*
X273562Y128505D01*
X272619Y129049D01*
X271568Y129331D01*
D02*
G37*
G36*
X261568D02*
X260479D01*
X259428Y129049D01*
X258485Y128505D01*
X257716Y127735D01*
X257172Y126793D01*
X256890Y125741D01*
Y124653D01*
X257172Y123601D01*
X257716Y122659D01*
X258485Y121889D01*
X259428Y121345D01*
X260479Y121063D01*
X261568D01*
X262619Y121345D01*
X263562Y121889D01*
X264332Y122659D01*
X264876Y123601D01*
X265158Y124653D01*
Y125741D01*
X264876Y126793D01*
X264332Y127735D01*
X263562Y128505D01*
X262619Y129049D01*
X261568Y129331D01*
D02*
G37*
G36*
X255370Y124697D02*
X251524D01*
Y120850D01*
X251596D01*
X252701Y121147D01*
X253692Y121719D01*
X254502Y122528D01*
X255074Y123519D01*
X255370Y124625D01*
Y124697D01*
D02*
G37*
G36*
X250524D02*
X246677D01*
Y124625D01*
X246973Y123519D01*
X247546Y122528D01*
X248355Y121719D01*
X249346Y121147D01*
X250451Y120850D01*
X250524D01*
Y124697D01*
D02*
G37*
G36*
X242667Y121153D02*
X239476D01*
Y116979D01*
X240969D01*
X241619Y117108D01*
X242169Y117476D01*
X242537Y118027D01*
X242667Y118676D01*
Y121153D01*
D02*
G37*
G36*
X252183Y113655D02*
X249283D01*
Y112055D01*
X252183D01*
Y113655D01*
D02*
G37*
G36*
X248283D02*
X245383D01*
Y112055D01*
X248283D01*
Y113655D01*
D02*
G37*
G36*
X252183Y111055D02*
X249283D01*
Y109455D01*
X252183D01*
Y111055D01*
D02*
G37*
G36*
X248283D02*
X245383D01*
Y109455D01*
X248283D01*
Y111055D01*
D02*
G37*
G36*
X298236Y111236D02*
X298138D01*
Y107193D01*
X302181D01*
Y107291D01*
X301871Y108447D01*
X301273Y109483D01*
X300427Y110328D01*
X299391Y110927D01*
X298236Y111236D01*
D02*
G37*
G36*
X297138D02*
X297040D01*
X295884Y110927D01*
X294848Y110328D01*
X294002Y109483D01*
X293404Y108447D01*
X293094Y107291D01*
Y107193D01*
X297138D01*
Y111236D01*
D02*
G37*
G36*
Y106193D02*
X293094D01*
Y106095D01*
X293404Y104939D01*
X294002Y103903D01*
X294848Y103057D01*
X295884Y102459D01*
X297040Y102150D01*
X297138D01*
Y106193D01*
D02*
G37*
G36*
X275544Y102362D02*
X274456D01*
X273404Y102081D01*
X272462Y101536D01*
X271692Y100767D01*
X271148Y99824D01*
X270866Y98773D01*
Y97684D01*
X271148Y96633D01*
X271692Y95690D01*
X272462Y94920D01*
X273404Y94376D01*
X274456Y94095D01*
X275544D01*
X276596Y94376D01*
X277538Y94920D01*
X278308Y95690D01*
X278852Y96633D01*
X279134Y97684D01*
Y98773D01*
X278852Y99824D01*
X278308Y100767D01*
X277538Y101536D01*
X276596Y102081D01*
X275544Y102362D01*
D02*
G37*
G36*
X347397Y90567D02*
X347350D01*
Y86917D01*
X351000D01*
Y86964D01*
X350717Y88019D01*
X350171Y88965D01*
X349398Y89738D01*
X348452Y90284D01*
X347397Y90567D01*
D02*
G37*
G36*
X346350D02*
X346304D01*
X345249Y90284D01*
X344303Y89738D01*
X343530Y88965D01*
X342984Y88019D01*
X342701Y86964D01*
Y86917D01*
X346350D01*
Y90567D01*
D02*
G37*
G36*
X252183Y88458D02*
X249283D01*
Y86858D01*
X252183D01*
Y88458D01*
D02*
G37*
G36*
X248283D02*
X245383D01*
Y86858D01*
X248283D01*
Y88458D01*
D02*
G37*
G36*
X252183Y85858D02*
X249283D01*
Y84258D01*
X252183D01*
Y85858D01*
D02*
G37*
G36*
X248283D02*
X245383D01*
Y84258D01*
X248283D01*
Y85858D01*
D02*
G37*
G36*
X313829Y85081D02*
X313295D01*
Y82784D01*
X315200D01*
Y83711D01*
X315095Y84235D01*
X314798Y84680D01*
X314353Y84977D01*
X313829Y85081D01*
D02*
G37*
G36*
X351000Y85917D02*
X347350D01*
Y82268D01*
X347397D01*
X348452Y82551D01*
X349398Y83097D01*
X350171Y83869D01*
X350717Y84816D01*
X351000Y85871D01*
Y85917D01*
D02*
G37*
G36*
X346350D02*
X342701D01*
Y85871D01*
X342984Y84816D01*
X343530Y83869D01*
X344303Y83097D01*
X345249Y82551D01*
X346304Y82268D01*
X346350D01*
Y85917D01*
D02*
G37*
G36*
X315200Y81783D02*
X313295D01*
Y79485D01*
X313829D01*
X314353Y79590D01*
X314798Y79887D01*
X315095Y80332D01*
X315200Y80856D01*
Y81783D01*
D02*
G37*
G36*
X322016Y85039D02*
X321291D01*
X320590Y84851D01*
X319961Y84489D01*
X319448Y83976D01*
X319085Y83347D01*
X318898Y82646D01*
Y81921D01*
X319085Y81220D01*
X319448Y80591D01*
X319961Y80078D01*
X320341Y79859D01*
Y77494D01*
X319046D01*
X318834Y77811D01*
X318480Y78048D01*
X318061Y78131D01*
X313868D01*
X313450Y78048D01*
X313095Y77811D01*
X312858Y77456D01*
X312774Y77037D01*
Y75325D01*
X312858Y74906D01*
X313095Y74551D01*
X312702Y73866D01*
X312657Y73799D01*
X312558Y73297D01*
Y72941D01*
X315965D01*
X319372D01*
Y73297D01*
X319272Y73799D01*
X319227Y73866D01*
X319091Y74104D01*
X319248Y74602D01*
X319432Y74869D01*
X321457D01*
Y72244D01*
X326575D01*
Y76575D01*
X323707D01*
X322966Y77315D01*
Y79859D01*
X323346Y80078D01*
X323859Y80591D01*
X324222Y81220D01*
X324409Y81921D01*
Y82646D01*
X324222Y83347D01*
X323859Y83976D01*
X323346Y84489D01*
X322717Y84851D01*
X322016Y85039D01*
D02*
G37*
G36*
X351000Y76787D02*
X347350D01*
Y73138D01*
X351000D01*
Y76787D01*
D02*
G37*
G36*
X346350D02*
X342701D01*
Y73138D01*
X346350D01*
Y76787D01*
D02*
G37*
G36*
X351000Y72138D02*
X347350D01*
Y68488D01*
X351000D01*
Y72138D01*
D02*
G37*
G36*
X346350D02*
X342701D01*
Y68488D01*
X346350D01*
Y72138D01*
D02*
G37*
G36*
X252183Y68260D02*
X249283D01*
Y66660D01*
X252183D01*
Y68260D01*
D02*
G37*
G36*
X268835Y69898D02*
X265185D01*
Y66248D01*
X268835D01*
Y69898D01*
D02*
G37*
G36*
X264185D02*
X260535D01*
Y66248D01*
X264185D01*
Y69898D01*
D02*
G37*
G36*
X268835Y65248D02*
X265185D01*
Y61598D01*
X268835D01*
Y65248D01*
D02*
G37*
G36*
X264185D02*
X260535D01*
Y61598D01*
X264185D01*
Y65248D01*
D02*
G37*
G36*
X353256Y62388D02*
Y59949D01*
X355695D01*
X355522Y60595D01*
X355131Y61272D01*
X354579Y61824D01*
X353902Y62215D01*
X353256Y62388D01*
D02*
G37*
G36*
X352256D02*
X351610Y62215D01*
X350933Y61824D01*
X350380Y61272D01*
X349990Y60595D01*
X349817Y59949D01*
X352256D01*
Y62388D01*
D02*
G37*
G36*
X252183Y58261D02*
X249283D01*
Y56661D01*
X252183D01*
Y58261D01*
D02*
G37*
G36*
X355695Y58949D02*
X353256D01*
Y56510D01*
X353902Y56683D01*
X354579Y57073D01*
X355131Y57626D01*
X355522Y58303D01*
X355695Y58949D01*
D02*
G37*
G36*
X352256D02*
X349817D01*
X349990Y58303D01*
X350380Y57626D01*
X350933Y57073D01*
X351610Y56683D01*
X352256Y56510D01*
Y58949D01*
D02*
G37*
G36*
X303192Y56390D02*
X300894D01*
Y54485D01*
X301821D01*
X302345Y54590D01*
X302790Y54887D01*
X303087Y55332D01*
X303192Y55856D01*
Y56390D01*
D02*
G37*
G36*
X299894D02*
X297596D01*
Y55856D01*
X297700Y55332D01*
X297997Y54887D01*
X298442Y54590D01*
X298967Y54485D01*
X299894D01*
Y56390D01*
D02*
G37*
G36*
X252183Y55661D02*
X249283D01*
Y54061D01*
X252183D01*
Y55661D01*
D02*
G37*
G36*
X266158Y57496D02*
X260736D01*
Y53650D01*
X266158D01*
Y57496D01*
D02*
G37*
G36*
X259736D02*
X254315D01*
Y53650D01*
X259736D01*
Y57496D01*
D02*
G37*
G36*
X266158Y52650D02*
X260736D01*
Y48803D01*
X266158D01*
Y52650D01*
D02*
G37*
G36*
X252183Y45663D02*
X249283D01*
Y44063D01*
X252183D01*
Y45663D01*
D02*
G37*
G36*
Y43063D02*
X249283D01*
Y41463D01*
X252183D01*
Y43063D01*
D02*
G37*
G36*
X301544Y38976D02*
X300818D01*
X300117Y38789D01*
X299489Y38426D01*
X298976Y37913D01*
X298757Y37533D01*
X293307D01*
X292805Y37433D01*
X292379Y37149D01*
X290839Y35609D01*
X290107Y35912D01*
X288976Y36061D01*
X287846Y35912D01*
X286792Y35476D01*
X285888Y34782D01*
X285193Y33877D01*
X284757Y32824D01*
X284608Y31693D01*
Y25000D01*
X284757Y23869D01*
X285193Y22816D01*
X285888Y21911D01*
X286792Y21217D01*
X287846Y20781D01*
X288976Y20632D01*
X290107Y20781D01*
X291160Y21217D01*
X292065Y21911D01*
X292759Y22816D01*
X293196Y23869D01*
X293344Y25000D01*
Y31693D01*
X293196Y32824D01*
X292777Y33834D01*
X293851Y34908D01*
X298757D01*
X298976Y34528D01*
X299489Y34015D01*
X300117Y33652D01*
X300818Y33465D01*
X301544D01*
X302245Y33652D01*
X302873Y34015D01*
X303386Y34528D01*
X303749Y35157D01*
X303937Y35858D01*
Y36583D01*
X303749Y37284D01*
X303386Y37913D01*
X302873Y38426D01*
X302245Y38789D01*
X301544Y38976D01*
D02*
G37*
G36*
X339636Y52756D02*
X337529D01*
X335448Y52426D01*
X333444Y51775D01*
X331567Y50819D01*
X329862Y49580D01*
X328373Y48090D01*
X327134Y46386D01*
X326178Y44508D01*
X325526Y42505D01*
X325197Y40424D01*
Y38317D01*
X325526Y36236D01*
X326178Y34232D01*
X327134Y32354D01*
X328373Y30650D01*
X329862Y29160D01*
X331567Y27922D01*
X333444Y26965D01*
X335448Y26314D01*
X337529Y25984D01*
X339636D01*
X341717Y26314D01*
X343721Y26965D01*
X345598Y27922D01*
X347303Y29160D01*
X348793Y30650D01*
X350031Y32354D01*
X350988Y34232D01*
X351639Y36236D01*
X351969Y38317D01*
Y40424D01*
X351639Y42505D01*
X350988Y44508D01*
X350031Y46386D01*
X348793Y48090D01*
X347303Y49580D01*
X345598Y50819D01*
X343721Y51775D01*
X341717Y52426D01*
X339636Y52756D01*
D02*
G37*
G36*
X273622Y21512D02*
X270185D01*
Y17429D01*
X278139D01*
X278048Y18115D01*
X277591Y19220D01*
X276862Y20169D01*
X275913Y20898D01*
X274808Y21355D01*
X273622Y21512D01*
D02*
G37*
G36*
X269185D02*
X265748D01*
X264562Y21355D01*
X263457Y20898D01*
X262508Y20169D01*
X261779Y19220D01*
X261322Y18115D01*
X261231Y17429D01*
X269185D01*
Y21512D01*
D02*
G37*
G36*
X278139Y16429D02*
X270185D01*
Y12347D01*
X273622D01*
X274808Y12503D01*
X275913Y12961D01*
X276862Y13689D01*
X277591Y14638D01*
X278048Y15743D01*
X278139Y16429D01*
D02*
G37*
G36*
X269185D02*
X261231D01*
X261322Y15743D01*
X261779Y14638D01*
X262508Y13689D01*
X263457Y12961D01*
X264562Y12503D01*
X265748Y12347D01*
X269185D01*
Y16429D01*
D02*
G37*
%LPD*%
G36*
X322296Y250591D02*
X322211Y250561D01*
X322136Y250510D01*
X322071Y250439D01*
X322016Y250348D01*
X321971Y250237D01*
X321936Y250105D01*
X321911Y249954D01*
X321896Y249782D01*
X321891Y249589D01*
X320891D01*
X320886Y249782D01*
X320871Y249954D01*
X320846Y250105D01*
X320811Y250237D01*
X320766Y250348D01*
X320711Y250439D01*
X320646Y250510D01*
X320571Y250561D01*
X320486Y250591D01*
X320391Y250601D01*
X322391D01*
X322296Y250591D01*
D02*
G37*
G36*
X321896Y249037D02*
X321911Y248865D01*
X321936Y248713D01*
X321971Y248582D01*
X322016Y248471D01*
X322071Y248379D01*
X322136Y248309D01*
X322211Y248258D01*
X322296Y248228D01*
X322391Y248218D01*
X320391D01*
X320486Y248228D01*
X320571Y248258D01*
X320646Y248309D01*
X320711Y248379D01*
X320766Y248471D01*
X320811Y248582D01*
X320846Y248713D01*
X320871Y248865D01*
X320886Y249037D01*
X320891Y249230D01*
X321891D01*
X321896Y249037D01*
D02*
G37*
G36*
X319712Y245857D02*
X319701Y245951D01*
X319669Y246035D01*
X319614Y246109D01*
X319537Y246173D01*
X319439Y246227D01*
X319319Y246271D01*
X319176Y246306D01*
X319012Y246331D01*
X318826Y246345D01*
X318618Y246350D01*
Y247350D01*
X318826Y247355D01*
X319012Y247370D01*
X319176Y247395D01*
X319319Y247429D01*
X319439Y247474D01*
X319537Y247528D01*
X319614Y247592D01*
X319669Y247666D01*
X319701Y247750D01*
X319712Y247844D01*
Y245857D01*
D02*
G37*
G36*
X312034Y248950D02*
X312753Y248318D01*
X313088Y248061D01*
X313408Y247844D01*
X313711Y247666D01*
X313999Y247528D01*
X314270Y247429D01*
X314525Y247370D01*
X314765Y247350D01*
X314770Y246350D01*
X314529Y246330D01*
X314273Y246271D01*
X314002Y246172D01*
X313715Y246033D01*
X313414Y245854D01*
X313097Y245636D01*
X312765Y245377D01*
X312055Y244742D01*
X311678Y244365D01*
X311650Y249325D01*
X312034Y248950D01*
D02*
G37*
G36*
X322296Y239961D02*
X322211Y239931D01*
X322136Y239880D01*
X322071Y239809D01*
X322016Y239718D01*
X321971Y239607D01*
X321936Y239475D01*
X321911Y239324D01*
X321896Y239152D01*
X321891Y238959D01*
X320891D01*
X320886Y239152D01*
X320871Y239324D01*
X320846Y239475D01*
X320811Y239607D01*
X320766Y239718D01*
X320711Y239809D01*
X320646Y239880D01*
X320571Y239931D01*
X320486Y239961D01*
X320391Y239971D01*
X322391D01*
X322296Y239961D01*
D02*
G37*
G36*
X346457Y202756D02*
X312070D01*
X311984Y203256D01*
X312769Y204041D01*
X313368Y205077D01*
X313677Y206233D01*
Y206331D01*
X309134D01*
X304591D01*
Y206233D01*
X304900Y205077D01*
X305498Y204041D01*
X306283Y203256D01*
X306198Y202756D01*
X303150D01*
Y221260D01*
X306719D01*
X306853Y220760D01*
X306344Y220466D01*
X305498Y219620D01*
X304900Y218584D01*
X304591Y217429D01*
Y217331D01*
X309134D01*
X311664D01*
Y219311D01*
X312045Y218935D01*
X312759Y218301D01*
X313093Y218044D01*
X313411Y217826D01*
X313601Y217714D01*
X313368Y218584D01*
X312769Y219620D01*
X311924Y220466D01*
X311415Y220760D01*
X311549Y221260D01*
X346457D01*
X346457Y202756D01*
D02*
G37*
G36*
X306198Y200906D02*
X306283Y200406D01*
X305498Y199620D01*
X304900Y198584D01*
X304591Y197429D01*
Y197331D01*
X309134D01*
X313677D01*
Y197429D01*
X313368Y198584D01*
X312769Y199620D01*
X311984Y200406D01*
X312070Y200906D01*
X346457Y200905D01*
Y181890D01*
X310180D01*
X310114Y182390D01*
X310888Y182597D01*
X311924Y183195D01*
X312769Y184041D01*
X313368Y185077D01*
X313677Y186233D01*
Y186331D01*
X309134D01*
X304591D01*
Y186233D01*
X304900Y185077D01*
X305498Y184041D01*
X306344Y183195D01*
X307380Y182597D01*
X308154Y182390D01*
X308088Y181890D01*
X303150D01*
Y200906D01*
X306198D01*
D02*
G37*
G36*
X354724Y163779D02*
Y155727D01*
X354721Y155724D01*
X353940D01*
X353185Y155522D01*
X352508Y155131D01*
X351955Y154579D01*
X351565Y153902D01*
X351392Y153256D01*
X354331D01*
Y152256D01*
X351392D01*
X351565Y151610D01*
X351955Y150933D01*
X352508Y150381D01*
X353185Y149990D01*
X353940Y149787D01*
X354721D01*
X354724Y149785D01*
Y141748D01*
X343907Y141748D01*
Y146288D01*
X341132D01*
Y143832D01*
X336543D01*
X336040Y143732D01*
X335972Y143687D01*
X334717D01*
X334695Y143682D01*
X331978D01*
X331890Y143755D01*
Y147244D01*
X330769Y148365D01*
X330786Y148544D01*
X331037Y148919D01*
X331124Y149360D01*
Y152215D01*
X331037Y152656D01*
X330786Y153031D01*
X330412Y153281D01*
X329971Y153369D01*
X327904D01*
X327462Y153281D01*
X327087Y153031D01*
X326976Y152865D01*
X326762Y152775D01*
X326444Y152753D01*
X326360Y152774D01*
X318898Y160236D01*
X303150Y160236D01*
Y180709D01*
X305879D01*
X306087Y180209D01*
X305498Y179620D01*
X304900Y178584D01*
X304591Y177429D01*
Y177331D01*
X309134D01*
Y176831D01*
D01*
Y177331D01*
X313677D01*
Y177429D01*
X313368Y178584D01*
X312769Y179620D01*
X312181Y180209D01*
X312388Y180709D01*
X337795D01*
X354724Y163779D01*
D02*
G37*
G36*
X324133Y149614D02*
X324048Y149583D01*
X323973Y149533D01*
X323908Y149462D01*
X323853Y149371D01*
X323808Y149259D01*
X323773Y149128D01*
X323748Y148976D01*
X323733Y148804D01*
X323728Y148612D01*
X322728D01*
X322723Y148804D01*
X322708Y148976D01*
X322683Y149128D01*
X322648Y149259D01*
X322603Y149371D01*
X322548Y149462D01*
X322483Y149533D01*
X322408Y149583D01*
X322323Y149614D01*
X322228Y149624D01*
X324228D01*
X324133Y149614D01*
D02*
G37*
G36*
X323733Y147415D02*
X323748Y147243D01*
X323773Y147091D01*
X323808Y146960D01*
X323853Y146848D01*
X323908Y146757D01*
X323973Y146687D01*
X324048Y146636D01*
X324133Y146606D01*
X324228Y146596D01*
X322228D01*
X322323Y146606D01*
X322408Y146636D01*
X322483Y146687D01*
X322548Y146757D01*
X322603Y146848D01*
X322648Y146960D01*
X322683Y147091D01*
X322708Y147243D01*
X322723Y147415D01*
X322728Y147608D01*
X323728D01*
X323733Y147415D01*
D02*
G37*
G36*
X341932Y141913D02*
X341922Y141933D01*
X341892Y141951D01*
X341842Y141967D01*
X341772Y141981D01*
X341682Y141993D01*
X341442Y142010D01*
X340932Y142020D01*
Y143020D01*
X341122Y143025D01*
X341292Y143040D01*
X341442Y143065D01*
X341572Y143100D01*
X341682Y143145D01*
X341772Y143200D01*
X341842Y143265D01*
X341892Y143340D01*
X341922Y143425D01*
X341932Y143520D01*
Y141913D01*
D02*
G37*
G36*
X324310Y136859D02*
X324225Y136828D01*
X324150Y136778D01*
X324085Y136707D01*
X324030Y136616D01*
X323986Y136505D01*
X323951Y136373D01*
X323925Y136221D01*
X323910Y136049D01*
X323905Y135857D01*
X322905D01*
X322901Y136049D01*
X322885Y136221D01*
X322861Y136373D01*
X322826Y136505D01*
X322780Y136616D01*
X322726Y136707D01*
X322660Y136778D01*
X322586Y136828D01*
X322500Y136859D01*
X322406Y136869D01*
X324406D01*
X324310Y136859D01*
D02*
G37*
G36*
X323807Y134043D02*
X322406Y134031D01*
X322500Y134042D01*
X322586Y134073D01*
X322660Y134124D01*
X322726Y134195D01*
X322780Y134286D01*
X322826Y134397D01*
X322861Y134529D01*
X322885Y134680D01*
X322901Y134852D01*
X322905Y135043D01*
X323905D01*
X323807Y134043D01*
D02*
G37*
G36*
X323543Y130526D02*
X323458Y130495D01*
X323383Y130445D01*
X323318Y130374D01*
X323263Y130283D01*
X323218Y130172D01*
X323183Y130040D01*
X323158Y129888D01*
X323143Y129716D01*
X323138Y129524D01*
X322138D01*
X322133Y129716D01*
X322118Y129888D01*
X322093Y130040D01*
X322058Y130172D01*
X322013Y130283D01*
X321958Y130374D01*
X321893Y130445D01*
X321818Y130495D01*
X321733Y130526D01*
X321638Y130536D01*
X323638D01*
X323543Y130526D01*
D02*
G37*
G36*
X323143Y129146D02*
X323159Y128983D01*
X323185Y128834D01*
X323221Y128698D01*
X323268Y128575D01*
X323326Y128466D01*
X323394Y128371D01*
X323472Y128289D01*
X323561Y128220D01*
X323660Y128165D01*
X321670Y127965D01*
X321759Y128039D01*
X321838Y128125D01*
X321909Y128222D01*
X321969Y128330D01*
X322021Y128450D01*
X322063Y128581D01*
X322096Y128724D01*
X322119Y128877D01*
X322133Y129042D01*
X322138Y129219D01*
X323138Y129323D01*
X323143Y129146D01*
D02*
G37*
G36*
X354724Y140945D02*
Y127686D01*
X354262Y127495D01*
X354185Y127572D01*
X353508Y127963D01*
X352862Y128136D01*
Y125197D01*
Y122258D01*
X353508Y122431D01*
X354185Y122821D01*
X354262Y122899D01*
X354724Y122708D01*
Y98032D01*
X351181Y94488D01*
X315354D01*
X309055Y88189D01*
Y74604D01*
X308624Y74325D01*
X308555Y74316D01*
X308179Y74391D01*
X303986D01*
X303568Y74308D01*
X303213Y74071D01*
X302976Y73716D01*
X302929Y73481D01*
X301303D01*
X300800Y73381D01*
X300571Y73228D01*
X299195D01*
Y73178D01*
X288995D01*
Y73228D01*
X287795D01*
Y88976D01*
X321654Y122835D01*
X331496D01*
X333071Y124409D01*
Y139782D01*
X336171D01*
X336590Y139865D01*
X336945Y140103D01*
X337182Y140457D01*
X337265Y140876D01*
Y140945D01*
X354724Y140945D01*
D02*
G37*
G36*
X281762Y108663D02*
X281764Y108633D01*
X281771Y108183D01*
X281772Y107673D01*
X280772D01*
X280767Y107863D01*
X280752Y108033D01*
X280727Y108183D01*
X280692Y108313D01*
X280647Y108423D01*
X280592Y108513D01*
X280527Y108583D01*
X280452Y108633D01*
X280367Y108663D01*
X280272Y108673D01*
X281760D01*
X281762Y108663D01*
D02*
G37*
G36*
X282814Y72649D02*
X282733Y72699D01*
X282639Y72723D01*
X282530Y72719D01*
X282409Y72688D01*
X282274Y72630D01*
X282126Y72544D01*
X281965Y72431D01*
X281790Y72291D01*
X281400Y71929D01*
X280605Y72548D01*
X280806Y72756D01*
X281121Y73127D01*
X281235Y73290D01*
X281320Y73437D01*
X281376Y73570D01*
X281403Y73687D01*
X281401Y73789D01*
X281370Y73877D01*
X281310Y73949D01*
X282814Y72649D01*
D02*
G37*
G36*
X303789Y71387D02*
X303745Y71441D01*
X303686Y71489D01*
X303613Y71531D01*
X303526Y71567D01*
X303425Y71598D01*
X303309Y71624D01*
X303180Y71643D01*
X303037Y71657D01*
X302707Y71669D01*
Y72669D01*
X302903Y72674D01*
X303078Y72689D01*
X303232Y72714D01*
X303364Y72749D01*
X303476Y72794D01*
X303567Y72849D01*
X303637Y72914D01*
X303685Y72989D01*
X303713Y73074D01*
X303719Y73169D01*
X303789Y71387D01*
D02*
G37*
G36*
X298531Y71846D02*
X298561Y71828D01*
X298611Y71812D01*
X298681Y71798D01*
X298771Y71786D01*
X299011Y71769D01*
X299521Y71760D01*
Y70760D01*
X299331Y70755D01*
X299161Y70740D01*
X299011Y70715D01*
X298881Y70680D01*
X298771Y70635D01*
X298681Y70580D01*
X298611Y70515D01*
X298561Y70440D01*
X298531Y70355D01*
X298521Y70260D01*
Y71866D01*
X298531Y71846D01*
D02*
G37*
G36*
X315915Y67568D02*
X315830Y67537D01*
X315755Y67487D01*
X315690Y67416D01*
X315635Y67325D01*
X315590Y67213D01*
X315555Y67082D01*
X315530Y66930D01*
X315515Y66758D01*
X315510Y66566D01*
X314510D01*
X314505Y66758D01*
X314490Y66930D01*
X314465Y67082D01*
X314430Y67213D01*
X314385Y67325D01*
X314330Y67416D01*
X314265Y67487D01*
X314190Y67537D01*
X314105Y67568D01*
X314010Y67578D01*
X316010D01*
X315915Y67568D01*
D02*
G37*
G36*
X324921Y67522D02*
X324836Y67492D01*
X324761Y67442D01*
X324696Y67372D01*
X324641Y67282D01*
X324596Y67172D01*
X324561Y67042D01*
X324536Y66892D01*
X324521Y66722D01*
X324516Y66532D01*
X323516D01*
X323511Y66722D01*
X323496Y66892D01*
X323471Y67042D01*
X323436Y67172D01*
X323391Y67282D01*
X323336Y67372D01*
X323271Y67442D01*
X323196Y67492D01*
X323111Y67522D01*
X323016Y67532D01*
X325016D01*
X324921Y67522D01*
D02*
G37*
G36*
X278499Y69028D02*
X278352Y68856D01*
X278222Y68653D01*
X278110Y68418D01*
X278016Y68152D01*
X277941Y67855D01*
X277883Y67527D01*
X277843Y67168D01*
X277821Y66777D01*
X277831Y65902D01*
X274594Y68896D01*
X275063Y68917D01*
X275900Y68999D01*
X276267Y69060D01*
X276601Y69134D01*
X276901Y69222D01*
X277168Y69323D01*
X277400Y69438D01*
X277599Y69566D01*
X277764Y69708D01*
X278499Y69028D01*
D02*
G37*
G36*
X314123Y64192D02*
X314178Y64133D01*
X314234Y64089D01*
X314292Y64059D01*
X314350Y64043D01*
X314409Y64042D01*
X314469Y64056D01*
X314531Y64083D01*
X314593Y64126D01*
X314656Y64182D01*
X314875Y62987D01*
X314734Y62839D01*
X314609Y62693D01*
X314499Y62548D01*
X314404Y62405D01*
X314325Y62263D01*
X314260Y62122D01*
X314211Y61983D01*
X314177Y61844D01*
X314159Y61708D01*
X314156Y61572D01*
X314068Y64265D01*
X314123Y64192D01*
D02*
G37*
G36*
X296546Y67491D02*
X299320D01*
Y69947D01*
X300394D01*
X300896Y70047D01*
X301322Y70332D01*
X301846Y70856D01*
X303183D01*
X303213Y70811D01*
X303568Y70574D01*
X303986Y70491D01*
X308179D01*
X308598Y70574D01*
X308613Y70584D01*
X309113Y70317D01*
Y60630D01*
X308236D01*
X308235Y60040D01*
X307235Y59832D01*
X307230Y60036D01*
X307215Y60218D01*
X307190Y60376D01*
X307155Y60511D01*
X307110Y60624D01*
X307107Y60630D01*
X289764D01*
X284184Y55050D01*
Y40089D01*
X277559Y33465D01*
X262205D01*
X259449Y36220D01*
Y43701D01*
X262205Y46457D01*
X268504D01*
Y55118D01*
X275197Y61811D01*
X275203D01*
X276205Y62079D01*
X277102Y62598D01*
X277835Y63331D01*
X278354Y64228D01*
X278622Y65230D01*
Y65236D01*
X285433Y72047D01*
X296546D01*
Y67491D01*
D02*
G37*
G36*
X289249Y47819D02*
X289184Y47914D01*
X289107Y47999D01*
X289017Y48074D01*
X288914Y48139D01*
X288800Y48194D01*
X288673Y48239D01*
X288533Y48274D01*
X288382Y48299D01*
X288217Y48314D01*
X288041Y48319D01*
Y49319D01*
X288217Y49324D01*
X288382Y49339D01*
X288533Y49364D01*
X288673Y49399D01*
X288800Y49444D01*
X288914Y49499D01*
X289017Y49564D01*
X289107Y49639D01*
X289184Y49724D01*
X289249Y49819D01*
Y47819D01*
D02*
G37*
%LPC*%
G36*
X311664Y216331D02*
X309634D01*
Y212287D01*
X309732D01*
X310888Y212597D01*
X311924Y213195D01*
X312769Y214041D01*
X313368Y215077D01*
X313601Y215948D01*
X313411Y215836D01*
X313093Y215618D01*
X312759Y215360D01*
X312045Y214727D01*
X311664Y214350D01*
Y216331D01*
D02*
G37*
G36*
X308634D02*
X304591D01*
Y216233D01*
X304900Y215077D01*
X305498Y214041D01*
X306344Y213195D01*
X307380Y212597D01*
X308536Y212287D01*
X308634D01*
Y216331D01*
D02*
G37*
G36*
X340657Y214327D02*
Y211130D01*
X343854D01*
X343605Y212058D01*
X343118Y212902D01*
X342429Y213591D01*
X341586Y214078D01*
X340657Y214327D01*
D02*
G37*
G36*
X339657Y214327D02*
X338729Y214078D01*
X337886Y213591D01*
X337197Y212902D01*
X336710Y212058D01*
X336461Y211130D01*
X339657D01*
Y214327D01*
D02*
G37*
G36*
X309732Y211374D02*
X309634D01*
Y207331D01*
X313677D01*
Y207429D01*
X313368Y208584D01*
X312769Y209620D01*
X311924Y210466D01*
X310888Y211064D01*
X309732Y211374D01*
D02*
G37*
G36*
X308634D02*
X308536D01*
X307380Y211064D01*
X306344Y210466D01*
X305498Y209620D01*
X304900Y208584D01*
X304591Y207429D01*
Y207331D01*
X308634D01*
Y211374D01*
D02*
G37*
G36*
X343854Y210130D02*
X340657D01*
Y206933D01*
X341586Y207182D01*
X342429Y207669D01*
X343118Y208358D01*
X343605Y209202D01*
X343854Y210130D01*
D02*
G37*
G36*
X339657D02*
X336461D01*
X336710Y209202D01*
X337197Y208358D01*
X337886Y207669D01*
X338729Y207182D01*
X339657Y206933D01*
Y210130D01*
D02*
G37*
G36*
X313677Y196331D02*
X309634D01*
Y192287D01*
X309732D01*
X310888Y192597D01*
X311924Y193195D01*
X312769Y194041D01*
X313368Y195077D01*
X313677Y196233D01*
Y196331D01*
D02*
G37*
G36*
X308634D02*
X304591D01*
Y196233D01*
X304900Y195077D01*
X305498Y194041D01*
X306344Y193195D01*
X307380Y192597D01*
X308536Y192287D01*
X308634D01*
Y196331D01*
D02*
G37*
G36*
X309732Y191374D02*
X309634D01*
Y187331D01*
X313677D01*
Y187429D01*
X313368Y188584D01*
X312769Y189620D01*
X311924Y190466D01*
X310888Y191064D01*
X309732Y191374D01*
D02*
G37*
G36*
X308634D02*
X308536D01*
X307380Y191064D01*
X306344Y190466D01*
X305498Y189620D01*
X304900Y188584D01*
X304591Y187429D01*
Y187331D01*
X308634D01*
Y191374D01*
D02*
G37*
G36*
X340657Y189917D02*
Y186721D01*
X343854D01*
X343605Y187649D01*
X343118Y188492D01*
X342429Y189181D01*
X341586Y189668D01*
X340657Y189917D01*
D02*
G37*
G36*
X339657Y189917D02*
X338729Y189668D01*
X337886Y189181D01*
X337197Y188492D01*
X336710Y187649D01*
X336461Y186721D01*
X339657D01*
Y189917D01*
D02*
G37*
G36*
X343854Y185721D02*
X340657D01*
Y182524D01*
X341586Y182773D01*
X342429Y183260D01*
X343118Y183949D01*
X343605Y184792D01*
X343854Y185721D01*
D02*
G37*
G36*
X339657D02*
X336461D01*
X336710Y184792D01*
X337197Y183949D01*
X337886Y183260D01*
X338729Y182773D01*
X339657Y182524D01*
Y185721D01*
D02*
G37*
G36*
X313677Y176331D02*
X309634D01*
Y172287D01*
X309732D01*
X310888Y172597D01*
X311924Y173195D01*
X312769Y174041D01*
X313368Y175077D01*
X313677Y176233D01*
Y176331D01*
D02*
G37*
G36*
X308634D02*
X304591D01*
Y176233D01*
X304900Y175077D01*
X305498Y174041D01*
X306344Y173195D01*
X307380Y172597D01*
X308536Y172287D01*
X308634D01*
Y176331D01*
D02*
G37*
G36*
X309732Y171374D02*
X309634D01*
Y167331D01*
X313677D01*
Y167429D01*
X313368Y168584D01*
X312769Y169620D01*
X311924Y170466D01*
X310888Y171064D01*
X309732Y171374D01*
D02*
G37*
G36*
X308634D02*
X308536D01*
X307380Y171064D01*
X306344Y170466D01*
X305498Y169620D01*
X304900Y168584D01*
X304591Y167429D01*
Y167331D01*
X308634D01*
Y171374D01*
D02*
G37*
G36*
X340657Y170232D02*
Y167035D01*
X343854D01*
X343605Y167964D01*
X343118Y168807D01*
X342429Y169496D01*
X341586Y169983D01*
X340657Y170232D01*
D02*
G37*
G36*
X339657Y170232D02*
X338729Y169983D01*
X337886Y169496D01*
X337197Y168807D01*
X336710Y167964D01*
X336461Y167035D01*
X339657D01*
Y170232D01*
D02*
G37*
G36*
X343854Y166035D02*
X340657D01*
Y162839D01*
X341586Y163088D01*
X342429Y163575D01*
X343118Y164264D01*
X343605Y165107D01*
X343854Y166035D01*
D02*
G37*
G36*
X339657D02*
X336461D01*
X336710Y165107D01*
X337197Y164264D01*
X337886Y163575D01*
X338729Y163088D01*
X339657Y162839D01*
Y166035D01*
D02*
G37*
G36*
X313677Y166331D02*
X309634D01*
Y162287D01*
X309732D01*
X310888Y162597D01*
X311924Y163195D01*
X312769Y164041D01*
X313368Y165077D01*
X313677Y166233D01*
Y166331D01*
D02*
G37*
G36*
X308634D02*
X304591D01*
Y166233D01*
X304900Y165077D01*
X305498Y164041D01*
X306344Y163195D01*
X307380Y162597D01*
X308536Y162287D01*
X308634D01*
Y166331D01*
D02*
G37*
G36*
X351862Y128136D02*
X351216Y127963D01*
X350539Y127572D01*
X349987Y127020D01*
X349596Y126343D01*
X349423Y125697D01*
X351862D01*
Y128136D01*
D02*
G37*
G36*
Y124697D02*
X349423D01*
X349596Y124051D01*
X349987Y123374D01*
X350539Y122821D01*
X351216Y122431D01*
X351862Y122258D01*
Y124697D01*
D02*
G37*
G36*
X347397Y118126D02*
X347350D01*
Y114476D01*
X351000D01*
Y114523D01*
X350717Y115578D01*
X350171Y116524D01*
X349398Y117297D01*
X348452Y117843D01*
X347397Y118126D01*
D02*
G37*
G36*
X346350D02*
X346304D01*
X345249Y117843D01*
X344303Y117297D01*
X343530Y116524D01*
X342984Y115578D01*
X342701Y114523D01*
Y114476D01*
X346350D01*
Y118126D01*
D02*
G37*
G36*
X351000Y113476D02*
X347350D01*
Y109827D01*
X347397D01*
X348452Y110110D01*
X349398Y110656D01*
X350171Y111428D01*
X350717Y112375D01*
X351000Y113430D01*
Y113476D01*
D02*
G37*
G36*
X346350D02*
X342701D01*
Y113430D01*
X342984Y112375D01*
X343530Y111428D01*
X344303Y110656D01*
X345249Y110110D01*
X346304Y109827D01*
X346350D01*
Y113476D01*
D02*
G37*
G36*
X317921Y111236D02*
X317823D01*
Y107193D01*
X321866D01*
Y107291D01*
X321556Y108447D01*
X320958Y109483D01*
X320112Y110328D01*
X319076Y110927D01*
X317921Y111236D01*
D02*
G37*
G36*
X316823D02*
X316725D01*
X315569Y110927D01*
X314533Y110328D01*
X313687Y109483D01*
X313089Y108447D01*
X312779Y107291D01*
Y107193D01*
X316823D01*
Y111236D01*
D02*
G37*
G36*
X321866Y106193D02*
X317823D01*
Y102150D01*
X317921D01*
X319076Y102459D01*
X320112Y103057D01*
X320958Y103903D01*
X321556Y104939D01*
X321866Y106095D01*
Y106193D01*
D02*
G37*
G36*
X316823D02*
X312779D01*
Y106095D01*
X313089Y104939D01*
X313687Y103903D01*
X314533Y103057D01*
X315569Y102459D01*
X316725Y102150D01*
X316823D01*
Y106193D01*
D02*
G37*
G36*
X347397Y104347D02*
X347350D01*
Y100697D01*
X351000D01*
Y100743D01*
X350717Y101799D01*
X350171Y102745D01*
X349398Y103517D01*
X348452Y104064D01*
X347397Y104347D01*
D02*
G37*
G36*
X346350D02*
X346304D01*
X345249Y104064D01*
X344303Y103517D01*
X343530Y102745D01*
X342984Y101799D01*
X342701Y100743D01*
Y100697D01*
X346350D01*
Y104347D01*
D02*
G37*
G36*
X351000Y99697D02*
X347350D01*
Y96047D01*
X347397D01*
X348452Y96330D01*
X349398Y96876D01*
X350171Y97649D01*
X350717Y98595D01*
X351000Y99651D01*
Y99697D01*
D02*
G37*
G36*
X346350D02*
X342701D01*
Y99651D01*
X342984Y98595D01*
X343530Y97649D01*
X344303Y96876D01*
X345249Y96330D01*
X346304Y96047D01*
X346350D01*
Y99697D01*
D02*
G37*
G36*
X274016Y45134D02*
X270185D01*
Y41051D01*
X278532D01*
X278442Y41737D01*
X277984Y42842D01*
X277256Y43791D01*
X276307Y44520D01*
X275202Y44978D01*
X274016Y45134D01*
D02*
G37*
G36*
X269185D02*
X265354D01*
X264168Y44978D01*
X263063Y44520D01*
X262114Y43791D01*
X261386Y42842D01*
X260928Y41737D01*
X260838Y41051D01*
X269185D01*
Y45134D01*
D02*
G37*
G36*
X278532Y40051D02*
X270185D01*
Y35969D01*
X274016D01*
X275202Y36125D01*
X276307Y36583D01*
X277256Y37311D01*
X277984Y38260D01*
X278442Y39365D01*
X278532Y40051D01*
D02*
G37*
G36*
X269185D02*
X260838D01*
X260928Y39365D01*
X261386Y38260D01*
X262114Y37311D01*
X263063Y36583D01*
X264168Y36125D01*
X265354Y35969D01*
X269185D01*
Y40051D01*
D02*
G37*
%LPD*%
G36*
X317694Y136491D02*
X317638Y136418D01*
X317589Y136339D01*
X317547Y136255D01*
X317511Y136164D01*
X317481Y136068D01*
X317459Y135965D01*
X317442Y135857D01*
X317432Y135743D01*
X317429Y135623D01*
X316429D01*
X316426Y135743D01*
X316416Y135857D01*
X316400Y135965D01*
X316377Y136068D01*
X316347Y136164D01*
X316312Y136255D01*
X316269Y136339D01*
X316220Y136418D01*
X316164Y136491D01*
X316102Y136558D01*
X317756D01*
X317694Y136491D01*
D02*
G37*
G36*
X317434Y134851D02*
X317449Y134679D01*
X317474Y134527D01*
X317509Y134395D01*
X317554Y134284D01*
X317609Y134193D01*
X317674Y134122D01*
X317749Y134072D01*
X317834Y134041D01*
X317929Y134031D01*
X315929D01*
X316024Y134041D01*
X316109Y134072D01*
X316184Y134122D01*
X316249Y134193D01*
X316304Y134284D01*
X316349Y134395D01*
X316384Y134527D01*
X316409Y134679D01*
X316424Y134851D01*
X316429Y135043D01*
X317429D01*
X317434Y134851D01*
D02*
G37*
G36*
X322558Y80523D02*
X322474Y80445D01*
X322398Y80355D01*
X322334Y80253D01*
X322278Y80138D01*
X322234Y80011D01*
X322199Y79872D01*
X322174Y79720D01*
X322159Y79556D01*
X322153Y79379D01*
X321153D01*
X321148Y79556D01*
X321133Y79720D01*
X321109Y79872D01*
X321074Y80011D01*
X321028Y80138D01*
X320973Y80253D01*
X320908Y80355D01*
X320833Y80445D01*
X320748Y80523D01*
X320654Y80588D01*
X322654D01*
X322558Y80523D01*
D02*
G37*
G36*
X318294Y77081D02*
X318326Y76997D01*
X318379Y76923D01*
X318453Y76859D01*
X318548Y76804D01*
X318664Y76760D01*
X318801Y76726D01*
X318960Y76701D01*
X319139Y76686D01*
X319340Y76681D01*
Y75681D01*
X319139Y75676D01*
X318960Y75661D01*
X318801Y75637D01*
X318664Y75602D01*
X318548Y75558D01*
X318453Y75503D01*
X318379Y75439D01*
X318326Y75365D01*
X318294Y75282D01*
X318284Y75188D01*
Y77174D01*
X318294Y77081D01*
D02*
G37*
G36*
X322838Y76301D02*
X323184Y76011D01*
X323341Y75902D01*
X323488Y75818D01*
X323624Y75758D01*
X323750Y75723D01*
X323865Y75712D01*
X323970Y75726D01*
X324064Y75763D01*
X322268Y74755D01*
X322341Y74814D01*
X322382Y74891D01*
X322390Y74987D01*
X322367Y75101D01*
X322311Y75233D01*
X322223Y75384D01*
X322103Y75553D01*
X321950Y75740D01*
X321549Y76169D01*
X322650Y76482D01*
X322838Y76301D01*
D02*
G37*
G36*
X299485Y35221D02*
X299420Y35315D01*
X299343Y35401D01*
X299253Y35476D01*
X299151Y35541D01*
X299036Y35596D01*
X298909Y35640D01*
X298770Y35675D01*
X298618Y35701D01*
X298454Y35715D01*
X298277Y35721D01*
Y36720D01*
X298454Y36726D01*
X298618Y36740D01*
X298770Y36766D01*
X298909Y36801D01*
X299036Y36845D01*
X299151Y36900D01*
X299253Y36966D01*
X299343Y37040D01*
X299420Y37126D01*
X299485Y37220D01*
Y35221D01*
D02*
G37*
G36*
X292423Y34629D02*
X292276Y34475D01*
X292153Y34331D01*
X292053Y34196D01*
X291976Y34070D01*
X291922Y33953D01*
X291891Y33845D01*
X291884Y33746D01*
X291899Y33656D01*
X291938Y33575D01*
X291999Y33503D01*
X290530Y34853D01*
X290608Y34797D01*
X290694Y34764D01*
X290789Y34753D01*
X290892Y34766D01*
X291005Y34801D01*
X291126Y34858D01*
X291255Y34939D01*
X291393Y35042D01*
X291540Y35168D01*
X291696Y35317D01*
X292423Y34629D01*
D02*
G37*
D10*
X245200Y38412D02*
Y46280D01*
X247638Y16142D02*
X251800Y20304D01*
X243600Y57278D02*
X247611Y61289D01*
X243600Y36715D02*
Y57278D01*
Y36715D02*
X250200Y30115D01*
X245200Y38412D02*
X251800Y31812D01*
Y20304D02*
Y31812D01*
X245200Y46280D02*
X247483Y48563D01*
X241732Y36220D02*
Y68009D01*
X246952Y73228D01*
X241732Y36220D02*
X247638Y30315D01*
X253676Y48292D02*
X253937Y48031D01*
X249054Y48292D02*
X253676D01*
X248783Y48563D02*
X249054Y48292D01*
X252628Y61289D02*
X252756Y61417D01*
X247611Y61289D02*
X252628D01*
X246952Y73228D02*
X248783D01*
X253175Y72441D02*
X253543D01*
X249606Y73622D02*
X250068Y73160D01*
X252456D01*
X253175Y72441D01*
X247483Y48563D02*
X248783D01*
X247638Y22047D02*
X250200Y24610D01*
Y30115D01*
X247638Y27165D02*
Y30315D01*
X247638Y21260D02*
Y22047D01*
X247638Y15748D02*
Y16142D01*
D13*
X321391Y246850D02*
Y251969D01*
X309154Y246850D02*
X321391D01*
X309134Y246831D02*
X309154Y246850D01*
X321391Y220604D02*
Y241339D01*
X317618Y216831D02*
X321391Y220604D01*
X309134Y216831D02*
X317618D01*
X308661Y216358D02*
X309134Y216831D01*
X316929Y132283D02*
Y137402D01*
Y132283D02*
X316929Y132283D01*
X257192Y76884D02*
X259055Y78747D01*
Y84252D01*
X256299Y87008D02*
X259055Y84252D01*
X240102Y70417D02*
X246569Y76884D01*
X257192D01*
X240102Y44433D02*
Y70417D01*
X235827Y40157D02*
X240102Y44433D01*
X256299Y87008D02*
X256401D01*
X45892Y198425D02*
X47487Y196831D01*
X33858Y198425D02*
X45892D01*
X47487Y196831D02*
X49134D01*
X27608Y220817D02*
X30088D01*
X31102Y219803D01*
X19636Y228789D02*
X27608Y220817D01*
X16142Y229803D02*
X17156Y228789D01*
X19636D01*
X221260Y112155D02*
X221860Y111555D01*
X222083D01*
X221260Y112155D02*
Y114961D01*
X225984Y79528D02*
Y83757D01*
X208661Y77165D02*
X223622D01*
X225984Y79528D01*
X223245Y73622D02*
X227772Y78148D01*
X223383Y86358D02*
X225984Y83757D01*
X226378Y95669D02*
X227772Y94276D01*
Y78148D02*
Y94276D01*
X250083Y98957D02*
X253489Y102362D01*
X262239D02*
X265158Y99444D01*
X253489Y102362D02*
X262239D01*
X265158Y98228D02*
Y99444D01*
X298033Y71260D02*
X300394D01*
X301303Y72169D01*
X297933Y70078D02*
Y71160D01*
X298033Y71260D01*
X301303Y72169D02*
X305810D01*
X321654Y76772D02*
X324016Y74410D01*
X315965Y76181D02*
X321850D01*
X321654Y76772D02*
Y82284D01*
X282379Y48819D02*
X290945D01*
X225590Y121653D02*
X226378Y120866D01*
Y111811D02*
X228346Y109843D01*
X226378Y111811D02*
Y120866D01*
Y104602D02*
X228346Y106570D01*
Y109843D01*
X225830Y108268D02*
X225878D01*
X222683Y107155D02*
X224717D01*
X222083Y106555D02*
X222683Y107155D01*
X224717D02*
X225830Y108268D01*
X226378Y95669D02*
Y104602D01*
X225703Y96344D02*
X226378Y95669D01*
X218121Y96344D02*
X225703D01*
X205512Y74016D02*
X208661Y77165D01*
X205512Y50118D02*
Y74016D01*
X222083Y86358D02*
X223383D01*
X199094Y43701D02*
X205512Y50118D01*
X215672Y97270D02*
X216433Y98032D01*
X220866Y74016D02*
X221260D01*
X220783Y61161D02*
X222083D01*
X218396Y63638D02*
X220183Y61851D01*
Y61761D02*
Y61851D01*
X218396Y63638D02*
Y71545D01*
X220183Y61761D02*
X220783Y61161D01*
X220272Y49163D02*
X220872Y48563D01*
X220272Y49163D02*
Y50374D01*
X218396Y52250D02*
Y58774D01*
Y52250D02*
X220272Y50374D01*
X220872Y48563D02*
X222083D01*
X221260Y42963D02*
X221430Y43134D01*
X221260Y40157D02*
Y42963D01*
X221430Y43134D02*
X221654D01*
X222083Y43563D01*
X223383Y56161D02*
X223983Y55561D01*
X224410Y53150D02*
Y53518D01*
X223983Y53945D02*
Y55561D01*
Y53945D02*
X224410Y53518D01*
X225856Y68632D02*
X225984Y68504D01*
X222211Y68632D02*
X225856D01*
X217511Y102229D02*
X220783Y98957D01*
X212465Y102229D02*
X217511D01*
X212205Y101969D02*
X212465Y102229D01*
X20866Y210630D02*
Y215079D01*
X16150Y219795D02*
X20866Y215079D01*
X26378Y210630D02*
Y215079D01*
X30591Y219291D01*
X31496D01*
X334075Y141732D02*
X334717Y142374D01*
X336397D01*
X342420Y142520D02*
X342520Y142620D01*
X336543Y142520D02*
X342420D01*
X342520Y142620D02*
Y143701D01*
X336397Y142374D02*
X336543Y142520D01*
X323654Y137992D02*
X324193D01*
X323406Y137744D02*
X323654Y137992D01*
X322441Y132283D02*
X323406Y133248D01*
Y133642D01*
Y137744D01*
X322835Y133071D02*
X323406Y133642D01*
X322835Y132283D02*
Y133071D01*
Y131890D02*
Y132283D01*
X323870Y145472D02*
X324193D01*
X323228Y146114D02*
X323870Y145472D01*
X322789Y150545D02*
X323228Y150984D01*
X322441Y150197D02*
X322789Y150545D01*
X322441Y150197D02*
X323138D01*
X323228Y150106D01*
Y146114D02*
Y150106D01*
X322789Y150545D02*
X323228Y150984D01*
X322638Y131693D02*
X322835Y131890D01*
X322638Y126575D02*
Y131693D01*
Y126575D02*
X322835Y126378D01*
X281272Y91557D02*
X286221Y86608D01*
Y68504D02*
Y86608D01*
X282779Y74016D02*
X283071D01*
X274685Y65921D02*
X282779Y74016D01*
X274685Y65748D02*
Y65921D01*
X265522Y111584D02*
X268395D01*
X268622Y111811D01*
X261024Y107087D02*
X265522Y111584D01*
X260630Y107087D02*
X261024D01*
X281272Y91557D02*
Y109161D01*
X278622Y111811D02*
X281272Y109161D01*
X275000Y86024D02*
Y87205D01*
X268898Y93307D02*
X275000Y87205D01*
X262598Y93307D02*
X268898D01*
X256693Y99213D02*
X262598Y93307D01*
X256299Y99213D02*
X256693D01*
X248783Y98957D02*
X250083D01*
X32677Y186831D02*
Y192303D01*
X216142Y92520D02*
X216212Y92450D01*
X219735Y93357D02*
X221483D01*
X218828Y92450D02*
X219735Y93357D01*
X221483D02*
X222083Y93957D01*
X216212Y92450D02*
X218828D01*
X216433Y98032D02*
X218121Y96344D01*
X218396Y71545D02*
X220866Y74016D01*
X220783Y98957D02*
X222083D01*
X212992Y89370D02*
X214199Y88163D01*
X212992Y95669D02*
X214593Y97270D01*
X212992Y89370D02*
Y95669D01*
X214593Y97270D02*
X215672D01*
X214199Y88163D02*
X215380D01*
X216142Y87402D01*
X322441Y132283D02*
X322835Y131890D01*
X324016Y64567D02*
Y68898D01*
X318504Y59055D02*
X324016Y64567D01*
X308321Y59055D02*
X318504D01*
X307735Y59641D02*
X308321Y59055D01*
X307735Y59641D02*
Y61327D01*
X307466Y61596D02*
X307735Y61327D01*
X315010Y63829D02*
Y68059D01*
X315652Y68701D01*
X315965D01*
X313779Y62598D02*
X315010Y63829D01*
X222083Y68760D02*
X222211Y68632D01*
X218396Y58774D02*
X220252Y60630D01*
X220866D01*
X299410Y77756D02*
X301268D01*
X302201Y76823D01*
X305441D01*
X293307Y63386D02*
X299803D01*
X300394Y62795D01*
X301476Y62697D02*
X306791D01*
X301181Y62992D02*
X301476Y62697D01*
X306791D02*
X306890Y62598D01*
Y68059D01*
X306083Y68701D02*
X306248D01*
X306890Y68059D01*
X308661Y214567D02*
Y216358D01*
X216142Y81890D02*
X216407Y81624D01*
X221149D01*
X221483Y81958D02*
X222083Y81358D01*
X221483Y81958D02*
X222083Y81358D01*
X221149Y81624D02*
X221483Y81958D01*
X259157Y89764D02*
X259449D01*
X256401Y87008D02*
X259157Y89764D01*
X255906Y87008D02*
X256299D01*
X255837Y81427D02*
X255906Y81496D01*
X248852Y81427D02*
X255837D01*
X248783Y81358D02*
X248852Y81427D01*
X248783Y81358D02*
X249145D01*
X249507D01*
X256043Y93957D02*
X256299Y93701D01*
X248783Y93957D02*
X256043D01*
X305810Y72169D02*
X306083Y72441D01*
X305441Y76823D02*
X306083Y76181D01*
X249213Y106299D02*
X249468Y106555D01*
X254862D02*
X255118Y106299D01*
X249468Y106555D02*
X254862D01*
X293307Y36220D02*
X301181D01*
X289370Y32283D02*
X293307Y36220D01*
X289370Y31102D02*
Y32283D01*
X31890Y219291D02*
Y219685D01*
X48632Y236831D02*
X49134D01*
X31890Y220089D02*
X48632Y236831D01*
X31102Y229803D02*
X48425Y247126D01*
Y247244D01*
X231300Y31300D02*
X232677Y32677D01*
X231300Y21062D02*
X234252Y18110D01*
X231300Y21062D02*
Y31300D01*
X229528Y18110D02*
Y33858D01*
Y18110D02*
X234409Y13228D01*
X229528Y33858D02*
X233071Y37402D01*
X257305Y76772D02*
X257874D01*
X230949Y40157D02*
X235827D01*
X225315Y34523D02*
X230949Y40157D01*
X225315Y33228D02*
Y34523D01*
X234252Y18110D02*
X240158D01*
X234409Y13228D02*
X235315D01*
X241339Y22441D02*
X242126Y21654D01*
X235315Y23228D02*
X236102Y22441D01*
X241339D01*
X240158Y18110D02*
X242126Y16142D01*
X240551Y29134D02*
Y34252D01*
X233071Y37402D02*
X237402D01*
X240551Y34252D01*
Y29134D02*
X242126Y27559D01*
Y27165D02*
Y27559D01*
X225315Y23228D02*
Y33228D01*
Y13228D02*
Y23228D01*
X242126Y15748D02*
Y16142D01*
X222083Y56161D02*
X223383D01*
D16*
X67913Y84055D02*
Y91535D01*
Y84055D02*
X68110Y83858D01*
X67716Y91732D02*
X67913Y91535D01*
X73662Y25945D02*
X74016Y25591D01*
X59882Y25945D02*
X73662D01*
X59055Y26772D02*
X59882Y25945D01*
X44291Y27808D02*
Y40551D01*
Y27808D02*
X44633D01*
X45669Y26772D01*
X128279Y14685D02*
X137279D01*
X143712D01*
X149094Y20067D01*
Y21772D01*
X119280Y14685D02*
X128279D01*
X110280D02*
X119280D01*
X101279D02*
X110280D01*
X92279D02*
X101279D01*
X83280D02*
X92279D01*
X79803D02*
X83280D01*
X78307Y16181D02*
X79803Y14685D01*
X73681Y16181D02*
X78307D01*
X73445Y16417D02*
X73681Y16181D01*
X73445Y16417D02*
Y17323D01*
X73681Y25256D02*
X74016Y25591D01*
X73681Y18465D02*
Y25256D01*
X60827Y52362D02*
Y54528D01*
X42199Y57750D02*
X57604D01*
X60827Y54528D01*
X37229Y62771D02*
X40182D01*
X40748Y62205D01*
Y59596D02*
Y62205D01*
X40354Y59596D02*
X42199Y57750D01*
X44291Y46457D02*
Y52362D01*
Y40551D02*
Y46457D01*
X50197D02*
X55315D01*
X50197Y52362D02*
X55315D01*
X50197Y40551D02*
X55315D01*
X50197Y34646D02*
X55315D01*
D17*
X6890Y103543D02*
D03*
X22638D02*
D03*
Y63976D02*
D03*
X6890D02*
D03*
X22638Y77165D02*
D03*
X6890D02*
D03*
Y90354D02*
D03*
X22638D02*
D03*
X37402Y63976D02*
D03*
X53150D02*
D03*
X37402Y77165D02*
D03*
X53150D02*
D03*
X53150Y90354D02*
D03*
X37402D02*
D03*
X53150Y103543D02*
D03*
X37402D02*
D03*
X18504Y117717D02*
D03*
X34252D02*
D03*
D18*
X17323Y143866D02*
D03*
Y129362D02*
D03*
X33071D02*
D03*
Y143866D02*
D03*
D19*
X136555Y100157D02*
D03*
X131555D02*
D03*
X126555D02*
D03*
X121555D02*
D03*
X116555D02*
D03*
X111555D02*
D03*
X106555D02*
D03*
X101555D02*
D03*
X96555D02*
D03*
X91555D02*
D03*
X86555D02*
D03*
X81555D02*
D03*
Y43150D02*
D03*
X86555D02*
D03*
X91555D02*
D03*
X96555D02*
D03*
X101555D02*
D03*
X106555D02*
D03*
X111555D02*
D03*
X116555D02*
D03*
X121555D02*
D03*
X126555D02*
D03*
X131555D02*
D03*
X136555D02*
D03*
D20*
X67716Y91732D02*
D03*
Y105118D02*
D03*
D21*
X17323Y152362D02*
D03*
Y171260D02*
D03*
X33071D02*
D03*
Y152362D02*
D03*
D22*
X260236Y53150D02*
D03*
X275984D02*
D03*
D23*
X73445Y17323D02*
D03*
X65925D02*
D03*
D24*
X290256Y82678D02*
D03*
X292815D02*
D03*
X295374D02*
D03*
X297933D02*
D03*
Y70078D02*
D03*
X295374D02*
D03*
X292815D02*
D03*
X290256D02*
D03*
X350197Y143701D02*
D03*
X347638D02*
D03*
X345079D02*
D03*
X342520D02*
D03*
Y131101D02*
D03*
X345079D02*
D03*
X347638D02*
D03*
X350197D02*
D03*
D25*
X315965Y68701D02*
D03*
Y72441D02*
D03*
Y76181D02*
D03*
X306083Y68701D02*
D03*
Y72441D02*
D03*
Y76181D02*
D03*
X324193Y145472D02*
D03*
Y141732D02*
D03*
Y137992D02*
D03*
X334075Y145472D02*
D03*
Y141732D02*
D03*
Y137992D02*
D03*
D26*
X300394Y56890D02*
D03*
Y62795D02*
D03*
X323228Y156890D02*
D03*
Y150984D02*
D03*
X77165Y112008D02*
D03*
Y117913D02*
D03*
X72047Y117913D02*
D03*
Y112008D02*
D03*
X66929Y117913D02*
D03*
Y112008D02*
D03*
X61811Y117913D02*
D03*
Y112008D02*
D03*
D27*
X256299Y99213D02*
D03*
Y93701D02*
D03*
X33858Y198425D02*
D03*
Y192913D02*
D03*
X324016Y68898D02*
D03*
Y74410D02*
D03*
D28*
X222083Y106555D02*
D03*
Y111555D02*
D03*
X248783D02*
D03*
Y106555D02*
D03*
Y93957D02*
D03*
Y98957D02*
D03*
X222083D02*
D03*
Y93957D02*
D03*
X248783Y48563D02*
D03*
Y43563D02*
D03*
X222083D02*
D03*
Y48563D02*
D03*
X248783Y61161D02*
D03*
Y56161D02*
D03*
X222083D02*
D03*
Y61161D02*
D03*
X248783Y73760D02*
D03*
Y68760D02*
D03*
X222083D02*
D03*
Y73760D02*
D03*
Y81358D02*
D03*
Y86358D02*
D03*
X248783D02*
D03*
Y81358D02*
D03*
D29*
X255118Y106299D02*
D03*
X260630D02*
D03*
X316929Y132283D02*
D03*
X322441D02*
D03*
X26378Y210630D02*
D03*
X20866D02*
D03*
D30*
X334449Y131496D02*
D03*
X328543D02*
D03*
X334842Y150787D02*
D03*
X328937D02*
D03*
X306890Y82284D02*
D03*
X312795D02*
D03*
X306890Y62598D02*
D03*
X312795D02*
D03*
X44291Y52362D02*
D03*
X50197D02*
D03*
X44291Y46457D02*
D03*
X50197D02*
D03*
X44291Y40551D02*
D03*
X50197D02*
D03*
X44291Y34646D02*
D03*
X50197D02*
D03*
D31*
X255906Y81496D02*
D03*
Y87008D02*
D03*
X283071Y68504D02*
D03*
Y74016D02*
D03*
X321391Y246850D02*
D03*
Y241339D02*
D03*
X61811Y122638D02*
D03*
Y128150D02*
D03*
X66929D02*
D03*
Y122638D02*
D03*
X72047D02*
D03*
Y128150D02*
D03*
X77165D02*
D03*
Y122638D02*
D03*
X216142Y81890D02*
D03*
Y87402D02*
D03*
Y98032D02*
D03*
Y92520D02*
D03*
X321391Y257480D02*
D03*
Y251969D02*
D03*
D32*
X247638Y27165D02*
D03*
X242126D02*
D03*
Y15748D02*
D03*
X247638D02*
D03*
X242126Y21654D02*
D03*
X247638D02*
D03*
X55315Y52362D02*
D03*
X60827D02*
D03*
X60827Y46457D02*
D03*
X55315D02*
D03*
X55315Y40551D02*
D03*
X60827D02*
D03*
Y34646D02*
D03*
X55315D02*
D03*
D33*
X225590Y131890D02*
D03*
X238976D02*
D03*
X225590Y121653D02*
D03*
X238976D02*
D03*
X59055Y26772D02*
D03*
X45669D02*
D03*
D53*
X301181Y36220D02*
D03*
X322835Y126378D02*
D03*
X321654Y82284D02*
D03*
X257874Y76772D02*
D03*
X352362Y125197D02*
D03*
X354331Y152756D02*
D03*
X352756Y59449D02*
D03*
X290945Y48819D02*
D03*
D66*
X251024Y125197D02*
D03*
X261024D02*
D03*
X281024D02*
D03*
X271024D02*
D03*
X265158Y86024D02*
D03*
X275000D02*
D03*
X265158Y98228D02*
D03*
X275000D02*
D03*
D67*
X309134Y166831D02*
D03*
Y176831D02*
D03*
Y186831D02*
D03*
Y196831D02*
D03*
Y206831D02*
D03*
Y216831D02*
D03*
Y226831D02*
D03*
Y236831D02*
D03*
Y246831D02*
D03*
X49134Y176831D02*
D03*
Y186831D02*
D03*
Y196831D02*
D03*
Y206831D02*
D03*
Y216831D02*
D03*
Y226831D02*
D03*
Y236831D02*
D03*
Y246831D02*
D03*
X317323Y106693D02*
D03*
X297638D02*
D03*
D74*
X275590Y175984D02*
D03*
Y236831D02*
D03*
D75*
X151181Y240551D02*
D03*
D76*
X87402Y175984D02*
D03*
D77*
X57087Y161024D02*
Y171105D01*
X52324Y175868D02*
X57087Y171105D01*
X55504Y186228D02*
X63779Y177953D01*
Y164567D02*
X79527Y148819D01*
X63779Y164567D02*
Y177953D01*
X57087Y161024D02*
X75197Y142913D01*
X198031Y148819D02*
X211595Y135256D01*
X211703Y135148D02*
X211811Y135039D01*
X211595D02*
Y135256D01*
X75197Y142913D02*
X195276D01*
X214862Y123327D02*
X224902D01*
X195276Y142913D02*
X214862Y123327D01*
X224902D02*
X225590Y122638D01*
Y121653D02*
Y122638D01*
X211811Y135039D02*
X214961Y131890D01*
X225590D01*
X79527Y148819D02*
X198031D01*
X49736Y186228D02*
X55504D01*
X49134Y186831D02*
X49736Y186228D01*
X17323Y129362D02*
X19075D01*
D78*
X157677Y108071D02*
X159964Y110357D01*
X160210D01*
X157677Y102798D02*
Y108071D01*
X161701Y111849D02*
X162380D01*
X160210Y110357D02*
X161701Y111849D01*
X159711Y107294D02*
X162826D01*
X160869Y99606D02*
X164724D01*
X162826Y107294D02*
X163208Y107677D01*
X162380Y111849D02*
X168208Y117677D01*
X159236Y106819D02*
X159711Y107294D01*
X159236Y103444D02*
Y106819D01*
X82634Y35260D02*
Y35553D01*
X83276Y36195D01*
X165173Y30353D02*
X174830D01*
X164698Y30828D02*
X165173Y30353D01*
X164698Y30828D02*
Y31680D01*
X164300Y32079D02*
X164698Y31680D01*
X163104Y32079D02*
X164300D01*
X162706Y31680D02*
X163104Y32079D01*
X162706Y30751D02*
Y31680D01*
X162308Y30353D02*
X162706Y30751D01*
X161112Y30353D02*
X162308D01*
X160714Y30751D02*
X161112Y30353D01*
X160714Y30751D02*
Y31680D01*
X160316Y32079D02*
X160714Y31680D01*
X159120Y32079D02*
X160316D01*
X158722Y31680D02*
X159120Y32079D01*
X158722Y30828D02*
Y31680D01*
X158247Y30353D02*
X158722Y30828D01*
X157841Y30353D02*
X158247D01*
X174830D02*
X177334D01*
X179728Y126177D02*
X181916Y123990D01*
X179057Y126177D02*
X179728D01*
X178581Y125702D02*
X179057Y126177D01*
X178581Y125208D02*
Y125702D01*
X178222Y124849D02*
X178581Y125208D01*
X177145Y124849D02*
X178222D01*
X176786Y125208D02*
X177145Y124849D01*
X176786Y125208D02*
Y127594D01*
X176427Y127953D02*
X176786Y127594D01*
X175350Y127953D02*
X176427D01*
X174991Y127594D02*
X175350Y127953D01*
X174991Y126441D02*
Y127594D01*
X174632Y126082D02*
X174991Y126441D01*
X173555Y126082D02*
X174632D01*
X173196Y126441D02*
X173555Y126082D01*
X173196Y126441D02*
Y127594D01*
X172836Y127953D02*
X173196Y127594D01*
X171759Y127953D02*
X172836D01*
X171400Y127594D02*
X171759Y127953D01*
X171400Y127217D02*
Y127594D01*
X171041Y126858D02*
X171400Y127217D01*
X169964Y126858D02*
X171041D01*
X169605Y127217D02*
X169964Y126858D01*
X169605Y127217D02*
Y127478D01*
X169130Y127953D02*
X169605Y127478D01*
X166929Y127953D02*
X169130D01*
X181916Y123990D02*
X182299Y123606D01*
X165972Y127953D02*
X166929D01*
X165326Y129512D02*
X178598D01*
X164232Y128417D02*
X165326Y129512D01*
X164877Y126858D02*
X165972Y127953D01*
X178598Y129512D02*
X183858Y124252D01*
X181008Y133323D02*
X187707Y126624D01*
X84835Y106252D02*
X111906Y133323D01*
X181654Y134882D02*
X188809Y127726D01*
X111906Y133323D02*
X181008D01*
X83276Y106898D02*
X111260Y134882D01*
X181654D01*
X183858Y114563D02*
Y124252D01*
X182299Y115209D02*
Y123606D01*
X148416Y126858D02*
X164877D01*
X178209Y117677D02*
X181152Y114734D01*
X181824D02*
X182299Y115209D01*
X181152Y114734D02*
X181824D01*
X183208Y113913D02*
X183858Y114563D01*
X183208Y107677D02*
Y113913D01*
X148416Y128417D02*
X164232D01*
X147079Y126383D02*
X147554Y126858D01*
X141969Y122052D02*
Y127144D01*
X147554Y126858D02*
X148416D01*
X147079Y122052D02*
Y126383D01*
X141969Y122052D02*
X143280Y120740D01*
X145767D02*
X147079Y122052D01*
X143280Y120740D02*
X145767D01*
X140375Y127542D02*
X141570D01*
X141969Y127144D01*
X139977D02*
X140375Y127542D01*
X139977Y122346D02*
Y127144D01*
X134866Y122346D02*
X136178Y121035D01*
X130329Y126858D02*
X134391D01*
X116228D02*
X130329D01*
X134866Y122346D02*
Y126383D01*
X134391Y126858D02*
X134866Y126383D01*
X136178Y121035D02*
X138665D01*
X139977Y122346D01*
X99835Y110465D02*
X116228Y126858D01*
X101555Y100157D02*
Y103169D01*
X99835Y104735D02*
X100310Y104260D01*
X99835Y104735D02*
Y110465D01*
X100465Y104260D02*
X101555Y103169D01*
X100310Y104260D02*
X100465D01*
X148416Y128417D02*
Y128417D01*
X146908D02*
X148416D01*
X145520Y127029D02*
X146908Y128417D01*
X143528Y122698D02*
Y127789D01*
X145520Y122698D02*
Y127029D01*
X143528Y122698D02*
X143926Y122299D01*
X145121D02*
X145520Y122698D01*
X143926Y122299D02*
X145121D01*
X139729Y129101D02*
X142216D01*
X143528Y127789D01*
X138417D02*
X139729Y129101D01*
X138417Y122992D02*
Y127789D01*
X136425Y122992D02*
X136824Y122594D01*
X130329Y128417D02*
X135037D01*
X136425Y127029D01*
X130329Y128417D02*
Y128417D01*
X136425Y122992D02*
Y127029D01*
X115583Y128417D02*
X130329D01*
X136824Y122594D02*
X138019D01*
X138417Y122992D01*
X98276Y111110D02*
X115583Y128417D01*
X98276Y104735D02*
Y111110D01*
X97800Y104260D02*
X98276Y104735D01*
X96555Y103169D02*
X97646Y104260D01*
X97800D01*
X96555Y100157D02*
Y103169D01*
X188602Y105925D02*
Y117677D01*
X174778Y111820D02*
X177364Y109235D01*
X157299Y123047D02*
X170890D01*
X173219Y108060D02*
Y111174D01*
Y108060D02*
X173232Y108047D01*
X172457Y111937D02*
X173219Y111174D01*
X172457Y111937D02*
Y119276D01*
X170890Y123047D02*
X174016Y119921D01*
X181102Y103150D02*
X185827D01*
X177364Y106888D02*
Y109235D01*
X174016Y112583D02*
X174778Y111820D01*
X185827Y103150D02*
X188602Y105925D01*
X177364Y106888D02*
X181102Y103150D01*
X174778Y111820D02*
Y111820D01*
X174016Y112583D02*
Y119921D01*
X114173Y114803D02*
X114173Y114803D01*
X114173Y114803D02*
X116299Y116929D01*
X118883D01*
X120271Y115541D01*
Y110509D02*
Y115541D01*
Y110509D02*
X120670Y110111D01*
X121865D01*
X122263Y110509D01*
Y121736D01*
X123575Y123047D01*
X126062D01*
X127374Y121736D01*
Y117404D02*
Y121736D01*
Y117404D02*
X127849Y116929D01*
X132262D01*
Y116929D02*
Y116929D01*
X114835Y107799D02*
Y113260D01*
X116945Y115370D01*
X118237D01*
X118712Y114895D01*
Y109864D02*
Y114895D01*
Y109864D02*
X120024Y108552D01*
X122511D01*
X123822Y109864D01*
Y121090D01*
X124221Y121488D01*
X125416D01*
X125814Y121090D01*
Y116758D02*
Y121090D01*
Y116758D02*
X127203Y115370D01*
X132262D01*
X163056Y121488D02*
X169014D01*
X162581Y121013D02*
X163056Y121488D01*
X162581Y117799D02*
Y121013D01*
X162222Y117440D02*
X162581Y117799D01*
X161145Y117440D02*
X162222D01*
X160786Y117799D02*
X161145Y117440D01*
X160786Y117799D02*
Y121129D01*
X160427Y121488D02*
X160786Y121129D01*
X159350Y121488D02*
X160427D01*
X158991Y121129D02*
X159350Y121488D01*
X158991Y114527D02*
Y121129D01*
X158632Y114169D02*
X158991Y114527D01*
X157554Y114169D02*
X158632D01*
X157195Y114527D02*
X157554Y114169D01*
X157195Y114527D02*
Y118584D01*
X156836Y118943D02*
X157195Y118584D01*
X155759Y118943D02*
X156836D01*
X155400Y118584D02*
X155759Y118943D01*
X155400Y112196D02*
Y118584D01*
X155041Y111837D02*
X155400Y112196D01*
X153964Y111837D02*
X155041D01*
X153605Y112196D02*
X153964Y111837D01*
X153605Y112196D02*
Y115143D01*
X153246Y115502D02*
X153605Y115143D01*
X152169Y115502D02*
X153246D01*
X151810Y115143D02*
X152169Y115502D01*
X151810Y112196D02*
Y115143D01*
X151451Y111837D02*
X151810Y112196D01*
X150373Y111837D02*
X151451D01*
X150014Y112196D02*
X150373Y111837D01*
X150014Y112196D02*
Y114895D01*
X149539Y115370D02*
X150014Y114895D01*
X147338Y115370D02*
X149539D01*
X169014Y121488D02*
X170244D01*
X132262Y115370D02*
X147338D01*
X188809Y127726D02*
X194560Y121975D01*
X192165Y122165D02*
X192452Y121879D01*
X191482Y122848D02*
X192165Y122165D01*
X190811Y122848D02*
X191482D01*
X190415Y122453D02*
X190811Y122848D01*
X189852Y122453D02*
X190415D01*
X189006Y123298D02*
X189852Y122453D01*
X189006Y123298D02*
Y123861D01*
X189402Y124257D01*
Y124929D01*
X187993Y126337D02*
X189402Y124929D01*
X187707Y126624D02*
X187993Y126337D01*
X192452Y121879D02*
X193001Y121329D01*
X194560Y117646D02*
X194560Y117646D01*
X194560Y115258D02*
Y117646D01*
X194560Y117646D02*
Y121975D01*
X132262Y116929D02*
X151181D01*
X177334Y30353D02*
X180301Y27386D01*
X136221Y30353D02*
X157841D01*
X167971Y35890D02*
X169014Y34847D01*
X127646Y38020D02*
Y42059D01*
X132669Y37449D02*
X168617D01*
X169014Y34847D02*
X169660D01*
X129776Y35890D02*
X167971D01*
X132194Y37924D02*
Y42511D01*
X131555Y43150D02*
X132194Y42511D01*
X169660Y34847D02*
X169660Y34847D01*
X127646Y38020D02*
X129776Y35890D01*
X132194Y37924D02*
X132669Y37449D01*
X168617D02*
X169660Y36406D01*
X192845Y34847D02*
X192936Y34756D01*
X192074Y34847D02*
X192845D01*
X192074Y34847D02*
X192074Y34847D01*
X190141Y34847D02*
X192074D01*
X188753Y36235D02*
X190141Y34847D01*
X188753Y36235D02*
Y39073D01*
X188355Y39471D02*
X188753Y39073D01*
X187159Y39471D02*
X188355D01*
X186761Y39073D02*
X187159Y39471D01*
X186761Y35651D02*
Y39073D01*
X185449Y34339D02*
X186761Y35651D01*
X182962Y34339D02*
X185449D01*
X181651Y35651D02*
X182962Y34339D01*
X181651Y35651D02*
Y39073D01*
X181252Y39471D02*
X181651Y39073D01*
X180057Y39471D02*
X181252D01*
X179659Y39073D02*
X180057Y39471D01*
X179659Y35651D02*
Y39073D01*
X178347Y34339D02*
X179659Y35651D01*
X175860Y34339D02*
X178347D01*
X174548Y35651D02*
X175860Y34339D01*
X174548Y35651D02*
Y39073D01*
X174150Y39471D02*
X174548Y39073D01*
X172955Y39471D02*
X174150D01*
X172556Y39073D02*
X172955Y39471D01*
X172556Y36235D02*
Y39073D01*
X171168Y34847D02*
X172556Y36235D01*
X169660Y34847D02*
X171168D01*
X169660D02*
Y34847D01*
X192936Y36406D02*
Y36406D01*
X192074Y36406D02*
X192936D01*
X192074Y36406D02*
X192074Y36406D01*
X190787Y36406D02*
X192074D01*
X190312Y36881D02*
X190787Y36406D01*
X190312Y36881D02*
Y39719D01*
X189000Y41030D02*
X190312Y39719D01*
X186514Y41030D02*
X189000D01*
X185202Y39719D02*
X186514Y41030D01*
X185202Y36297D02*
Y39719D01*
X184803Y35898D02*
X185202Y36297D01*
X183608Y35898D02*
X184803D01*
X183210Y36297D02*
X183608Y35898D01*
X183210Y36297D02*
Y39719D01*
X181898Y41030D02*
X183210Y39719D01*
X179411Y41030D02*
X181898D01*
X178100Y39719D02*
X179411Y41030D01*
X178100Y36297D02*
Y39719D01*
X177701Y35898D02*
X178100Y36297D01*
X176506Y35898D02*
X177701D01*
X176107Y36297D02*
X176506Y35898D01*
X176107Y36297D02*
Y39719D01*
X174796Y41030D02*
X176107Y39719D01*
X172309Y41030D02*
X174796D01*
X170997Y39719D02*
X172309Y41030D01*
X170997Y36881D02*
Y39719D01*
X170522Y36406D02*
X170997Y36881D01*
X169660Y36406D02*
X170522D01*
X108218Y30353D02*
Y30353D01*
X111542D01*
X112017Y30828D01*
Y30828D01*
X113329Y32140D01*
X115816D01*
X117127Y30828D01*
Y29317D02*
Y30828D01*
Y29317D02*
X117526Y28918D01*
X118721D01*
X119120Y29317D01*
Y31010D01*
X120431Y32322D01*
X122918D01*
X124230Y31010D01*
Y28605D02*
Y31010D01*
Y28605D02*
X124628Y28207D01*
X125823D01*
X126222Y28605D01*
Y29724D01*
X127533Y31036D01*
X130020D01*
X131332Y29724D01*
Y28605D02*
Y29724D01*
Y28605D02*
X131730Y28207D01*
X132926D01*
X133324Y28605D01*
Y28965D01*
X134713Y30353D01*
X136221D01*
Y30353D02*
Y30353D01*
X108218Y28794D02*
X112188D01*
X113576Y30182D01*
Y30182D01*
X113975Y30581D01*
X115170D01*
X115568Y30182D01*
Y28671D02*
Y30182D01*
Y28671D02*
X116880Y27359D01*
X119367D01*
X120678Y28671D01*
Y30364D01*
X121077Y30762D01*
X122272D01*
X122671Y30364D01*
Y27959D02*
Y30364D01*
Y27959D02*
X123982Y26648D01*
X126469D01*
X127781Y27959D01*
Y29079D01*
X128179Y29477D01*
X129375D01*
X129773Y29079D01*
Y27959D02*
Y29079D01*
Y27959D02*
X131085Y26648D01*
X133572D01*
X134883Y27959D01*
Y28319D01*
X135358Y28794D01*
X136221D01*
X103785Y30353D02*
X108218D01*
X103139Y28794D02*
X108218D01*
X136221D02*
X176688D01*
X98276Y33657D02*
X103139Y28794D01*
X99835Y34303D02*
X103785Y30353D01*
X163370Y101165D02*
X164550D01*
X165289Y101903D01*
X165852D01*
X166697Y101058D01*
Y100495D02*
Y101058D01*
X166651Y100448D02*
X166697Y100495D01*
X166651Y99885D02*
Y100448D01*
Y99885D02*
X167496Y99040D01*
X168059D01*
X169488Y100468D01*
X170051D01*
X170896Y99623D01*
Y99059D02*
Y99623D01*
X169468Y97631D02*
X170896Y99059D01*
X169468Y97067D02*
Y97631D01*
Y97067D02*
X170313Y96222D01*
X170877D01*
X172305Y97650D01*
X172868D01*
X173713Y96805D01*
Y96242D02*
Y96805D01*
X172339Y94868D02*
X173713Y96242D01*
X172339Y94196D02*
Y94868D01*
Y94196D02*
X173748Y92787D01*
Y92787D02*
X174031Y92504D01*
X174038D01*
X181273D01*
X161514Y101165D02*
X163370D01*
X146850Y97606D02*
Y101112D01*
Y97606D02*
X147581Y96876D01*
X147581D01*
X148016Y96441D01*
X148869D01*
X149344Y96916D01*
Y99395D01*
X150656Y100706D01*
X153143D01*
X154454Y99395D01*
Y93420D02*
Y99395D01*
Y93420D02*
X154853Y93022D01*
X156048D01*
X156447Y93420D01*
Y95053D01*
X157835Y96441D01*
X159343D01*
Y96441D02*
Y96441D01*
X146073Y96179D02*
X146073Y96179D01*
X146479Y95773D01*
Y95773D02*
Y95773D01*
Y95773D02*
X147370Y94882D01*
X149515D01*
X150903Y96270D01*
Y98749D01*
X151302Y99147D01*
X152497D01*
X152895Y98749D01*
Y92774D02*
Y98749D01*
Y92774D02*
X154207Y91463D01*
X156694D01*
X158006Y92774D01*
Y94407D01*
X158481Y94882D01*
X159343D01*
X146850Y101112D02*
Y103795D01*
X159343Y96441D02*
X160252D01*
X159343Y94882D02*
X159606D01*
X145291Y96961D02*
X146073Y96179D01*
X159606Y94882D02*
X169352Y85136D01*
X192936Y34756D02*
X195393Y32299D01*
X192936Y36406D02*
X193491D01*
X114835Y104735D02*
Y107799D01*
X84835Y104735D02*
Y106252D01*
X83276Y104735D02*
Y106898D01*
X151181Y116929D02*
X157299Y123047D01*
X113276Y113906D02*
X114173Y114803D01*
X160252Y96441D02*
X169997Y86696D01*
X181273Y85136D02*
X182661Y86525D01*
X180627Y86696D02*
X181102Y87171D01*
X169997Y86696D02*
X180627D01*
X181102Y87171D02*
Y90470D01*
X182661Y86525D02*
Y91116D01*
X169352Y85136D02*
X181273D01*
X164724Y99606D02*
X173386Y90945D01*
X159236Y103444D02*
X161514Y101165D01*
X157677Y102798D02*
X160869Y99606D01*
X129664Y110614D02*
X140032D01*
X130310Y109055D02*
X139386D01*
X145291Y96961D02*
Y103150D01*
X180627Y90945D02*
X181102Y90470D01*
X173386Y90945D02*
X180627D01*
X128276Y104735D02*
Y109226D01*
X129664Y110614D01*
X127801Y104260D02*
X128276Y104735D01*
X127646Y104260D02*
X127801D01*
X126555Y100157D02*
Y103169D01*
X127646Y104260D01*
X181273Y92504D02*
X182661Y91116D01*
X129835Y108580D02*
X130310Y109055D01*
X129835Y104735D02*
X130310Y104260D01*
X129835Y104735D02*
Y108580D01*
X130310Y104260D02*
X130465D01*
X131583Y101488D02*
Y103141D01*
X130465Y104260D02*
X131583Y103141D01*
X139386Y109055D02*
X145291Y103150D01*
X140032Y110614D02*
X146850Y103795D01*
X170244Y121488D02*
X172457Y119276D01*
X113276Y104735D02*
Y113906D01*
X193846Y107922D02*
Y113767D01*
X193001Y114612D02*
X193846Y113767D01*
X195036Y114783D02*
X195707D01*
X193001Y118292D02*
Y121329D01*
X193001Y114612D02*
Y118292D01*
X193001Y118292D01*
X195707Y114783D02*
X198602Y117677D01*
X194560Y115258D02*
X195036Y114783D01*
X111555Y103169D02*
X112646Y104260D01*
X112801D01*
X111555Y100157D02*
Y103169D01*
X115465Y104260D02*
X116555Y103169D01*
X115310Y104260D02*
X115465D01*
X116555Y100157D02*
Y103169D01*
X114835Y104735D02*
X115310Y104260D01*
X112801D02*
X113276Y104735D01*
X81555Y100157D02*
Y103169D01*
X82646Y104260D01*
X82801D01*
X83276Y104735D01*
X85310Y104260D02*
X85465D01*
X84835Y104735D02*
X85310Y104260D01*
X86555Y100157D02*
Y103169D01*
X85465Y104260D02*
X86555Y103169D01*
X193602Y107677D02*
X193846Y107922D01*
X126555Y43150D02*
X127646Y42059D01*
X195076Y23347D02*
X195930Y24200D01*
Y26601D01*
X195393Y27138D02*
Y32299D01*
Y27138D02*
X195930Y26601D01*
X192004Y23902D02*
X194033D01*
X194589Y23347D02*
X195076D01*
X194033Y23902D02*
X194589Y23347D01*
X191142Y24764D02*
X192004Y23902D01*
X99835Y38572D02*
X100310Y39047D01*
X101555Y40138D02*
Y43150D01*
X100465Y39047D02*
X101555Y40138D01*
X100310Y39047D02*
X100465D01*
X99835Y34303D02*
Y38572D01*
X97800Y39047D02*
X98276Y38572D01*
X96555Y40138D02*
Y43150D01*
Y40138D02*
X97646Y39047D01*
X97800D01*
X98276Y33657D02*
Y38572D01*
X179095Y17756D02*
X179330Y17991D01*
Y25527D01*
X178742Y26115D02*
X179330Y25527D01*
X178742Y26115D02*
Y26740D01*
X176688Y28794D02*
X178742Y26740D01*
X193491Y36406D02*
X196952Y32945D01*
Y27784D02*
Y32945D01*
Y27784D02*
X197489Y27247D01*
Y23554D02*
Y27247D01*
X195620Y21685D02*
X197489Y23554D01*
X195620Y18218D02*
Y21685D01*
X195158Y17756D02*
X195620Y18218D01*
X182298Y24764D02*
X183110D01*
X180301Y26761D02*
X182298Y24764D01*
X180301Y26761D02*
Y27386D01*
X115900Y42494D02*
X116555Y43150D01*
X115900Y37200D02*
Y42494D01*
X111897Y36803D02*
X112000Y36700D01*
X111897Y36803D02*
Y42808D01*
X111555Y43150D02*
X111897Y42808D01*
X81555Y40138D02*
Y43150D01*
Y40138D02*
X82646Y39047D01*
X82801D01*
X83276Y38572D01*
Y36195D02*
Y38572D01*
X86555Y40138D02*
Y43150D01*
X85465Y39047D02*
X86555Y40138D01*
X85310Y39047D02*
X85465D01*
X84835Y38572D02*
X85310Y39047D01*
X84835Y36447D02*
Y38572D01*
Y36447D02*
X85662Y35620D01*
Y35200D02*
Y35620D01*
D79*
X328937Y144727D02*
Y150787D01*
D80*
X32677Y186831D02*
X49134D01*
X26988D02*
X32677D01*
X35827Y171653D02*
Y172978D01*
X39680Y176831D01*
X48814D01*
X19140Y171653D02*
Y178983D01*
X17717Y171653D02*
X19140D01*
Y178983D02*
X26988Y186831D01*
X22244Y63976D02*
X23425D01*
X53150Y90748D02*
X53346Y90551D01*
X33457Y128740D02*
X33661Y128535D01*
X33071Y129126D02*
X33457Y128740D01*
X29134Y17323D02*
X65925D01*
X24064Y22392D02*
Y38928D01*
Y22392D02*
X29134Y17323D01*
X23622Y39370D02*
X24064Y38928D01*
X34646Y117323D02*
X38681D01*
X51181Y103937D02*
Y105217D01*
X38681Y117323D02*
X50787Y105217D01*
X51575Y103543D02*
X52855D01*
X34252Y117717D02*
X34646Y117323D01*
X51181Y103937D02*
X51575Y103543D01*
X8465Y103937D02*
Y108858D01*
X8071D02*
X16929Y117717D01*
X18504D01*
X8071Y103543D02*
X8465Y103937D01*
X6496Y103543D02*
X8071D01*
X18307Y117717D02*
X18504D01*
X17913Y118110D02*
X18307Y117717D01*
X17913Y118110D02*
Y128772D01*
X17323Y129362D02*
X17913Y128772D01*
X34055Y117717D02*
X34252D01*
X33661Y118110D02*
X34055Y117717D01*
X33661Y118110D02*
Y128535D01*
X33071Y129126D02*
Y129362D01*
X17323Y143866D02*
Y150000D01*
X17323Y143866D02*
X17323Y143866D01*
X33071Y143866D02*
Y150787D01*
X22244Y103543D02*
X37402D01*
X53150Y90748D02*
Y103543D01*
X37402Y103543D02*
X37402Y103543D01*
X22244Y77165D02*
X37402D01*
X22441Y90551D02*
X37205D01*
X22244Y103543D02*
X22244Y103543D01*
X53150Y63976D02*
Y77165D01*
Y90354D01*
X53150Y63976D02*
X53150Y63976D01*
X53150Y90354D02*
X53150Y90354D01*
X37205Y90551D02*
X37402Y90354D01*
X37402Y77165D02*
X37402Y77165D01*
X23425Y63976D02*
X37402D01*
X6496Y77559D02*
Y103543D01*
X22244Y77165D02*
X22244Y77165D01*
X22244Y90354D02*
X22441Y90551D01*
X6496Y77559D02*
X6890Y77165D01*
X6496Y63976D02*
Y77165D01*
D81*
X66929Y105905D02*
X67716Y105118D01*
X66929Y105905D02*
Y112008D01*
X66929Y112008D02*
X66929Y112008D01*
X61811Y112008D02*
X66929D01*
X62205D02*
X66929D01*
X72047D02*
X77756D01*
X66929D02*
X72047D01*
X61811D02*
X62205D01*
X77756D02*
X77953Y111811D01*
X61811Y132677D02*
X61811Y132677D01*
Y128150D02*
Y132677D01*
X77165Y132677D02*
X77165Y132677D01*
Y128150D02*
Y132677D01*
X66929Y132677D02*
X66929Y132677D01*
Y128150D02*
Y132677D01*
X72047Y132677D02*
X72047Y132677D01*
Y128150D02*
Y132677D01*
X91657Y92989D02*
Y98350D01*
Y92989D02*
X91732Y92913D01*
X91657Y98350D02*
X91732Y98425D01*
X121555Y93012D02*
Y100157D01*
Y93012D02*
X121653Y92913D01*
X106375Y92989D02*
Y97169D01*
X106299Y97244D02*
X106375Y97169D01*
X136933Y97956D02*
X137008Y98032D01*
X136933Y93382D02*
Y97956D01*
Y93382D02*
X137008Y93307D01*
D82*
X72047Y117913D02*
Y122638D01*
X66929Y117913D02*
Y122638D01*
X77165Y117913D02*
Y122638D01*
X61811Y117913D02*
Y122638D01*
D83*
X115748Y58661D02*
X117808Y56601D01*
Y56528D02*
X121653Y52682D01*
X70669Y62598D02*
X120894D01*
X60827Y52362D02*
Y52756D01*
X61713Y53642D02*
X70669Y62598D01*
X80011Y50394D02*
X89856D01*
X121555Y43150D02*
X121653Y43248D01*
Y52682D01*
X120894Y62598D02*
X136240Y47252D01*
Y43465D02*
Y47252D01*
Y43465D02*
X136555Y43150D01*
X91240Y43465D02*
Y49010D01*
Y43465D02*
X91555Y43150D01*
X106555D02*
Y51201D01*
X105925Y51831D02*
X106555Y51201D01*
X89856Y50394D02*
X91240Y49010D01*
X67323Y37705D02*
X80011Y50394D01*
X67323Y37008D02*
Y37705D01*
X74016Y58661D02*
X115748D01*
X76378Y54331D02*
X103852D01*
X63189Y41142D02*
X76378Y54331D01*
X106352Y51831D02*
X106555D01*
X62008Y46654D02*
X74016Y58661D01*
X103852Y54331D02*
X106352Y51831D01*
X117808Y56528D02*
Y56601D01*
X61024Y52953D02*
X61713Y53642D01*
X60827Y52756D02*
X61024Y52953D01*
X61024D01*
X61024Y46654D02*
Y46654D01*
X60827Y46457D02*
X61024Y46654D01*
Y46654D02*
X62008D01*
X67083Y37008D02*
X67323D01*
X64721Y34646D02*
X67083Y37008D01*
X60827Y34646D02*
X64721D01*
X60827Y40945D02*
X61024Y41142D01*
X60827Y40551D02*
Y40945D01*
X61024Y41142D02*
X63189D01*
D84*
X274606Y237008D02*
D03*
X277362Y175197D02*
D03*
D85*
X195158Y17756D02*
D03*
X187126D02*
D03*
X179095D02*
D03*
X171063D02*
D03*
X191142Y24764D02*
D03*
X183110D02*
D03*
X175079D02*
D03*
X167047D02*
D03*
X154095Y43701D02*
D03*
X163110D02*
D03*
X199094D02*
D03*
X208110D02*
D03*
D86*
X149094Y21772D02*
D03*
X213110D02*
D03*
D87*
X269685Y16929D02*
D03*
D88*
X288976Y28346D02*
D03*
D89*
X269685Y40551D02*
D03*
D90*
X340158Y210630D02*
D03*
Y230315D02*
D03*
Y186221D02*
D03*
Y166535D02*
D03*
D91*
X235315Y13228D02*
D03*
X225315D02*
D03*
X235315Y23228D02*
D03*
X225315D02*
D03*
X235315Y33228D02*
D03*
X225315D02*
D03*
D92*
X338583Y39370D02*
D03*
Y255906D02*
D03*
X23622Y39370D02*
D03*
Y255906D02*
D03*
D93*
X346850Y72638D02*
D03*
X31102Y229803D02*
D03*
X16142Y219803D02*
D03*
D94*
X346850Y86417D02*
D03*
Y113976D02*
D03*
Y100197D02*
D03*
X268622Y111811D02*
D03*
X31102Y219803D02*
D03*
X16142Y229803D02*
D03*
X274685Y65748D02*
D03*
D95*
X278622Y111811D02*
D03*
X264685Y65748D02*
D03*
D96*
X211811Y70669D02*
D03*
X149606D02*
D03*
D97*
X168208Y117677D02*
D03*
X173208Y107677D02*
D03*
X178209Y117677D02*
D03*
X183208Y107677D02*
D03*
X188208Y117677D02*
D03*
X193208Y107677D02*
D03*
X198208Y117677D02*
D03*
X163208Y107677D02*
D03*
D98*
X142520Y231496D02*
D03*
X146063D02*
D03*
X149606D02*
D03*
X153150D02*
D03*
X156693D02*
D03*
X160236D02*
D03*
Y235039D02*
D03*
X156693D02*
D03*
X153150D02*
D03*
X149606D02*
D03*
X146063D02*
D03*
X142520D02*
D03*
X160236Y238583D02*
D03*
X156693D02*
D03*
X153150D02*
D03*
X149606D02*
D03*
X146063D02*
D03*
X142520D02*
D03*
X160236Y242126D02*
D03*
X156693D02*
D03*
X153150D02*
D03*
X149606D02*
D03*
X146063D02*
D03*
X142520D02*
D03*
X160236Y245669D02*
D03*
X156693D02*
D03*
X153150D02*
D03*
X149606D02*
D03*
X146063D02*
D03*
X142520D02*
D03*
X160236Y249213D02*
D03*
X156693D02*
D03*
X153150D02*
D03*
X149606D02*
D03*
X146063D02*
D03*
X142520D02*
D03*
X78740Y167323D02*
D03*
X82284D02*
D03*
X85827D02*
D03*
X89370D02*
D03*
X92913D02*
D03*
X96457D02*
D03*
Y170866D02*
D03*
X92913D02*
D03*
X89370D02*
D03*
X85827D02*
D03*
X82284D02*
D03*
X78740D02*
D03*
X96457Y174409D02*
D03*
X92913D02*
D03*
X89370D02*
D03*
X85827D02*
D03*
X82284D02*
D03*
X78740D02*
D03*
X96457Y177953D02*
D03*
X92913D02*
D03*
X89370D02*
D03*
X85827D02*
D03*
X82284D02*
D03*
X78740D02*
D03*
X96457Y181496D02*
D03*
X92913D02*
D03*
X89370D02*
D03*
X85827D02*
D03*
X82284D02*
D03*
X78740D02*
D03*
X96457Y185039D02*
D03*
X92913D02*
D03*
X89370D02*
D03*
X85827D02*
D03*
X82284D02*
D03*
X78740D02*
D03*
X266929Y227953D02*
D03*
X270472D02*
D03*
X274016D02*
D03*
X277559D02*
D03*
X281102D02*
D03*
X284646D02*
D03*
Y231496D02*
D03*
X281102D02*
D03*
X277559D02*
D03*
X274016D02*
D03*
X270472D02*
D03*
X266929D02*
D03*
X284646Y235039D02*
D03*
X281102D02*
D03*
X277559D02*
D03*
X274016D02*
D03*
X270472D02*
D03*
X266929D02*
D03*
X284646Y238583D02*
D03*
X281102D02*
D03*
X277559D02*
D03*
X274016D02*
D03*
X270472D02*
D03*
X266929D02*
D03*
X284646Y242126D02*
D03*
X281102D02*
D03*
X277559D02*
D03*
X274016D02*
D03*
X270472D02*
D03*
X266929D02*
D03*
X284646Y245669D02*
D03*
X281102D02*
D03*
X277559D02*
D03*
X274016D02*
D03*
X270472D02*
D03*
X266929D02*
D03*
Y166929D02*
D03*
X270472D02*
D03*
X274016D02*
D03*
X277559D02*
D03*
X281102D02*
D03*
X284646D02*
D03*
Y170473D02*
D03*
X281102D02*
D03*
X277559D02*
D03*
X274016D02*
D03*
X270472D02*
D03*
X266929D02*
D03*
X284646Y174016D02*
D03*
X281102D02*
D03*
X277559D02*
D03*
X274016D02*
D03*
X270472D02*
D03*
X266929D02*
D03*
X284646Y177559D02*
D03*
X281102D02*
D03*
X277559D02*
D03*
X274016D02*
D03*
X270472D02*
D03*
X266929D02*
D03*
X284646Y181102D02*
D03*
X281102D02*
D03*
X277559D02*
D03*
X274016D02*
D03*
X270472D02*
D03*
X266929D02*
D03*
X284646Y184646D02*
D03*
X281102D02*
D03*
X277559D02*
D03*
X274016D02*
D03*
X270472D02*
D03*
X266929D02*
D03*
D99*
X6693Y268898D02*
D03*
X5118Y175591D02*
D03*
X5512Y161811D02*
D03*
Y144488D02*
D03*
X354330Y263779D02*
D03*
Y240157D02*
D03*
Y216535D02*
D03*
Y192913D02*
D03*
Y169291D02*
D03*
Y74803D02*
D03*
Y51181D02*
D03*
Y27559D02*
D03*
Y3937D02*
D03*
X342519Y240157D02*
D03*
X348425Y228346D02*
D03*
Y181102D02*
D03*
Y62992D02*
D03*
Y15748D02*
D03*
X342519Y3937D02*
D03*
X330709Y240157D02*
D03*
X336614Y86614D02*
D03*
X330709Y74803D02*
D03*
X336614Y62992D02*
D03*
Y15748D02*
D03*
X330709Y3937D02*
D03*
X324803Y86614D02*
D03*
X318897Y51181D02*
D03*
Y27559D02*
D03*
X324803Y15748D02*
D03*
X318897Y3937D02*
D03*
X312992Y251968D02*
D03*
Y157480D02*
D03*
Y133858D02*
D03*
X307086Y122047D02*
D03*
X312992Y86614D02*
D03*
X307086Y51181D02*
D03*
X312992Y39370D02*
D03*
X307086Y27559D02*
D03*
X312992Y15748D02*
D03*
X307086Y3937D02*
D03*
X295275Y263779D02*
D03*
X301181Y251968D02*
D03*
X295275Y240157D02*
D03*
X301181Y228346D02*
D03*
X295275Y216535D02*
D03*
X301181Y181102D02*
D03*
Y157480D02*
D03*
Y133858D02*
D03*
X295275Y51181D02*
D03*
Y27559D02*
D03*
X301181Y15748D02*
D03*
X295275Y3937D02*
D03*
X283464Y263779D02*
D03*
X289370Y251968D02*
D03*
X283464Y216535D02*
D03*
X289370Y204724D02*
D03*
X283464Y192913D02*
D03*
X289370Y157480D02*
D03*
X283464Y145669D02*
D03*
X289370Y133858D02*
D03*
Y39370D02*
D03*
Y15748D02*
D03*
X283464Y3937D02*
D03*
X271653Y263779D02*
D03*
X277559Y251968D02*
D03*
X271653Y216535D02*
D03*
X277559Y204724D02*
D03*
X271653Y192913D02*
D03*
X277559Y157480D02*
D03*
X271653Y145669D02*
D03*
X277559Y133858D02*
D03*
X271653Y74803D02*
D03*
Y27559D02*
D03*
Y3937D02*
D03*
X259842Y263779D02*
D03*
X265748Y251968D02*
D03*
X259842Y216535D02*
D03*
X265748Y204724D02*
D03*
X259842Y192913D02*
D03*
X265748Y157480D02*
D03*
X259842Y145669D02*
D03*
X265748Y133858D02*
D03*
X259842Y27559D02*
D03*
Y3937D02*
D03*
X248031Y263779D02*
D03*
X253937Y251968D02*
D03*
X248031Y240157D02*
D03*
X253937Y228346D02*
D03*
X248031Y216535D02*
D03*
X253937Y204724D02*
D03*
X248031Y192913D02*
D03*
X253937Y181102D02*
D03*
X248031Y169291D02*
D03*
X253937Y157480D02*
D03*
X248031Y145669D02*
D03*
X253937Y133858D02*
D03*
Y39370D02*
D03*
Y15748D02*
D03*
X248031Y3937D02*
D03*
X212598Y263779D02*
D03*
X218504Y251968D02*
D03*
X212598Y240157D02*
D03*
X218504Y228346D02*
D03*
X212598Y216535D02*
D03*
X218504Y204724D02*
D03*
X212598Y192913D02*
D03*
X218504Y181102D02*
D03*
X212598Y169291D02*
D03*
X218504Y157480D02*
D03*
X200787Y263779D02*
D03*
X206693Y251968D02*
D03*
X200787Y240157D02*
D03*
X206693Y228346D02*
D03*
X200787Y216535D02*
D03*
X206693Y204724D02*
D03*
X200787Y192913D02*
D03*
X206693Y181102D02*
D03*
X188976Y263779D02*
D03*
X194882Y251968D02*
D03*
X188976Y240157D02*
D03*
X194882Y228346D02*
D03*
X188976Y216535D02*
D03*
X194882Y204724D02*
D03*
X188976Y192913D02*
D03*
X194882Y181102D02*
D03*
X177165Y263779D02*
D03*
X183071Y251968D02*
D03*
X177165Y240157D02*
D03*
X183071Y228346D02*
D03*
X177165Y216535D02*
D03*
X183071Y204724D02*
D03*
X177165Y169291D02*
D03*
X183071Y157480D02*
D03*
X165354Y263779D02*
D03*
X171260Y251968D02*
D03*
Y228346D02*
D03*
X165354Y216535D02*
D03*
X171260Y204724D02*
D03*
X165354Y169291D02*
D03*
X171260Y157480D02*
D03*
X153543Y263779D02*
D03*
Y192913D02*
D03*
X159449Y181102D02*
D03*
X153543Y169291D02*
D03*
X159449Y157480D02*
D03*
X141732Y263779D02*
D03*
Y192913D02*
D03*
X147638Y181102D02*
D03*
X141732Y169291D02*
D03*
X147638Y157480D02*
D03*
X129921Y263779D02*
D03*
Y240157D02*
D03*
X135827Y204724D02*
D03*
X129921Y192913D02*
D03*
X135827Y181102D02*
D03*
X129921Y169291D02*
D03*
X135827Y157480D02*
D03*
X118110Y263779D02*
D03*
X124016Y251968D02*
D03*
X118110Y240157D02*
D03*
X124016Y228346D02*
D03*
Y204724D02*
D03*
X118110Y192913D02*
D03*
X124016Y181102D02*
D03*
X118110Y169291D02*
D03*
X124016Y157480D02*
D03*
X106299Y263779D02*
D03*
X112205Y251968D02*
D03*
X106299Y240157D02*
D03*
X112205Y228346D02*
D03*
Y204724D02*
D03*
X106299Y192913D02*
D03*
X112205Y181102D02*
D03*
X106299Y169291D02*
D03*
X112205Y157480D02*
D03*
X94488Y263779D02*
D03*
X100394Y251968D02*
D03*
X94488Y240157D02*
D03*
X100394Y228346D02*
D03*
Y204724D02*
D03*
X94488Y192913D02*
D03*
X100394Y157480D02*
D03*
X82677Y263779D02*
D03*
X88583Y251968D02*
D03*
X82677Y240157D02*
D03*
X88583Y228346D02*
D03*
Y204724D02*
D03*
X82677Y192913D02*
D03*
X88583Y157480D02*
D03*
X70866Y263779D02*
D03*
X76771Y251968D02*
D03*
X70866Y240157D02*
D03*
X76771Y228346D02*
D03*
Y204724D02*
D03*
X70866Y192913D02*
D03*
X59055Y263779D02*
D03*
X64960Y251968D02*
D03*
Y204724D02*
D03*
X59055Y192913D02*
D03*
Y145669D02*
D03*
X53149Y251968D02*
D03*
X47244Y169291D02*
D03*
X53149Y157480D02*
D03*
X35433Y240157D02*
D03*
X23622D02*
D03*
X11811D02*
D03*
X209563Y32512D02*
D03*
X205063Y23512D02*
D03*
X200563Y32512D02*
D03*
X196063Y5512D02*
D03*
X187063D02*
D03*
X178063D02*
D03*
X169063D02*
D03*
X142063Y41512D02*
D03*
Y5512D02*
D03*
X133063Y23512D02*
D03*
X137563Y14512D02*
D03*
X133063Y5512D02*
D03*
X128563Y14512D02*
D03*
X124063Y5512D02*
D03*
X119563Y14512D02*
D03*
X115063Y5512D02*
D03*
X110563Y14512D02*
D03*
X106063Y5512D02*
D03*
X101563Y14512D02*
D03*
X97063Y5512D02*
D03*
X92563Y32512D02*
D03*
X88063Y23512D02*
D03*
X92563Y14512D02*
D03*
X88063Y5512D02*
D03*
X79063Y23512D02*
D03*
X83563Y14512D02*
D03*
X79063Y5512D02*
D03*
X74563Y32512D02*
D03*
X70063Y5512D02*
D03*
X357480Y271654D02*
D03*
Y5118D02*
D03*
X238976Y3937D02*
D03*
X248819Y51968D02*
D03*
Y39764D02*
D03*
Y64567D02*
D03*
X243307Y86221D02*
D03*
Y111417D02*
D03*
X244488Y121653D02*
D03*
Y131890D02*
D03*
X316929Y137402D02*
D03*
X319685Y141732D02*
D03*
X221260Y114961D02*
D03*
X211595Y135039D02*
D03*
X321260Y262205D02*
D03*
X328740Y146457D02*
D03*
X329134Y141732D02*
D03*
X318110Y65354D02*
D03*
X316929Y79921D02*
D03*
X316142Y86221D02*
D03*
X311024Y72441D02*
D03*
X300394Y52756D02*
D03*
X225878Y108268D02*
D03*
X221260Y40157D02*
D03*
X224410Y53150D02*
D03*
X225984Y68504D02*
D03*
X212205Y101969D02*
D03*
X82634Y35260D02*
D03*
X77165Y132677D02*
D03*
X61811D02*
D03*
X72047D02*
D03*
X66929D02*
D03*
X253937Y48031D02*
D03*
X259449Y89764D02*
D03*
X252756Y61417D02*
D03*
X253543Y72441D02*
D03*
X186221Y45276D02*
D03*
X181496D02*
D03*
X171653D02*
D03*
X176378D02*
D03*
X85662Y35200D02*
D03*
X79921Y31496D02*
D03*
X164567Y11417D02*
D03*
X174016Y10236D02*
D03*
X181496D02*
D03*
X190551D02*
D03*
X204331Y17717D02*
D03*
X156299Y19685D02*
D03*
X147244Y41732D02*
D03*
X213386Y30315D02*
D03*
X212992Y37008D02*
D03*
X203150Y37402D02*
D03*
X120079Y36614D02*
D03*
X107874Y35827D02*
D03*
X89370D02*
D03*
X77953Y36220D02*
D03*
X192126Y43307D02*
D03*
X112000Y36700D02*
D03*
X115900Y37200D02*
D03*
X91732Y92913D02*
D03*
X137008Y93307D02*
D03*
X121653Y92913D02*
D03*
X106299D02*
D03*
D100*
X68110Y83858D02*
D03*
X121653Y51968D02*
D03*
X106555Y51831D02*
D03*
X74016Y25591D02*
D03*
X29921Y103543D02*
D03*
X67323Y37008D02*
D03*
X29921Y77165D02*
D03*
Y90551D02*
D03*
X342913Y196063D02*
D03*
X337008D02*
D03*
M02*
