G04*
G04 #@! TF.GenerationSoftware,Altium Limited,Altium Designer,21.9.2 (33)*
G04*
G04 Layer_Color=8388736*
%FSLAX25Y25*%
%MOIN*%
G70*
G04*
G04 #@! TF.SameCoordinates,AF823FE0-973A-453D-8A6F-17937DE8E2E7*
G04*
G04*
G04 #@! TF.FilePolarity,Negative*
G04*
G01*
G75*
%ADD24R,0.01200X0.03600*%
%ADD34R,0.10236X0.07087*%
%ADD35R,0.11457X0.07953*%
%ADD36R,0.28740X0.24803*%
%ADD37R,0.28740X0.24803*%
%ADD38R,0.29921X0.28799*%
%ADD39R,0.03386X0.09409*%
G04:AMPARAMS|DCode=40|XSize=76.77mil|YSize=57.09mil|CornerRadius=8.61mil|HoleSize=0mil|Usage=FLASHONLY|Rotation=180.000|XOffset=0mil|YOffset=0mil|HoleType=Round|Shape=RoundedRectangle|*
%AMROUNDEDRECTD40*
21,1,0.07677,0.03986,0,0,180.0*
21,1,0.05955,0.05709,0,0,180.0*
1,1,0.01722,-0.02977,0.01993*
1,1,0.01722,0.02977,0.01993*
1,1,0.01722,0.02977,-0.01993*
1,1,0.01722,-0.02977,-0.01993*
%
%ADD40ROUNDEDRECTD40*%
%ADD41R,0.11811X0.05512*%
%ADD42R,0.10236X0.07087*%
%ADD43R,0.04016X0.05827*%
G04:AMPARAMS|DCode=44|XSize=51.58mil|YSize=26.77mil|CornerRadius=4.82mil|HoleSize=0mil|Usage=FLASHONLY|Rotation=180.000|XOffset=0mil|YOffset=0mil|HoleType=Round|Shape=RoundedRectangle|*
%AMROUNDEDRECTD44*
21,1,0.05158,0.01713,0,0,180.0*
21,1,0.04193,0.02677,0,0,180.0*
1,1,0.00965,-0.02097,0.00856*
1,1,0.00965,0.02097,0.00856*
1,1,0.00965,0.02097,-0.00856*
1,1,0.00965,-0.02097,-0.00856*
%
%ADD44ROUNDEDRECTD44*%
G04:AMPARAMS|DCode=45|XSize=39.37mil|YSize=31.5mil|CornerRadius=5.41mil|HoleSize=0mil|Usage=FLASHONLY|Rotation=180.000|XOffset=0mil|YOffset=0mil|HoleType=Round|Shape=RoundedRectangle|*
%AMROUNDEDRECTD45*
21,1,0.03937,0.02067,0,0,180.0*
21,1,0.02854,0.03150,0,0,180.0*
1,1,0.01083,-0.01427,0.01034*
1,1,0.01083,0.01427,0.01034*
1,1,0.01083,0.01427,-0.01034*
1,1,0.01083,-0.01427,-0.01034*
%
%ADD45ROUNDEDRECTD45*%
%ADD46R,0.03937X0.03150*%
%ADD47C,0.04331*%
%ADD48R,0.05272X0.02672*%
%ADD49R,0.03150X0.03937*%
G04:AMPARAMS|DCode=50|XSize=39.37mil|YSize=31.5mil|CornerRadius=5.41mil|HoleSize=0mil|Usage=FLASHONLY|Rotation=90.000|XOffset=0mil|YOffset=0mil|HoleType=Round|Shape=RoundedRectangle|*
%AMROUNDEDRECTD50*
21,1,0.03937,0.02067,0,0,90.0*
21,1,0.02854,0.03150,0,0,90.0*
1,1,0.01083,0.01034,0.01427*
1,1,0.01083,0.01034,-0.01427*
1,1,0.01083,-0.01034,-0.01427*
1,1,0.01083,-0.01034,0.01427*
%
%ADD50ROUNDEDRECTD50*%
G04:AMPARAMS|DCode=51|XSize=39.37mil|YSize=31.5mil|CornerRadius=8.86mil|HoleSize=0mil|Usage=FLASHONLY|Rotation=180.000|XOffset=0mil|YOffset=0mil|HoleType=Round|Shape=RoundedRectangle|*
%AMROUNDEDRECTD51*
21,1,0.03937,0.01378,0,0,180.0*
21,1,0.02165,0.03150,0,0,180.0*
1,1,0.01772,-0.01083,0.00689*
1,1,0.01772,0.01083,0.00689*
1,1,0.01772,0.01083,-0.00689*
1,1,0.01772,-0.01083,-0.00689*
%
%ADD51ROUNDEDRECTD51*%
G04:AMPARAMS|DCode=52|XSize=39.37mil|YSize=31.5mil|CornerRadius=8.86mil|HoleSize=0mil|Usage=FLASHONLY|Rotation=90.000|XOffset=0mil|YOffset=0mil|HoleType=Round|Shape=RoundedRectangle|*
%AMROUNDEDRECTD52*
21,1,0.03937,0.01378,0,0,90.0*
21,1,0.02165,0.03150,0,0,90.0*
1,1,0.01772,0.00689,0.01083*
1,1,0.01772,0.00689,-0.01083*
1,1,0.01772,-0.00689,-0.01083*
1,1,0.01772,-0.00689,0.01083*
%
%ADD52ROUNDEDRECTD52*%
%ADD53C,0.03937*%
G04:AMPARAMS|DCode=54|XSize=76.77mil|YSize=57.09mil|CornerRadius=8.61mil|HoleSize=0mil|Usage=FLASHONLY|Rotation=90.000|XOffset=0mil|YOffset=0mil|HoleType=Round|Shape=RoundedRectangle|*
%AMROUNDEDRECTD54*
21,1,0.07677,0.03986,0,0,90.0*
21,1,0.05955,0.05709,0,0,90.0*
1,1,0.01722,0.01993,0.02977*
1,1,0.01722,0.01993,-0.02977*
1,1,0.01722,-0.01993,-0.02977*
1,1,0.01722,-0.01993,0.02977*
%
%ADD54ROUNDEDRECTD54*%
%ADD55C,0.00394*%
%ADD56C,0.05709*%
%ADD57C,0.09843*%
%ADD58O,0.15354X0.07480*%
%ADD59O,0.07480X0.14173*%
%ADD60O,0.16142X0.07480*%
%ADD61C,0.07480*%
%ADD62C,0.05794*%
%ADD63O,0.05906X0.06394*%
%ADD64C,0.24016*%
%ADD65R,0.06693X0.06693*%
%ADD66C,0.06693*%
%ADD67C,0.07087*%
%ADD68R,0.06693X0.06693*%
%ADD69O,0.08268X0.09843*%
%ADD70C,0.05906*%
%ADD71C,0.02795*%
%ADD72C,0.02756*%
%ADD73C,0.05394*%
G36*
X299195Y80878D02*
X288995D01*
Y73178D01*
X299195D01*
Y80878D01*
D02*
G37*
G36*
X341258Y132901D02*
X351458D01*
Y140601D01*
X341258D01*
Y132901D01*
D02*
G37*
D24*
X290256Y82678D02*
D03*
X292815D02*
D03*
X295374D02*
D03*
X297933D02*
D03*
Y70078D02*
D03*
X295374D02*
D03*
X292815D02*
D03*
X290256D02*
D03*
X350197Y143701D02*
D03*
X347638D02*
D03*
X345079D02*
D03*
X342520D02*
D03*
Y131101D02*
D03*
X345079D02*
D03*
X347638D02*
D03*
X350197D02*
D03*
D34*
X6890Y103543D02*
D03*
X22638D02*
D03*
Y63976D02*
D03*
X6890D02*
D03*
X22638Y77165D02*
D03*
X6890D02*
D03*
Y90354D02*
D03*
X22638D02*
D03*
X37402Y63976D02*
D03*
X53150D02*
D03*
X37402Y77165D02*
D03*
X53150D02*
D03*
X53150Y90354D02*
D03*
X37402D02*
D03*
X53150Y103543D02*
D03*
X37402D02*
D03*
X18504Y117717D02*
D03*
X34252D02*
D03*
D35*
X17323Y143866D02*
D03*
Y129362D02*
D03*
X33071D02*
D03*
Y143866D02*
D03*
D36*
X275590Y175984D02*
D03*
Y236831D02*
D03*
D37*
X151181Y240551D02*
D03*
D38*
X87402Y175984D02*
D03*
D39*
X136555Y100157D02*
D03*
X131555D02*
D03*
X126555D02*
D03*
X121555D02*
D03*
X116555D02*
D03*
X111555D02*
D03*
X106555D02*
D03*
X101555D02*
D03*
X96555D02*
D03*
X91555D02*
D03*
X86555D02*
D03*
X81555D02*
D03*
Y43150D02*
D03*
X86555D02*
D03*
X91555D02*
D03*
X96555D02*
D03*
X101555D02*
D03*
X106555D02*
D03*
X111555D02*
D03*
X116555D02*
D03*
X121555D02*
D03*
X126555D02*
D03*
X131555D02*
D03*
X136555D02*
D03*
D40*
X67716Y91732D02*
D03*
Y105118D02*
D03*
D41*
X17323Y152362D02*
D03*
Y171260D02*
D03*
X33071D02*
D03*
Y152362D02*
D03*
D42*
X260236Y53150D02*
D03*
X275984D02*
D03*
D43*
X73445Y17323D02*
D03*
X65925D02*
D03*
D44*
X315965Y68701D02*
D03*
Y72441D02*
D03*
Y76181D02*
D03*
X306083Y68701D02*
D03*
Y72441D02*
D03*
Y76181D02*
D03*
X324193Y145472D02*
D03*
Y141732D02*
D03*
Y137992D02*
D03*
X334075Y145472D02*
D03*
Y141732D02*
D03*
Y137992D02*
D03*
D45*
X300394Y56890D02*
D03*
Y62795D02*
D03*
X323228Y156890D02*
D03*
Y150984D02*
D03*
X77165Y112008D02*
D03*
Y117913D02*
D03*
X72047Y117913D02*
D03*
Y112008D02*
D03*
X66929Y117913D02*
D03*
Y112008D02*
D03*
X61811Y117913D02*
D03*
Y112008D02*
D03*
D46*
X256299Y99213D02*
D03*
Y93701D02*
D03*
X33858Y198425D02*
D03*
Y192913D02*
D03*
X324016Y68898D02*
D03*
Y74410D02*
D03*
D47*
X301181Y36220D02*
D03*
X322835Y126378D02*
D03*
X321654Y82284D02*
D03*
D48*
X222083Y106555D02*
D03*
Y111555D02*
D03*
X248783D02*
D03*
Y106555D02*
D03*
Y93957D02*
D03*
Y98957D02*
D03*
X222083D02*
D03*
Y93957D02*
D03*
X248783Y48563D02*
D03*
Y43563D02*
D03*
X222083D02*
D03*
Y48563D02*
D03*
X248783Y61161D02*
D03*
Y56161D02*
D03*
X222083D02*
D03*
Y61161D02*
D03*
X248783Y73760D02*
D03*
Y68760D02*
D03*
X222083D02*
D03*
Y73760D02*
D03*
Y81358D02*
D03*
Y86358D02*
D03*
X248783D02*
D03*
Y81358D02*
D03*
D49*
X255118Y106299D02*
D03*
X260630D02*
D03*
X316929Y132283D02*
D03*
X322441D02*
D03*
X26378Y210630D02*
D03*
X20866D02*
D03*
D50*
X334449Y131496D02*
D03*
X328543D02*
D03*
X334842Y150787D02*
D03*
X328937D02*
D03*
X306890Y82284D02*
D03*
X312795D02*
D03*
X306890Y62598D02*
D03*
X312795D02*
D03*
X44291Y52362D02*
D03*
X50197D02*
D03*
X44291Y46457D02*
D03*
X50197D02*
D03*
X44291Y40551D02*
D03*
X50197D02*
D03*
X44291Y34646D02*
D03*
X50197D02*
D03*
D51*
X255906Y81496D02*
D03*
Y87008D02*
D03*
X283071Y68504D02*
D03*
Y74016D02*
D03*
X321391Y246850D02*
D03*
Y241339D02*
D03*
X61811Y122638D02*
D03*
Y128150D02*
D03*
X66929D02*
D03*
Y122638D02*
D03*
X72047D02*
D03*
Y128150D02*
D03*
X77165D02*
D03*
Y122638D02*
D03*
X216142Y81890D02*
D03*
Y87402D02*
D03*
Y98032D02*
D03*
Y92520D02*
D03*
X321391Y257480D02*
D03*
Y251969D02*
D03*
D52*
X247638Y27165D02*
D03*
X242126D02*
D03*
Y15748D02*
D03*
X247638D02*
D03*
X242126Y21654D02*
D03*
X247638D02*
D03*
X55315Y52362D02*
D03*
X60827D02*
D03*
X60827Y46457D02*
D03*
X55315D02*
D03*
X55315Y40551D02*
D03*
X60827D02*
D03*
Y34646D02*
D03*
X55315D02*
D03*
D53*
X257874Y76772D02*
D03*
X352362Y125197D02*
D03*
X354331Y152756D02*
D03*
X352756Y59449D02*
D03*
X290945Y48819D02*
D03*
D54*
X225590Y131890D02*
D03*
X238976D02*
D03*
X225590Y121653D02*
D03*
X238976D02*
D03*
X59055Y26772D02*
D03*
X45669D02*
D03*
D55*
X206102Y7756D02*
D03*
X156102D02*
D03*
X307087Y265846D02*
D03*
Y147539D02*
D03*
X51181D02*
D03*
Y265846D02*
D03*
X203209Y82677D02*
D03*
X158209D02*
D03*
D56*
X195158Y17756D02*
D03*
X187126D02*
D03*
X179095D02*
D03*
X171063D02*
D03*
X191142Y24764D02*
D03*
X183110D02*
D03*
X175079D02*
D03*
X167047D02*
D03*
X154095Y43701D02*
D03*
X163110D02*
D03*
X199094D02*
D03*
X208110D02*
D03*
D57*
X149094Y21772D02*
D03*
X213110D02*
D03*
D58*
X269685Y16929D02*
D03*
D59*
X288976Y28346D02*
D03*
D60*
X269685Y40551D02*
D03*
D61*
X309134Y166831D02*
D03*
Y176831D02*
D03*
Y186831D02*
D03*
Y196831D02*
D03*
Y206831D02*
D03*
Y216831D02*
D03*
Y226831D02*
D03*
Y236831D02*
D03*
Y246831D02*
D03*
X49134Y176831D02*
D03*
Y186831D02*
D03*
Y196831D02*
D03*
Y206831D02*
D03*
Y216831D02*
D03*
Y226831D02*
D03*
Y236831D02*
D03*
Y246831D02*
D03*
X317323Y106693D02*
D03*
X297638D02*
D03*
D62*
X340158Y210630D02*
D03*
Y230315D02*
D03*
Y186221D02*
D03*
Y166535D02*
D03*
D63*
X235315Y13228D02*
D03*
X225315D02*
D03*
X235315Y23228D02*
D03*
X225315D02*
D03*
X235315Y33228D02*
D03*
X225315D02*
D03*
D64*
X338583Y39370D02*
D03*
Y255906D02*
D03*
X23622Y39370D02*
D03*
Y255906D02*
D03*
D65*
X346850Y72638D02*
D03*
X31102Y229803D02*
D03*
X16142Y219803D02*
D03*
D66*
X346850Y86417D02*
D03*
Y113976D02*
D03*
Y100197D02*
D03*
X268622Y111811D02*
D03*
X31102Y219803D02*
D03*
X16142Y229803D02*
D03*
X274685Y65748D02*
D03*
D67*
X251024Y125197D02*
D03*
X261024D02*
D03*
X281024D02*
D03*
X271024D02*
D03*
X265158Y86024D02*
D03*
X275000D02*
D03*
X265158Y98228D02*
D03*
X275000D02*
D03*
D68*
X278622Y111811D02*
D03*
X264685Y65748D02*
D03*
D69*
X211811Y70669D02*
D03*
X149606D02*
D03*
D70*
X168208Y117677D02*
D03*
X173208Y107677D02*
D03*
X178209Y117677D02*
D03*
X183208Y107677D02*
D03*
X188208Y117677D02*
D03*
X193208Y107677D02*
D03*
X198208Y117677D02*
D03*
X163208Y107677D02*
D03*
D71*
X142520Y231496D02*
D03*
X146063D02*
D03*
X149606D02*
D03*
X153150D02*
D03*
X156693D02*
D03*
X160236D02*
D03*
Y235039D02*
D03*
X156693D02*
D03*
X153150D02*
D03*
X149606D02*
D03*
X146063D02*
D03*
X142520D02*
D03*
X160236Y238583D02*
D03*
X156693D02*
D03*
X153150D02*
D03*
X149606D02*
D03*
X146063D02*
D03*
X142520D02*
D03*
X160236Y242126D02*
D03*
X156693D02*
D03*
X153150D02*
D03*
X149606D02*
D03*
X146063D02*
D03*
X142520D02*
D03*
X160236Y245669D02*
D03*
X156693D02*
D03*
X153150D02*
D03*
X149606D02*
D03*
X146063D02*
D03*
X142520D02*
D03*
X160236Y249213D02*
D03*
X156693D02*
D03*
X153150D02*
D03*
X149606D02*
D03*
X146063D02*
D03*
X142520D02*
D03*
X78740Y167323D02*
D03*
X82284D02*
D03*
X85827D02*
D03*
X89370D02*
D03*
X92913D02*
D03*
X96457D02*
D03*
Y170866D02*
D03*
X92913D02*
D03*
X89370D02*
D03*
X85827D02*
D03*
X82284D02*
D03*
X78740D02*
D03*
X96457Y174409D02*
D03*
X92913D02*
D03*
X89370D02*
D03*
X85827D02*
D03*
X82284D02*
D03*
X78740D02*
D03*
X96457Y177953D02*
D03*
X92913D02*
D03*
X89370D02*
D03*
X85827D02*
D03*
X82284D02*
D03*
X78740D02*
D03*
X96457Y181496D02*
D03*
X92913D02*
D03*
X89370D02*
D03*
X85827D02*
D03*
X82284D02*
D03*
X78740D02*
D03*
X96457Y185039D02*
D03*
X92913D02*
D03*
X89370D02*
D03*
X85827D02*
D03*
X82284D02*
D03*
X78740D02*
D03*
X266929Y227953D02*
D03*
X270472D02*
D03*
X274016D02*
D03*
X277559D02*
D03*
X281102D02*
D03*
X284646D02*
D03*
Y231496D02*
D03*
X281102D02*
D03*
X277559D02*
D03*
X274016D02*
D03*
X270472D02*
D03*
X266929D02*
D03*
X284646Y235039D02*
D03*
X281102D02*
D03*
X277559D02*
D03*
X274016D02*
D03*
X270472D02*
D03*
X266929D02*
D03*
X284646Y238583D02*
D03*
X281102D02*
D03*
X277559D02*
D03*
X274016D02*
D03*
X270472D02*
D03*
X266929D02*
D03*
X284646Y242126D02*
D03*
X281102D02*
D03*
X277559D02*
D03*
X274016D02*
D03*
X270472D02*
D03*
X266929D02*
D03*
X284646Y245669D02*
D03*
X281102D02*
D03*
X277559D02*
D03*
X274016D02*
D03*
X270472D02*
D03*
X266929D02*
D03*
Y166929D02*
D03*
X270472D02*
D03*
X274016D02*
D03*
X277559D02*
D03*
X281102D02*
D03*
X284646D02*
D03*
Y170473D02*
D03*
X281102D02*
D03*
X277559D02*
D03*
X274016D02*
D03*
X270472D02*
D03*
X266929D02*
D03*
X284646Y174016D02*
D03*
X281102D02*
D03*
X277559D02*
D03*
X274016D02*
D03*
X270472D02*
D03*
X266929D02*
D03*
X284646Y177559D02*
D03*
X281102D02*
D03*
X277559D02*
D03*
X274016D02*
D03*
X270472D02*
D03*
X266929D02*
D03*
X284646Y181102D02*
D03*
X281102D02*
D03*
X277559D02*
D03*
X274016D02*
D03*
X270472D02*
D03*
X266929D02*
D03*
X284646Y184646D02*
D03*
X281102D02*
D03*
X277559D02*
D03*
X274016D02*
D03*
X270472D02*
D03*
X266929D02*
D03*
D72*
X6693Y268898D02*
D03*
X5118Y175591D02*
D03*
X5512Y161811D02*
D03*
Y144488D02*
D03*
X212598Y263779D02*
D03*
X218504Y251968D02*
D03*
X212598Y240157D02*
D03*
X218504Y228346D02*
D03*
X212598Y216535D02*
D03*
X218504Y204724D02*
D03*
X212598Y192913D02*
D03*
X218504Y181102D02*
D03*
X212598Y169291D02*
D03*
X218504Y157480D02*
D03*
X200787Y263779D02*
D03*
X206693Y251968D02*
D03*
X200787Y240157D02*
D03*
X206693Y228346D02*
D03*
X200787Y216535D02*
D03*
X206693Y204724D02*
D03*
X200787Y192913D02*
D03*
X206693Y181102D02*
D03*
X188976Y263779D02*
D03*
X194882Y251968D02*
D03*
X188976Y240157D02*
D03*
X194882Y228346D02*
D03*
X188976Y216535D02*
D03*
X194882Y204724D02*
D03*
X188976Y192913D02*
D03*
X194882Y181102D02*
D03*
X177165Y263779D02*
D03*
X183071Y251968D02*
D03*
X177165Y240157D02*
D03*
X183071Y228346D02*
D03*
X177165Y216535D02*
D03*
X183071Y204724D02*
D03*
X177165Y169291D02*
D03*
X183071Y157480D02*
D03*
X165354Y263779D02*
D03*
X171260Y251968D02*
D03*
Y228346D02*
D03*
X165354Y216535D02*
D03*
X171260Y204724D02*
D03*
X165354Y169291D02*
D03*
X171260Y157480D02*
D03*
X153543Y263779D02*
D03*
Y192913D02*
D03*
X159449Y181102D02*
D03*
X153543Y169291D02*
D03*
X159449Y157480D02*
D03*
X141732Y263779D02*
D03*
Y192913D02*
D03*
X147638Y181102D02*
D03*
X141732Y169291D02*
D03*
X147638Y157480D02*
D03*
X129921Y263779D02*
D03*
Y240157D02*
D03*
X135827Y204724D02*
D03*
X129921Y192913D02*
D03*
X135827Y181102D02*
D03*
X129921Y169291D02*
D03*
X135827Y157480D02*
D03*
X118110Y263779D02*
D03*
X124016Y251968D02*
D03*
X118110Y240157D02*
D03*
X124016Y228346D02*
D03*
Y204724D02*
D03*
X118110Y192913D02*
D03*
X124016Y181102D02*
D03*
X118110Y169291D02*
D03*
X124016Y157480D02*
D03*
X106299Y263779D02*
D03*
X112205Y251968D02*
D03*
X106299Y240157D02*
D03*
X112205Y228346D02*
D03*
Y204724D02*
D03*
X106299Y192913D02*
D03*
X112205Y181102D02*
D03*
X106299Y169291D02*
D03*
X112205Y157480D02*
D03*
X94488Y263779D02*
D03*
X100394Y251968D02*
D03*
X94488Y240157D02*
D03*
X100394Y228346D02*
D03*
Y204724D02*
D03*
X94488Y192913D02*
D03*
X100394Y157480D02*
D03*
X82677Y263779D02*
D03*
X88583Y251968D02*
D03*
X82677Y240157D02*
D03*
X88583Y228346D02*
D03*
Y204724D02*
D03*
X82677Y192913D02*
D03*
X88583Y157480D02*
D03*
X70866Y263779D02*
D03*
X76771Y251968D02*
D03*
X70866Y240157D02*
D03*
X76771Y228346D02*
D03*
Y204724D02*
D03*
X70866Y192913D02*
D03*
X59055Y263779D02*
D03*
X64960Y251968D02*
D03*
Y204724D02*
D03*
X59055Y192913D02*
D03*
Y145669D02*
D03*
X53149Y251968D02*
D03*
X47244Y169291D02*
D03*
X53149Y157480D02*
D03*
X35433Y240157D02*
D03*
X23622D02*
D03*
X11811D02*
D03*
X77165Y132677D02*
D03*
X61811D02*
D03*
X72047D02*
D03*
X66929D02*
D03*
D73*
X68110Y83858D02*
D03*
X74016Y25591D02*
D03*
X67323Y37008D02*
D03*
M02*
