G04*
G04 #@! TF.GenerationSoftware,Altium Limited,Altium Designer,21.9.2 (33)*
G04*
G04 Layer_Physical_Order=2*
G04 Layer_Color=36540*
%FSLAX25Y25*%
%MOIN*%
G70*
G04*
G04 #@! TF.SameCoordinates,AF823FE0-973A-453D-8A6F-17937DE8E2E7*
G04*
G04*
G04 #@! TF.FilePolarity,Positive*
G04*
G01*
G75*
%ADD66C,0.06693*%
%ADD67C,0.07087*%
%ADD86C,0.09449*%
%ADD87O,0.14961X0.07087*%
%ADD90C,0.05400*%
%ADD93R,0.06299X0.06299*%
%ADD94C,0.06299*%
%ADD95R,0.06299X0.06299*%
%ADD96O,0.07874X0.09449*%
%ADD98C,0.02402*%
%ADD99C,0.02362*%
%ADD100C,0.05000*%
G36*
X221638Y139200D02*
X1385D01*
X1385Y274206D01*
X221638D01*
Y139200D01*
D02*
G37*
G36*
X220079Y115710D02*
X219882Y115235D01*
Y114687D01*
X220079Y114211D01*
Y40907D01*
X219882Y40432D01*
Y39883D01*
X220079Y39408D01*
Y1385D01*
X210400D01*
X210248Y1885D01*
X210683Y2175D01*
X211683Y3176D01*
X212470Y4352D01*
X213011Y5660D01*
X213287Y7048D01*
Y8464D01*
X213011Y9852D01*
X212470Y11159D01*
X211683Y12336D01*
X210683Y13337D01*
X209506Y14123D01*
X208198Y14665D01*
X206810Y14941D01*
X205395D01*
X204007Y14665D01*
X202699Y14123D01*
X201522Y13337D01*
X200521Y12336D01*
X199735Y11159D01*
X199193Y9852D01*
X198917Y8464D01*
Y7048D01*
X199193Y5660D01*
X199735Y4352D01*
X200521Y3176D01*
X201522Y2175D01*
X201956Y1885D01*
X201805Y1385D01*
X160400Y1385D01*
X160248Y1885D01*
X160683Y2175D01*
X161683Y3176D01*
X162470Y4352D01*
X163011Y5660D01*
X163287Y7048D01*
Y8464D01*
X163011Y9852D01*
X162470Y11159D01*
X161683Y12336D01*
X160683Y13337D01*
X159506Y14123D01*
X158198Y14665D01*
X156810Y14941D01*
X155395D01*
X154007Y14665D01*
X152699Y14123D01*
X151522Y13337D01*
X150521Y12336D01*
X149735Y11159D01*
X149193Y9852D01*
X148917Y8464D01*
Y7048D01*
X149193Y5660D01*
X149735Y4352D01*
X150521Y3176D01*
X151522Y2175D01*
X151956Y1885D01*
X151805Y1385D01*
X1385Y1385D01*
X1385Y136614D01*
X208594D01*
X208652Y136513D01*
X208826Y136114D01*
X208642Y135428D01*
Y134651D01*
X208843Y133900D01*
X209232Y133226D01*
X209782Y132677D01*
X210455Y132288D01*
X211206Y132087D01*
X211983D01*
X212734Y132288D01*
X213407Y132677D01*
X213957Y133226D01*
X214346Y133900D01*
X214547Y134651D01*
Y135428D01*
X214363Y136114D01*
X214536Y136513D01*
X214595Y136614D01*
X220079D01*
Y115710D01*
D02*
G37*
G36*
X360820Y1385D02*
X236221Y1385D01*
Y11128D01*
X236611Y11289D01*
X237254Y11933D01*
X237602Y12773D01*
Y13683D01*
X237254Y14524D01*
X236611Y15168D01*
X236221Y15329D01*
Y21128D01*
X236611Y21289D01*
X237254Y21933D01*
X237602Y22773D01*
Y23683D01*
X237254Y24524D01*
X236611Y25168D01*
X236221Y25329D01*
Y31128D01*
X236611Y31289D01*
X237254Y31933D01*
X237602Y32773D01*
Y33683D01*
X237254Y34524D01*
X236611Y35168D01*
X236221Y35329D01*
Y274206D01*
X360820D01*
X360820Y1385D01*
D02*
G37*
%LPC*%
G36*
X51840Y272539D02*
X50522D01*
X49229Y272282D01*
X48011Y271778D01*
X46915Y271045D01*
X45982Y270113D01*
X45250Y269017D01*
X44745Y267799D01*
X44488Y266506D01*
Y265187D01*
X44745Y263894D01*
X45250Y262676D01*
X45982Y261580D01*
X46915Y260648D01*
X48011Y259915D01*
X49229Y259411D01*
X50522Y259154D01*
X51840D01*
X53133Y259411D01*
X54351Y259915D01*
X55448Y260648D01*
X56380Y261580D01*
X57112Y262676D01*
X57617Y263894D01*
X57874Y265187D01*
Y266506D01*
X57617Y267799D01*
X57112Y269017D01*
X56380Y270113D01*
X55448Y271045D01*
X54351Y271778D01*
X53133Y272282D01*
X51840Y272539D01*
D02*
G37*
G36*
X24595Y265787D02*
X22649D01*
X20740Y265408D01*
X18941Y264663D01*
X17323Y263581D01*
X15946Y262205D01*
X14865Y260586D01*
X14120Y258788D01*
X13740Y256879D01*
Y254932D01*
X14120Y253023D01*
X14865Y251225D01*
X15946Y249606D01*
X17323Y248230D01*
X18941Y247148D01*
X20740Y246403D01*
X22649Y246024D01*
X24595D01*
X26504Y246403D01*
X28303Y247148D01*
X29921Y248230D01*
X31298Y249606D01*
X32379Y251225D01*
X33124Y253023D01*
X33504Y254932D01*
Y256879D01*
X33124Y258788D01*
X32379Y260586D01*
X31298Y262205D01*
X29921Y263581D01*
X28303Y264663D01*
X26504Y265408D01*
X24595Y265787D01*
D02*
G37*
G36*
X49523Y249783D02*
X48745D01*
X47994Y249582D01*
X47321Y249194D01*
X46771Y248644D01*
X46382Y247970D01*
X46181Y247219D01*
Y246442D01*
X46382Y245691D01*
X46771Y245018D01*
X47321Y244468D01*
X47994Y244079D01*
X48745Y243878D01*
X49523D01*
X50274Y244079D01*
X50947Y244468D01*
X51497Y245018D01*
X51885Y245691D01*
X52087Y246442D01*
Y247219D01*
X51885Y247970D01*
X51497Y248644D01*
X50947Y249194D01*
X50274Y249582D01*
X49523Y249783D01*
D02*
G37*
G36*
Y239784D02*
X48745D01*
X47994Y239582D01*
X47321Y239194D01*
X46771Y238644D01*
X46382Y237970D01*
X46181Y237220D01*
Y236442D01*
X46382Y235691D01*
X46771Y235018D01*
X47321Y234468D01*
X47994Y234079D01*
X48745Y233878D01*
X49523D01*
X50274Y234079D01*
X50947Y234468D01*
X51497Y235018D01*
X51885Y235691D01*
X52087Y236442D01*
Y237220D01*
X51885Y237970D01*
X51497Y238644D01*
X50947Y239194D01*
X50274Y239582D01*
X49523Y239784D01*
D02*
G37*
G36*
X31491Y232756D02*
X30714D01*
X29963Y232555D01*
X29289Y232166D01*
X28740Y231616D01*
X28351Y230943D01*
X28150Y230192D01*
Y229414D01*
X28351Y228663D01*
X28740Y227990D01*
X29289Y227440D01*
X29963Y227052D01*
X30714Y226850D01*
X31491D01*
X32242Y227052D01*
X32915Y227440D01*
X33465Y227990D01*
X33854Y228663D01*
X34055Y229414D01*
Y230192D01*
X33854Y230943D01*
X33465Y231616D01*
X32915Y232166D01*
X32242Y232555D01*
X31491Y232756D01*
D02*
G37*
G36*
X16531D02*
X15753D01*
X15002Y232555D01*
X14329Y232166D01*
X13779Y231616D01*
X13390Y230943D01*
X13189Y230192D01*
Y229414D01*
X13390Y228663D01*
X13779Y227990D01*
X14329Y227440D01*
X15002Y227052D01*
X15753Y226850D01*
X16531D01*
X17281Y227052D01*
X17955Y227440D01*
X18505Y227990D01*
X18893Y228663D01*
X19094Y229414D01*
Y230192D01*
X18893Y230943D01*
X18505Y231616D01*
X17955Y232166D01*
X17281Y232555D01*
X16531Y232756D01*
D02*
G37*
G36*
X49523Y229784D02*
X48745D01*
X47994Y229582D01*
X47321Y229193D01*
X46771Y228644D01*
X46382Y227970D01*
X46181Y227220D01*
Y226442D01*
X46382Y225691D01*
X46771Y225018D01*
X47321Y224468D01*
X47994Y224079D01*
X48745Y223878D01*
X49523D01*
X50274Y224079D01*
X50947Y224468D01*
X51497Y225018D01*
X51885Y225691D01*
X52087Y226442D01*
Y227220D01*
X51885Y227970D01*
X51497Y228644D01*
X50947Y229193D01*
X50274Y229582D01*
X49523Y229784D01*
D02*
G37*
G36*
X31491Y222756D02*
X30714D01*
X29963Y222555D01*
X29289Y222166D01*
X28740Y221616D01*
X28351Y220943D01*
X28150Y220192D01*
Y219414D01*
X28351Y218663D01*
X28740Y217990D01*
X29289Y217440D01*
X29963Y217052D01*
X30714Y216850D01*
X31491D01*
X32242Y217052D01*
X32915Y217440D01*
X33465Y217990D01*
X33854Y218663D01*
X34055Y219414D01*
Y220192D01*
X33854Y220943D01*
X33465Y221616D01*
X32915Y222166D01*
X32242Y222555D01*
X31491Y222756D01*
D02*
G37*
G36*
X16531D02*
X15753D01*
X15002Y222555D01*
X14329Y222166D01*
X13779Y221616D01*
X13390Y220943D01*
X13189Y220192D01*
Y219414D01*
X13390Y218663D01*
X13779Y217990D01*
X14329Y217440D01*
X15002Y217052D01*
X15753Y216850D01*
X16531D01*
X17281Y217052D01*
X17955Y217440D01*
X18505Y217990D01*
X18893Y218663D01*
X19094Y219414D01*
Y220192D01*
X18893Y220943D01*
X18505Y221616D01*
X17955Y222166D01*
X17281Y222555D01*
X16531Y222756D01*
D02*
G37*
G36*
X49523Y219783D02*
X48745D01*
X47994Y219582D01*
X47321Y219194D01*
X46771Y218644D01*
X46382Y217970D01*
X46181Y217219D01*
Y216442D01*
X46382Y215691D01*
X46771Y215018D01*
X47321Y214468D01*
X47994Y214079D01*
X48745Y213878D01*
X49523D01*
X50274Y214079D01*
X50947Y214468D01*
X51497Y215018D01*
X51885Y215691D01*
X52087Y216442D01*
Y217219D01*
X51885Y217970D01*
X51497Y218644D01*
X50947Y219194D01*
X50274Y219582D01*
X49523Y219783D01*
D02*
G37*
G36*
Y209784D02*
X48745D01*
X47994Y209582D01*
X47321Y209193D01*
X46771Y208644D01*
X46382Y207970D01*
X46181Y207220D01*
Y206442D01*
X46382Y205691D01*
X46771Y205018D01*
X47321Y204468D01*
X47994Y204079D01*
X48745Y203878D01*
X49523D01*
X50274Y204079D01*
X50947Y204468D01*
X51497Y205018D01*
X51885Y205691D01*
X52087Y206442D01*
Y207220D01*
X51885Y207970D01*
X51497Y208644D01*
X50947Y209193D01*
X50274Y209582D01*
X49523Y209784D01*
D02*
G37*
G36*
Y199784D02*
X48745D01*
X47994Y199582D01*
X47321Y199194D01*
X46771Y198644D01*
X46382Y197970D01*
X46181Y197220D01*
Y196442D01*
X46382Y195691D01*
X46771Y195018D01*
X47321Y194468D01*
X47994Y194079D01*
X48745Y193878D01*
X49523D01*
X50274Y194079D01*
X50947Y194468D01*
X51497Y195018D01*
X51885Y195691D01*
X52087Y196442D01*
Y197220D01*
X51885Y197970D01*
X51497Y198644D01*
X50947Y199194D01*
X50274Y199582D01*
X49523Y199784D01*
D02*
G37*
G36*
X49626Y190571D02*
X48641D01*
X47690Y190316D01*
X46837Y189824D01*
X46141Y189127D01*
X45649Y188274D01*
X45394Y187323D01*
Y186338D01*
X45649Y185387D01*
X46141Y184534D01*
X46837Y183838D01*
X47690Y183345D01*
X48641Y183091D01*
X49626D01*
X50577Y183345D01*
X51430Y183838D01*
X52127Y184534D01*
X52619Y185387D01*
X52874Y186338D01*
Y187323D01*
X52619Y188274D01*
X52127Y189127D01*
X51430Y189824D01*
X50577Y190316D01*
X49626Y190571D01*
D02*
G37*
G36*
Y180571D02*
X48641D01*
X47690Y180316D01*
X46837Y179824D01*
X46141Y179127D01*
X45649Y178274D01*
X45394Y177323D01*
Y176338D01*
X45649Y175387D01*
X46141Y174534D01*
X46837Y173838D01*
X47690Y173345D01*
X48641Y173091D01*
X49626D01*
X50577Y173345D01*
X51430Y173838D01*
X52127Y174534D01*
X52619Y175387D01*
X52874Y176338D01*
Y177323D01*
X52619Y178274D01*
X52127Y179127D01*
X51430Y179824D01*
X50577Y180316D01*
X49626Y180571D01*
D02*
G37*
G36*
X51840Y154232D02*
X50522D01*
X49229Y153975D01*
X48011Y153471D01*
X46915Y152738D01*
X45982Y151806D01*
X45250Y150710D01*
X44745Y149492D01*
X44488Y148199D01*
Y146880D01*
X44745Y145587D01*
X45250Y144369D01*
X45982Y143273D01*
X46915Y142341D01*
X48011Y141608D01*
X49229Y141104D01*
X50522Y140847D01*
X51840D01*
X53133Y141104D01*
X54351Y141608D01*
X55448Y142341D01*
X56380Y143273D01*
X57112Y144369D01*
X57617Y145587D01*
X57874Y146880D01*
Y148199D01*
X57617Y149492D01*
X57112Y150710D01*
X56380Y151806D01*
X55448Y152738D01*
X54351Y153471D01*
X53133Y153975D01*
X51840Y154232D01*
D02*
G37*
G36*
X77439Y134055D02*
X76891D01*
X76385Y133845D01*
X75997Y133458D01*
X75787Y132951D01*
Y132403D01*
X75997Y131897D01*
X76385Y131509D01*
X76891Y131299D01*
X77439D01*
X77946Y131509D01*
X78333Y131897D01*
X78543Y132403D01*
Y132951D01*
X78333Y133458D01*
X77946Y133845D01*
X77439Y134055D01*
D02*
G37*
G36*
X72321D02*
X71773D01*
X71267Y133845D01*
X70879Y133458D01*
X70669Y132951D01*
Y132403D01*
X70879Y131897D01*
X71267Y131509D01*
X71773Y131299D01*
X72321D01*
X72828Y131509D01*
X73215Y131897D01*
X73425Y132403D01*
Y132951D01*
X73215Y133458D01*
X72828Y133845D01*
X72321Y134055D01*
D02*
G37*
G36*
X67203D02*
X66655D01*
X66149Y133845D01*
X65761Y133458D01*
X65551Y132951D01*
Y132403D01*
X65761Y131897D01*
X66149Y131509D01*
X66655Y131299D01*
X67203D01*
X67710Y131509D01*
X68097Y131897D01*
X68307Y132403D01*
Y132951D01*
X68097Y133458D01*
X67710Y133845D01*
X67203Y134055D01*
D02*
G37*
G36*
X62085D02*
X61537D01*
X61031Y133845D01*
X60643Y133458D01*
X60433Y132951D01*
Y132403D01*
X60643Y131897D01*
X61031Y131509D01*
X61537Y131299D01*
X62085D01*
X62592Y131509D01*
X62979Y131897D01*
X63189Y132403D01*
Y132951D01*
X62979Y133458D01*
X62592Y133845D01*
X62085Y134055D01*
D02*
G37*
G36*
X198545Y120236D02*
X197871D01*
X197221Y120062D01*
X196637Y119725D01*
X196161Y119248D01*
X195824Y118665D01*
X195649Y118014D01*
Y117340D01*
X195824Y116689D01*
X196161Y116106D01*
X196637Y115629D01*
X197221Y115293D01*
X197871Y115118D01*
X198545D01*
X199196Y115293D01*
X199780Y115629D01*
X200256Y116106D01*
X200593Y116689D01*
X200767Y117340D01*
Y118014D01*
X200593Y118665D01*
X200256Y119248D01*
X199780Y119725D01*
X199196Y120062D01*
X198545Y120236D01*
D02*
G37*
G36*
X188545D02*
X187871D01*
X187221Y120062D01*
X186637Y119725D01*
X186161Y119248D01*
X185824Y118665D01*
X185649Y118014D01*
Y117340D01*
X185824Y116689D01*
X186161Y116106D01*
X186637Y115629D01*
X187221Y115293D01*
X187871Y115118D01*
X188545D01*
X189196Y115293D01*
X189780Y115629D01*
X190256Y116106D01*
X190593Y116689D01*
X190767Y117340D01*
Y118014D01*
X190593Y118665D01*
X190256Y119248D01*
X189780Y119725D01*
X189196Y120062D01*
X188545Y120236D01*
D02*
G37*
G36*
X178546D02*
X177872D01*
X177221Y120062D01*
X176637Y119725D01*
X176161Y119248D01*
X175824Y118665D01*
X175650Y118014D01*
Y117340D01*
X175824Y116689D01*
X176161Y116106D01*
X176637Y115629D01*
X177221Y115293D01*
X177872Y115118D01*
X178546D01*
X179196Y115293D01*
X179780Y115629D01*
X180256Y116106D01*
X180593Y116689D01*
X180768Y117340D01*
Y118014D01*
X180593Y118665D01*
X180256Y119248D01*
X179780Y119725D01*
X179196Y120062D01*
X178546Y120236D01*
D02*
G37*
G36*
X168545D02*
X167871D01*
X167221Y120062D01*
X166637Y119725D01*
X166161Y119248D01*
X165824Y118665D01*
X165649Y118014D01*
Y117340D01*
X165824Y116689D01*
X166161Y116106D01*
X166637Y115629D01*
X167221Y115293D01*
X167871Y115118D01*
X168545D01*
X169196Y115293D01*
X169780Y115629D01*
X170256Y116106D01*
X170593Y116689D01*
X170767Y117340D01*
Y118014D01*
X170593Y118665D01*
X170256Y119248D01*
X169780Y119725D01*
X169196Y120062D01*
X168545Y120236D01*
D02*
G37*
G36*
X193545Y110236D02*
X192871D01*
X192221Y110062D01*
X191637Y109725D01*
X191161Y109248D01*
X190824Y108665D01*
X190649Y108014D01*
Y107340D01*
X190824Y106689D01*
X191161Y106106D01*
X191637Y105629D01*
X192221Y105292D01*
X192871Y105118D01*
X193545D01*
X194196Y105292D01*
X194780Y105629D01*
X195256Y106106D01*
X195593Y106689D01*
X195767Y107340D01*
Y108014D01*
X195593Y108665D01*
X195256Y109248D01*
X194780Y109725D01*
X194196Y110062D01*
X193545Y110236D01*
D02*
G37*
G36*
X183545D02*
X182871D01*
X182221Y110062D01*
X181637Y109725D01*
X181161Y109248D01*
X180824Y108665D01*
X180649Y108014D01*
Y107340D01*
X180824Y106689D01*
X181161Y106106D01*
X181637Y105629D01*
X182221Y105292D01*
X182871Y105118D01*
X183545D01*
X184196Y105292D01*
X184780Y105629D01*
X185256Y106106D01*
X185593Y106689D01*
X185767Y107340D01*
Y108014D01*
X185593Y108665D01*
X185256Y109248D01*
X184780Y109725D01*
X184196Y110062D01*
X183545Y110236D01*
D02*
G37*
G36*
X173545D02*
X172871D01*
X172221Y110062D01*
X171637Y109725D01*
X171161Y109248D01*
X170824Y108665D01*
X170649Y108014D01*
Y107340D01*
X170824Y106689D01*
X171161Y106106D01*
X171637Y105629D01*
X172221Y105292D01*
X172871Y105118D01*
X173545D01*
X174196Y105292D01*
X174780Y105629D01*
X175256Y106106D01*
X175593Y106689D01*
X175767Y107340D01*
Y108014D01*
X175593Y108665D01*
X175256Y109248D01*
X174780Y109725D01*
X174196Y110062D01*
X173545Y110236D01*
D02*
G37*
G36*
X163545D02*
X162871D01*
X162221Y110062D01*
X161637Y109725D01*
X161161Y109248D01*
X160824Y108665D01*
X160649Y108014D01*
Y107340D01*
X160824Y106689D01*
X161161Y106106D01*
X161637Y105629D01*
X162221Y105292D01*
X162871Y105118D01*
X163545D01*
X164196Y105292D01*
X164780Y105629D01*
X165256Y106106D01*
X165593Y106689D01*
X165767Y107340D01*
Y108014D01*
X165593Y108665D01*
X165256Y109248D01*
X164780Y109725D01*
X164196Y110062D01*
X163545Y110236D01*
D02*
G37*
G36*
X212479Y103347D02*
X211931D01*
X211424Y103137D01*
X211036Y102749D01*
X210827Y102243D01*
Y101694D01*
X211036Y101188D01*
X211424Y100800D01*
X211931Y100591D01*
X212479D01*
X212985Y100800D01*
X213373Y101188D01*
X213583Y101694D01*
Y102243D01*
X213373Y102749D01*
X212985Y103137D01*
X212479Y103347D01*
D02*
G37*
G36*
X30417Y107305D02*
X29426D01*
X28469Y107049D01*
X27612Y106553D01*
X26911Y105853D01*
X26416Y104995D01*
X26160Y104039D01*
Y103048D01*
X26416Y102091D01*
X26911Y101233D01*
X27612Y100533D01*
X28469Y100038D01*
X29426Y99782D01*
X30417D01*
X31373Y100038D01*
X32231Y100533D01*
X32932Y101233D01*
X33427Y102091D01*
X33683Y103048D01*
Y104039D01*
X33427Y104995D01*
X32932Y105853D01*
X32231Y106553D01*
X31373Y107049D01*
X30417Y107305D01*
D02*
G37*
G36*
Y94313D02*
X29426D01*
X28469Y94057D01*
X27612Y93561D01*
X26911Y92861D01*
X26416Y92003D01*
X26160Y91046D01*
Y90056D01*
X26416Y89099D01*
X26911Y88241D01*
X27612Y87541D01*
X28469Y87046D01*
X29426Y86789D01*
X30417D01*
X31373Y87046D01*
X32231Y87541D01*
X32932Y88241D01*
X33427Y89099D01*
X33683Y90056D01*
Y91046D01*
X33427Y92003D01*
X32932Y92861D01*
X32231Y93561D01*
X31373Y94057D01*
X30417Y94313D01*
D02*
G37*
G36*
X203907Y89764D02*
X202511D01*
X201142Y89491D01*
X199852Y88957D01*
X198691Y88182D01*
X197704Y87195D01*
X196929Y86034D01*
X196394Y84744D01*
X196122Y83375D01*
Y81979D01*
X196394Y80610D01*
X196929Y79320D01*
X197704Y78160D01*
X198691Y77173D01*
X199852Y76397D01*
X201142Y75863D01*
X202511Y75590D01*
X203907D01*
X205276Y75863D01*
X206565Y76397D01*
X207726Y77173D01*
X208713Y78160D01*
X209489Y79320D01*
X210023Y80610D01*
X210295Y81979D01*
Y83375D01*
X210023Y84744D01*
X209489Y86034D01*
X208713Y87195D01*
X207726Y88182D01*
X206565Y88957D01*
X205276Y89491D01*
X203907Y89764D01*
D02*
G37*
G36*
X158907D02*
X157511D01*
X156142Y89491D01*
X154852Y88957D01*
X153691Y88182D01*
X152704Y87195D01*
X151929Y86034D01*
X151394Y84744D01*
X151122Y83375D01*
Y81979D01*
X151394Y80610D01*
X151929Y79320D01*
X152704Y78160D01*
X153691Y77173D01*
X154852Y76397D01*
X156142Y75863D01*
X157511Y75590D01*
X158907D01*
X160276Y75863D01*
X161565Y76397D01*
X162726Y77173D01*
X163713Y78160D01*
X164489Y79320D01*
X165023Y80610D01*
X165295Y81979D01*
Y83375D01*
X165023Y84744D01*
X164489Y86034D01*
X163713Y87195D01*
X162726Y88182D01*
X161565Y88957D01*
X160276Y89491D01*
X158907Y89764D01*
D02*
G37*
G36*
X30417Y80927D02*
X29426D01*
X28469Y80671D01*
X27612Y80176D01*
X26911Y79475D01*
X26416Y78617D01*
X26160Y77661D01*
Y76670D01*
X26416Y75713D01*
X26911Y74856D01*
X27612Y74155D01*
X28469Y73660D01*
X29426Y73404D01*
X30417D01*
X31373Y73660D01*
X32231Y74155D01*
X32932Y74856D01*
X33427Y75713D01*
X33683Y76670D01*
Y77661D01*
X33427Y78617D01*
X32932Y79475D01*
X32231Y80176D01*
X31373Y80671D01*
X30417Y80927D01*
D02*
G37*
G36*
X212311Y76371D02*
Y71169D01*
X216791D01*
Y71457D01*
X216621Y72746D01*
X216124Y73946D01*
X215332Y74978D01*
X214301Y75769D01*
X213100Y76267D01*
X212311Y76371D01*
D02*
G37*
G36*
X150106D02*
Y71169D01*
X154586D01*
Y71457D01*
X154416Y72746D01*
X153919Y73946D01*
X153127Y74978D01*
X152096Y75769D01*
X150895Y76267D01*
X150106Y76371D01*
D02*
G37*
G36*
X211311D02*
X210522Y76267D01*
X209321Y75769D01*
X208290Y74978D01*
X207499Y73946D01*
X207001Y72746D01*
X206831Y71457D01*
Y71169D01*
X211311D01*
Y76371D01*
D02*
G37*
G36*
Y70169D02*
X206831D01*
Y69882D01*
X207001Y68593D01*
X207499Y67392D01*
X208290Y66361D01*
X209321Y65569D01*
X210522Y65072D01*
X211311Y64968D01*
Y70169D01*
D02*
G37*
G36*
X144095Y96866D02*
X74016D01*
X73708Y96805D01*
X73448Y96631D01*
X73274Y96370D01*
X73213Y96063D01*
Y47244D01*
X73274Y46937D01*
X73448Y46676D01*
X73708Y46502D01*
X74016Y46441D01*
X144095D01*
X144402Y46502D01*
X144662Y46676D01*
X144836Y46937D01*
X144897Y47244D01*
Y67088D01*
X145397Y67257D01*
X146085Y66361D01*
X147116Y65569D01*
X148318Y65072D01*
X149106Y64968D01*
Y70669D01*
X149606D01*
D01*
X149106D01*
Y76371D01*
X148318Y76267D01*
X147116Y75769D01*
X146085Y74978D01*
X145397Y74081D01*
X144897Y74251D01*
Y96063D01*
X144836Y96370D01*
X144662Y96631D01*
X144402Y96805D01*
X144095Y96866D01*
D02*
G37*
G36*
X216791Y70169D02*
X212311D01*
Y64968D01*
X213100Y65072D01*
X214301Y65569D01*
X215332Y66361D01*
X216124Y67392D01*
X216621Y68593D01*
X216791Y69882D01*
Y70169D01*
D02*
G37*
G36*
X154586D02*
X150106D01*
Y64968D01*
X150895Y65072D01*
X152096Y65569D01*
X153127Y66361D01*
X153919Y67392D01*
X154416Y68593D01*
X154586Y69882D01*
Y70169D01*
D02*
G37*
G36*
X199600Y46240D02*
X198589D01*
X197656Y45854D01*
X196942Y45139D01*
X196555Y44206D01*
Y43196D01*
X196942Y42262D01*
X197656Y41548D01*
X198589Y41161D01*
X199600D01*
X200533Y41548D01*
X201247Y42262D01*
X201634Y43196D01*
Y44206D01*
X201247Y45139D01*
X200533Y45854D01*
X199600Y46240D01*
D02*
G37*
G36*
X154600D02*
X153589D01*
X152656Y45854D01*
X151942Y45139D01*
X151555Y44206D01*
Y43196D01*
X151942Y42262D01*
X152656Y41548D01*
X153589Y41161D01*
X154600D01*
X155533Y41548D01*
X156247Y42262D01*
X156634Y43196D01*
Y44206D01*
X156247Y45139D01*
X155533Y45854D01*
X154600Y46240D01*
D02*
G37*
G36*
X208548Y47028D02*
X207672D01*
X206826Y46801D01*
X206067Y46363D01*
X205448Y45744D01*
X205010Y44985D01*
X204784Y44139D01*
Y43263D01*
X205010Y42417D01*
X205448Y41658D01*
X206067Y41039D01*
X206826Y40601D01*
X207672Y40374D01*
X208548D01*
X209394Y40601D01*
X210153Y41039D01*
X210772Y41658D01*
X211210Y42417D01*
X211437Y43263D01*
Y44139D01*
X211210Y44985D01*
X210772Y45744D01*
X210153Y46363D01*
X209394Y46801D01*
X208548Y47028D01*
D02*
G37*
G36*
X163548D02*
X162672D01*
X161826Y46801D01*
X161068Y46363D01*
X160448Y45744D01*
X160010Y44985D01*
X159783Y44139D01*
Y43263D01*
X160010Y42417D01*
X160448Y41658D01*
X161068Y41039D01*
X161826Y40601D01*
X162672Y40374D01*
X163548D01*
X164394Y40601D01*
X165153Y41039D01*
X165772Y41658D01*
X166210Y42417D01*
X166437Y43263D01*
Y44139D01*
X166210Y44985D01*
X165772Y45744D01*
X165153Y46363D01*
X164394Y46801D01*
X163548Y47028D01*
D02*
G37*
G36*
X116174Y38578D02*
X115626D01*
X115120Y38368D01*
X114732Y37980D01*
X114522Y37474D01*
Y36926D01*
X114732Y36419D01*
X115120Y36032D01*
X115626Y35822D01*
X116174D01*
X116681Y36032D01*
X117068Y36419D01*
X117278Y36926D01*
Y37474D01*
X117068Y37980D01*
X116681Y38368D01*
X116174Y38578D01*
D02*
G37*
G36*
X112274Y38078D02*
X111726D01*
X111220Y37868D01*
X110832Y37481D01*
X110622Y36974D01*
Y36426D01*
X110832Y35919D01*
X111220Y35532D01*
X111726Y35322D01*
X112274D01*
X112780Y35532D01*
X113168Y35919D01*
X113378Y36426D01*
Y36974D01*
X113168Y37481D01*
X112780Y37868D01*
X112274Y38078D01*
D02*
G37*
G36*
X82908Y36638D02*
X82360D01*
X81853Y36428D01*
X81466Y36041D01*
X81256Y35534D01*
Y34986D01*
X81466Y34480D01*
X81853Y34092D01*
X82360Y33882D01*
X82908D01*
X83414Y34092D01*
X83802Y34480D01*
X83865Y34632D01*
X84406D01*
X84494Y34420D01*
X84882Y34032D01*
X85388Y33822D01*
X85936D01*
X86443Y34032D01*
X86830Y34420D01*
X87040Y34926D01*
Y35474D01*
X86830Y35980D01*
X86443Y36368D01*
X85936Y36578D01*
X85388D01*
X84882Y36368D01*
X84494Y35980D01*
X84431Y35828D01*
X83890D01*
X83802Y36041D01*
X83414Y36428D01*
X82908Y36638D01*
D02*
G37*
G36*
X67818Y40770D02*
X66828D01*
X65871Y40513D01*
X65013Y40018D01*
X64313Y39318D01*
X63817Y38460D01*
X63561Y37503D01*
Y36513D01*
X63817Y35556D01*
X64313Y34698D01*
X65013Y33998D01*
X65871Y33502D01*
X66828Y33246D01*
X67818D01*
X68775Y33502D01*
X69633Y33998D01*
X70333Y34698D01*
X70828Y35556D01*
X71085Y36513D01*
Y37503D01*
X70828Y38460D01*
X70333Y39318D01*
X69633Y40018D01*
X68775Y40513D01*
X67818Y40770D01*
D02*
G37*
G36*
X24595Y49252D02*
X22649D01*
X20740Y48872D01*
X18941Y48127D01*
X17323Y47046D01*
X15946Y45669D01*
X14865Y44051D01*
X14120Y42252D01*
X13740Y40343D01*
Y38397D01*
X14120Y36488D01*
X14865Y34689D01*
X15946Y33071D01*
X17323Y31694D01*
X18941Y30613D01*
X20740Y29868D01*
X22649Y29488D01*
X24595D01*
X26504Y29868D01*
X28303Y30613D01*
X29921Y31694D01*
X31298Y33071D01*
X32379Y34689D01*
X33124Y36488D01*
X33504Y38397D01*
Y40343D01*
X33124Y42252D01*
X32379Y44051D01*
X31298Y45669D01*
X29921Y47046D01*
X28303Y48127D01*
X26504Y48872D01*
X24595Y49252D01*
D02*
G37*
G36*
X213864Y27496D02*
X213610D01*
Y22272D01*
X218835D01*
Y22525D01*
X218444Y23981D01*
X217691Y25286D01*
X216625Y26352D01*
X215320Y27106D01*
X213864Y27496D01*
D02*
G37*
G36*
X212610D02*
X212357D01*
X210901Y27106D01*
X209595Y26352D01*
X208530Y25286D01*
X207776Y23981D01*
X207386Y22525D01*
Y22272D01*
X212610D01*
Y27496D01*
D02*
G37*
G36*
X149848D02*
X149594D01*
Y22272D01*
X154819D01*
Y22525D01*
X154429Y23981D01*
X153675Y25286D01*
X152609Y26352D01*
X151304Y27106D01*
X149848Y27496D01*
D02*
G37*
G36*
X148594D02*
X148341D01*
X146885Y27106D01*
X145580Y26352D01*
X144514Y25286D01*
X143760Y23981D01*
X143370Y22525D01*
Y22272D01*
X148594D01*
Y27496D01*
D02*
G37*
G36*
X191647Y27303D02*
X190637D01*
X189703Y26917D01*
X188989Y26202D01*
X188602Y25269D01*
Y24259D01*
X188989Y23325D01*
X189703Y22611D01*
X190637Y22224D01*
X191647D01*
X192580Y22611D01*
X193295Y23325D01*
X193681Y24259D01*
Y25269D01*
X193295Y26202D01*
X192580Y26917D01*
X191647Y27303D01*
D02*
G37*
G36*
X183615D02*
X182605D01*
X181672Y26917D01*
X180957Y26202D01*
X180571Y25269D01*
Y24259D01*
X180957Y23325D01*
X181672Y22611D01*
X182605Y22224D01*
X183615D01*
X184549Y22611D01*
X185263Y23325D01*
X185650Y24259D01*
Y25269D01*
X185263Y26202D01*
X184549Y26917D01*
X183615Y27303D01*
D02*
G37*
G36*
X175584D02*
X174574D01*
X173640Y26917D01*
X172926Y26202D01*
X172539Y25269D01*
Y24259D01*
X172926Y23325D01*
X173640Y22611D01*
X174574Y22224D01*
X175584D01*
X176517Y22611D01*
X177232Y23325D01*
X177618Y24259D01*
Y25269D01*
X177232Y26202D01*
X176517Y26917D01*
X175584Y27303D01*
D02*
G37*
G36*
X167552D02*
X166542D01*
X165609Y26917D01*
X164894Y26202D01*
X164508Y25269D01*
Y24259D01*
X164894Y23325D01*
X165609Y22611D01*
X166542Y22224D01*
X167552D01*
X168486Y22611D01*
X169200Y23325D01*
X169587Y24259D01*
Y25269D01*
X169200Y26202D01*
X168486Y26917D01*
X167552Y27303D01*
D02*
G37*
G36*
X218835Y21272D02*
X213610D01*
Y16047D01*
X213864D01*
X215320Y16437D01*
X216625Y17191D01*
X217691Y18257D01*
X218444Y19562D01*
X218835Y21018D01*
Y21272D01*
D02*
G37*
G36*
X212610D02*
X207386D01*
Y21018D01*
X207776Y19562D01*
X208530Y18257D01*
X209595Y17191D01*
X210901Y16437D01*
X212357Y16047D01*
X212610D01*
Y21272D01*
D02*
G37*
G36*
X154819D02*
X149594D01*
Y16047D01*
X149848D01*
X151304Y16437D01*
X152609Y17191D01*
X153675Y18257D01*
X154429Y19562D01*
X154819Y21018D01*
Y21272D01*
D02*
G37*
G36*
X148594D02*
X143370D01*
Y21018D01*
X143760Y19562D01*
X144514Y18257D01*
X145580Y17191D01*
X146885Y16437D01*
X148341Y16047D01*
X148594D01*
Y21272D01*
D02*
G37*
G36*
X195663Y20295D02*
X194652D01*
X193719Y19909D01*
X193005Y19194D01*
X192618Y18261D01*
Y17251D01*
X193005Y16318D01*
X193719Y15603D01*
X194652Y15217D01*
X195663D01*
X196596Y15603D01*
X197310Y16318D01*
X197697Y17251D01*
Y18261D01*
X197310Y19194D01*
X196596Y19909D01*
X195663Y20295D01*
D02*
G37*
G36*
X187631D02*
X186621D01*
X185688Y19909D01*
X184973Y19194D01*
X184587Y18261D01*
Y17251D01*
X184973Y16318D01*
X185688Y15603D01*
X186621Y15217D01*
X187631D01*
X188564Y15603D01*
X189279Y16318D01*
X189665Y17251D01*
Y18261D01*
X189279Y19194D01*
X188564Y19909D01*
X187631Y20295D01*
D02*
G37*
G36*
X179600D02*
X178589D01*
X177656Y19909D01*
X176942Y19194D01*
X176555Y18261D01*
Y17251D01*
X176942Y16318D01*
X177656Y15603D01*
X178589Y15217D01*
X179600D01*
X180533Y15603D01*
X181247Y16318D01*
X181634Y17251D01*
Y18261D01*
X181247Y19194D01*
X180533Y19909D01*
X179600Y20295D01*
D02*
G37*
G36*
X171568D02*
X170558D01*
X169625Y19909D01*
X168910Y19194D01*
X168524Y18261D01*
Y17251D01*
X168910Y16318D01*
X169625Y15603D01*
X170558Y15217D01*
X171568D01*
X172501Y15603D01*
X173216Y16318D01*
X173602Y17251D01*
Y18261D01*
X173216Y19194D01*
X172501Y19909D01*
X171568Y20295D01*
D02*
G37*
G36*
X307746Y272539D02*
X306427D01*
X305134Y272282D01*
X303916Y271778D01*
X302820Y271045D01*
X301888Y270113D01*
X301155Y269017D01*
X300651Y267799D01*
X300394Y266506D01*
Y265187D01*
X300651Y263894D01*
X301155Y262676D01*
X301888Y261580D01*
X302820Y260648D01*
X303916Y259915D01*
X305134Y259411D01*
X306427Y259154D01*
X307746D01*
X309039Y259411D01*
X310257Y259915D01*
X311353Y260648D01*
X312285Y261580D01*
X313018Y262676D01*
X313522Y263894D01*
X313779Y265187D01*
Y266506D01*
X313522Y267799D01*
X313018Y269017D01*
X312285Y270113D01*
X311353Y271045D01*
X310257Y271778D01*
X309039Y272282D01*
X307746Y272539D01*
D02*
G37*
G36*
X339556Y265787D02*
X337609D01*
X335700Y265408D01*
X333902Y264663D01*
X332283Y263581D01*
X330907Y262205D01*
X329825Y260586D01*
X329081Y258788D01*
X328701Y256879D01*
Y254932D01*
X329081Y253023D01*
X329825Y251225D01*
X330907Y249606D01*
X332283Y248230D01*
X333902Y247148D01*
X335700Y246403D01*
X337609Y246024D01*
X339556D01*
X341465Y246403D01*
X343264Y247148D01*
X344882Y248230D01*
X346258Y249606D01*
X347340Y251225D01*
X348085Y253023D01*
X348465Y254932D01*
Y256879D01*
X348085Y258788D01*
X347340Y260586D01*
X346258Y262205D01*
X344882Y263581D01*
X343264Y264663D01*
X341465Y265408D01*
X339556Y265787D01*
D02*
G37*
G36*
X309523Y249783D02*
X308745D01*
X307994Y249582D01*
X307321Y249194D01*
X306771Y248644D01*
X306382Y247970D01*
X306181Y247219D01*
Y246442D01*
X306382Y245691D01*
X306771Y245018D01*
X307321Y244468D01*
X307994Y244079D01*
X308745Y243878D01*
X309523D01*
X310274Y244079D01*
X310947Y244468D01*
X311497Y245018D01*
X311885Y245691D01*
X312087Y246442D01*
Y247219D01*
X311885Y247970D01*
X311497Y248644D01*
X310947Y249194D01*
X310274Y249582D01*
X309523Y249783D01*
D02*
G37*
G36*
X309732Y241374D02*
X309634D01*
Y237331D01*
X313677D01*
Y237429D01*
X313368Y238584D01*
X312769Y239620D01*
X311924Y240466D01*
X310888Y241064D01*
X309732Y241374D01*
D02*
G37*
G36*
X308634D02*
X308536D01*
X307380Y241064D01*
X306344Y240466D01*
X305498Y239620D01*
X304900Y238584D01*
X304591Y237429D01*
Y237331D01*
X308634D01*
Y241374D01*
D02*
G37*
G36*
X313677Y236331D02*
X309634D01*
Y232287D01*
X309732D01*
X310888Y232597D01*
X311924Y233195D01*
X312769Y234041D01*
X313368Y235077D01*
X313677Y236233D01*
Y236331D01*
D02*
G37*
G36*
X308634D02*
X304591D01*
Y236233D01*
X304900Y235077D01*
X305498Y234041D01*
X306344Y233195D01*
X307380Y232597D01*
X308536Y232287D01*
X308634D01*
Y236331D01*
D02*
G37*
G36*
X340657Y234012D02*
Y230815D01*
X343854D01*
X343605Y231743D01*
X343118Y232587D01*
X342429Y233276D01*
X341586Y233763D01*
X340657Y234012D01*
D02*
G37*
G36*
X339657D02*
X338729Y233763D01*
X337886Y233276D01*
X337197Y232587D01*
X336710Y231743D01*
X336461Y230815D01*
X339657D01*
Y234012D01*
D02*
G37*
G36*
X309732Y231374D02*
X309634D01*
Y227331D01*
X313677D01*
Y227429D01*
X313368Y228584D01*
X312769Y229620D01*
X311924Y230466D01*
X310888Y231064D01*
X309732Y231374D01*
D02*
G37*
G36*
X308634D02*
X308536D01*
X307380Y231064D01*
X306344Y230466D01*
X305498Y229620D01*
X304900Y228584D01*
X304591Y227429D01*
Y227331D01*
X308634D01*
Y231374D01*
D02*
G37*
G36*
X343854Y229815D02*
X340657D01*
Y226618D01*
X341586Y226867D01*
X342429Y227354D01*
X343118Y228043D01*
X343605Y228887D01*
X343854Y229815D01*
D02*
G37*
G36*
X339657D02*
X336461D01*
X336710Y228887D01*
X337197Y228043D01*
X337886Y227354D01*
X338729Y226867D01*
X339657Y226618D01*
Y229815D01*
D02*
G37*
G36*
X313677Y226331D02*
X309634D01*
Y222287D01*
X309732D01*
X310888Y222597D01*
X311924Y223195D01*
X312769Y224041D01*
X313368Y225077D01*
X313677Y226233D01*
Y226331D01*
D02*
G37*
G36*
X308634D02*
X304591D01*
Y226233D01*
X304900Y225077D01*
X305498Y224041D01*
X306344Y223195D01*
X307380Y222597D01*
X308536Y222287D01*
X308634D01*
Y226331D01*
D02*
G37*
G36*
X309523Y219783D02*
X308745D01*
X307994Y219582D01*
X307321Y219194D01*
X306771Y218644D01*
X306382Y217970D01*
X306181Y217219D01*
Y216442D01*
X306382Y215691D01*
X306771Y215018D01*
X307321Y214468D01*
X307994Y214079D01*
X308745Y213878D01*
X309523D01*
X310274Y214079D01*
X310947Y214468D01*
X311497Y215018D01*
X311885Y215691D01*
X312087Y216442D01*
Y217219D01*
X311885Y217970D01*
X311497Y218644D01*
X310947Y219194D01*
X310274Y219582D01*
X309523Y219783D01*
D02*
G37*
G36*
X340652Y213117D02*
X339663D01*
X338749Y212739D01*
X338049Y212039D01*
X337670Y211125D01*
Y210135D01*
X338049Y209221D01*
X338749Y208521D01*
X339663Y208142D01*
X340652D01*
X341566Y208521D01*
X342266Y209221D01*
X342645Y210135D01*
Y211125D01*
X342266Y212039D01*
X341566Y212739D01*
X340652Y213117D01*
D02*
G37*
G36*
X309523Y209784D02*
X308745D01*
X307994Y209582D01*
X307321Y209193D01*
X306771Y208644D01*
X306382Y207970D01*
X306181Y207220D01*
Y206442D01*
X306382Y205691D01*
X306771Y205018D01*
X307321Y204468D01*
X307994Y204079D01*
X308745Y203878D01*
X309523D01*
X310274Y204079D01*
X310947Y204468D01*
X311497Y205018D01*
X311885Y205691D01*
X312087Y206442D01*
Y207220D01*
X311885Y207970D01*
X311497Y208644D01*
X310947Y209193D01*
X310274Y209582D01*
X309523Y209784D01*
D02*
G37*
G36*
Y199784D02*
X308745D01*
X307994Y199582D01*
X307321Y199194D01*
X306771Y198644D01*
X306382Y197970D01*
X306181Y197220D01*
Y196442D01*
X306382Y195691D01*
X306771Y195018D01*
X307321Y194468D01*
X307994Y194079D01*
X308745Y193878D01*
X309523D01*
X310274Y194079D01*
X310947Y194468D01*
X311497Y195018D01*
X311885Y195691D01*
X312087Y196442D01*
Y197220D01*
X311885Y197970D01*
X311497Y198644D01*
X310947Y199194D01*
X310274Y199582D01*
X309523Y199784D01*
D02*
G37*
G36*
X343348Y198250D02*
X342478D01*
X341674Y197917D01*
X341059Y197302D01*
X340726Y196498D01*
Y195628D01*
X341059Y194824D01*
X341674Y194209D01*
X342478Y193876D01*
X343348D01*
X344152Y194209D01*
X344767Y194824D01*
X345100Y195628D01*
Y196498D01*
X344767Y197302D01*
X344152Y197917D01*
X343348Y198250D01*
D02*
G37*
G36*
X337443D02*
X336573D01*
X335769Y197917D01*
X335154Y197302D01*
X334821Y196498D01*
Y195628D01*
X335154Y194824D01*
X335769Y194209D01*
X336573Y193876D01*
X337443D01*
X338247Y194209D01*
X338862Y194824D01*
X339195Y195628D01*
Y196498D01*
X338862Y197302D01*
X338247Y197917D01*
X337443Y198250D01*
D02*
G37*
G36*
X309523Y189784D02*
X308745D01*
X307994Y189582D01*
X307321Y189193D01*
X306771Y188644D01*
X306382Y187970D01*
X306181Y187220D01*
Y186442D01*
X306382Y185691D01*
X306771Y185018D01*
X307321Y184468D01*
X307994Y184079D01*
X308745Y183878D01*
X309523D01*
X310274Y184079D01*
X310947Y184468D01*
X311497Y185018D01*
X311885Y185691D01*
X312087Y186442D01*
Y187220D01*
X311885Y187970D01*
X311497Y188644D01*
X310947Y189193D01*
X310274Y189582D01*
X309523Y189784D01*
D02*
G37*
G36*
X340652Y188708D02*
X339663D01*
X338749Y188329D01*
X338049Y187629D01*
X337670Y186715D01*
Y185726D01*
X338049Y184811D01*
X338749Y184112D01*
X339663Y183733D01*
X340652D01*
X341566Y184112D01*
X342266Y184811D01*
X342645Y185726D01*
Y186715D01*
X342266Y187629D01*
X341566Y188329D01*
X340652Y188708D01*
D02*
G37*
G36*
X309523Y179783D02*
X308745D01*
X307994Y179582D01*
X307321Y179193D01*
X306771Y178644D01*
X306382Y177970D01*
X306181Y177219D01*
Y176442D01*
X306382Y175691D01*
X306771Y175018D01*
X307321Y174468D01*
X307994Y174079D01*
X308745Y173878D01*
X309523D01*
X310274Y174079D01*
X310947Y174468D01*
X311497Y175018D01*
X311885Y175691D01*
X312087Y176442D01*
Y177219D01*
X311885Y177970D01*
X311497Y178644D01*
X310947Y179193D01*
X310274Y179582D01*
X309523Y179783D01*
D02*
G37*
G36*
X340652Y169023D02*
X339663D01*
X338749Y168644D01*
X338049Y167944D01*
X337670Y167030D01*
Y166041D01*
X338049Y165126D01*
X338749Y164427D01*
X339663Y164048D01*
X340652D01*
X341566Y164427D01*
X342266Y165126D01*
X342645Y166041D01*
Y167030D01*
X342266Y167944D01*
X341566Y168644D01*
X340652Y169023D01*
D02*
G37*
G36*
X309523Y169783D02*
X308745D01*
X307994Y169582D01*
X307321Y169193D01*
X306771Y168644D01*
X306382Y167970D01*
X306181Y167219D01*
Y166442D01*
X306382Y165691D01*
X306771Y165018D01*
X307321Y164468D01*
X307994Y164079D01*
X308745Y163878D01*
X309523D01*
X310274Y164079D01*
X310947Y164468D01*
X311497Y165018D01*
X311885Y165691D01*
X312087Y166442D01*
Y167219D01*
X311885Y167970D01*
X311497Y168644D01*
X310947Y169193D01*
X310274Y169582D01*
X309523Y169783D01*
D02*
G37*
G36*
X307746Y154232D02*
X306427D01*
X305134Y153975D01*
X303916Y153471D01*
X302820Y152738D01*
X301888Y151806D01*
X301155Y150710D01*
X300651Y149492D01*
X300394Y148199D01*
Y146880D01*
X300651Y145587D01*
X301155Y144369D01*
X301888Y143273D01*
X302820Y142341D01*
X303916Y141608D01*
X305134Y141104D01*
X306427Y140847D01*
X307746D01*
X309039Y141104D01*
X310257Y141608D01*
X311353Y142341D01*
X312285Y143273D01*
X313018Y144369D01*
X313522Y145587D01*
X313779Y146880D01*
Y148199D01*
X313522Y149492D01*
X313018Y150710D01*
X312285Y151806D01*
X311353Y152738D01*
X310257Y153471D01*
X309039Y153975D01*
X307746Y154232D01*
D02*
G37*
G36*
X317203Y138779D02*
X316655D01*
X316149Y138570D01*
X315761Y138182D01*
X315551Y137676D01*
Y137127D01*
X315761Y136621D01*
X316149Y136233D01*
X316655Y136024D01*
X317203D01*
X317710Y136233D01*
X318097Y136621D01*
X318307Y137127D01*
Y137676D01*
X318097Y138182D01*
X317710Y138570D01*
X317203Y138779D01*
D02*
G37*
G36*
X251596Y129543D02*
X251524D01*
Y125697D01*
X255370D01*
Y125769D01*
X255074Y126874D01*
X254502Y127866D01*
X253692Y128675D01*
X252701Y129247D01*
X251596Y129543D01*
D02*
G37*
G36*
X250524D02*
X250451D01*
X249346Y129247D01*
X248355Y128675D01*
X247546Y127866D01*
X246973Y126874D01*
X246677Y125769D01*
Y125697D01*
X250524D01*
Y129543D01*
D02*
G37*
G36*
X281412Y128150D02*
X280635D01*
X279884Y127948D01*
X279211Y127560D01*
X278661Y127010D01*
X278272Y126337D01*
X278071Y125586D01*
Y124808D01*
X278272Y124057D01*
X278661Y123384D01*
X279211Y122834D01*
X279884Y122445D01*
X280635Y122244D01*
X281412D01*
X282163Y122445D01*
X282837Y122834D01*
X283386Y123384D01*
X283775Y124057D01*
X283976Y124808D01*
Y125586D01*
X283775Y126337D01*
X283386Y127010D01*
X282837Y127560D01*
X282163Y127948D01*
X281412Y128150D01*
D02*
G37*
G36*
X271412D02*
X270635D01*
X269884Y127948D01*
X269211Y127560D01*
X268661Y127010D01*
X268272Y126337D01*
X268071Y125586D01*
Y124808D01*
X268272Y124057D01*
X268661Y123384D01*
X269211Y122834D01*
X269884Y122445D01*
X270635Y122244D01*
X271412D01*
X272163Y122445D01*
X272837Y122834D01*
X273386Y123384D01*
X273775Y124057D01*
X273976Y124808D01*
Y125586D01*
X273775Y126337D01*
X273386Y127010D01*
X272837Y127560D01*
X272163Y127948D01*
X271412Y128150D01*
D02*
G37*
G36*
X261412D02*
X260635D01*
X259884Y127948D01*
X259211Y127560D01*
X258661Y127010D01*
X258272Y126337D01*
X258071Y125586D01*
Y124808D01*
X258272Y124057D01*
X258661Y123384D01*
X259211Y122834D01*
X259884Y122445D01*
X260635Y122244D01*
X261412D01*
X262163Y122445D01*
X262837Y122834D01*
X263386Y123384D01*
X263775Y124057D01*
X263976Y124808D01*
Y125586D01*
X263775Y126337D01*
X263386Y127010D01*
X262837Y127560D01*
X262163Y127948D01*
X261412Y128150D01*
D02*
G37*
G36*
X255370Y124697D02*
X251524D01*
Y120850D01*
X251596D01*
X252701Y121147D01*
X253692Y121719D01*
X254502Y122528D01*
X255074Y123519D01*
X255370Y124625D01*
Y124697D01*
D02*
G37*
G36*
X250524D02*
X246677D01*
Y124625D01*
X246973Y123519D01*
X247546Y122528D01*
X248355Y121719D01*
X249346Y121147D01*
X250451Y120850D01*
X250524D01*
Y124697D01*
D02*
G37*
G36*
X347239Y116929D02*
X346462D01*
X345711Y116728D01*
X345037Y116339D01*
X344488Y115789D01*
X344099Y115116D01*
X343898Y114365D01*
Y113588D01*
X344099Y112837D01*
X344488Y112163D01*
X345037Y111614D01*
X345711Y111225D01*
X346462Y111024D01*
X347239D01*
X347990Y111225D01*
X348663Y111614D01*
X349213Y112163D01*
X349602Y112837D01*
X349803Y113588D01*
Y114365D01*
X349602Y115116D01*
X349213Y115789D01*
X348663Y116339D01*
X347990Y116728D01*
X347239Y116929D01*
D02*
G37*
G36*
X279011Y114764D02*
X278233D01*
X277482Y114563D01*
X276809Y114174D01*
X276259Y113624D01*
X275870Y112951D01*
X275669Y112200D01*
Y111422D01*
X275870Y110671D01*
X276259Y109998D01*
X276809Y109448D01*
X277482Y109060D01*
X278233Y108858D01*
X279011D01*
X279762Y109060D01*
X280435Y109448D01*
X280985Y109998D01*
X281374Y110671D01*
X281575Y111422D01*
Y112200D01*
X281374Y112951D01*
X280985Y113624D01*
X280435Y114174D01*
X279762Y114563D01*
X279011Y114764D01*
D02*
G37*
G36*
X269011D02*
X268233D01*
X267482Y114563D01*
X266809Y114174D01*
X266259Y113624D01*
X265870Y112951D01*
X265669Y112200D01*
Y111422D01*
X265870Y110671D01*
X266259Y109998D01*
X266809Y109448D01*
X267482Y109060D01*
X268233Y108858D01*
X269011D01*
X269762Y109060D01*
X270435Y109448D01*
X270985Y109998D01*
X271374Y110671D01*
X271575Y111422D01*
Y112200D01*
X271374Y112951D01*
X270985Y113624D01*
X270435Y114174D01*
X269762Y114563D01*
X269011Y114764D01*
D02*
G37*
G36*
X298236Y111236D02*
X298138D01*
Y107193D01*
X302181D01*
Y107291D01*
X301871Y108447D01*
X301273Y109483D01*
X300427Y110328D01*
X299391Y110927D01*
X298236Y111236D01*
D02*
G37*
G36*
X297138D02*
X297040D01*
X295884Y110927D01*
X294848Y110328D01*
X294002Y109483D01*
X293404Y108447D01*
X293094Y107291D01*
Y107193D01*
X297138D01*
Y111236D01*
D02*
G37*
G36*
X317660Y109252D02*
X316986D01*
X316335Y109078D01*
X315752Y108741D01*
X315275Y108264D01*
X314938Y107681D01*
X314764Y107030D01*
Y106356D01*
X314938Y105705D01*
X315275Y105122D01*
X315752Y104645D01*
X316335Y104308D01*
X316986Y104134D01*
X317660D01*
X318311Y104308D01*
X318894Y104645D01*
X319371Y105122D01*
X319707Y105705D01*
X319882Y106356D01*
Y107030D01*
X319707Y107681D01*
X319371Y108264D01*
X318894Y108741D01*
X318311Y109078D01*
X317660Y109252D01*
D02*
G37*
G36*
X302181Y106193D02*
X298138D01*
Y102150D01*
X298236D01*
X299391Y102459D01*
X300427Y103057D01*
X301273Y103903D01*
X301871Y104939D01*
X302181Y106095D01*
Y106193D01*
D02*
G37*
G36*
X297138D02*
X293094D01*
Y106095D01*
X293404Y104939D01*
X294002Y103903D01*
X294848Y103057D01*
X295884Y102459D01*
X297040Y102150D01*
X297138D01*
Y106193D01*
D02*
G37*
G36*
X347239Y103150D02*
X346462D01*
X345711Y102948D01*
X345037Y102560D01*
X344488Y102010D01*
X344099Y101337D01*
X343898Y100586D01*
Y99808D01*
X344099Y99057D01*
X344488Y98384D01*
X345037Y97834D01*
X345711Y97445D01*
X346462Y97244D01*
X347239D01*
X347990Y97445D01*
X348663Y97834D01*
X349213Y98384D01*
X349602Y99057D01*
X349803Y99808D01*
Y100586D01*
X349602Y101337D01*
X349213Y102010D01*
X348663Y102560D01*
X347990Y102948D01*
X347239Y103150D01*
D02*
G37*
G36*
X275415Y101378D02*
X274585D01*
X273784Y101163D01*
X273066Y100749D01*
X272480Y100162D01*
X272065Y99444D01*
X271850Y98643D01*
Y97814D01*
X272065Y97013D01*
X272480Y96294D01*
X273066Y95708D01*
X273784Y95293D01*
X274585Y95079D01*
X275415D01*
X276216Y95293D01*
X276934Y95708D01*
X277520Y96294D01*
X277935Y97013D01*
X278150Y97814D01*
Y98643D01*
X277935Y99444D01*
X277520Y100162D01*
X276934Y100749D01*
X276216Y101163D01*
X275415Y101378D01*
D02*
G37*
G36*
X265572D02*
X264743D01*
X263942Y101163D01*
X263224Y100749D01*
X262637Y100162D01*
X262223Y99444D01*
X262008Y98643D01*
Y97814D01*
X262223Y97013D01*
X262637Y96294D01*
X263224Y95708D01*
X263942Y95293D01*
X264743Y95079D01*
X265572D01*
X266373Y95293D01*
X267091Y95708D01*
X267678Y96294D01*
X268092Y97013D01*
X268307Y97814D01*
Y98643D01*
X268092Y99444D01*
X267678Y100162D01*
X267091Y100749D01*
X266373Y101163D01*
X265572Y101378D01*
D02*
G37*
G36*
X259723Y91142D02*
X259175D01*
X258668Y90932D01*
X258281Y90544D01*
X258071Y90038D01*
Y89490D01*
X258281Y88983D01*
X258668Y88596D01*
X259175Y88386D01*
X259723D01*
X260229Y88596D01*
X260617Y88983D01*
X260827Y89490D01*
Y90038D01*
X260617Y90544D01*
X260229Y90932D01*
X259723Y91142D01*
D02*
G37*
G36*
X347397Y90567D02*
X347350D01*
Y86917D01*
X351000D01*
Y86964D01*
X350717Y88019D01*
X350171Y88965D01*
X349398Y89738D01*
X348452Y90284D01*
X347397Y90567D01*
D02*
G37*
G36*
X346350D02*
X346304D01*
X345249Y90284D01*
X344303Y89738D01*
X343530Y88965D01*
X342984Y88019D01*
X342701Y86964D01*
Y86917D01*
X346350D01*
Y90567D01*
D02*
G37*
G36*
X275415Y89173D02*
X274585D01*
X273784Y88959D01*
X273066Y88544D01*
X272480Y87958D01*
X272065Y87239D01*
X271850Y86438D01*
Y85609D01*
X272065Y84808D01*
X272480Y84090D01*
X273066Y83503D01*
X273784Y83089D01*
X274585Y82874D01*
X275415D01*
X276216Y83089D01*
X276934Y83503D01*
X277520Y84090D01*
X277935Y84808D01*
X278150Y85609D01*
Y86438D01*
X277935Y87239D01*
X277520Y87958D01*
X276934Y88544D01*
X276216Y88959D01*
X275415Y89173D01*
D02*
G37*
G36*
X265572D02*
X264743D01*
X263942Y88959D01*
X263224Y88544D01*
X262637Y87958D01*
X262223Y87239D01*
X262008Y86438D01*
Y85609D01*
X262223Y84808D01*
X262637Y84090D01*
X263224Y83503D01*
X263942Y83089D01*
X264743Y82874D01*
X265572D01*
X266373Y83089D01*
X267091Y83503D01*
X267678Y84090D01*
X268092Y84808D01*
X268307Y85609D01*
Y86438D01*
X268092Y87239D01*
X267678Y87958D01*
X267091Y88544D01*
X266373Y88959D01*
X265572Y89173D01*
D02*
G37*
G36*
X351000Y85917D02*
X347350D01*
Y82268D01*
X347397D01*
X348452Y82551D01*
X349398Y83097D01*
X350171Y83869D01*
X350717Y84816D01*
X351000Y85871D01*
Y85917D01*
D02*
G37*
G36*
X346350D02*
X342701D01*
Y85871D01*
X342984Y84816D01*
X343530Y83869D01*
X344303Y83097D01*
X345249Y82551D01*
X346304Y82268D01*
X346350D01*
Y85917D01*
D02*
G37*
G36*
X351000Y76787D02*
X347350D01*
Y73138D01*
X351000D01*
Y76787D01*
D02*
G37*
G36*
X346350D02*
X342701D01*
Y73138D01*
X346350D01*
Y76787D01*
D02*
G37*
G36*
X253817Y73819D02*
X253269D01*
X252763Y73609D01*
X252375Y73221D01*
X252165Y72715D01*
Y72167D01*
X252375Y71660D01*
X252763Y71273D01*
X253269Y71063D01*
X253817D01*
X254324Y71273D01*
X254712Y71660D01*
X254921Y72167D01*
Y72715D01*
X254712Y73221D01*
X254324Y73609D01*
X253817Y73819D01*
D02*
G37*
G36*
X351000Y72138D02*
X347350D01*
Y68488D01*
X351000D01*
Y72138D01*
D02*
G37*
G36*
X346350D02*
X342701D01*
Y68488D01*
X346350D01*
Y72138D01*
D02*
G37*
G36*
X268835Y69898D02*
X265185D01*
Y66248D01*
X268835D01*
Y69898D01*
D02*
G37*
G36*
X264185D02*
X260535D01*
Y66248D01*
X264185D01*
Y69898D01*
D02*
G37*
G36*
X275074Y68701D02*
X274296D01*
X273545Y68500D01*
X272872Y68111D01*
X272322Y67561D01*
X271934Y66888D01*
X271732Y66137D01*
Y65359D01*
X271934Y64608D01*
X272322Y63935D01*
X272872Y63385D01*
X273545Y62997D01*
X274296Y62795D01*
X275074D01*
X275825Y62997D01*
X276498Y63385D01*
X277048Y63935D01*
X277437Y64608D01*
X277638Y65359D01*
Y66137D01*
X277437Y66888D01*
X277048Y67561D01*
X276498Y68111D01*
X275825Y68500D01*
X275074Y68701D01*
D02*
G37*
G36*
X268835Y65248D02*
X265185D01*
Y61598D01*
X268835D01*
Y65248D01*
D02*
G37*
G36*
X264185D02*
X260535D01*
Y61598D01*
X264185D01*
Y65248D01*
D02*
G37*
G36*
X253030Y62795D02*
X252482D01*
X251975Y62586D01*
X251588Y62198D01*
X251378Y61691D01*
Y61143D01*
X251588Y60637D01*
X251975Y60249D01*
X252482Y60039D01*
X253030D01*
X253537Y60249D01*
X253924Y60637D01*
X254134Y61143D01*
Y61691D01*
X253924Y62198D01*
X253537Y62586D01*
X253030Y62795D01*
D02*
G37*
G36*
X254211Y49409D02*
X253662D01*
X253156Y49200D01*
X252768Y48812D01*
X252559Y48305D01*
Y47757D01*
X252768Y47251D01*
X253156Y46863D01*
X253662Y46653D01*
X254211D01*
X254717Y46863D01*
X255105Y47251D01*
X255314Y47757D01*
Y48305D01*
X255105Y48812D01*
X254717Y49200D01*
X254211Y49409D01*
D02*
G37*
G36*
X274016Y42960D02*
X265354D01*
X264433Y42776D01*
X263651Y42254D01*
X263129Y41473D01*
X262946Y40551D01*
X263129Y39630D01*
X263651Y38848D01*
X264433Y38326D01*
X265354Y38143D01*
X274016D01*
X274937Y38326D01*
X275719Y38848D01*
X276241Y39630D01*
X276424Y40551D01*
X276241Y41473D01*
X275719Y42254D01*
X274937Y42776D01*
X274016Y42960D01*
D02*
G37*
G36*
X339556Y49252D02*
X337609D01*
X335700Y48872D01*
X333902Y48127D01*
X332283Y47046D01*
X330907Y45669D01*
X329825Y44051D01*
X329081Y42252D01*
X328701Y40343D01*
Y38397D01*
X329081Y36488D01*
X329825Y34689D01*
X330907Y33071D01*
X332283Y31694D01*
X333902Y30613D01*
X335700Y29868D01*
X337609Y29488D01*
X339556D01*
X341465Y29868D01*
X343264Y30613D01*
X344882Y31694D01*
X346258Y33071D01*
X347340Y34689D01*
X348085Y36488D01*
X348465Y38397D01*
Y40343D01*
X348085Y42252D01*
X347340Y44051D01*
X346258Y45669D01*
X344882Y47046D01*
X343264Y48127D01*
X341465Y48872D01*
X339556Y49252D01*
D02*
G37*
G36*
X288976Y34101D02*
X288055Y33918D01*
X287273Y33396D01*
X286751Y32615D01*
X286568Y31693D01*
Y31693D01*
Y25000D01*
Y25000D01*
X286751Y24078D01*
X287273Y23297D01*
X288055Y22775D01*
X288976Y22591D01*
X289898Y22775D01*
X290679Y23297D01*
X291201Y24078D01*
X291385Y25000D01*
Y31693D01*
X291201Y32615D01*
X290679Y33396D01*
X289898Y33918D01*
X288976Y34101D01*
D02*
G37*
G36*
X273622Y21512D02*
X270185D01*
Y17429D01*
X278139D01*
X278048Y18115D01*
X277591Y19220D01*
X276862Y20169D01*
X275913Y20898D01*
X274808Y21355D01*
X273622Y21512D01*
D02*
G37*
G36*
X269185D02*
X265748D01*
X264562Y21355D01*
X263457Y20898D01*
X262508Y20169D01*
X261779Y19220D01*
X261322Y18115D01*
X261231Y17429D01*
X269185D01*
Y21512D01*
D02*
G37*
G36*
X278139Y16429D02*
X270185D01*
Y12347D01*
X273622D01*
X274808Y12503D01*
X275913Y12961D01*
X276862Y13689D01*
X277591Y14638D01*
X278048Y15743D01*
X278139Y16429D01*
D02*
G37*
G36*
X269185D02*
X261231D01*
X261322Y15743D01*
X261779Y14638D01*
X262508Y13689D01*
X263457Y12961D01*
X264562Y12503D01*
X265748Y12347D01*
X269185D01*
Y16429D01*
D02*
G37*
%LPD*%
D66*
X251024Y125197D02*
D03*
D67*
X309134Y226831D02*
D03*
Y236831D02*
D03*
X297638Y106693D02*
D03*
D86*
X149094Y21772D02*
D03*
X213110D02*
D03*
D87*
X269685Y16929D02*
D03*
D90*
X340158Y230315D02*
D03*
D93*
X346850Y72638D02*
D03*
D94*
Y86417D02*
D03*
D95*
X264685Y65748D02*
D03*
D96*
X211811Y70669D02*
D03*
X149606D02*
D03*
D98*
X142520Y231496D02*
D03*
X146063D02*
D03*
X149606D02*
D03*
X153150D02*
D03*
X156693D02*
D03*
X160236D02*
D03*
Y235039D02*
D03*
X156693D02*
D03*
X153150D02*
D03*
X149606D02*
D03*
X146063D02*
D03*
X142520D02*
D03*
X160236Y238583D02*
D03*
X156693D02*
D03*
X153150D02*
D03*
X149606D02*
D03*
X146063D02*
D03*
X142520D02*
D03*
X160236Y242126D02*
D03*
X156693D02*
D03*
X153150D02*
D03*
X149606D02*
D03*
X146063D02*
D03*
X142520D02*
D03*
X160236Y245669D02*
D03*
X156693D02*
D03*
X153150D02*
D03*
X149606D02*
D03*
X146063D02*
D03*
X142520D02*
D03*
X160236Y249213D02*
D03*
X156693D02*
D03*
X153150D02*
D03*
X149606D02*
D03*
X146063D02*
D03*
X142520D02*
D03*
X78740Y167323D02*
D03*
X82284D02*
D03*
X85827D02*
D03*
X89370D02*
D03*
X92913D02*
D03*
X96457D02*
D03*
Y170866D02*
D03*
X92913D02*
D03*
X89370D02*
D03*
X85827D02*
D03*
X82284D02*
D03*
X78740D02*
D03*
X96457Y174409D02*
D03*
X92913D02*
D03*
X89370D02*
D03*
X85827D02*
D03*
X82284D02*
D03*
X78740D02*
D03*
X96457Y177953D02*
D03*
X92913D02*
D03*
X89370D02*
D03*
X85827D02*
D03*
X82284D02*
D03*
X78740D02*
D03*
X96457Y181496D02*
D03*
X92913D02*
D03*
X89370D02*
D03*
X85827D02*
D03*
X82284D02*
D03*
X78740D02*
D03*
X96457Y185039D02*
D03*
X92913D02*
D03*
X89370D02*
D03*
X85827D02*
D03*
X82284D02*
D03*
X78740D02*
D03*
X266929Y227953D02*
D03*
X270472D02*
D03*
X274016D02*
D03*
X277559D02*
D03*
X281102D02*
D03*
X284646D02*
D03*
Y231496D02*
D03*
X281102D02*
D03*
X277559D02*
D03*
X274016D02*
D03*
X270472D02*
D03*
X266929D02*
D03*
X284646Y235039D02*
D03*
X281102D02*
D03*
X277559D02*
D03*
X274016D02*
D03*
X270472D02*
D03*
X266929D02*
D03*
X284646Y238583D02*
D03*
X281102D02*
D03*
X277559D02*
D03*
X274016D02*
D03*
X270472D02*
D03*
X266929D02*
D03*
X284646Y242126D02*
D03*
X281102D02*
D03*
X277559D02*
D03*
X274016D02*
D03*
X270472D02*
D03*
X266929D02*
D03*
X284646Y245669D02*
D03*
X281102D02*
D03*
X277559D02*
D03*
X274016D02*
D03*
X270472D02*
D03*
X266929D02*
D03*
Y166929D02*
D03*
X270472D02*
D03*
X274016D02*
D03*
X277559D02*
D03*
X281102D02*
D03*
X284646D02*
D03*
Y170473D02*
D03*
X281102D02*
D03*
X277559D02*
D03*
X274016D02*
D03*
X270472D02*
D03*
X266929D02*
D03*
X284646Y174016D02*
D03*
X281102D02*
D03*
X277559D02*
D03*
X274016D02*
D03*
X270472D02*
D03*
X266929D02*
D03*
X284646Y177559D02*
D03*
X281102D02*
D03*
X277559D02*
D03*
X274016D02*
D03*
X270472D02*
D03*
X266929D02*
D03*
X284646Y181102D02*
D03*
X281102D02*
D03*
X277559D02*
D03*
X274016D02*
D03*
X270472D02*
D03*
X266929D02*
D03*
X284646Y184646D02*
D03*
X281102D02*
D03*
X277559D02*
D03*
X274016D02*
D03*
X270472D02*
D03*
X266929D02*
D03*
D99*
X6693Y268898D02*
D03*
X5118Y175591D02*
D03*
X5512Y161811D02*
D03*
Y144488D02*
D03*
X354330Y263779D02*
D03*
Y240157D02*
D03*
Y216535D02*
D03*
Y192913D02*
D03*
Y169291D02*
D03*
Y74803D02*
D03*
Y51181D02*
D03*
Y27559D02*
D03*
Y3937D02*
D03*
X342519Y240157D02*
D03*
X348425Y228346D02*
D03*
Y181102D02*
D03*
Y62992D02*
D03*
Y15748D02*
D03*
X342519Y3937D02*
D03*
X330709Y240157D02*
D03*
X336614Y86614D02*
D03*
X330709Y74803D02*
D03*
X336614Y62992D02*
D03*
Y15748D02*
D03*
X330709Y3937D02*
D03*
X324803Y86614D02*
D03*
X318897Y51181D02*
D03*
Y27559D02*
D03*
X324803Y15748D02*
D03*
X318897Y3937D02*
D03*
X312992Y251968D02*
D03*
Y157480D02*
D03*
Y133858D02*
D03*
X307086Y122047D02*
D03*
X312992Y86614D02*
D03*
X307086Y51181D02*
D03*
X312992Y39370D02*
D03*
X307086Y27559D02*
D03*
X312992Y15748D02*
D03*
X307086Y3937D02*
D03*
X295275Y263779D02*
D03*
X301181Y251968D02*
D03*
X295275Y240157D02*
D03*
X301181Y228346D02*
D03*
X295275Y216535D02*
D03*
X301181Y181102D02*
D03*
Y157480D02*
D03*
Y133858D02*
D03*
X295275Y51181D02*
D03*
Y27559D02*
D03*
X301181Y15748D02*
D03*
X295275Y3937D02*
D03*
X283464Y263779D02*
D03*
X289370Y251968D02*
D03*
X283464Y216535D02*
D03*
X289370Y204724D02*
D03*
X283464Y192913D02*
D03*
X289370Y157480D02*
D03*
X283464Y145669D02*
D03*
X289370Y133858D02*
D03*
Y39370D02*
D03*
Y15748D02*
D03*
X283464Y3937D02*
D03*
X271653Y263779D02*
D03*
X277559Y251968D02*
D03*
X271653Y216535D02*
D03*
X277559Y204724D02*
D03*
X271653Y192913D02*
D03*
X277559Y157480D02*
D03*
X271653Y145669D02*
D03*
X277559Y133858D02*
D03*
X271653Y74803D02*
D03*
Y27559D02*
D03*
Y3937D02*
D03*
X259842Y263779D02*
D03*
X265748Y251968D02*
D03*
X259842Y216535D02*
D03*
X265748Y204724D02*
D03*
X259842Y192913D02*
D03*
X265748Y157480D02*
D03*
X259842Y145669D02*
D03*
X265748Y133858D02*
D03*
X259842Y27559D02*
D03*
Y3937D02*
D03*
X248031Y263779D02*
D03*
X253937Y251968D02*
D03*
X248031Y240157D02*
D03*
X253937Y228346D02*
D03*
X248031Y216535D02*
D03*
X253937Y204724D02*
D03*
X248031Y192913D02*
D03*
X253937Y181102D02*
D03*
X248031Y169291D02*
D03*
X253937Y157480D02*
D03*
X248031Y145669D02*
D03*
X253937Y133858D02*
D03*
Y39370D02*
D03*
Y15748D02*
D03*
X248031Y3937D02*
D03*
X212598Y263779D02*
D03*
X218504Y251968D02*
D03*
X212598Y240157D02*
D03*
X218504Y228346D02*
D03*
X212598Y216535D02*
D03*
X218504Y204724D02*
D03*
X212598Y192913D02*
D03*
X218504Y181102D02*
D03*
X212598Y169291D02*
D03*
X218504Y157480D02*
D03*
X200787Y263779D02*
D03*
X206693Y251968D02*
D03*
X200787Y240157D02*
D03*
X206693Y228346D02*
D03*
X200787Y216535D02*
D03*
X206693Y204724D02*
D03*
X200787Y192913D02*
D03*
X206693Y181102D02*
D03*
X188976Y263779D02*
D03*
X194882Y251968D02*
D03*
X188976Y240157D02*
D03*
X194882Y228346D02*
D03*
X188976Y216535D02*
D03*
X194882Y204724D02*
D03*
X188976Y192913D02*
D03*
X194882Y181102D02*
D03*
X177165Y263779D02*
D03*
X183071Y251968D02*
D03*
X177165Y240157D02*
D03*
X183071Y228346D02*
D03*
X177165Y216535D02*
D03*
X183071Y204724D02*
D03*
X177165Y169291D02*
D03*
X183071Y157480D02*
D03*
X165354Y263779D02*
D03*
X171260Y251968D02*
D03*
Y228346D02*
D03*
X165354Y216535D02*
D03*
X171260Y204724D02*
D03*
X165354Y169291D02*
D03*
X171260Y157480D02*
D03*
X153543Y263779D02*
D03*
Y192913D02*
D03*
X159449Y181102D02*
D03*
X153543Y169291D02*
D03*
X159449Y157480D02*
D03*
X141732Y263779D02*
D03*
Y192913D02*
D03*
X147638Y181102D02*
D03*
X141732Y169291D02*
D03*
X147638Y157480D02*
D03*
X129921Y263779D02*
D03*
Y240157D02*
D03*
X135827Y204724D02*
D03*
X129921Y192913D02*
D03*
X135827Y181102D02*
D03*
X129921Y169291D02*
D03*
X135827Y157480D02*
D03*
X118110Y263779D02*
D03*
X124016Y251968D02*
D03*
X118110Y240157D02*
D03*
X124016Y228346D02*
D03*
Y204724D02*
D03*
X118110Y192913D02*
D03*
X124016Y181102D02*
D03*
X118110Y169291D02*
D03*
X124016Y157480D02*
D03*
X106299Y263779D02*
D03*
X112205Y251968D02*
D03*
X106299Y240157D02*
D03*
X112205Y228346D02*
D03*
Y204724D02*
D03*
X106299Y192913D02*
D03*
X112205Y181102D02*
D03*
X106299Y169291D02*
D03*
X112205Y157480D02*
D03*
X94488Y263779D02*
D03*
X100394Y251968D02*
D03*
X94488Y240157D02*
D03*
X100394Y228346D02*
D03*
Y204724D02*
D03*
X94488Y192913D02*
D03*
X100394Y157480D02*
D03*
X82677Y263779D02*
D03*
X88583Y251968D02*
D03*
X82677Y240157D02*
D03*
X88583Y228346D02*
D03*
Y204724D02*
D03*
X82677Y192913D02*
D03*
X88583Y157480D02*
D03*
X70866Y263779D02*
D03*
X76771Y251968D02*
D03*
X70866Y240157D02*
D03*
X76771Y228346D02*
D03*
Y204724D02*
D03*
X70866Y192913D02*
D03*
X59055Y263779D02*
D03*
X64960Y251968D02*
D03*
Y204724D02*
D03*
X59055Y192913D02*
D03*
Y145669D02*
D03*
X53149Y251968D02*
D03*
X47244Y169291D02*
D03*
X53149Y157480D02*
D03*
X35433Y240157D02*
D03*
X23622D02*
D03*
X11811D02*
D03*
X209563Y32512D02*
D03*
X205063Y23512D02*
D03*
X200563Y32512D02*
D03*
X196063Y5512D02*
D03*
X187063D02*
D03*
X178063D02*
D03*
X169063D02*
D03*
X142063Y41512D02*
D03*
Y5512D02*
D03*
X133063Y23512D02*
D03*
X137563Y14512D02*
D03*
X133063Y5512D02*
D03*
X128563Y14512D02*
D03*
X124063Y5512D02*
D03*
X119563Y14512D02*
D03*
X115063Y5512D02*
D03*
X110563Y14512D02*
D03*
X106063Y5512D02*
D03*
X101563Y14512D02*
D03*
X97063Y5512D02*
D03*
X92563Y32512D02*
D03*
X88063Y23512D02*
D03*
X92563Y14512D02*
D03*
X88063Y5512D02*
D03*
X79063Y23512D02*
D03*
X83563Y14512D02*
D03*
X79063Y5512D02*
D03*
X74563Y32512D02*
D03*
X70063Y5512D02*
D03*
X357480Y271654D02*
D03*
Y5118D02*
D03*
X238976Y3937D02*
D03*
X248819Y51968D02*
D03*
Y39764D02*
D03*
Y64567D02*
D03*
X243307Y86221D02*
D03*
Y111417D02*
D03*
X244488Y121653D02*
D03*
Y131890D02*
D03*
X319685Y141732D02*
D03*
X321260Y262205D02*
D03*
X328740Y146457D02*
D03*
X329134Y141732D02*
D03*
X318110Y65354D02*
D03*
X316929Y79921D02*
D03*
X316142Y86221D02*
D03*
X311024Y72441D02*
D03*
X300394Y52756D02*
D03*
X186221Y45276D02*
D03*
X181496D02*
D03*
X171653D02*
D03*
X176378D02*
D03*
X79921Y31496D02*
D03*
X164567Y11417D02*
D03*
X174016Y10236D02*
D03*
X181496D02*
D03*
X190551D02*
D03*
X204331Y17717D02*
D03*
X156299Y19685D02*
D03*
X147244Y41732D02*
D03*
X213386Y30315D02*
D03*
X212992Y37008D02*
D03*
X203150Y37402D02*
D03*
X120079Y36614D02*
D03*
X107874Y35827D02*
D03*
X89370D02*
D03*
X77953Y36220D02*
D03*
X192126Y43307D02*
D03*
D100*
X68110Y83858D02*
D03*
X74016Y25591D02*
D03*
M02*
