G04*
G04 #@! TF.GenerationSoftware,Altium Limited,Altium Designer,21.9.2 (33)*
G04*
G04 Layer_Color=16711935*
%FSLAX25Y25*%
%MOIN*%
G70*
G04*
G04 #@! TF.SameCoordinates,AF823FE0-973A-453D-8A6F-17937DE8E2E7*
G04*
G04*
G04 #@! TF.FilePolarity,Negative*
G04*
G01*
G75*
%ADD55C,0.00394*%
%ADD56C,0.05709*%
%ADD57C,0.09843*%
%ADD58O,0.15354X0.07480*%
%ADD59O,0.07480X0.14173*%
%ADD60O,0.16142X0.07480*%
%ADD61C,0.07480*%
%ADD62C,0.05794*%
%ADD63O,0.05906X0.06394*%
%ADD65R,0.06693X0.06693*%
%ADD66C,0.06693*%
%ADD67C,0.07087*%
%ADD68R,0.06693X0.06693*%
%ADD69O,0.08268X0.09843*%
%ADD70C,0.05906*%
%ADD71C,0.02795*%
%ADD72C,0.02756*%
%ADD73C,0.05394*%
%ADD103R,0.12205X0.08268*%
%ADD104C,0.24803*%
D55*
X206102Y7756D02*
D03*
X156102D02*
D03*
X307087Y265846D02*
D03*
Y147539D02*
D03*
X51181D02*
D03*
Y265846D02*
D03*
X203209Y82677D02*
D03*
X158209D02*
D03*
D56*
X195158Y17756D02*
D03*
X187126D02*
D03*
X179095D02*
D03*
X171063D02*
D03*
X191142Y24764D02*
D03*
X183110D02*
D03*
X175079D02*
D03*
X167047D02*
D03*
X154095Y43701D02*
D03*
X163110D02*
D03*
X199094D02*
D03*
X208110D02*
D03*
D57*
X149094Y21772D02*
D03*
X213110D02*
D03*
D58*
X269685Y16929D02*
D03*
D59*
X288976Y28346D02*
D03*
D60*
X269685Y40551D02*
D03*
D61*
X309134Y166831D02*
D03*
Y176831D02*
D03*
Y186831D02*
D03*
Y196831D02*
D03*
Y206831D02*
D03*
Y216831D02*
D03*
Y226831D02*
D03*
Y236831D02*
D03*
Y246831D02*
D03*
X49134Y176831D02*
D03*
Y186831D02*
D03*
Y196831D02*
D03*
Y206831D02*
D03*
Y216831D02*
D03*
Y226831D02*
D03*
Y236831D02*
D03*
Y246831D02*
D03*
X317323Y106693D02*
D03*
X297638D02*
D03*
D62*
X340158Y210630D02*
D03*
Y230315D02*
D03*
Y186221D02*
D03*
Y166535D02*
D03*
D63*
X235315Y13228D02*
D03*
X225315D02*
D03*
X235315Y23228D02*
D03*
X225315D02*
D03*
X235315Y33228D02*
D03*
X225315D02*
D03*
D65*
X346850Y72638D02*
D03*
X31102Y229803D02*
D03*
X16142Y219803D02*
D03*
D66*
X346850Y86417D02*
D03*
Y113976D02*
D03*
Y100197D02*
D03*
X268622Y111811D02*
D03*
X31102Y219803D02*
D03*
X16142Y229803D02*
D03*
X274685Y65748D02*
D03*
D67*
X251024Y125197D02*
D03*
X261024D02*
D03*
X281024D02*
D03*
X271024D02*
D03*
X265158Y86024D02*
D03*
X275000D02*
D03*
X265158Y98228D02*
D03*
X275000D02*
D03*
D68*
X278622Y111811D02*
D03*
X264685Y65748D02*
D03*
D69*
X211811Y70669D02*
D03*
X149606D02*
D03*
D70*
X168208Y117677D02*
D03*
X173208Y107677D02*
D03*
X178209Y117677D02*
D03*
X183208Y107677D02*
D03*
X188208Y117677D02*
D03*
X193208Y107677D02*
D03*
X198208Y117677D02*
D03*
X163208Y107677D02*
D03*
D71*
X142520Y231496D02*
D03*
X146063D02*
D03*
X149606D02*
D03*
X153150D02*
D03*
X156693D02*
D03*
X160236D02*
D03*
Y235039D02*
D03*
X156693D02*
D03*
X153150D02*
D03*
X149606D02*
D03*
X146063D02*
D03*
X142520D02*
D03*
X160236Y238583D02*
D03*
X156693D02*
D03*
X153150D02*
D03*
X149606D02*
D03*
X146063D02*
D03*
X142520D02*
D03*
X160236Y242126D02*
D03*
X156693D02*
D03*
X153150D02*
D03*
X149606D02*
D03*
X146063D02*
D03*
X142520D02*
D03*
X160236Y245669D02*
D03*
X156693D02*
D03*
X153150D02*
D03*
X149606D02*
D03*
X146063D02*
D03*
X142520D02*
D03*
X160236Y249213D02*
D03*
X156693D02*
D03*
X153150D02*
D03*
X149606D02*
D03*
X146063D02*
D03*
X142520D02*
D03*
X78740Y167323D02*
D03*
X82284D02*
D03*
X85827D02*
D03*
X89370D02*
D03*
X92913D02*
D03*
X96457D02*
D03*
Y170866D02*
D03*
X92913D02*
D03*
X89370D02*
D03*
X85827D02*
D03*
X82284D02*
D03*
X78740D02*
D03*
X96457Y174409D02*
D03*
X92913D02*
D03*
X89370D02*
D03*
X85827D02*
D03*
X82284D02*
D03*
X78740D02*
D03*
X96457Y177953D02*
D03*
X92913D02*
D03*
X89370D02*
D03*
X85827D02*
D03*
X82284D02*
D03*
X78740D02*
D03*
X96457Y181496D02*
D03*
X92913D02*
D03*
X89370D02*
D03*
X85827D02*
D03*
X82284D02*
D03*
X78740D02*
D03*
X96457Y185039D02*
D03*
X92913D02*
D03*
X89370D02*
D03*
X85827D02*
D03*
X82284D02*
D03*
X78740D02*
D03*
X266929Y227953D02*
D03*
X270472D02*
D03*
X274016D02*
D03*
X277559D02*
D03*
X281102D02*
D03*
X284646D02*
D03*
Y231496D02*
D03*
X281102D02*
D03*
X277559D02*
D03*
X274016D02*
D03*
X270472D02*
D03*
X266929D02*
D03*
X284646Y235039D02*
D03*
X281102D02*
D03*
X277559D02*
D03*
X274016D02*
D03*
X270472D02*
D03*
X266929D02*
D03*
X284646Y238583D02*
D03*
X281102D02*
D03*
X277559D02*
D03*
X274016D02*
D03*
X270472D02*
D03*
X266929D02*
D03*
X284646Y242126D02*
D03*
X281102D02*
D03*
X277559D02*
D03*
X274016D02*
D03*
X270472D02*
D03*
X266929D02*
D03*
X284646Y245669D02*
D03*
X281102D02*
D03*
X277559D02*
D03*
X274016D02*
D03*
X270472D02*
D03*
X266929D02*
D03*
Y166929D02*
D03*
X270472D02*
D03*
X274016D02*
D03*
X277559D02*
D03*
X281102D02*
D03*
X284646D02*
D03*
Y170473D02*
D03*
X281102D02*
D03*
X277559D02*
D03*
X274016D02*
D03*
X270472D02*
D03*
X266929D02*
D03*
X284646Y174016D02*
D03*
X281102D02*
D03*
X277559D02*
D03*
X274016D02*
D03*
X270472D02*
D03*
X266929D02*
D03*
X284646Y177559D02*
D03*
X281102D02*
D03*
X277559D02*
D03*
X274016D02*
D03*
X270472D02*
D03*
X266929D02*
D03*
X284646Y181102D02*
D03*
X281102D02*
D03*
X277559D02*
D03*
X274016D02*
D03*
X270472D02*
D03*
X266929D02*
D03*
X284646Y184646D02*
D03*
X281102D02*
D03*
X277559D02*
D03*
X274016D02*
D03*
X270472D02*
D03*
X266929D02*
D03*
D72*
X6693Y268898D02*
D03*
X5118Y175591D02*
D03*
X5512Y161811D02*
D03*
Y144488D02*
D03*
X212598Y263779D02*
D03*
X218504Y251968D02*
D03*
X212598Y240157D02*
D03*
X218504Y228346D02*
D03*
X212598Y216535D02*
D03*
X218504Y204724D02*
D03*
X212598Y192913D02*
D03*
X218504Y181102D02*
D03*
X212598Y169291D02*
D03*
X218504Y157480D02*
D03*
X200787Y263779D02*
D03*
X206693Y251968D02*
D03*
X200787Y240157D02*
D03*
X206693Y228346D02*
D03*
X200787Y216535D02*
D03*
X206693Y204724D02*
D03*
X200787Y192913D02*
D03*
X206693Y181102D02*
D03*
X188976Y263779D02*
D03*
X194882Y251968D02*
D03*
X188976Y240157D02*
D03*
X194882Y228346D02*
D03*
X188976Y216535D02*
D03*
X194882Y204724D02*
D03*
X188976Y192913D02*
D03*
X194882Y181102D02*
D03*
X177165Y263779D02*
D03*
X183071Y251968D02*
D03*
X177165Y240157D02*
D03*
X183071Y228346D02*
D03*
X177165Y216535D02*
D03*
X183071Y204724D02*
D03*
X177165Y169291D02*
D03*
X183071Y157480D02*
D03*
X165354Y263779D02*
D03*
X171260Y251968D02*
D03*
Y228346D02*
D03*
X165354Y216535D02*
D03*
X171260Y204724D02*
D03*
X165354Y169291D02*
D03*
X171260Y157480D02*
D03*
X153543Y263779D02*
D03*
Y192913D02*
D03*
X159449Y181102D02*
D03*
X153543Y169291D02*
D03*
X159449Y157480D02*
D03*
X141732Y263779D02*
D03*
Y192913D02*
D03*
X147638Y181102D02*
D03*
X141732Y169291D02*
D03*
X147638Y157480D02*
D03*
X129921Y263779D02*
D03*
Y240157D02*
D03*
X135827Y204724D02*
D03*
X129921Y192913D02*
D03*
X135827Y181102D02*
D03*
X129921Y169291D02*
D03*
X135827Y157480D02*
D03*
X118110Y263779D02*
D03*
X124016Y251968D02*
D03*
X118110Y240157D02*
D03*
X124016Y228346D02*
D03*
Y204724D02*
D03*
X118110Y192913D02*
D03*
X124016Y181102D02*
D03*
X118110Y169291D02*
D03*
X124016Y157480D02*
D03*
X106299Y263779D02*
D03*
X112205Y251968D02*
D03*
X106299Y240157D02*
D03*
X112205Y228346D02*
D03*
Y204724D02*
D03*
X106299Y192913D02*
D03*
X112205Y181102D02*
D03*
X106299Y169291D02*
D03*
X112205Y157480D02*
D03*
X94488Y263779D02*
D03*
X100394Y251968D02*
D03*
X94488Y240157D02*
D03*
X100394Y228346D02*
D03*
Y204724D02*
D03*
X94488Y192913D02*
D03*
X100394Y157480D02*
D03*
X82677Y263779D02*
D03*
X88583Y251968D02*
D03*
X82677Y240157D02*
D03*
X88583Y228346D02*
D03*
Y204724D02*
D03*
X82677Y192913D02*
D03*
X88583Y157480D02*
D03*
X70866Y263779D02*
D03*
X76771Y251968D02*
D03*
X70866Y240157D02*
D03*
X76771Y228346D02*
D03*
Y204724D02*
D03*
X70866Y192913D02*
D03*
X59055Y263779D02*
D03*
X64960Y251968D02*
D03*
Y204724D02*
D03*
X59055Y192913D02*
D03*
Y145669D02*
D03*
X53149Y251968D02*
D03*
X47244Y169291D02*
D03*
X53149Y157480D02*
D03*
X35433Y240157D02*
D03*
X23622D02*
D03*
X11811D02*
D03*
X77165Y132677D02*
D03*
X61811D02*
D03*
X72047D02*
D03*
X66929D02*
D03*
D73*
X68110Y83858D02*
D03*
X121653Y51968D02*
D03*
X106555Y51831D02*
D03*
X74016Y25591D02*
D03*
X67323Y37008D02*
D03*
D103*
X326772Y177165D02*
D03*
Y195276D02*
D03*
Y186221D02*
D03*
Y215354D02*
D03*
Y224410D02*
D03*
Y206299D02*
D03*
D104*
X338583Y39370D02*
D03*
Y255906D02*
D03*
X23622Y39370D02*
D03*
Y255906D02*
D03*
M02*
